G04 #@! TF.GenerationSoftware,KiCad,Pcbnew,(6.0.0-0)*
G04 #@! TF.CreationDate,2022-01-16T18:57:30+10:00*
G04 #@! TF.ProjectId,osw-light,6f73772d-6c69-4676-9874-2e6b69636164,3.3*
G04 #@! TF.SameCoordinates,Original*
G04 #@! TF.FileFunction,Legend,Top*
G04 #@! TF.FilePolarity,Positive*
%FSLAX46Y46*%
G04 Gerber Fmt 4.6, Leading zero omitted, Abs format (unit mm)*
G04 Created by KiCad (PCBNEW (6.0.0-0)) date 2022-01-16 18:57:30*
%MOMM*%
%LPD*%
G01*
G04 APERTURE LIST*
G04 Aperture macros list*
%AMRoundRect*
0 Rectangle with rounded corners*
0 $1 Rounding radius*
0 $2 $3 $4 $5 $6 $7 $8 $9 X,Y pos of 4 corners*
0 Add a 4 corners polygon primitive as box body*
4,1,4,$2,$3,$4,$5,$6,$7,$8,$9,$2,$3,0*
0 Add four circle primitives for the rounded corners*
1,1,$1+$1,$2,$3*
1,1,$1+$1,$4,$5*
1,1,$1+$1,$6,$7*
1,1,$1+$1,$8,$9*
0 Add four rect primitives between the rounded corners*
20,1,$1+$1,$2,$3,$4,$5,0*
20,1,$1+$1,$4,$5,$6,$7,0*
20,1,$1+$1,$6,$7,$8,$9,0*
20,1,$1+$1,$8,$9,$2,$3,0*%
%AMHorizOval*
0 Thick line with rounded ends*
0 $1 width*
0 $2 $3 position (X,Y) of the first rounded end (center of the circle)*
0 $4 $5 position (X,Y) of the second rounded end (center of the circle)*
0 Add line between two ends*
20,1,$1,$2,$3,$4,$5,0*
0 Add two circle primitives to create the rounded ends*
1,1,$1,$2,$3*
1,1,$1,$4,$5*%
G04 Aperture macros list end*
%ADD10C,0.160000*%
%ADD11C,0.200000*%
%ADD12C,0.100000*%
%ADD13C,0.150000*%
%ADD14C,0.120000*%
%ADD15O,1.102000X2.102000*%
%ADD16O,1.152000X2.202000*%
%ADD17RoundRect,0.051000X-0.150000X-0.575000X0.150000X-0.575000X0.150000X0.575000X-0.150000X0.575000X0*%
%ADD18RoundRect,0.051000X-0.300000X-0.575000X0.300000X-0.575000X0.300000X0.575000X-0.300000X0.575000X0*%
%ADD19C,0.752000*%
%ADD20RoundRect,0.051000X-0.624683X0.502907X0.205347X-0.775227X0.624683X-0.502907X-0.205347X0.775227X0*%
%ADD21HorizOval,0.702000X0.251623X-0.387466X-0.251623X0.387466X0*%
%ADD22RoundRect,0.051000X0.205347X0.775227X-0.624683X-0.502907X-0.205347X-0.775227X0.624683X0.502907X0*%
%ADD23HorizOval,0.702000X-0.251623X-0.387466X0.251623X0.387466X0*%
%ADD24RoundRect,0.251000X0.200000X0.275000X-0.200000X0.275000X-0.200000X-0.275000X0.200000X-0.275000X0*%
%ADD25RoundRect,0.276000X-0.225000X-0.250000X0.225000X-0.250000X0.225000X0.250000X-0.225000X0.250000X0*%
%ADD26RoundRect,0.251000X-0.200000X-0.275000X0.200000X-0.275000X0.200000X0.275000X-0.200000X0.275000X0*%
%ADD27RoundRect,0.201000X-0.825000X-0.150000X0.825000X-0.150000X0.825000X0.150000X-0.825000X0.150000X0*%
%ADD28RoundRect,0.276000X0.225000X0.250000X-0.225000X0.250000X-0.225000X-0.250000X0.225000X-0.250000X0*%
%ADD29RoundRect,0.276000X0.250000X-0.225000X0.250000X0.225000X-0.250000X0.225000X-0.250000X-0.225000X0*%
%ADD30RoundRect,0.051000X0.624683X-0.502907X-0.205347X0.775227X-0.624683X0.502907X0.205347X-0.775227X0*%
%ADD31HorizOval,0.702000X-0.251623X0.387466X0.251623X-0.387466X0*%
%ADD32RoundRect,0.051000X-0.700000X-0.150000X0.700000X-0.150000X0.700000X0.150000X-0.700000X0.150000X0*%
%ADD33RoundRect,0.151000X0.637500X0.100000X-0.637500X0.100000X-0.637500X-0.100000X0.637500X-0.100000X0*%
%ADD34RoundRect,0.051000X-0.187500X-0.175000X0.187500X-0.175000X0.187500X0.175000X-0.187500X0.175000X0*%
%ADD35RoundRect,0.051000X-0.175000X0.187500X-0.175000X-0.187500X0.175000X-0.187500X0.175000X0.187500X0*%
%ADD36RoundRect,0.251000X-0.275000X0.200000X-0.275000X-0.200000X0.275000X-0.200000X0.275000X0.200000X0*%
%ADD37RoundRect,0.301000X-0.325000X-0.650000X0.325000X-0.650000X0.325000X0.650000X-0.325000X0.650000X0*%
%ADD38RoundRect,0.201000X0.150000X-0.512500X0.150000X0.512500X-0.150000X0.512500X-0.150000X-0.512500X0*%
%ADD39RoundRect,0.051000X-0.300000X0.762000X-0.300000X-0.762000X0.300000X-0.762000X0.300000X0.762000X0*%
%ADD40RoundRect,0.051000X-0.762000X-0.300000X0.762000X-0.300000X0.762000X0.300000X-0.762000X0.300000X0*%
%ADD41RoundRect,0.051000X-2.500000X2.500000X-2.500000X-2.500000X2.500000X-2.500000X2.500000X2.500000X0*%
%ADD42RoundRect,0.201000X-0.587500X-0.150000X0.587500X-0.150000X0.587500X0.150000X-0.587500X0.150000X0*%
%ADD43RoundRect,0.051000X-0.205347X-0.775227X0.624683X0.502907X0.205347X0.775227X-0.624683X-0.502907X0*%
%ADD44HorizOval,0.702000X0.251623X0.387466X-0.251623X-0.387466X0*%
%ADD45RoundRect,0.051000X-0.325000X0.530000X-0.325000X-0.530000X0.325000X-0.530000X0.325000X0.530000X0*%
%ADD46RoundRect,0.294750X0.456250X-0.243750X0.456250X0.243750X-0.456250X0.243750X-0.456250X-0.243750X0*%
%ADD47O,1.802000X1.802000*%
%ADD48RoundRect,0.051000X0.850000X0.850000X-0.850000X0.850000X-0.850000X-0.850000X0.850000X-0.850000X0*%
%ADD49RoundRect,0.251000X0.275000X-0.200000X0.275000X0.200000X-0.275000X0.200000X-0.275000X-0.200000X0*%
G04 APERTURE END LIST*
D10*
X60150476Y-98590000D02*
X60074285Y-98551904D01*
X59960000Y-98551904D01*
X59845714Y-98590000D01*
X59769523Y-98666190D01*
X59731428Y-98742380D01*
X59693333Y-98894761D01*
X59693333Y-99009047D01*
X59731428Y-99161428D01*
X59769523Y-99237619D01*
X59845714Y-99313809D01*
X59960000Y-99351904D01*
X60036190Y-99351904D01*
X60150476Y-99313809D01*
X60188571Y-99275714D01*
X60188571Y-99009047D01*
X60036190Y-99009047D01*
X60531428Y-99351904D02*
X60531428Y-98551904D01*
X60988571Y-99351904D01*
X60988571Y-98551904D01*
X61369523Y-99351904D02*
X61369523Y-98551904D01*
X61560000Y-98551904D01*
X61674285Y-98590000D01*
X61750476Y-98666190D01*
X61788571Y-98742380D01*
X61826666Y-98894761D01*
X61826666Y-99009047D01*
X61788571Y-99161428D01*
X61750476Y-99237619D01*
X61674285Y-99313809D01*
X61560000Y-99351904D01*
X61369523Y-99351904D01*
D11*
X82189523Y-117742380D02*
X81856190Y-117266190D01*
X81618095Y-117742380D02*
X81618095Y-116742380D01*
X81999047Y-116742380D01*
X82094285Y-116790000D01*
X82141904Y-116837619D01*
X82189523Y-116932857D01*
X82189523Y-117075714D01*
X82141904Y-117170952D01*
X82094285Y-117218571D01*
X81999047Y-117266190D01*
X81618095Y-117266190D01*
X71215214Y-117800380D02*
X70643785Y-117800380D01*
X70929500Y-117800380D02*
X70929500Y-116800380D01*
X70834261Y-116943238D01*
X70739023Y-117038476D01*
X70643785Y-117086095D01*
X81930833Y-86907619D02*
X81311785Y-86907619D01*
X81645119Y-86526666D01*
X81502261Y-86526666D01*
X81407023Y-86479047D01*
X81359404Y-86431428D01*
X81311785Y-86336190D01*
X81311785Y-86098095D01*
X81359404Y-86002857D01*
X81407023Y-85955238D01*
X81502261Y-85907619D01*
X81787976Y-85907619D01*
X81883214Y-85955238D01*
X81930833Y-86002857D01*
X64166714Y-90050880D02*
X64119095Y-90098500D01*
X64023857Y-90146119D01*
X63785761Y-90146119D01*
X63690523Y-90098500D01*
X63642904Y-90050880D01*
X63595285Y-89955642D01*
X63595285Y-89860404D01*
X63642904Y-89717547D01*
X64214333Y-89146119D01*
X63595285Y-89146119D01*
D10*
X59446190Y-106631904D02*
X59712857Y-107431904D01*
X59979523Y-106631904D01*
X60779523Y-106631904D02*
X61274761Y-106631904D01*
X61008095Y-106936666D01*
X61122380Y-106936666D01*
X61198571Y-106974761D01*
X61236666Y-107012857D01*
X61274761Y-107089047D01*
X61274761Y-107279523D01*
X61236666Y-107355714D01*
X61198571Y-107393809D01*
X61122380Y-107431904D01*
X60893809Y-107431904D01*
X60817619Y-107393809D01*
X60779523Y-107355714D01*
X61617619Y-107355714D02*
X61655714Y-107393809D01*
X61617619Y-107431904D01*
X61579523Y-107393809D01*
X61617619Y-107355714D01*
X61617619Y-107431904D01*
X61922380Y-106631904D02*
X62417619Y-106631904D01*
X62150952Y-106936666D01*
X62265238Y-106936666D01*
X62341428Y-106974761D01*
X62379523Y-107012857D01*
X62417619Y-107089047D01*
X62417619Y-107279523D01*
X62379523Y-107355714D01*
X62341428Y-107393809D01*
X62265238Y-107431904D01*
X62036666Y-107431904D01*
X61960476Y-107393809D01*
X61922380Y-107355714D01*
X59328214Y-105130654D02*
X59594880Y-105930654D01*
X59861547Y-105130654D01*
X60394880Y-105511607D02*
X60509166Y-105549702D01*
X60547261Y-105587797D01*
X60585357Y-105663988D01*
X60585357Y-105778273D01*
X60547261Y-105854464D01*
X60509166Y-105892559D01*
X60432976Y-105930654D01*
X60128214Y-105930654D01*
X60128214Y-105130654D01*
X60394880Y-105130654D01*
X60471071Y-105168750D01*
X60509166Y-105206845D01*
X60547261Y-105283035D01*
X60547261Y-105359226D01*
X60509166Y-105435416D01*
X60471071Y-105473511D01*
X60394880Y-105511607D01*
X60128214Y-105511607D01*
X60890119Y-105702083D02*
X61271071Y-105702083D01*
X60813928Y-105930654D02*
X61080595Y-105130654D01*
X61347261Y-105930654D01*
X61499642Y-105130654D02*
X61956785Y-105130654D01*
X61728214Y-105930654D02*
X61728214Y-105130654D01*
D12*
X81323333Y-110996190D02*
X81323333Y-111353333D01*
X81299523Y-111424761D01*
X81251904Y-111472380D01*
X81180476Y-111496190D01*
X81132857Y-111496190D01*
X81537619Y-111043809D02*
X81561428Y-111020000D01*
X81609047Y-110996190D01*
X81728095Y-110996190D01*
X81775714Y-111020000D01*
X81799523Y-111043809D01*
X81823333Y-111091428D01*
X81823333Y-111139047D01*
X81799523Y-111210476D01*
X81513809Y-111496190D01*
X81823333Y-111496190D01*
X83892688Y-114751658D02*
X83950986Y-114736511D01*
X84030860Y-114684640D01*
X84052435Y-114647918D01*
X84058036Y-114621569D01*
X84053262Y-114579245D01*
X84032514Y-114547296D01*
X83995791Y-114525721D01*
X83969442Y-114520120D01*
X83927119Y-114524894D01*
X83852846Y-114550415D01*
X83810523Y-114555189D01*
X83784174Y-114549588D01*
X83747451Y-114528013D01*
X83726703Y-114496064D01*
X83721929Y-114453740D01*
X83727530Y-114427391D01*
X83749105Y-114390669D01*
X83828979Y-114338798D01*
X83887277Y-114323651D01*
X83988726Y-114235057D02*
X84286455Y-114518655D01*
X84194742Y-114237539D01*
X84414252Y-114435663D01*
X84276270Y-114048324D01*
X84620458Y-113983787D02*
X84765695Y-114207433D01*
X84457592Y-113907860D02*
X84533330Y-114199351D01*
X84741000Y-114064488D01*
X69215470Y-114844688D02*
X69177920Y-114797591D01*
X69098047Y-114745721D01*
X69055723Y-114740947D01*
X69029375Y-114746548D01*
X68992652Y-114768123D01*
X68971904Y-114800072D01*
X68967130Y-114842396D01*
X68972731Y-114868745D01*
X68994306Y-114905467D01*
X69047831Y-114962938D01*
X69069406Y-114999661D01*
X69075007Y-115026010D01*
X69070233Y-115068333D01*
X69049485Y-115100283D01*
X69012762Y-115121858D01*
X68986413Y-115127459D01*
X68944090Y-115122685D01*
X68864216Y-115070815D01*
X68826667Y-115023718D01*
X68704470Y-114967074D02*
X68842452Y-114579735D01*
X68622942Y-114777859D01*
X68714655Y-114496743D01*
X68416926Y-114780341D01*
X68129381Y-114593607D02*
X68289128Y-114697348D01*
X68408844Y-114547975D01*
X68382495Y-114553576D01*
X68340171Y-114548802D01*
X68260298Y-114496932D01*
X68238723Y-114460209D01*
X68233122Y-114433860D01*
X68237896Y-114391537D01*
X68289766Y-114311664D01*
X68326489Y-114290088D01*
X68352838Y-114284488D01*
X68395161Y-114289261D01*
X68475034Y-114341132D01*
X68496610Y-114377854D01*
X68502210Y-114404203D01*
X63856666Y-113426190D02*
X63690000Y-113188095D01*
X63570952Y-113426190D02*
X63570952Y-112926190D01*
X63761428Y-112926190D01*
X63809047Y-112950000D01*
X63832857Y-112973809D01*
X63856666Y-113021428D01*
X63856666Y-113092857D01*
X63832857Y-113140476D01*
X63809047Y-113164285D01*
X63761428Y-113188095D01*
X63570952Y-113188095D01*
X64094761Y-113426190D02*
X64190000Y-113426190D01*
X64237619Y-113402380D01*
X64261428Y-113378571D01*
X64309047Y-113307142D01*
X64332857Y-113211904D01*
X64332857Y-113021428D01*
X64309047Y-112973809D01*
X64285238Y-112950000D01*
X64237619Y-112926190D01*
X64142380Y-112926190D01*
X64094761Y-112950000D01*
X64070952Y-112973809D01*
X64047142Y-113021428D01*
X64047142Y-113140476D01*
X64070952Y-113188095D01*
X64094761Y-113211904D01*
X64142380Y-113235714D01*
X64237619Y-113235714D01*
X64285238Y-113211904D01*
X64309047Y-113188095D01*
X64332857Y-113140476D01*
X70836666Y-107728571D02*
X70812857Y-107752380D01*
X70741428Y-107776190D01*
X70693809Y-107776190D01*
X70622380Y-107752380D01*
X70574761Y-107704761D01*
X70550952Y-107657142D01*
X70527142Y-107561904D01*
X70527142Y-107490476D01*
X70550952Y-107395238D01*
X70574761Y-107347619D01*
X70622380Y-107300000D01*
X70693809Y-107276190D01*
X70741428Y-107276190D01*
X70812857Y-107300000D01*
X70836666Y-107323809D01*
X71027142Y-107323809D02*
X71050952Y-107300000D01*
X71098571Y-107276190D01*
X71217619Y-107276190D01*
X71265238Y-107300000D01*
X71289047Y-107323809D01*
X71312857Y-107371428D01*
X71312857Y-107419047D01*
X71289047Y-107490476D01*
X71003333Y-107776190D01*
X71312857Y-107776190D01*
X84244666Y-109814490D02*
X84078000Y-109576395D01*
X83958952Y-109814490D02*
X83958952Y-109314490D01*
X84149428Y-109314490D01*
X84197047Y-109338300D01*
X84220857Y-109362109D01*
X84244666Y-109409728D01*
X84244666Y-109481157D01*
X84220857Y-109528776D01*
X84197047Y-109552585D01*
X84149428Y-109576395D01*
X83958952Y-109576395D01*
X84673238Y-109481157D02*
X84673238Y-109814490D01*
X84554190Y-109290680D02*
X84435142Y-109647823D01*
X84744666Y-109647823D01*
X89023071Y-90764490D02*
X88856404Y-90526395D01*
X88737357Y-90764490D02*
X88737357Y-90264490D01*
X88927833Y-90264490D01*
X88975452Y-90288300D01*
X88999261Y-90312109D01*
X89023071Y-90359728D01*
X89023071Y-90431157D01*
X88999261Y-90478776D01*
X88975452Y-90502585D01*
X88927833Y-90526395D01*
X88737357Y-90526395D01*
X89499261Y-90764490D02*
X89213547Y-90764490D01*
X89356404Y-90764490D02*
X89356404Y-90264490D01*
X89308785Y-90335919D01*
X89261166Y-90383538D01*
X89213547Y-90407347D01*
X89975452Y-90764490D02*
X89689738Y-90764490D01*
X89832595Y-90764490D02*
X89832595Y-90264490D01*
X89784976Y-90335919D01*
X89737357Y-90383538D01*
X89689738Y-90407347D01*
X83806666Y-93716190D02*
X83640000Y-93478095D01*
X83520952Y-93716190D02*
X83520952Y-93216190D01*
X83711428Y-93216190D01*
X83759047Y-93240000D01*
X83782857Y-93263809D01*
X83806666Y-93311428D01*
X83806666Y-93382857D01*
X83782857Y-93430476D01*
X83759047Y-93454285D01*
X83711428Y-93478095D01*
X83520952Y-93478095D01*
X84235238Y-93216190D02*
X84140000Y-93216190D01*
X84092380Y-93240000D01*
X84068571Y-93263809D01*
X84020952Y-93335238D01*
X83997142Y-93430476D01*
X83997142Y-93620952D01*
X84020952Y-93668571D01*
X84044761Y-93692380D01*
X84092380Y-93716190D01*
X84187619Y-93716190D01*
X84235238Y-93692380D01*
X84259047Y-93668571D01*
X84282857Y-93620952D01*
X84282857Y-93501904D01*
X84259047Y-93454285D01*
X84235238Y-93430476D01*
X84187619Y-93406666D01*
X84092380Y-93406666D01*
X84044761Y-93430476D01*
X84020952Y-93454285D01*
X83997142Y-93501904D01*
X86876206Y-90759410D02*
X86709540Y-90521315D01*
X86590492Y-90759410D02*
X86590492Y-90259410D01*
X86780968Y-90259410D01*
X86828587Y-90283220D01*
X86852397Y-90307029D01*
X86876206Y-90354648D01*
X86876206Y-90426077D01*
X86852397Y-90473696D01*
X86828587Y-90497505D01*
X86780968Y-90521315D01*
X86590492Y-90521315D01*
X87042873Y-90259410D02*
X87376206Y-90259410D01*
X87161920Y-90759410D01*
X75747927Y-86365590D02*
X75747927Y-86770352D01*
X75771737Y-86817971D01*
X75795546Y-86841780D01*
X75843165Y-86865590D01*
X75938403Y-86865590D01*
X75986022Y-86841780D01*
X76009832Y-86817971D01*
X76033641Y-86770352D01*
X76033641Y-86365590D01*
X76533641Y-86865590D02*
X76247927Y-86865590D01*
X76390784Y-86865590D02*
X76390784Y-86365590D01*
X76343165Y-86437019D01*
X76295546Y-86484638D01*
X76247927Y-86508447D01*
X90924866Y-93376251D02*
X90901057Y-93400060D01*
X90829628Y-93423870D01*
X90782009Y-93423870D01*
X90710580Y-93400060D01*
X90662961Y-93352441D01*
X90639152Y-93304822D01*
X90615342Y-93209584D01*
X90615342Y-93138156D01*
X90639152Y-93042918D01*
X90662961Y-92995299D01*
X90710580Y-92947680D01*
X90782009Y-92923870D01*
X90829628Y-92923870D01*
X90901057Y-92947680D01*
X90924866Y-92971489D01*
X91210580Y-93138156D02*
X91162961Y-93114346D01*
X91139152Y-93090537D01*
X91115342Y-93042918D01*
X91115342Y-93019108D01*
X91139152Y-92971489D01*
X91162961Y-92947680D01*
X91210580Y-92923870D01*
X91305819Y-92923870D01*
X91353438Y-92947680D01*
X91377247Y-92971489D01*
X91401057Y-93019108D01*
X91401057Y-93042918D01*
X91377247Y-93090537D01*
X91353438Y-93114346D01*
X91305819Y-93138156D01*
X91210580Y-93138156D01*
X91162961Y-93161965D01*
X91139152Y-93185775D01*
X91115342Y-93233394D01*
X91115342Y-93328632D01*
X91139152Y-93376251D01*
X91162961Y-93400060D01*
X91210580Y-93423870D01*
X91305819Y-93423870D01*
X91353438Y-93400060D01*
X91377247Y-93376251D01*
X91401057Y-93328632D01*
X91401057Y-93233394D01*
X91377247Y-93185775D01*
X91353438Y-93161965D01*
X91305819Y-93138156D01*
X88232466Y-112107771D02*
X88208657Y-112131580D01*
X88137228Y-112155390D01*
X88089609Y-112155390D01*
X88018180Y-112131580D01*
X87970561Y-112083961D01*
X87946752Y-112036342D01*
X87922942Y-111941104D01*
X87922942Y-111869676D01*
X87946752Y-111774438D01*
X87970561Y-111726819D01*
X88018180Y-111679200D01*
X88089609Y-111655390D01*
X88137228Y-111655390D01*
X88208657Y-111679200D01*
X88232466Y-111703009D01*
X88470561Y-112155390D02*
X88565800Y-112155390D01*
X88613419Y-112131580D01*
X88637228Y-112107771D01*
X88684847Y-112036342D01*
X88708657Y-111941104D01*
X88708657Y-111750628D01*
X88684847Y-111703009D01*
X88661038Y-111679200D01*
X88613419Y-111655390D01*
X88518180Y-111655390D01*
X88470561Y-111679200D01*
X88446752Y-111703009D01*
X88422942Y-111750628D01*
X88422942Y-111869676D01*
X88446752Y-111917295D01*
X88470561Y-111941104D01*
X88518180Y-111964914D01*
X88613419Y-111964914D01*
X88661038Y-111941104D01*
X88684847Y-111917295D01*
X88708657Y-111869676D01*
X70628571Y-86731428D02*
X70652380Y-86755238D01*
X70676190Y-86826666D01*
X70676190Y-86874285D01*
X70652380Y-86945714D01*
X70604761Y-86993333D01*
X70557142Y-87017142D01*
X70461904Y-87040952D01*
X70390476Y-87040952D01*
X70295238Y-87017142D01*
X70247619Y-86993333D01*
X70200000Y-86945714D01*
X70176190Y-86874285D01*
X70176190Y-86826666D01*
X70200000Y-86755238D01*
X70223809Y-86731428D01*
X70676190Y-86255238D02*
X70676190Y-86540952D01*
X70676190Y-86398095D02*
X70176190Y-86398095D01*
X70247619Y-86445714D01*
X70295238Y-86493333D01*
X70319047Y-86540952D01*
X70676190Y-85779047D02*
X70676190Y-86064761D01*
X70676190Y-85921904D02*
X70176190Y-85921904D01*
X70247619Y-85969523D01*
X70295238Y-86017142D01*
X70319047Y-86064761D01*
X80488571Y-89568571D02*
X80464761Y-89592380D01*
X80393333Y-89616190D01*
X80345714Y-89616190D01*
X80274285Y-89592380D01*
X80226666Y-89544761D01*
X80202857Y-89497142D01*
X80179047Y-89401904D01*
X80179047Y-89330476D01*
X80202857Y-89235238D01*
X80226666Y-89187619D01*
X80274285Y-89140000D01*
X80345714Y-89116190D01*
X80393333Y-89116190D01*
X80464761Y-89140000D01*
X80488571Y-89163809D01*
X80964761Y-89616190D02*
X80679047Y-89616190D01*
X80821904Y-89616190D02*
X80821904Y-89116190D01*
X80774285Y-89187619D01*
X80726666Y-89235238D01*
X80679047Y-89259047D01*
X81131428Y-89116190D02*
X81440952Y-89116190D01*
X81274285Y-89306666D01*
X81345714Y-89306666D01*
X81393333Y-89330476D01*
X81417142Y-89354285D01*
X81440952Y-89401904D01*
X81440952Y-89520952D01*
X81417142Y-89568571D01*
X81393333Y-89592380D01*
X81345714Y-89616190D01*
X81202857Y-89616190D01*
X81155238Y-89592380D01*
X81131428Y-89568571D01*
X70134071Y-101976790D02*
X69967404Y-101738695D01*
X69848357Y-101976790D02*
X69848357Y-101476790D01*
X70038833Y-101476790D01*
X70086452Y-101500600D01*
X70110261Y-101524409D01*
X70134071Y-101572028D01*
X70134071Y-101643457D01*
X70110261Y-101691076D01*
X70086452Y-101714885D01*
X70038833Y-101738695D01*
X69848357Y-101738695D01*
X70610261Y-101976790D02*
X70324547Y-101976790D01*
X70467404Y-101976790D02*
X70467404Y-101476790D01*
X70419785Y-101548219D01*
X70372166Y-101595838D01*
X70324547Y-101619647D01*
X70848357Y-101976790D02*
X70943595Y-101976790D01*
X70991214Y-101952980D01*
X71015023Y-101929171D01*
X71062642Y-101857742D01*
X71086452Y-101762504D01*
X71086452Y-101572028D01*
X71062642Y-101524409D01*
X71038833Y-101500600D01*
X70991214Y-101476790D01*
X70895976Y-101476790D01*
X70848357Y-101500600D01*
X70824547Y-101524409D01*
X70800738Y-101572028D01*
X70800738Y-101691076D01*
X70824547Y-101738695D01*
X70848357Y-101762504D01*
X70895976Y-101786314D01*
X70991214Y-101786314D01*
X71038833Y-101762504D01*
X71062642Y-101738695D01*
X71086452Y-101691076D01*
X68310888Y-88906258D02*
X68369186Y-88891111D01*
X68449060Y-88839240D01*
X68470635Y-88802518D01*
X68476236Y-88776169D01*
X68471462Y-88733845D01*
X68450714Y-88701896D01*
X68413991Y-88680321D01*
X68387642Y-88674720D01*
X68345319Y-88679494D01*
X68271046Y-88705015D01*
X68228723Y-88709789D01*
X68202374Y-88704188D01*
X68165651Y-88682613D01*
X68144903Y-88650664D01*
X68140129Y-88608340D01*
X68145730Y-88581991D01*
X68167305Y-88545269D01*
X68247179Y-88493398D01*
X68305477Y-88478251D01*
X68406926Y-88389657D02*
X68704655Y-88673255D01*
X68612942Y-88392139D01*
X68832452Y-88590263D01*
X68694470Y-88202924D01*
X69215844Y-88341285D02*
X69024148Y-88465774D01*
X69119996Y-88403529D02*
X68902141Y-88068061D01*
X68901313Y-88136733D01*
X68890112Y-88189431D01*
X68868537Y-88226154D01*
X71933647Y-107495590D02*
X71933647Y-107900352D01*
X71957457Y-107947971D01*
X71981266Y-107971780D01*
X72028885Y-107995590D01*
X72124123Y-107995590D01*
X72171742Y-107971780D01*
X72195552Y-107947971D01*
X72219361Y-107900352D01*
X72219361Y-107495590D01*
X72671742Y-107495590D02*
X72576504Y-107495590D01*
X72528885Y-107519400D01*
X72505076Y-107543209D01*
X72457457Y-107614638D01*
X72433647Y-107709876D01*
X72433647Y-107900352D01*
X72457457Y-107947971D01*
X72481266Y-107971780D01*
X72528885Y-107995590D01*
X72624123Y-107995590D01*
X72671742Y-107971780D01*
X72695552Y-107947971D01*
X72719361Y-107900352D01*
X72719361Y-107781304D01*
X72695552Y-107733685D01*
X72671742Y-107709876D01*
X72624123Y-107686066D01*
X72528885Y-107686066D01*
X72481266Y-107709876D01*
X72457457Y-107733685D01*
X72433647Y-107781304D01*
X65599787Y-101748030D02*
X65599787Y-102152792D01*
X65623597Y-102200411D01*
X65647406Y-102224220D01*
X65695025Y-102248030D01*
X65790263Y-102248030D01*
X65837882Y-102224220D01*
X65861692Y-102200411D01*
X65885501Y-102152792D01*
X65885501Y-101748030D01*
X66147406Y-102248030D02*
X66242644Y-102248030D01*
X66290263Y-102224220D01*
X66314073Y-102200411D01*
X66361692Y-102128982D01*
X66385501Y-102033744D01*
X66385501Y-101843268D01*
X66361692Y-101795649D01*
X66337882Y-101771840D01*
X66290263Y-101748030D01*
X66195025Y-101748030D01*
X66147406Y-101771840D01*
X66123597Y-101795649D01*
X66099787Y-101843268D01*
X66099787Y-101962316D01*
X66123597Y-102009935D01*
X66147406Y-102033744D01*
X66195025Y-102057554D01*
X66290263Y-102057554D01*
X66337882Y-102033744D01*
X66361692Y-102009935D01*
X66385501Y-101962316D01*
X81929047Y-89986190D02*
X81929047Y-90390952D01*
X81952857Y-90438571D01*
X81976666Y-90462380D01*
X82024285Y-90486190D01*
X82119523Y-90486190D01*
X82167142Y-90462380D01*
X82190952Y-90438571D01*
X82214761Y-90390952D01*
X82214761Y-89986190D01*
X82429047Y-90033809D02*
X82452857Y-90010000D01*
X82500476Y-89986190D01*
X82619523Y-89986190D01*
X82667142Y-90010000D01*
X82690952Y-90033809D01*
X82714761Y-90081428D01*
X82714761Y-90129047D01*
X82690952Y-90200476D01*
X82405238Y-90486190D01*
X82714761Y-90486190D01*
X74567966Y-106575071D02*
X74544157Y-106598880D01*
X74472728Y-106622690D01*
X74425109Y-106622690D01*
X74353680Y-106598880D01*
X74306061Y-106551261D01*
X74282252Y-106503642D01*
X74258442Y-106408404D01*
X74258442Y-106336976D01*
X74282252Y-106241738D01*
X74306061Y-106194119D01*
X74353680Y-106146500D01*
X74425109Y-106122690D01*
X74472728Y-106122690D01*
X74544157Y-106146500D01*
X74567966Y-106170309D01*
X74734633Y-106122690D02*
X75044157Y-106122690D01*
X74877490Y-106313166D01*
X74948919Y-106313166D01*
X74996538Y-106336976D01*
X75020347Y-106360785D01*
X75044157Y-106408404D01*
X75044157Y-106527452D01*
X75020347Y-106575071D01*
X74996538Y-106598880D01*
X74948919Y-106622690D01*
X74806061Y-106622690D01*
X74758442Y-106598880D01*
X74734633Y-106575071D01*
X64298571Y-111156190D02*
X64131904Y-110918095D01*
X64012857Y-111156190D02*
X64012857Y-110656190D01*
X64203333Y-110656190D01*
X64250952Y-110680000D01*
X64274761Y-110703809D01*
X64298571Y-110751428D01*
X64298571Y-110822857D01*
X64274761Y-110870476D01*
X64250952Y-110894285D01*
X64203333Y-110918095D01*
X64012857Y-110918095D01*
X64774761Y-111156190D02*
X64489047Y-111156190D01*
X64631904Y-111156190D02*
X64631904Y-110656190D01*
X64584285Y-110727619D01*
X64536666Y-110775238D01*
X64489047Y-110799047D01*
X64941428Y-110656190D02*
X65250952Y-110656190D01*
X65084285Y-110846666D01*
X65155714Y-110846666D01*
X65203333Y-110870476D01*
X65227142Y-110894285D01*
X65250952Y-110941904D01*
X65250952Y-111060952D01*
X65227142Y-111108571D01*
X65203333Y-111132380D01*
X65155714Y-111156190D01*
X65012857Y-111156190D01*
X64965238Y-111132380D01*
X64941428Y-111108571D01*
X91420166Y-109941490D02*
X91253500Y-109703395D01*
X91134452Y-109941490D02*
X91134452Y-109441490D01*
X91324928Y-109441490D01*
X91372547Y-109465300D01*
X91396357Y-109489109D01*
X91420166Y-109536728D01*
X91420166Y-109608157D01*
X91396357Y-109655776D01*
X91372547Y-109679585D01*
X91324928Y-109703395D01*
X91134452Y-109703395D01*
X91705880Y-109655776D02*
X91658261Y-109631966D01*
X91634452Y-109608157D01*
X91610642Y-109560538D01*
X91610642Y-109536728D01*
X91634452Y-109489109D01*
X91658261Y-109465300D01*
X91705880Y-109441490D01*
X91801119Y-109441490D01*
X91848738Y-109465300D01*
X91872547Y-109489109D01*
X91896357Y-109536728D01*
X91896357Y-109560538D01*
X91872547Y-109608157D01*
X91848738Y-109631966D01*
X91801119Y-109655776D01*
X91705880Y-109655776D01*
X91658261Y-109679585D01*
X91634452Y-109703395D01*
X91610642Y-109751014D01*
X91610642Y-109846252D01*
X91634452Y-109893871D01*
X91658261Y-109917680D01*
X91705880Y-109941490D01*
X91801119Y-109941490D01*
X91848738Y-109917680D01*
X91872547Y-109893871D01*
X91896357Y-109846252D01*
X91896357Y-109751014D01*
X91872547Y-109703395D01*
X91848738Y-109679585D01*
X91801119Y-109655776D01*
X70254266Y-98983971D02*
X70230457Y-99007780D01*
X70159028Y-99031590D01*
X70111409Y-99031590D01*
X70039980Y-99007780D01*
X69992361Y-98960161D01*
X69968552Y-98912542D01*
X69944742Y-98817304D01*
X69944742Y-98745876D01*
X69968552Y-98650638D01*
X69992361Y-98603019D01*
X70039980Y-98555400D01*
X70111409Y-98531590D01*
X70159028Y-98531590D01*
X70230457Y-98555400D01*
X70254266Y-98579209D01*
X70706647Y-98531590D02*
X70468552Y-98531590D01*
X70444742Y-98769685D01*
X70468552Y-98745876D01*
X70516171Y-98722066D01*
X70635219Y-98722066D01*
X70682838Y-98745876D01*
X70706647Y-98769685D01*
X70730457Y-98817304D01*
X70730457Y-98936352D01*
X70706647Y-98983971D01*
X70682838Y-99007780D01*
X70635219Y-99031590D01*
X70516171Y-99031590D01*
X70468552Y-99007780D01*
X70444742Y-98983971D01*
X71178571Y-95808571D02*
X71154761Y-95832380D01*
X71083333Y-95856190D01*
X71035714Y-95856190D01*
X70964285Y-95832380D01*
X70916666Y-95784761D01*
X70892857Y-95737142D01*
X70869047Y-95641904D01*
X70869047Y-95570476D01*
X70892857Y-95475238D01*
X70916666Y-95427619D01*
X70964285Y-95380000D01*
X71035714Y-95356190D01*
X71083333Y-95356190D01*
X71154761Y-95380000D01*
X71178571Y-95403809D01*
X71654761Y-95856190D02*
X71369047Y-95856190D01*
X71511904Y-95856190D02*
X71511904Y-95356190D01*
X71464285Y-95427619D01*
X71416666Y-95475238D01*
X71369047Y-95499047D01*
X72083333Y-95522857D02*
X72083333Y-95856190D01*
X71964285Y-95332380D02*
X71845238Y-95689523D01*
X72154761Y-95689523D01*
X78118571Y-92461428D02*
X78142380Y-92485238D01*
X78166190Y-92556666D01*
X78166190Y-92604285D01*
X78142380Y-92675714D01*
X78094761Y-92723333D01*
X78047142Y-92747142D01*
X77951904Y-92770952D01*
X77880476Y-92770952D01*
X77785238Y-92747142D01*
X77737619Y-92723333D01*
X77690000Y-92675714D01*
X77666190Y-92604285D01*
X77666190Y-92556666D01*
X77690000Y-92485238D01*
X77713809Y-92461428D01*
X78166190Y-91985238D02*
X78166190Y-92270952D01*
X78166190Y-92128095D02*
X77666190Y-92128095D01*
X77737619Y-92175714D01*
X77785238Y-92223333D01*
X77809047Y-92270952D01*
X77666190Y-91556666D02*
X77666190Y-91651904D01*
X77690000Y-91699523D01*
X77713809Y-91723333D01*
X77785238Y-91770952D01*
X77880476Y-91794761D01*
X78070952Y-91794761D01*
X78118571Y-91770952D01*
X78142380Y-91747142D01*
X78166190Y-91699523D01*
X78166190Y-91604285D01*
X78142380Y-91556666D01*
X78118571Y-91532857D01*
X78070952Y-91509047D01*
X77951904Y-91509047D01*
X77904285Y-91532857D01*
X77880476Y-91556666D01*
X77856666Y-91604285D01*
X77856666Y-91699523D01*
X77880476Y-91747142D01*
X77904285Y-91770952D01*
X77951904Y-91794761D01*
X74348571Y-90471428D02*
X74372380Y-90495238D01*
X74396190Y-90566666D01*
X74396190Y-90614285D01*
X74372380Y-90685714D01*
X74324761Y-90733333D01*
X74277142Y-90757142D01*
X74181904Y-90780952D01*
X74110476Y-90780952D01*
X74015238Y-90757142D01*
X73967619Y-90733333D01*
X73920000Y-90685714D01*
X73896190Y-90614285D01*
X73896190Y-90566666D01*
X73920000Y-90495238D01*
X73943809Y-90471428D01*
X74396190Y-89995238D02*
X74396190Y-90280952D01*
X74396190Y-90138095D02*
X73896190Y-90138095D01*
X73967619Y-90185714D01*
X74015238Y-90233333D01*
X74039047Y-90280952D01*
X74110476Y-89709523D02*
X74086666Y-89757142D01*
X74062857Y-89780952D01*
X74015238Y-89804761D01*
X73991428Y-89804761D01*
X73943809Y-89780952D01*
X73920000Y-89757142D01*
X73896190Y-89709523D01*
X73896190Y-89614285D01*
X73920000Y-89566666D01*
X73943809Y-89542857D01*
X73991428Y-89519047D01*
X74015238Y-89519047D01*
X74062857Y-89542857D01*
X74086666Y-89566666D01*
X74110476Y-89614285D01*
X74110476Y-89709523D01*
X74134285Y-89757142D01*
X74158095Y-89780952D01*
X74205714Y-89804761D01*
X74300952Y-89804761D01*
X74348571Y-89780952D01*
X74372380Y-89757142D01*
X74396190Y-89709523D01*
X74396190Y-89614285D01*
X74372380Y-89566666D01*
X74348571Y-89542857D01*
X74300952Y-89519047D01*
X74205714Y-89519047D01*
X74158095Y-89542857D01*
X74134285Y-89566666D01*
X74110476Y-89614285D01*
X72420952Y-90326190D02*
X72420952Y-90730952D01*
X72444761Y-90778571D01*
X72468571Y-90802380D01*
X72516190Y-90826190D01*
X72611428Y-90826190D01*
X72659047Y-90802380D01*
X72682857Y-90778571D01*
X72706666Y-90730952D01*
X72706666Y-90326190D01*
X73206666Y-90826190D02*
X72920952Y-90826190D01*
X73063809Y-90826190D02*
X73063809Y-90326190D01*
X73016190Y-90397619D01*
X72968571Y-90445238D01*
X72920952Y-90469047D01*
X73516190Y-90326190D02*
X73563809Y-90326190D01*
X73611428Y-90350000D01*
X73635238Y-90373809D01*
X73659047Y-90421428D01*
X73682857Y-90516666D01*
X73682857Y-90635714D01*
X73659047Y-90730952D01*
X73635238Y-90778571D01*
X73611428Y-90802380D01*
X73563809Y-90826190D01*
X73516190Y-90826190D01*
X73468571Y-90802380D01*
X73444761Y-90778571D01*
X73420952Y-90730952D01*
X73397142Y-90635714D01*
X73397142Y-90516666D01*
X73420952Y-90421428D01*
X73444761Y-90373809D01*
X73468571Y-90350000D01*
X73516190Y-90326190D01*
X84089047Y-101296190D02*
X84089047Y-101700952D01*
X84112857Y-101748571D01*
X84136666Y-101772380D01*
X84184285Y-101796190D01*
X84279523Y-101796190D01*
X84327142Y-101772380D01*
X84350952Y-101748571D01*
X84374761Y-101700952D01*
X84374761Y-101296190D01*
X84565238Y-101296190D02*
X84898571Y-101296190D01*
X84684285Y-101796190D01*
X69798571Y-85456190D02*
X69631904Y-85218095D01*
X69512857Y-85456190D02*
X69512857Y-84956190D01*
X69703333Y-84956190D01*
X69750952Y-84980000D01*
X69774761Y-85003809D01*
X69798571Y-85051428D01*
X69798571Y-85122857D01*
X69774761Y-85170476D01*
X69750952Y-85194285D01*
X69703333Y-85218095D01*
X69512857Y-85218095D01*
X70274761Y-85456190D02*
X69989047Y-85456190D01*
X70131904Y-85456190D02*
X70131904Y-84956190D01*
X70084285Y-85027619D01*
X70036666Y-85075238D01*
X69989047Y-85099047D01*
X70560476Y-85170476D02*
X70512857Y-85146666D01*
X70489047Y-85122857D01*
X70465238Y-85075238D01*
X70465238Y-85051428D01*
X70489047Y-85003809D01*
X70512857Y-84980000D01*
X70560476Y-84956190D01*
X70655714Y-84956190D01*
X70703333Y-84980000D01*
X70727142Y-85003809D01*
X70750952Y-85051428D01*
X70750952Y-85075238D01*
X70727142Y-85122857D01*
X70703333Y-85146666D01*
X70655714Y-85170476D01*
X70560476Y-85170476D01*
X70512857Y-85194285D01*
X70489047Y-85218095D01*
X70465238Y-85265714D01*
X70465238Y-85360952D01*
X70489047Y-85408571D01*
X70512857Y-85432380D01*
X70560476Y-85456190D01*
X70655714Y-85456190D01*
X70703333Y-85432380D01*
X70727142Y-85408571D01*
X70750952Y-85360952D01*
X70750952Y-85265714D01*
X70727142Y-85218095D01*
X70703333Y-85194285D01*
X70655714Y-85170476D01*
X64096666Y-97606190D02*
X63930000Y-97368095D01*
X63810952Y-97606190D02*
X63810952Y-97106190D01*
X64001428Y-97106190D01*
X64049047Y-97130000D01*
X64072857Y-97153809D01*
X64096666Y-97201428D01*
X64096666Y-97272857D01*
X64072857Y-97320476D01*
X64049047Y-97344285D01*
X64001428Y-97368095D01*
X63810952Y-97368095D01*
X64572857Y-97606190D02*
X64287142Y-97606190D01*
X64430000Y-97606190D02*
X64430000Y-97106190D01*
X64382380Y-97177619D01*
X64334761Y-97225238D01*
X64287142Y-97249047D01*
X61496190Y-94101428D02*
X61258095Y-94268095D01*
X61496190Y-94387142D02*
X60996190Y-94387142D01*
X60996190Y-94196666D01*
X61020000Y-94149047D01*
X61043809Y-94125238D01*
X61091428Y-94101428D01*
X61162857Y-94101428D01*
X61210476Y-94125238D01*
X61234285Y-94149047D01*
X61258095Y-94196666D01*
X61258095Y-94387142D01*
X61043809Y-93910952D02*
X61020000Y-93887142D01*
X60996190Y-93839523D01*
X60996190Y-93720476D01*
X61020000Y-93672857D01*
X61043809Y-93649047D01*
X61091428Y-93625238D01*
X61139047Y-93625238D01*
X61210476Y-93649047D01*
X61496190Y-93934761D01*
X61496190Y-93625238D01*
X61496190Y-93149047D02*
X61496190Y-93434761D01*
X61496190Y-93291904D02*
X60996190Y-93291904D01*
X61067619Y-93339523D01*
X61115238Y-93387142D01*
X61139047Y-93434761D01*
X59762571Y-97105690D02*
X59595904Y-96867595D01*
X59476857Y-97105690D02*
X59476857Y-96605690D01*
X59667333Y-96605690D01*
X59714952Y-96629500D01*
X59738761Y-96653309D01*
X59762571Y-96700928D01*
X59762571Y-96772357D01*
X59738761Y-96819976D01*
X59714952Y-96843785D01*
X59667333Y-96867595D01*
X59476857Y-96867595D01*
X59953047Y-96653309D02*
X59976857Y-96629500D01*
X60024476Y-96605690D01*
X60143523Y-96605690D01*
X60191142Y-96629500D01*
X60214952Y-96653309D01*
X60238761Y-96700928D01*
X60238761Y-96748547D01*
X60214952Y-96819976D01*
X59929238Y-97105690D01*
X60238761Y-97105690D01*
X60429238Y-96653309D02*
X60453047Y-96629500D01*
X60500666Y-96605690D01*
X60619714Y-96605690D01*
X60667333Y-96629500D01*
X60691142Y-96653309D01*
X60714952Y-96700928D01*
X60714952Y-96748547D01*
X60691142Y-96819976D01*
X60405428Y-97105690D01*
X60714952Y-97105690D01*
X63032771Y-98045228D02*
X63056580Y-98069038D01*
X63080390Y-98140466D01*
X63080390Y-98188085D01*
X63056580Y-98259514D01*
X63008961Y-98307133D01*
X62961342Y-98330942D01*
X62866104Y-98354752D01*
X62794676Y-98354752D01*
X62699438Y-98330942D01*
X62651819Y-98307133D01*
X62604200Y-98259514D01*
X62580390Y-98188085D01*
X62580390Y-98140466D01*
X62604200Y-98069038D01*
X62628009Y-98045228D01*
X62628009Y-97854752D02*
X62604200Y-97830942D01*
X62580390Y-97783323D01*
X62580390Y-97664276D01*
X62604200Y-97616657D01*
X62628009Y-97592847D01*
X62675628Y-97569038D01*
X62723247Y-97569038D01*
X62794676Y-97592847D01*
X63080390Y-97878561D01*
X63080390Y-97569038D01*
X62628009Y-97378561D02*
X62604200Y-97354752D01*
X62580390Y-97307133D01*
X62580390Y-97188085D01*
X62604200Y-97140466D01*
X62628009Y-97116657D01*
X62675628Y-97092847D01*
X62723247Y-97092847D01*
X62794676Y-97116657D01*
X63080390Y-97402371D01*
X63080390Y-97092847D01*
X66402380Y-93253809D02*
X66354761Y-93230000D01*
X66307142Y-93182380D01*
X66235714Y-93110952D01*
X66188095Y-93087142D01*
X66140476Y-93087142D01*
X66164285Y-93206190D02*
X66116666Y-93182380D01*
X66069047Y-93134761D01*
X66045238Y-93039523D01*
X66045238Y-92872857D01*
X66069047Y-92777619D01*
X66116666Y-92730000D01*
X66164285Y-92706190D01*
X66259523Y-92706190D01*
X66307142Y-92730000D01*
X66354761Y-92777619D01*
X66378571Y-92872857D01*
X66378571Y-93039523D01*
X66354761Y-93134761D01*
X66307142Y-93182380D01*
X66259523Y-93206190D01*
X66164285Y-93206190D01*
X66854761Y-93206190D02*
X66569047Y-93206190D01*
X66711904Y-93206190D02*
X66711904Y-92706190D01*
X66664285Y-92777619D01*
X66616666Y-92825238D01*
X66569047Y-92849047D01*
X63798571Y-107336190D02*
X63631904Y-107098095D01*
X63512857Y-107336190D02*
X63512857Y-106836190D01*
X63703333Y-106836190D01*
X63750952Y-106860000D01*
X63774761Y-106883809D01*
X63798571Y-106931428D01*
X63798571Y-107002857D01*
X63774761Y-107050476D01*
X63750952Y-107074285D01*
X63703333Y-107098095D01*
X63512857Y-107098095D01*
X64274761Y-107336190D02*
X63989047Y-107336190D01*
X64131904Y-107336190D02*
X64131904Y-106836190D01*
X64084285Y-106907619D01*
X64036666Y-106955238D01*
X63989047Y-106979047D01*
X64727142Y-106836190D02*
X64489047Y-106836190D01*
X64465238Y-107074285D01*
X64489047Y-107050476D01*
X64536666Y-107026666D01*
X64655714Y-107026666D01*
X64703333Y-107050476D01*
X64727142Y-107074285D01*
X64750952Y-107121904D01*
X64750952Y-107240952D01*
X64727142Y-107288571D01*
X64703333Y-107312380D01*
X64655714Y-107336190D01*
X64536666Y-107336190D01*
X64489047Y-107312380D01*
X64465238Y-107288571D01*
X64956190Y-101151428D02*
X64718095Y-101318095D01*
X64956190Y-101437142D02*
X64456190Y-101437142D01*
X64456190Y-101246666D01*
X64480000Y-101199047D01*
X64503809Y-101175238D01*
X64551428Y-101151428D01*
X64622857Y-101151428D01*
X64670476Y-101175238D01*
X64694285Y-101199047D01*
X64718095Y-101246666D01*
X64718095Y-101437142D01*
X64956190Y-100675238D02*
X64956190Y-100960952D01*
X64956190Y-100818095D02*
X64456190Y-100818095D01*
X64527619Y-100865714D01*
X64575238Y-100913333D01*
X64599047Y-100960952D01*
X64622857Y-100246666D02*
X64956190Y-100246666D01*
X64432380Y-100365714D02*
X64789523Y-100484761D01*
X64789523Y-100175238D01*
X62768571Y-101653333D02*
X62792380Y-101677142D01*
X62816190Y-101748571D01*
X62816190Y-101796190D01*
X62792380Y-101867619D01*
X62744761Y-101915238D01*
X62697142Y-101939047D01*
X62601904Y-101962857D01*
X62530476Y-101962857D01*
X62435238Y-101939047D01*
X62387619Y-101915238D01*
X62340000Y-101867619D01*
X62316190Y-101796190D01*
X62316190Y-101748571D01*
X62340000Y-101677142D01*
X62363809Y-101653333D01*
X62482857Y-101224761D02*
X62816190Y-101224761D01*
X62292380Y-101343809D02*
X62649523Y-101462857D01*
X62649523Y-101153333D01*
X61928571Y-111206190D02*
X61761904Y-110968095D01*
X61642857Y-111206190D02*
X61642857Y-110706190D01*
X61833333Y-110706190D01*
X61880952Y-110730000D01*
X61904761Y-110753809D01*
X61928571Y-110801428D01*
X61928571Y-110872857D01*
X61904761Y-110920476D01*
X61880952Y-110944285D01*
X61833333Y-110968095D01*
X61642857Y-110968095D01*
X62404761Y-111206190D02*
X62119047Y-111206190D01*
X62261904Y-111206190D02*
X62261904Y-110706190D01*
X62214285Y-110777619D01*
X62166666Y-110825238D01*
X62119047Y-110849047D01*
X62571428Y-110706190D02*
X62904761Y-110706190D01*
X62690476Y-111206190D01*
X84806432Y-89024453D02*
X84768882Y-88977356D01*
X84689009Y-88925486D01*
X84646685Y-88920712D01*
X84620337Y-88926313D01*
X84583614Y-88947888D01*
X84562866Y-88979837D01*
X84558092Y-89022161D01*
X84563693Y-89048510D01*
X84585268Y-89085232D01*
X84638793Y-89142703D01*
X84660368Y-89179426D01*
X84665969Y-89205775D01*
X84661195Y-89248098D01*
X84640447Y-89280048D01*
X84603724Y-89301623D01*
X84577375Y-89307224D01*
X84535052Y-89302450D01*
X84455178Y-89250580D01*
X84417629Y-89203483D01*
X84295432Y-89146839D02*
X84433414Y-88759500D01*
X84213904Y-88957624D01*
X84305617Y-88676508D01*
X84007888Y-88960106D01*
X83916813Y-88855538D02*
X83890464Y-88861138D01*
X83848141Y-88856365D01*
X83768267Y-88804494D01*
X83746692Y-88767772D01*
X83741091Y-88741423D01*
X83745865Y-88699099D01*
X83766613Y-88667150D01*
X83813710Y-88629600D01*
X84129895Y-88562393D01*
X83922224Y-88427530D01*
X69478571Y-97091428D02*
X69502380Y-97115238D01*
X69526190Y-97186666D01*
X69526190Y-97234285D01*
X69502380Y-97305714D01*
X69454761Y-97353333D01*
X69407142Y-97377142D01*
X69311904Y-97400952D01*
X69240476Y-97400952D01*
X69145238Y-97377142D01*
X69097619Y-97353333D01*
X69050000Y-97305714D01*
X69026190Y-97234285D01*
X69026190Y-97186666D01*
X69050000Y-97115238D01*
X69073809Y-97091428D01*
X69526190Y-96615238D02*
X69526190Y-96900952D01*
X69526190Y-96758095D02*
X69026190Y-96758095D01*
X69097619Y-96805714D01*
X69145238Y-96853333D01*
X69169047Y-96900952D01*
X69026190Y-96162857D02*
X69026190Y-96400952D01*
X69264285Y-96424761D01*
X69240476Y-96400952D01*
X69216666Y-96353333D01*
X69216666Y-96234285D01*
X69240476Y-96186666D01*
X69264285Y-96162857D01*
X69311904Y-96139047D01*
X69430952Y-96139047D01*
X69478571Y-96162857D01*
X69502380Y-96186666D01*
X69526190Y-96234285D01*
X69526190Y-96353333D01*
X69502380Y-96400952D01*
X69478571Y-96424761D01*
X66698571Y-91608571D02*
X66674761Y-91632380D01*
X66603333Y-91656190D01*
X66555714Y-91656190D01*
X66484285Y-91632380D01*
X66436666Y-91584761D01*
X66412857Y-91537142D01*
X66389047Y-91441904D01*
X66389047Y-91370476D01*
X66412857Y-91275238D01*
X66436666Y-91227619D01*
X66484285Y-91180000D01*
X66555714Y-91156190D01*
X66603333Y-91156190D01*
X66674761Y-91180000D01*
X66698571Y-91203809D01*
X67174761Y-91656190D02*
X66889047Y-91656190D01*
X67031904Y-91656190D02*
X67031904Y-91156190D01*
X66984285Y-91227619D01*
X66936666Y-91275238D01*
X66889047Y-91299047D01*
X67341428Y-91156190D02*
X67674761Y-91156190D01*
X67460476Y-91656190D01*
X65154766Y-98973971D02*
X65130957Y-98997780D01*
X65059528Y-99021590D01*
X65011909Y-99021590D01*
X64940480Y-98997780D01*
X64892861Y-98950161D01*
X64869052Y-98902542D01*
X64845242Y-98807304D01*
X64845242Y-98735876D01*
X64869052Y-98640638D01*
X64892861Y-98593019D01*
X64940480Y-98545400D01*
X65011909Y-98521590D01*
X65059528Y-98521590D01*
X65130957Y-98545400D01*
X65154766Y-98569209D01*
X65583338Y-98521590D02*
X65488100Y-98521590D01*
X65440480Y-98545400D01*
X65416671Y-98569209D01*
X65369052Y-98640638D01*
X65345242Y-98735876D01*
X65345242Y-98926352D01*
X65369052Y-98973971D01*
X65392861Y-98997780D01*
X65440480Y-99021590D01*
X65535719Y-99021590D01*
X65583338Y-98997780D01*
X65607147Y-98973971D01*
X65630957Y-98926352D01*
X65630957Y-98807304D01*
X65607147Y-98759685D01*
X65583338Y-98735876D01*
X65535719Y-98712066D01*
X65440480Y-98712066D01*
X65392861Y-98735876D01*
X65369052Y-98759685D01*
X65345242Y-98807304D01*
X67798571Y-90021428D02*
X67822380Y-90045238D01*
X67846190Y-90116666D01*
X67846190Y-90164285D01*
X67822380Y-90235714D01*
X67774761Y-90283333D01*
X67727142Y-90307142D01*
X67631904Y-90330952D01*
X67560476Y-90330952D01*
X67465238Y-90307142D01*
X67417619Y-90283333D01*
X67370000Y-90235714D01*
X67346190Y-90164285D01*
X67346190Y-90116666D01*
X67370000Y-90045238D01*
X67393809Y-90021428D01*
X67846190Y-89545238D02*
X67846190Y-89830952D01*
X67846190Y-89688095D02*
X67346190Y-89688095D01*
X67417619Y-89735714D01*
X67465238Y-89783333D01*
X67489047Y-89830952D01*
X67846190Y-89307142D02*
X67846190Y-89211904D01*
X67822380Y-89164285D01*
X67798571Y-89140476D01*
X67727142Y-89092857D01*
X67631904Y-89069047D01*
X67441428Y-89069047D01*
X67393809Y-89092857D01*
X67370000Y-89116666D01*
X67346190Y-89164285D01*
X67346190Y-89259523D01*
X67370000Y-89307142D01*
X67393809Y-89330952D01*
X67441428Y-89354761D01*
X67560476Y-89354761D01*
X67608095Y-89330952D01*
X67631904Y-89307142D01*
X67655714Y-89259523D01*
X67655714Y-89164285D01*
X67631904Y-89116666D01*
X67608095Y-89092857D01*
X67560476Y-89069047D01*
X66220952Y-91986190D02*
X66220952Y-92390952D01*
X66244761Y-92438571D01*
X66268571Y-92462380D01*
X66316190Y-92486190D01*
X66411428Y-92486190D01*
X66459047Y-92462380D01*
X66482857Y-92438571D01*
X66506666Y-92390952D01*
X66506666Y-91986190D01*
X67006666Y-92486190D02*
X66720952Y-92486190D01*
X66863809Y-92486190D02*
X66863809Y-91986190D01*
X66816190Y-92057619D01*
X66768571Y-92105238D01*
X66720952Y-92129047D01*
X67173333Y-91986190D02*
X67482857Y-91986190D01*
X67316190Y-92176666D01*
X67387619Y-92176666D01*
X67435238Y-92200476D01*
X67459047Y-92224285D01*
X67482857Y-92271904D01*
X67482857Y-92390952D01*
X67459047Y-92438571D01*
X67435238Y-92462380D01*
X67387619Y-92486190D01*
X67244761Y-92486190D01*
X67197142Y-92462380D01*
X67173333Y-92438571D01*
X70898571Y-113783333D02*
X70922380Y-113807142D01*
X70946190Y-113878571D01*
X70946190Y-113926190D01*
X70922380Y-113997619D01*
X70874761Y-114045238D01*
X70827142Y-114069047D01*
X70731904Y-114092857D01*
X70660476Y-114092857D01*
X70565238Y-114069047D01*
X70517619Y-114045238D01*
X70470000Y-113997619D01*
X70446190Y-113926190D01*
X70446190Y-113878571D01*
X70470000Y-113807142D01*
X70493809Y-113783333D01*
X70946190Y-113307142D02*
X70946190Y-113592857D01*
X70946190Y-113450000D02*
X70446190Y-113450000D01*
X70517619Y-113497619D01*
X70565238Y-113545238D01*
X70589047Y-113592857D01*
X69120952Y-107556190D02*
X69120952Y-107960952D01*
X69144761Y-108008571D01*
X69168571Y-108032380D01*
X69216190Y-108056190D01*
X69311428Y-108056190D01*
X69359047Y-108032380D01*
X69382857Y-108008571D01*
X69406666Y-107960952D01*
X69406666Y-107556190D01*
X69906666Y-108056190D02*
X69620952Y-108056190D01*
X69763809Y-108056190D02*
X69763809Y-107556190D01*
X69716190Y-107627619D01*
X69668571Y-107675238D01*
X69620952Y-107699047D01*
X70382857Y-108056190D02*
X70097142Y-108056190D01*
X70240000Y-108056190D02*
X70240000Y-107556190D01*
X70192380Y-107627619D01*
X70144761Y-107675238D01*
X70097142Y-107699047D01*
X62150952Y-103526190D02*
X62150952Y-103026190D01*
X62270000Y-103026190D01*
X62341428Y-103050000D01*
X62389047Y-103097619D01*
X62412857Y-103145238D01*
X62436666Y-103240476D01*
X62436666Y-103311904D01*
X62412857Y-103407142D01*
X62389047Y-103454761D01*
X62341428Y-103502380D01*
X62270000Y-103526190D01*
X62150952Y-103526190D01*
X62912857Y-103526190D02*
X62627142Y-103526190D01*
X62770000Y-103526190D02*
X62770000Y-103026190D01*
X62722380Y-103097619D01*
X62674761Y-103145238D01*
X62627142Y-103169047D01*
X64893071Y-90586690D02*
X64726404Y-90348595D01*
X64607357Y-90586690D02*
X64607357Y-90086690D01*
X64797833Y-90086690D01*
X64845452Y-90110500D01*
X64869261Y-90134309D01*
X64893071Y-90181928D01*
X64893071Y-90253357D01*
X64869261Y-90300976D01*
X64845452Y-90324785D01*
X64797833Y-90348595D01*
X64607357Y-90348595D01*
X65369261Y-90586690D02*
X65083547Y-90586690D01*
X65226404Y-90586690D02*
X65226404Y-90086690D01*
X65178785Y-90158119D01*
X65131166Y-90205738D01*
X65083547Y-90229547D01*
X65678785Y-90086690D02*
X65726404Y-90086690D01*
X65774023Y-90110500D01*
X65797833Y-90134309D01*
X65821642Y-90181928D01*
X65845452Y-90277166D01*
X65845452Y-90396214D01*
X65821642Y-90491452D01*
X65797833Y-90539071D01*
X65774023Y-90562880D01*
X65726404Y-90586690D01*
X65678785Y-90586690D01*
X65631166Y-90562880D01*
X65607357Y-90539071D01*
X65583547Y-90491452D01*
X65559738Y-90396214D01*
X65559738Y-90277166D01*
X65583547Y-90181928D01*
X65607357Y-90134309D01*
X65631166Y-90110500D01*
X65678785Y-90086690D01*
X63666190Y-108541428D02*
X63428095Y-108708095D01*
X63666190Y-108827142D02*
X63166190Y-108827142D01*
X63166190Y-108636666D01*
X63190000Y-108589047D01*
X63213809Y-108565238D01*
X63261428Y-108541428D01*
X63332857Y-108541428D01*
X63380476Y-108565238D01*
X63404285Y-108589047D01*
X63428095Y-108636666D01*
X63428095Y-108827142D01*
X63666190Y-108065238D02*
X63666190Y-108350952D01*
X63666190Y-108208095D02*
X63166190Y-108208095D01*
X63237619Y-108255714D01*
X63285238Y-108303333D01*
X63309047Y-108350952D01*
X63166190Y-107636666D02*
X63166190Y-107731904D01*
X63190000Y-107779523D01*
X63213809Y-107803333D01*
X63285238Y-107850952D01*
X63380476Y-107874761D01*
X63570952Y-107874761D01*
X63618571Y-107850952D01*
X63642380Y-107827142D01*
X63666190Y-107779523D01*
X63666190Y-107684285D01*
X63642380Y-107636666D01*
X63618571Y-107612857D01*
X63570952Y-107589047D01*
X63451904Y-107589047D01*
X63404285Y-107612857D01*
X63380476Y-107636666D01*
X63356666Y-107684285D01*
X63356666Y-107779523D01*
X63380476Y-107827142D01*
X63404285Y-107850952D01*
X63451904Y-107874761D01*
X69656190Y-112453333D02*
X69418095Y-112620000D01*
X69656190Y-112739047D02*
X69156190Y-112739047D01*
X69156190Y-112548571D01*
X69180000Y-112500952D01*
X69203809Y-112477142D01*
X69251428Y-112453333D01*
X69322857Y-112453333D01*
X69370476Y-112477142D01*
X69394285Y-112500952D01*
X69418095Y-112548571D01*
X69418095Y-112739047D01*
X69156190Y-112286666D02*
X69156190Y-111977142D01*
X69346666Y-112143809D01*
X69346666Y-112072380D01*
X69370476Y-112024761D01*
X69394285Y-112000952D01*
X69441904Y-111977142D01*
X69560952Y-111977142D01*
X69608571Y-112000952D01*
X69632380Y-112024761D01*
X69656190Y-112072380D01*
X69656190Y-112215238D01*
X69632380Y-112262857D01*
X69608571Y-112286666D01*
X83569940Y-113023333D02*
X83331845Y-113190000D01*
X83569940Y-113309047D02*
X83069940Y-113309047D01*
X83069940Y-113118571D01*
X83093750Y-113070952D01*
X83117559Y-113047142D01*
X83165178Y-113023333D01*
X83236607Y-113023333D01*
X83284226Y-113047142D01*
X83308035Y-113070952D01*
X83331845Y-113118571D01*
X83331845Y-113309047D01*
X83117559Y-112832857D02*
X83093750Y-112809047D01*
X83069940Y-112761428D01*
X83069940Y-112642380D01*
X83093750Y-112594761D01*
X83117559Y-112570952D01*
X83165178Y-112547142D01*
X83212797Y-112547142D01*
X83284226Y-112570952D01*
X83569940Y-112856666D01*
X83569940Y-112547142D01*
D11*
X71410000Y-114950000D02*
X71410000Y-116200000D01*
X80990000Y-114950000D02*
X80990000Y-116200000D01*
D13*
X85669180Y-114001513D02*
X83421542Y-115461146D01*
X82415138Y-116114713D02*
X82859633Y-115826054D01*
X84795968Y-116953310D02*
X84986592Y-117246844D01*
X85634639Y-116408671D02*
X87555195Y-115161447D01*
X86675584Y-113347946D02*
X86231089Y-113636605D01*
X86473310Y-115864032D02*
X86663933Y-116157566D01*
X86675584Y-113347946D02*
X86898886Y-113691801D01*
X85634639Y-116408671D02*
X83714083Y-117655894D01*
X82415138Y-116114713D02*
X82638440Y-116458568D01*
X68978458Y-115461146D02*
X66730820Y-114001513D01*
X65724416Y-113347946D02*
X66168911Y-113636605D01*
X65926690Y-115864032D02*
X65736067Y-116157566D01*
X66765361Y-116408671D02*
X68685917Y-117655894D01*
X69984862Y-116114713D02*
X69540367Y-115826054D01*
X67604032Y-116953310D02*
X67413408Y-117246844D01*
X69984862Y-116114713D02*
X69761560Y-116458568D01*
X66765361Y-116408671D02*
X64844805Y-115161447D01*
X65724416Y-113347946D02*
X65501114Y-113691801D01*
D14*
X64177258Y-111457500D02*
X63702742Y-111457500D01*
X64177258Y-112502500D02*
X63702742Y-112502500D01*
X69439420Y-106970000D02*
X69720580Y-106970000D01*
X69439420Y-105950000D02*
X69720580Y-105950000D01*
X86071942Y-110631500D02*
X86546458Y-110631500D01*
X86071942Y-109586500D02*
X86546458Y-109586500D01*
X88789642Y-92165700D02*
X89264158Y-92165700D01*
X88789642Y-91120700D02*
X89264158Y-91120700D01*
X86152758Y-92695500D02*
X85678242Y-92695500D01*
X86152758Y-93740500D02*
X85678242Y-93740500D01*
X85678242Y-92153000D02*
X86152758Y-92153000D01*
X85678242Y-91108000D02*
X86152758Y-91108000D01*
X76136500Y-84104800D02*
X72686500Y-84104800D01*
X76136500Y-84104800D02*
X78086500Y-84104800D01*
X76136500Y-89224800D02*
X74186500Y-89224800D01*
X76136500Y-89224800D02*
X78086500Y-89224800D01*
X89167480Y-92708000D02*
X88886320Y-92708000D01*
X89167480Y-93728000D02*
X88886320Y-93728000D01*
X86168620Y-112490000D02*
X86449780Y-112490000D01*
X86168620Y-111470000D02*
X86449780Y-111470000D01*
X72074500Y-86246580D02*
X72074500Y-85965420D01*
X71054500Y-86246580D02*
X71054500Y-85965420D01*
X79340580Y-89990000D02*
X79059420Y-89990000D01*
X79340580Y-91010000D02*
X79059420Y-91010000D01*
X69392742Y-101282500D02*
X69867258Y-101282500D01*
X69392742Y-100237500D02*
X69867258Y-100237500D01*
D13*
X66730820Y-89198487D02*
X68978458Y-87738854D01*
X69984862Y-87085287D02*
X69540367Y-87373946D01*
X67604032Y-86246690D02*
X67413408Y-85953156D01*
X66765361Y-86791329D02*
X64844805Y-88038553D01*
X65724416Y-89852054D02*
X66168911Y-89563395D01*
X65926690Y-87335968D02*
X65736067Y-87042434D01*
X65724416Y-89852054D02*
X65501114Y-89508199D01*
X66765361Y-86791329D02*
X68685917Y-85544106D01*
X69984862Y-87085287D02*
X69761560Y-86741432D01*
X70665000Y-108355000D02*
X74015000Y-108355000D01*
X70665000Y-111705000D02*
X74015000Y-111705000D01*
X70665000Y-108580000D02*
X69440000Y-108580000D01*
X74015000Y-108355000D02*
X74015000Y-108655000D01*
X74015000Y-111705000D02*
X74015000Y-111405000D01*
X70665000Y-111705000D02*
X70665000Y-111405000D01*
X70665000Y-108355000D02*
X70665000Y-108580000D01*
D14*
X68950000Y-105420000D02*
X66750000Y-105420000D01*
X68950000Y-105420000D02*
X72550000Y-105420000D01*
X68950000Y-102200000D02*
X71150000Y-102200000D01*
X68950000Y-102200000D02*
X66750000Y-102200000D01*
X83470000Y-90730000D02*
X83470000Y-90730000D01*
X81770000Y-92930000D02*
X81270000Y-92930000D01*
X81270000Y-92430000D02*
X81270000Y-92430000D01*
X83470000Y-91230000D02*
X83470000Y-90730000D01*
X82970000Y-92930000D02*
X82970000Y-92930000D01*
X83470000Y-92930000D02*
X82970000Y-92930000D01*
X81270000Y-91230000D02*
X81270000Y-90730000D01*
X81270000Y-90730000D02*
X81770000Y-90730000D01*
X81770000Y-90730000D02*
X81770000Y-90730000D01*
X81270000Y-92930000D02*
X81270000Y-92430000D01*
X83470000Y-92430000D02*
X83470000Y-92930000D01*
X72529420Y-106970000D02*
X72810580Y-106970000D01*
X72529420Y-105950000D02*
X72810580Y-105950000D01*
X64087500Y-108862742D02*
X64087500Y-109337258D01*
X65132500Y-108862742D02*
X65132500Y-109337258D01*
X89746858Y-109561100D02*
X89272342Y-109561100D01*
X89746858Y-110606100D02*
X89272342Y-110606100D01*
X69648748Y-99690000D02*
X71071252Y-99690000D01*
X69648748Y-97870000D02*
X71071252Y-97870000D01*
X71019420Y-97250000D02*
X71300580Y-97250000D01*
X71019420Y-96230000D02*
X71300580Y-96230000D01*
X75859420Y-92610000D02*
X76140580Y-92610000D01*
X75859420Y-91590000D02*
X76140580Y-91590000D01*
X75859420Y-91010000D02*
X76140580Y-91010000D01*
X75859420Y-89990000D02*
X76140580Y-89990000D01*
X71040000Y-93000000D02*
X71040000Y-94800000D01*
X71040000Y-93000000D02*
X71040000Y-92200000D01*
X74160000Y-93000000D02*
X74160000Y-93800000D01*
X74160000Y-93000000D02*
X74160000Y-92200000D01*
D13*
X75200000Y-95020000D02*
X74500000Y-95020000D01*
X89096000Y-106790000D02*
X75951500Y-106790000D01*
X90800000Y-95851000D02*
X90800000Y-102582000D01*
X90693000Y-105326000D02*
X92217000Y-105326000D01*
X75951500Y-106790000D02*
X75951500Y-96250000D01*
X92217000Y-105326000D02*
X92217000Y-106850000D01*
X90693000Y-106850000D02*
X90693000Y-105326000D01*
X75951500Y-96250000D02*
X89096000Y-96250000D01*
X74500000Y-95720000D02*
X74500000Y-95020000D01*
X90800000Y-102582000D02*
X92000000Y-102582000D01*
X92000000Y-95851000D02*
X90800000Y-95851000D01*
X75200000Y-108020000D02*
X74500000Y-108020000D01*
X92450000Y-95020000D02*
X92450000Y-108020000D01*
X90750000Y-108020000D02*
X92450000Y-108020000D01*
X92000000Y-102582000D02*
X92000000Y-95851000D01*
X89096000Y-96250000D02*
X89096000Y-106790000D01*
X74500000Y-107320000D02*
X74500000Y-108020000D01*
X90750000Y-95020000D02*
X92450000Y-95020000D01*
X92217000Y-106850000D02*
X90693000Y-106850000D01*
X92090000Y-106088000D02*
G75*
G03*
X92090000Y-106088000I-635000J0D01*
G01*
D14*
X71042000Y-88980242D02*
X71042000Y-89454758D01*
X72087000Y-88980242D02*
X72087000Y-89454758D01*
X64417258Y-95907500D02*
X63942742Y-95907500D01*
X64417258Y-96952500D02*
X63942742Y-96952500D01*
X61887500Y-93292742D02*
X61887500Y-93767258D01*
X62932500Y-93292742D02*
X62932500Y-93767258D01*
X61337258Y-95277500D02*
X60862742Y-95277500D01*
X61337258Y-96322500D02*
X60862742Y-96322500D01*
X61140580Y-97290000D02*
X60859420Y-97290000D01*
X61140580Y-98310000D02*
X60859420Y-98310000D01*
X65151000Y-92356500D02*
X63476000Y-92356500D01*
X65151000Y-92356500D02*
X65801000Y-92356500D01*
X65151000Y-95476500D02*
X64501000Y-95476500D01*
X65151000Y-95476500D02*
X65801000Y-95476500D01*
X66637258Y-105987500D02*
X66162742Y-105987500D01*
X66637258Y-107032500D02*
X66162742Y-107032500D01*
X66767258Y-100357500D02*
X66292742Y-100357500D01*
X66767258Y-101402500D02*
X66292742Y-101402500D01*
X64110000Y-101740580D02*
X64110000Y-101459420D01*
X63090000Y-101740580D02*
X63090000Y-101459420D01*
X62487258Y-109327500D02*
X62012742Y-109327500D01*
X62487258Y-110372500D02*
X62012742Y-110372500D01*
D13*
X83421542Y-87738854D02*
X85669180Y-89198487D01*
X86675584Y-89852054D02*
X86231089Y-89563395D01*
X86473310Y-87335968D02*
X86663933Y-87042434D01*
X85634639Y-86791329D02*
X83714083Y-85544106D01*
X82415138Y-87085287D02*
X82859633Y-87373946D01*
X84795968Y-86246690D02*
X84986592Y-85953156D01*
X82415138Y-87085287D02*
X82638440Y-86741432D01*
X85634639Y-86791329D02*
X87555195Y-88038553D01*
X86675584Y-89852054D02*
X86898886Y-89508199D01*
D14*
X67284420Y-97250000D02*
X67565580Y-97250000D01*
X67284420Y-96230000D02*
X67565580Y-96230000D01*
X69079420Y-91560000D02*
X69360580Y-91560000D01*
X69079420Y-90540000D02*
X69360580Y-90540000D01*
X64488748Y-99680000D02*
X65911252Y-99680000D01*
X64488748Y-97860000D02*
X65911252Y-97860000D01*
X69129420Y-89990000D02*
X69410580Y-89990000D01*
X69129420Y-88970000D02*
X69410580Y-88970000D01*
X67380000Y-93850000D02*
X67380000Y-95650000D01*
X67380000Y-93850000D02*
X67380000Y-93050000D01*
X70500000Y-93850000D02*
X70500000Y-94650000D01*
X70500000Y-93850000D02*
X70500000Y-93050000D01*
X68719420Y-114180000D02*
X69000580Y-114180000D01*
X68719420Y-113160000D02*
X69000580Y-113160000D01*
X68860000Y-110190000D02*
X68860000Y-107740000D01*
X65640000Y-108390000D02*
X65640000Y-110190000D01*
X64660000Y-106635000D02*
X64660000Y-103950000D01*
X62740000Y-106635000D02*
X64660000Y-106635000D01*
X62740000Y-103950000D02*
X62740000Y-106635000D01*
X64054758Y-90727000D02*
X63580242Y-90727000D01*
X64054758Y-91772000D02*
X63580242Y-91772000D01*
X61972500Y-104771500D02*
X60642500Y-104771500D01*
X61972500Y-103441500D02*
X61972500Y-104771500D01*
X61972500Y-102171500D02*
X59312500Y-102171500D01*
X59312500Y-102171500D02*
X59312500Y-99571500D01*
X61972500Y-102171500D02*
X61972500Y-99571500D01*
X61972500Y-99571500D02*
X59312500Y-99571500D01*
X61262742Y-108822500D02*
X61737258Y-108822500D01*
X61262742Y-107777500D02*
X61737258Y-107777500D01*
X67777258Y-111517500D02*
X67302742Y-111517500D01*
X67777258Y-112562500D02*
X67302742Y-112562500D01*
X82702500Y-113177258D02*
X82702500Y-112702742D01*
X81657500Y-113177258D02*
X81657500Y-112702742D01*
%LPC*%
D15*
X71880000Y-117600000D03*
D16*
X71880000Y-113420000D03*
D15*
X80520000Y-117600000D03*
D16*
X80520000Y-113420000D03*
D17*
X74450000Y-112845000D03*
X75450000Y-112845000D03*
X76950000Y-112845000D03*
X77950000Y-112845000D03*
X77450000Y-112845000D03*
X76450000Y-112845000D03*
X75950000Y-112845000D03*
X74950000Y-112845000D03*
D18*
X73800000Y-112845000D03*
X78600000Y-112845000D03*
X73000000Y-112845000D03*
X79400000Y-112845000D03*
D19*
X73310000Y-113920000D03*
X79090000Y-113920000D03*
D20*
X82993535Y-115417159D03*
X85803082Y-113592618D03*
D21*
X83095937Y-117163051D03*
X87356383Y-114396284D03*
D22*
X66596918Y-113592618D03*
X69406465Y-115417159D03*
D23*
X65043617Y-114396284D03*
X69304063Y-117163051D03*
D24*
X63115000Y-111980000D03*
X64765000Y-111980000D03*
D25*
X70355000Y-106460000D03*
X68805000Y-106460000D03*
D26*
X87134200Y-110109000D03*
X85484200Y-110109000D03*
X89851900Y-91643200D03*
X88201900Y-91643200D03*
D24*
X85090500Y-93218000D03*
X86740500Y-93218000D03*
D26*
X86740500Y-91630500D03*
X85090500Y-91630500D03*
D27*
X78611500Y-84759800D03*
X78611500Y-86029800D03*
X78611500Y-87299800D03*
X78611500Y-88569800D03*
X73661500Y-88569800D03*
X73661500Y-87299800D03*
X73661500Y-86029800D03*
X73661500Y-84759800D03*
D28*
X88251900Y-93218000D03*
X89801900Y-93218000D03*
D25*
X87084200Y-111980000D03*
X85534200Y-111980000D03*
D29*
X71564500Y-85331000D03*
X71564500Y-86881000D03*
D28*
X78425000Y-90500000D03*
X79975000Y-90500000D03*
D26*
X70455000Y-100760000D03*
X68805000Y-100760000D03*
D30*
X69406465Y-87782841D03*
X66596918Y-89607382D03*
D31*
X69304063Y-86036949D03*
X65043617Y-88803716D03*
D32*
X74540000Y-109030000D03*
X74540000Y-109530000D03*
X74540000Y-110030000D03*
X74540000Y-110530000D03*
X74540000Y-111030000D03*
X70140000Y-111030000D03*
X70140000Y-110530000D03*
X70140000Y-110030000D03*
X70140000Y-109530000D03*
X70140000Y-109030000D03*
D33*
X66087500Y-104785000D03*
X66087500Y-104135000D03*
X66087500Y-103485000D03*
X66087500Y-102835000D03*
X71812500Y-102835000D03*
X71812500Y-103485000D03*
X71812500Y-104135000D03*
X71812500Y-104785000D03*
D34*
X83132500Y-91580000D03*
X83132500Y-92080000D03*
D35*
X83120000Y-92592500D03*
X82620000Y-92592500D03*
X82120000Y-92592500D03*
X81620000Y-92592500D03*
D34*
X81607500Y-92080000D03*
X81607500Y-91580000D03*
D35*
X81620000Y-91067500D03*
X82120000Y-91067500D03*
X82620000Y-91067500D03*
X83120000Y-91067500D03*
D25*
X73445000Y-106460000D03*
X71895000Y-106460000D03*
D36*
X64610000Y-109925000D03*
X64610000Y-108275000D03*
D24*
X88684600Y-110083600D03*
X90334600Y-110083600D03*
D37*
X71835000Y-98780000D03*
X68885000Y-98780000D03*
D25*
X71935000Y-96740000D03*
X70385000Y-96740000D03*
X76775000Y-92100000D03*
X75225000Y-92100000D03*
X76775000Y-90500000D03*
X75225000Y-90500000D03*
D38*
X71650000Y-91862500D03*
X73550000Y-91862500D03*
X73550000Y-94137500D03*
X72600000Y-94137500D03*
X71650000Y-94137500D03*
D39*
X90112000Y-95020000D03*
X89096000Y-95020000D03*
X88080000Y-95020000D03*
X87064000Y-95020000D03*
X86048000Y-95020000D03*
X85032000Y-95020000D03*
X84016000Y-95020000D03*
X83000000Y-95020000D03*
X82000000Y-95020000D03*
X80968000Y-95020000D03*
X79952000Y-95020000D03*
X78936000Y-95020000D03*
X77920000Y-95020000D03*
X76904000Y-95020000D03*
X75888000Y-95020000D03*
D40*
X74500000Y-97964000D03*
X74500000Y-98980000D03*
X74500000Y-99996000D03*
X74500000Y-101012000D03*
X74500000Y-102028000D03*
X74500000Y-103044000D03*
X74500000Y-104060000D03*
X74500000Y-105076000D03*
D39*
X75888000Y-108020000D03*
X76904000Y-108020000D03*
X77920000Y-108020000D03*
X78936000Y-108020000D03*
X79952000Y-108020000D03*
X80968000Y-108020000D03*
X81984000Y-108020000D03*
X83000000Y-108020000D03*
X84016000Y-108020000D03*
X85032000Y-108020000D03*
X86048000Y-108020000D03*
X87064000Y-108020000D03*
X88080000Y-108020000D03*
X89096000Y-108020000D03*
X90112000Y-108020000D03*
D41*
X81000000Y-101520000D03*
D36*
X71564500Y-90042500D03*
X71564500Y-88392500D03*
D24*
X63355000Y-96430000D03*
X65005000Y-96430000D03*
D36*
X62410000Y-94355000D03*
X62410000Y-92705000D03*
D24*
X60275000Y-95800000D03*
X61925000Y-95800000D03*
D28*
X60225000Y-97800000D03*
X61775000Y-97800000D03*
D42*
X66088500Y-93916500D03*
X64213500Y-94866500D03*
X64213500Y-92966500D03*
D24*
X65575000Y-106510000D03*
X67225000Y-106510000D03*
X65705000Y-100880000D03*
X67355000Y-100880000D03*
D29*
X63600000Y-100825000D03*
X63600000Y-102375000D03*
D24*
X61425000Y-109850000D03*
X63075000Y-109850000D03*
D43*
X85803082Y-89607382D03*
X82993535Y-87782841D03*
D44*
X87356383Y-88803716D03*
X83095937Y-86036949D03*
D25*
X68200000Y-96740000D03*
X66650000Y-96740000D03*
X69995000Y-91050000D03*
X68445000Y-91050000D03*
D37*
X66675000Y-98770000D03*
X63725000Y-98770000D03*
D25*
X70045000Y-89480000D03*
X68495000Y-89480000D03*
D38*
X67990000Y-92712500D03*
X69890000Y-92712500D03*
X69890000Y-94987500D03*
X68940000Y-94987500D03*
X67990000Y-94987500D03*
D25*
X69635000Y-113670000D03*
X68085000Y-113670000D03*
D45*
X68200000Y-110390000D03*
X66300000Y-110390000D03*
X66300000Y-108190000D03*
X67250000Y-108190000D03*
X68200000Y-108190000D03*
D46*
X63700000Y-104012500D03*
X63700000Y-105887500D03*
D24*
X62992500Y-91249500D03*
X64642500Y-91249500D03*
D47*
X60642500Y-100901500D03*
D48*
X60642500Y-103441500D03*
D26*
X62325000Y-108300000D03*
X60675000Y-108300000D03*
D24*
X66715000Y-112040000D03*
X68365000Y-112040000D03*
D49*
X82180000Y-112115000D03*
X82180000Y-113765000D03*
M02*
