G04 #@! TF.GenerationSoftware,KiCad,Pcbnew,(6.0.0-0)*
G04 #@! TF.CreationDate,2022-01-16T16:26:29+10:00*
G04 #@! TF.ProjectId,osw-light,6f73772d-6c69-4676-9874-2e6b69636164,3.3*
G04 #@! TF.SameCoordinates,Original*
G04 #@! TF.FileFunction,Copper,L2,Inr*
G04 #@! TF.FilePolarity,Positive*
%FSLAX46Y46*%
G04 Gerber Fmt 4.6, Leading zero omitted, Abs format (unit mm)*
G04 Created by KiCad (PCBNEW (6.0.0-0)) date 2022-01-16 16:26:29*
%MOMM*%
%LPD*%
G01*
G04 APERTURE LIST*
G04 Aperture macros list*
%AMHorizOval*
0 Thick line with rounded ends*
0 $1 width*
0 $2 $3 position (X,Y) of the first rounded end (center of the circle)*
0 $4 $5 position (X,Y) of the second rounded end (center of the circle)*
0 Add line between two ends*
20,1,$1,$2,$3,$4,$5,0*
0 Add two circle primitives to create the rounded ends*
1,1,$1,$2,$3*
1,1,$1,$4,$5*%
G04 Aperture macros list end*
G04 #@! TA.AperFunction,ComponentPad*
%ADD10O,1.050000X2.100000*%
G04 #@! TD*
G04 #@! TA.AperFunction,ComponentPad*
%ADD11O,1.000000X2.000000*%
G04 #@! TD*
G04 #@! TA.AperFunction,ComponentPad*
%ADD12HorizOval,0.600000X0.251623X-0.387466X-0.251623X0.387466X0*%
G04 #@! TD*
G04 #@! TA.AperFunction,ComponentPad*
%ADD13HorizOval,0.600000X-0.251623X-0.387466X0.251623X0.387466X0*%
G04 #@! TD*
G04 #@! TA.AperFunction,ComponentPad*
%ADD14HorizOval,0.600000X-0.251623X0.387466X0.251623X-0.387466X0*%
G04 #@! TD*
G04 #@! TA.AperFunction,ComponentPad*
%ADD15HorizOval,0.600000X0.251623X0.387466X-0.251623X-0.387466X0*%
G04 #@! TD*
G04 #@! TA.AperFunction,ComponentPad*
%ADD16R,1.700000X1.700000*%
G04 #@! TD*
G04 #@! TA.AperFunction,ComponentPad*
%ADD17O,1.700000X1.700000*%
G04 #@! TD*
G04 #@! TA.AperFunction,ViaPad*
%ADD18C,0.600000*%
G04 #@! TD*
G04 #@! TA.AperFunction,Conductor*
%ADD19C,0.250000*%
G04 #@! TD*
G04 APERTURE END LIST*
D10*
X80520000Y-113420000D03*
D11*
X80520000Y-117600000D03*
D10*
X71880000Y-113420000D03*
D11*
X71880000Y-117600000D03*
D12*
X87356383Y-114396284D03*
X83095937Y-117163051D03*
D13*
X69304063Y-117163051D03*
X65043617Y-114396284D03*
D14*
X65043617Y-88803716D03*
X69304063Y-86036949D03*
D15*
X83095937Y-86036949D03*
X87356383Y-88803716D03*
D16*
X60642500Y-103441500D03*
D17*
X60642500Y-100901500D03*
D18*
X68365000Y-112040000D03*
X84217149Y-92542852D03*
X65528000Y-102077000D03*
X68312035Y-115136535D03*
X75506600Y-114562024D03*
X74725765Y-113851549D03*
X73282144Y-110839256D03*
X88684600Y-110083600D03*
X82993535Y-115417159D03*
X88080000Y-95020000D03*
X79975000Y-90500000D03*
X75225000Y-90500000D03*
X87870612Y-90499446D03*
X90334600Y-110083600D03*
X89096000Y-95020000D03*
X64765000Y-111980000D03*
X71564500Y-90042500D03*
X81417455Y-92782545D03*
X76904000Y-108020000D03*
X83841480Y-90734590D03*
X65575000Y-106510000D03*
X72600000Y-93870989D03*
X70355000Y-106460000D03*
X88251900Y-93218000D03*
X68200000Y-96740000D03*
X71564500Y-85331000D03*
X82330753Y-92846395D03*
X66715000Y-112040000D03*
X75888000Y-95020000D03*
X89851900Y-91643200D03*
X70045000Y-89480000D03*
X71935000Y-96740000D03*
X73000000Y-112845000D03*
X67250000Y-108190000D03*
X65515000Y-111005000D03*
X78425000Y-90500000D03*
X66300000Y-110390000D03*
X67627011Y-103409500D03*
X71895000Y-106460000D03*
X64610000Y-109925000D03*
X69635000Y-113670000D03*
X66088500Y-93916500D03*
X75810000Y-98002500D03*
X66596918Y-89607382D03*
X74500000Y-97964000D03*
X82993535Y-87782841D03*
X86048000Y-108020000D03*
X75779924Y-110104500D03*
X86740500Y-91630500D03*
X84241000Y-91589267D03*
X88080000Y-108020000D03*
X85090500Y-93218000D03*
X85060000Y-105360000D03*
X82496260Y-91634429D03*
X72760000Y-97560000D03*
X62410000Y-94355000D03*
X89096000Y-108020000D03*
X81010402Y-91563026D03*
X85032000Y-95020000D03*
X63355000Y-96430000D03*
X80968000Y-95020000D03*
X62325000Y-108300000D03*
X76904000Y-95020000D03*
X80968000Y-108020000D03*
X82000000Y-95020000D03*
X81984000Y-108020000D03*
X68764462Y-104037192D03*
X68783734Y-101496266D03*
X65005000Y-96430000D03*
X61775000Y-97800000D03*
X77049011Y-113792901D03*
X70140000Y-108930498D03*
X75950000Y-113702048D03*
X71122048Y-109529999D03*
D19*
X80520000Y-117600000D02*
X80520000Y-113420000D01*
X71880000Y-117600000D02*
X80520000Y-117600000D01*
X71880000Y-113420000D02*
X71880000Y-117600000D01*
X67414882Y-89607382D02*
X66596918Y-89607382D01*
X75810000Y-98002500D02*
X67414882Y-89607382D01*
X62410000Y-94647482D02*
X62410000Y-94355000D01*
X65322518Y-97560000D02*
X62410000Y-94647482D01*
X72760000Y-97560000D02*
X65322518Y-97560000D01*
X67389040Y-102834989D02*
X73153011Y-102834989D01*
X73153011Y-102834989D02*
X80968000Y-95020000D01*
X62325000Y-108300000D02*
X62325000Y-107899029D01*
X62325000Y-107899029D02*
X67389040Y-102834989D01*
M02*
