M48
; DRILL file {KiCad (6.0.0-0)} date 2022 January 16, Sunday 16:26:37
; FORMAT={-:-/ absolute / inch / decimal}
; #@! TF.CreationDate,2022-01-16T16:26:37+10:00
; #@! TF.GenerationSoftware,Kicad,Pcbnew,(6.0.0-0)
; #@! TF.FileFunction,Plated,1,4,PTH
FMAT,2
INCH
; #@! TA.AperFunction,Plated,PTH,ViaDrill
T1C0.0118
; #@! TA.AperFunction,Plated,PTH,ComponentDrill
T2C0.0157
; #@! TA.AperFunction,Plated,PTH,ComponentDrill
T3C0.0236
; #@! TA.AperFunction,Plated,PTH,ComponentDrill
T4C0.0394
%
G90
G05
T1
X2.4321Y-3.8504
X2.4537Y-4.2638
X2.4571Y-3.7148
X2.4943Y-3.7965
X2.5437Y-4.3278
X2.5498Y-4.4087
X2.5593Y-3.7965
X2.5793Y-4.3703
X2.5798Y-4.0188
X2.5817Y-4.1933
X2.6019Y-3.6975
X2.6102Y-4.3461
X2.6219Y-3.5278
X2.6266Y-4.411
X2.6476Y-4.2594
X2.6625Y-4.0712
X2.685Y-3.8087
X2.6895Y-4.5329
X2.6915Y-4.411
X2.7073Y-4.096
X2.708Y-3.9959
X2.7415Y-4.4752
X2.7577Y-3.5228
X2.7614Y-4.2886
X2.7699Y-4.1913
X2.8001Y-4.3122
X2.8175Y-3.3595
X2.8175Y-3.545
X2.8305Y-4.1913
X2.8321Y-3.8087
X2.8583Y-3.6957
X2.8646Y-3.8409
X2.874Y-4.4427
X2.8851Y-4.3638
X2.9331Y-3.8569
X2.942Y-4.4823
X2.9616Y-3.563
X2.9727Y-4.5103
X2.9835Y-4.3348
X2.9846Y-3.8584
X2.9877Y-3.7409
X2.9902Y-4.4765
X3.0277Y-3.7409
X3.0277Y-4.2528
X3.0334Y-4.48
X3.0876Y-3.563
X3.1486Y-3.563
X3.1877Y-3.7409
X3.1877Y-4.2528
X3.1894Y-3.6048
X3.2054Y-3.6529
X3.2277Y-4.2528
X3.2283Y-3.7409
X3.2414Y-3.6554
X3.2479Y-3.6077
X3.2675Y-3.456
X3.2675Y-4.544
X3.3008Y-3.5722
X3.3156Y-3.6434
X3.3166Y-3.6059
X3.3477Y-3.7409
X3.3488Y-4.148
X3.35Y-3.67
X3.3877Y-4.2528
X3.415Y-3.6075
X3.4595Y-3.563
X3.4677Y-3.7409
X3.4677Y-4.2528
X3.4745Y-3.67
X3.4915Y-4.334
X3.5077Y-3.7409
X3.5077Y-4.2528
X3.5375Y-3.608
X3.5565Y-4.334
T4
X2.3875Y-3.9725
X2.3875Y-4.0725
T2
G00X2.5672Y-3.5061
M15
G01X2.5543Y-3.4863
M16
G05
G00X2.5672Y-4.4939
M15
G01X2.5543Y-4.5137
M16
G05
G00X2.7349Y-3.3972
M15
G01X2.7221Y-3.3774
M16
G05
G00X2.7349Y-4.6028
M15
G01X2.7221Y-4.6226
M16
G05
G00X3.2651Y-3.3972
M15
G01X3.2779Y-3.3774
M16
G05
G00X3.2651Y-4.6028
M15
G01X3.2779Y-4.6226
M16
G05
G00X3.4328Y-3.5061
M15
G01X3.4457Y-3.4863
M16
G05
G00X3.4328Y-4.4939
M15
G01X3.4457Y-4.5137
M16
G05
T3
G00X2.8299Y-4.4437
M15
G01X2.8299Y-4.487
M16
G05
G00X2.8299Y-4.6142
M15
G01X2.8299Y-4.6457
M16
G05
G00X3.1701Y-4.4437
M15
G01X3.1701Y-4.487
M16
G05
G00X3.1701Y-4.6142
M15
G01X3.1701Y-4.6457
M16
G05
T0
M30
