G04 #@! TF.GenerationSoftware,KiCad,Pcbnew,(6.0.0-0)*
G04 #@! TF.CreationDate,2022-01-16T16:26:30+10:00*
G04 #@! TF.ProjectId,osw-light,6f73772d-6c69-4676-9874-2e6b69636164,3.3*
G04 #@! TF.SameCoordinates,Original*
G04 #@! TF.FileFunction,Legend,Bot*
G04 #@! TF.FilePolarity,Positive*
%FSLAX46Y46*%
G04 Gerber Fmt 4.6, Leading zero omitted, Abs format (unit mm)*
G04 Created by KiCad (PCBNEW (6.0.0-0)) date 2022-01-16 16:26:30*
%MOMM*%
%LPD*%
G01*
G04 APERTURE LIST*
G04 Aperture macros list*
%AMRoundRect*
0 Rectangle with rounded corners*
0 $1 Rounding radius*
0 $2 $3 $4 $5 $6 $7 $8 $9 X,Y pos of 4 corners*
0 Add a 4 corners polygon primitive as box body*
4,1,4,$2,$3,$4,$5,$6,$7,$8,$9,$2,$3,0*
0 Add four circle primitives for the rounded corners*
1,1,$1+$1,$2,$3*
1,1,$1+$1,$4,$5*
1,1,$1+$1,$6,$7*
1,1,$1+$1,$8,$9*
0 Add four rect primitives between the rounded corners*
20,1,$1+$1,$2,$3,$4,$5,0*
20,1,$1+$1,$4,$5,$6,$7,0*
20,1,$1+$1,$6,$7,$8,$9,0*
20,1,$1+$1,$8,$9,$2,$3,0*%
%AMHorizOval*
0 Thick line with rounded ends*
0 $1 width*
0 $2 $3 position (X,Y) of the first rounded end (center of the circle)*
0 $4 $5 position (X,Y) of the second rounded end (center of the circle)*
0 Add line between two ends*
20,1,$1,$2,$3,$4,$5,0*
0 Add two circle primitives to create the rounded ends*
1,1,$1,$2,$3*
1,1,$1,$4,$5*%
G04 Aperture macros list end*
%ADD10C,0.200000*%
%ADD11C,0.300000*%
%ADD12C,0.100000*%
%ADD13C,0.150000*%
%ADD14C,0.752000*%
%ADD15O,1.152000X2.202000*%
%ADD16O,1.102000X2.102000*%
%ADD17HorizOval,0.702000X0.251623X-0.387466X-0.251623X0.387466X0*%
%ADD18HorizOval,0.702000X-0.251623X-0.387466X0.251623X0.387466X0*%
%ADD19HorizOval,0.702000X-0.251623X0.387466X0.251623X-0.387466X0*%
%ADD20HorizOval,0.702000X0.251623X0.387466X-0.251623X-0.387466X0*%
%ADD21RoundRect,0.051000X0.850000X0.850000X-0.850000X0.850000X-0.850000X-0.850000X0.850000X-0.850000X0*%
%ADD22O,1.802000X1.802000*%
%ADD23RoundRect,0.051000X-1.250000X0.175000X-1.250000X-0.175000X1.250000X-0.175000X1.250000X0.175000X0*%
G04 APERTURE END LIST*
D10*
X85794811Y-87098274D02*
X85275634Y-86761116D01*
X85347709Y-87262156D01*
X85227899Y-87184351D01*
X85122091Y-87172417D01*
X85056219Y-87186418D01*
X84964412Y-87240357D01*
X84834736Y-87440040D01*
X84822802Y-87545849D01*
X84836804Y-87611721D01*
X84890742Y-87703528D01*
X85130362Y-87859139D01*
X85236171Y-87871073D01*
X85302042Y-87857071D01*
X86005714Y-111882380D02*
X86100952Y-111834761D01*
X86148571Y-111787142D01*
X86196190Y-111691904D01*
X86196190Y-111406190D01*
X86148571Y-111310952D01*
X86100952Y-111263333D01*
X86005714Y-111215714D01*
X85862857Y-111215714D01*
X85767619Y-111263333D01*
X85720000Y-111310952D01*
X85672380Y-111406190D01*
X85672380Y-111691904D01*
X85720000Y-111787142D01*
X85767619Y-111834761D01*
X85862857Y-111882380D01*
X86005714Y-111882380D01*
X85243809Y-111215714D02*
X85243809Y-112215714D01*
X85243809Y-111263333D02*
X85148571Y-111215714D01*
X84958095Y-111215714D01*
X84862857Y-111263333D01*
X84815238Y-111310952D01*
X84767619Y-111406190D01*
X84767619Y-111691904D01*
X84815238Y-111787142D01*
X84862857Y-111834761D01*
X84958095Y-111882380D01*
X85148571Y-111882380D01*
X85243809Y-111834761D01*
X83958095Y-111834761D02*
X84053333Y-111882380D01*
X84243809Y-111882380D01*
X84339047Y-111834761D01*
X84386666Y-111739523D01*
X84386666Y-111358571D01*
X84339047Y-111263333D01*
X84243809Y-111215714D01*
X84053333Y-111215714D01*
X83958095Y-111263333D01*
X83910476Y-111358571D01*
X83910476Y-111453809D01*
X84386666Y-111549047D01*
X83481904Y-111215714D02*
X83481904Y-111882380D01*
X83481904Y-111310952D02*
X83434285Y-111263333D01*
X83339047Y-111215714D01*
X83196190Y-111215714D01*
X83100952Y-111263333D01*
X83053333Y-111358571D01*
X83053333Y-111882380D01*
X82577142Y-111501428D02*
X81815238Y-111501428D01*
X81386666Y-111834761D02*
X81291428Y-111882380D01*
X81100952Y-111882380D01*
X81005714Y-111834761D01*
X80958095Y-111739523D01*
X80958095Y-111691904D01*
X81005714Y-111596666D01*
X81100952Y-111549047D01*
X81243809Y-111549047D01*
X81339047Y-111501428D01*
X81386666Y-111406190D01*
X81386666Y-111358571D01*
X81339047Y-111263333D01*
X81243809Y-111215714D01*
X81100952Y-111215714D01*
X81005714Y-111263333D01*
X80529523Y-111882380D02*
X80529523Y-111215714D01*
X80529523Y-111310952D02*
X80481904Y-111263333D01*
X80386666Y-111215714D01*
X80243809Y-111215714D01*
X80148571Y-111263333D01*
X80100952Y-111358571D01*
X80100952Y-111882380D01*
X80100952Y-111358571D02*
X80053333Y-111263333D01*
X79958095Y-111215714D01*
X79815238Y-111215714D01*
X79720000Y-111263333D01*
X79672380Y-111358571D01*
X79672380Y-111882380D01*
X78767619Y-111882380D02*
X78767619Y-111358571D01*
X78815238Y-111263333D01*
X78910476Y-111215714D01*
X79100952Y-111215714D01*
X79196190Y-111263333D01*
X78767619Y-111834761D02*
X78862857Y-111882380D01*
X79100952Y-111882380D01*
X79196190Y-111834761D01*
X79243809Y-111739523D01*
X79243809Y-111644285D01*
X79196190Y-111549047D01*
X79100952Y-111501428D01*
X78862857Y-111501428D01*
X78767619Y-111453809D01*
X78291428Y-111882380D02*
X78291428Y-111215714D01*
X78291428Y-111406190D02*
X78243809Y-111310952D01*
X78196190Y-111263333D01*
X78100952Y-111215714D01*
X78005714Y-111215714D01*
X77815238Y-111215714D02*
X77434285Y-111215714D01*
X77672380Y-110882380D02*
X77672380Y-111739523D01*
X77624761Y-111834761D01*
X77529523Y-111882380D01*
X77434285Y-111882380D01*
X77196190Y-111215714D02*
X77005714Y-111882380D01*
X76815238Y-111406190D01*
X76624761Y-111882380D01*
X76434285Y-111215714D01*
X75624761Y-111882380D02*
X75624761Y-111358571D01*
X75672380Y-111263333D01*
X75767619Y-111215714D01*
X75958095Y-111215714D01*
X76053333Y-111263333D01*
X75624761Y-111834761D02*
X75720000Y-111882380D01*
X75958095Y-111882380D01*
X76053333Y-111834761D01*
X76100952Y-111739523D01*
X76100952Y-111644285D01*
X76053333Y-111549047D01*
X75958095Y-111501428D01*
X75720000Y-111501428D01*
X75624761Y-111453809D01*
X75291428Y-111215714D02*
X74910476Y-111215714D01*
X75148571Y-110882380D02*
X75148571Y-111739523D01*
X75100952Y-111834761D01*
X75005714Y-111882380D01*
X74910476Y-111882380D01*
X74148571Y-111834761D02*
X74243809Y-111882380D01*
X74434285Y-111882380D01*
X74529523Y-111834761D01*
X74577142Y-111787142D01*
X74624761Y-111691904D01*
X74624761Y-111406190D01*
X74577142Y-111310952D01*
X74529523Y-111263333D01*
X74434285Y-111215714D01*
X74243809Y-111215714D01*
X74148571Y-111263333D01*
X73720000Y-111882380D02*
X73720000Y-110882380D01*
X73291428Y-111882380D02*
X73291428Y-111358571D01*
X73339047Y-111263333D01*
X73434285Y-111215714D01*
X73577142Y-111215714D01*
X73672380Y-111263333D01*
X73720000Y-111310952D01*
X72815238Y-111787142D02*
X72767619Y-111834761D01*
X72815238Y-111882380D01*
X72862857Y-111834761D01*
X72815238Y-111787142D01*
X72815238Y-111882380D01*
X71910476Y-111215714D02*
X71910476Y-112025238D01*
X71958095Y-112120476D01*
X72005714Y-112168095D01*
X72100952Y-112215714D01*
X72243809Y-112215714D01*
X72339047Y-112168095D01*
X71910476Y-111834761D02*
X72005714Y-111882380D01*
X72196190Y-111882380D01*
X72291428Y-111834761D01*
X72339047Y-111787142D01*
X72386666Y-111691904D01*
X72386666Y-111406190D01*
X72339047Y-111310952D01*
X72291428Y-111263333D01*
X72196190Y-111215714D01*
X72005714Y-111215714D01*
X71910476Y-111263333D01*
X71434285Y-111882380D02*
X71434285Y-111215714D01*
X71434285Y-110882380D02*
X71481904Y-110930000D01*
X71434285Y-110977619D01*
X71386666Y-110930000D01*
X71434285Y-110882380D01*
X71434285Y-110977619D01*
X71100952Y-111215714D02*
X70720000Y-111215714D01*
X70958095Y-110882380D02*
X70958095Y-111739523D01*
X70910476Y-111834761D01*
X70815238Y-111882380D01*
X70720000Y-111882380D01*
X70386666Y-111882380D02*
X70386666Y-110882380D01*
X69958095Y-111882380D02*
X69958095Y-111358571D01*
X70005714Y-111263333D01*
X70100952Y-111215714D01*
X70243809Y-111215714D01*
X70339047Y-111263333D01*
X70386666Y-111310952D01*
X69053333Y-111215714D02*
X69053333Y-111882380D01*
X69481904Y-111215714D02*
X69481904Y-111739523D01*
X69434285Y-111834761D01*
X69339047Y-111882380D01*
X69196190Y-111882380D01*
X69100952Y-111834761D01*
X69053333Y-111787142D01*
X68577142Y-111882380D02*
X68577142Y-110882380D01*
X68577142Y-111263333D02*
X68481904Y-111215714D01*
X68291428Y-111215714D01*
X68196190Y-111263333D01*
X68148571Y-111310952D01*
X68100952Y-111406190D01*
X68100952Y-111691904D01*
X68148571Y-111787142D01*
X68196190Y-111834761D01*
X68291428Y-111882380D01*
X68481904Y-111882380D01*
X68577142Y-111834761D01*
X67672380Y-111787142D02*
X67624761Y-111834761D01*
X67672380Y-111882380D01*
X67720000Y-111834761D01*
X67672380Y-111787142D01*
X67672380Y-111882380D01*
X67196190Y-111882380D02*
X67196190Y-111215714D01*
X67196190Y-110882380D02*
X67243809Y-110930000D01*
X67196190Y-110977619D01*
X67148571Y-110930000D01*
X67196190Y-110882380D01*
X67196190Y-110977619D01*
X66577142Y-111882380D02*
X66672380Y-111834761D01*
X66720000Y-111787142D01*
X66767619Y-111691904D01*
X66767619Y-111406190D01*
X66720000Y-111310952D01*
X66672380Y-111263333D01*
X66577142Y-111215714D01*
X66434285Y-111215714D01*
X66339047Y-111263333D01*
X66291428Y-111310952D01*
X66243809Y-111406190D01*
X66243809Y-111691904D01*
X66291428Y-111787142D01*
X66339047Y-111834761D01*
X66434285Y-111882380D01*
X66577142Y-111882380D01*
X85203795Y-116371977D02*
X85224000Y-115791064D01*
X85683036Y-116060755D02*
X85138397Y-115222084D01*
X84818903Y-115429566D01*
X84764965Y-115521373D01*
X84750963Y-115587244D01*
X84762897Y-115693053D01*
X84840703Y-115812863D01*
X84932510Y-115866801D01*
X84998382Y-115880803D01*
X85104190Y-115868869D01*
X85423684Y-115661388D01*
X67176235Y-86840990D02*
X67110363Y-86826988D01*
X67004555Y-86838922D01*
X66804871Y-86968598D01*
X66750933Y-87060405D01*
X66736932Y-87126277D01*
X66748865Y-87232085D01*
X66800736Y-87311959D01*
X66918478Y-87405834D01*
X67708941Y-87573852D01*
X67189764Y-87911009D01*
X66569995Y-115984287D02*
X67049235Y-116295509D01*
X66809615Y-116139898D02*
X67354254Y-115301228D01*
X67356322Y-115472908D01*
X67384325Y-115604652D01*
X67438263Y-115696459D01*
D11*
X80710314Y-93515571D02*
X80710314Y-92015571D01*
X80138885Y-92015571D01*
X79996028Y-92087000D01*
X79924600Y-92158428D01*
X79853171Y-92301285D01*
X79853171Y-92515571D01*
X79924600Y-92658428D01*
X79996028Y-92729857D01*
X80138885Y-92801285D01*
X80710314Y-92801285D01*
X79353171Y-92015571D02*
X78424600Y-92015571D01*
X78924600Y-92587000D01*
X78710314Y-92587000D01*
X78567457Y-92658428D01*
X78496028Y-92729857D01*
X78424600Y-92872714D01*
X78424600Y-93229857D01*
X78496028Y-93372714D01*
X78567457Y-93444142D01*
X78710314Y-93515571D01*
X79138885Y-93515571D01*
X79281742Y-93444142D01*
X79353171Y-93372714D01*
X77781742Y-93515571D02*
X77781742Y-92015571D01*
X77424600Y-92015571D01*
X77210314Y-92087000D01*
X77067457Y-92229857D01*
X76996028Y-92372714D01*
X76924600Y-92658428D01*
X76924600Y-92872714D01*
X76996028Y-93158428D01*
X77067457Y-93301285D01*
X77210314Y-93444142D01*
X77424600Y-93515571D01*
X77781742Y-93515571D01*
X76496028Y-92015571D02*
X75638885Y-92015571D01*
X76067457Y-93515571D02*
X76067457Y-92015571D01*
X75138885Y-93372714D02*
X75067457Y-93444142D01*
X75138885Y-93515571D01*
X75210314Y-93444142D01*
X75138885Y-93372714D01*
X75138885Y-93515571D01*
X74424600Y-92515571D02*
X74424600Y-93515571D01*
X74424600Y-92658428D02*
X74353171Y-92587000D01*
X74210314Y-92515571D01*
X73996028Y-92515571D01*
X73853171Y-92587000D01*
X73781742Y-92729857D01*
X73781742Y-93515571D01*
X72496028Y-93444142D02*
X72638885Y-93515571D01*
X72924600Y-93515571D01*
X73067457Y-93444142D01*
X73138885Y-93301285D01*
X73138885Y-92729857D01*
X73067457Y-92587000D01*
X72924600Y-92515571D01*
X72638885Y-92515571D01*
X72496028Y-92587000D01*
X72424600Y-92729857D01*
X72424600Y-92872714D01*
X73138885Y-93015571D01*
X71996028Y-92515571D02*
X71424600Y-92515571D01*
X71781742Y-92015571D02*
X71781742Y-93301285D01*
X71710314Y-93444142D01*
X71567457Y-93515571D01*
X71424600Y-93515571D01*
D12*
X59036190Y-102449047D02*
X59440952Y-102449047D01*
X59488571Y-102472857D01*
X59512380Y-102496666D01*
X59536190Y-102544285D01*
X59536190Y-102639523D01*
X59512380Y-102687142D01*
X59488571Y-102710952D01*
X59440952Y-102734761D01*
X59036190Y-102734761D01*
X59202857Y-103187142D02*
X59536190Y-103187142D01*
X59012380Y-103068095D02*
X59369523Y-102949047D01*
X59369523Y-103258571D01*
X63504190Y-98019857D02*
X63504190Y-97734142D01*
X63504190Y-97877000D02*
X63004190Y-97877000D01*
X63075619Y-97829380D01*
X63123238Y-97781761D01*
X63147047Y-97734142D01*
X63554190Y-104981761D02*
X63554190Y-104696047D01*
X63554190Y-104838904D02*
X63054190Y-104838904D01*
X63125619Y-104791285D01*
X63173238Y-104743666D01*
X63197047Y-104696047D01*
X63101809Y-105172238D02*
X63078000Y-105196047D01*
X63054190Y-105243666D01*
X63054190Y-105362714D01*
X63078000Y-105410333D01*
X63101809Y-105434142D01*
X63149428Y-105457952D01*
X63197047Y-105457952D01*
X63268476Y-105434142D01*
X63554190Y-105148428D01*
X63554190Y-105457952D01*
D13*
X66478000Y-106027000D02*
X66478000Y-107027000D01*
X56078000Y-107827000D02*
X56078000Y-96427000D01*
X56478000Y-108227000D02*
X62728000Y-108227000D01*
X66478000Y-96427000D02*
X66478000Y-97427000D01*
X62728000Y-107027000D02*
G75*
G03*
X62728000Y-107027000I-500000J0D01*
G01*
X62728000Y-97027000D02*
G75*
G03*
X62728000Y-97027000I-500000J0D01*
G01*
X56478000Y-96027000D02*
X66078000Y-96027000D01*
X63528000Y-107427000D02*
X66128000Y-107427000D01*
X66078000Y-107427000D02*
G75*
G03*
X66478000Y-107027000I0J400000D01*
G01*
X66478000Y-96427000D02*
G75*
G03*
X66078000Y-96027000I-400000J0D01*
G01*
X63528000Y-107427000D02*
G75*
G03*
X63128000Y-107827000I0J-400000D01*
G01*
X62728000Y-108227000D02*
G75*
G03*
X63128000Y-107827000I0J400000D01*
G01*
X56478000Y-96027000D02*
G75*
G03*
X56078000Y-96427000I0J-400000D01*
G01*
X56078000Y-107827000D02*
G75*
G03*
X56478000Y-108227000I400000J0D01*
G01*
%LPC*%
D14*
X79090000Y-113920000D03*
X73310000Y-113920000D03*
D15*
X80520000Y-113420000D03*
D16*
X80520000Y-117600000D03*
D15*
X71880000Y-113420000D03*
D16*
X71880000Y-117600000D03*
D17*
X87356383Y-114396284D03*
X83095937Y-117163051D03*
D18*
X69304063Y-117163051D03*
X65043617Y-114396284D03*
D19*
X65043617Y-88803716D03*
X69304063Y-86036949D03*
D20*
X83095937Y-86036949D03*
X87356383Y-88803716D03*
D21*
X60642500Y-103441500D03*
D22*
X60642500Y-100901500D03*
D23*
X65528000Y-97877000D03*
X65528000Y-98577000D03*
X65528000Y-99277000D03*
X65528000Y-99977000D03*
X65528000Y-100677000D03*
X65528000Y-101377000D03*
X65528000Y-105577000D03*
X65528000Y-104877000D03*
X65528000Y-104177000D03*
X65528000Y-103477000D03*
X65528000Y-102777000D03*
X65528000Y-102077000D03*
M02*
