G04 #@! TF.GenerationSoftware,KiCad,Pcbnew,(6.0.0-0)*
G04 #@! TF.CreationDate,2022-01-16T16:26:30+10:00*
G04 #@! TF.ProjectId,osw-light,6f73772d-6c69-4676-9874-2e6b69636164,3.3*
G04 #@! TF.SameCoordinates,Original*
G04 #@! TF.FileFunction,Paste,Top*
G04 #@! TF.FilePolarity,Positive*
%FSLAX46Y46*%
G04 Gerber Fmt 4.6, Leading zero omitted, Abs format (unit mm)*
G04 Created by KiCad (PCBNEW (6.0.0-0)) date 2022-01-16 16:26:30*
%MOMM*%
%LPD*%
G01*
G04 APERTURE LIST*
G04 Aperture macros list*
%AMRoundRect*
0 Rectangle with rounded corners*
0 $1 Rounding radius*
0 $2 $3 $4 $5 $6 $7 $8 $9 X,Y pos of 4 corners*
0 Add a 4 corners polygon primitive as box body*
4,1,4,$2,$3,$4,$5,$6,$7,$8,$9,$2,$3,0*
0 Add four circle primitives for the rounded corners*
1,1,$1+$1,$2,$3*
1,1,$1+$1,$4,$5*
1,1,$1+$1,$6,$7*
1,1,$1+$1,$8,$9*
0 Add four rect primitives between the rounded corners*
20,1,$1+$1,$2,$3,$4,$5,0*
20,1,$1+$1,$4,$5,$6,$7,0*
20,1,$1+$1,$6,$7,$8,$9,0*
20,1,$1+$1,$8,$9,$2,$3,0*%
%AMRotRect*
0 Rectangle, with rotation*
0 The origin of the aperture is its center*
0 $1 length*
0 $2 width*
0 $3 Rotation angle, in degrees counterclockwise*
0 Add horizontal line*
21,1,$1,$2,0,0,$3*%
G04 Aperture macros list end*
%ADD10C,0.100000*%
%ADD11R,0.600000X1.150000*%
%ADD12R,0.300000X1.150000*%
%ADD13RotRect,1.524000X0.500000X303.000000*%
%ADD14RotRect,1.524000X0.500000X237.000000*%
%ADD15RoundRect,0.200000X0.200000X0.275000X-0.200000X0.275000X-0.200000X-0.275000X0.200000X-0.275000X0*%
%ADD16RoundRect,0.225000X-0.225000X-0.250000X0.225000X-0.250000X0.225000X0.250000X-0.225000X0.250000X0*%
%ADD17RoundRect,0.200000X-0.200000X-0.275000X0.200000X-0.275000X0.200000X0.275000X-0.200000X0.275000X0*%
%ADD18RoundRect,0.150000X-0.825000X-0.150000X0.825000X-0.150000X0.825000X0.150000X-0.825000X0.150000X0*%
%ADD19RoundRect,0.225000X0.225000X0.250000X-0.225000X0.250000X-0.225000X-0.250000X0.225000X-0.250000X0*%
%ADD20RoundRect,0.225000X0.250000X-0.225000X0.250000X0.225000X-0.250000X0.225000X-0.250000X-0.225000X0*%
%ADD21RotRect,1.524000X0.500000X123.000000*%
%ADD22R,1.400000X0.300000*%
%ADD23RoundRect,0.100000X0.637500X0.100000X-0.637500X0.100000X-0.637500X-0.100000X0.637500X-0.100000X0*%
%ADD24R,0.350000X0.375000*%
%ADD25R,0.375000X0.350000*%
%ADD26RoundRect,0.200000X-0.275000X0.200000X-0.275000X-0.200000X0.275000X-0.200000X0.275000X0.200000X0*%
%ADD27RoundRect,0.250000X-0.325000X-0.650000X0.325000X-0.650000X0.325000X0.650000X-0.325000X0.650000X0*%
%ADD28RoundRect,0.150000X0.150000X-0.512500X0.150000X0.512500X-0.150000X0.512500X-0.150000X-0.512500X0*%
%ADD29R,0.600000X1.524000*%
%ADD30R,1.524000X0.600000*%
%ADD31RoundRect,0.150000X-0.587500X-0.150000X0.587500X-0.150000X0.587500X0.150000X-0.587500X0.150000X0*%
%ADD32RotRect,1.524000X0.500000X57.000000*%
%ADD33R,0.650000X1.060000*%
%ADD34RoundRect,0.243750X0.456250X-0.243750X0.456250X0.243750X-0.456250X0.243750X-0.456250X-0.243750X0*%
%ADD35RoundRect,0.200000X0.275000X-0.200000X0.275000X0.200000X-0.275000X0.200000X-0.275000X-0.200000X0*%
G04 APERTURE END LIST*
D10*
X78900000Y-101320000D02*
X78900000Y-99520000D01*
X78900000Y-99520000D02*
X80700000Y-99520000D01*
X80700000Y-99520000D02*
X80700000Y-101320000D01*
X80700000Y-101320000D02*
X78900000Y-101320000D01*
G36*
X80700000Y-101320000D02*
G01*
X78900000Y-101320000D01*
X78900000Y-99520000D01*
X80700000Y-99520000D01*
X80700000Y-101320000D01*
G37*
X80700000Y-101320000D02*
X78900000Y-101320000D01*
X78900000Y-99520000D01*
X80700000Y-99520000D01*
X80700000Y-101320000D01*
X81200000Y-103620000D02*
X81200000Y-101820000D01*
X81200000Y-101820000D02*
X83000000Y-101820000D01*
X83000000Y-101820000D02*
X83000000Y-103620000D01*
X83000000Y-103620000D02*
X81200000Y-103620000D01*
G36*
X83000000Y-103620000D02*
G01*
X81200000Y-103620000D01*
X81200000Y-101820000D01*
X83000000Y-101820000D01*
X83000000Y-103620000D01*
G37*
X83000000Y-103620000D02*
X81200000Y-103620000D01*
X81200000Y-101820000D01*
X83000000Y-101820000D01*
X83000000Y-103620000D01*
X78900000Y-103620000D02*
X78900000Y-101820000D01*
X78900000Y-101820000D02*
X80700000Y-101820000D01*
X80700000Y-101820000D02*
X80700000Y-103620000D01*
X80700000Y-103620000D02*
X78900000Y-103620000D01*
G36*
X80700000Y-103620000D02*
G01*
X78900000Y-103620000D01*
X78900000Y-101820000D01*
X80700000Y-101820000D01*
X80700000Y-103620000D01*
G37*
X80700000Y-103620000D02*
X78900000Y-103620000D01*
X78900000Y-101820000D01*
X80700000Y-101820000D01*
X80700000Y-103620000D01*
X81200000Y-101320000D02*
X81200000Y-99520000D01*
X81200000Y-99520000D02*
X83000000Y-99520000D01*
X83000000Y-99520000D02*
X83000000Y-101320000D01*
X83000000Y-101320000D02*
X81200000Y-101320000D01*
G36*
X83000000Y-101320000D02*
G01*
X81200000Y-101320000D01*
X81200000Y-99520000D01*
X83000000Y-99520000D01*
X83000000Y-101320000D01*
G37*
X83000000Y-101320000D02*
X81200000Y-101320000D01*
X81200000Y-99520000D01*
X83000000Y-99520000D01*
X83000000Y-101320000D01*
D11*
X79400000Y-112845000D03*
X73000000Y-112845000D03*
X78600000Y-112845000D03*
X73800000Y-112845000D03*
D12*
X74950000Y-112845000D03*
X75950000Y-112845000D03*
X76450000Y-112845000D03*
X77450000Y-112845000D03*
X77950000Y-112845000D03*
X76950000Y-112845000D03*
X75450000Y-112845000D03*
X74450000Y-112845000D03*
D13*
X85803082Y-113592618D03*
X82993535Y-115417159D03*
D14*
X69406465Y-115417159D03*
X66596918Y-113592618D03*
D15*
X64765000Y-111980000D03*
X63115000Y-111980000D03*
D16*
X68805000Y-106460000D03*
X70355000Y-106460000D03*
D17*
X85484200Y-110109000D03*
X87134200Y-110109000D03*
X88201900Y-91643200D03*
X89851900Y-91643200D03*
D15*
X86740500Y-93218000D03*
X85090500Y-93218000D03*
D17*
X85090500Y-91630500D03*
X86740500Y-91630500D03*
D18*
X73661500Y-84759800D03*
X73661500Y-86029800D03*
X73661500Y-87299800D03*
X73661500Y-88569800D03*
X78611500Y-88569800D03*
X78611500Y-87299800D03*
X78611500Y-86029800D03*
X78611500Y-84759800D03*
D19*
X89801900Y-93218000D03*
X88251900Y-93218000D03*
D16*
X85534200Y-111980000D03*
X87084200Y-111980000D03*
D20*
X71564500Y-86881000D03*
X71564500Y-85331000D03*
D19*
X79975000Y-90500000D03*
X78425000Y-90500000D03*
D17*
X68805000Y-100760000D03*
X70455000Y-100760000D03*
D21*
X66596918Y-89607382D03*
X69406465Y-87782841D03*
D22*
X70140000Y-109030000D03*
X70140000Y-109530000D03*
X70140000Y-110030000D03*
X70140000Y-110530000D03*
X70140000Y-111030000D03*
X74540000Y-111030000D03*
X74540000Y-110530000D03*
X74540000Y-110030000D03*
X74540000Y-109530000D03*
X74540000Y-109030000D03*
D23*
X71812500Y-104785000D03*
X71812500Y-104135000D03*
X71812500Y-103485000D03*
X71812500Y-102835000D03*
X66087500Y-102835000D03*
X66087500Y-103485000D03*
X66087500Y-104135000D03*
X66087500Y-104785000D03*
D24*
X83120000Y-91067500D03*
X82620000Y-91067500D03*
X82120000Y-91067500D03*
X81620000Y-91067500D03*
D25*
X81607500Y-91580000D03*
X81607500Y-92080000D03*
D24*
X81620000Y-92592500D03*
X82120000Y-92592500D03*
X82620000Y-92592500D03*
X83120000Y-92592500D03*
D25*
X83132500Y-92080000D03*
X83132500Y-91580000D03*
D16*
X71895000Y-106460000D03*
X73445000Y-106460000D03*
D26*
X64610000Y-108275000D03*
X64610000Y-109925000D03*
D15*
X90334600Y-110083600D03*
X88684600Y-110083600D03*
D27*
X68885000Y-98780000D03*
X71835000Y-98780000D03*
D16*
X70385000Y-96740000D03*
X71935000Y-96740000D03*
X75225000Y-92100000D03*
X76775000Y-92100000D03*
X75225000Y-90500000D03*
X76775000Y-90500000D03*
D28*
X71650000Y-94137500D03*
X72600000Y-94137500D03*
X73550000Y-94137500D03*
X73550000Y-91862500D03*
X71650000Y-91862500D03*
D29*
X90112000Y-95020000D03*
X89096000Y-95020000D03*
X88080000Y-95020000D03*
X87064000Y-95020000D03*
X86048000Y-95020000D03*
X85032000Y-95020000D03*
X84016000Y-95020000D03*
X83000000Y-95020000D03*
X82000000Y-95020000D03*
X80968000Y-95020000D03*
X79952000Y-95020000D03*
X78936000Y-95020000D03*
X77920000Y-95020000D03*
X76904000Y-95020000D03*
X75888000Y-95020000D03*
D30*
X74500000Y-97964000D03*
X74500000Y-98980000D03*
X74500000Y-99996000D03*
X74500000Y-101012000D03*
X74500000Y-102028000D03*
X74500000Y-103044000D03*
X74500000Y-104060000D03*
X74500000Y-105076000D03*
D29*
X75888000Y-108020000D03*
X76904000Y-108020000D03*
X77920000Y-108020000D03*
X78936000Y-108020000D03*
X79952000Y-108020000D03*
X80968000Y-108020000D03*
X81984000Y-108020000D03*
X83000000Y-108020000D03*
X84016000Y-108020000D03*
X85032000Y-108020000D03*
X86048000Y-108020000D03*
X87064000Y-108020000D03*
X88080000Y-108020000D03*
X89096000Y-108020000D03*
X90112000Y-108020000D03*
D26*
X71564500Y-88392500D03*
X71564500Y-90042500D03*
D15*
X65005000Y-96430000D03*
X63355000Y-96430000D03*
D26*
X62410000Y-92705000D03*
X62410000Y-94355000D03*
D15*
X61925000Y-95800000D03*
X60275000Y-95800000D03*
D19*
X61775000Y-97800000D03*
X60225000Y-97800000D03*
D31*
X64213500Y-92966500D03*
X64213500Y-94866500D03*
X66088500Y-93916500D03*
D15*
X67225000Y-106510000D03*
X65575000Y-106510000D03*
X67355000Y-100880000D03*
X65705000Y-100880000D03*
D20*
X63600000Y-102375000D03*
X63600000Y-100825000D03*
D15*
X63075000Y-109850000D03*
X61425000Y-109850000D03*
D32*
X82993535Y-87782841D03*
X85803082Y-89607382D03*
D16*
X66650000Y-96740000D03*
X68200000Y-96740000D03*
X68445000Y-91050000D03*
X69995000Y-91050000D03*
D27*
X63725000Y-98770000D03*
X66675000Y-98770000D03*
D16*
X68495000Y-89480000D03*
X70045000Y-89480000D03*
D28*
X67990000Y-94987500D03*
X68940000Y-94987500D03*
X69890000Y-94987500D03*
X69890000Y-92712500D03*
X67990000Y-92712500D03*
D16*
X68085000Y-113670000D03*
X69635000Y-113670000D03*
D33*
X68200000Y-108190000D03*
X67250000Y-108190000D03*
X66300000Y-108190000D03*
X66300000Y-110390000D03*
X68200000Y-110390000D03*
D34*
X63700000Y-105887500D03*
X63700000Y-104012500D03*
D15*
X64642500Y-91249500D03*
X62992500Y-91249500D03*
D17*
X60675000Y-108300000D03*
X62325000Y-108300000D03*
D15*
X68365000Y-112040000D03*
X66715000Y-112040000D03*
D35*
X82180000Y-113765000D03*
X82180000Y-112115000D03*
M02*
