G04 #@! TF.GenerationSoftware,KiCad,Pcbnew,(6.0.0-0)*
G04 #@! TF.CreationDate,2022-01-30T22:34:30+10:00*
G04 #@! TF.ProjectId,osw-light,6f73772d-6c69-4676-9874-2e6b69636164,3.3*
G04 #@! TF.SameCoordinates,Original*
G04 #@! TF.FileFunction,Copper,L2,Bot*
G04 #@! TF.FilePolarity,Positive*
%FSLAX46Y46*%
G04 Gerber Fmt 4.6, Leading zero omitted, Abs format (unit mm)*
G04 Created by KiCad (PCBNEW (6.0.0-0)) date 2022-01-30 22:34:30*
%MOMM*%
%LPD*%
G01*
G04 APERTURE LIST*
G04 Aperture macros list*
%AMHorizOval*
0 Thick line with rounded ends*
0 $1 width*
0 $2 $3 position (X,Y) of the first rounded end (center of the circle)*
0 $4 $5 position (X,Y) of the second rounded end (center of the circle)*
0 Add line between two ends*
20,1,$1,$2,$3,$4,$5,0*
0 Add two circle primitives to create the rounded ends*
1,1,$1,$2,$3*
1,1,$1,$4,$5*%
G04 Aperture macros list end*
G04 #@! TA.AperFunction,ComponentPad*
%ADD10O,1.000000X2.100000*%
G04 #@! TD*
G04 #@! TA.AperFunction,ComponentPad*
%ADD11O,1.000000X1.600000*%
G04 #@! TD*
G04 #@! TA.AperFunction,ComponentPad*
%ADD12HorizOval,0.600000X0.251623X-0.387466X-0.251623X0.387466X0*%
G04 #@! TD*
G04 #@! TA.AperFunction,ComponentPad*
%ADD13HorizOval,0.600000X-0.251623X-0.387466X0.251623X0.387466X0*%
G04 #@! TD*
G04 #@! TA.AperFunction,ComponentPad*
%ADD14HorizOval,0.600000X-0.251623X0.387466X0.251623X-0.387466X0*%
G04 #@! TD*
G04 #@! TA.AperFunction,ComponentPad*
%ADD15HorizOval,0.600000X0.251623X0.387466X-0.251623X-0.387466X0*%
G04 #@! TD*
G04 #@! TA.AperFunction,ComponentPad*
%ADD16R,0.850000X0.850000*%
G04 #@! TD*
G04 #@! TA.AperFunction,ComponentPad*
%ADD17O,0.850000X0.850000*%
G04 #@! TD*
G04 #@! TA.AperFunction,SMDPad,CuDef*
%ADD18R,2.500000X0.350000*%
G04 #@! TD*
G04 #@! TA.AperFunction,ViaPad*
%ADD19C,0.600000*%
G04 #@! TD*
G04 #@! TA.AperFunction,ViaPad*
%ADD20C,0.685800*%
G04 #@! TD*
G04 #@! TA.AperFunction,Conductor*
%ADD21C,0.250000*%
G04 #@! TD*
G04 #@! TA.AperFunction,Conductor*
%ADD22C,0.200000*%
G04 #@! TD*
G04 #@! TA.AperFunction,Conductor*
%ADD23C,0.500000*%
G04 #@! TD*
G04 #@! TA.AperFunction,Conductor*
%ADD24C,0.400000*%
G04 #@! TD*
G04 APERTURE END LIST*
D10*
X71880000Y-113910000D03*
D11*
X71880000Y-118090000D03*
D10*
X80520000Y-113910000D03*
D11*
X80520000Y-118090000D03*
D12*
X87356383Y-114396284D03*
X83095937Y-117163051D03*
D13*
X69304063Y-117163051D03*
X65043617Y-114396284D03*
D14*
X65043617Y-88803716D03*
X69304063Y-86036949D03*
D15*
X83095937Y-86036949D03*
X87356383Y-88803716D03*
D16*
X60640000Y-103417500D03*
D17*
X60640000Y-102417500D03*
D16*
X91240000Y-93332500D03*
D17*
X91240000Y-94332500D03*
D16*
X76350000Y-93300000D03*
D17*
X77350000Y-93300000D03*
X78350000Y-93300000D03*
X79350000Y-93300000D03*
D16*
X76350000Y-109910000D03*
D17*
X77350000Y-109910000D03*
X78350000Y-109910000D03*
X79350000Y-109910000D03*
D18*
X65528000Y-105577000D03*
X65528000Y-104877000D03*
X65528000Y-104177000D03*
X65528000Y-103477000D03*
X65528000Y-102777000D03*
X65528000Y-102077000D03*
X65528000Y-101377000D03*
X65528000Y-100677000D03*
X65528000Y-99977000D03*
X65528000Y-99277000D03*
X65528000Y-98577000D03*
X65528000Y-97877000D03*
D19*
X86930500Y-105060000D03*
X69200000Y-113595000D03*
X75310000Y-114551559D03*
X77049011Y-114092901D03*
X75950000Y-114002048D03*
X69200000Y-112045000D03*
X87480000Y-95100000D03*
X88684600Y-110083600D03*
X82993535Y-115417159D03*
X79975000Y-90500000D03*
X84217149Y-92542852D03*
X88496000Y-95100000D03*
X62936637Y-112216637D03*
X90334600Y-110083600D03*
X71650978Y-109680000D03*
X81417455Y-92782545D03*
X76304000Y-108100000D03*
X66596918Y-113592618D03*
X65528000Y-105577000D03*
X88251900Y-93218000D03*
X83841480Y-90740000D03*
X72583153Y-93871000D03*
X68200000Y-96740000D03*
X71564500Y-85331000D03*
X82330753Y-92846395D03*
X69905000Y-106500000D03*
X65430000Y-108090000D03*
X70045000Y-89480000D03*
X71935000Y-96740000D03*
X65528000Y-102077000D03*
X62992500Y-91249500D03*
X78425000Y-90500000D03*
X64480000Y-110290000D03*
X67627011Y-103409500D03*
X71395000Y-106480000D03*
X66088500Y-93916500D03*
X73900000Y-100076000D03*
X67190000Y-91824000D03*
X82993535Y-87782841D03*
X73900000Y-98044000D03*
X86740500Y-91630500D03*
X87480000Y-108100000D03*
X84241000Y-91589267D03*
D20*
X78611500Y-86029800D03*
D19*
X85090500Y-93218000D03*
X82496260Y-91634429D03*
X72710000Y-97500000D03*
X62410000Y-94355000D03*
X86969449Y-109265523D03*
X81010402Y-91563026D03*
X84432000Y-95100000D03*
X63355000Y-96430000D03*
X74019225Y-108630500D03*
X85525000Y-110190000D03*
X80368000Y-95100000D03*
X62562247Y-110370673D03*
X71490000Y-95649020D03*
X80368000Y-108100000D03*
X81400000Y-95100000D03*
X81384000Y-108100000D03*
X68764462Y-104037192D03*
X68783734Y-101496266D03*
X65005000Y-96430000D03*
X61775000Y-97800000D03*
X68300000Y-108080498D03*
X69282048Y-108680000D03*
D21*
X86930500Y-95857279D02*
X86930500Y-105060000D01*
X85090500Y-94017279D02*
X86930500Y-95857279D01*
X85090500Y-93218000D02*
X85090500Y-94017279D01*
X82496260Y-91634429D02*
X83979194Y-93117363D01*
X84989863Y-93117363D02*
X85090500Y-93218000D01*
X83979194Y-93117363D02*
X84989863Y-93117363D01*
X71880000Y-113910000D02*
X69515000Y-113910000D01*
X69515000Y-113910000D02*
X69200000Y-113595000D01*
X71880000Y-118090000D02*
X80520000Y-118090000D01*
X80520000Y-118090000D02*
X80520000Y-113910000D01*
D22*
X67613587Y-115386413D02*
X68201692Y-115974519D01*
X86350000Y-102400000D02*
X86350000Y-97800000D01*
X68201692Y-115974519D02*
X76438815Y-115974519D01*
X76438815Y-115974519D02*
X80292854Y-112120480D01*
X80292854Y-112120480D02*
X84891619Y-112120480D01*
X84891619Y-112120480D02*
X87550000Y-109462099D01*
X86350000Y-97800000D02*
X84102437Y-95552437D01*
X87550000Y-108947127D02*
X86380989Y-107778116D01*
X87550000Y-109462099D02*
X87550000Y-108947127D01*
X86380989Y-107778116D02*
X86380989Y-102430989D01*
X86380989Y-102430989D02*
X86350000Y-102400000D01*
X83105362Y-94550489D02*
X80917511Y-94550489D01*
X84102437Y-95552437D02*
X84102437Y-95547564D01*
X84102437Y-95547564D02*
X83105362Y-94550489D01*
X80917511Y-94550489D02*
X80368000Y-95100000D01*
X73469714Y-108402884D02*
X73469714Y-109733018D01*
X73469714Y-109733018D02*
X77598522Y-113861826D01*
X77598522Y-113861826D02*
X77598522Y-114320517D01*
X77598522Y-114320517D02*
X76294039Y-115625000D01*
X76294039Y-115625000D02*
X68629300Y-115625000D01*
X75950000Y-114002048D02*
X75950000Y-112707600D01*
X75950000Y-112707600D02*
X71322898Y-108080498D01*
X71322898Y-108080498D02*
X68300000Y-108080498D01*
X75310000Y-114551559D02*
X75310000Y-112561895D01*
X75310000Y-112561895D02*
X71428105Y-108680000D01*
X77049011Y-114092901D02*
X76040853Y-114092901D01*
X76040853Y-114092901D02*
X75950000Y-114002048D01*
X76304000Y-108100000D02*
X76224000Y-108020000D01*
X76224000Y-108020000D02*
X73852598Y-108020000D01*
X73852598Y-108020000D02*
X73469714Y-108402884D01*
X68629300Y-115625000D02*
X66596918Y-113592618D01*
X71428105Y-108680000D02*
X69282048Y-108680000D01*
D23*
X69200000Y-112045000D02*
X67445000Y-110290000D01*
X67445000Y-110290000D02*
X64480000Y-110290000D01*
D21*
X83351041Y-115417159D02*
X88684600Y-110083600D01*
X88598792Y-109997792D02*
X88598792Y-96238792D01*
X88598792Y-96238792D02*
X87480000Y-95120000D01*
X88684600Y-110083600D02*
X88598792Y-109997792D01*
X87480000Y-95120000D02*
X87480000Y-95100000D01*
X82993535Y-115417159D02*
X83351041Y-115417159D01*
D24*
X62936637Y-110914815D02*
X62936637Y-112216637D01*
X71650978Y-109680000D02*
X71611467Y-109640489D01*
D23*
X83195771Y-91344681D02*
X83195771Y-91592156D01*
D24*
X64210963Y-109640489D02*
X62936637Y-110914815D01*
D23*
X90334600Y-110083600D02*
X89123312Y-108872312D01*
D21*
X79975000Y-91340090D02*
X81417455Y-92782545D01*
D23*
X84146467Y-92542852D02*
X84217149Y-92542852D01*
D21*
X79975000Y-90500000D02*
X79975000Y-91340090D01*
D23*
X83195771Y-91592156D02*
X84146467Y-92542852D01*
X79975000Y-90500000D02*
X82351090Y-90500000D01*
X82351090Y-90500000D02*
X83195771Y-91344681D01*
X89123312Y-95727312D02*
X88496000Y-95100000D01*
X89123312Y-108872312D02*
X89123312Y-95727312D01*
D24*
X71611467Y-109640489D02*
X64210963Y-109640489D01*
D21*
X83841480Y-90740000D02*
X86651662Y-90740000D01*
X88251900Y-92329418D02*
X88251900Y-93218000D01*
X67063000Y-97877000D02*
X68200000Y-96740000D01*
X78425000Y-90500000D02*
X79162518Y-90500000D01*
X86651662Y-90740000D02*
X86657072Y-90734590D01*
X65528000Y-102777000D02*
X66029500Y-102777000D01*
X66863000Y-105577000D02*
X65528000Y-105577000D01*
X67052511Y-103027489D02*
X67052511Y-105387489D01*
X79162518Y-90500000D02*
X79737029Y-89925489D01*
X82518363Y-89925489D02*
X82796437Y-90203563D01*
X81820092Y-93357056D02*
X81179484Y-93357056D01*
X67052511Y-105387489D02*
X66863000Y-105577000D01*
X66029500Y-102777000D02*
X66087500Y-102835000D01*
X70045000Y-91332847D02*
X72583153Y-93871000D01*
X68275500Y-91249500D02*
X62992500Y-91249500D01*
X80842944Y-92917944D02*
X78425000Y-90500000D01*
X82896437Y-90303563D02*
X82568354Y-89975480D01*
X68200000Y-96740000D02*
X71935000Y-96740000D01*
D22*
X65528000Y-105577000D02*
X65528000Y-107992000D01*
D21*
X82330753Y-92846395D02*
X81820092Y-93357056D01*
X68165022Y-106500000D02*
X69905000Y-106500000D01*
X79737029Y-89925489D02*
X82518363Y-89925489D01*
X70045000Y-89480000D02*
X70045000Y-86850500D01*
X67052511Y-105387489D02*
X68165022Y-106500000D01*
X81179484Y-93357056D02*
X80842944Y-93020516D01*
D22*
X65528000Y-107992000D02*
X65430000Y-108090000D01*
D21*
X70045000Y-89480000D02*
X68275500Y-91249500D01*
X83836070Y-90734590D02*
X83841480Y-90740000D01*
X66087500Y-102835000D02*
X66860022Y-102835000D01*
X86657072Y-90734590D02*
X88251900Y-92329418D01*
X83327464Y-90734590D02*
X82896437Y-90303563D01*
X65528000Y-102077000D02*
X65528000Y-102777000D01*
X83327464Y-90734590D02*
X83836070Y-90734590D01*
X66860022Y-102835000D02*
X67052511Y-103027489D01*
X65528000Y-97877000D02*
X67063000Y-97877000D01*
X80842944Y-93020516D02*
X80842944Y-92917944D01*
X70045000Y-89480000D02*
X70045000Y-91332847D01*
X70045000Y-86850500D02*
X71564500Y-85331000D01*
D23*
X70715489Y-105800489D02*
X71395000Y-106480000D01*
X67627011Y-103409500D02*
X67627011Y-103889000D01*
X67627011Y-103889000D02*
X69538500Y-105800489D01*
X69538500Y-105800489D02*
X70715489Y-105800489D01*
D21*
X64028000Y-104877000D02*
X62226449Y-103075449D01*
X65528000Y-104877000D02*
X64028000Y-104877000D01*
X60800969Y-97354025D02*
X64238494Y-93916500D01*
X62226449Y-103075449D02*
X62226449Y-99750000D01*
X64238494Y-93916500D02*
X66088500Y-93916500D01*
X60800969Y-98324520D02*
X60800969Y-97354025D01*
X62226449Y-99750000D02*
X60800969Y-98324520D01*
X69811500Y-94445500D02*
X67190000Y-91824000D01*
X72977982Y-94445500D02*
X73814511Y-95282029D01*
X73325489Y-97806029D02*
X73325489Y-99501489D01*
X71435036Y-94445500D02*
X72977982Y-94445500D01*
X73325489Y-99501489D02*
X73900000Y-100076000D01*
X71435036Y-94445500D02*
X69811500Y-94445500D01*
X73814511Y-97317007D02*
X73325489Y-97806029D01*
X73814511Y-95282029D02*
X73814511Y-97317007D01*
X74214031Y-97729969D02*
X73900000Y-98044000D01*
X80329677Y-87782841D02*
X74214031Y-93898487D01*
X82993535Y-87782841D02*
X80329677Y-87782841D01*
X74214031Y-93898487D02*
X74214031Y-97729969D01*
X86740500Y-91630500D02*
X84282233Y-91630500D01*
D22*
X87480000Y-108100000D02*
X87480000Y-95877127D01*
X87480000Y-95877127D02*
X86740500Y-95137627D01*
X86740500Y-94410500D02*
X86818500Y-94332500D01*
X86740500Y-95137627D02*
X86740500Y-94410500D01*
D21*
X84282233Y-91630500D02*
X84241000Y-91589267D01*
D22*
X86740500Y-94410500D02*
X86740500Y-91630500D01*
X86818500Y-94332500D02*
X91240000Y-94332500D01*
D21*
X79790030Y-87208330D02*
X84308330Y-87208330D01*
X78611500Y-86029800D02*
X79790030Y-87208330D01*
X90432500Y-93332500D02*
X91240000Y-93332500D01*
X84308330Y-87208330D02*
X90432500Y-93332500D01*
X71533462Y-94880000D02*
X67940000Y-94880000D01*
X72710000Y-96056538D02*
X71533462Y-94880000D01*
X63505000Y-93260000D02*
X62410000Y-94355000D01*
X66320000Y-93260000D02*
X63505000Y-93260000D01*
X67940000Y-94880000D02*
X66320000Y-93260000D01*
X72710000Y-97500000D02*
X72710000Y-96056538D01*
D22*
X69265590Y-99277000D02*
X77039072Y-107050480D01*
X84754406Y-107050480D02*
X86969449Y-109265523D01*
X77039072Y-107050480D02*
X84754406Y-107050480D01*
X65528000Y-99277000D02*
X69265590Y-99277000D01*
D21*
X84432000Y-94135175D02*
X84432000Y-95100000D01*
X82518412Y-92221587D02*
X84432000Y-94135175D01*
X81010402Y-91563026D02*
X81612375Y-91563026D01*
X82270936Y-92221587D02*
X82518412Y-92221587D01*
X81612375Y-91563026D02*
X82270936Y-92221587D01*
X61200489Y-98154520D02*
X61200489Y-97519511D01*
X62625970Y-102774970D02*
X62625969Y-99580000D01*
X62290000Y-96430000D02*
X63355000Y-96430000D01*
X65528000Y-104177000D02*
X64028000Y-104177000D01*
X64028000Y-104177000D02*
X62625970Y-102774970D01*
X61200489Y-97519511D02*
X62290000Y-96430000D01*
X62625969Y-99580000D02*
X61200489Y-98154520D01*
D22*
X74019225Y-109316339D02*
X74019225Y-108630500D01*
X84746843Y-111770960D02*
X76473846Y-111770960D01*
X85525000Y-110992803D02*
X84746843Y-111770960D01*
X76473846Y-111770960D02*
X74019225Y-109316339D01*
X85525000Y-110190000D02*
X85525000Y-110992803D01*
X67695732Y-115468559D02*
X65634580Y-113407407D01*
X62487117Y-110445803D02*
X62562247Y-110370673D01*
X62487117Y-111600000D02*
X62487117Y-110445803D01*
X62387126Y-111699991D02*
X62487117Y-111600000D01*
X63350280Y-113407407D02*
X62387126Y-112444253D01*
X65634580Y-113407407D02*
X63350280Y-113407407D01*
X62387126Y-112444253D02*
X62387126Y-111699991D01*
X71239020Y-95900000D02*
X71490000Y-95649020D01*
X68180000Y-95900000D02*
X71239020Y-95900000D01*
X64028489Y-97452489D02*
X66627511Y-97452489D01*
X66627511Y-97452489D02*
X68180000Y-95900000D01*
X64078000Y-101377000D02*
X64028489Y-101327489D01*
X65528000Y-101377000D02*
X64078000Y-101377000D01*
X64028489Y-101327489D02*
X64028489Y-97452489D01*
X69677000Y-100677000D02*
X65528000Y-100677000D01*
X77100000Y-108100000D02*
X69677000Y-100677000D01*
X80368000Y-108100000D02*
X77100000Y-108100000D01*
X75874489Y-100625511D02*
X81400000Y-95100000D01*
X71623873Y-98577000D02*
X73672384Y-100625511D01*
X65528000Y-98577000D02*
X71623873Y-98577000D01*
X73672384Y-100625511D02*
X75874489Y-100625511D01*
X80684000Y-107400000D02*
X81384000Y-108100000D01*
X65528000Y-99977000D02*
X69471295Y-99977000D01*
X69471295Y-99977000D02*
X76894296Y-107400000D01*
X76894296Y-107400000D02*
X80684000Y-107400000D01*
D23*
X68783734Y-104017920D02*
X68764462Y-104037192D01*
X68783734Y-101496266D02*
X68783734Y-104017920D01*
X64344259Y-96430000D02*
X62974259Y-97800000D01*
X61775000Y-97800000D02*
X61775000Y-97987247D01*
X62974259Y-97800000D02*
X61775000Y-97800000D01*
X63478969Y-99691216D02*
X63478969Y-102878969D01*
X65005000Y-96430000D02*
X64344259Y-96430000D01*
X61775000Y-97987247D02*
X63478969Y-99691216D01*
X64077000Y-103477000D02*
X65528000Y-103477000D01*
X63478969Y-102878969D02*
X64077000Y-103477000D01*
G04 #@! TA.AperFunction,Conductor*
G36*
X87939012Y-95969082D02*
G01*
X87945595Y-95975211D01*
X88286387Y-96316003D01*
X88320413Y-96378315D01*
X88323292Y-96405098D01*
X88323292Y-109769287D01*
X88304043Y-109833650D01*
X88304196Y-109833722D01*
X88300382Y-109841845D01*
X88300381Y-109841847D01*
X88297949Y-109847028D01*
X88249354Y-109950532D01*
X88247974Y-109959398D01*
X88230882Y-110069167D01*
X88230882Y-110069171D01*
X88229501Y-110078040D01*
X88230665Y-110086944D01*
X88230556Y-110095916D01*
X88227070Y-110095873D01*
X88218678Y-110149443D01*
X88193828Y-110184756D01*
X83371892Y-115006692D01*
X83309580Y-115040718D01*
X83238765Y-115035653D01*
X83214267Y-115023331D01*
X83191972Y-115008881D01*
X83191971Y-115008880D01*
X83184441Y-115004000D01*
X83175846Y-115001430D01*
X83175845Y-115001429D01*
X83069409Y-114969597D01*
X83069407Y-114969597D01*
X83060808Y-114967025D01*
X83051833Y-114966970D01*
X83051832Y-114966970D01*
X82997176Y-114966636D01*
X82931766Y-114966237D01*
X82920010Y-114969597D01*
X82816321Y-114999231D01*
X82816319Y-114999232D01*
X82807690Y-115001698D01*
X82800100Y-115006487D01*
X82714695Y-115060374D01*
X82698554Y-115070558D01*
X82692611Y-115077287D01*
X82692610Y-115077288D01*
X82678588Y-115093165D01*
X82613131Y-115167281D01*
X82609317Y-115175404D01*
X82609316Y-115175406D01*
X82596013Y-115203741D01*
X82558289Y-115284091D01*
X82549958Y-115337595D01*
X82539817Y-115402726D01*
X82539817Y-115402730D01*
X82538436Y-115411599D01*
X82539600Y-115420501D01*
X82539600Y-115420504D01*
X82554003Y-115530648D01*
X82554004Y-115530652D01*
X82555168Y-115539553D01*
X82565306Y-115562593D01*
X82602442Y-115646991D01*
X82607140Y-115657669D01*
X82612917Y-115664542D01*
X82612918Y-115664543D01*
X82684394Y-115749574D01*
X82690174Y-115756450D01*
X82797595Y-115827955D01*
X82920768Y-115866437D01*
X82929738Y-115866601D01*
X82929742Y-115866602D01*
X82988477Y-115867678D01*
X83049790Y-115868802D01*
X83112040Y-115851830D01*
X83165627Y-115837221D01*
X83165628Y-115837221D01*
X83174290Y-115834859D01*
X83181940Y-115830162D01*
X83181942Y-115830161D01*
X83276607Y-115772037D01*
X83276610Y-115772034D01*
X83284259Y-115767338D01*
X83318114Y-115729936D01*
X83378655Y-115692856D01*
X83386942Y-115690915D01*
X83409104Y-115686507D01*
X83446366Y-115679095D01*
X83446367Y-115679095D01*
X83458536Y-115676674D01*
X83502959Y-115646991D01*
X83502959Y-115646992D01*
X83502962Y-115646989D01*
X83526663Y-115631153D01*
X83529230Y-115634994D01*
X83529231Y-115634993D01*
X83526664Y-115631152D01*
X83539352Y-115622674D01*
X83549665Y-115615783D01*
X83558143Y-115603095D01*
X83573813Y-115584003D01*
X88586837Y-110570979D01*
X88649149Y-110536953D01*
X88678239Y-110534095D01*
X88740855Y-110535243D01*
X88845354Y-110506753D01*
X88856692Y-110503662D01*
X88856693Y-110503662D01*
X88865355Y-110501300D01*
X88873005Y-110496603D01*
X88873007Y-110496602D01*
X88967672Y-110438478D01*
X88967675Y-110438475D01*
X88975324Y-110433779D01*
X88981350Y-110427122D01*
X89055900Y-110344761D01*
X89055903Y-110344757D01*
X89061922Y-110338107D01*
X89118188Y-110221975D01*
X89120744Y-110206786D01*
X89138790Y-110099517D01*
X89139597Y-110094720D01*
X89139733Y-110083600D01*
X89132172Y-110030802D01*
X89122712Y-109964745D01*
X89122711Y-109964742D01*
X89121439Y-109955859D01*
X89117725Y-109947690D01*
X89071745Y-109846562D01*
X89071743Y-109846559D01*
X89068028Y-109838388D01*
X89014996Y-109776841D01*
X88989651Y-109747426D01*
X88989649Y-109747424D01*
X88983793Y-109740628D01*
X88976262Y-109735747D01*
X88976259Y-109735744D01*
X88931760Y-109706901D01*
X88885476Y-109653066D01*
X88874292Y-109601169D01*
X88874292Y-109493875D01*
X88894294Y-109425754D01*
X88947950Y-109379261D01*
X89018224Y-109369157D01*
X89082804Y-109398651D01*
X89089387Y-109404780D01*
X89883943Y-110199336D01*
X89910177Y-110237685D01*
X89943050Y-110312394D01*
X89948205Y-110324110D01*
X89953982Y-110330983D01*
X89953983Y-110330984D01*
X90022415Y-110412394D01*
X90031239Y-110422891D01*
X90038716Y-110427868D01*
X90131137Y-110489388D01*
X90138660Y-110494396D01*
X90219506Y-110519654D01*
X90250352Y-110529291D01*
X90261833Y-110532878D01*
X90270803Y-110533042D01*
X90270807Y-110533043D01*
X90328226Y-110534095D01*
X90390855Y-110535243D01*
X90495354Y-110506753D01*
X90506692Y-110503662D01*
X90506693Y-110503662D01*
X90515355Y-110501300D01*
X90523005Y-110496603D01*
X90523007Y-110496602D01*
X90617672Y-110438478D01*
X90617675Y-110438475D01*
X90625324Y-110433779D01*
X90631350Y-110427122D01*
X90705900Y-110344761D01*
X90705903Y-110344757D01*
X90711922Y-110338107D01*
X90768188Y-110221975D01*
X90770744Y-110206786D01*
X90788790Y-110099517D01*
X90789597Y-110094720D01*
X90789733Y-110083600D01*
X90782172Y-110030802D01*
X90772712Y-109964745D01*
X90772711Y-109964742D01*
X90771439Y-109955859D01*
X90767725Y-109947690D01*
X90721745Y-109846562D01*
X90721743Y-109846559D01*
X90718028Y-109838388D01*
X90664996Y-109776841D01*
X90639651Y-109747426D01*
X90639649Y-109747424D01*
X90633793Y-109740628D01*
X90525506Y-109670441D01*
X90502247Y-109663485D01*
X90449256Y-109631863D01*
X89560717Y-108743324D01*
X89526691Y-108681012D01*
X89523812Y-108654229D01*
X89523812Y-107223247D01*
X89543814Y-107155126D01*
X89597470Y-107108633D01*
X89649142Y-107097249D01*
X93061873Y-107079119D01*
X93130099Y-107098759D01*
X93176876Y-107152167D01*
X93187353Y-107222386D01*
X93182784Y-107242772D01*
X93150948Y-107344432D01*
X93149053Y-107350019D01*
X92863498Y-108131536D01*
X92861345Y-108137029D01*
X92539492Y-108904393D01*
X92537083Y-108909778D01*
X92179685Y-109661191D01*
X92177027Y-109666458D01*
X91784835Y-110400345D01*
X91781933Y-110405481D01*
X91355841Y-111120169D01*
X91352703Y-111125164D01*
X90893596Y-111819168D01*
X90890226Y-111824011D01*
X90400223Y-112494281D01*
X90399164Y-112495729D01*
X90395577Y-112500403D01*
X90260350Y-112668280D01*
X89873588Y-113148426D01*
X89869781Y-113152932D01*
X89318041Y-113775802D01*
X89314027Y-113780125D01*
X89223915Y-113872733D01*
X88747807Y-114362026D01*
X88733745Y-114376477D01*
X88729535Y-114380606D01*
X88653024Y-114452203D01*
X88270573Y-114810090D01*
X88207167Y-114842030D01*
X88136558Y-114834620D01*
X88081164Y-114790212D01*
X88060119Y-114735125D01*
X88060295Y-114729017D01*
X88024207Y-114598446D01*
X88021045Y-114592621D01*
X88006131Y-114569655D01*
X87991781Y-114531120D01*
X87990111Y-114531599D01*
X87987637Y-114522972D01*
X87986411Y-114514078D01*
X87982739Y-114505888D01*
X87982738Y-114505885D01*
X87945136Y-114422023D01*
X87943144Y-114417580D01*
X87940069Y-114412844D01*
X87616667Y-113914851D01*
X87577181Y-113854048D01*
X87509546Y-113776653D01*
X87501978Y-113771822D01*
X87501974Y-113771819D01*
X87500840Y-113771095D01*
X87496688Y-113767272D01*
X87495173Y-113765969D01*
X87495217Y-113765918D01*
X87468368Y-113741197D01*
X87466710Y-113739018D01*
X87464145Y-113735069D01*
X87396998Y-113659306D01*
X87322810Y-113614110D01*
X87289352Y-113593727D01*
X87289350Y-113593726D01*
X87281308Y-113588827D01*
X87272182Y-113586509D01*
X87272179Y-113586508D01*
X87159138Y-113557799D01*
X87159135Y-113557799D01*
X87150009Y-113555481D01*
X87140604Y-113555949D01*
X87140601Y-113555949D01*
X87068273Y-113559550D01*
X87014709Y-113562217D01*
X86887372Y-113608438D01*
X86779254Y-113690059D01*
X86773735Y-113697697D01*
X86773734Y-113697698D01*
X86731777Y-113755766D01*
X86699915Y-113799862D01*
X86683013Y-113849655D01*
X86666294Y-113898911D01*
X86656372Y-113928140D01*
X86654447Y-113994957D01*
X86653281Y-114035450D01*
X86652471Y-114063551D01*
X86654979Y-114072624D01*
X86654979Y-114072627D01*
X86686643Y-114187194D01*
X86688558Y-114194122D01*
X86691721Y-114199947D01*
X86693066Y-114202018D01*
X86706635Y-114222913D01*
X86720985Y-114261448D01*
X86722655Y-114260969D01*
X86725129Y-114269596D01*
X86726355Y-114278490D01*
X86730027Y-114286680D01*
X86730028Y-114286683D01*
X86733911Y-114295343D01*
X86769622Y-114374988D01*
X86772273Y-114379070D01*
X86772274Y-114379072D01*
X86896949Y-114571054D01*
X87135585Y-114938520D01*
X87138533Y-114941894D01*
X87138535Y-114941896D01*
X87149631Y-114954593D01*
X87203220Y-115015915D01*
X87210788Y-115020746D01*
X87210792Y-115020749D01*
X87211926Y-115021473D01*
X87216078Y-115025296D01*
X87217593Y-115026599D01*
X87217549Y-115026650D01*
X87244398Y-115051371D01*
X87246056Y-115053550D01*
X87248621Y-115057499D01*
X87315768Y-115133262D01*
X87360566Y-115160553D01*
X87423414Y-115198841D01*
X87423416Y-115198842D01*
X87431458Y-115203741D01*
X87440586Y-115206059D01*
X87440588Y-115206060D01*
X87496949Y-115220374D01*
X87558050Y-115256529D01*
X87589904Y-115319978D01*
X87582399Y-115390577D01*
X87547624Y-115438427D01*
X87484051Y-115492564D01*
X87479476Y-115496279D01*
X87391470Y-115564381D01*
X86821394Y-116005524D01*
X86816646Y-116009024D01*
X86135447Y-116486909D01*
X86130560Y-116490169D01*
X85427756Y-116935634D01*
X85422701Y-116938675D01*
X84699785Y-117350772D01*
X84694592Y-117353572D01*
X83979948Y-117717738D01*
X83910172Y-117730846D01*
X83844386Y-117704148D01*
X83803478Y-117646122D01*
X83796793Y-117601848D01*
X83799849Y-117495784D01*
X83763761Y-117365213D01*
X83760599Y-117359388D01*
X83745685Y-117336422D01*
X83731335Y-117297887D01*
X83729665Y-117298366D01*
X83727191Y-117289739D01*
X83725965Y-117280845D01*
X83722293Y-117272655D01*
X83722292Y-117272652D01*
X83684690Y-117188790D01*
X83682698Y-117184347D01*
X83659077Y-117147973D01*
X83359060Y-116685989D01*
X83316735Y-116620815D01*
X83249100Y-116543420D01*
X83241532Y-116538589D01*
X83241528Y-116538586D01*
X83240394Y-116537862D01*
X83236242Y-116534039D01*
X83234727Y-116532736D01*
X83234771Y-116532685D01*
X83207922Y-116507964D01*
X83206264Y-116505785D01*
X83203699Y-116501836D01*
X83136552Y-116426073D01*
X83062364Y-116380877D01*
X83028906Y-116360494D01*
X83028904Y-116360493D01*
X83020862Y-116355594D01*
X83011736Y-116353276D01*
X83011733Y-116353275D01*
X82898692Y-116324566D01*
X82898689Y-116324566D01*
X82889563Y-116322248D01*
X82880158Y-116322716D01*
X82880155Y-116322716D01*
X82807827Y-116326317D01*
X82754263Y-116328984D01*
X82626926Y-116375205D01*
X82518808Y-116456826D01*
X82513289Y-116464464D01*
X82513288Y-116464465D01*
X82484080Y-116504888D01*
X82439469Y-116566629D01*
X82395926Y-116694907D01*
X82392025Y-116830318D01*
X82394533Y-116839391D01*
X82394533Y-116839394D01*
X82424372Y-116947356D01*
X82428112Y-116960889D01*
X82431275Y-116966714D01*
X82432620Y-116968785D01*
X82446189Y-116989680D01*
X82460539Y-117028215D01*
X82462209Y-117027736D01*
X82464683Y-117036363D01*
X82465909Y-117045257D01*
X82469581Y-117053447D01*
X82469582Y-117053450D01*
X82481965Y-117081067D01*
X82509176Y-117141755D01*
X82511827Y-117145837D01*
X82511828Y-117145839D01*
X82674842Y-117396858D01*
X82875139Y-117705287D01*
X82878087Y-117708661D01*
X82878089Y-117708663D01*
X82886020Y-117717738D01*
X82942774Y-117782682D01*
X82950342Y-117787513D01*
X82950346Y-117787516D01*
X82951480Y-117788240D01*
X82955632Y-117792063D01*
X82957147Y-117793366D01*
X82957103Y-117793417D01*
X82983952Y-117818138D01*
X82985610Y-117820317D01*
X82988175Y-117824266D01*
X83055322Y-117900029D01*
X83068085Y-117907805D01*
X83115854Y-117960325D01*
X83127645Y-118030336D01*
X83099713Y-118095607D01*
X83048991Y-118132531D01*
X82865543Y-118205299D01*
X82501092Y-118349865D01*
X82410749Y-118385701D01*
X82405218Y-118387746D01*
X81688073Y-118634031D01*
X81617150Y-118637240D01*
X81555751Y-118601594D01*
X81523369Y-118538412D01*
X81521934Y-118500818D01*
X81527607Y-118450239D01*
X81528000Y-118443215D01*
X81528000Y-118362115D01*
X81523525Y-118346876D01*
X81522135Y-118345671D01*
X81514452Y-118344000D01*
X79530115Y-118344000D01*
X79514876Y-118348475D01*
X79513671Y-118349865D01*
X79512000Y-118357548D01*
X79512000Y-118436657D01*
X79512301Y-118442805D01*
X79525812Y-118580603D01*
X79528195Y-118592638D01*
X79581767Y-118770076D01*
X79586441Y-118781416D01*
X79673460Y-118945077D01*
X79680248Y-118955293D01*
X79685273Y-118961455D01*
X79712825Y-119026888D01*
X79700628Y-119096829D01*
X79652555Y-119149073D01*
X79611467Y-119164813D01*
X79356081Y-119214017D01*
X79176521Y-119248611D01*
X79170704Y-119249591D01*
X78347171Y-119368590D01*
X78341314Y-119369297D01*
X77513083Y-119449621D01*
X77507199Y-119450052D01*
X76676157Y-119491518D01*
X76670265Y-119491674D01*
X76196195Y-119493110D01*
X75838177Y-119494195D01*
X75832279Y-119494075D01*
X75000982Y-119457645D01*
X74995096Y-119457249D01*
X74507267Y-119412921D01*
X74166414Y-119381948D01*
X74160569Y-119381279D01*
X73336292Y-119267267D01*
X73330491Y-119266326D01*
X73035590Y-119211361D01*
X72790186Y-119165621D01*
X72726884Y-119133476D01*
X72691009Y-119072209D01*
X72693953Y-119001274D01*
X72709306Y-118970573D01*
X72718706Y-118956844D01*
X72808002Y-118794415D01*
X72812834Y-118783142D01*
X72868880Y-118606462D01*
X72871430Y-118594468D01*
X72887607Y-118450239D01*
X72888000Y-118443215D01*
X72888000Y-118362115D01*
X72883525Y-118346876D01*
X72882135Y-118345671D01*
X72874452Y-118344000D01*
X70890115Y-118344000D01*
X70874876Y-118348475D01*
X70873671Y-118349865D01*
X70872000Y-118357548D01*
X70872000Y-118436657D01*
X70872301Y-118442806D01*
X70877970Y-118500629D01*
X70864710Y-118570376D01*
X70815847Y-118621883D01*
X70746895Y-118638796D01*
X70712369Y-118632338D01*
X70096641Y-118425045D01*
X70091095Y-118423033D01*
X69348179Y-118133540D01*
X69291969Y-118090169D01*
X69268130Y-118023295D01*
X69284231Y-117954148D01*
X69313867Y-117918843D01*
X69385460Y-117859932D01*
X69391009Y-117855366D01*
X69395043Y-117850108D01*
X69409958Y-117827141D01*
X69419402Y-117817885D01*
X70872000Y-117817885D01*
X70876475Y-117833124D01*
X70877865Y-117834329D01*
X70885548Y-117836000D01*
X71607885Y-117836000D01*
X71623124Y-117831525D01*
X71624329Y-117830135D01*
X71626000Y-117822452D01*
X71626000Y-117817885D01*
X72134000Y-117817885D01*
X72138475Y-117833124D01*
X72139865Y-117834329D01*
X72147548Y-117836000D01*
X72869885Y-117836000D01*
X72885124Y-117831525D01*
X72886329Y-117830135D01*
X72888000Y-117822452D01*
X72888000Y-117817885D01*
X79512000Y-117817885D01*
X79516475Y-117833124D01*
X79517865Y-117834329D01*
X79525548Y-117836000D01*
X80247885Y-117836000D01*
X80263124Y-117831525D01*
X80264329Y-117830135D01*
X80266000Y-117822452D01*
X80266000Y-117817885D01*
X80774000Y-117817885D01*
X80778475Y-117833124D01*
X80779865Y-117834329D01*
X80787548Y-117836000D01*
X81509885Y-117836000D01*
X81525124Y-117831525D01*
X81526329Y-117830135D01*
X81528000Y-117822452D01*
X81528000Y-117743343D01*
X81527699Y-117737195D01*
X81514188Y-117599397D01*
X81511805Y-117587362D01*
X81458233Y-117409924D01*
X81453559Y-117398584D01*
X81366540Y-117234923D01*
X81359751Y-117224706D01*
X81242603Y-117081067D01*
X81233959Y-117072363D01*
X81091144Y-116954216D01*
X81080973Y-116947356D01*
X80917924Y-116859196D01*
X80906619Y-116854444D01*
X80791308Y-116818750D01*
X80777205Y-116818544D01*
X80774000Y-116825299D01*
X80774000Y-117817885D01*
X80266000Y-117817885D01*
X80266000Y-116832076D01*
X80262027Y-116818545D01*
X80254232Y-116817425D01*
X80146479Y-116849138D01*
X80135111Y-116853731D01*
X79970846Y-116939607D01*
X79960585Y-116946321D01*
X79816128Y-117062467D01*
X79807368Y-117071046D01*
X79688222Y-117213039D01*
X79681292Y-117223159D01*
X79591998Y-117385585D01*
X79587166Y-117396858D01*
X79531120Y-117573538D01*
X79528570Y-117585532D01*
X79512393Y-117729761D01*
X79512000Y-117736785D01*
X79512000Y-117817885D01*
X72888000Y-117817885D01*
X72888000Y-117743343D01*
X72887699Y-117737195D01*
X72874188Y-117599397D01*
X72871805Y-117587362D01*
X72818233Y-117409924D01*
X72813559Y-117398584D01*
X72726540Y-117234923D01*
X72719751Y-117224706D01*
X72602603Y-117081067D01*
X72593959Y-117072363D01*
X72451144Y-116954216D01*
X72440973Y-116947356D01*
X72277924Y-116859196D01*
X72266619Y-116854444D01*
X72151308Y-116818750D01*
X72137205Y-116818544D01*
X72134000Y-116825299D01*
X72134000Y-117817885D01*
X71626000Y-117817885D01*
X71626000Y-116832076D01*
X71622027Y-116818545D01*
X71614232Y-116817425D01*
X71506479Y-116849138D01*
X71495111Y-116853731D01*
X71330846Y-116939607D01*
X71320585Y-116946321D01*
X71176128Y-117062467D01*
X71167368Y-117071046D01*
X71048222Y-117213039D01*
X71041292Y-117223159D01*
X70951998Y-117385585D01*
X70947166Y-117396858D01*
X70891120Y-117573538D01*
X70888570Y-117585532D01*
X70872393Y-117729761D01*
X70872000Y-117736785D01*
X70872000Y-117817885D01*
X69419402Y-117817885D01*
X69439323Y-117798361D01*
X69438206Y-117797029D01*
X69445085Y-117791257D01*
X69452707Y-117786522D01*
X69459116Y-117779367D01*
X69520020Y-117711368D01*
X69520021Y-117711367D01*
X69523264Y-117707746D01*
X69711990Y-117417134D01*
X69886786Y-117147973D01*
X69886787Y-117147972D01*
X69889227Y-117144214D01*
X69927086Y-117062467D01*
X69928649Y-117059093D01*
X69928650Y-117059089D01*
X69932421Y-117050947D01*
X69933957Y-117040730D01*
X69935771Y-117035352D01*
X69936335Y-117033472D01*
X69936399Y-117033491D01*
X69948065Y-116998903D01*
X69949383Y-116996498D01*
X69951943Y-116992556D01*
X69993845Y-116900397D01*
X70004403Y-116818544D01*
X70009971Y-116775382D01*
X70009971Y-116775379D01*
X70011175Y-116766044D01*
X69988234Y-116632533D01*
X69981058Y-116618356D01*
X69931304Y-116520075D01*
X69927049Y-116511670D01*
X69856481Y-116438466D01*
X69823603Y-116375542D01*
X69829965Y-116304831D01*
X69873546Y-116248784D01*
X69947194Y-116225019D01*
X76401730Y-116225019D01*
X76426311Y-116227440D01*
X76426643Y-116227506D01*
X76426644Y-116227506D01*
X76438815Y-116229927D01*
X76450986Y-116227506D01*
X76524385Y-116212906D01*
X76536556Y-116210485D01*
X76566351Y-116190576D01*
X76619416Y-116155120D01*
X76626308Y-116144805D01*
X76626310Y-116144803D01*
X76626503Y-116144514D01*
X76642173Y-116125421D01*
X78298788Y-114468806D01*
X78361100Y-114434780D01*
X78431915Y-114439845D01*
X78488751Y-114482392D01*
X78512805Y-114541454D01*
X78519571Y-114592846D01*
X78578567Y-114735276D01*
X78672417Y-114857583D01*
X78794724Y-114951433D01*
X78937154Y-115010429D01*
X79051627Y-115025500D01*
X79128373Y-115025500D01*
X79242846Y-115010429D01*
X79385276Y-114951433D01*
X79402105Y-114938520D01*
X79425517Y-114920555D01*
X79447839Y-114903427D01*
X79514058Y-114877826D01*
X79583607Y-114892090D01*
X79635794Y-114944237D01*
X79673457Y-115015073D01*
X79680249Y-115025294D01*
X79797397Y-115168933D01*
X79806041Y-115177637D01*
X79948856Y-115295784D01*
X79959027Y-115302644D01*
X80122076Y-115390804D01*
X80133381Y-115395556D01*
X80248692Y-115431250D01*
X80262795Y-115431456D01*
X80266000Y-115424701D01*
X80266000Y-115417924D01*
X80774000Y-115417924D01*
X80777973Y-115431455D01*
X80785768Y-115432575D01*
X80893521Y-115400862D01*
X80904889Y-115396269D01*
X81069154Y-115310393D01*
X81079415Y-115303679D01*
X81223873Y-115187532D01*
X81232632Y-115178954D01*
X81351778Y-115036961D01*
X81358708Y-115026841D01*
X81448002Y-114864415D01*
X81452834Y-114853142D01*
X81508880Y-114676462D01*
X81511430Y-114664468D01*
X81527607Y-114520239D01*
X81528000Y-114513215D01*
X81528000Y-114182115D01*
X81523525Y-114166876D01*
X81522135Y-114165671D01*
X81514452Y-114164000D01*
X80792115Y-114164000D01*
X80776876Y-114168475D01*
X80775671Y-114169865D01*
X80774000Y-114177548D01*
X80774000Y-115417924D01*
X80266000Y-115417924D01*
X80266000Y-113782000D01*
X80286002Y-113713879D01*
X80339658Y-113667386D01*
X80392000Y-113656000D01*
X81509885Y-113656000D01*
X81525124Y-113651525D01*
X81526329Y-113650135D01*
X81528000Y-113642452D01*
X81528000Y-113313343D01*
X81527699Y-113307195D01*
X81514188Y-113169397D01*
X81511805Y-113157362D01*
X81458233Y-112979924D01*
X81453559Y-112968584D01*
X81366540Y-112804923D01*
X81359751Y-112794706D01*
X81242603Y-112651067D01*
X81233959Y-112642363D01*
X81175576Y-112594065D01*
X81135838Y-112535231D01*
X81134215Y-112464253D01*
X81171224Y-112403666D01*
X81235114Y-112372705D01*
X81255891Y-112370980D01*
X84854534Y-112370980D01*
X84879115Y-112373401D01*
X84879447Y-112373467D01*
X84879448Y-112373467D01*
X84891619Y-112375888D01*
X84903790Y-112373467D01*
X84977189Y-112358867D01*
X84989360Y-112356446D01*
X85019155Y-112336537D01*
X85072220Y-112301081D01*
X85079112Y-112290766D01*
X85079114Y-112290764D01*
X85079307Y-112290475D01*
X85094977Y-112271382D01*
X87700902Y-109665457D01*
X87719995Y-109649787D01*
X87720284Y-109649594D01*
X87720286Y-109649592D01*
X87730601Y-109642700D01*
X87758351Y-109601169D01*
X87779072Y-109570157D01*
X87779072Y-109570156D01*
X87785966Y-109559839D01*
X87800500Y-109486773D01*
X87800500Y-109486772D01*
X87805408Y-109462099D01*
X87802921Y-109449596D01*
X87800500Y-109425014D01*
X87800500Y-108984212D01*
X87802921Y-108959631D01*
X87802987Y-108959299D01*
X87802987Y-108959298D01*
X87805408Y-108947127D01*
X87785966Y-108849386D01*
X87779074Y-108839071D01*
X87779073Y-108839069D01*
X87758900Y-108808879D01*
X87737494Y-108776842D01*
X87730601Y-108766526D01*
X87720286Y-108759634D01*
X87720284Y-108759632D01*
X87719995Y-108759439D01*
X87700902Y-108743769D01*
X87658477Y-108701344D01*
X87624451Y-108639032D01*
X87629516Y-108568217D01*
X87672063Y-108511381D01*
X87681644Y-108504874D01*
X87763072Y-108454878D01*
X87763075Y-108454875D01*
X87770724Y-108450179D01*
X87779966Y-108439969D01*
X87851300Y-108361161D01*
X87851303Y-108361157D01*
X87857322Y-108354507D01*
X87913588Y-108238375D01*
X87916296Y-108222283D01*
X87934190Y-108115917D01*
X87934997Y-108111120D01*
X87935133Y-108100000D01*
X87916839Y-107972259D01*
X87901423Y-107938353D01*
X87867145Y-107862962D01*
X87867143Y-107862959D01*
X87863428Y-107854788D01*
X87779193Y-107757028D01*
X87773181Y-107753131D01*
X87735486Y-107694044D01*
X87730500Y-107658950D01*
X87730500Y-96064306D01*
X87750502Y-95996185D01*
X87804158Y-95949692D01*
X87874432Y-95939588D01*
X87939012Y-95969082D01*
G37*
G04 #@! TD.AperFunction*
G04 #@! TA.AperFunction,Conductor*
G36*
X72232905Y-109842314D02*
G01*
X72251482Y-109857638D01*
X75022595Y-112628751D01*
X75056621Y-112691063D01*
X75059500Y-112717846D01*
X75059500Y-114110553D01*
X75039498Y-114178674D01*
X75018361Y-114202850D01*
X75015019Y-114204958D01*
X74929596Y-114301681D01*
X74925782Y-114309804D01*
X74925781Y-114309806D01*
X74905865Y-114352227D01*
X74874754Y-114418491D01*
X74869178Y-114454305D01*
X74856282Y-114537126D01*
X74856282Y-114537130D01*
X74854901Y-114545999D01*
X74856065Y-114554901D01*
X74856065Y-114554904D01*
X74870468Y-114665048D01*
X74870469Y-114665052D01*
X74871633Y-114673953D01*
X74923605Y-114792069D01*
X74929382Y-114798942D01*
X74929383Y-114798943D01*
X74973169Y-114851033D01*
X75006639Y-114890850D01*
X75014116Y-114895827D01*
X75090099Y-114946405D01*
X75114060Y-114962355D01*
X75237233Y-115000837D01*
X75246203Y-115001001D01*
X75246207Y-115001002D01*
X75304942Y-115002078D01*
X75366255Y-115003202D01*
X75428505Y-114986231D01*
X75482092Y-114971621D01*
X75482093Y-114971621D01*
X75490755Y-114969259D01*
X75498405Y-114964562D01*
X75498407Y-114964561D01*
X75593072Y-114906437D01*
X75593075Y-114906434D01*
X75600724Y-114901738D01*
X75606750Y-114895081D01*
X75681300Y-114812720D01*
X75681303Y-114812716D01*
X75687322Y-114806066D01*
X75743588Y-114689934D01*
X75745077Y-114681085D01*
X75764190Y-114567478D01*
X75764190Y-114567473D01*
X75764997Y-114562679D01*
X75765680Y-114562794D01*
X75790305Y-114500254D01*
X75847902Y-114458744D01*
X75892097Y-114451598D01*
X76006255Y-114453691D01*
X76075619Y-114434780D01*
X76122092Y-114422110D01*
X76122093Y-114422110D01*
X76130755Y-114419748D01*
X76138405Y-114415051D01*
X76138407Y-114415050D01*
X76224765Y-114362026D01*
X76290693Y-114343401D01*
X76612325Y-114343401D01*
X76680446Y-114363403D01*
X76708776Y-114388326D01*
X76739872Y-114425319D01*
X76739874Y-114425321D01*
X76745650Y-114432192D01*
X76849921Y-114501600D01*
X76895542Y-114555995D01*
X76904514Y-114626423D01*
X76869197Y-114695581D01*
X76227184Y-115337595D01*
X76164871Y-115371620D01*
X76138088Y-115374500D01*
X72698758Y-115374500D01*
X72630637Y-115354498D01*
X72584144Y-115300842D01*
X72574040Y-115230568D01*
X72602236Y-115167509D01*
X72711778Y-115036961D01*
X72718705Y-115026844D01*
X72764993Y-114942648D01*
X72815339Y-114892590D01*
X72884756Y-114877697D01*
X72952111Y-114903388D01*
X72997896Y-114938520D01*
X73014724Y-114951433D01*
X73157154Y-115010429D01*
X73271627Y-115025500D01*
X73348373Y-115025500D01*
X73462846Y-115010429D01*
X73605276Y-114951433D01*
X73727583Y-114857583D01*
X73821433Y-114735276D01*
X73880429Y-114592846D01*
X73900552Y-114440000D01*
X73880429Y-114287154D01*
X73821433Y-114144724D01*
X73727583Y-114022417D01*
X73605276Y-113928567D01*
X73462846Y-113869571D01*
X73348373Y-113854500D01*
X73271627Y-113854500D01*
X73157154Y-113869571D01*
X73149521Y-113872733D01*
X73149520Y-113872733D01*
X73062217Y-113908894D01*
X72991627Y-113916483D01*
X72928141Y-113884703D01*
X72891914Y-113823645D01*
X72888000Y-113792485D01*
X72888000Y-113313343D01*
X72887699Y-113307195D01*
X72874188Y-113169397D01*
X72871805Y-113157362D01*
X72818233Y-112979924D01*
X72813559Y-112968584D01*
X72726540Y-112804923D01*
X72719751Y-112794706D01*
X72602603Y-112651067D01*
X72593959Y-112642363D01*
X72451144Y-112524216D01*
X72440973Y-112517356D01*
X72277924Y-112429196D01*
X72266619Y-112424444D01*
X72151308Y-112388750D01*
X72137205Y-112388544D01*
X72134000Y-112395299D01*
X72134000Y-114038000D01*
X72113998Y-114106121D01*
X72060342Y-114152614D01*
X72008000Y-114164000D01*
X70890115Y-114164000D01*
X70874876Y-114168475D01*
X70873671Y-114169865D01*
X70872000Y-114177548D01*
X70872000Y-114506657D01*
X70872301Y-114512805D01*
X70885812Y-114650603D01*
X70888195Y-114662638D01*
X70941767Y-114840076D01*
X70946441Y-114851416D01*
X71033460Y-115015077D01*
X71040249Y-115025294D01*
X71157341Y-115168864D01*
X71184895Y-115234296D01*
X71172700Y-115304237D01*
X71124627Y-115356482D01*
X71059698Y-115374500D01*
X68785250Y-115374500D01*
X68717129Y-115354498D01*
X68696155Y-115337595D01*
X67084946Y-113726386D01*
X67050920Y-113664074D01*
X67050298Y-113637885D01*
X70872000Y-113637885D01*
X70876475Y-113653124D01*
X70877865Y-113654329D01*
X70885548Y-113656000D01*
X71607885Y-113656000D01*
X71623124Y-113651525D01*
X71624329Y-113650135D01*
X71626000Y-113642452D01*
X71626000Y-112402076D01*
X71622027Y-112388545D01*
X71614232Y-112387425D01*
X71506479Y-112419138D01*
X71495111Y-112423731D01*
X71330846Y-112509607D01*
X71320585Y-112516321D01*
X71176127Y-112632468D01*
X71167368Y-112641046D01*
X71048222Y-112783039D01*
X71041292Y-112793159D01*
X70951998Y-112955585D01*
X70947166Y-112966858D01*
X70891120Y-113143538D01*
X70888570Y-113155532D01*
X70872393Y-113299761D01*
X70872000Y-113306785D01*
X70872000Y-113637885D01*
X67050298Y-113637885D01*
X67049787Y-113616386D01*
X67051108Y-113608532D01*
X67051915Y-113603738D01*
X67052051Y-113592618D01*
X67033757Y-113464877D01*
X66980346Y-113347406D01*
X66939293Y-113299761D01*
X66901969Y-113256444D01*
X66901967Y-113256442D01*
X66896111Y-113249646D01*
X66787824Y-113179459D01*
X66779229Y-113176889D01*
X66779228Y-113176888D01*
X66672792Y-113145056D01*
X66672790Y-113145056D01*
X66664191Y-113142484D01*
X66655216Y-113142429D01*
X66655215Y-113142429D01*
X66600559Y-113142095D01*
X66535149Y-113141696D01*
X66490398Y-113154486D01*
X66419704Y-113174690D01*
X66419702Y-113174691D01*
X66411073Y-113177157D01*
X66403483Y-113181946D01*
X66343308Y-113219914D01*
X66301937Y-113246017D01*
X66216514Y-113342740D01*
X66199375Y-113379245D01*
X66152320Y-113432407D01*
X66083992Y-113451690D01*
X66016086Y-113430971D01*
X65996225Y-113414792D01*
X65837938Y-113256505D01*
X65822268Y-113237412D01*
X65822075Y-113237123D01*
X65822073Y-113237121D01*
X65815181Y-113226806D01*
X65762116Y-113191350D01*
X65748043Y-113181946D01*
X65742640Y-113178336D01*
X65742639Y-113178336D01*
X65732321Y-113171441D01*
X65634580Y-113151999D01*
X65622409Y-113154420D01*
X65622408Y-113154420D01*
X65622076Y-113154486D01*
X65597495Y-113156907D01*
X63506230Y-113156907D01*
X63438109Y-113136905D01*
X63417135Y-113120002D01*
X63115114Y-112817981D01*
X63081088Y-112755669D01*
X63086153Y-112684854D01*
X63128700Y-112628018D01*
X63138281Y-112621511D01*
X63219709Y-112571515D01*
X63219712Y-112571512D01*
X63227361Y-112566816D01*
X63233387Y-112560159D01*
X63307937Y-112477798D01*
X63307940Y-112477794D01*
X63313959Y-112471144D01*
X63370225Y-112355012D01*
X63375592Y-112323114D01*
X63390827Y-112232554D01*
X63391634Y-112227757D01*
X63391770Y-112216637D01*
X63377114Y-112114296D01*
X63374749Y-112097782D01*
X63374748Y-112097779D01*
X63373476Y-112088896D01*
X63351328Y-112040184D01*
X63323782Y-111979599D01*
X63323780Y-111979596D01*
X63320065Y-111971425D01*
X63314204Y-111964623D01*
X63309369Y-111957063D01*
X63311739Y-111955547D01*
X63288371Y-111904006D01*
X63287137Y-111886414D01*
X63287137Y-111112187D01*
X63307139Y-111044066D01*
X63324042Y-111023092D01*
X63878728Y-110468406D01*
X63941040Y-110434380D01*
X64011855Y-110439445D01*
X64068691Y-110481992D01*
X64083151Y-110506753D01*
X64086513Y-110514393D01*
X64093605Y-110530510D01*
X64099382Y-110537383D01*
X64099383Y-110537384D01*
X64127623Y-110570979D01*
X64176639Y-110629291D01*
X64284060Y-110700796D01*
X64407233Y-110739278D01*
X64416203Y-110739442D01*
X64416207Y-110739443D01*
X64474942Y-110740519D01*
X64536255Y-110741643D01*
X64650478Y-110710502D01*
X64652092Y-110710062D01*
X64652093Y-110710062D01*
X64660755Y-110707700D01*
X64668407Y-110703002D01*
X64673349Y-110700863D01*
X64723390Y-110690500D01*
X67226917Y-110690500D01*
X67295038Y-110710502D01*
X67316012Y-110727405D01*
X68749343Y-112160736D01*
X68775577Y-112199085D01*
X68809988Y-112277290D01*
X68813605Y-112285510D01*
X68819382Y-112292383D01*
X68819383Y-112292384D01*
X68890859Y-112377415D01*
X68896639Y-112384291D01*
X69004060Y-112455796D01*
X69127233Y-112494278D01*
X69136203Y-112494442D01*
X69136207Y-112494443D01*
X69194942Y-112495519D01*
X69256255Y-112496643D01*
X69349783Y-112471144D01*
X69372092Y-112465062D01*
X69372093Y-112465062D01*
X69380755Y-112462700D01*
X69388405Y-112458003D01*
X69388407Y-112458002D01*
X69483072Y-112399878D01*
X69483075Y-112399875D01*
X69490724Y-112395179D01*
X69497743Y-112387425D01*
X69571300Y-112306161D01*
X69571303Y-112306157D01*
X69577322Y-112299507D01*
X69633588Y-112183375D01*
X69635967Y-112169238D01*
X69654190Y-112060917D01*
X69654997Y-112056120D01*
X69655133Y-112045000D01*
X69644596Y-111971425D01*
X69638112Y-111926145D01*
X69638111Y-111926142D01*
X69636839Y-111917259D01*
X69594442Y-111824011D01*
X69587145Y-111807962D01*
X69587143Y-111807959D01*
X69583428Y-111799788D01*
X69529392Y-111737076D01*
X69505051Y-111708826D01*
X69505049Y-111708824D01*
X69499193Y-111702028D01*
X69390906Y-111631841D01*
X69367647Y-111624885D01*
X69314656Y-111593263D01*
X67927477Y-110206084D01*
X67893451Y-110143772D01*
X67898516Y-110072957D01*
X67941063Y-110016121D01*
X68007583Y-109991310D01*
X68016572Y-109990989D01*
X71269758Y-109990989D01*
X71337879Y-110010991D01*
X71345539Y-110016818D01*
X71347617Y-110019291D01*
X71396827Y-110052048D01*
X71444228Y-110083600D01*
X71455038Y-110090796D01*
X71529524Y-110114067D01*
X71565994Y-110125461D01*
X71578211Y-110129278D01*
X71587181Y-110129442D01*
X71587185Y-110129443D01*
X71645920Y-110130519D01*
X71707233Y-110131643D01*
X71771700Y-110114067D01*
X71823070Y-110100062D01*
X71823071Y-110100062D01*
X71831733Y-110097700D01*
X71839383Y-110093003D01*
X71839385Y-110093002D01*
X71934050Y-110034878D01*
X71934053Y-110034875D01*
X71941702Y-110030179D01*
X71948145Y-110023061D01*
X72022278Y-109941161D01*
X72022281Y-109941157D01*
X72028300Y-109934507D01*
X72048995Y-109891793D01*
X72096699Y-109839211D01*
X72165257Y-109820766D01*
X72232905Y-109842314D01*
G37*
G04 #@! TD.AperFunction*
G04 #@! TA.AperFunction,Conductor*
G36*
X76227973Y-83707004D02*
G01*
X76639067Y-83707533D01*
X76644946Y-83707679D01*
X76917302Y-83720792D01*
X77476068Y-83747696D01*
X77481952Y-83748117D01*
X77999715Y-83797419D01*
X78310332Y-83826996D01*
X78316165Y-83827690D01*
X79139926Y-83945256D01*
X79145722Y-83946222D01*
X79915536Y-84093144D01*
X79963064Y-84102215D01*
X79968832Y-84103456D01*
X80778012Y-84297545D01*
X80783672Y-84299043D01*
X81582860Y-84530789D01*
X81588462Y-84532556D01*
X82273210Y-84766381D01*
X82375946Y-84801463D01*
X82381482Y-84803500D01*
X83051020Y-85067734D01*
X83107042Y-85111347D01*
X83130592Y-85178324D01*
X83114193Y-85247400D01*
X83084827Y-85282232D01*
X83008991Y-85344635D01*
X83004957Y-85349892D01*
X83003610Y-85351966D01*
X83003608Y-85351969D01*
X82990042Y-85372859D01*
X82960677Y-85401639D01*
X82961794Y-85402971D01*
X82954915Y-85408743D01*
X82947293Y-85413478D01*
X82941308Y-85420160D01*
X82941307Y-85420161D01*
X82884888Y-85483152D01*
X82876736Y-85492254D01*
X82874087Y-85496332D01*
X82874087Y-85496333D01*
X82516622Y-86046780D01*
X82510773Y-86055786D01*
X82507577Y-86062688D01*
X82471351Y-86140907D01*
X82471350Y-86140911D01*
X82467579Y-86149053D01*
X82466245Y-86157927D01*
X82466244Y-86157930D01*
X82466043Y-86159270D01*
X82464229Y-86164648D01*
X82463665Y-86166528D01*
X82463601Y-86166509D01*
X82451935Y-86201097D01*
X82450617Y-86203502D01*
X82448057Y-86207444D01*
X82406155Y-86299603D01*
X82404951Y-86308940D01*
X82392383Y-86406374D01*
X82388825Y-86433956D01*
X82411766Y-86567467D01*
X82416020Y-86575871D01*
X82416021Y-86575873D01*
X82467452Y-86677467D01*
X82472951Y-86688330D01*
X82485826Y-86701686D01*
X82502886Y-86719383D01*
X82535763Y-86782308D01*
X82529401Y-86853019D01*
X82485819Y-86909065D01*
X82412172Y-86932830D01*
X79956336Y-86932830D01*
X79888215Y-86912828D01*
X79867241Y-86895925D01*
X79141860Y-86170544D01*
X79107834Y-86108232D01*
X79106702Y-86060542D01*
X79109018Y-86046780D01*
X79109019Y-86046771D01*
X79109825Y-86041979D01*
X79109974Y-86029800D01*
X79095302Y-85927348D01*
X79091211Y-85898781D01*
X79091210Y-85898778D01*
X79089938Y-85889895D01*
X79077973Y-85863578D01*
X79035157Y-85769411D01*
X79031441Y-85761237D01*
X78939184Y-85654168D01*
X78820586Y-85577297D01*
X78749703Y-85556098D01*
X78693780Y-85539373D01*
X78693778Y-85539373D01*
X78685179Y-85536801D01*
X78676204Y-85536746D01*
X78676203Y-85536746D01*
X78615489Y-85536375D01*
X78543849Y-85535938D01*
X78407958Y-85574776D01*
X78288429Y-85650193D01*
X78194872Y-85756126D01*
X78191058Y-85764249D01*
X78191057Y-85764251D01*
X78169617Y-85809918D01*
X78134807Y-85884060D01*
X78133427Y-85892924D01*
X78133426Y-85892927D01*
X78128457Y-85924845D01*
X78113063Y-86023710D01*
X78114227Y-86032612D01*
X78114227Y-86032615D01*
X78129454Y-86149053D01*
X78131389Y-86163850D01*
X78188310Y-86293213D01*
X78279251Y-86401400D01*
X78286722Y-86406373D01*
X78286723Y-86406374D01*
X78389428Y-86474741D01*
X78389431Y-86474742D01*
X78396901Y-86479715D01*
X78405465Y-86482391D01*
X78405468Y-86482392D01*
X78448004Y-86495681D01*
X78531803Y-86521862D01*
X78666513Y-86524331D01*
X78734256Y-86545578D01*
X78753299Y-86561215D01*
X79567259Y-87375175D01*
X79582926Y-87394264D01*
X79591406Y-87406954D01*
X79614407Y-87422323D01*
X79614408Y-87422324D01*
X79635235Y-87436240D01*
X79682535Y-87467845D01*
X79694704Y-87470266D01*
X79694705Y-87470266D01*
X79762897Y-87483830D01*
X79777858Y-87486806D01*
X79777859Y-87486806D01*
X79790030Y-87489227D01*
X79804991Y-87486251D01*
X79829573Y-87483830D01*
X79934882Y-87483830D01*
X80003003Y-87503832D01*
X80049496Y-87557488D01*
X80059600Y-87627762D01*
X80030106Y-87692342D01*
X80023977Y-87698925D01*
X74047187Y-93675715D01*
X74028095Y-93691385D01*
X74015407Y-93699863D01*
X74008516Y-93710176D01*
X74000038Y-93722864D01*
X74000037Y-93722865D01*
X73985182Y-93745098D01*
X73985180Y-93745101D01*
X73962939Y-93778387D01*
X73954516Y-93790992D01*
X73944110Y-93843307D01*
X73933134Y-93898487D01*
X73935555Y-93910658D01*
X73936110Y-93913448D01*
X73938531Y-93938030D01*
X73938531Y-94712243D01*
X73918529Y-94780364D01*
X73864873Y-94826857D01*
X73794599Y-94836961D01*
X73730019Y-94807467D01*
X73723436Y-94801338D01*
X73200754Y-94278656D01*
X73185084Y-94259564D01*
X73183497Y-94257189D01*
X73176606Y-94246876D01*
X73153605Y-94231507D01*
X73155194Y-94229130D01*
X73155192Y-94229129D01*
X73153604Y-94231506D01*
X73095830Y-94192903D01*
X73095828Y-94192900D01*
X73095827Y-94192901D01*
X73085477Y-94185985D01*
X73073303Y-94183563D01*
X73073302Y-94183563D01*
X73005115Y-94170000D01*
X72990154Y-94167024D01*
X72990153Y-94167024D01*
X72977982Y-94164603D01*
X72965811Y-94167024D01*
X72963021Y-94167579D01*
X72938439Y-94170000D01*
X69977806Y-94170000D01*
X69909685Y-94149998D01*
X69888711Y-94133095D01*
X67681850Y-91926234D01*
X67647824Y-91863922D01*
X67646030Y-91835133D01*
X67644997Y-91835120D01*
X67645074Y-91828859D01*
X67645074Y-91828853D01*
X67645133Y-91824000D01*
X67626839Y-91696259D01*
X67601996Y-91641620D01*
X67577145Y-91586962D01*
X67577143Y-91586959D01*
X67573428Y-91578788D01*
X67512804Y-91508430D01*
X67495051Y-91487826D01*
X67495049Y-91487824D01*
X67489193Y-91481028D01*
X67380906Y-91410841D01*
X67372311Y-91408271D01*
X67372310Y-91408270D01*
X67265874Y-91376438D01*
X67265872Y-91376438D01*
X67257273Y-91373866D01*
X67248298Y-91373811D01*
X67248297Y-91373811D01*
X67193641Y-91373477D01*
X67128231Y-91373078D01*
X67088088Y-91384551D01*
X67012786Y-91406072D01*
X67012784Y-91406073D01*
X67004155Y-91408539D01*
X66996565Y-91413328D01*
X66917005Y-91463527D01*
X66895019Y-91477399D01*
X66809596Y-91574122D01*
X66805782Y-91582245D01*
X66805781Y-91582247D01*
X66794728Y-91605789D01*
X66754754Y-91690932D01*
X66753374Y-91699798D01*
X66736282Y-91809567D01*
X66736282Y-91809571D01*
X66734901Y-91818440D01*
X66736065Y-91827342D01*
X66736065Y-91827345D01*
X66750468Y-91937489D01*
X66750469Y-91937493D01*
X66751633Y-91946394D01*
X66776740Y-92003455D01*
X66792512Y-92039298D01*
X66803605Y-92064510D01*
X66809382Y-92071383D01*
X66809383Y-92071384D01*
X66809656Y-92071709D01*
X66886639Y-92163291D01*
X66994060Y-92234796D01*
X67117233Y-92273278D01*
X67126203Y-92273442D01*
X67126207Y-92273443D01*
X67201301Y-92274819D01*
X67269044Y-92296066D01*
X67288087Y-92311703D01*
X69365789Y-94389405D01*
X69399815Y-94451717D01*
X69394750Y-94522532D01*
X69352203Y-94579368D01*
X69285683Y-94604179D01*
X69276694Y-94604500D01*
X68106306Y-94604500D01*
X68038185Y-94584498D01*
X68017211Y-94567595D01*
X66542772Y-93093156D01*
X66527102Y-93074064D01*
X66525515Y-93071689D01*
X66518624Y-93061376D01*
X66495623Y-93046007D01*
X66497212Y-93043630D01*
X66497210Y-93043629D01*
X66495622Y-93046006D01*
X66469468Y-93028531D01*
X66469466Y-93028528D01*
X66469465Y-93028529D01*
X66437811Y-93007378D01*
X66427495Y-93000485D01*
X66415326Y-92998064D01*
X66415325Y-92998064D01*
X66347133Y-92984500D01*
X66332172Y-92981524D01*
X66332171Y-92981524D01*
X66320000Y-92979103D01*
X66307829Y-92981524D01*
X66305039Y-92982079D01*
X66280457Y-92984500D01*
X63544543Y-92984500D01*
X63519961Y-92982079D01*
X63517171Y-92981524D01*
X63505000Y-92979103D01*
X63492829Y-92981524D01*
X63477868Y-92984500D01*
X63477867Y-92984500D01*
X63397505Y-93000485D01*
X63355535Y-93028529D01*
X63355535Y-93028528D01*
X63355532Y-93028531D01*
X63335127Y-93042165D01*
X63329378Y-93046006D01*
X63326811Y-93042165D01*
X63326810Y-93042166D01*
X63329377Y-93046007D01*
X63306376Y-93061376D01*
X63299485Y-93071689D01*
X63297898Y-93074064D01*
X63282228Y-93093156D01*
X62507783Y-93867601D01*
X62445471Y-93901627D01*
X62417922Y-93904504D01*
X62348231Y-93904078D01*
X62315446Y-93913448D01*
X62232786Y-93937072D01*
X62232784Y-93937073D01*
X62224155Y-93939539D01*
X62216565Y-93944328D01*
X62143947Y-93990147D01*
X62115019Y-94008399D01*
X62109076Y-94015128D01*
X62109075Y-94015129D01*
X62067682Y-94061998D01*
X62029596Y-94105122D01*
X61974754Y-94221932D01*
X61968778Y-94260316D01*
X61956282Y-94340567D01*
X61956282Y-94340571D01*
X61954901Y-94349440D01*
X61956065Y-94358342D01*
X61956065Y-94358345D01*
X61970468Y-94468489D01*
X61970469Y-94468493D01*
X61971633Y-94477394D01*
X62023605Y-94595510D01*
X62029382Y-94602383D01*
X62029383Y-94602384D01*
X62100377Y-94686841D01*
X62106639Y-94694291D01*
X62114116Y-94699268D01*
X62205547Y-94760129D01*
X62214060Y-94765796D01*
X62299236Y-94792407D01*
X62327823Y-94801338D01*
X62337233Y-94804278D01*
X62346203Y-94804442D01*
X62346207Y-94804443D01*
X62404942Y-94805519D01*
X62466255Y-94806643D01*
X62562644Y-94780364D01*
X62582092Y-94775062D01*
X62582093Y-94775062D01*
X62590755Y-94772700D01*
X62598405Y-94768003D01*
X62598407Y-94768002D01*
X62693072Y-94709878D01*
X62693075Y-94709875D01*
X62700724Y-94705179D01*
X62706750Y-94698522D01*
X62781300Y-94616161D01*
X62781303Y-94616157D01*
X62787322Y-94609507D01*
X62843588Y-94493375D01*
X62846756Y-94474548D01*
X62864190Y-94370917D01*
X62864997Y-94366120D01*
X62865133Y-94355000D01*
X62864510Y-94350649D01*
X62880018Y-94281497D01*
X62901121Y-94253495D01*
X63582211Y-93572405D01*
X63644523Y-93538379D01*
X63671306Y-93535500D01*
X63925688Y-93535500D01*
X63993809Y-93555502D01*
X64040302Y-93609158D01*
X64050406Y-93679432D01*
X64020912Y-93744012D01*
X64014783Y-93750595D01*
X60634125Y-97131253D01*
X60615033Y-97146923D01*
X60602345Y-97155401D01*
X60541454Y-97246530D01*
X60525469Y-97326892D01*
X60520072Y-97354025D01*
X60522493Y-97366196D01*
X60523048Y-97368986D01*
X60525469Y-97393568D01*
X60525469Y-98284977D01*
X60523048Y-98309559D01*
X60520072Y-98324520D01*
X60525469Y-98351652D01*
X60525469Y-98351653D01*
X60541454Y-98432015D01*
X60602345Y-98523144D01*
X60612661Y-98530037D01*
X60612662Y-98530038D01*
X60615033Y-98531622D01*
X60634125Y-98547292D01*
X61914044Y-99827211D01*
X61948070Y-99889523D01*
X61950949Y-99916306D01*
X61950949Y-103035906D01*
X61948528Y-103060488D01*
X61945552Y-103075449D01*
X61950949Y-103102581D01*
X61950949Y-103102582D01*
X61966934Y-103182944D01*
X61973831Y-103193265D01*
X61973832Y-103193268D01*
X61973985Y-103193496D01*
X62005991Y-103241396D01*
X62027825Y-103274073D01*
X62038141Y-103280966D01*
X62038142Y-103280967D01*
X62040513Y-103282551D01*
X62059605Y-103298221D01*
X63794757Y-105033373D01*
X63828783Y-105095685D01*
X63823644Y-105166697D01*
X63779522Y-105284391D01*
X63775895Y-105299649D01*
X63770369Y-105350514D01*
X63770000Y-105357328D01*
X63770000Y-105383885D01*
X63774475Y-105399124D01*
X63775865Y-105400329D01*
X63783548Y-105402000D01*
X67267884Y-105402000D01*
X67283123Y-105397525D01*
X67284328Y-105396135D01*
X67285999Y-105388452D01*
X67285999Y-105357331D01*
X67285629Y-105350510D01*
X67280105Y-105299648D01*
X67276479Y-105284396D01*
X67231324Y-105163946D01*
X67222786Y-105148351D01*
X67146285Y-105046276D01*
X67133724Y-105033715D01*
X67031649Y-104957214D01*
X67016055Y-104948676D01*
X67010273Y-104946509D01*
X66953508Y-104903869D01*
X66928806Y-104837308D01*
X66928500Y-104828526D01*
X66928500Y-104687180D01*
X66919767Y-104643278D01*
X66912873Y-104632960D01*
X66912872Y-104632958D01*
X66888846Y-104597001D01*
X66867631Y-104529248D01*
X66888846Y-104456999D01*
X66912872Y-104421042D01*
X66912873Y-104421040D01*
X66919767Y-104410722D01*
X66928500Y-104366820D01*
X66928500Y-103987180D01*
X66919767Y-103943278D01*
X66912873Y-103932960D01*
X66912872Y-103932958D01*
X66888846Y-103897001D01*
X66867631Y-103829248D01*
X66888846Y-103756999D01*
X66912872Y-103721042D01*
X66912873Y-103721040D01*
X66919767Y-103710722D01*
X66928500Y-103666820D01*
X66928500Y-103525474D01*
X66948502Y-103457353D01*
X67002158Y-103410860D01*
X67010274Y-103407491D01*
X67016215Y-103405264D01*
X67087022Y-103400083D01*
X67149390Y-103434005D01*
X67183517Y-103496262D01*
X67185377Y-103506909D01*
X67188644Y-103531894D01*
X67192261Y-103540114D01*
X67215840Y-103593702D01*
X67226511Y-103644448D01*
X67226511Y-103952433D01*
X67229575Y-103961864D01*
X67229576Y-103961868D01*
X67233308Y-103973353D01*
X67237924Y-103992578D01*
X67241365Y-104014304D01*
X67245866Y-104023137D01*
X67245867Y-104023141D01*
X67251352Y-104033906D01*
X67258916Y-104052166D01*
X67265715Y-104073090D01*
X67278650Y-104090893D01*
X67288976Y-104107745D01*
X67298961Y-104127342D01*
X67321524Y-104149905D01*
X67321527Y-104149909D01*
X69277591Y-106105973D01*
X69277595Y-106105976D01*
X69300158Y-106128539D01*
X69308997Y-106133043D01*
X69308999Y-106133044D01*
X69319758Y-106138526D01*
X69336614Y-106148854D01*
X69354411Y-106161785D01*
X69375332Y-106168583D01*
X69393592Y-106176147D01*
X69404359Y-106181633D01*
X69404363Y-106181634D01*
X69413196Y-106186135D01*
X69422987Y-106187686D01*
X69422988Y-106187686D01*
X69434922Y-106189576D01*
X69454147Y-106194192D01*
X69465632Y-106197924D01*
X69465636Y-106197925D01*
X69475067Y-106200989D01*
X70497406Y-106200989D01*
X70565527Y-106220991D01*
X70586501Y-106237894D01*
X70944343Y-106595736D01*
X70970577Y-106634085D01*
X71008605Y-106720510D01*
X71014382Y-106727383D01*
X71014383Y-106727384D01*
X71058593Y-106779978D01*
X71091639Y-106819291D01*
X71199060Y-106890796D01*
X71322233Y-106929278D01*
X71331203Y-106929442D01*
X71331207Y-106929443D01*
X71389942Y-106930519D01*
X71451255Y-106931643D01*
X71513505Y-106914672D01*
X71567092Y-106900062D01*
X71567093Y-106900062D01*
X71575755Y-106897700D01*
X71583405Y-106893003D01*
X71583407Y-106893002D01*
X71678072Y-106834878D01*
X71678075Y-106834875D01*
X71685724Y-106830179D01*
X71691750Y-106823522D01*
X71766300Y-106741161D01*
X71766303Y-106741157D01*
X71772322Y-106734507D01*
X71828588Y-106618375D01*
X71849997Y-106491120D01*
X71850133Y-106480000D01*
X71831839Y-106352259D01*
X71828125Y-106344090D01*
X71782145Y-106242962D01*
X71782143Y-106242959D01*
X71778428Y-106234788D01*
X71745684Y-106196786D01*
X71700051Y-106143826D01*
X71700049Y-106143824D01*
X71694193Y-106137028D01*
X71585906Y-106066841D01*
X71562647Y-106059885D01*
X71509656Y-106028263D01*
X70976398Y-105495005D01*
X70976394Y-105495002D01*
X70953831Y-105472439D01*
X70934235Y-105462454D01*
X70917382Y-105452128D01*
X70899579Y-105439193D01*
X70878655Y-105432394D01*
X70860395Y-105424830D01*
X70849630Y-105419345D01*
X70849626Y-105419344D01*
X70840793Y-105414843D01*
X70831002Y-105413292D01*
X70831001Y-105413292D01*
X70819067Y-105411402D01*
X70799842Y-105406786D01*
X70788357Y-105403054D01*
X70788353Y-105403053D01*
X70778922Y-105399989D01*
X69756583Y-105399989D01*
X69688462Y-105379987D01*
X69667488Y-105363084D01*
X68942940Y-104638536D01*
X68908914Y-104576224D01*
X68913979Y-104505409D01*
X68956526Y-104448573D01*
X68966106Y-104442066D01*
X69055186Y-104387371D01*
X69061212Y-104380714D01*
X69135762Y-104298353D01*
X69135765Y-104298349D01*
X69141784Y-104291699D01*
X69198050Y-104175567D01*
X69202368Y-104149905D01*
X69218652Y-104053109D01*
X69219459Y-104048312D01*
X69219595Y-104037192D01*
X69208239Y-103957899D01*
X69202574Y-103918337D01*
X69202573Y-103918334D01*
X69201301Y-103909451D01*
X69195533Y-103896765D01*
X69184234Y-103844614D01*
X69184234Y-101731850D01*
X69196842Y-101676911D01*
X69217322Y-101634641D01*
X69222753Y-101602363D01*
X69237924Y-101512183D01*
X69238731Y-101507386D01*
X69238867Y-101496266D01*
X69220573Y-101368525D01*
X69214458Y-101355075D01*
X69170879Y-101259228D01*
X69170877Y-101259225D01*
X69167162Y-101251054D01*
X69082927Y-101153294D01*
X69075428Y-101148433D01*
X69037253Y-101088594D01*
X69037490Y-101017598D01*
X69076073Y-100958000D01*
X69140752Y-100928723D01*
X69158267Y-100927500D01*
X69521050Y-100927500D01*
X69589171Y-100947502D01*
X69610145Y-100964405D01*
X76136708Y-107490968D01*
X76170734Y-107553280D01*
X76165669Y-107624095D01*
X76123122Y-107680931D01*
X76114850Y-107686624D01*
X76041911Y-107732646D01*
X76014308Y-107750062D01*
X75947072Y-107769500D01*
X73889688Y-107769500D01*
X73865105Y-107767079D01*
X73852598Y-107764591D01*
X73754858Y-107784034D01*
X73671997Y-107839399D01*
X73665105Y-107849714D01*
X73665103Y-107849716D01*
X73664914Y-107849999D01*
X73649245Y-107869092D01*
X73318810Y-108199528D01*
X73299716Y-108215198D01*
X73299430Y-108215389D01*
X73299428Y-108215391D01*
X73289113Y-108222283D01*
X73282221Y-108232598D01*
X73282219Y-108232600D01*
X73271037Y-108249336D01*
X73260879Y-108264539D01*
X73233748Y-108305143D01*
X73214306Y-108402884D01*
X73216727Y-108415055D01*
X73216727Y-108415056D01*
X73216793Y-108415388D01*
X73219214Y-108439969D01*
X73219214Y-109318364D01*
X73199212Y-109386485D01*
X73145556Y-109432978D01*
X73075282Y-109443082D01*
X73010702Y-109413588D01*
X73004119Y-109407459D01*
X71526256Y-107929596D01*
X71510586Y-107910503D01*
X71510393Y-107910214D01*
X71510391Y-107910212D01*
X71503499Y-107899897D01*
X71445606Y-107861215D01*
X71435988Y-107854788D01*
X71430955Y-107851425D01*
X71430954Y-107851425D01*
X71420639Y-107844532D01*
X71408472Y-107842112D01*
X71408470Y-107842111D01*
X71335069Y-107827511D01*
X71322898Y-107825090D01*
X71310727Y-107827511D01*
X71310726Y-107827511D01*
X71310394Y-107827577D01*
X71285813Y-107829998D01*
X68736626Y-107829998D01*
X68668505Y-107809996D01*
X68641173Y-107786246D01*
X68605051Y-107744324D01*
X68605049Y-107744322D01*
X68599193Y-107737526D01*
X68490906Y-107667339D01*
X68482311Y-107664769D01*
X68482310Y-107664768D01*
X68375874Y-107632936D01*
X68375872Y-107632936D01*
X68367273Y-107630364D01*
X68358298Y-107630309D01*
X68358297Y-107630309D01*
X68303641Y-107629975D01*
X68238231Y-107629576D01*
X68226475Y-107632936D01*
X68122786Y-107662570D01*
X68122784Y-107662571D01*
X68114155Y-107665037D01*
X68106565Y-107669826D01*
X68018380Y-107725467D01*
X68005019Y-107733897D01*
X67999076Y-107740626D01*
X67999075Y-107740627D01*
X67960739Y-107784034D01*
X67919596Y-107830620D01*
X67915782Y-107838743D01*
X67915781Y-107838745D01*
X67893632Y-107885921D01*
X67864754Y-107947430D01*
X67859505Y-107981145D01*
X67846282Y-108066065D01*
X67846282Y-108066069D01*
X67844901Y-108074938D01*
X67846065Y-108083840D01*
X67846065Y-108083843D01*
X67860468Y-108193987D01*
X67860469Y-108193991D01*
X67861633Y-108202892D01*
X67874705Y-108232600D01*
X67901951Y-108294521D01*
X67913605Y-108321008D01*
X67919382Y-108327881D01*
X67919383Y-108327882D01*
X67961814Y-108378360D01*
X67996639Y-108419789D01*
X68104060Y-108491294D01*
X68227233Y-108529776D01*
X68236203Y-108529940D01*
X68236207Y-108529941D01*
X68294942Y-108531017D01*
X68356255Y-108532141D01*
X68435460Y-108510547D01*
X68472092Y-108500560D01*
X68472093Y-108500560D01*
X68480755Y-108498198D01*
X68488405Y-108493501D01*
X68488407Y-108493500D01*
X68583072Y-108435376D01*
X68583075Y-108435373D01*
X68590724Y-108430677D01*
X68600580Y-108419789D01*
X68643435Y-108372443D01*
X68703978Y-108335361D01*
X68736850Y-108330998D01*
X68749830Y-108330998D01*
X68817951Y-108351000D01*
X68864444Y-108404656D01*
X68874548Y-108474930D01*
X68863886Y-108510545D01*
X68846802Y-108546932D01*
X68845422Y-108555798D01*
X68828330Y-108665567D01*
X68828330Y-108665571D01*
X68826949Y-108674440D01*
X68828113Y-108683342D01*
X68828113Y-108683345D01*
X68842516Y-108793489D01*
X68842517Y-108793493D01*
X68843681Y-108802394D01*
X68895653Y-108920510D01*
X68901430Y-108927383D01*
X68901431Y-108927384D01*
X68944543Y-108978672D01*
X68978687Y-109019291D01*
X69038495Y-109059102D01*
X69084117Y-109113498D01*
X69093089Y-109183926D01*
X69062560Y-109248024D01*
X69002224Y-109285441D01*
X68968676Y-109289989D01*
X64261787Y-109289989D01*
X64242688Y-109287956D01*
X64237880Y-109287729D01*
X64227702Y-109285538D01*
X64197472Y-109289116D01*
X64192217Y-109289426D01*
X64192228Y-109289561D01*
X64187050Y-109289989D01*
X64181848Y-109289989D01*
X64164478Y-109292880D01*
X64158608Y-109293716D01*
X64111824Y-109299253D01*
X64104204Y-109302912D01*
X64095860Y-109304301D01*
X64086695Y-109309246D01*
X64086693Y-109309247D01*
X64054404Y-109326670D01*
X64049125Y-109329361D01*
X64006637Y-109349763D01*
X64002689Y-109353081D01*
X64000750Y-109355020D01*
X63999159Y-109356479D01*
X63998669Y-109356743D01*
X63998650Y-109356723D01*
X63998561Y-109356802D01*
X63993169Y-109359711D01*
X63986099Y-109367359D01*
X63986098Y-109367360D01*
X63959508Y-109396125D01*
X63956079Y-109399691D01*
X63163191Y-110192579D01*
X63100879Y-110226605D01*
X63030064Y-110221540D01*
X62973228Y-110178993D01*
X62959396Y-110155637D01*
X62949392Y-110133637D01*
X62945675Y-110125461D01*
X62911519Y-110085821D01*
X62867298Y-110034499D01*
X62867296Y-110034497D01*
X62861440Y-110027701D01*
X62753153Y-109957514D01*
X62744558Y-109954944D01*
X62744557Y-109954943D01*
X62638121Y-109923111D01*
X62638119Y-109923111D01*
X62629520Y-109920539D01*
X62620545Y-109920484D01*
X62620544Y-109920484D01*
X62565888Y-109920150D01*
X62500478Y-109919751D01*
X62452742Y-109933394D01*
X62385033Y-109952745D01*
X62385031Y-109952746D01*
X62376402Y-109955212D01*
X62368812Y-109960001D01*
X62279868Y-110016121D01*
X62267266Y-110024072D01*
X62261323Y-110030801D01*
X62261322Y-110030802D01*
X62212731Y-110085821D01*
X62181843Y-110120795D01*
X62178029Y-110128918D01*
X62178028Y-110128920D01*
X62172419Y-110140867D01*
X62127001Y-110237605D01*
X62125621Y-110246471D01*
X62108529Y-110356240D01*
X62108529Y-110356244D01*
X62107148Y-110365113D01*
X62108312Y-110374015D01*
X62108312Y-110374018D01*
X62122715Y-110484162D01*
X62122716Y-110484166D01*
X62123880Y-110493067D01*
X62175852Y-110611183D01*
X62181629Y-110618056D01*
X62181630Y-110618057D01*
X62207068Y-110648319D01*
X62235589Y-110713334D01*
X62236617Y-110729394D01*
X62236617Y-111440531D01*
X62216615Y-111508652D01*
X62209637Y-111517311D01*
X62206525Y-111519390D01*
X62171069Y-111572455D01*
X62151160Y-111602250D01*
X62131718Y-111699991D01*
X62134139Y-111712162D01*
X62134139Y-111712163D01*
X62134205Y-111712495D01*
X62136626Y-111737076D01*
X62136626Y-112293518D01*
X62116624Y-112361639D01*
X62062968Y-112408132D01*
X61992694Y-112418236D01*
X61928114Y-112388742D01*
X61909361Y-112368494D01*
X61902234Y-112358867D01*
X61615373Y-111971425D01*
X61571992Y-111912833D01*
X61568594Y-111908011D01*
X61105306Y-111216827D01*
X61102137Y-111211851D01*
X61041897Y-111112187D01*
X60816498Y-110739281D01*
X60671711Y-110499740D01*
X60668778Y-110494621D01*
X60419290Y-110034499D01*
X60272149Y-109763130D01*
X60269464Y-109757891D01*
X60266684Y-109752135D01*
X59907505Y-109008627D01*
X59905066Y-109003261D01*
X59896379Y-108982895D01*
X59778442Y-108706419D01*
X59601725Y-108292143D01*
X59591621Y-108242815D01*
X59589487Y-105796669D01*
X63770001Y-105796669D01*
X63770371Y-105803490D01*
X63775895Y-105854352D01*
X63779521Y-105869604D01*
X63824676Y-105990054D01*
X63833214Y-106005649D01*
X63909715Y-106107724D01*
X63922276Y-106120285D01*
X64024351Y-106196786D01*
X64039946Y-106205324D01*
X64160394Y-106250478D01*
X64175649Y-106254105D01*
X64226514Y-106259631D01*
X64233328Y-106260000D01*
X65334885Y-106260000D01*
X65350124Y-106255525D01*
X65351329Y-106254135D01*
X65353000Y-106246452D01*
X65353000Y-106241884D01*
X65703000Y-106241884D01*
X65707475Y-106257123D01*
X65708865Y-106258328D01*
X65716548Y-106259999D01*
X66822669Y-106259999D01*
X66829490Y-106259629D01*
X66880352Y-106254105D01*
X66895604Y-106250479D01*
X67016054Y-106205324D01*
X67031649Y-106196786D01*
X67133724Y-106120285D01*
X67146285Y-106107724D01*
X67222786Y-106005649D01*
X67231324Y-105990054D01*
X67276478Y-105869606D01*
X67280105Y-105854351D01*
X67285631Y-105803486D01*
X67286000Y-105796672D01*
X67286000Y-105770115D01*
X67281525Y-105754876D01*
X67280135Y-105753671D01*
X67272452Y-105752000D01*
X65721115Y-105752000D01*
X65705876Y-105756475D01*
X65704671Y-105757865D01*
X65703000Y-105765548D01*
X65703000Y-106241884D01*
X65353000Y-106241884D01*
X65353000Y-105770115D01*
X65348525Y-105754876D01*
X65347135Y-105753671D01*
X65339452Y-105752000D01*
X63788116Y-105752000D01*
X63772877Y-105756475D01*
X63771672Y-105757865D01*
X63770001Y-105765548D01*
X63770001Y-105796669D01*
X59589487Y-105796669D01*
X59589169Y-105432396D01*
X59586986Y-102929975D01*
X59606929Y-102861838D01*
X59660544Y-102815298D01*
X59730809Y-102805133D01*
X59795415Y-102834570D01*
X59822105Y-102866865D01*
X59877730Y-102963209D01*
X59885446Y-102973828D01*
X60007843Y-103109765D01*
X60022511Y-103122972D01*
X60020500Y-103125205D01*
X60055891Y-103171052D01*
X60064500Y-103216826D01*
X60064500Y-103857320D01*
X60073233Y-103901222D01*
X60080127Y-103911540D01*
X60080128Y-103911542D01*
X60094438Y-103932958D01*
X60106496Y-103951004D01*
X60116815Y-103957899D01*
X60145958Y-103977372D01*
X60145960Y-103977373D01*
X60156278Y-103984267D01*
X60200180Y-103993000D01*
X61079820Y-103993000D01*
X61123722Y-103984267D01*
X61134040Y-103977373D01*
X61134042Y-103977372D01*
X61163185Y-103957899D01*
X61173504Y-103951004D01*
X61185562Y-103932958D01*
X61199872Y-103911542D01*
X61199873Y-103911540D01*
X61206767Y-103901222D01*
X61215500Y-103857320D01*
X61215500Y-103216826D01*
X61235502Y-103148705D01*
X61258626Y-103124235D01*
X61257489Y-103122972D01*
X61272157Y-103109765D01*
X61394554Y-102973828D01*
X61402270Y-102963209D01*
X61493733Y-102804791D01*
X61499073Y-102792796D01*
X61532885Y-102688732D01*
X61533288Y-102674632D01*
X61526917Y-102671500D01*
X60512000Y-102671500D01*
X60443879Y-102651498D01*
X60397386Y-102597842D01*
X60386000Y-102545500D01*
X60386000Y-102145385D01*
X60894000Y-102145385D01*
X60898475Y-102160624D01*
X60899865Y-102161829D01*
X60907548Y-102163500D01*
X61520369Y-102163500D01*
X61533900Y-102159527D01*
X61534910Y-102152500D01*
X61499073Y-102042204D01*
X61493733Y-102030209D01*
X61402270Y-101871791D01*
X61394554Y-101861172D01*
X61272157Y-101725235D01*
X61262394Y-101716444D01*
X61114412Y-101608929D01*
X61103040Y-101602363D01*
X60935932Y-101527962D01*
X60923444Y-101523905D01*
X60911720Y-101521412D01*
X60897659Y-101522485D01*
X60894000Y-101532441D01*
X60894000Y-102145385D01*
X60386000Y-102145385D01*
X60386000Y-101535761D01*
X60382027Y-101522230D01*
X60371532Y-101520721D01*
X60356556Y-101523905D01*
X60344068Y-101527962D01*
X60176961Y-101602363D01*
X60165589Y-101608929D01*
X60017606Y-101716444D01*
X60007843Y-101725235D01*
X59885446Y-101861172D01*
X59877728Y-101871795D01*
X59821213Y-101969680D01*
X59769830Y-102018674D01*
X59700116Y-102032109D01*
X59634206Y-102005722D01*
X59593024Y-101947890D01*
X59586094Y-101906790D01*
X59584618Y-100214375D01*
X59580057Y-94986165D01*
X59590075Y-94936823D01*
X59822459Y-94389405D01*
X59892181Y-94225165D01*
X59894613Y-94219790D01*
X60255250Y-93469927D01*
X60257930Y-93464672D01*
X60529485Y-92961760D01*
X60653294Y-92732471D01*
X60656210Y-92727360D01*
X60671202Y-92702460D01*
X61085394Y-92014499D01*
X61088554Y-92009518D01*
X61550639Y-91317522D01*
X61554029Y-91312694D01*
X62047996Y-90643087D01*
X62051609Y-90638422D01*
X62576381Y-89992669D01*
X62580207Y-89988180D01*
X63134629Y-89367698D01*
X63138662Y-89363392D01*
X63673179Y-88818794D01*
X63721513Y-88769548D01*
X63725742Y-88765436D01*
X63896115Y-88607379D01*
X64129937Y-88390460D01*
X64193479Y-88358795D01*
X64264056Y-88366510D01*
X64319257Y-88411157D01*
X64339864Y-88465449D01*
X64339705Y-88470983D01*
X64342213Y-88480057D01*
X64342213Y-88480058D01*
X64353904Y-88522357D01*
X64375792Y-88601554D01*
X64378955Y-88607379D01*
X64380300Y-88609450D01*
X64393869Y-88630345D01*
X64408219Y-88668880D01*
X64409889Y-88668401D01*
X64412363Y-88677028D01*
X64413589Y-88685922D01*
X64417261Y-88694112D01*
X64417262Y-88694115D01*
X64447879Y-88762399D01*
X64456856Y-88782420D01*
X64459507Y-88786502D01*
X64459508Y-88786504D01*
X64586396Y-88981894D01*
X64822819Y-89345952D01*
X64890454Y-89423347D01*
X64898022Y-89428178D01*
X64898026Y-89428181D01*
X64899160Y-89428905D01*
X64903312Y-89432728D01*
X64904827Y-89434031D01*
X64904783Y-89434082D01*
X64931632Y-89458803D01*
X64933290Y-89460982D01*
X64935855Y-89464931D01*
X65003002Y-89540694D01*
X65061155Y-89576121D01*
X65110648Y-89606273D01*
X65110650Y-89606274D01*
X65118692Y-89611173D01*
X65127818Y-89613491D01*
X65127821Y-89613492D01*
X65240862Y-89642201D01*
X65240865Y-89642201D01*
X65249991Y-89644519D01*
X65259396Y-89644051D01*
X65259399Y-89644051D01*
X65331727Y-89640450D01*
X65385291Y-89637783D01*
X65512628Y-89591562D01*
X65551259Y-89562398D01*
X65613232Y-89515614D01*
X65613234Y-89515612D01*
X65620746Y-89509941D01*
X65657696Y-89458803D01*
X65694568Y-89407773D01*
X65694570Y-89407770D01*
X65700084Y-89400138D01*
X65743628Y-89271860D01*
X65747529Y-89136449D01*
X65711441Y-89005878D01*
X65708279Y-89000053D01*
X65693365Y-88977087D01*
X65679015Y-88938552D01*
X65677345Y-88939031D01*
X65674871Y-88930404D01*
X65673645Y-88921510D01*
X65669973Y-88913320D01*
X65669972Y-88913317D01*
X65632370Y-88829455D01*
X65630378Y-88825012D01*
X65612538Y-88797540D01*
X65266858Y-88265242D01*
X65264415Y-88261480D01*
X65196780Y-88184085D01*
X65189212Y-88179254D01*
X65189208Y-88179251D01*
X65188074Y-88178527D01*
X65183922Y-88174704D01*
X65182407Y-88173401D01*
X65182451Y-88173350D01*
X65155602Y-88148629D01*
X65153944Y-88146450D01*
X65151379Y-88142501D01*
X65084232Y-88066738D01*
X65000733Y-88015870D01*
X64976586Y-88001159D01*
X64976584Y-88001158D01*
X64968542Y-87996259D01*
X64959414Y-87993941D01*
X64959412Y-87993940D01*
X64930917Y-87986703D01*
X64904564Y-87980011D01*
X64843464Y-87943857D01*
X64811609Y-87880408D01*
X64819114Y-87809809D01*
X64854303Y-87761607D01*
X64976015Y-87658863D01*
X64980612Y-87655163D01*
X65043126Y-87607218D01*
X65345677Y-87375175D01*
X65640869Y-87148776D01*
X65645632Y-87145297D01*
X66328879Y-86670361D01*
X66333801Y-86667108D01*
X67038517Y-86224683D01*
X67043585Y-86221664D01*
X67141318Y-86166509D01*
X67768264Y-85812695D01*
X67773468Y-85809918D01*
X68190125Y-85599859D01*
X68420487Y-85483721D01*
X68490319Y-85470915D01*
X68555989Y-85497896D01*
X68596647Y-85556098D01*
X68603157Y-85599859D01*
X68601397Y-85660968D01*
X68600151Y-85704216D01*
X68602659Y-85713289D01*
X68602659Y-85713292D01*
X68634323Y-85827859D01*
X68636238Y-85834787D01*
X68639401Y-85840612D01*
X68640746Y-85842683D01*
X68654315Y-85863578D01*
X68668665Y-85902113D01*
X68670335Y-85901634D01*
X68672809Y-85910261D01*
X68674035Y-85919155D01*
X68677707Y-85927345D01*
X68677708Y-85927348D01*
X68708325Y-85995632D01*
X68717302Y-86015653D01*
X68719953Y-86019735D01*
X68719954Y-86019737D01*
X68868380Y-86248292D01*
X69083265Y-86579185D01*
X69150900Y-86656580D01*
X69158468Y-86661411D01*
X69158472Y-86661414D01*
X69159606Y-86662138D01*
X69163758Y-86665961D01*
X69165273Y-86667264D01*
X69165229Y-86667315D01*
X69192078Y-86692036D01*
X69193736Y-86694215D01*
X69196301Y-86698164D01*
X69263448Y-86773927D01*
X69288023Y-86788898D01*
X69371094Y-86839506D01*
X69371096Y-86839507D01*
X69379138Y-86844406D01*
X69388264Y-86846724D01*
X69388267Y-86846725D01*
X69501308Y-86875434D01*
X69501311Y-86875434D01*
X69510437Y-86877752D01*
X69519842Y-86877284D01*
X69519845Y-86877284D01*
X69592173Y-86873683D01*
X69645737Y-86871016D01*
X69773074Y-86824795D01*
X69811705Y-86795631D01*
X69873678Y-86748847D01*
X69873680Y-86748845D01*
X69881192Y-86743174D01*
X69918142Y-86692036D01*
X69955014Y-86641006D01*
X69955016Y-86641003D01*
X69960530Y-86633371D01*
X70004074Y-86505093D01*
X70007975Y-86369682D01*
X69971887Y-86239111D01*
X69968725Y-86233286D01*
X69953811Y-86210320D01*
X69939461Y-86171785D01*
X69937791Y-86172264D01*
X69935317Y-86163637D01*
X69934091Y-86154743D01*
X69930419Y-86146553D01*
X69930418Y-86146550D01*
X69892816Y-86062688D01*
X69890824Y-86058245D01*
X69867203Y-86021871D01*
X69527304Y-85498475D01*
X69524861Y-85494713D01*
X69457226Y-85417318D01*
X69449658Y-85412487D01*
X69449654Y-85412484D01*
X69448520Y-85411760D01*
X69444368Y-85407937D01*
X69442853Y-85406634D01*
X69442897Y-85406583D01*
X69416048Y-85381862D01*
X69414390Y-85379683D01*
X69411825Y-85375734D01*
X69344678Y-85299971D01*
X69336630Y-85295068D01*
X69330485Y-85291324D01*
X69282716Y-85238801D01*
X69270927Y-85168790D01*
X69298859Y-85103519D01*
X69350086Y-85066398D01*
X70021289Y-84803500D01*
X70061758Y-84787649D01*
X70067283Y-84785633D01*
X70855422Y-84518764D01*
X70861050Y-84517004D01*
X71660822Y-84287316D01*
X71666529Y-84285821D01*
X72476170Y-84093823D01*
X72481940Y-84092597D01*
X72609804Y-84068534D01*
X73299689Y-83938704D01*
X73305480Y-83937754D01*
X74091104Y-83827692D01*
X74129528Y-83822309D01*
X74135388Y-83821627D01*
X74368520Y-83800033D01*
X74963967Y-83744878D01*
X74969827Y-83744474D01*
X75462629Y-83722016D01*
X75801051Y-83706594D01*
X75806949Y-83706463D01*
X76227973Y-83707004D01*
G37*
G04 #@! TD.AperFunction*
G04 #@! TA.AperFunction,Conductor*
G36*
X84666577Y-107320982D02*
G01*
X84687551Y-107337885D01*
X86481936Y-109132271D01*
X86515962Y-109194583D01*
X86517341Y-109240748D01*
X86515797Y-109250670D01*
X86514350Y-109259963D01*
X86515514Y-109268865D01*
X86515514Y-109268868D01*
X86529917Y-109379012D01*
X86529918Y-109379016D01*
X86531082Y-109387917D01*
X86542594Y-109414080D01*
X86577990Y-109494523D01*
X86583054Y-109506033D01*
X86588831Y-109512906D01*
X86588832Y-109512907D01*
X86636956Y-109570157D01*
X86666088Y-109604814D01*
X86770359Y-109674222D01*
X86815981Y-109728619D01*
X86824953Y-109799046D01*
X86789635Y-109868204D01*
X86138185Y-110519654D01*
X86075873Y-110553680D01*
X86005058Y-110548615D01*
X85948222Y-110506068D01*
X85923411Y-110439548D01*
X85935698Y-110375621D01*
X85954674Y-110336454D01*
X85954675Y-110336452D01*
X85958588Y-110328375D01*
X85960689Y-110315890D01*
X85979190Y-110205917D01*
X85979997Y-110201120D01*
X85980133Y-110190000D01*
X85965926Y-110090796D01*
X85963112Y-110071145D01*
X85963111Y-110071142D01*
X85961839Y-110062259D01*
X85958125Y-110054090D01*
X85912145Y-109952962D01*
X85912143Y-109952959D01*
X85908428Y-109944788D01*
X85862765Y-109891793D01*
X85830051Y-109853826D01*
X85830049Y-109853824D01*
X85824193Y-109847028D01*
X85715906Y-109776841D01*
X85707311Y-109774271D01*
X85707310Y-109774270D01*
X85600874Y-109742438D01*
X85600872Y-109742438D01*
X85592273Y-109739866D01*
X85583298Y-109739811D01*
X85583297Y-109739811D01*
X85528641Y-109739477D01*
X85463231Y-109739078D01*
X85401193Y-109756808D01*
X85347786Y-109772072D01*
X85347784Y-109772073D01*
X85339155Y-109774539D01*
X85230019Y-109843399D01*
X85224076Y-109850128D01*
X85224075Y-109850129D01*
X85161940Y-109920484D01*
X85144596Y-109940122D01*
X85140782Y-109948245D01*
X85140781Y-109948247D01*
X85120714Y-109990989D01*
X85089754Y-110056932D01*
X85083124Y-110099517D01*
X85071282Y-110175567D01*
X85071282Y-110175571D01*
X85069901Y-110184440D01*
X85071065Y-110193342D01*
X85071065Y-110193345D01*
X85085468Y-110303489D01*
X85085469Y-110303493D01*
X85086633Y-110312394D01*
X85090250Y-110320614D01*
X85130768Y-110412698D01*
X85138605Y-110430510D01*
X85144382Y-110437383D01*
X85144383Y-110437384D01*
X85215861Y-110522418D01*
X85215864Y-110522420D01*
X85221639Y-110529291D01*
X85229114Y-110534266D01*
X85232482Y-110537278D01*
X85269933Y-110597594D01*
X85274500Y-110631209D01*
X85274500Y-110836853D01*
X85254498Y-110904974D01*
X85237595Y-110925948D01*
X84679988Y-111483555D01*
X84617676Y-111517581D01*
X84590893Y-111520460D01*
X76629796Y-111520460D01*
X76561675Y-111500458D01*
X76540701Y-111483555D01*
X76084410Y-111027264D01*
X76050384Y-110964952D01*
X76055449Y-110894137D01*
X76078280Y-110855658D01*
X76094328Y-110837137D01*
X76096000Y-110829452D01*
X76096000Y-110824884D01*
X76604000Y-110824884D01*
X76608475Y-110840123D01*
X76609865Y-110841328D01*
X76617548Y-110842999D01*
X76819669Y-110842999D01*
X76826490Y-110842629D01*
X76877352Y-110837105D01*
X76892604Y-110833479D01*
X77013054Y-110788324D01*
X77028649Y-110779786D01*
X77130724Y-110703285D01*
X77143285Y-110690724D01*
X77219786Y-110588649D01*
X77228325Y-110573052D01*
X77229036Y-110571156D01*
X77230243Y-110569550D01*
X77232634Y-110565182D01*
X77233265Y-110565527D01*
X77271678Y-110514393D01*
X77338240Y-110489694D01*
X77342902Y-110489531D01*
X77350000Y-110490466D01*
X77358188Y-110489388D01*
X77492048Y-110471765D01*
X77500236Y-110470687D01*
X77640233Y-110412698D01*
X77760451Y-110320451D01*
X77762736Y-110317473D01*
X77823217Y-110284447D01*
X77894032Y-110289512D01*
X77936996Y-110317124D01*
X77939549Y-110320451D01*
X78059767Y-110412698D01*
X78199764Y-110470687D01*
X78350000Y-110490466D01*
X78358188Y-110489388D01*
X78492048Y-110471765D01*
X78500236Y-110470687D01*
X78640233Y-110412698D01*
X78760451Y-110320451D01*
X78762736Y-110317473D01*
X78823217Y-110284447D01*
X78894032Y-110289512D01*
X78936996Y-110317124D01*
X78939549Y-110320451D01*
X79059767Y-110412698D01*
X79199764Y-110470687D01*
X79350000Y-110490466D01*
X79358188Y-110489388D01*
X79492048Y-110471765D01*
X79500236Y-110470687D01*
X79640233Y-110412698D01*
X79760451Y-110320451D01*
X79852698Y-110200233D01*
X79910687Y-110060236D01*
X79930466Y-109910000D01*
X79910687Y-109759764D01*
X79852698Y-109619767D01*
X79760451Y-109499549D01*
X79640233Y-109407302D01*
X79517162Y-109356324D01*
X79507865Y-109352473D01*
X79500236Y-109349313D01*
X79350000Y-109329534D01*
X79199764Y-109349313D01*
X79192135Y-109352473D01*
X79182838Y-109356324D01*
X79059767Y-109407302D01*
X78939549Y-109499549D01*
X78937264Y-109502527D01*
X78876783Y-109535553D01*
X78805968Y-109530488D01*
X78763004Y-109502876D01*
X78760451Y-109499549D01*
X78640233Y-109407302D01*
X78517162Y-109356324D01*
X78507865Y-109352473D01*
X78500236Y-109349313D01*
X78350000Y-109329534D01*
X78199764Y-109349313D01*
X78192135Y-109352473D01*
X78182838Y-109356324D01*
X78059767Y-109407302D01*
X77939549Y-109499549D01*
X77937264Y-109502527D01*
X77876783Y-109535553D01*
X77805968Y-109530488D01*
X77763004Y-109502876D01*
X77760451Y-109499549D01*
X77640233Y-109407302D01*
X77517162Y-109356324D01*
X77507865Y-109352473D01*
X77500236Y-109349313D01*
X77350000Y-109329534D01*
X77345406Y-109330139D01*
X77278896Y-109310610D01*
X77232403Y-109256954D01*
X77229036Y-109248844D01*
X77228325Y-109246948D01*
X77219786Y-109231351D01*
X77143285Y-109129276D01*
X77130724Y-109116715D01*
X77028649Y-109040214D01*
X77013054Y-109031676D01*
X76892606Y-108986522D01*
X76877351Y-108982895D01*
X76826486Y-108977369D01*
X76819672Y-108977000D01*
X76622115Y-108977000D01*
X76606876Y-108981475D01*
X76605671Y-108982865D01*
X76604000Y-108990548D01*
X76604000Y-110824884D01*
X76096000Y-110824884D01*
X76096000Y-110182115D01*
X76091525Y-110166876D01*
X76090135Y-110165671D01*
X76082452Y-110164000D01*
X75435116Y-110164000D01*
X75419876Y-110168475D01*
X75418319Y-110170272D01*
X75358592Y-110208655D01*
X75287596Y-110208655D01*
X75234000Y-110176854D01*
X74695031Y-109637885D01*
X75417000Y-109637885D01*
X75421475Y-109653124D01*
X75422865Y-109654329D01*
X75430548Y-109656000D01*
X76077885Y-109656000D01*
X76093124Y-109651525D01*
X76094329Y-109650135D01*
X76096000Y-109642452D01*
X76096000Y-108995116D01*
X76091525Y-108979877D01*
X76090135Y-108978672D01*
X76082452Y-108977001D01*
X75880331Y-108977001D01*
X75873510Y-108977371D01*
X75822648Y-108982895D01*
X75807396Y-108986521D01*
X75686946Y-109031676D01*
X75671351Y-109040214D01*
X75569276Y-109116715D01*
X75556715Y-109129276D01*
X75480214Y-109231351D01*
X75471676Y-109246946D01*
X75426522Y-109367394D01*
X75422895Y-109382649D01*
X75417369Y-109433514D01*
X75417000Y-109440328D01*
X75417000Y-109637885D01*
X74695031Y-109637885D01*
X74306630Y-109249484D01*
X74272604Y-109187172D01*
X74269725Y-109160389D01*
X74269725Y-109071576D01*
X74289727Y-109003455D01*
X74309814Y-108980762D01*
X74309949Y-108980679D01*
X74346270Y-108940552D01*
X74390525Y-108891661D01*
X74390528Y-108891657D01*
X74396547Y-108885007D01*
X74452813Y-108768875D01*
X74454401Y-108759439D01*
X74473415Y-108646417D01*
X74474222Y-108641620D01*
X74474358Y-108630500D01*
X74462750Y-108549443D01*
X74457337Y-108511645D01*
X74457336Y-108511642D01*
X74456064Y-108502759D01*
X74452351Y-108494593D01*
X74452350Y-108494589D01*
X74431463Y-108448651D01*
X74421477Y-108378360D01*
X74451078Y-108313828D01*
X74510868Y-108275545D01*
X74546164Y-108270500D01*
X75805540Y-108270500D01*
X75873661Y-108290502D01*
X75912511Y-108329917D01*
X75913988Y-108332290D01*
X75917605Y-108340510D01*
X75923382Y-108347383D01*
X75923383Y-108347384D01*
X75928093Y-108352987D01*
X76000639Y-108439291D01*
X76016996Y-108450179D01*
X76092683Y-108500560D01*
X76108060Y-108510796D01*
X76231233Y-108549278D01*
X76240203Y-108549442D01*
X76240207Y-108549443D01*
X76298942Y-108550519D01*
X76360255Y-108551643D01*
X76440461Y-108529776D01*
X76476092Y-108520062D01*
X76476093Y-108520062D01*
X76484755Y-108517700D01*
X76492405Y-108513003D01*
X76492407Y-108513002D01*
X76587072Y-108454878D01*
X76587075Y-108454875D01*
X76594724Y-108450179D01*
X76603966Y-108439969D01*
X76675300Y-108361161D01*
X76675303Y-108361157D01*
X76681322Y-108354507D01*
X76685234Y-108346434D01*
X76685236Y-108346430D01*
X76707028Y-108301451D01*
X76754730Y-108248868D01*
X76823289Y-108230422D01*
X76890936Y-108251970D01*
X76909515Y-108267294D01*
X76912507Y-108270286D01*
X76919399Y-108280601D01*
X76929714Y-108287493D01*
X76972464Y-108316057D01*
X76972465Y-108316058D01*
X76990161Y-108327882D01*
X77002259Y-108335966D01*
X77100000Y-108355408D01*
X77112171Y-108352987D01*
X77112172Y-108352987D01*
X77112504Y-108352921D01*
X77137085Y-108350500D01*
X79931314Y-108350500D01*
X79999435Y-108370502D01*
X80027765Y-108395425D01*
X80058861Y-108432418D01*
X80058863Y-108432420D01*
X80064639Y-108439291D01*
X80072110Y-108444264D01*
X80072111Y-108444265D01*
X80159986Y-108502759D01*
X80172060Y-108510796D01*
X80295233Y-108549278D01*
X80304203Y-108549442D01*
X80304207Y-108549443D01*
X80362942Y-108550519D01*
X80424255Y-108551643D01*
X80504461Y-108529776D01*
X80540092Y-108520062D01*
X80540093Y-108520062D01*
X80548755Y-108517700D01*
X80556405Y-108513003D01*
X80556407Y-108513002D01*
X80651072Y-108454878D01*
X80651075Y-108454875D01*
X80658724Y-108450179D01*
X80667966Y-108439969D01*
X80739300Y-108361161D01*
X80739303Y-108361157D01*
X80745322Y-108354507D01*
X80749234Y-108346434D01*
X80749236Y-108346430D01*
X80761864Y-108320365D01*
X80809566Y-108267782D01*
X80878124Y-108249336D01*
X80945772Y-108270883D01*
X80990584Y-108324554D01*
X80993988Y-108332290D01*
X80997605Y-108340510D01*
X81003382Y-108347383D01*
X81003383Y-108347384D01*
X81008093Y-108352987D01*
X81080639Y-108439291D01*
X81096996Y-108450179D01*
X81172683Y-108500560D01*
X81188060Y-108510796D01*
X81311233Y-108549278D01*
X81320203Y-108549442D01*
X81320207Y-108549443D01*
X81378942Y-108550519D01*
X81440255Y-108551643D01*
X81520461Y-108529776D01*
X81556092Y-108520062D01*
X81556093Y-108520062D01*
X81564755Y-108517700D01*
X81572405Y-108513003D01*
X81572407Y-108513002D01*
X81667072Y-108454878D01*
X81667075Y-108454875D01*
X81674724Y-108450179D01*
X81683966Y-108439969D01*
X81755300Y-108361161D01*
X81755303Y-108361157D01*
X81761322Y-108354507D01*
X81817588Y-108238375D01*
X81820296Y-108222283D01*
X81838190Y-108115917D01*
X81838997Y-108111120D01*
X81839133Y-108100000D01*
X81820839Y-107972259D01*
X81805423Y-107938353D01*
X81771145Y-107862962D01*
X81771143Y-107862959D01*
X81767428Y-107854788D01*
X81704377Y-107781613D01*
X81689051Y-107763826D01*
X81689049Y-107763824D01*
X81683193Y-107757028D01*
X81574906Y-107686841D01*
X81566311Y-107684271D01*
X81566310Y-107684270D01*
X81459874Y-107652438D01*
X81459872Y-107652438D01*
X81451273Y-107649866D01*
X81442298Y-107649811D01*
X81442297Y-107649811D01*
X81411170Y-107649621D01*
X81338862Y-107649180D01*
X81270866Y-107628762D01*
X81250537Y-107612277D01*
X81154335Y-107516075D01*
X81120309Y-107453763D01*
X81125374Y-107382948D01*
X81167921Y-107326112D01*
X81234441Y-107301301D01*
X81243430Y-107300980D01*
X84598456Y-107300980D01*
X84666577Y-107320982D01*
G37*
G04 #@! TD.AperFunction*
G04 #@! TA.AperFunction,Conductor*
G36*
X68477422Y-100947502D02*
G01*
X68523915Y-101001158D01*
X68534019Y-101071432D01*
X68504525Y-101136012D01*
X68494251Y-101146196D01*
X68488753Y-101149665D01*
X68403330Y-101246388D01*
X68399516Y-101254511D01*
X68399515Y-101254513D01*
X68373528Y-101309864D01*
X68348488Y-101363198D01*
X68347108Y-101372064D01*
X68330016Y-101481833D01*
X68330016Y-101481837D01*
X68328635Y-101490706D01*
X68329799Y-101499608D01*
X68329799Y-101499611D01*
X68344202Y-101609755D01*
X68344203Y-101609759D01*
X68345367Y-101618660D01*
X68348984Y-101626880D01*
X68372563Y-101680468D01*
X68383234Y-101731214D01*
X68383234Y-103760962D01*
X68371289Y-103814510D01*
X68366919Y-103823818D01*
X68319863Y-103876980D01*
X68251536Y-103896263D01*
X68183630Y-103875544D01*
X68163769Y-103859365D01*
X68064416Y-103760012D01*
X68030390Y-103697700D01*
X68027511Y-103670917D01*
X68027511Y-103645084D01*
X68040119Y-103590145D01*
X68060599Y-103547875D01*
X68082008Y-103420620D01*
X68082144Y-103409500D01*
X68063850Y-103281759D01*
X68034327Y-103216826D01*
X68014156Y-103172462D01*
X68014154Y-103172459D01*
X68010439Y-103164288D01*
X67957269Y-103102581D01*
X67932062Y-103073326D01*
X67932060Y-103073324D01*
X67926204Y-103066528D01*
X67817917Y-102996341D01*
X67809322Y-102993771D01*
X67809321Y-102993770D01*
X67702885Y-102961938D01*
X67702883Y-102961938D01*
X67694284Y-102959366D01*
X67685309Y-102959311D01*
X67685308Y-102959311D01*
X67630652Y-102958977D01*
X67565242Y-102958578D01*
X67441166Y-102994039D01*
X67437639Y-102996264D01*
X67369684Y-103005496D01*
X67306072Y-102976146D01*
X67280135Y-102953671D01*
X67272452Y-102952000D01*
X65479000Y-102952000D01*
X65410879Y-102931998D01*
X65364386Y-102878342D01*
X65353000Y-102826000D01*
X65353000Y-102583885D01*
X65703000Y-102583885D01*
X65707475Y-102599124D01*
X65708865Y-102600329D01*
X65716548Y-102602000D01*
X67267884Y-102602000D01*
X67283123Y-102597525D01*
X67284328Y-102596135D01*
X67285999Y-102588452D01*
X67285999Y-102557331D01*
X67285629Y-102550510D01*
X67280105Y-102499648D01*
X67276478Y-102484393D01*
X67271544Y-102471231D01*
X67266360Y-102400424D01*
X67271544Y-102382769D01*
X67276477Y-102369610D01*
X67280105Y-102354351D01*
X67285631Y-102303486D01*
X67286000Y-102296672D01*
X67286000Y-102270115D01*
X67281525Y-102254876D01*
X67280135Y-102253671D01*
X67272452Y-102252000D01*
X65721115Y-102252000D01*
X65705876Y-102256475D01*
X65704671Y-102257865D01*
X65703000Y-102265548D01*
X65703000Y-102583885D01*
X65353000Y-102583885D01*
X65353000Y-102028000D01*
X65373002Y-101959879D01*
X65426658Y-101913386D01*
X65479000Y-101902000D01*
X67267884Y-101902000D01*
X67283123Y-101897525D01*
X67284328Y-101896135D01*
X67285999Y-101888452D01*
X67285999Y-101857331D01*
X67285629Y-101850510D01*
X67280105Y-101799648D01*
X67276479Y-101784396D01*
X67231324Y-101663946D01*
X67222786Y-101648351D01*
X67146285Y-101546276D01*
X67133724Y-101533715D01*
X67031649Y-101457214D01*
X67016055Y-101448676D01*
X67010273Y-101446509D01*
X66953508Y-101403869D01*
X66928806Y-101337308D01*
X66928500Y-101328526D01*
X66928500Y-101187180D01*
X66919767Y-101143278D01*
X66906550Y-101123498D01*
X66885338Y-101055746D01*
X66904122Y-100987280D01*
X66956941Y-100939838D01*
X67011318Y-100927500D01*
X68409301Y-100927500D01*
X68477422Y-100947502D01*
G37*
G04 #@! TD.AperFunction*
G04 #@! TA.AperFunction,Conductor*
G36*
X84210145Y-87503832D02*
G01*
X84231119Y-87520735D01*
X90209728Y-93499344D01*
X90225398Y-93518436D01*
X90233876Y-93531124D01*
X90256877Y-93546493D01*
X90256878Y-93546494D01*
X90325005Y-93592015D01*
X90432500Y-93613397D01*
X90447461Y-93610421D01*
X90472043Y-93608000D01*
X90538500Y-93608000D01*
X90606621Y-93628002D01*
X90653114Y-93681658D01*
X90664500Y-93734000D01*
X90664500Y-93772320D01*
X90673233Y-93816222D01*
X90680127Y-93826540D01*
X90680128Y-93826542D01*
X90699601Y-93855685D01*
X90706496Y-93866004D01*
X90712531Y-93870036D01*
X90744847Y-93929217D01*
X90739782Y-94000032D01*
X90697235Y-94056868D01*
X90630715Y-94081679D01*
X90621726Y-94082000D01*
X87117000Y-94082000D01*
X87048879Y-94061998D01*
X87002386Y-94008342D01*
X86991000Y-93956000D01*
X86991000Y-92071576D01*
X87011002Y-92003455D01*
X87031089Y-91980762D01*
X87031224Y-91980679D01*
X87088048Y-91917901D01*
X87111800Y-91891661D01*
X87111803Y-91891657D01*
X87117822Y-91885007D01*
X87174088Y-91768875D01*
X87188568Y-91682809D01*
X87194690Y-91646417D01*
X87195497Y-91641620D01*
X87195633Y-91630500D01*
X87187253Y-91571985D01*
X87178612Y-91511645D01*
X87178611Y-91511642D01*
X87177339Y-91502759D01*
X87173129Y-91493500D01*
X87127645Y-91393462D01*
X87127643Y-91393459D01*
X87123928Y-91385288D01*
X87071327Y-91324241D01*
X87045551Y-91294326D01*
X87045549Y-91294324D01*
X87039693Y-91287528D01*
X86931406Y-91217341D01*
X86922811Y-91214771D01*
X86922810Y-91214770D01*
X86816374Y-91182938D01*
X86816372Y-91182938D01*
X86807773Y-91180366D01*
X86798798Y-91180311D01*
X86798797Y-91180311D01*
X86744141Y-91179977D01*
X86678731Y-91179578D01*
X86638973Y-91190941D01*
X86563286Y-91212572D01*
X86563284Y-91212573D01*
X86554655Y-91215039D01*
X86525635Y-91233349D01*
X86478834Y-91262879D01*
X86445519Y-91283899D01*
X86420342Y-91312407D01*
X86360256Y-91350226D01*
X86325900Y-91355000D01*
X84691613Y-91355000D01*
X84623492Y-91334998D01*
X84596160Y-91311248D01*
X84546051Y-91253093D01*
X84546049Y-91253091D01*
X84540193Y-91246295D01*
X84431906Y-91176108D01*
X84423311Y-91173538D01*
X84423310Y-91173537D01*
X84316874Y-91141705D01*
X84316872Y-91141705D01*
X84308273Y-91139133D01*
X84299298Y-91139078D01*
X84299297Y-91139078D01*
X84244641Y-91138744D01*
X84179231Y-91138345D01*
X84129473Y-91152566D01*
X84063786Y-91171339D01*
X84063784Y-91171340D01*
X84055155Y-91173806D01*
X84042097Y-91182045D01*
X83986157Y-91217341D01*
X83946019Y-91242666D01*
X83940076Y-91249395D01*
X83940075Y-91249396D01*
X83883764Y-91313156D01*
X83860596Y-91339389D01*
X83856781Y-91347514D01*
X83856780Y-91347516D01*
X83836326Y-91391082D01*
X83789270Y-91444245D01*
X83720942Y-91463527D01*
X83653036Y-91442808D01*
X83607112Y-91388665D01*
X83596271Y-91337534D01*
X83596271Y-91313162D01*
X83596270Y-91313156D01*
X83596270Y-91281248D01*
X83593207Y-91271821D01*
X83593206Y-91271814D01*
X83589474Y-91260328D01*
X83584860Y-91241108D01*
X83582970Y-91229174D01*
X83582968Y-91229166D01*
X83581417Y-91219377D01*
X83576917Y-91210546D01*
X83576916Y-91210542D01*
X83571429Y-91199774D01*
X83563865Y-91181513D01*
X83557067Y-91160591D01*
X83546174Y-91145599D01*
X83544139Y-91142797D01*
X83533809Y-91125940D01*
X83528323Y-91115174D01*
X83528322Y-91115173D01*
X83523821Y-91106339D01*
X83434113Y-91016631D01*
X82611999Y-90194516D01*
X82611995Y-90194513D01*
X82589432Y-90171950D01*
X82569836Y-90161965D01*
X82552983Y-90151639D01*
X82535180Y-90138704D01*
X82514256Y-90131905D01*
X82495996Y-90124341D01*
X82485231Y-90118856D01*
X82485227Y-90118855D01*
X82476394Y-90114354D01*
X82466603Y-90112803D01*
X82466602Y-90112803D01*
X82454668Y-90110913D01*
X82435443Y-90106297D01*
X82423958Y-90102565D01*
X82423954Y-90102564D01*
X82414523Y-90099500D01*
X80217972Y-90099500D01*
X80168735Y-90088675D01*
X80165906Y-90086841D01*
X80149960Y-90082072D01*
X80050874Y-90052438D01*
X80050872Y-90052438D01*
X80042273Y-90049866D01*
X80033298Y-90049811D01*
X80033297Y-90049811D01*
X79978641Y-90049477D01*
X79913231Y-90049078D01*
X79901475Y-90052438D01*
X79797786Y-90082072D01*
X79797784Y-90082073D01*
X79789155Y-90084539D01*
X79781565Y-90089328D01*
X79708164Y-90135641D01*
X79680019Y-90153399D01*
X79674076Y-90160128D01*
X79674075Y-90160129D01*
X79606351Y-90236812D01*
X79594596Y-90250122D01*
X79539754Y-90366932D01*
X79538374Y-90375798D01*
X79521282Y-90485567D01*
X79521282Y-90485571D01*
X79519901Y-90494440D01*
X79521065Y-90503342D01*
X79521065Y-90503345D01*
X79535468Y-90613489D01*
X79535469Y-90613493D01*
X79536633Y-90622394D01*
X79588605Y-90740510D01*
X79594382Y-90747383D01*
X79594383Y-90747384D01*
X79669951Y-90837283D01*
X79698472Y-90902298D01*
X79699500Y-90918358D01*
X79699500Y-91300547D01*
X79697079Y-91325129D01*
X79694103Y-91340090D01*
X79699500Y-91367222D01*
X79699500Y-91367223D01*
X79715485Y-91447585D01*
X79722379Y-91457903D01*
X79722380Y-91457905D01*
X79735406Y-91477399D01*
X79735413Y-91477410D01*
X79756139Y-91508428D01*
X79756141Y-91508430D01*
X79776376Y-91538714D01*
X79786692Y-91545607D01*
X79786693Y-91545608D01*
X79789064Y-91547192D01*
X79808156Y-91562862D01*
X80926792Y-92681498D01*
X80960818Y-92743810D01*
X80963461Y-92769888D01*
X80962356Y-92776985D01*
X80963520Y-92785887D01*
X80963520Y-92785889D01*
X80977923Y-92896034D01*
X80977924Y-92896038D01*
X80979088Y-92904939D01*
X80982705Y-92913159D01*
X81017334Y-92991859D01*
X81031060Y-93023055D01*
X81036837Y-93029928D01*
X81036838Y-93029929D01*
X81059594Y-93057000D01*
X81114094Y-93121836D01*
X81221515Y-93193341D01*
X81344688Y-93231823D01*
X81353658Y-93231987D01*
X81353662Y-93231988D01*
X81412397Y-93233064D01*
X81473710Y-93234188D01*
X81550751Y-93213184D01*
X81589547Y-93202607D01*
X81589548Y-93202607D01*
X81598210Y-93200245D01*
X81605860Y-93195548D01*
X81605862Y-93195547D01*
X81700527Y-93137423D01*
X81700530Y-93137420D01*
X81708179Y-93132724D01*
X81714205Y-93126067D01*
X81788755Y-93043706D01*
X81788758Y-93043702D01*
X81794777Y-93037052D01*
X81851043Y-92920920D01*
X81857167Y-92884523D01*
X81871645Y-92798462D01*
X81872452Y-92793665D01*
X81872588Y-92782545D01*
X81864366Y-92725135D01*
X81855567Y-92663690D01*
X81855566Y-92663687D01*
X81854294Y-92654804D01*
X81850580Y-92646635D01*
X81804600Y-92545507D01*
X81804598Y-92545504D01*
X81800883Y-92537333D01*
X81752432Y-92481102D01*
X81722506Y-92446371D01*
X81722504Y-92446369D01*
X81716648Y-92439573D01*
X81608361Y-92369386D01*
X81599766Y-92366816D01*
X81599765Y-92366815D01*
X81493329Y-92334983D01*
X81493327Y-92334983D01*
X81484728Y-92332411D01*
X81475753Y-92332356D01*
X81475752Y-92332356D01*
X81432908Y-92332095D01*
X81407891Y-92331942D01*
X81339894Y-92311524D01*
X81319565Y-92295039D01*
X81188890Y-92164364D01*
X81154864Y-92102052D01*
X81159929Y-92031237D01*
X81202476Y-91974401D01*
X81212056Y-91967894D01*
X81220157Y-91962920D01*
X81301126Y-91913205D01*
X81331208Y-91879971D01*
X81391751Y-91842889D01*
X81424623Y-91838526D01*
X81446069Y-91838526D01*
X81514190Y-91858528D01*
X81535164Y-91875431D01*
X82048165Y-92388432D01*
X82063832Y-92407521D01*
X82072312Y-92420211D01*
X82082625Y-92427102D01*
X82095313Y-92435580D01*
X82094456Y-92436863D01*
X82094462Y-92436867D01*
X82095319Y-92435584D01*
X82101289Y-92439573D01*
X82163441Y-92481102D01*
X82243803Y-92497087D01*
X82258764Y-92500063D01*
X82258765Y-92500063D01*
X82270936Y-92502484D01*
X82285897Y-92499508D01*
X82310479Y-92497087D01*
X82352106Y-92497087D01*
X82420227Y-92517089D01*
X82441201Y-92533992D01*
X84119595Y-94212386D01*
X84153621Y-94274698D01*
X84156500Y-94301481D01*
X84156500Y-94683667D01*
X84136498Y-94751788D01*
X84124943Y-94767073D01*
X84051596Y-94850122D01*
X84034457Y-94886627D01*
X83987402Y-94939789D01*
X83919074Y-94959072D01*
X83851168Y-94938353D01*
X83831307Y-94922174D01*
X83308720Y-94399587D01*
X83293050Y-94380494D01*
X83292857Y-94380205D01*
X83292855Y-94380203D01*
X83285963Y-94369888D01*
X83275648Y-94362996D01*
X83275646Y-94362994D01*
X83230008Y-94332500D01*
X83230007Y-94332500D01*
X83203103Y-94314523D01*
X83105362Y-94295081D01*
X83093191Y-94297502D01*
X83093190Y-94297502D01*
X83092858Y-94297568D01*
X83068277Y-94299989D01*
X80954596Y-94299989D01*
X80930015Y-94297568D01*
X80929683Y-94297502D01*
X80929682Y-94297502D01*
X80917511Y-94295081D01*
X80892837Y-94299989D01*
X80819771Y-94314523D01*
X80809454Y-94321417D01*
X80809453Y-94321417D01*
X80798947Y-94328437D01*
X80736910Y-94369888D01*
X80730018Y-94380203D01*
X80730016Y-94380205D01*
X80729823Y-94380494D01*
X80714153Y-94399587D01*
X80500925Y-94612815D01*
X80438613Y-94646841D01*
X80411061Y-94649718D01*
X80369481Y-94649464D01*
X80306231Y-94649078D01*
X80244193Y-94666808D01*
X80190786Y-94682072D01*
X80190784Y-94682073D01*
X80182155Y-94684539D01*
X80174565Y-94689328D01*
X80091607Y-94741671D01*
X80073019Y-94753399D01*
X80067076Y-94760128D01*
X80067075Y-94760129D01*
X80004566Y-94830907D01*
X79987596Y-94850122D01*
X79983782Y-94858245D01*
X79983781Y-94858247D01*
X79958597Y-94911888D01*
X79932754Y-94966932D01*
X79929759Y-94986167D01*
X79914282Y-95085567D01*
X79914282Y-95085571D01*
X79912901Y-95094440D01*
X79914065Y-95103342D01*
X79914065Y-95103345D01*
X79928468Y-95213489D01*
X79928469Y-95213493D01*
X79929633Y-95222394D01*
X79981605Y-95340510D01*
X80064639Y-95439291D01*
X80172060Y-95510796D01*
X80295233Y-95549278D01*
X80304208Y-95549443D01*
X80312527Y-95550790D01*
X80376573Y-95581427D01*
X80413888Y-95641826D01*
X80412626Y-95712811D01*
X80381475Y-95764264D01*
X75807634Y-100338106D01*
X75745322Y-100372132D01*
X75718539Y-100375011D01*
X74453460Y-100375011D01*
X74385339Y-100355009D01*
X74338846Y-100301353D01*
X74328742Y-100231079D01*
X74331672Y-100218330D01*
X74333588Y-100214375D01*
X74354997Y-100087120D01*
X74355133Y-100076000D01*
X74336839Y-99948259D01*
X74322311Y-99916306D01*
X74287145Y-99838962D01*
X74287143Y-99838959D01*
X74283428Y-99830788D01*
X74199193Y-99733028D01*
X74090906Y-99662841D01*
X74082311Y-99660271D01*
X74082310Y-99660270D01*
X73975874Y-99628438D01*
X73975872Y-99628438D01*
X73967273Y-99625866D01*
X73958298Y-99625811D01*
X73958297Y-99625811D01*
X73915453Y-99625550D01*
X73890436Y-99625397D01*
X73822439Y-99604979D01*
X73802110Y-99588494D01*
X73637894Y-99424278D01*
X73603868Y-99361966D01*
X73600989Y-99335183D01*
X73600989Y-98593965D01*
X73620991Y-98525844D01*
X73674647Y-98479351D01*
X73744921Y-98469247D01*
X73764555Y-98473696D01*
X73827233Y-98493278D01*
X73836203Y-98493442D01*
X73836207Y-98493443D01*
X73894942Y-98494519D01*
X73956255Y-98495643D01*
X74018505Y-98478672D01*
X74072092Y-98464062D01*
X74072093Y-98464062D01*
X74080755Y-98461700D01*
X74088405Y-98457003D01*
X74088407Y-98457002D01*
X74183072Y-98398878D01*
X74183075Y-98398875D01*
X74190724Y-98394179D01*
X74220809Y-98360942D01*
X74271300Y-98305161D01*
X74271303Y-98305157D01*
X74277322Y-98298507D01*
X74333588Y-98182375D01*
X74337135Y-98161296D01*
X74354190Y-98059917D01*
X74354997Y-98055120D01*
X74355133Y-98044000D01*
X74354877Y-98042215D01*
X74370229Y-97973756D01*
X74395548Y-97946248D01*
X74393563Y-97944263D01*
X74402342Y-97935484D01*
X74412655Y-97928593D01*
X74421836Y-97914854D01*
X74432325Y-97899156D01*
X74466647Y-97847789D01*
X74472325Y-97839291D01*
X74473546Y-97837464D01*
X74489531Y-97757102D01*
X74489531Y-97757101D01*
X74491464Y-97747384D01*
X74492507Y-97742141D01*
X74492507Y-97742140D01*
X74494928Y-97729969D01*
X74491952Y-97715008D01*
X74489531Y-97690426D01*
X74489531Y-94064793D01*
X74509533Y-93996672D01*
X74526436Y-93975698D01*
X74732465Y-93769669D01*
X75417001Y-93769669D01*
X75417371Y-93776490D01*
X75422895Y-93827352D01*
X75426521Y-93842604D01*
X75471676Y-93963054D01*
X75480214Y-93978649D01*
X75556715Y-94080724D01*
X75569276Y-94093285D01*
X75671351Y-94169786D01*
X75686946Y-94178324D01*
X75807394Y-94223478D01*
X75822649Y-94227105D01*
X75873514Y-94232631D01*
X75880328Y-94233000D01*
X76077885Y-94233000D01*
X76093124Y-94228525D01*
X76094329Y-94227135D01*
X76096000Y-94219452D01*
X76096000Y-94214884D01*
X76604000Y-94214884D01*
X76608475Y-94230123D01*
X76609865Y-94231328D01*
X76617548Y-94232999D01*
X76819669Y-94232999D01*
X76826490Y-94232629D01*
X76877352Y-94227105D01*
X76892604Y-94223479D01*
X77013054Y-94178324D01*
X77028649Y-94169786D01*
X77130724Y-94093285D01*
X77143285Y-94080724D01*
X77219786Y-93978649D01*
X77228325Y-93963052D01*
X77229036Y-93961156D01*
X77230243Y-93959550D01*
X77232634Y-93955182D01*
X77233265Y-93955527D01*
X77271678Y-93904393D01*
X77338240Y-93879694D01*
X77342902Y-93879531D01*
X77350000Y-93880466D01*
X77358188Y-93879388D01*
X77492048Y-93861765D01*
X77500236Y-93860687D01*
X77640233Y-93802698D01*
X77760451Y-93710451D01*
X77762736Y-93707473D01*
X77823217Y-93674447D01*
X77894032Y-93679512D01*
X77936996Y-93707124D01*
X77939549Y-93710451D01*
X78059767Y-93802698D01*
X78199764Y-93860687D01*
X78207952Y-93861765D01*
X78240272Y-93866020D01*
X78350000Y-93880466D01*
X78358188Y-93879388D01*
X78492048Y-93861765D01*
X78500236Y-93860687D01*
X78640233Y-93802698D01*
X78760451Y-93710451D01*
X78762736Y-93707473D01*
X78823217Y-93674447D01*
X78894032Y-93679512D01*
X78936996Y-93707124D01*
X78939549Y-93710451D01*
X79059767Y-93802698D01*
X79199764Y-93860687D01*
X79207952Y-93861765D01*
X79240272Y-93866020D01*
X79350000Y-93880466D01*
X79358188Y-93879388D01*
X79492048Y-93861765D01*
X79500236Y-93860687D01*
X79640233Y-93802698D01*
X79760451Y-93710451D01*
X79852698Y-93590233D01*
X79910687Y-93450236D01*
X79930466Y-93300000D01*
X79910687Y-93149764D01*
X79852698Y-93009767D01*
X79760451Y-92889549D01*
X79640233Y-92797302D01*
X79500236Y-92739313D01*
X79350000Y-92719534D01*
X79199764Y-92739313D01*
X79059767Y-92797302D01*
X78939549Y-92889549D01*
X78937264Y-92892527D01*
X78876783Y-92925553D01*
X78805968Y-92920488D01*
X78763004Y-92892876D01*
X78760451Y-92889549D01*
X78640233Y-92797302D01*
X78500236Y-92739313D01*
X78350000Y-92719534D01*
X78199764Y-92739313D01*
X78059767Y-92797302D01*
X77939549Y-92889549D01*
X77937264Y-92892527D01*
X77876783Y-92925553D01*
X77805968Y-92920488D01*
X77763004Y-92892876D01*
X77760451Y-92889549D01*
X77640233Y-92797302D01*
X77500236Y-92739313D01*
X77350000Y-92719534D01*
X77345406Y-92720139D01*
X77278896Y-92700610D01*
X77232403Y-92646954D01*
X77229036Y-92638844D01*
X77228325Y-92636948D01*
X77219786Y-92621351D01*
X77143285Y-92519276D01*
X77130724Y-92506715D01*
X77028649Y-92430214D01*
X77013054Y-92421676D01*
X76892606Y-92376522D01*
X76877351Y-92372895D01*
X76826486Y-92367369D01*
X76819672Y-92367000D01*
X76622115Y-92367000D01*
X76606876Y-92371475D01*
X76605671Y-92372865D01*
X76604000Y-92380548D01*
X76604000Y-94214884D01*
X76096000Y-94214884D01*
X76096000Y-93572115D01*
X76091525Y-93556876D01*
X76090135Y-93555671D01*
X76082452Y-93554000D01*
X75435116Y-93554000D01*
X75419877Y-93558475D01*
X75418672Y-93559865D01*
X75417001Y-93567548D01*
X75417001Y-93769669D01*
X74732465Y-93769669D01*
X75419229Y-93082905D01*
X75481541Y-93048879D01*
X75508324Y-93046000D01*
X76077885Y-93046000D01*
X76093124Y-93041525D01*
X76094329Y-93040135D01*
X76096000Y-93032452D01*
X76096000Y-92458324D01*
X76116002Y-92390203D01*
X76132905Y-92369229D01*
X80406888Y-88095246D01*
X80469200Y-88061220D01*
X80495983Y-88058341D01*
X82577864Y-88058341D01*
X82645985Y-88078343D01*
X82674313Y-88103263D01*
X82690174Y-88122132D01*
X82797595Y-88193637D01*
X82920768Y-88232119D01*
X82929738Y-88232283D01*
X82929742Y-88232284D01*
X82988477Y-88233360D01*
X83049790Y-88234484D01*
X83149521Y-88207294D01*
X83165627Y-88202903D01*
X83165628Y-88202903D01*
X83174290Y-88200541D01*
X83181940Y-88195844D01*
X83181942Y-88195843D01*
X83276607Y-88137719D01*
X83276610Y-88137716D01*
X83284259Y-88133020D01*
X83290285Y-88126363D01*
X83364835Y-88044002D01*
X83364838Y-88043998D01*
X83370857Y-88037348D01*
X83427123Y-87921216D01*
X83433989Y-87880408D01*
X83447725Y-87798758D01*
X83448532Y-87793961D01*
X83448668Y-87782841D01*
X83436650Y-87698925D01*
X83431647Y-87663986D01*
X83431646Y-87663983D01*
X83430374Y-87655100D01*
X83426660Y-87646931D01*
X83426151Y-87645191D01*
X83426231Y-87574195D01*
X83464682Y-87514512D01*
X83529297Y-87485092D01*
X83547087Y-87483830D01*
X84142024Y-87483830D01*
X84210145Y-87503832D01*
G37*
G04 #@! TD.AperFunction*
G04 #@! TA.AperFunction,Conductor*
G36*
X72071927Y-95811334D02*
G01*
X72090504Y-95826658D01*
X72397595Y-96133749D01*
X72431621Y-96196061D01*
X72434500Y-96222844D01*
X72434500Y-97083667D01*
X72414498Y-97151788D01*
X72402943Y-97167073D01*
X72329596Y-97250122D01*
X72325782Y-97258245D01*
X72325781Y-97258247D01*
X72322856Y-97264477D01*
X72274754Y-97366932D01*
X72265626Y-97425558D01*
X72256282Y-97485567D01*
X72256282Y-97485571D01*
X72254901Y-97494440D01*
X72256065Y-97503342D01*
X72256065Y-97503345D01*
X72270468Y-97613489D01*
X72270469Y-97613493D01*
X72271633Y-97622394D01*
X72275250Y-97630614D01*
X72313612Y-97717798D01*
X72323605Y-97740510D01*
X72329382Y-97747383D01*
X72329383Y-97747384D01*
X72374031Y-97800499D01*
X72406639Y-97839291D01*
X72514060Y-97910796D01*
X72571025Y-97928593D01*
X72627535Y-97946248D01*
X72637233Y-97949278D01*
X72646203Y-97949442D01*
X72646207Y-97949443D01*
X72704942Y-97950519D01*
X72766255Y-97951643D01*
X72890755Y-97917700D01*
X72891768Y-97921417D01*
X72944196Y-97914854D01*
X73008227Y-97945522D01*
X73045514Y-98005939D01*
X73049989Y-98039223D01*
X73049989Y-99344666D01*
X73029987Y-99412787D01*
X72976331Y-99459280D01*
X72906057Y-99469384D01*
X72841477Y-99439890D01*
X72834894Y-99433761D01*
X71827231Y-98426098D01*
X71811561Y-98407005D01*
X71811368Y-98406716D01*
X71811366Y-98406714D01*
X71804474Y-98396399D01*
X71751409Y-98360943D01*
X71739946Y-98353283D01*
X71731933Y-98347929D01*
X71731932Y-98347929D01*
X71721614Y-98341034D01*
X71623873Y-98321592D01*
X71611702Y-98324013D01*
X71611701Y-98324013D01*
X71611369Y-98324079D01*
X71586788Y-98326500D01*
X67398646Y-98326500D01*
X67330525Y-98306498D01*
X67284032Y-98252842D01*
X67273928Y-98182568D01*
X67276063Y-98171355D01*
X67280105Y-98154354D01*
X67285631Y-98103486D01*
X67286000Y-98096672D01*
X67286000Y-98070115D01*
X67281525Y-98054876D01*
X67280135Y-98053671D01*
X67272452Y-98052000D01*
X64404989Y-98052000D01*
X64336868Y-98031998D01*
X64290375Y-97978342D01*
X64278989Y-97926000D01*
X64278989Y-97828989D01*
X64298991Y-97760868D01*
X64352647Y-97714375D01*
X64404989Y-97702989D01*
X66590426Y-97702989D01*
X66615007Y-97705410D01*
X66615339Y-97705476D01*
X66615340Y-97705476D01*
X66627511Y-97707897D01*
X66639682Y-97705476D01*
X66639683Y-97705476D01*
X66644987Y-97704421D01*
X66669568Y-97702000D01*
X67267884Y-97702000D01*
X67283123Y-97697525D01*
X67284328Y-97696135D01*
X67285999Y-97688452D01*
X67285999Y-97657331D01*
X67285629Y-97650510D01*
X67280105Y-97599648D01*
X67276479Y-97584396D01*
X67231324Y-97463946D01*
X67222786Y-97448351D01*
X67186823Y-97400366D01*
X67161975Y-97333859D01*
X67177028Y-97264477D01*
X67198554Y-97235706D01*
X68246855Y-96187405D01*
X68309167Y-96153379D01*
X68335950Y-96150500D01*
X71201935Y-96150500D01*
X71226516Y-96152921D01*
X71226848Y-96152987D01*
X71226849Y-96152987D01*
X71239020Y-96155408D01*
X71251191Y-96152987D01*
X71324590Y-96138387D01*
X71336761Y-96135966D01*
X71360944Y-96119807D01*
X71433256Y-96098592D01*
X71474468Y-96099347D01*
X71546255Y-96100663D01*
X71642098Y-96074533D01*
X71662092Y-96069082D01*
X71662093Y-96069082D01*
X71670755Y-96066720D01*
X71678405Y-96062023D01*
X71678407Y-96062022D01*
X71773072Y-96003898D01*
X71773075Y-96003895D01*
X71780724Y-95999199D01*
X71786750Y-95992542D01*
X71861300Y-95910181D01*
X71861303Y-95910177D01*
X71867322Y-95903527D01*
X71888017Y-95860813D01*
X71935721Y-95808231D01*
X72004279Y-95789786D01*
X72071927Y-95811334D01*
G37*
G04 #@! TD.AperFunction*
M02*
