G04 #@! TF.GenerationSoftware,KiCad,Pcbnew,(6.0.0-0)*
G04 #@! TF.CreationDate,2022-02-02T23:41:51+10:00*
G04 #@! TF.ProjectId,osw-light,6f73772d-6c69-4676-9874-2e6b69636164,3.3*
G04 #@! TF.SameCoordinates,Original*
G04 #@! TF.FileFunction,Other,User*
%FSLAX46Y46*%
G04 Gerber Fmt 4.6, Leading zero omitted, Abs format (unit mm)*
G04 Created by KiCad (PCBNEW (6.0.0-0)) date 2022-02-02 23:41:51*
%MOMM*%
%LPD*%
G01*
G04 APERTURE LIST*
%ADD10C,0.050000*%
G04 APERTURE END LIST*
D10*
X57853634Y-123729850D02*
X56821258Y-124762226D01*
X54728222Y-122669190D02*
X55760598Y-121636814D01*
X56821258Y-124762226D02*
X54728222Y-122669190D01*
X55760598Y-121636814D02*
X57853634Y-123729850D01*
X63380928Y-116169520D02*
X63380928Y-117629520D01*
X63380928Y-117629520D02*
X60420928Y-117629520D01*
X60420928Y-117629520D02*
X60420928Y-116169520D01*
X60420928Y-116169520D02*
X63380928Y-116169520D01*
X77640928Y-121319520D02*
X77640928Y-119859520D01*
X80600928Y-119859520D02*
X80600928Y-121319520D01*
X77640928Y-119859520D02*
X80600928Y-119859520D01*
X80600928Y-121319520D02*
X77640928Y-121319520D01*
X83277828Y-102772720D02*
X80317828Y-102772720D01*
X80317828Y-101312720D02*
X83277828Y-101312720D01*
X83277828Y-101312720D02*
X83277828Y-102772720D01*
X80317828Y-102772720D02*
X80317828Y-101312720D01*
X77206428Y-104347520D02*
X77206428Y-102887520D01*
X77206428Y-102887520D02*
X80166428Y-102887520D01*
X80166428Y-104347520D02*
X77206428Y-104347520D01*
X80166428Y-102887520D02*
X80166428Y-104347520D01*
X77206428Y-102760020D02*
X77206428Y-101300020D01*
X77206428Y-101300020D02*
X80166428Y-101300020D01*
X80166428Y-101300020D02*
X80166428Y-102760020D01*
X80166428Y-102760020D02*
X77206428Y-102760020D01*
X72607428Y-99764320D02*
X72607428Y-94364320D01*
X65207428Y-94364320D02*
X65207428Y-99764320D01*
X65207428Y-99764320D02*
X72607428Y-99764320D01*
X72607428Y-94364320D02*
X65207428Y-94364320D01*
X83277828Y-102887520D02*
X83277828Y-104347520D01*
X83277828Y-104347520D02*
X80317828Y-104347520D01*
X80317828Y-104347520D02*
X80317828Y-102887520D01*
X80317828Y-102887520D02*
X83277828Y-102887520D01*
X77600128Y-123109520D02*
X77600128Y-121649520D01*
X80560128Y-123109520D02*
X77600128Y-123109520D01*
X77600128Y-121649520D02*
X80560128Y-121649520D01*
X80560128Y-121649520D02*
X80560128Y-123109520D01*
X65065428Y-95025520D02*
X65065428Y-97985520D01*
X65065428Y-97985520D02*
X63605428Y-97985520D01*
X63605428Y-95025520D02*
X65065428Y-95025520D01*
X63605428Y-97985520D02*
X63605428Y-95025520D01*
X70490928Y-100169520D02*
X73450928Y-100169520D01*
X70490928Y-101629520D02*
X70490928Y-100169520D01*
X73450928Y-100169520D02*
X73450928Y-101629520D01*
X73450928Y-101629520D02*
X70490928Y-101629520D01*
X60920928Y-111889520D02*
X60920928Y-110429520D01*
X63880928Y-110429520D02*
X63880928Y-111889520D01*
X60920928Y-110429520D02*
X63880928Y-110429520D01*
X63880928Y-111889520D02*
X60920928Y-111889520D01*
X60120928Y-117729520D02*
X66420928Y-117729520D01*
X66420928Y-117729520D02*
X66420928Y-121429520D01*
X60120928Y-121429520D02*
X66420928Y-121429520D01*
X60120928Y-117729520D02*
X60120928Y-121429520D01*
X57870928Y-112459520D02*
X57870928Y-115959520D01*
X65570928Y-115959520D02*
X65570928Y-112459520D01*
X57870928Y-115959520D02*
X65570928Y-115959520D01*
X65570928Y-112459520D02*
X57870928Y-112459520D01*
X73890928Y-103479520D02*
X73890928Y-100979520D01*
X76390928Y-103479520D02*
X73890928Y-103479520D01*
X76390928Y-100979520D02*
X76390928Y-103479520D01*
X73890928Y-100979520D02*
X76390928Y-100979520D01*
X63460928Y-116149520D02*
X66420928Y-116149520D01*
X66420928Y-116149520D02*
X66420928Y-117609520D01*
X63460928Y-117609520D02*
X63460928Y-116149520D01*
X66420928Y-117609520D02*
X63460928Y-117609520D01*
X54840928Y-117139520D02*
X56300928Y-117139520D01*
X54840928Y-120099520D02*
X54840928Y-117139520D01*
X56300928Y-117139520D02*
X56300928Y-120099520D01*
X56300928Y-120099520D02*
X54840928Y-120099520D01*
X80800528Y-119753120D02*
X83760528Y-119753120D01*
X83760528Y-121213120D02*
X80800528Y-121213120D01*
X80800528Y-121213120D02*
X80800528Y-119753120D01*
X83760528Y-119753120D02*
X83760528Y-121213120D01*
X60830928Y-108029520D02*
X65430928Y-108029520D01*
X60830928Y-110329520D02*
X60830928Y-108029520D01*
X65430928Y-108029520D02*
X65430928Y-110329520D01*
X65430928Y-110329520D02*
X60830928Y-110329520D01*
X65410928Y-107869520D02*
X62450928Y-107869520D01*
X62450928Y-107869520D02*
X62450928Y-106409520D01*
X62450928Y-106409520D02*
X65410928Y-106409520D01*
X65410928Y-106409520D02*
X65410928Y-107869520D01*
X70370928Y-102909520D02*
X67410928Y-102909520D01*
X67410928Y-102909520D02*
X67410928Y-101449520D01*
X67410928Y-101449520D02*
X70370928Y-101449520D01*
X70370928Y-101449520D02*
X70370928Y-102909520D01*
X70380928Y-101339520D02*
X67420928Y-101339520D01*
X70380928Y-99879520D02*
X70380928Y-101339520D01*
X67420928Y-99879520D02*
X70380928Y-99879520D01*
X67420928Y-101339520D02*
X67420928Y-99879520D01*
X63670928Y-101349520D02*
X63670928Y-105449520D01*
X67070928Y-101349520D02*
X63670928Y-101349520D01*
X67070928Y-105449520D02*
X67070928Y-101349520D01*
X63670928Y-105449520D02*
X67070928Y-105449520D01*
X65065428Y-98137020D02*
X65065428Y-101097020D01*
X63605428Y-101097020D02*
X63605428Y-98137020D01*
X63605428Y-98137020D02*
X65065428Y-98137020D01*
X65065428Y-101097020D02*
X63605428Y-101097020D01*
X55470928Y-107559520D02*
X55470928Y-106099520D01*
X58430928Y-107559520D02*
X55470928Y-107559520D01*
X58430928Y-106099520D02*
X58430928Y-107559520D01*
X55470928Y-106099520D02*
X58430928Y-106099520D01*
X55910928Y-102449520D02*
X55910928Y-105409520D01*
X54450928Y-105409520D02*
X54450928Y-102449520D01*
X55910928Y-105409520D02*
X54450928Y-105409520D01*
X54450928Y-102449520D02*
X55910928Y-102449520D01*
X55350928Y-105469520D02*
X55350928Y-106929520D01*
X55350928Y-106929520D02*
X52390928Y-106929520D01*
X52390928Y-105469520D02*
X55350928Y-105469520D01*
X52390928Y-106929520D02*
X52390928Y-105469520D01*
X55250928Y-107469520D02*
X55250928Y-108929520D01*
X52290928Y-107469520D02*
X55250928Y-107469520D01*
X55250928Y-108929520D02*
X52290928Y-108929520D01*
X52290928Y-108929520D02*
X52290928Y-107469520D01*
X59841928Y-102616020D02*
X56001928Y-102616020D01*
X56001928Y-102616020D02*
X56001928Y-106016020D01*
X56001928Y-106016020D02*
X59841928Y-106016020D01*
X59841928Y-106016020D02*
X59841928Y-102616020D01*
X60310928Y-117619520D02*
X57350928Y-117619520D01*
X57350928Y-116159520D02*
X60310928Y-116159520D01*
X60310928Y-116159520D02*
X60310928Y-117619520D01*
X57350928Y-117619520D02*
X57350928Y-116159520D01*
X57820928Y-110549520D02*
X60780928Y-110549520D01*
X60780928Y-112009520D02*
X57820928Y-112009520D01*
X57820928Y-112009520D02*
X57820928Y-110549520D01*
X60780928Y-110549520D02*
X60780928Y-112009520D01*
X55640928Y-110519520D02*
X57100928Y-110519520D01*
X55640928Y-113479520D02*
X55640928Y-110519520D01*
X57100928Y-110519520D02*
X57100928Y-113479520D01*
X57100928Y-113479520D02*
X55640928Y-113479520D01*
X54013127Y-118872802D02*
X55493127Y-121436238D01*
X55493127Y-121436238D02*
X54228729Y-122166238D01*
X54228729Y-122166238D02*
X52748729Y-119602802D01*
X52748729Y-119602802D02*
X54013127Y-118872802D01*
X58715928Y-106409520D02*
X61675928Y-106409520D01*
X58715928Y-107869520D02*
X58715928Y-106409520D01*
X61675928Y-107869520D02*
X58715928Y-107869520D01*
X61675928Y-106409520D02*
X61675928Y-107869520D01*
X63470928Y-102179520D02*
X60510928Y-102179520D01*
X63470928Y-100719520D02*
X63470928Y-102179520D01*
X60510928Y-100719520D02*
X63470928Y-100719520D01*
X60510928Y-102179520D02*
X60510928Y-100719520D01*
X55670928Y-108019520D02*
X60270928Y-108019520D01*
X55670928Y-110319520D02*
X55670928Y-108019520D01*
X60270928Y-110319520D02*
X55670928Y-110319520D01*
X60270928Y-108019520D02*
X60270928Y-110319520D01*
X60560928Y-100609520D02*
X60560928Y-99149520D01*
X63520928Y-99149520D02*
X63520928Y-100609520D01*
X63520928Y-100609520D02*
X60560928Y-100609520D01*
X60560928Y-99149520D02*
X63520928Y-99149520D01*
X60010928Y-102199520D02*
X60010928Y-106299520D01*
X63410928Y-102199520D02*
X60010928Y-102199520D01*
X63410928Y-106299520D02*
X63410928Y-102199520D01*
X60010928Y-106299520D02*
X63410928Y-106299520D01*
X61240928Y-121739520D02*
X62700928Y-121739520D01*
X62700928Y-121739520D02*
X62700928Y-124699520D01*
X61240928Y-124699520D02*
X61240928Y-121739520D01*
X62700928Y-124699520D02*
X61240928Y-124699520D01*
X56400928Y-117689520D02*
X60000928Y-117689520D01*
X56400928Y-121489520D02*
X56400928Y-117689520D01*
X60000928Y-117689520D02*
X60000928Y-121489520D01*
X60000928Y-121489520D02*
X56400928Y-121489520D01*
X55340928Y-113669520D02*
X57240928Y-113669520D01*
X55340928Y-117029520D02*
X55340928Y-113669520D01*
X57240928Y-113669520D02*
X57240928Y-117029520D01*
X57240928Y-117029520D02*
X55340928Y-117029520D01*
X55108428Y-102379020D02*
X55108428Y-100919020D01*
X55108428Y-100919020D02*
X58068428Y-100919020D01*
X58068428Y-102379020D02*
X55108428Y-102379020D01*
X58068428Y-100919020D02*
X58068428Y-102379020D01*
X53840928Y-118749520D02*
X52380928Y-118749520D01*
X53840928Y-115789520D02*
X53840928Y-118749520D01*
X52380928Y-115789520D02*
X53840928Y-115789520D01*
X52380928Y-118749520D02*
X52380928Y-115789520D01*
X60940928Y-121649520D02*
X60940928Y-123109520D01*
X60940928Y-123109520D02*
X57980928Y-123109520D01*
X57980928Y-121649520D02*
X60940928Y-121649520D01*
X57980928Y-123109520D02*
X57980928Y-121649520D01*
X63650928Y-122169520D02*
X74290928Y-122169520D01*
X63650928Y-122169520D02*
X63650928Y-131589520D01*
X63650928Y-131589520D02*
X74290928Y-131589520D01*
X74290928Y-122169520D02*
X74290928Y-131589520D01*
X76962646Y-122252321D02*
X77692646Y-123516719D01*
X77692646Y-123516719D02*
X75129210Y-124996719D01*
X74399210Y-123732321D02*
X76962646Y-122252321D01*
X75129210Y-124996719D02*
X74399210Y-123732321D01*
M02*
