M48
; DRILL file {KiCad (6.0.0-0)} date 2022 February 07, Monday 14:16:54
; FORMAT={-:-/ absolute / inch / decimal}
; #@! TF.CreationDate,2022-02-07T14:16:54+10:00
; #@! TF.GenerationSoftware,Kicad,Pcbnew,(6.0.0-0)
; #@! TF.FileFunction,Plated,1,2,PTH
FMAT,2
INCH
; #@! TA.AperFunction,Plated,PTH,ViaDrill
T1C0.0118
; #@! TA.AperFunction,Plated,PTH,ComponentDrill
T2C0.0157
; #@! TA.AperFunction,Plated,PTH,ComponentDrill
T3C0.0236
%
G90
G05
T1
X2.1145Y-4.7167
X2.1169Y-4.1868
X2.1232Y-4.424
X2.1352Y-4.5024
X2.1465Y-4.7732
X2.1819Y-4.5943
X2.1953Y-4.2291
X2.1963Y-4.5024
X2.2146Y-4.2713
X2.2578Y-4.2657
X2.2701Y-4.6504
X2.2709Y-4.1018
X2.2939Y-4.6191
X2.2952Y-4.4425
X2.2952Y-4.5091
X2.3087Y-4.674
X2.3189Y-4.5384
X2.3427Y-3.9427
X2.3843Y-4.2688
X2.4053Y-4.8196
X2.4221Y-4.1994
X2.4479Y-3.8654
X2.4561Y-4.2685
X2.4575Y-4.4531
X2.4789Y-4.0291
X2.501Y-4.1177
X2.5288Y-4.6811
X2.5518Y-4.2211
X2.623Y-3.8593
X2.6248Y-4.2688
X2.642Y-4.231
X2.6646Y-4.8118
X2.6734Y-4.9179
X2.7043Y-4.0739
X2.7055Y-4.8977
X2.7482Y-4.9117
X2.8179Y-3.9093
X2.8795Y-4.1752
X2.8795Y-4.6653
X2.9195Y-4.6653
X2.9201Y-4.2933
X2.9201Y-4.1535
X2.9329Y-3.9401
X2.95Y-4.0496
X2.9584Y-3.9967
X2.9595Y-4.1535
X2.9829Y-3.8654
X2.9866Y-4.0949
X2.9879Y-3.9836
X2.9903Y-4.034
X3.0247Y-4.8304
X3.0321Y-4.0822
X3.0395Y-4.1535
X3.0395Y-4.6653
X3.0437Y-4.039
X3.1329Y-3.9902
X3.1329Y-4.0665
X3.1595Y-4.1535
X3.1595Y-4.6653
X3.1995Y-4.1535
X3.2114Y-4.8599
X3.2532Y-4.8102
T2
G00X2.2826Y-3.9155
M15
G01X2.2697Y-3.8957
M16
G05
G00X2.2826Y-4.9033
M15
G01X2.2697Y-4.9231
M16
G05
G00X2.4503Y-3.8066
M15
G01X2.4375Y-3.7868
M16
G05
G00X2.4503Y-5.0122
M15
G01X2.4375Y-5.0321
M16
G05
G00X2.9805Y-3.8066
M15
G01X2.9933Y-3.7868
M16
G05
G00X2.9805Y-5.0122
M15
G01X2.9933Y-5.0321
M16
G05
G00X3.1482Y-3.9155
M15
G01X3.1611Y-3.8957
M16
G05
G00X3.1482Y-4.9033
M15
G01X3.1611Y-4.9231
M16
G05
T3
G00X2.5453Y-4.8724
M15
G01X2.5453Y-4.9157
M16
G05
G00X2.5453Y-5.0468
M15
G01X2.5453Y-5.0705
M16
G05
G00X2.8855Y-4.8724
M15
G01X2.8855Y-4.9157
M16
G05
G00X2.8855Y-5.0468
M15
G01X2.8855Y-5.0705
M16
G05
T0
M30
