G04 #@! TF.GenerationSoftware,KiCad,Pcbnew,(6.0.0-0)*
G04 #@! TF.CreationDate,2022-01-30T22:34:31+10:00*
G04 #@! TF.ProjectId,osw-light,6f73772d-6c69-4676-9874-2e6b69636164,3.3*
G04 #@! TF.SameCoordinates,Original*
G04 #@! TF.FileFunction,Legend,Bot*
G04 #@! TF.FilePolarity,Positive*
%FSLAX46Y46*%
G04 Gerber Fmt 4.6, Leading zero omitted, Abs format (unit mm)*
G04 Created by KiCad (PCBNEW (6.0.0-0)) date 2022-01-30 22:34:31*
%MOMM*%
%LPD*%
G01*
G04 APERTURE LIST*
G04 Aperture macros list*
%AMRoundRect*
0 Rectangle with rounded corners*
0 $1 Rounding radius*
0 $2 $3 $4 $5 $6 $7 $8 $9 X,Y pos of 4 corners*
0 Add a 4 corners polygon primitive as box body*
4,1,4,$2,$3,$4,$5,$6,$7,$8,$9,$2,$3,0*
0 Add four circle primitives for the rounded corners*
1,1,$1+$1,$2,$3*
1,1,$1+$1,$4,$5*
1,1,$1+$1,$6,$7*
1,1,$1+$1,$8,$9*
0 Add four rect primitives between the rounded corners*
20,1,$1+$1,$2,$3,$4,$5,0*
20,1,$1+$1,$4,$5,$6,$7,0*
20,1,$1+$1,$6,$7,$8,$9,0*
20,1,$1+$1,$8,$9,$2,$3,0*%
%AMHorizOval*
0 Thick line with rounded ends*
0 $1 width*
0 $2 $3 position (X,Y) of the first rounded end (center of the circle)*
0 $4 $5 position (X,Y) of the second rounded end (center of the circle)*
0 Add line between two ends*
20,1,$1,$2,$3,$4,$5,0*
0 Add two circle primitives to create the rounded ends*
1,1,$1,$2,$3*
1,1,$1,$4,$5*%
G04 Aperture macros list end*
%ADD10C,0.200000*%
%ADD11C,0.100000*%
%ADD12C,0.150000*%
%ADD13O,1.102000X2.202000*%
%ADD14O,1.102000X1.702000*%
%ADD15C,0.752000*%
%ADD16HorizOval,0.702000X0.251623X-0.387466X-0.251623X0.387466X0*%
%ADD17HorizOval,0.702000X-0.251623X-0.387466X0.251623X0.387466X0*%
%ADD18HorizOval,0.702000X-0.251623X0.387466X0.251623X-0.387466X0*%
%ADD19HorizOval,0.702000X0.251623X0.387466X-0.251623X-0.387466X0*%
%ADD20RoundRect,0.051000X0.425000X0.425000X-0.425000X0.425000X-0.425000X-0.425000X0.425000X-0.425000X0*%
%ADD21O,0.952000X0.952000*%
%ADD22RoundRect,0.051000X-0.425000X-0.425000X0.425000X-0.425000X0.425000X0.425000X-0.425000X0.425000X0*%
%ADD23RoundRect,0.051000X0.425000X-0.425000X0.425000X0.425000X-0.425000X0.425000X-0.425000X-0.425000X0*%
%ADD24RoundRect,0.051000X-1.250000X0.175000X-1.250000X-0.175000X1.250000X-0.175000X1.250000X0.175000X0*%
G04 APERTURE END LIST*
D10*
X85794811Y-87098274D02*
X85275634Y-86761116D01*
X85347709Y-87262156D01*
X85227899Y-87184351D01*
X85122091Y-87172417D01*
X85056219Y-87186418D01*
X84964412Y-87240357D01*
X84834736Y-87440040D01*
X84822802Y-87545849D01*
X84836804Y-87611721D01*
X84890742Y-87703528D01*
X85130362Y-87859139D01*
X85236171Y-87871073D01*
X85302042Y-87857071D01*
X85203795Y-116371977D02*
X85224000Y-115791064D01*
X85683036Y-116060755D02*
X85138397Y-115222084D01*
X84818903Y-115429566D01*
X84764965Y-115521373D01*
X84750963Y-115587244D01*
X84762897Y-115693053D01*
X84840703Y-115812863D01*
X84932510Y-115866801D01*
X84998382Y-115880803D01*
X85104190Y-115868869D01*
X85423684Y-115661388D01*
X67176235Y-86840990D02*
X67110363Y-86826988D01*
X67004555Y-86838922D01*
X66804871Y-86968598D01*
X66750933Y-87060405D01*
X66736932Y-87126277D01*
X66748865Y-87232085D01*
X66800736Y-87311959D01*
X66918478Y-87405834D01*
X67708941Y-87573852D01*
X67189764Y-87911009D01*
X66569995Y-115984287D02*
X67049235Y-116295509D01*
X66809615Y-116139898D02*
X67354254Y-115301228D01*
X67356322Y-115472908D01*
X67384325Y-115604652D01*
X67438263Y-115696459D01*
D11*
X58726190Y-102449047D02*
X59130952Y-102449047D01*
X59178571Y-102472857D01*
X59202380Y-102496666D01*
X59226190Y-102544285D01*
X59226190Y-102639523D01*
X59202380Y-102687142D01*
X59178571Y-102710952D01*
X59130952Y-102734761D01*
X58726190Y-102734761D01*
X58892857Y-103187142D02*
X59226190Y-103187142D01*
X58702380Y-103068095D02*
X59059523Y-102949047D01*
X59059523Y-103258571D01*
X63504190Y-98019857D02*
X63504190Y-97734142D01*
X63504190Y-97877000D02*
X63004190Y-97877000D01*
X63075619Y-97829380D01*
X63123238Y-97781761D01*
X63147047Y-97734142D01*
X63554190Y-104981761D02*
X63554190Y-104696047D01*
X63554190Y-104838904D02*
X63054190Y-104838904D01*
X63125619Y-104791285D01*
X63173238Y-104743666D01*
X63197047Y-104696047D01*
X63101809Y-105172238D02*
X63078000Y-105196047D01*
X63054190Y-105243666D01*
X63054190Y-105362714D01*
X63078000Y-105410333D01*
X63101809Y-105434142D01*
X63149428Y-105457952D01*
X63197047Y-105457952D01*
X63268476Y-105434142D01*
X63554190Y-105148428D01*
X63554190Y-105457952D01*
D12*
X59728000Y-108227000D02*
X59508000Y-108227000D01*
X66078000Y-96027000D02*
X59478000Y-96027000D01*
X62728000Y-108227000D02*
X59728000Y-108227000D01*
X63528000Y-107427000D02*
X66128000Y-107427000D01*
X66478000Y-106027000D02*
X66478000Y-107027000D01*
X66478000Y-96427000D02*
X66478000Y-97427000D01*
X62728000Y-108227000D02*
G75*
G03*
X63128000Y-107827000I1J399999D01*
G01*
X66078000Y-107427000D02*
G75*
G03*
X66478000Y-107027000I1J399999D01*
G01*
X66478000Y-96427000D02*
G75*
G03*
X66078000Y-96027000I-399999J1D01*
G01*
X63528000Y-107427000D02*
G75*
G03*
X63128000Y-107827000I-1J-399999D01*
G01*
X62728000Y-107027000D02*
G75*
G03*
X62728000Y-107027000I-500000J0D01*
G01*
X62728000Y-97027000D02*
G75*
G03*
X62728000Y-97027000I-500000J0D01*
G01*
%LPC*%
D13*
X71880000Y-113910000D03*
D14*
X71880000Y-118090000D03*
D13*
X80520000Y-113910000D03*
D14*
X80520000Y-118090000D03*
D15*
X79090000Y-114440000D03*
X73310000Y-114440000D03*
D16*
X87356383Y-114396284D03*
X83095937Y-117163051D03*
D17*
X69304063Y-117163051D03*
X65043617Y-114396284D03*
D18*
X65043617Y-88803716D03*
X69304063Y-86036949D03*
D19*
X83095937Y-86036949D03*
X87356383Y-88803716D03*
D20*
X60640000Y-103417500D03*
D21*
X60640000Y-102417500D03*
D22*
X91240000Y-93332500D03*
D21*
X91240000Y-94332500D03*
D23*
X76350000Y-93300000D03*
D21*
X77350000Y-93300000D03*
X78350000Y-93300000D03*
X79350000Y-93300000D03*
D23*
X76350000Y-109910000D03*
D21*
X77350000Y-109910000D03*
X78350000Y-109910000D03*
X79350000Y-109910000D03*
D24*
X65528000Y-105577000D03*
X65528000Y-104877000D03*
X65528000Y-104177000D03*
X65528000Y-103477000D03*
X65528000Y-102777000D03*
X65528000Y-102077000D03*
X65528000Y-101377000D03*
X65528000Y-100677000D03*
X65528000Y-99977000D03*
X65528000Y-99277000D03*
X65528000Y-98577000D03*
X65528000Y-97877000D03*
M02*
