G04 #@! TF.GenerationSoftware,KiCad,Pcbnew,(6.0.0-0)*
G04 #@! TF.CreationDate,2022-01-16T18:57:30+10:00*
G04 #@! TF.ProjectId,osw-light,6f73772d-6c69-4676-9874-2e6b69636164,3.3*
G04 #@! TF.SameCoordinates,Original*
G04 #@! TF.FileFunction,Copper,L2,Bot*
G04 #@! TF.FilePolarity,Positive*
%FSLAX46Y46*%
G04 Gerber Fmt 4.6, Leading zero omitted, Abs format (unit mm)*
G04 Created by KiCad (PCBNEW (6.0.0-0)) date 2022-01-16 18:57:30*
%MOMM*%
%LPD*%
G01*
G04 APERTURE LIST*
G04 Aperture macros list*
%AMHorizOval*
0 Thick line with rounded ends*
0 $1 width*
0 $2 $3 position (X,Y) of the first rounded end (center of the circle)*
0 $4 $5 position (X,Y) of the second rounded end (center of the circle)*
0 Add line between two ends*
20,1,$1,$2,$3,$4,$5,0*
0 Add two circle primitives to create the rounded ends*
1,1,$1,$2,$3*
1,1,$1,$4,$5*%
G04 Aperture macros list end*
G04 #@! TA.AperFunction,ComponentPad*
%ADD10O,1.000000X2.000000*%
G04 #@! TD*
G04 #@! TA.AperFunction,ComponentPad*
%ADD11O,1.050000X2.100000*%
G04 #@! TD*
G04 #@! TA.AperFunction,ComponentPad*
%ADD12HorizOval,0.600000X0.251623X-0.387466X-0.251623X0.387466X0*%
G04 #@! TD*
G04 #@! TA.AperFunction,ComponentPad*
%ADD13HorizOval,0.600000X-0.251623X-0.387466X0.251623X0.387466X0*%
G04 #@! TD*
G04 #@! TA.AperFunction,ComponentPad*
%ADD14HorizOval,0.600000X-0.251623X0.387466X0.251623X-0.387466X0*%
G04 #@! TD*
G04 #@! TA.AperFunction,ComponentPad*
%ADD15HorizOval,0.600000X0.251623X0.387466X-0.251623X-0.387466X0*%
G04 #@! TD*
G04 #@! TA.AperFunction,ComponentPad*
%ADD16O,1.700000X1.700000*%
G04 #@! TD*
G04 #@! TA.AperFunction,ComponentPad*
%ADD17R,1.700000X1.700000*%
G04 #@! TD*
G04 #@! TA.AperFunction,SMDPad,CuDef*
%ADD18R,2.500000X0.350000*%
G04 #@! TD*
G04 #@! TA.AperFunction,ViaPad*
%ADD19C,0.600000*%
G04 #@! TD*
G04 #@! TA.AperFunction,Conductor*
%ADD20C,0.250000*%
G04 #@! TD*
G04 #@! TA.AperFunction,Conductor*
%ADD21C,0.500000*%
G04 #@! TD*
G04 #@! TA.AperFunction,Conductor*
%ADD22C,0.200000*%
G04 #@! TD*
G04 APERTURE END LIST*
D10*
X71880000Y-117600000D03*
D11*
X71880000Y-113420000D03*
D10*
X80520000Y-117600000D03*
D11*
X80520000Y-113420000D03*
D12*
X83095937Y-117163051D03*
X87356383Y-114396284D03*
D13*
X65043617Y-114396284D03*
X69304063Y-117163051D03*
D14*
X69304063Y-86036949D03*
X65043617Y-88803716D03*
D15*
X87356383Y-88803716D03*
X83095937Y-86036949D03*
D16*
X60642500Y-100901500D03*
D17*
X60642500Y-103441500D03*
D18*
X65528000Y-102077000D03*
X65528000Y-102777000D03*
X65528000Y-103477000D03*
X65528000Y-104177000D03*
X65528000Y-104877000D03*
X65528000Y-105577000D03*
X65528000Y-101377000D03*
X65528000Y-100677000D03*
X65528000Y-99977000D03*
X65528000Y-99277000D03*
X65528000Y-98577000D03*
X65528000Y-97877000D03*
D19*
X76420000Y-105600000D03*
X74930000Y-107120000D03*
X75390000Y-97000000D03*
X72920000Y-101420000D03*
X70100000Y-103830000D03*
X73150000Y-89740000D03*
X79890000Y-93620000D03*
X73140000Y-116550000D03*
X76410000Y-118450000D03*
X78580000Y-115760000D03*
X75340000Y-116520000D03*
X78200000Y-118750000D03*
X73950000Y-118700000D03*
X70510000Y-116350000D03*
X70130000Y-117640000D03*
X63980000Y-114090000D03*
X61960000Y-111890000D03*
X65860000Y-91250000D03*
X81920000Y-85120000D03*
X80730000Y-84690000D03*
X88650000Y-89270000D03*
X91110000Y-92440000D03*
X91810000Y-94180000D03*
X92100000Y-108710000D03*
X89240000Y-112810000D03*
X88430000Y-113760000D03*
X73240000Y-95520000D03*
X81900000Y-96720000D03*
X84080000Y-106380000D03*
X65643767Y-111946233D03*
X68365000Y-112040000D03*
X84217149Y-92542852D03*
X65528000Y-102077000D03*
X68312035Y-115136535D03*
X75506600Y-114562024D03*
X74725765Y-113851549D03*
X73282144Y-110839256D03*
X88684600Y-110083600D03*
X82993535Y-115417159D03*
X88080000Y-95020000D03*
X79975000Y-90500000D03*
X75225000Y-90500000D03*
X87870612Y-90499446D03*
X90334600Y-110083600D03*
X89096000Y-95020000D03*
X71564500Y-90042500D03*
X81417455Y-92782545D03*
X76904000Y-108020000D03*
X83841480Y-90734590D03*
X65575000Y-106510000D03*
X72600000Y-93870989D03*
X70355000Y-106460000D03*
X88251900Y-93218000D03*
X68200000Y-96740000D03*
X71564500Y-85331000D03*
X82330753Y-92846395D03*
X66715000Y-112040000D03*
X75888000Y-95020000D03*
X89851900Y-91643200D03*
X70045000Y-89480000D03*
X71935000Y-96740000D03*
X73000000Y-112845000D03*
X67250000Y-108190000D03*
X65515000Y-111005000D03*
X78425000Y-90500000D03*
X66300000Y-110390000D03*
X67627011Y-103409500D03*
X71895000Y-106460000D03*
X64610000Y-109925000D03*
X69635000Y-113670000D03*
X66088500Y-93916500D03*
X75810000Y-98002500D03*
X66596918Y-89607382D03*
X74500000Y-97964000D03*
X82993535Y-87782841D03*
X86048000Y-108020000D03*
X75779924Y-110104500D03*
X86740500Y-91630500D03*
X84241000Y-91589267D03*
X88080000Y-108020000D03*
X85090500Y-93218000D03*
X85060000Y-105360000D03*
X82496260Y-91634429D03*
X62410000Y-94355000D03*
X89096000Y-108020000D03*
X81010402Y-91563026D03*
X85032000Y-95020000D03*
X63355000Y-96430000D03*
X80968000Y-95020000D03*
X62325000Y-108300000D03*
X76904000Y-95020000D03*
X80968000Y-108020000D03*
X82000000Y-95020000D03*
X81984000Y-108020000D03*
X68764462Y-104037192D03*
X68783734Y-101496266D03*
X65005000Y-96430000D03*
X61775000Y-97800000D03*
X77049011Y-113792901D03*
X70140000Y-108930498D03*
X75950000Y-113702048D03*
X71122048Y-109529999D03*
D20*
X68074064Y-115711046D02*
X76508354Y-115711046D01*
X62325000Y-110358509D02*
X65255255Y-113288764D01*
X65255255Y-113288764D02*
X65531236Y-113288764D01*
X67160000Y-114796982D02*
X68074064Y-115711046D01*
X85091672Y-110504020D02*
X86700000Y-108895692D01*
X65531236Y-113288764D02*
X65645385Y-113402912D01*
X66562912Y-113402912D02*
X67160000Y-114000000D01*
X62325000Y-108300000D02*
X62325000Y-110358509D01*
X86510000Y-107580012D02*
X85309988Y-106380000D01*
X67160000Y-114000000D02*
X67160000Y-114796982D01*
X86700000Y-108895692D02*
X86700000Y-107860000D01*
X85309988Y-106380000D02*
X84080000Y-106380000D01*
X76508354Y-115711046D02*
X78380479Y-113838921D01*
X65645385Y-113402912D02*
X66562912Y-113402912D01*
X78380479Y-113838921D02*
X78380479Y-113599521D01*
X78380479Y-113599521D02*
X81475980Y-110504020D01*
X81475980Y-110504020D02*
X85091672Y-110504020D01*
X86700000Y-107860000D02*
X86510000Y-107670000D01*
X86510000Y-107670000D02*
X86510000Y-107580012D01*
X80520000Y-117600000D02*
X80520000Y-113420000D01*
X68580000Y-95520000D02*
X66320000Y-93260000D01*
X73240000Y-95520000D02*
X68580000Y-95520000D01*
X66320000Y-93260000D02*
X63505000Y-93260000D01*
X63505000Y-93260000D02*
X62410000Y-94355000D01*
X65528000Y-101377000D02*
X64028000Y-101377000D01*
X75313489Y-95386511D02*
X75313489Y-94782029D01*
X64028000Y-101377000D02*
X64003489Y-101352489D01*
X64565489Y-97004511D02*
X67095489Y-97004511D01*
X64003489Y-97566511D02*
X64565489Y-97004511D01*
X64003489Y-101352489D02*
X64003489Y-97566511D01*
X67095489Y-97004511D02*
X67934511Y-96165489D01*
X74530000Y-96170000D02*
X75313489Y-95386511D01*
X76329489Y-94445489D02*
X76904000Y-95020000D01*
X67934511Y-96165489D02*
X74525489Y-96165489D01*
X75313489Y-94782029D02*
X75650029Y-94445489D01*
X74525489Y-96165489D02*
X74530000Y-96170000D01*
X75650029Y-94445489D02*
X76329489Y-94445489D01*
X71935000Y-96740000D02*
X74600000Y-96740000D01*
X74600000Y-96740000D02*
X75888000Y-95452000D01*
X75888000Y-95452000D02*
X75888000Y-95020000D01*
X65528000Y-99277000D02*
X75142006Y-99277000D01*
X75142006Y-99277000D02*
X81670495Y-105805489D01*
X87447497Y-108062503D02*
X87447497Y-108199979D01*
X81670495Y-105805489D02*
X84693007Y-105805489D01*
X84693007Y-105805489D02*
X84822029Y-105934511D01*
X84822029Y-105934511D02*
X85429505Y-105934511D01*
X87502497Y-108007503D02*
X87447497Y-108062503D01*
X88521489Y-108594511D02*
X89096000Y-108020000D01*
X85429505Y-105934511D02*
X87502497Y-108007503D01*
X87447497Y-108199979D02*
X87842029Y-108594511D01*
X87842029Y-108594511D02*
X88521489Y-108594511D01*
X82000000Y-95020000D02*
X79765006Y-97254994D01*
X79765006Y-97254994D02*
X77934994Y-97254994D01*
X77934994Y-97254994D02*
X76213457Y-98976531D01*
X76213457Y-98976531D02*
X75406542Y-98976530D01*
X75406542Y-98976530D02*
X75007012Y-98577000D01*
X75007012Y-98577000D02*
X65528000Y-98577000D01*
X82993535Y-87782841D02*
X80329677Y-87782841D01*
X80329677Y-87782841D02*
X77850489Y-90262029D01*
X77850489Y-90262029D02*
X77850489Y-90720489D01*
X77850489Y-90720489D02*
X77900000Y-90770000D01*
X77900000Y-90770000D02*
X77900000Y-96724982D01*
X77900000Y-96724982D02*
X76047971Y-98577011D01*
X75572029Y-98577011D02*
X74959018Y-97964000D01*
X76047971Y-98577011D02*
X75572029Y-98577011D01*
X74959018Y-97964000D02*
X74500000Y-97964000D01*
X66596918Y-89607382D02*
X71435036Y-94445500D01*
X71435036Y-94445500D02*
X72979494Y-94445500D01*
X72979494Y-94445500D02*
X73379024Y-94045970D01*
X77478511Y-96333989D02*
X75810000Y-98002500D01*
X73379024Y-94045970D02*
X76742452Y-94045970D01*
X76742452Y-94045970D02*
X77478511Y-94782029D01*
X77478511Y-94782029D02*
X77478511Y-96333989D01*
X82574511Y-96045489D02*
X82574511Y-94764511D01*
X82574511Y-94764511D02*
X82255489Y-94445489D01*
X81900000Y-96720000D02*
X82574511Y-96045489D01*
X82255489Y-94445489D02*
X81542511Y-94445489D01*
X81542511Y-94445489D02*
X80968000Y-95020000D01*
D21*
X65630000Y-112645744D02*
X65862648Y-112878392D01*
X64610000Y-109925000D02*
X64610000Y-111901725D01*
X65862648Y-112878392D02*
X66811608Y-112878392D01*
X64610000Y-111901725D02*
X65354019Y-112645744D01*
X65354019Y-112645744D02*
X65630000Y-112645744D01*
X66811608Y-112878392D02*
X67044042Y-113110826D01*
X67044042Y-113110826D02*
X67044042Y-113139031D01*
X65885489Y-111704511D02*
X65643767Y-111946233D01*
X65990009Y-111704511D02*
X65885489Y-111704511D01*
D20*
X68965960Y-111439040D02*
X68365000Y-112040000D01*
D21*
X84146467Y-92542852D02*
X84217149Y-92542852D01*
X83195771Y-91592156D02*
X84146467Y-92542852D01*
D20*
X83841480Y-90734590D02*
X83841480Y-90698520D01*
X83841480Y-90698520D02*
X84650000Y-89890000D01*
X83841480Y-90734590D02*
X86657072Y-90734590D01*
X86657072Y-90734590D02*
X88251900Y-92329418D01*
X88251900Y-92329418D02*
X88251900Y-93218000D01*
D21*
X66960000Y-113054989D02*
X67044042Y-113139031D01*
X67044042Y-113139031D02*
X69104031Y-113139031D01*
X69104031Y-113139031D02*
X69635000Y-113670000D01*
D20*
X71215000Y-106685000D02*
X71670000Y-106685000D01*
X71670000Y-106685000D02*
X71895000Y-106460000D01*
D21*
X71667500Y-106232500D02*
X71215000Y-106685000D01*
X71215000Y-106685000D02*
X67635000Y-110265000D01*
X71667500Y-106232500D02*
X71895000Y-106460000D01*
X67635000Y-110265000D02*
X66425000Y-110265000D01*
X66425000Y-110265000D02*
X66300000Y-110390000D01*
X71115000Y-105680000D02*
X71667500Y-106232500D01*
X69418011Y-105680000D02*
X67627011Y-103889000D01*
X67627011Y-103889000D02*
X67627011Y-103409500D01*
X69418011Y-105680000D02*
X71115000Y-105680000D01*
D20*
X73000000Y-112845000D02*
X72250480Y-112095480D01*
X68602971Y-112614511D02*
X67289511Y-112614511D01*
X72250480Y-112095480D02*
X69122002Y-112095480D01*
X69122002Y-112095480D02*
X68602971Y-112614511D01*
X67289511Y-112614511D02*
X66715000Y-112040000D01*
X72406522Y-111439040D02*
X68965960Y-111439040D01*
X74725765Y-113851549D02*
X74725765Y-113758283D01*
X74725765Y-113758283D02*
X72406522Y-111439040D01*
X76904000Y-108020000D02*
X75205413Y-109718587D01*
X77623522Y-112760580D02*
X77623522Y-114030872D01*
X75205413Y-109718587D02*
X75205413Y-110342471D01*
X77623522Y-114030872D02*
X76517859Y-115136535D01*
X75205413Y-110342471D02*
X77623522Y-112760580D01*
X76517859Y-115136535D02*
X68312035Y-115136535D01*
D22*
X71122048Y-109529999D02*
X72749999Y-109529999D01*
X75275276Y-112055276D02*
X75275276Y-114330700D01*
X75275276Y-114330700D02*
X75506600Y-114562024D01*
X72749999Y-109529999D02*
X75275276Y-112055276D01*
D20*
X89210000Y-107310000D02*
X89000000Y-107310000D01*
X83351041Y-115417159D02*
X88684600Y-110083600D01*
X89720000Y-107820000D02*
X89210000Y-107310000D01*
X89720000Y-109048200D02*
X89720000Y-107820000D01*
X88684600Y-110083600D02*
X89720000Y-109048200D01*
X89000000Y-107310000D02*
X88080000Y-106390000D01*
X82993535Y-115417159D02*
X83351041Y-115417159D01*
X88080000Y-106390000D02*
X88080000Y-95020000D01*
D21*
X72889256Y-110839256D02*
X72813992Y-110914520D01*
X83195771Y-91344681D02*
X83195771Y-91592156D01*
D20*
X90334600Y-107844600D02*
X89096000Y-106606000D01*
D21*
X89096000Y-95020000D02*
X89096000Y-91724834D01*
D20*
X79975000Y-91340090D02*
X81417455Y-92782545D01*
X79975000Y-90500000D02*
X79975000Y-91340090D01*
D21*
X89096000Y-91724834D02*
X87870612Y-90499446D01*
X66780000Y-110914520D02*
X65990009Y-111704511D01*
X79975000Y-90500000D02*
X82351090Y-90500000D01*
X71564500Y-90042500D02*
X72022000Y-90500000D01*
X72813992Y-110914520D02*
X66780000Y-110914520D01*
X73282144Y-110839256D02*
X72889256Y-110839256D01*
X82351090Y-90500000D02*
X83195771Y-91344681D01*
X89096000Y-106606000D02*
X89096000Y-95020000D01*
D20*
X90334600Y-110083600D02*
X90334600Y-107844600D01*
D21*
X72022000Y-90500000D02*
X75225000Y-90500000D01*
D20*
X65725489Y-109714511D02*
X65725489Y-110794511D01*
X70305000Y-106510000D02*
X70355000Y-106460000D01*
X65725489Y-109714511D02*
X67250000Y-108190000D01*
X67063000Y-97877000D02*
X68200000Y-96740000D01*
X65528000Y-102777000D02*
X66029500Y-102777000D01*
X67250000Y-108190000D02*
X67250000Y-108185000D01*
X67052511Y-103027489D02*
X67052511Y-105387489D01*
X70045000Y-89480000D02*
X70045000Y-91315989D01*
X65575000Y-106510000D02*
X70305000Y-106510000D01*
X88098700Y-89890000D02*
X89851900Y-91643200D01*
X81820092Y-93357056D02*
X81179484Y-93357056D01*
X84614511Y-89925489D02*
X84650000Y-89890000D01*
X66029500Y-102777000D02*
X66087500Y-102835000D01*
X65528000Y-105577000D02*
X65528000Y-106463000D01*
X65725489Y-110794511D02*
X65515000Y-111005000D01*
X80842944Y-92917944D02*
X78425000Y-90500000D01*
X68200000Y-96740000D02*
X71935000Y-96740000D01*
X82330753Y-92846395D02*
X81820092Y-93357056D01*
X84650000Y-89890000D02*
X88098700Y-89890000D01*
X67052511Y-105387489D02*
X66863000Y-105577000D01*
X70045000Y-89480000D02*
X70045000Y-86850500D01*
X81179484Y-93357056D02*
X80842944Y-93020516D01*
X66087500Y-102835000D02*
X66860022Y-102835000D01*
X65528000Y-102077000D02*
X65528000Y-102777000D01*
X67250000Y-108185000D02*
X65575000Y-106510000D01*
X66860022Y-102835000D02*
X67052511Y-103027489D01*
X65528000Y-97877000D02*
X67063000Y-97877000D01*
X66863000Y-105577000D02*
X65528000Y-105577000D01*
X78425000Y-90500000D02*
X78999511Y-89925489D01*
X78999511Y-89925489D02*
X84614511Y-89925489D01*
X70045000Y-91315989D02*
X72600000Y-93870989D01*
X80842944Y-93020516D02*
X80842944Y-92917944D01*
X70045000Y-86850500D02*
X71564500Y-85331000D01*
X65528000Y-106463000D02*
X65575000Y-106510000D01*
X64028000Y-104877000D02*
X62226449Y-103075449D01*
X65528000Y-104877000D02*
X64028000Y-104877000D01*
X60800969Y-97354025D02*
X64238494Y-93916500D01*
X62226449Y-103075449D02*
X62226449Y-99750000D01*
X64238494Y-93916500D02*
X66088500Y-93916500D01*
X60800969Y-98324520D02*
X60800969Y-97354025D01*
X62226449Y-99750000D02*
X60800969Y-98324520D01*
X83963500Y-110104500D02*
X86048000Y-108020000D01*
X75779924Y-110104500D02*
X83963500Y-110104500D01*
X86740500Y-91630500D02*
X84282233Y-91630500D01*
X86740500Y-91630500D02*
X86740500Y-106680500D01*
X86740500Y-106680500D02*
X88080000Y-108020000D01*
X84282233Y-91630500D02*
X84241000Y-91589267D01*
X82496260Y-91634429D02*
X84079831Y-93218000D01*
X85650000Y-95240000D02*
X85650000Y-93777500D01*
X85650000Y-93777500D02*
X85090500Y-93218000D01*
X84079831Y-93218000D02*
X85090500Y-93218000D01*
X85060000Y-105360000D02*
X85060000Y-95830000D01*
X85060000Y-95830000D02*
X85650000Y-95240000D01*
X82518412Y-92221587D02*
X82270936Y-92221587D01*
X82270936Y-92221587D02*
X81612375Y-91563026D01*
X85032000Y-94735175D02*
X82518412Y-92221587D01*
X85032000Y-95020000D02*
X85032000Y-94735175D01*
X81612375Y-91563026D02*
X81010402Y-91563026D01*
X61200489Y-98154520D02*
X61200489Y-97519511D01*
X62625970Y-102774970D02*
X62625969Y-99580000D01*
X62290000Y-96430000D02*
X63355000Y-96430000D01*
X65528000Y-104177000D02*
X64028000Y-104177000D01*
X64028000Y-104177000D02*
X62625970Y-102774970D01*
X61200489Y-97519511D02*
X62290000Y-96430000D01*
X62625969Y-99580000D02*
X61200489Y-98154520D01*
X73625000Y-100677000D02*
X80968000Y-108020000D01*
X65528000Y-100677000D02*
X73625000Y-100677000D01*
X73941000Y-99977000D02*
X81984000Y-108020000D01*
X65528000Y-99977000D02*
X73941000Y-99977000D01*
D21*
X68783734Y-104017920D02*
X68764462Y-104037192D01*
X68783734Y-101496266D02*
X68783734Y-104017920D01*
X64344259Y-96430000D02*
X62974259Y-97800000D01*
X61775000Y-97800000D02*
X61775000Y-97987247D01*
X62974259Y-97800000D02*
X61775000Y-97800000D01*
X63478969Y-99691216D02*
X63478969Y-102878969D01*
X65005000Y-96430000D02*
X64344259Y-96430000D01*
X61775000Y-97987247D02*
X63478969Y-99691216D01*
X64077000Y-103477000D02*
X65528000Y-103477000D01*
X63478969Y-102878969D02*
X64077000Y-103477000D01*
D22*
X77049011Y-113792901D02*
X76040853Y-113792901D01*
X75950000Y-113702048D02*
X75950000Y-112235705D01*
X75950000Y-112235705D02*
X72644794Y-108930498D01*
X76040853Y-113792901D02*
X75950000Y-113702048D01*
X72644794Y-108930498D02*
X70140000Y-108930498D01*
G04 #@! TA.AperFunction,Conductor*
G36*
X66464727Y-113698414D02*
G01*
X66485701Y-113715317D01*
X66847595Y-114077211D01*
X66881621Y-114139523D01*
X66884500Y-114166306D01*
X66884500Y-114757439D01*
X66882079Y-114782021D01*
X66879103Y-114796982D01*
X66884500Y-114824114D01*
X66884500Y-114824115D01*
X66900485Y-114904477D01*
X66907380Y-114914796D01*
X66922824Y-114937910D01*
X66922826Y-114937912D01*
X66942278Y-114967024D01*
X66947531Y-114974886D01*
X66961376Y-114995606D01*
X66971692Y-115002499D01*
X66971693Y-115002500D01*
X66974064Y-115004084D01*
X66993156Y-115019754D01*
X67851292Y-115877890D01*
X67866962Y-115896982D01*
X67875440Y-115909670D01*
X67885753Y-115916561D01*
X67898441Y-115925039D01*
X67896852Y-115927416D01*
X67896854Y-115927417D01*
X67898442Y-115925040D01*
X67924596Y-115942515D01*
X67924598Y-115942518D01*
X67924599Y-115942517D01*
X67966569Y-115970561D01*
X67978738Y-115972982D01*
X67978739Y-115972982D01*
X68046931Y-115986546D01*
X68061892Y-115989522D01*
X68061893Y-115989522D01*
X68074064Y-115991943D01*
X68086235Y-115989522D01*
X68086237Y-115989522D01*
X68089027Y-115988967D01*
X68113607Y-115986546D01*
X76468811Y-115986546D01*
X76493393Y-115988967D01*
X76508354Y-115991943D01*
X76535486Y-115986546D01*
X76535487Y-115986546D01*
X76615849Y-115970561D01*
X76657819Y-115942517D01*
X76657819Y-115942518D01*
X76657822Y-115942515D01*
X76683976Y-115925040D01*
X76686543Y-115928881D01*
X76686544Y-115928880D01*
X76683977Y-115925039D01*
X76696665Y-115916561D01*
X76706978Y-115909670D01*
X76715456Y-115896982D01*
X76731126Y-115877890D01*
X78396726Y-114212290D01*
X78459038Y-114178264D01*
X78529853Y-114183329D01*
X78585783Y-114224680D01*
X78672417Y-114337583D01*
X78794724Y-114431433D01*
X78937154Y-114490429D01*
X79051627Y-114505500D01*
X79128373Y-114505500D01*
X79242846Y-114490429D01*
X79385276Y-114431433D01*
X79507583Y-114337583D01*
X79601433Y-114215276D01*
X79635769Y-114132381D01*
X79680317Y-114077100D01*
X79747680Y-114054679D01*
X79816472Y-114072237D01*
X79864850Y-114124199D01*
X79870044Y-114136061D01*
X79916973Y-114260255D01*
X79921274Y-114266513D01*
X80000101Y-114381206D01*
X80009579Y-114394997D01*
X80015249Y-114400048D01*
X80015250Y-114400050D01*
X80125980Y-114498707D01*
X80125983Y-114498709D01*
X80131652Y-114503760D01*
X80177067Y-114527806D01*
X80177460Y-114528014D01*
X80228303Y-114577567D01*
X80244500Y-114639368D01*
X80244500Y-116435134D01*
X80224498Y-116503255D01*
X80186014Y-116541519D01*
X80102060Y-116594798D01*
X80096633Y-116600577D01*
X80096632Y-116600578D01*
X80057905Y-116641818D01*
X79989552Y-116714607D01*
X79985735Y-116721551D01*
X79985733Y-116721553D01*
X79944506Y-116796545D01*
X79910373Y-116858632D01*
X79908403Y-116866304D01*
X79908402Y-116866307D01*
X79871471Y-117010145D01*
X79869500Y-117017823D01*
X79869500Y-118140925D01*
X79869997Y-118144856D01*
X79883475Y-118251545D01*
X79884929Y-118263058D01*
X79945432Y-118415871D01*
X79950090Y-118422282D01*
X79950091Y-118422284D01*
X79972658Y-118453345D01*
X80042037Y-118548837D01*
X80168674Y-118653600D01*
X80317387Y-118723579D01*
X80338550Y-118727616D01*
X80401716Y-118760028D01*
X80437331Y-118821445D01*
X80434088Y-118892367D01*
X80393017Y-118950278D01*
X80346613Y-118973338D01*
X80292476Y-118987398D01*
X80286810Y-118988731D01*
X79485083Y-119157853D01*
X79479362Y-119158922D01*
X78670722Y-119290831D01*
X78664957Y-119291635D01*
X78609347Y-119298087D01*
X78539375Y-119286070D01*
X78487008Y-119238130D01*
X78468873Y-119169488D01*
X78490727Y-119101939D01*
X78501411Y-119088372D01*
X78571300Y-119011160D01*
X78577322Y-119004507D01*
X78633588Y-118888375D01*
X78637067Y-118867700D01*
X78654190Y-118765917D01*
X78654997Y-118761120D01*
X78655133Y-118750000D01*
X78646287Y-118688231D01*
X78638112Y-118631145D01*
X78638111Y-118631142D01*
X78636839Y-118622259D01*
X78626456Y-118599422D01*
X78587145Y-118512962D01*
X78587143Y-118512959D01*
X78583428Y-118504788D01*
X78547389Y-118462962D01*
X78505051Y-118413826D01*
X78505049Y-118413824D01*
X78499193Y-118407028D01*
X78390906Y-118336841D01*
X78382311Y-118334271D01*
X78382310Y-118334270D01*
X78275874Y-118302438D01*
X78275872Y-118302438D01*
X78267273Y-118299866D01*
X78258298Y-118299811D01*
X78258297Y-118299811D01*
X78203641Y-118299477D01*
X78138231Y-118299078D01*
X78126475Y-118302438D01*
X78022786Y-118332072D01*
X78022784Y-118332073D01*
X78014155Y-118334539D01*
X77905019Y-118403399D01*
X77899076Y-118410128D01*
X77899075Y-118410129D01*
X77860908Y-118453345D01*
X77819596Y-118500122D01*
X77815782Y-118508245D01*
X77815781Y-118508247D01*
X77802929Y-118535622D01*
X77764754Y-118616932D01*
X77763374Y-118625798D01*
X77746282Y-118735567D01*
X77746282Y-118735571D01*
X77744901Y-118744440D01*
X77746065Y-118753342D01*
X77746065Y-118753345D01*
X77760468Y-118863489D01*
X77760469Y-118863493D01*
X77761633Y-118872394D01*
X77813605Y-118990510D01*
X77819382Y-118997383D01*
X77819383Y-118997384D01*
X77858166Y-119043522D01*
X77896639Y-119089291D01*
X77983440Y-119147070D01*
X78029062Y-119201467D01*
X78038034Y-119271894D01*
X78007505Y-119335992D01*
X77947168Y-119373409D01*
X77928142Y-119377117D01*
X77851043Y-119386062D01*
X77845259Y-119386599D01*
X77027829Y-119443338D01*
X77022042Y-119443604D01*
X76236419Y-119461756D01*
X76225603Y-119460654D01*
X76214187Y-119460634D01*
X76200358Y-119457454D01*
X76186517Y-119460586D01*
X76176158Y-119460568D01*
X76164154Y-119461769D01*
X75377958Y-119443604D01*
X75372171Y-119443338D01*
X74554740Y-119386599D01*
X74548969Y-119386064D01*
X74191377Y-119344578D01*
X74126016Y-119316858D01*
X74086016Y-119258202D01*
X74084078Y-119187232D01*
X74120817Y-119126480D01*
X74139970Y-119112042D01*
X74233072Y-119054878D01*
X74233075Y-119054875D01*
X74240724Y-119050179D01*
X74246750Y-119043522D01*
X74321300Y-118961161D01*
X74321303Y-118961157D01*
X74327322Y-118954507D01*
X74383588Y-118838375D01*
X74386437Y-118821445D01*
X74404190Y-118715917D01*
X74404997Y-118711120D01*
X74405133Y-118700000D01*
X74395272Y-118631145D01*
X74388112Y-118581145D01*
X74388111Y-118581142D01*
X74386839Y-118572259D01*
X74376190Y-118548837D01*
X74337145Y-118462962D01*
X74337143Y-118462959D01*
X74333428Y-118454788D01*
X74324512Y-118444440D01*
X75954901Y-118444440D01*
X75956065Y-118453342D01*
X75956065Y-118453345D01*
X75970468Y-118563489D01*
X75970469Y-118563493D01*
X75971633Y-118572394D01*
X76023605Y-118690510D01*
X76029382Y-118697383D01*
X76029383Y-118697384D01*
X76098641Y-118779776D01*
X76106639Y-118789291D01*
X76214060Y-118860796D01*
X76337233Y-118899278D01*
X76346203Y-118899442D01*
X76346207Y-118899443D01*
X76404942Y-118900519D01*
X76466255Y-118901643D01*
X76573538Y-118872394D01*
X76582092Y-118870062D01*
X76582093Y-118870062D01*
X76590755Y-118867700D01*
X76598405Y-118863003D01*
X76598407Y-118863002D01*
X76693072Y-118804878D01*
X76693075Y-118804875D01*
X76700724Y-118800179D01*
X76706750Y-118793522D01*
X76781300Y-118711161D01*
X76781303Y-118711157D01*
X76787322Y-118704507D01*
X76843588Y-118588375D01*
X76846300Y-118572259D01*
X76864190Y-118465917D01*
X76864997Y-118461120D01*
X76865133Y-118450000D01*
X76852792Y-118363826D01*
X76848112Y-118331145D01*
X76848111Y-118331142D01*
X76846839Y-118322259D01*
X76837421Y-118301545D01*
X76797145Y-118212962D01*
X76797143Y-118212959D01*
X76793428Y-118204788D01*
X76741788Y-118144856D01*
X76715051Y-118113826D01*
X76715049Y-118113824D01*
X76709193Y-118107028D01*
X76600906Y-118036841D01*
X76592311Y-118034271D01*
X76592310Y-118034270D01*
X76485874Y-118002438D01*
X76485872Y-118002438D01*
X76477273Y-117999866D01*
X76468298Y-117999811D01*
X76468297Y-117999811D01*
X76413641Y-117999477D01*
X76348231Y-117999078D01*
X76336475Y-118002438D01*
X76232786Y-118032072D01*
X76232784Y-118032073D01*
X76224155Y-118034539D01*
X76115019Y-118103399D01*
X76109076Y-118110128D01*
X76109075Y-118110129D01*
X76041351Y-118186812D01*
X76029596Y-118200122D01*
X76025782Y-118208245D01*
X76025781Y-118208247D01*
X76003185Y-118256376D01*
X75974754Y-118316932D01*
X75969868Y-118348316D01*
X75956282Y-118435567D01*
X75956282Y-118435571D01*
X75954901Y-118444440D01*
X74324512Y-118444440D01*
X74288071Y-118402148D01*
X74255051Y-118363826D01*
X74255049Y-118363824D01*
X74249193Y-118357028D01*
X74140906Y-118286841D01*
X74132311Y-118284271D01*
X74132310Y-118284270D01*
X74025874Y-118252438D01*
X74025872Y-118252438D01*
X74017273Y-118249866D01*
X74008298Y-118249811D01*
X74008297Y-118249811D01*
X73953641Y-118249477D01*
X73888231Y-118249078D01*
X73839316Y-118263058D01*
X73772786Y-118282072D01*
X73772784Y-118282073D01*
X73764155Y-118284539D01*
X73655019Y-118353399D01*
X73649076Y-118360128D01*
X73649075Y-118360129D01*
X73594182Y-118422284D01*
X73569596Y-118450122D01*
X73565782Y-118458245D01*
X73565781Y-118458247D01*
X73562180Y-118465917D01*
X73514754Y-118566932D01*
X73506969Y-118616932D01*
X73496282Y-118685567D01*
X73496282Y-118685571D01*
X73494901Y-118694440D01*
X73496065Y-118703342D01*
X73496065Y-118703345D01*
X73510468Y-118813489D01*
X73510469Y-118813493D01*
X73511633Y-118822394D01*
X73563605Y-118940510D01*
X73646639Y-119039291D01*
X73653085Y-119043582D01*
X73690208Y-119103370D01*
X73689103Y-119174358D01*
X73649795Y-119233480D01*
X73584764Y-119261965D01*
X73548488Y-119261340D01*
X72920638Y-119158922D01*
X72914917Y-119157853D01*
X72113190Y-118988731D01*
X72107525Y-118987398D01*
X72050733Y-118972649D01*
X71989827Y-118936167D01*
X71958314Y-118872547D01*
X71966199Y-118801990D01*
X72010979Y-118746896D01*
X72043469Y-118730862D01*
X72151629Y-118695719D01*
X72151632Y-118695717D01*
X72159171Y-118693268D01*
X72297940Y-118605202D01*
X72322052Y-118579526D01*
X72405023Y-118491170D01*
X72410448Y-118485393D01*
X72423793Y-118461120D01*
X72458936Y-118397194D01*
X72489627Y-118341368D01*
X72494534Y-118322259D01*
X72528529Y-118189855D01*
X72528529Y-118189852D01*
X72530500Y-118182177D01*
X72530500Y-117059075D01*
X72518803Y-116966482D01*
X72516065Y-116944807D01*
X72516064Y-116944804D01*
X72515071Y-116936942D01*
X72454568Y-116784129D01*
X72383266Y-116685989D01*
X72362623Y-116657577D01*
X72357963Y-116651163D01*
X72231326Y-116546400D01*
X72220954Y-116541519D01*
X72180606Y-116522533D01*
X72082613Y-116476421D01*
X72074830Y-116474936D01*
X72074826Y-116474935D01*
X71928956Y-116447109D01*
X71928954Y-116447109D01*
X71921170Y-116445624D01*
X71839155Y-116450784D01*
X71765051Y-116455446D01*
X71765049Y-116455446D01*
X71757140Y-116455944D01*
X71749604Y-116458393D01*
X71749602Y-116458393D01*
X71725649Y-116466176D01*
X71600829Y-116506732D01*
X71462060Y-116594798D01*
X71456633Y-116600577D01*
X71456632Y-116600578D01*
X71417905Y-116641818D01*
X71349552Y-116714607D01*
X71345735Y-116721551D01*
X71345733Y-116721553D01*
X71304506Y-116796545D01*
X71270373Y-116858632D01*
X71268403Y-116866304D01*
X71268402Y-116866307D01*
X71231471Y-117010145D01*
X71229500Y-117017823D01*
X71229500Y-118140925D01*
X71229997Y-118144856D01*
X71243475Y-118251545D01*
X71244929Y-118263058D01*
X71305432Y-118415871D01*
X71310090Y-118422282D01*
X71310091Y-118422284D01*
X71332658Y-118453345D01*
X71402037Y-118548837D01*
X71408145Y-118553890D01*
X71408146Y-118553891D01*
X71413618Y-118558418D01*
X71453354Y-118617253D01*
X71454973Y-118688231D01*
X71417962Y-118748817D01*
X71354071Y-118779776D01*
X71296029Y-118775861D01*
X70526195Y-118537471D01*
X70520678Y-118535622D01*
X69750032Y-118257367D01*
X69744605Y-118255265D01*
X69386728Y-118107028D01*
X69380071Y-118104271D01*
X69324791Y-118059723D01*
X69302370Y-117992359D01*
X69319928Y-117923568D01*
X69348230Y-117890567D01*
X69385460Y-117859932D01*
X69391009Y-117855366D01*
X69395043Y-117850108D01*
X69409958Y-117827141D01*
X69439323Y-117798361D01*
X69438206Y-117797029D01*
X69445085Y-117791257D01*
X69452707Y-117786522D01*
X69523264Y-117707746D01*
X69599768Y-117589941D01*
X69886786Y-117147973D01*
X69886787Y-117147972D01*
X69889227Y-117144214D01*
X69897777Y-117125753D01*
X69928649Y-117059093D01*
X69928650Y-117059089D01*
X69932421Y-117050947D01*
X69933957Y-117040730D01*
X69935771Y-117035352D01*
X69936335Y-117033472D01*
X69936399Y-117033491D01*
X69948065Y-116998903D01*
X69949383Y-116996498D01*
X69951943Y-116992556D01*
X69993845Y-116900397D01*
X70007892Y-116791498D01*
X70009971Y-116775382D01*
X70009971Y-116775379D01*
X70011175Y-116766044D01*
X69988234Y-116632533D01*
X69981058Y-116618356D01*
X69931304Y-116520075D01*
X69927049Y-116511670D01*
X69849049Y-116430757D01*
X69839570Y-116420924D01*
X69839569Y-116420923D01*
X69833031Y-116414141D01*
X69714491Y-116348569D01*
X69581911Y-116320751D01*
X69447012Y-116333147D01*
X69438298Y-116336730D01*
X69438297Y-116336730D01*
X69344720Y-116375205D01*
X69321722Y-116384661D01*
X69217117Y-116470737D01*
X69213083Y-116475994D01*
X69211736Y-116478068D01*
X69211734Y-116478071D01*
X69198168Y-116498961D01*
X69168803Y-116527741D01*
X69169920Y-116529073D01*
X69163041Y-116534845D01*
X69155419Y-116539580D01*
X69149434Y-116546262D01*
X69149433Y-116546263D01*
X69145924Y-116550181D01*
X69084862Y-116618356D01*
X69082213Y-116622434D01*
X69082213Y-116622435D01*
X68742310Y-117145839D01*
X68718899Y-117181888D01*
X68717017Y-117185952D01*
X68679477Y-117267009D01*
X68679476Y-117267013D01*
X68675705Y-117275155D01*
X68674371Y-117284029D01*
X68674370Y-117284032D01*
X68674169Y-117285372D01*
X68672355Y-117290750D01*
X68671791Y-117292630D01*
X68671727Y-117292611D01*
X68660061Y-117327199D01*
X68658743Y-117329604D01*
X68656183Y-117333546D01*
X68614281Y-117425705D01*
X68596951Y-117560058D01*
X68597277Y-117561952D01*
X68579742Y-117626660D01*
X68527072Y-117674267D01*
X68457025Y-117685842D01*
X68418796Y-117674834D01*
X68240577Y-117591172D01*
X68235367Y-117588577D01*
X68181263Y-117560058D01*
X68042111Y-117486710D01*
X67510561Y-117206525D01*
X67505476Y-117203693D01*
X67101824Y-116966482D01*
X66799048Y-116788552D01*
X66794139Y-116785512D01*
X66107627Y-116338182D01*
X66102825Y-116334892D01*
X65622816Y-115989522D01*
X65437720Y-115856344D01*
X65433113Y-115852865D01*
X64898926Y-115429741D01*
X64857946Y-115371766D01*
X64854816Y-115300838D01*
X64890530Y-115239478D01*
X64929246Y-115214438D01*
X65017247Y-115178256D01*
X65017249Y-115178255D01*
X65025958Y-115174674D01*
X65130563Y-115088599D01*
X65134597Y-115083341D01*
X65149512Y-115060374D01*
X65178877Y-115031594D01*
X65177760Y-115030262D01*
X65184639Y-115024490D01*
X65192261Y-115019755D01*
X65202001Y-115008881D01*
X65259574Y-114944601D01*
X65259575Y-114944600D01*
X65262818Y-114940979D01*
X65274389Y-114923162D01*
X65626340Y-114381206D01*
X65626341Y-114381205D01*
X65628781Y-114377447D01*
X65650275Y-114331036D01*
X65668203Y-114292326D01*
X65668204Y-114292322D01*
X65671975Y-114284180D01*
X65673511Y-114273963D01*
X65675325Y-114268585D01*
X65675889Y-114266705D01*
X65675953Y-114266724D01*
X65687619Y-114232136D01*
X65688937Y-114229731D01*
X65691497Y-114225789D01*
X65733399Y-114133630D01*
X65742438Y-114063551D01*
X65749525Y-114008615D01*
X65749525Y-114008612D01*
X65750729Y-113999277D01*
X65727788Y-113865766D01*
X65723532Y-113857359D01*
X65720576Y-113848420D01*
X65723001Y-113847618D01*
X65712617Y-113791505D01*
X65739492Y-113725792D01*
X65797627Y-113685040D01*
X65837954Y-113678412D01*
X66396606Y-113678412D01*
X66464727Y-113698414D01*
G37*
G04 #@! TD.AperFunction*
G04 #@! TA.AperFunction,Conductor*
G36*
X93090761Y-107111455D02*
G01*
X93137413Y-107164972D01*
X93147726Y-107235215D01*
X93143318Y-107254924D01*
X93137475Y-107273794D01*
X93135624Y-107279316D01*
X92857367Y-108049968D01*
X92855265Y-108055395D01*
X92605725Y-108657837D01*
X92559211Y-108770134D01*
X92541710Y-108812384D01*
X92539360Y-108817706D01*
X92206938Y-109525839D01*
X92191172Y-109559423D01*
X92188580Y-109564628D01*
X92103903Y-109725271D01*
X91806525Y-110289439D01*
X91803693Y-110294524D01*
X91627059Y-110595095D01*
X91388552Y-111000952D01*
X91385512Y-111005861D01*
X91029257Y-111552601D01*
X90938182Y-111692373D01*
X90934892Y-111697175D01*
X90456344Y-112362280D01*
X90452865Y-112366887D01*
X90129173Y-112775542D01*
X89944115Y-113009175D01*
X89940397Y-113013653D01*
X89402538Y-113631748D01*
X89398617Y-113636050D01*
X88832774Y-114228658D01*
X88828658Y-114232774D01*
X88264559Y-114771396D01*
X88201477Y-114803972D01*
X88130797Y-114797273D01*
X88074960Y-114753425D01*
X88056098Y-114713832D01*
X88024207Y-114598446D01*
X88021045Y-114592621D01*
X88007843Y-114572291D01*
X88006131Y-114569655D01*
X87991781Y-114531120D01*
X87990111Y-114531599D01*
X87987637Y-114522972D01*
X87986411Y-114514078D01*
X87982739Y-114505888D01*
X87982738Y-114505885D01*
X87945136Y-114422023D01*
X87943144Y-114417580D01*
X87928479Y-114394997D01*
X87595456Y-113882189D01*
X87577181Y-113854048D01*
X87570139Y-113845989D01*
X87529828Y-113799862D01*
X87509546Y-113776653D01*
X87501978Y-113771822D01*
X87501974Y-113771819D01*
X87500840Y-113771095D01*
X87496688Y-113767272D01*
X87495173Y-113765969D01*
X87495217Y-113765918D01*
X87468368Y-113741197D01*
X87466710Y-113739018D01*
X87464145Y-113735069D01*
X87396998Y-113659306D01*
X87308227Y-113605226D01*
X87289352Y-113593727D01*
X87289350Y-113593726D01*
X87281308Y-113588827D01*
X87272182Y-113586509D01*
X87272179Y-113586508D01*
X87159138Y-113557799D01*
X87159135Y-113557799D01*
X87150009Y-113555481D01*
X87140604Y-113555949D01*
X87140601Y-113555949D01*
X87068620Y-113559533D01*
X87014709Y-113562217D01*
X86887372Y-113608438D01*
X86779254Y-113690059D01*
X86773735Y-113697697D01*
X86773734Y-113697698D01*
X86742304Y-113741197D01*
X86699915Y-113799862D01*
X86694284Y-113816450D01*
X86665147Y-113902290D01*
X86656372Y-113928140D01*
X86652471Y-114063551D01*
X86654979Y-114072624D01*
X86654979Y-114072627D01*
X86686643Y-114187194D01*
X86688558Y-114194122D01*
X86691721Y-114199947D01*
X86693066Y-114202018D01*
X86706635Y-114222913D01*
X86720985Y-114261448D01*
X86722655Y-114260969D01*
X86725129Y-114269596D01*
X86726355Y-114278490D01*
X86730027Y-114286680D01*
X86730028Y-114286683D01*
X86749865Y-114330925D01*
X86769622Y-114374988D01*
X86772273Y-114379070D01*
X86772274Y-114379072D01*
X86995868Y-114723376D01*
X87135585Y-114938520D01*
X87203220Y-115015915D01*
X87210788Y-115020746D01*
X87210792Y-115020749D01*
X87211926Y-115021473D01*
X87216078Y-115025296D01*
X87217593Y-115026599D01*
X87217549Y-115026650D01*
X87244398Y-115051371D01*
X87246056Y-115053550D01*
X87248621Y-115057499D01*
X87315768Y-115133262D01*
X87360566Y-115160553D01*
X87423414Y-115198841D01*
X87423416Y-115198842D01*
X87431458Y-115203741D01*
X87453300Y-115209288D01*
X87514400Y-115245441D01*
X87546256Y-115308890D01*
X87538752Y-115379488D01*
X87500519Y-115430180D01*
X87493745Y-115435546D01*
X86966887Y-115852865D01*
X86962280Y-115856344D01*
X86777184Y-115989522D01*
X86297175Y-116334892D01*
X86292373Y-116338182D01*
X85605861Y-116785512D01*
X85600952Y-116788552D01*
X85298176Y-116966482D01*
X84894524Y-117203693D01*
X84889439Y-117206525D01*
X84357889Y-117486710D01*
X84218738Y-117560058D01*
X84164633Y-117588577D01*
X84159423Y-117591172D01*
X83977522Y-117676563D01*
X83907358Y-117687404D01*
X83842471Y-117658591D01*
X83803462Y-117599271D01*
X83798031Y-117558876D01*
X83798053Y-117558135D01*
X83799849Y-117495784D01*
X83763761Y-117365213D01*
X83760599Y-117359388D01*
X83745685Y-117336422D01*
X83731335Y-117297887D01*
X83729665Y-117298366D01*
X83727191Y-117289739D01*
X83725965Y-117280845D01*
X83722293Y-117272655D01*
X83722292Y-117272652D01*
X83684690Y-117188790D01*
X83682698Y-117184347D01*
X83659077Y-117147973D01*
X83333162Y-116646110D01*
X83316735Y-116620815D01*
X83249100Y-116543420D01*
X83241532Y-116538589D01*
X83241528Y-116538586D01*
X83240394Y-116537862D01*
X83236242Y-116534039D01*
X83234727Y-116532736D01*
X83234771Y-116532685D01*
X83207922Y-116507964D01*
X83206264Y-116505785D01*
X83203699Y-116501836D01*
X83136552Y-116426073D01*
X83047781Y-116371993D01*
X83028906Y-116360494D01*
X83028904Y-116360493D01*
X83020862Y-116355594D01*
X83011736Y-116353276D01*
X83011733Y-116353275D01*
X82898692Y-116324566D01*
X82898689Y-116324566D01*
X82889563Y-116322248D01*
X82880158Y-116322716D01*
X82880155Y-116322716D01*
X82807827Y-116326317D01*
X82754263Y-116328984D01*
X82626926Y-116375205D01*
X82518808Y-116456826D01*
X82513289Y-116464464D01*
X82513288Y-116464465D01*
X82485260Y-116503255D01*
X82439469Y-116566629D01*
X82395926Y-116694907D01*
X82392025Y-116830318D01*
X82394533Y-116839391D01*
X82394533Y-116839394D01*
X82423667Y-116944807D01*
X82428112Y-116960889D01*
X82431275Y-116966714D01*
X82432620Y-116968785D01*
X82446189Y-116989680D01*
X82460539Y-117028215D01*
X82462209Y-117027736D01*
X82464683Y-117036363D01*
X82465909Y-117045257D01*
X82469581Y-117053447D01*
X82469582Y-117053450D01*
X82500199Y-117121734D01*
X82509176Y-117141755D01*
X82511827Y-117145837D01*
X82511828Y-117145839D01*
X82636503Y-117337821D01*
X82875139Y-117705287D01*
X82942774Y-117782682D01*
X82950342Y-117787513D01*
X82950346Y-117787516D01*
X82951480Y-117788240D01*
X82955632Y-117792063D01*
X82957147Y-117793366D01*
X82957103Y-117793417D01*
X82983952Y-117818138D01*
X82985610Y-117820317D01*
X82988175Y-117824266D01*
X83019785Y-117859932D01*
X83055322Y-117900029D01*
X83054278Y-117900954D01*
X83088226Y-117951792D01*
X83089474Y-118022778D01*
X83052146Y-118083169D01*
X83016194Y-118105817D01*
X82850988Y-118174248D01*
X82655395Y-118255265D01*
X82649968Y-118257367D01*
X81879322Y-118535622D01*
X81873802Y-118537472D01*
X81099535Y-118777234D01*
X81028547Y-118778278D01*
X80968263Y-118740776D01*
X80937824Y-118676636D01*
X80946893Y-118606221D01*
X80970413Y-118570622D01*
X81050448Y-118485393D01*
X81063793Y-118461120D01*
X81098936Y-118397194D01*
X81129627Y-118341368D01*
X81134534Y-118322259D01*
X81168529Y-118189855D01*
X81168529Y-118189852D01*
X81170500Y-118182177D01*
X81170500Y-117059075D01*
X81158803Y-116966482D01*
X81156065Y-116944807D01*
X81156064Y-116944804D01*
X81155071Y-116936942D01*
X81094568Y-116784129D01*
X81023266Y-116685989D01*
X81002623Y-116657577D01*
X80997963Y-116651163D01*
X80871326Y-116546400D01*
X80864152Y-116543024D01*
X80857461Y-116538778D01*
X80858770Y-116536715D01*
X80814727Y-116497656D01*
X80795500Y-116430757D01*
X80795500Y-114639771D01*
X80815502Y-114571650D01*
X80863709Y-114527806D01*
X80895725Y-114511281D01*
X80895728Y-114511279D01*
X80902476Y-114507796D01*
X80908200Y-114502803D01*
X81019956Y-114405312D01*
X81019959Y-114405309D01*
X81025681Y-114400317D01*
X81119693Y-114266552D01*
X81179083Y-114114224D01*
X81195500Y-113989527D01*
X81195500Y-112854004D01*
X81180819Y-112732687D01*
X81123027Y-112579745D01*
X81110801Y-112561956D01*
X81034723Y-112451262D01*
X81034722Y-112451261D01*
X81030421Y-112445003D01*
X80908348Y-112336240D01*
X80901638Y-112332687D01*
X80770566Y-112263288D01*
X80770564Y-112263287D01*
X80763855Y-112259735D01*
X80712785Y-112246907D01*
X80612655Y-112221756D01*
X80612651Y-112221756D01*
X80605284Y-112219905D01*
X80597685Y-112219865D01*
X80597683Y-112219865D01*
X80454030Y-112219113D01*
X80386015Y-112198755D01*
X80339804Y-112144856D01*
X80330068Y-112074531D01*
X80359899Y-112010105D01*
X80365595Y-112004020D01*
X81553190Y-110816425D01*
X81615502Y-110782399D01*
X81642285Y-110779520D01*
X85052129Y-110779520D01*
X85076711Y-110781941D01*
X85091672Y-110784917D01*
X85118804Y-110779520D01*
X85118805Y-110779520D01*
X85199167Y-110763535D01*
X85248712Y-110730430D01*
X85267294Y-110718014D01*
X85267295Y-110718013D01*
X85290296Y-110702644D01*
X85298776Y-110689954D01*
X85314443Y-110670865D01*
X86866844Y-109118464D01*
X86885936Y-109102794D01*
X86888311Y-109101207D01*
X86898624Y-109094316D01*
X86919730Y-109062730D01*
X86959515Y-109003187D01*
X86970098Y-108949985D01*
X86978476Y-108907863D01*
X86980897Y-108895692D01*
X86977921Y-108880731D01*
X86975500Y-108856149D01*
X86975500Y-108404839D01*
X86995502Y-108336718D01*
X87049158Y-108290225D01*
X87119432Y-108280121D01*
X87184012Y-108309615D01*
X87206264Y-108334836D01*
X87216025Y-108349443D01*
X87216026Y-108349444D01*
X87229881Y-108370179D01*
X87248873Y-108398603D01*
X87259189Y-108405496D01*
X87259190Y-108405497D01*
X87261561Y-108407081D01*
X87280653Y-108422751D01*
X87619257Y-108761355D01*
X87634927Y-108780447D01*
X87643405Y-108793135D01*
X87666406Y-108808504D01*
X87666407Y-108808505D01*
X87734535Y-108854027D01*
X87842029Y-108875408D01*
X87856991Y-108872432D01*
X87881571Y-108870011D01*
X88481946Y-108870011D01*
X88506528Y-108872432D01*
X88521489Y-108875408D01*
X88548621Y-108870011D01*
X88548622Y-108870011D01*
X88628984Y-108854026D01*
X88670954Y-108825982D01*
X88670954Y-108825983D01*
X88670957Y-108825980D01*
X88697111Y-108808505D01*
X88699678Y-108812346D01*
X88699679Y-108812345D01*
X88697112Y-108808504D01*
X88709800Y-108800026D01*
X88720113Y-108793135D01*
X88728591Y-108780447D01*
X88744261Y-108761355D01*
X88998237Y-108507379D01*
X89060549Y-108473353D01*
X89089639Y-108470495D01*
X89152255Y-108471643D01*
X89276755Y-108437700D01*
X89277066Y-108438841D01*
X89338919Y-108431206D01*
X89402898Y-108461983D01*
X89440081Y-108522464D01*
X89444500Y-108555540D01*
X89444500Y-108881894D01*
X89424498Y-108950015D01*
X89407595Y-108970989D01*
X88782383Y-109596201D01*
X88720071Y-109630227D01*
X88692522Y-109633104D01*
X88622831Y-109632678D01*
X88560793Y-109650409D01*
X88507386Y-109665672D01*
X88507384Y-109665673D01*
X88498755Y-109668139D01*
X88491165Y-109672928D01*
X88408207Y-109725271D01*
X88389619Y-109736999D01*
X88383676Y-109743728D01*
X88383675Y-109743729D01*
X88318608Y-109817404D01*
X88304196Y-109833722D01*
X88300382Y-109841845D01*
X88300381Y-109841847D01*
X88284387Y-109875913D01*
X88249354Y-109950532D01*
X88244878Y-109979280D01*
X88230882Y-110069167D01*
X88230882Y-110069171D01*
X88229501Y-110078040D01*
X88230665Y-110086944D01*
X88230556Y-110095916D01*
X88227070Y-110095873D01*
X88218678Y-110149443D01*
X88193828Y-110184756D01*
X83371892Y-115006692D01*
X83309580Y-115040718D01*
X83238765Y-115035653D01*
X83214267Y-115023331D01*
X83191972Y-115008881D01*
X83191971Y-115008880D01*
X83184441Y-115004000D01*
X83175846Y-115001430D01*
X83175845Y-115001429D01*
X83069409Y-114969597D01*
X83069407Y-114969597D01*
X83060808Y-114967025D01*
X83051833Y-114966970D01*
X83051832Y-114966970D01*
X82997176Y-114966636D01*
X82931766Y-114966237D01*
X82869728Y-114983967D01*
X82816321Y-114999231D01*
X82816319Y-114999232D01*
X82807690Y-115001698D01*
X82800100Y-115006487D01*
X82714695Y-115060374D01*
X82698554Y-115070558D01*
X82692611Y-115077287D01*
X82692610Y-115077288D01*
X82678588Y-115093165D01*
X82613131Y-115167281D01*
X82609317Y-115175404D01*
X82609316Y-115175406D01*
X82596013Y-115203741D01*
X82558289Y-115284091D01*
X82554428Y-115308890D01*
X82539817Y-115402726D01*
X82539817Y-115402730D01*
X82538436Y-115411599D01*
X82539600Y-115420501D01*
X82539600Y-115420504D01*
X82554003Y-115530648D01*
X82554004Y-115530652D01*
X82555168Y-115539553D01*
X82558785Y-115547773D01*
X82602442Y-115646991D01*
X82607140Y-115657669D01*
X82612917Y-115664542D01*
X82612918Y-115664543D01*
X82684394Y-115749574D01*
X82690174Y-115756450D01*
X82797595Y-115827955D01*
X82920768Y-115866437D01*
X82929738Y-115866601D01*
X82929742Y-115866602D01*
X82988477Y-115867678D01*
X83049790Y-115868802D01*
X83112040Y-115851830D01*
X83165627Y-115837221D01*
X83165628Y-115837221D01*
X83174290Y-115834859D01*
X83181940Y-115830162D01*
X83181942Y-115830161D01*
X83276607Y-115772037D01*
X83276610Y-115772034D01*
X83284259Y-115767338D01*
X83318114Y-115729936D01*
X83378655Y-115692856D01*
X83386942Y-115690915D01*
X83409104Y-115686507D01*
X83446366Y-115679095D01*
X83446367Y-115679095D01*
X83458536Y-115676674D01*
X83502959Y-115646991D01*
X83502959Y-115646992D01*
X83502962Y-115646989D01*
X83526663Y-115631153D01*
X83529230Y-115634994D01*
X83529231Y-115634993D01*
X83526664Y-115631152D01*
X83539352Y-115622674D01*
X83549665Y-115615783D01*
X83558143Y-115603095D01*
X83573813Y-115584003D01*
X88586837Y-110570979D01*
X88649149Y-110536953D01*
X88678239Y-110534095D01*
X88740855Y-110535243D01*
X88829021Y-110511206D01*
X88856692Y-110503662D01*
X88856693Y-110503662D01*
X88865355Y-110501300D01*
X88873005Y-110496603D01*
X88873007Y-110496602D01*
X88967672Y-110438478D01*
X88967675Y-110438475D01*
X88975324Y-110433779D01*
X88984361Y-110423795D01*
X89055900Y-110344761D01*
X89055903Y-110344757D01*
X89061922Y-110338107D01*
X89118188Y-110221975D01*
X89139597Y-110094720D01*
X89139733Y-110083600D01*
X89139110Y-110079249D01*
X89154618Y-110010097D01*
X89175721Y-109982095D01*
X89844005Y-109313811D01*
X89906317Y-109279785D01*
X89977132Y-109284850D01*
X90033968Y-109327397D01*
X90058779Y-109393917D01*
X90059100Y-109402906D01*
X90059100Y-109667267D01*
X90039098Y-109735388D01*
X90027543Y-109750673D01*
X89954196Y-109833722D01*
X89950382Y-109841845D01*
X89950381Y-109841847D01*
X89934387Y-109875913D01*
X89899354Y-109950532D01*
X89894878Y-109979280D01*
X89880882Y-110069167D01*
X89880882Y-110069171D01*
X89879501Y-110078040D01*
X89880665Y-110086942D01*
X89880665Y-110086945D01*
X89895068Y-110197089D01*
X89895069Y-110197093D01*
X89896233Y-110205994D01*
X89948205Y-110324110D01*
X89953982Y-110330983D01*
X89953983Y-110330984D01*
X89999927Y-110385641D01*
X90031239Y-110422891D01*
X90138660Y-110494396D01*
X90261833Y-110532878D01*
X90270803Y-110533042D01*
X90270807Y-110533043D01*
X90328226Y-110534095D01*
X90390855Y-110535243D01*
X90479021Y-110511206D01*
X90506692Y-110503662D01*
X90506693Y-110503662D01*
X90515355Y-110501300D01*
X90523005Y-110496603D01*
X90523007Y-110496602D01*
X90617672Y-110438478D01*
X90617675Y-110438475D01*
X90625324Y-110433779D01*
X90634361Y-110423795D01*
X90705900Y-110344761D01*
X90705903Y-110344757D01*
X90711922Y-110338107D01*
X90768188Y-110221975D01*
X90789597Y-110094720D01*
X90789733Y-110083600D01*
X90779207Y-110010097D01*
X90772712Y-109964745D01*
X90772711Y-109964742D01*
X90771439Y-109955859D01*
X90765324Y-109942409D01*
X90721745Y-109846562D01*
X90721743Y-109846559D01*
X90718028Y-109838388D01*
X90640646Y-109748581D01*
X90611333Y-109683919D01*
X90610100Y-109666334D01*
X90610100Y-107884143D01*
X90612521Y-107859561D01*
X90613076Y-107856771D01*
X90615497Y-107844600D01*
X90602149Y-107777494D01*
X90594115Y-107737105D01*
X90558884Y-107684378D01*
X90548594Y-107668978D01*
X90548593Y-107668977D01*
X90533224Y-107645976D01*
X90520536Y-107637498D01*
X90501444Y-107621828D01*
X90194520Y-107314904D01*
X90160494Y-107252592D01*
X90165559Y-107181777D01*
X90208106Y-107124941D01*
X90274626Y-107100130D01*
X90283230Y-107099810D01*
X93022582Y-107091656D01*
X93090761Y-107111455D01*
G37*
G04 #@! TD.AperFunction*
G04 #@! TA.AperFunction,Conductor*
G36*
X68464295Y-111335022D02*
G01*
X68510788Y-111388678D01*
X68520892Y-111458952D01*
X68491398Y-111523532D01*
X68485269Y-111530115D01*
X68462783Y-111552601D01*
X68400471Y-111586627D01*
X68372922Y-111589504D01*
X68303231Y-111589078D01*
X68242755Y-111606362D01*
X68187786Y-111622072D01*
X68187784Y-111622073D01*
X68179155Y-111624539D01*
X68171565Y-111629328D01*
X68100890Y-111673921D01*
X68070019Y-111693399D01*
X68064076Y-111700128D01*
X68064075Y-111700129D01*
X68051348Y-111714540D01*
X67984596Y-111790122D01*
X67929754Y-111906932D01*
X67924840Y-111938495D01*
X67911282Y-112025567D01*
X67911282Y-112025571D01*
X67909901Y-112034440D01*
X67911065Y-112043342D01*
X67911065Y-112043345D01*
X67925468Y-112153489D01*
X67925469Y-112153493D01*
X67926633Y-112162394D01*
X67978605Y-112280510D01*
X67984382Y-112287383D01*
X67984383Y-112287384D01*
X68028830Y-112340260D01*
X68061639Y-112379291D01*
X68169060Y-112450796D01*
X68292233Y-112489278D01*
X68295728Y-112489342D01*
X68357286Y-112518789D01*
X68363503Y-112528852D01*
X68423731Y-112490968D01*
X68537092Y-112460062D01*
X68537093Y-112460062D01*
X68545755Y-112457700D01*
X68553405Y-112453003D01*
X68553407Y-112453002D01*
X68648072Y-112394878D01*
X68648075Y-112394875D01*
X68655724Y-112390179D01*
X68661750Y-112383522D01*
X68736300Y-112301161D01*
X68736303Y-112301157D01*
X68742322Y-112294507D01*
X68798588Y-112178375D01*
X68802992Y-112152202D01*
X68819190Y-112055917D01*
X68819997Y-112051120D01*
X68820133Y-112040000D01*
X68819510Y-112035649D01*
X68835018Y-111966497D01*
X68856121Y-111938495D01*
X69043171Y-111751445D01*
X69105483Y-111717419D01*
X69132266Y-111714540D01*
X72240216Y-111714540D01*
X72308337Y-111734542D01*
X72329311Y-111751445D01*
X73884116Y-113306250D01*
X73896372Y-113328695D01*
X73908958Y-113333219D01*
X73923750Y-113345884D01*
X74246054Y-113668188D01*
X74280080Y-113730500D01*
X74281459Y-113776667D01*
X74272047Y-113837115D01*
X74272047Y-113837120D01*
X74270666Y-113845989D01*
X74271830Y-113854891D01*
X74271830Y-113854894D01*
X74286233Y-113965038D01*
X74286234Y-113965042D01*
X74287398Y-113973943D01*
X74339370Y-114092059D01*
X74345147Y-114098932D01*
X74345148Y-114098933D01*
X74391177Y-114153691D01*
X74422404Y-114190840D01*
X74529825Y-114262345D01*
X74652998Y-114300827D01*
X74661968Y-114300991D01*
X74661972Y-114300992D01*
X74720707Y-114302068D01*
X74782020Y-114303192D01*
X74872082Y-114278638D01*
X74943065Y-114280018D01*
X75002034Y-114319555D01*
X75028803Y-114375620D01*
X75033663Y-114400050D01*
X75039310Y-114428441D01*
X75043214Y-114434283D01*
X75046208Y-114438764D01*
X75049842Y-114447536D01*
X75057935Y-114515142D01*
X75051501Y-114556464D01*
X75052665Y-114565366D01*
X75052665Y-114565369D01*
X75067068Y-114675513D01*
X75067069Y-114675517D01*
X75068233Y-114684418D01*
X75071849Y-114692637D01*
X75074227Y-114701152D01*
X75073280Y-114772142D01*
X75034104Y-114831351D01*
X74969135Y-114859980D01*
X74952868Y-114861035D01*
X72022759Y-114861035D01*
X71954638Y-114841033D01*
X71908145Y-114787377D01*
X71898041Y-114717103D01*
X71927535Y-114652523D01*
X71993345Y-114612516D01*
X72109811Y-114584556D01*
X72109815Y-114584555D01*
X72117190Y-114582784D01*
X72223305Y-114528014D01*
X72255728Y-114511279D01*
X72255729Y-114511279D01*
X72262476Y-114507796D01*
X72268200Y-114502803D01*
X72379956Y-114405312D01*
X72379959Y-114405309D01*
X72385681Y-114400317D01*
X72479693Y-114266552D01*
X72518777Y-114166306D01*
X72530749Y-114135601D01*
X72574130Y-114079399D01*
X72641009Y-114055573D01*
X72710153Y-114071687D01*
X72759609Y-114122624D01*
X72764549Y-114133149D01*
X72798567Y-114215276D01*
X72892417Y-114337583D01*
X73014724Y-114431433D01*
X73157154Y-114490429D01*
X73271627Y-114505500D01*
X73348373Y-114505500D01*
X73462846Y-114490429D01*
X73605276Y-114431433D01*
X73727583Y-114337583D01*
X73821433Y-114215276D01*
X73880429Y-114072846D01*
X73900552Y-113920000D01*
X73880429Y-113767154D01*
X73821433Y-113624724D01*
X73734693Y-113511683D01*
X73731741Y-113504048D01*
X73718317Y-113495307D01*
X73697357Y-113479224D01*
X73605276Y-113408567D01*
X73462846Y-113349571D01*
X73348373Y-113334500D01*
X73271627Y-113334500D01*
X73157154Y-113349571D01*
X73014724Y-113408567D01*
X72892417Y-113502417D01*
X72798567Y-113624724D01*
X72795407Y-113632354D01*
X72791276Y-113639508D01*
X72788545Y-113637931D01*
X72753371Y-113681587D01*
X72686010Y-113704014D01*
X72617217Y-113686463D01*
X72568833Y-113634506D01*
X72555500Y-113578095D01*
X72555500Y-112854004D01*
X72540819Y-112732687D01*
X72483027Y-112579745D01*
X72470801Y-112561956D01*
X72394723Y-112451262D01*
X72394722Y-112451261D01*
X72390421Y-112445003D01*
X72268348Y-112336240D01*
X72261638Y-112332687D01*
X72130566Y-112263288D01*
X72130564Y-112263287D01*
X72123855Y-112259735D01*
X72072785Y-112246907D01*
X71972655Y-112221756D01*
X71972651Y-112221756D01*
X71965284Y-112219905D01*
X71957685Y-112219865D01*
X71957683Y-112219865D01*
X71889653Y-112219509D01*
X71801790Y-112219049D01*
X71794410Y-112220821D01*
X71794408Y-112220821D01*
X71650189Y-112255444D01*
X71650185Y-112255445D01*
X71642810Y-112257216D01*
X71497524Y-112332204D01*
X71491802Y-112337196D01*
X71491800Y-112337197D01*
X71380044Y-112434688D01*
X71380041Y-112434691D01*
X71374319Y-112439683D01*
X71280307Y-112573448D01*
X71220917Y-112725776D01*
X71204500Y-112850473D01*
X71204500Y-113985996D01*
X71219181Y-114107313D01*
X71276973Y-114260255D01*
X71281274Y-114266513D01*
X71360101Y-114381206D01*
X71369579Y-114394997D01*
X71375249Y-114400048D01*
X71375250Y-114400050D01*
X71423646Y-114443169D01*
X71491652Y-114503760D01*
X71498361Y-114507312D01*
X71498362Y-114507313D01*
X71629434Y-114576712D01*
X71629436Y-114576713D01*
X71636145Y-114580265D01*
X71736073Y-114605365D01*
X71765797Y-114612831D01*
X71826993Y-114648826D01*
X71859014Y-114712191D01*
X71851694Y-114782809D01*
X71807357Y-114838259D01*
X71735102Y-114861035D01*
X68727119Y-114861035D01*
X68658998Y-114841033D01*
X68631665Y-114817281D01*
X68617089Y-114800364D01*
X68617085Y-114800361D01*
X68611228Y-114793563D01*
X68502941Y-114723376D01*
X68494346Y-114720806D01*
X68494345Y-114720805D01*
X68387909Y-114688973D01*
X68387907Y-114688973D01*
X68379308Y-114686401D01*
X68370333Y-114686346D01*
X68370332Y-114686346D01*
X68315676Y-114686012D01*
X68250266Y-114685613D01*
X68207859Y-114697733D01*
X68134821Y-114718607D01*
X68134819Y-114718608D01*
X68126190Y-114721074D01*
X68118600Y-114725863D01*
X68060162Y-114762735D01*
X68017054Y-114789934D01*
X68011111Y-114796663D01*
X68011110Y-114796664D01*
X68005926Y-114802534D01*
X67931631Y-114886657D01*
X67927817Y-114894780D01*
X67927816Y-114894782D01*
X67914492Y-114923162D01*
X67867436Y-114976324D01*
X67799108Y-114995606D01*
X67731202Y-114974886D01*
X67711342Y-114958708D01*
X67472405Y-114719771D01*
X67438379Y-114657459D01*
X67435500Y-114630676D01*
X67435500Y-114039543D01*
X67437921Y-114014961D01*
X67438476Y-114012171D01*
X67440897Y-114000000D01*
X67432750Y-113959044D01*
X67426603Y-113928140D01*
X67421936Y-113904675D01*
X67421935Y-113904674D01*
X67419515Y-113892505D01*
X67393819Y-113854048D01*
X67379252Y-113832248D01*
X67379248Y-113832242D01*
X67373994Y-113824378D01*
X67373993Y-113824377D01*
X67365515Y-113811689D01*
X67358624Y-113801376D01*
X67345936Y-113792898D01*
X67326844Y-113777228D01*
X67304242Y-113754626D01*
X67270216Y-113692314D01*
X67275281Y-113621499D01*
X67317828Y-113564663D01*
X67384348Y-113539852D01*
X67393337Y-113539531D01*
X68885948Y-113539531D01*
X68954069Y-113559533D01*
X68975043Y-113576436D01*
X69184343Y-113785736D01*
X69210577Y-113824085D01*
X69244988Y-113902290D01*
X69248605Y-113910510D01*
X69254382Y-113917383D01*
X69254383Y-113917384D01*
X69313598Y-113987829D01*
X69331639Y-114009291D01*
X69439060Y-114080796D01*
X69527938Y-114108564D01*
X69546671Y-114114416D01*
X69562233Y-114119278D01*
X69571203Y-114119442D01*
X69571207Y-114119443D01*
X69629942Y-114120519D01*
X69691255Y-114121643D01*
X69771472Y-114099773D01*
X69807092Y-114090062D01*
X69807093Y-114090062D01*
X69815755Y-114087700D01*
X69823405Y-114083003D01*
X69823407Y-114083002D01*
X69918072Y-114024878D01*
X69918075Y-114024875D01*
X69925724Y-114020179D01*
X69931750Y-114013522D01*
X70006300Y-113931161D01*
X70006303Y-113931157D01*
X70012322Y-113924507D01*
X70068588Y-113808375D01*
X70072788Y-113783414D01*
X70089190Y-113685917D01*
X70089997Y-113681120D01*
X70090133Y-113670000D01*
X70076734Y-113576436D01*
X70073112Y-113551145D01*
X70073111Y-113551142D01*
X70071839Y-113542259D01*
X70067719Y-113533198D01*
X70022145Y-113432962D01*
X70022143Y-113432959D01*
X70018428Y-113424788D01*
X69975505Y-113374973D01*
X69940051Y-113333826D01*
X69940049Y-113333824D01*
X69934193Y-113327028D01*
X69825906Y-113256841D01*
X69802647Y-113249885D01*
X69749656Y-113218263D01*
X69364940Y-112833547D01*
X69364936Y-112833544D01*
X69342373Y-112810981D01*
X69322777Y-112800996D01*
X69305924Y-112790670D01*
X69288121Y-112777735D01*
X69267197Y-112770936D01*
X69248937Y-112763372D01*
X69238172Y-112757887D01*
X69238168Y-112757886D01*
X69229335Y-112753385D01*
X69219544Y-112751834D01*
X69219543Y-112751834D01*
X69207609Y-112749944D01*
X69188384Y-112745328D01*
X69176899Y-112741596D01*
X69176895Y-112741595D01*
X69167464Y-112738531D01*
X68456873Y-112738531D01*
X68388752Y-112718529D01*
X68365556Y-112691760D01*
X68353900Y-112709207D01*
X68288805Y-112737548D01*
X68273094Y-112738531D01*
X67290330Y-112738531D01*
X67222209Y-112718529D01*
X67201234Y-112701626D01*
X67152695Y-112653086D01*
X67072517Y-112572908D01*
X67072503Y-112572895D01*
X67049950Y-112550342D01*
X67030354Y-112540357D01*
X67013501Y-112530031D01*
X66995698Y-112517096D01*
X66974774Y-112510297D01*
X66956514Y-112502733D01*
X66945749Y-112497248D01*
X66945745Y-112497247D01*
X66936912Y-112492746D01*
X66927121Y-112491195D01*
X66927120Y-112491195D01*
X66915186Y-112489305D01*
X66895961Y-112484689D01*
X66884476Y-112480957D01*
X66884472Y-112480956D01*
X66875041Y-112477892D01*
X66080731Y-112477892D01*
X66012610Y-112457890D01*
X65991636Y-112440987D01*
X65977722Y-112427073D01*
X65943696Y-112364761D01*
X65948761Y-112293946D01*
X65973399Y-112253427D01*
X66021089Y-112200740D01*
X66044606Y-112152202D01*
X66092309Y-112099619D01*
X66111588Y-112090747D01*
X66115313Y-112090157D01*
X66124150Y-112085654D01*
X66124154Y-112085653D01*
X66134915Y-112080170D01*
X66153175Y-112072606D01*
X66174099Y-112065807D01*
X66191902Y-112052872D01*
X66208754Y-112042546D01*
X66219511Y-112037065D01*
X66228351Y-112032561D01*
X66250914Y-112009998D01*
X66250918Y-112009995D01*
X66908988Y-111351925D01*
X66971300Y-111317899D01*
X66998083Y-111315020D01*
X68396174Y-111315020D01*
X68464295Y-111335022D01*
G37*
G04 #@! TD.AperFunction*
G04 #@! TA.AperFunction,Conductor*
G36*
X77022042Y-83756396D02*
G01*
X77027829Y-83756662D01*
X77845260Y-83813401D01*
X77851031Y-83813936D01*
X78175700Y-83851602D01*
X78664957Y-83908364D01*
X78670722Y-83909169D01*
X79479362Y-84041078D01*
X79485083Y-84042147D01*
X80286810Y-84211269D01*
X80292476Y-84212602D01*
X81085513Y-84418564D01*
X81091112Y-84420157D01*
X81873803Y-84662528D01*
X81879322Y-84664378D01*
X82649968Y-84942633D01*
X82655395Y-84944735D01*
X82915540Y-85052490D01*
X83016191Y-85094181D01*
X83019928Y-85095729D01*
X83075209Y-85140277D01*
X83097630Y-85207641D01*
X83080072Y-85276432D01*
X83051770Y-85309433D01*
X83014538Y-85340070D01*
X83014535Y-85340073D01*
X83008991Y-85344635D01*
X83004957Y-85349892D01*
X83003610Y-85351966D01*
X83003608Y-85351969D01*
X82990042Y-85372859D01*
X82960677Y-85401639D01*
X82961794Y-85402971D01*
X82954915Y-85408743D01*
X82947293Y-85413478D01*
X82876736Y-85492254D01*
X82874087Y-85496332D01*
X82874087Y-85496333D01*
X82534184Y-86019737D01*
X82510773Y-86055786D01*
X82508891Y-86059850D01*
X82471351Y-86140907D01*
X82471350Y-86140911D01*
X82467579Y-86149053D01*
X82466245Y-86157927D01*
X82466244Y-86157930D01*
X82466043Y-86159270D01*
X82464229Y-86164648D01*
X82463665Y-86166528D01*
X82463601Y-86166509D01*
X82451935Y-86201097D01*
X82450617Y-86203502D01*
X82448057Y-86207444D01*
X82406155Y-86299603D01*
X82404951Y-86308940D01*
X82391335Y-86414500D01*
X82388825Y-86433956D01*
X82411766Y-86567467D01*
X82416020Y-86575871D01*
X82416021Y-86575873D01*
X82467452Y-86677467D01*
X82472951Y-86688330D01*
X82512411Y-86729264D01*
X82555467Y-86773927D01*
X82566969Y-86785859D01*
X82685509Y-86851431D01*
X82818089Y-86879249D01*
X82952988Y-86866853D01*
X82961702Y-86863270D01*
X82961703Y-86863270D01*
X83069567Y-86818921D01*
X83069569Y-86818920D01*
X83078278Y-86815339D01*
X83182883Y-86729264D01*
X83186917Y-86724006D01*
X83201832Y-86701039D01*
X83231197Y-86672259D01*
X83230080Y-86670927D01*
X83236959Y-86665155D01*
X83244581Y-86660420D01*
X83261970Y-86641006D01*
X83311894Y-86585266D01*
X83311895Y-86585265D01*
X83315138Y-86581644D01*
X83324345Y-86567467D01*
X83678660Y-86021871D01*
X83678661Y-86021870D01*
X83681101Y-86018112D01*
X83692511Y-85993475D01*
X83720523Y-85932991D01*
X83720524Y-85932987D01*
X83724295Y-85924845D01*
X83725831Y-85914628D01*
X83727645Y-85909250D01*
X83728209Y-85907370D01*
X83728273Y-85907389D01*
X83739939Y-85872801D01*
X83741257Y-85870396D01*
X83743817Y-85866454D01*
X83785719Y-85774295D01*
X83803049Y-85639942D01*
X83802723Y-85638048D01*
X83820258Y-85573340D01*
X83872928Y-85525733D01*
X83942975Y-85514158D01*
X83981205Y-85525166D01*
X84142175Y-85600731D01*
X84159423Y-85608828D01*
X84164628Y-85611420D01*
X84220982Y-85641125D01*
X84889439Y-85993475D01*
X84894524Y-85996307D01*
X85180983Y-86164648D01*
X85600952Y-86411448D01*
X85605861Y-86414488D01*
X86165390Y-86779076D01*
X86292373Y-86861818D01*
X86297175Y-86865108D01*
X86314098Y-86877284D01*
X86962280Y-87343656D01*
X86966887Y-87347135D01*
X87366906Y-87663986D01*
X87501074Y-87770259D01*
X87542054Y-87828234D01*
X87545184Y-87899162D01*
X87509470Y-87960522D01*
X87470754Y-87985562D01*
X87374042Y-88025326D01*
X87269437Y-88111402D01*
X87265403Y-88116659D01*
X87264056Y-88118733D01*
X87264054Y-88118736D01*
X87250488Y-88139626D01*
X87221123Y-88168406D01*
X87222240Y-88169738D01*
X87215361Y-88175510D01*
X87207739Y-88180245D01*
X87201754Y-88186927D01*
X87201753Y-88186928D01*
X87161129Y-88232284D01*
X87137182Y-88259021D01*
X87134533Y-88263099D01*
X87134533Y-88263100D01*
X86794630Y-88786504D01*
X86771219Y-88822553D01*
X86769337Y-88826617D01*
X86731797Y-88907674D01*
X86731796Y-88907678D01*
X86728025Y-88915820D01*
X86726691Y-88924694D01*
X86726690Y-88924697D01*
X86726489Y-88926037D01*
X86724675Y-88931415D01*
X86724111Y-88933295D01*
X86724047Y-88933276D01*
X86712381Y-88967864D01*
X86711063Y-88970269D01*
X86708503Y-88974211D01*
X86666601Y-89066370D01*
X86665397Y-89075707D01*
X86650725Y-89189454D01*
X86649271Y-89200723D01*
X86672212Y-89334234D01*
X86676466Y-89342638D01*
X86676467Y-89342640D01*
X86727898Y-89444234D01*
X86733397Y-89455097D01*
X86772857Y-89496031D01*
X86815913Y-89540694D01*
X86827415Y-89552626D01*
X86945955Y-89618198D01*
X87078535Y-89646016D01*
X87213434Y-89633620D01*
X87222148Y-89630037D01*
X87222149Y-89630037D01*
X87330013Y-89585688D01*
X87330015Y-89585687D01*
X87338724Y-89582106D01*
X87443329Y-89496031D01*
X87447363Y-89490773D01*
X87462278Y-89467806D01*
X87491643Y-89439026D01*
X87490526Y-89437694D01*
X87497405Y-89431922D01*
X87505027Y-89427187D01*
X87522416Y-89407773D01*
X87572340Y-89352033D01*
X87572341Y-89352032D01*
X87575584Y-89348411D01*
X87584791Y-89334234D01*
X87939106Y-88788638D01*
X87939107Y-88788637D01*
X87941547Y-88784879D01*
X87950097Y-88766418D01*
X87980969Y-88699758D01*
X87980970Y-88699754D01*
X87984741Y-88691612D01*
X87986277Y-88681395D01*
X87988091Y-88676017D01*
X87988655Y-88674137D01*
X87988719Y-88674156D01*
X88000385Y-88639568D01*
X88001703Y-88637163D01*
X88004263Y-88633221D01*
X88046165Y-88541062D01*
X88051169Y-88502267D01*
X88079721Y-88437265D01*
X88138884Y-88398018D01*
X88209873Y-88396987D01*
X88263147Y-88427255D01*
X88341707Y-88502267D01*
X88828658Y-88967226D01*
X88832774Y-88971342D01*
X89398617Y-89563950D01*
X89402538Y-89568252D01*
X89940397Y-90186347D01*
X89944115Y-90190825D01*
X90078286Y-90360214D01*
X90452865Y-90833113D01*
X90456344Y-90837720D01*
X90862926Y-91402804D01*
X90934892Y-91502825D01*
X90938182Y-91507627D01*
X91385512Y-92194139D01*
X91388552Y-92199048D01*
X91619297Y-92591697D01*
X91803693Y-92905476D01*
X91806525Y-92910561D01*
X92188577Y-93635367D01*
X92191170Y-93640572D01*
X92531607Y-94365778D01*
X92539359Y-94382291D01*
X92541708Y-94387612D01*
X92555345Y-94420535D01*
X92855265Y-95144605D01*
X92857367Y-95150032D01*
X92992705Y-95524859D01*
X93069377Y-95737206D01*
X93078509Y-95762499D01*
X93082831Y-95833364D01*
X93048153Y-95895316D01*
X92985487Y-95928685D01*
X92962091Y-95931273D01*
X89920063Y-95981741D01*
X89919998Y-95994598D01*
X89919998Y-95994599D01*
X89866205Y-106683035D01*
X89845861Y-106751054D01*
X89791972Y-106797277D01*
X89721648Y-106807027D01*
X89657216Y-106777209D01*
X89651112Y-106771496D01*
X89533405Y-106653789D01*
X89499379Y-106591477D01*
X89496500Y-106564694D01*
X89496500Y-95255584D01*
X89509108Y-95200645D01*
X89519048Y-95180129D01*
X89529588Y-95158375D01*
X89538691Y-95104270D01*
X89550190Y-95035917D01*
X89550997Y-95031120D01*
X89551133Y-95020000D01*
X89532839Y-94892259D01*
X89529125Y-94884091D01*
X89529124Y-94884087D01*
X89507800Y-94837188D01*
X89496500Y-94785036D01*
X89496500Y-91693315D01*
X89496499Y-91693309D01*
X89496499Y-91661401D01*
X89493436Y-91651974D01*
X89493435Y-91651967D01*
X89489703Y-91640481D01*
X89485089Y-91621261D01*
X89483199Y-91609327D01*
X89483197Y-91609319D01*
X89481646Y-91599530D01*
X89477146Y-91590699D01*
X89477145Y-91590695D01*
X89471658Y-91579927D01*
X89464094Y-91561666D01*
X89457296Y-91540744D01*
X89444368Y-91522950D01*
X89434038Y-91506093D01*
X89428552Y-91495327D01*
X89428551Y-91495326D01*
X89424050Y-91486492D01*
X88322092Y-90384534D01*
X88296486Y-90347590D01*
X88296105Y-90346753D01*
X88254040Y-90254234D01*
X88202584Y-90194516D01*
X88175663Y-90163272D01*
X88175661Y-90163270D01*
X88169805Y-90156474D01*
X88061518Y-90086287D01*
X88052923Y-90083717D01*
X88052922Y-90083716D01*
X87946486Y-90051884D01*
X87946484Y-90051884D01*
X87937885Y-90049312D01*
X87928910Y-90049257D01*
X87928909Y-90049257D01*
X87874253Y-90048923D01*
X87808843Y-90048524D01*
X87756775Y-90063405D01*
X87693398Y-90081518D01*
X87693396Y-90081519D01*
X87684767Y-90083985D01*
X87677177Y-90088774D01*
X87602898Y-90135641D01*
X87575631Y-90152845D01*
X87569688Y-90159574D01*
X87569687Y-90159575D01*
X87501963Y-90236258D01*
X87490208Y-90249568D01*
X87486394Y-90257691D01*
X87486393Y-90257693D01*
X87478643Y-90274200D01*
X87435366Y-90366378D01*
X87426238Y-90425004D01*
X87416894Y-90485013D01*
X87416894Y-90485017D01*
X87415513Y-90493886D01*
X87416677Y-90502788D01*
X87416677Y-90502791D01*
X87431080Y-90612935D01*
X87431081Y-90612939D01*
X87432245Y-90621840D01*
X87484217Y-90739956D01*
X87489994Y-90746829D01*
X87489995Y-90746830D01*
X87532278Y-90797132D01*
X87567251Y-90838737D01*
X87674672Y-90910242D01*
X87683242Y-90912919D01*
X87683243Y-90912920D01*
X87703748Y-90919326D01*
X87755270Y-90950497D01*
X88207578Y-91402804D01*
X88658595Y-91853821D01*
X88692620Y-91916134D01*
X88695500Y-91942917D01*
X88695500Y-94709144D01*
X88675498Y-94777265D01*
X88621842Y-94823758D01*
X88551568Y-94833862D01*
X88486988Y-94804368D01*
X88465662Y-94779702D01*
X88463428Y-94774788D01*
X88457572Y-94767992D01*
X88457571Y-94767990D01*
X88385051Y-94683826D01*
X88385049Y-94683824D01*
X88379193Y-94677028D01*
X88270906Y-94606841D01*
X88262311Y-94604271D01*
X88262310Y-94604270D01*
X88155874Y-94572438D01*
X88155872Y-94572438D01*
X88147273Y-94569866D01*
X88138298Y-94569811D01*
X88138297Y-94569811D01*
X88083641Y-94569477D01*
X88018231Y-94569078D01*
X88006475Y-94572438D01*
X87902786Y-94602072D01*
X87902784Y-94602073D01*
X87894155Y-94604539D01*
X87886565Y-94609328D01*
X87799572Y-94664217D01*
X87785019Y-94673399D01*
X87779076Y-94680128D01*
X87779075Y-94680129D01*
X87756952Y-94705179D01*
X87699596Y-94770122D01*
X87695782Y-94778245D01*
X87695781Y-94778247D01*
X87683482Y-94804443D01*
X87644754Y-94886932D01*
X87635626Y-94945558D01*
X87626282Y-95005567D01*
X87626282Y-95005571D01*
X87624901Y-95014440D01*
X87626065Y-95023342D01*
X87626065Y-95023345D01*
X87640468Y-95133489D01*
X87640469Y-95133493D01*
X87641633Y-95142394D01*
X87693605Y-95260510D01*
X87699382Y-95267383D01*
X87699383Y-95267384D01*
X87774951Y-95357283D01*
X87803472Y-95422298D01*
X87804500Y-95438358D01*
X87804500Y-106350457D01*
X87802079Y-106375039D01*
X87799103Y-106390000D01*
X87804500Y-106417132D01*
X87804500Y-106417133D01*
X87820485Y-106497495D01*
X87827380Y-106507814D01*
X87847539Y-106537984D01*
X87847540Y-106537986D01*
X87859323Y-106555620D01*
X87859325Y-106555622D01*
X87881376Y-106588624D01*
X87891692Y-106595517D01*
X87891693Y-106595518D01*
X87894064Y-106597102D01*
X87913156Y-106612772D01*
X88777229Y-107476845D01*
X88792896Y-107495934D01*
X88799309Y-107505530D01*
X88801377Y-107508625D01*
X88801100Y-107508810D01*
X88830454Y-107562566D01*
X88825389Y-107633381D01*
X88798739Y-107671385D01*
X88801019Y-107673399D01*
X88715596Y-107770122D01*
X88711781Y-107778247D01*
X88711780Y-107778249D01*
X88702302Y-107798437D01*
X88655247Y-107851599D01*
X88586919Y-107870882D01*
X88519013Y-107850163D01*
X88473548Y-107797043D01*
X88467147Y-107782967D01*
X88467146Y-107782966D01*
X88463428Y-107774788D01*
X88422067Y-107726786D01*
X88385051Y-107683826D01*
X88385049Y-107683824D01*
X88379193Y-107677028D01*
X88270906Y-107606841D01*
X88262311Y-107604271D01*
X88262310Y-107604270D01*
X88155874Y-107572438D01*
X88155872Y-107572438D01*
X88147273Y-107569866D01*
X88138298Y-107569811D01*
X88138297Y-107569811D01*
X88095453Y-107569550D01*
X88070436Y-107569397D01*
X88002439Y-107548979D01*
X87982110Y-107532494D01*
X87052905Y-106603289D01*
X87018879Y-106540977D01*
X87016000Y-106514194D01*
X87016000Y-92046054D01*
X87036002Y-91977933D01*
X87048585Y-91961499D01*
X87111799Y-91891661D01*
X87117822Y-91885007D01*
X87174088Y-91768875D01*
X87195497Y-91641620D01*
X87195633Y-91630500D01*
X87187125Y-91571094D01*
X87178612Y-91511645D01*
X87178611Y-91511642D01*
X87177339Y-91502759D01*
X87164362Y-91474218D01*
X87127645Y-91393462D01*
X87127643Y-91393459D01*
X87123928Y-91385288D01*
X87071327Y-91324241D01*
X87045551Y-91294326D01*
X87045549Y-91294324D01*
X87039693Y-91287528D01*
X86931406Y-91217341D01*
X86922811Y-91214771D01*
X86922810Y-91214770D01*
X86816374Y-91182938D01*
X86816372Y-91182938D01*
X86807773Y-91180366D01*
X86798798Y-91180311D01*
X86798797Y-91180311D01*
X86744141Y-91179977D01*
X86678731Y-91179578D01*
X86638973Y-91190941D01*
X86563286Y-91212572D01*
X86563284Y-91212573D01*
X86554655Y-91215039D01*
X86525635Y-91233349D01*
X86478834Y-91262879D01*
X86445519Y-91283899D01*
X86420342Y-91312407D01*
X86360256Y-91350226D01*
X86325900Y-91355000D01*
X84691613Y-91355000D01*
X84623492Y-91334998D01*
X84596160Y-91311248D01*
X84546051Y-91253093D01*
X84546049Y-91253091D01*
X84540193Y-91246295D01*
X84431906Y-91176108D01*
X84423311Y-91173538D01*
X84423310Y-91173537D01*
X84316874Y-91141705D01*
X84316872Y-91141705D01*
X84308273Y-91139133D01*
X84299298Y-91139078D01*
X84299297Y-91139078D01*
X84244641Y-91138744D01*
X84179231Y-91138345D01*
X84129473Y-91152566D01*
X84063786Y-91171339D01*
X84063784Y-91171340D01*
X84055155Y-91173806D01*
X84042097Y-91182045D01*
X83986157Y-91217341D01*
X83946019Y-91242666D01*
X83940076Y-91249395D01*
X83940075Y-91249396D01*
X83883764Y-91313156D01*
X83860596Y-91339389D01*
X83856781Y-91347514D01*
X83856780Y-91347516D01*
X83836326Y-91391082D01*
X83789270Y-91444245D01*
X83720942Y-91463527D01*
X83653036Y-91442808D01*
X83607112Y-91388665D01*
X83596271Y-91337534D01*
X83596271Y-91313162D01*
X83596270Y-91313156D01*
X83596270Y-91281248D01*
X83593207Y-91271821D01*
X83593206Y-91271814D01*
X83589474Y-91260328D01*
X83584860Y-91241108D01*
X83582970Y-91229174D01*
X83582968Y-91229166D01*
X83581417Y-91219377D01*
X83576917Y-91210546D01*
X83576916Y-91210542D01*
X83571429Y-91199774D01*
X83563865Y-91181513D01*
X83557067Y-91160591D01*
X83546174Y-91145599D01*
X83544139Y-91142797D01*
X83533809Y-91125940D01*
X83528323Y-91115174D01*
X83528322Y-91115173D01*
X83523821Y-91106339D01*
X83434113Y-91016631D01*
X82611999Y-90194516D01*
X82611995Y-90194513D01*
X82589432Y-90171950D01*
X82569836Y-90161965D01*
X82552983Y-90151639D01*
X82535180Y-90138704D01*
X82514256Y-90131905D01*
X82495996Y-90124341D01*
X82485231Y-90118856D01*
X82485227Y-90118855D01*
X82476394Y-90114354D01*
X82466603Y-90112803D01*
X82466602Y-90112803D01*
X82454668Y-90110913D01*
X82435443Y-90106297D01*
X82423958Y-90102565D01*
X82423954Y-90102564D01*
X82414523Y-90099500D01*
X80217972Y-90099500D01*
X80168735Y-90088675D01*
X80165906Y-90086841D01*
X80122027Y-90073718D01*
X80050874Y-90052438D01*
X80050872Y-90052438D01*
X80042273Y-90049866D01*
X80033298Y-90049811D01*
X80033297Y-90049811D01*
X79978641Y-90049477D01*
X79913231Y-90049078D01*
X79878427Y-90059025D01*
X79797786Y-90082072D01*
X79797784Y-90082073D01*
X79789155Y-90084539D01*
X79781565Y-90089328D01*
X79694572Y-90144217D01*
X79680019Y-90153399D01*
X79674076Y-90160128D01*
X79674075Y-90160129D01*
X79629510Y-90210589D01*
X79594596Y-90250122D01*
X79590782Y-90258245D01*
X79590781Y-90258247D01*
X79579155Y-90283010D01*
X79539754Y-90366932D01*
X79536666Y-90386768D01*
X79521282Y-90485567D01*
X79521282Y-90485571D01*
X79519901Y-90494440D01*
X79521065Y-90503342D01*
X79521065Y-90503345D01*
X79535468Y-90613489D01*
X79535469Y-90613493D01*
X79536633Y-90622394D01*
X79540250Y-90630614D01*
X79579796Y-90720489D01*
X79588605Y-90740510D01*
X79594382Y-90747383D01*
X79594383Y-90747384D01*
X79669951Y-90837283D01*
X79698472Y-90902298D01*
X79699500Y-90918358D01*
X79699500Y-91300547D01*
X79697079Y-91325129D01*
X79694103Y-91340090D01*
X79699500Y-91367222D01*
X79699500Y-91367223D01*
X79715485Y-91447585D01*
X79738329Y-91481773D01*
X79756141Y-91508430D01*
X79776376Y-91538714D01*
X79786692Y-91545607D01*
X79786693Y-91545608D01*
X79789064Y-91547192D01*
X79808156Y-91562862D01*
X80926792Y-92681498D01*
X80960818Y-92743810D01*
X80963461Y-92769888D01*
X80962356Y-92776985D01*
X80963520Y-92785887D01*
X80963520Y-92785889D01*
X80977923Y-92896034D01*
X80977924Y-92896038D01*
X80979088Y-92904939D01*
X80982705Y-92913159D01*
X81026362Y-93012377D01*
X81031060Y-93023055D01*
X81036837Y-93029928D01*
X81036838Y-93029929D01*
X81063272Y-93061376D01*
X81114094Y-93121836D01*
X81221515Y-93193341D01*
X81310393Y-93221109D01*
X81336078Y-93229133D01*
X81344688Y-93231823D01*
X81353658Y-93231987D01*
X81353662Y-93231988D01*
X81412397Y-93233064D01*
X81473710Y-93234188D01*
X81550751Y-93213184D01*
X81589547Y-93202607D01*
X81589548Y-93202607D01*
X81598210Y-93200245D01*
X81605860Y-93195548D01*
X81605862Y-93195547D01*
X81700527Y-93137423D01*
X81700530Y-93137420D01*
X81708179Y-93132724D01*
X81714205Y-93126067D01*
X81788755Y-93043706D01*
X81788758Y-93043702D01*
X81794777Y-93037052D01*
X81851043Y-92920920D01*
X81853642Y-92905476D01*
X81871645Y-92798462D01*
X81872452Y-92793665D01*
X81872588Y-92782545D01*
X81864366Y-92725135D01*
X81855567Y-92663690D01*
X81855566Y-92663687D01*
X81854294Y-92654804D01*
X81850580Y-92646635D01*
X81804600Y-92545507D01*
X81804598Y-92545504D01*
X81800883Y-92537333D01*
X81752432Y-92481102D01*
X81722506Y-92446371D01*
X81722504Y-92446369D01*
X81716648Y-92439573D01*
X81608361Y-92369386D01*
X81599766Y-92366816D01*
X81599765Y-92366815D01*
X81493329Y-92334983D01*
X81493327Y-92334983D01*
X81484728Y-92332411D01*
X81475753Y-92332356D01*
X81475752Y-92332356D01*
X81432908Y-92332095D01*
X81407891Y-92331942D01*
X81339894Y-92311524D01*
X81319565Y-92295039D01*
X81188890Y-92164364D01*
X81154864Y-92102052D01*
X81159929Y-92031237D01*
X81202476Y-91974401D01*
X81212056Y-91967894D01*
X81222471Y-91961499D01*
X81301126Y-91913205D01*
X81331208Y-91879971D01*
X81391751Y-91842889D01*
X81424623Y-91838526D01*
X81446069Y-91838526D01*
X81514190Y-91858528D01*
X81535164Y-91875431D01*
X82048165Y-92388432D01*
X82063832Y-92407521D01*
X82072312Y-92420211D01*
X82082625Y-92427102D01*
X82095313Y-92435580D01*
X82094456Y-92436863D01*
X82094462Y-92436867D01*
X82095319Y-92435584D01*
X82101289Y-92439573D01*
X82163441Y-92481102D01*
X82243803Y-92497087D01*
X82258764Y-92500063D01*
X82258765Y-92500063D01*
X82270936Y-92502484D01*
X82285897Y-92499508D01*
X82310479Y-92497087D01*
X82352106Y-92497087D01*
X82420227Y-92517089D01*
X82441201Y-92533992D01*
X84597259Y-94690050D01*
X84631285Y-94752362D01*
X84626220Y-94823177D01*
X84622222Y-94832686D01*
X84620109Y-94837188D01*
X84600568Y-94878809D01*
X84596754Y-94886932D01*
X84587626Y-94945558D01*
X84578282Y-95005567D01*
X84578282Y-95005571D01*
X84576901Y-95014440D01*
X84578065Y-95023342D01*
X84578065Y-95023345D01*
X84592468Y-95133489D01*
X84592469Y-95133493D01*
X84593633Y-95142394D01*
X84645605Y-95260510D01*
X84651382Y-95267383D01*
X84651383Y-95267384D01*
X84664478Y-95282962D01*
X84728639Y-95359291D01*
X84736116Y-95364268D01*
X84823294Y-95422298D01*
X84833622Y-95429173D01*
X84836060Y-95430796D01*
X84835826Y-95431148D01*
X84884230Y-95474518D01*
X84903098Y-95542962D01*
X84881967Y-95610741D01*
X84869505Y-95625944D01*
X84861376Y-95631376D01*
X84854485Y-95641689D01*
X84846007Y-95654377D01*
X84846006Y-95654378D01*
X84837300Y-95667408D01*
X84837298Y-95667409D01*
X84807381Y-95712183D01*
X84807379Y-95712187D01*
X84800485Y-95722505D01*
X84784892Y-95800897D01*
X84779103Y-95830000D01*
X84781524Y-95842171D01*
X84782079Y-95844961D01*
X84784500Y-95869543D01*
X84784500Y-104943667D01*
X84764498Y-105011788D01*
X84752943Y-105027073D01*
X84679596Y-105110122D01*
X84675782Y-105118245D01*
X84675781Y-105118247D01*
X84659700Y-105152500D01*
X84624754Y-105226932D01*
X84616569Y-105279500D01*
X84606282Y-105345567D01*
X84606282Y-105345571D01*
X84604901Y-105354440D01*
X84606065Y-105363342D01*
X84606065Y-105363345D01*
X84609244Y-105387652D01*
X84598244Y-105457791D01*
X84551069Y-105510848D01*
X84484308Y-105529989D01*
X81836801Y-105529989D01*
X81768680Y-105509987D01*
X81747706Y-105493084D01*
X75721747Y-99467125D01*
X75687721Y-99404813D01*
X75692786Y-99333998D01*
X75735333Y-99277162D01*
X75801853Y-99252351D01*
X75810829Y-99252030D01*
X76159682Y-99252031D01*
X76173914Y-99252031D01*
X76198494Y-99254452D01*
X76201284Y-99255007D01*
X76201286Y-99255007D01*
X76213457Y-99257428D01*
X76240589Y-99252031D01*
X76240590Y-99252031D01*
X76320952Y-99236046D01*
X76362922Y-99208002D01*
X76362922Y-99208003D01*
X76362925Y-99208000D01*
X76389079Y-99190525D01*
X76391646Y-99194366D01*
X76391647Y-99194365D01*
X76389080Y-99190524D01*
X76401768Y-99182046D01*
X76412081Y-99175155D01*
X76420559Y-99162467D01*
X76436229Y-99143375D01*
X78012205Y-97567399D01*
X78074517Y-97533373D01*
X78101300Y-97530494D01*
X79725463Y-97530494D01*
X79750045Y-97532915D01*
X79765006Y-97535891D01*
X79792138Y-97530494D01*
X79792139Y-97530494D01*
X79872501Y-97514509D01*
X79914471Y-97486465D01*
X79914471Y-97486466D01*
X79914474Y-97486463D01*
X79940628Y-97468988D01*
X79943195Y-97472829D01*
X79943196Y-97472828D01*
X79940629Y-97468987D01*
X79953317Y-97460509D01*
X79963630Y-97453618D01*
X79972110Y-97440928D01*
X79987777Y-97421839D01*
X81902237Y-95507379D01*
X81964549Y-95473353D01*
X81993639Y-95470495D01*
X82056255Y-95471643D01*
X82139869Y-95448847D01*
X82210852Y-95450227D01*
X82269821Y-95489764D01*
X82298053Y-95554905D01*
X82299011Y-95570410D01*
X82299011Y-95879183D01*
X82279009Y-95947304D01*
X82262106Y-95968278D01*
X81997783Y-96232601D01*
X81935471Y-96266627D01*
X81907922Y-96269504D01*
X81838231Y-96269078D01*
X81779221Y-96285943D01*
X81722786Y-96302072D01*
X81722784Y-96302073D01*
X81714155Y-96304539D01*
X81605019Y-96373399D01*
X81519596Y-96470122D01*
X81464754Y-96586932D01*
X81459840Y-96618495D01*
X81446282Y-96705567D01*
X81446282Y-96705571D01*
X81444901Y-96714440D01*
X81446065Y-96723342D01*
X81446065Y-96723345D01*
X81460468Y-96833489D01*
X81460469Y-96833493D01*
X81461633Y-96842394D01*
X81513605Y-96960510D01*
X81519382Y-96967383D01*
X81519383Y-96967384D01*
X81529563Y-96979494D01*
X81596639Y-97059291D01*
X81704060Y-97130796D01*
X81827233Y-97169278D01*
X81836203Y-97169442D01*
X81836207Y-97169443D01*
X81894942Y-97170519D01*
X81956255Y-97171643D01*
X82046926Y-97146923D01*
X82072092Y-97140062D01*
X82072093Y-97140062D01*
X82080755Y-97137700D01*
X82088405Y-97133003D01*
X82088407Y-97133002D01*
X82183072Y-97074878D01*
X82183075Y-97074875D01*
X82190724Y-97070179D01*
X82196750Y-97063522D01*
X82271300Y-96981161D01*
X82271303Y-96981157D01*
X82277322Y-96974507D01*
X82333588Y-96858375D01*
X82336546Y-96840796D01*
X82354190Y-96735917D01*
X82354997Y-96731120D01*
X82355133Y-96720000D01*
X82354510Y-96715649D01*
X82370018Y-96646497D01*
X82391121Y-96618495D01*
X82741355Y-96268261D01*
X82760447Y-96252591D01*
X82762818Y-96251007D01*
X82762819Y-96251006D01*
X82773135Y-96244113D01*
X82805502Y-96195674D01*
X82834027Y-96152983D01*
X82855408Y-96045489D01*
X82852432Y-96030527D01*
X82850011Y-96005947D01*
X82850011Y-94804054D01*
X82852432Y-94779472D01*
X82852987Y-94776682D01*
X82855408Y-94764511D01*
X82834026Y-94657016D01*
X82788505Y-94588889D01*
X82788504Y-94588888D01*
X82773135Y-94565887D01*
X82760447Y-94557409D01*
X82741355Y-94541739D01*
X82478261Y-94278645D01*
X82462591Y-94259553D01*
X82461004Y-94257178D01*
X82454113Y-94246865D01*
X82431112Y-94231496D01*
X82432701Y-94229119D01*
X82432699Y-94229117D01*
X82431110Y-94231495D01*
X82372002Y-94192000D01*
X82362984Y-94185974D01*
X82282622Y-94169989D01*
X82267661Y-94167013D01*
X82267660Y-94167013D01*
X82255489Y-94164592D01*
X82243318Y-94167013D01*
X82240528Y-94167568D01*
X82215946Y-94169989D01*
X81582054Y-94169989D01*
X81557472Y-94167568D01*
X81554682Y-94167013D01*
X81542511Y-94164592D01*
X81435016Y-94185974D01*
X81366889Y-94231495D01*
X81366888Y-94231496D01*
X81343887Y-94246865D01*
X81336996Y-94257178D01*
X81335409Y-94259553D01*
X81319739Y-94278645D01*
X81065783Y-94532601D01*
X81003471Y-94566627D01*
X80975922Y-94569504D01*
X80906231Y-94569078D01*
X80894475Y-94572438D01*
X80790786Y-94602072D01*
X80790784Y-94602073D01*
X80782155Y-94604539D01*
X80774565Y-94609328D01*
X80687572Y-94664217D01*
X80673019Y-94673399D01*
X80667076Y-94680128D01*
X80667075Y-94680129D01*
X80644952Y-94705179D01*
X80587596Y-94770122D01*
X80583782Y-94778245D01*
X80583781Y-94778247D01*
X80571482Y-94804443D01*
X80532754Y-94886932D01*
X80523626Y-94945558D01*
X80514282Y-95005567D01*
X80514282Y-95005571D01*
X80512901Y-95014440D01*
X80514065Y-95023342D01*
X80514065Y-95023345D01*
X80528468Y-95133489D01*
X80528469Y-95133493D01*
X80529633Y-95142394D01*
X80581605Y-95260510D01*
X80587382Y-95267383D01*
X80587383Y-95267384D01*
X80600478Y-95282962D01*
X80664639Y-95359291D01*
X80672116Y-95364268D01*
X80759294Y-95422298D01*
X80772060Y-95430796D01*
X80895233Y-95469278D01*
X80894455Y-95471769D01*
X80946156Y-95496508D01*
X80983465Y-95556911D01*
X80982195Y-95627896D01*
X80951048Y-95679336D01*
X79687795Y-96942589D01*
X79625483Y-96976615D01*
X79598700Y-96979494D01*
X78283803Y-96979494D01*
X78215682Y-96959492D01*
X78169189Y-96905836D01*
X78160224Y-96828915D01*
X78180897Y-96724982D01*
X78177921Y-96710020D01*
X78175500Y-96685440D01*
X78175500Y-90809543D01*
X78177921Y-90784961D01*
X78178476Y-90782171D01*
X78180897Y-90770000D01*
X78171049Y-90720489D01*
X78165652Y-90693357D01*
X78161936Y-90674674D01*
X78161935Y-90674672D01*
X78159515Y-90662505D01*
X78147223Y-90644109D01*
X78125989Y-90574108D01*
X78125989Y-90428335D01*
X78145991Y-90360214D01*
X78162894Y-90339240D01*
X80406888Y-88095246D01*
X80469200Y-88061220D01*
X80495983Y-88058341D01*
X82577864Y-88058341D01*
X82645985Y-88078343D01*
X82674313Y-88103263D01*
X82690174Y-88122132D01*
X82797595Y-88193637D01*
X82920768Y-88232119D01*
X82929738Y-88232283D01*
X82929742Y-88232284D01*
X82988477Y-88233360D01*
X83049790Y-88234484D01*
X83152624Y-88206448D01*
X83165627Y-88202903D01*
X83165628Y-88202903D01*
X83174290Y-88200541D01*
X83181940Y-88195844D01*
X83181942Y-88195843D01*
X83276607Y-88137719D01*
X83276610Y-88137716D01*
X83284259Y-88133020D01*
X83290285Y-88126363D01*
X83364835Y-88044002D01*
X83364838Y-88043998D01*
X83370857Y-88037348D01*
X83427123Y-87921216D01*
X83430834Y-87899162D01*
X83447725Y-87798758D01*
X83448532Y-87793961D01*
X83448668Y-87782841D01*
X83430374Y-87655100D01*
X83412595Y-87615997D01*
X83380680Y-87545803D01*
X83380678Y-87545800D01*
X83376963Y-87537629D01*
X83292728Y-87439869D01*
X83184441Y-87369682D01*
X83175846Y-87367112D01*
X83175845Y-87367111D01*
X83069409Y-87335279D01*
X83069407Y-87335279D01*
X83060808Y-87332707D01*
X83051833Y-87332652D01*
X83051832Y-87332652D01*
X82997176Y-87332318D01*
X82931766Y-87331919D01*
X82920010Y-87335279D01*
X82816321Y-87364913D01*
X82816319Y-87364914D01*
X82807690Y-87367380D01*
X82698554Y-87436240D01*
X82673377Y-87464748D01*
X82613291Y-87502567D01*
X82578935Y-87507341D01*
X80369220Y-87507341D01*
X80344638Y-87504920D01*
X80341848Y-87504365D01*
X80329677Y-87501944D01*
X80222182Y-87523326D01*
X80154055Y-87568847D01*
X80154054Y-87568848D01*
X80131053Y-87584217D01*
X80124162Y-87594530D01*
X80122575Y-87596905D01*
X80106905Y-87615997D01*
X77683645Y-90039257D01*
X77664553Y-90054927D01*
X77651865Y-90063405D01*
X77644974Y-90073718D01*
X77636496Y-90086406D01*
X77636495Y-90086407D01*
X77623448Y-90105933D01*
X77597867Y-90144217D01*
X77597866Y-90144219D01*
X77590974Y-90154534D01*
X77588554Y-90166701D01*
X77588553Y-90166703D01*
X77576641Y-90226590D01*
X77572071Y-90249568D01*
X77569592Y-90262029D01*
X77572013Y-90274200D01*
X77572568Y-90276990D01*
X77574989Y-90301572D01*
X77574989Y-90680946D01*
X77572568Y-90705528D01*
X77569592Y-90720489D01*
X77572013Y-90732660D01*
X77574752Y-90746432D01*
X77574989Y-90747621D01*
X77574989Y-90747622D01*
X77590974Y-90827984D01*
X77603266Y-90846379D01*
X77624500Y-90916380D01*
X77624500Y-94234212D01*
X77604498Y-94302333D01*
X77550842Y-94348826D01*
X77480568Y-94358930D01*
X77415988Y-94329436D01*
X77409405Y-94323307D01*
X76965224Y-93879126D01*
X76949554Y-93860034D01*
X76947967Y-93857659D01*
X76941076Y-93847346D01*
X76918075Y-93831977D01*
X76919664Y-93829600D01*
X76919662Y-93829599D01*
X76918074Y-93831976D01*
X76891920Y-93814501D01*
X76891918Y-93814498D01*
X76891917Y-93814499D01*
X76860263Y-93793348D01*
X76849947Y-93786455D01*
X76837778Y-93784034D01*
X76837777Y-93784034D01*
X76769585Y-93770470D01*
X76754624Y-93767494D01*
X76754623Y-93767494D01*
X76742452Y-93765073D01*
X76730281Y-93767494D01*
X76727491Y-93768049D01*
X76702909Y-93770470D01*
X73418567Y-93770470D01*
X73393987Y-93768049D01*
X73391197Y-93767494D01*
X73391195Y-93767494D01*
X73379024Y-93765073D01*
X73366853Y-93767494D01*
X73351892Y-93770470D01*
X73351891Y-93770470D01*
X73271529Y-93786455D01*
X73229559Y-93814499D01*
X73229559Y-93814498D01*
X73229556Y-93814501D01*
X73203402Y-93831976D01*
X73200835Y-93828135D01*
X73200834Y-93828136D01*
X73203401Y-93831977D01*
X73180400Y-93847346D01*
X73173509Y-93857659D01*
X73171922Y-93860034D01*
X73156252Y-93879126D01*
X72902283Y-94133095D01*
X72839971Y-94167121D01*
X72813188Y-94170000D01*
X71601342Y-94170000D01*
X71533221Y-94149998D01*
X71512247Y-94133095D01*
X67416092Y-90036940D01*
X71109401Y-90036940D01*
X71110565Y-90045842D01*
X71110565Y-90045845D01*
X71124968Y-90155989D01*
X71124969Y-90155993D01*
X71126133Y-90164894D01*
X71146239Y-90210589D01*
X71174229Y-90274200D01*
X71178105Y-90283010D01*
X71183882Y-90289883D01*
X71183883Y-90289884D01*
X71255359Y-90374915D01*
X71261139Y-90381791D01*
X71368560Y-90453296D01*
X71393765Y-90461171D01*
X71397639Y-90462381D01*
X71449160Y-90493553D01*
X71761091Y-90805484D01*
X71761095Y-90805487D01*
X71783658Y-90828050D01*
X71792497Y-90832554D01*
X71792499Y-90832555D01*
X71803258Y-90838037D01*
X71820114Y-90848365D01*
X71837911Y-90861296D01*
X71858832Y-90868094D01*
X71877092Y-90875658D01*
X71887859Y-90881144D01*
X71887863Y-90881145D01*
X71896696Y-90885646D01*
X71906487Y-90887197D01*
X71906488Y-90887197D01*
X71918422Y-90889087D01*
X71937647Y-90893703D01*
X71949132Y-90897435D01*
X71949136Y-90897436D01*
X71958567Y-90900500D01*
X74981919Y-90900500D01*
X75028952Y-90911142D01*
X75029060Y-90910796D01*
X75033358Y-90912139D01*
X75033360Y-90912140D01*
X75152233Y-90949278D01*
X75161203Y-90949442D01*
X75161207Y-90949443D01*
X75218735Y-90950497D01*
X75281255Y-90951643D01*
X75395478Y-90920502D01*
X75397092Y-90920062D01*
X75397093Y-90920062D01*
X75405755Y-90917700D01*
X75413405Y-90913003D01*
X75413407Y-90913002D01*
X75508072Y-90854878D01*
X75508075Y-90854875D01*
X75515724Y-90850179D01*
X75521750Y-90843522D01*
X75596300Y-90761161D01*
X75596303Y-90761157D01*
X75602322Y-90754507D01*
X75658588Y-90638375D01*
X75679997Y-90511120D01*
X75680133Y-90500000D01*
X75663597Y-90384534D01*
X75663112Y-90381145D01*
X75663111Y-90381142D01*
X75661839Y-90372259D01*
X75658125Y-90364090D01*
X75612145Y-90262962D01*
X75612143Y-90262959D01*
X75608428Y-90254788D01*
X75570344Y-90210589D01*
X75530051Y-90163826D01*
X75530049Y-90163824D01*
X75524193Y-90157028D01*
X75415906Y-90086841D01*
X75407311Y-90084271D01*
X75407310Y-90084270D01*
X75300874Y-90052438D01*
X75300872Y-90052438D01*
X75292273Y-90049866D01*
X75283298Y-90049811D01*
X75283297Y-90049811D01*
X75228641Y-90049477D01*
X75163231Y-90049078D01*
X75039155Y-90084539D01*
X75032580Y-90088688D01*
X74981929Y-90099500D01*
X72240083Y-90099500D01*
X72171962Y-90079498D01*
X72150988Y-90062595D01*
X72015980Y-89927587D01*
X71990374Y-89890643D01*
X71984510Y-89877747D01*
X71947928Y-89797288D01*
X71896839Y-89737996D01*
X71869551Y-89706326D01*
X71869549Y-89706324D01*
X71863693Y-89699528D01*
X71755406Y-89629341D01*
X71746811Y-89626771D01*
X71746810Y-89626770D01*
X71640374Y-89594938D01*
X71640372Y-89594938D01*
X71631773Y-89592366D01*
X71622798Y-89592311D01*
X71622797Y-89592311D01*
X71568141Y-89591977D01*
X71502731Y-89591578D01*
X71490975Y-89594938D01*
X71387286Y-89624572D01*
X71387284Y-89624573D01*
X71378655Y-89627039D01*
X71371065Y-89631828D01*
X71318572Y-89664949D01*
X71269519Y-89695899D01*
X71263576Y-89702628D01*
X71263575Y-89702629D01*
X71247464Y-89720871D01*
X71184096Y-89792622D01*
X71180282Y-89800745D01*
X71180281Y-89800747D01*
X71162006Y-89839672D01*
X71129254Y-89909432D01*
X71124526Y-89939797D01*
X71110782Y-90028067D01*
X71110782Y-90028071D01*
X71109401Y-90036940D01*
X67416092Y-90036940D01*
X67088768Y-89709616D01*
X67054742Y-89647304D01*
X67052948Y-89618515D01*
X67051915Y-89618502D01*
X67051992Y-89612241D01*
X67051992Y-89612235D01*
X67052051Y-89607382D01*
X67038909Y-89515614D01*
X67035030Y-89488527D01*
X67035029Y-89488524D01*
X67033757Y-89479641D01*
X67024283Y-89458803D01*
X66984063Y-89370344D01*
X66984061Y-89370341D01*
X66980346Y-89362170D01*
X66954543Y-89332224D01*
X66901969Y-89271208D01*
X66901967Y-89271206D01*
X66896111Y-89264410D01*
X66787824Y-89194223D01*
X66779229Y-89191653D01*
X66779228Y-89191652D01*
X66672792Y-89159820D01*
X66672790Y-89159820D01*
X66664191Y-89157248D01*
X66655216Y-89157193D01*
X66655215Y-89157193D01*
X66600559Y-89156859D01*
X66535149Y-89156460D01*
X66523393Y-89159820D01*
X66419704Y-89189454D01*
X66419702Y-89189455D01*
X66411073Y-89191921D01*
X66301937Y-89260781D01*
X66216514Y-89357504D01*
X66212700Y-89365627D01*
X66212699Y-89365629D01*
X66200686Y-89391217D01*
X66161672Y-89474314D01*
X66159091Y-89490890D01*
X66143200Y-89592949D01*
X66143200Y-89592953D01*
X66141819Y-89601822D01*
X66142983Y-89610724D01*
X66142983Y-89610727D01*
X66157386Y-89720871D01*
X66157387Y-89720875D01*
X66158551Y-89729776D01*
X66210523Y-89847892D01*
X66216300Y-89854765D01*
X66216301Y-89854766D01*
X66287777Y-89939797D01*
X66293557Y-89946673D01*
X66400978Y-90018178D01*
X66468448Y-90039257D01*
X66506006Y-90050991D01*
X66524151Y-90056660D01*
X66533121Y-90056824D01*
X66533125Y-90056825D01*
X66608219Y-90058201D01*
X66675962Y-90079448D01*
X66695005Y-90095085D01*
X71212264Y-94612344D01*
X71227934Y-94631436D01*
X71236412Y-94644124D01*
X71246725Y-94651015D01*
X71259413Y-94659493D01*
X71257824Y-94661870D01*
X71257826Y-94661871D01*
X71259414Y-94659494D01*
X71280222Y-94673397D01*
X71280224Y-94673400D01*
X71280225Y-94673399D01*
X71327541Y-94705015D01*
X71339710Y-94707436D01*
X71339711Y-94707436D01*
X71407903Y-94721000D01*
X71422864Y-94723976D01*
X71422865Y-94723976D01*
X71435036Y-94726397D01*
X71449997Y-94723421D01*
X71474579Y-94721000D01*
X72939951Y-94721000D01*
X72964533Y-94723421D01*
X72979494Y-94726397D01*
X73006626Y-94721000D01*
X73006627Y-94721000D01*
X73086989Y-94705015D01*
X73134305Y-94673399D01*
X73134305Y-94673400D01*
X73134308Y-94673397D01*
X73155116Y-94659494D01*
X73157683Y-94663335D01*
X73157684Y-94663334D01*
X73155117Y-94659493D01*
X73167805Y-94651015D01*
X73178118Y-94644124D01*
X73186596Y-94631436D01*
X73202266Y-94612344D01*
X73456235Y-94358375D01*
X73518547Y-94324349D01*
X73545330Y-94321470D01*
X75080242Y-94321470D01*
X75148363Y-94341472D01*
X75194856Y-94395128D01*
X75204960Y-94465402D01*
X75175466Y-94529982D01*
X75169337Y-94536565D01*
X75146645Y-94559257D01*
X75127553Y-94574927D01*
X75114865Y-94583405D01*
X75099496Y-94606406D01*
X75099495Y-94606407D01*
X75085281Y-94627680D01*
X75053974Y-94674534D01*
X75051553Y-94686705D01*
X75038136Y-94754156D01*
X75037393Y-94757894D01*
X75032592Y-94782029D01*
X75035013Y-94794200D01*
X75035568Y-94796990D01*
X75037989Y-94821572D01*
X75037989Y-95220205D01*
X75017987Y-95288326D01*
X75001084Y-95309300D01*
X74457300Y-95853084D01*
X74394988Y-95887110D01*
X74368205Y-95889989D01*
X73762428Y-95889989D01*
X73694307Y-95869987D01*
X73647814Y-95816331D01*
X73637710Y-95746057D01*
X73649036Y-95709051D01*
X73663995Y-95678175D01*
X73673588Y-95658375D01*
X73684484Y-95593613D01*
X73694190Y-95535917D01*
X73694997Y-95531120D01*
X73695133Y-95520000D01*
X73683347Y-95437700D01*
X73678112Y-95401145D01*
X73678111Y-95401142D01*
X73676839Y-95392259D01*
X73668691Y-95374338D01*
X73627145Y-95282962D01*
X73627143Y-95282959D01*
X73623428Y-95274788D01*
X73582966Y-95227829D01*
X73545051Y-95183826D01*
X73545049Y-95183824D01*
X73539193Y-95177028D01*
X73430906Y-95106841D01*
X73422311Y-95104271D01*
X73422310Y-95104270D01*
X73315874Y-95072438D01*
X73315872Y-95072438D01*
X73307273Y-95069866D01*
X73298298Y-95069811D01*
X73298297Y-95069811D01*
X73243641Y-95069477D01*
X73178231Y-95069078D01*
X73116193Y-95086808D01*
X73062786Y-95102072D01*
X73062784Y-95102073D01*
X73054155Y-95104539D01*
X73046565Y-95109328D01*
X72990655Y-95144605D01*
X72945019Y-95173399D01*
X72919842Y-95201907D01*
X72859756Y-95239726D01*
X72825400Y-95244500D01*
X68746306Y-95244500D01*
X68678185Y-95224498D01*
X68657211Y-95207595D01*
X66542772Y-93093156D01*
X66527102Y-93074064D01*
X66525515Y-93071689D01*
X66518624Y-93061376D01*
X66495623Y-93046007D01*
X66495622Y-93046006D01*
X66445292Y-93012377D01*
X66445223Y-93012331D01*
X66437816Y-93007381D01*
X66437814Y-93007380D01*
X66427495Y-93000485D01*
X66415321Y-92998063D01*
X66415320Y-92998063D01*
X66347133Y-92984500D01*
X66332172Y-92981524D01*
X66332171Y-92981524D01*
X66320000Y-92979103D01*
X66307829Y-92981524D01*
X66305039Y-92982079D01*
X66280457Y-92984500D01*
X63544543Y-92984500D01*
X63519961Y-92982079D01*
X63517171Y-92981524D01*
X63505000Y-92979103D01*
X63492829Y-92981524D01*
X63477868Y-92984500D01*
X63477867Y-92984500D01*
X63397505Y-93000485D01*
X63387186Y-93007380D01*
X63387184Y-93007381D01*
X63379777Y-93012331D01*
X63379708Y-93012377D01*
X63329378Y-93046006D01*
X63329377Y-93046007D01*
X63306376Y-93061376D01*
X63299485Y-93071689D01*
X63297898Y-93074064D01*
X63282228Y-93093156D01*
X62507783Y-93867601D01*
X62445471Y-93901627D01*
X62417922Y-93904504D01*
X62348231Y-93904078D01*
X62304767Y-93916500D01*
X62232786Y-93937072D01*
X62232784Y-93937073D01*
X62224155Y-93939539D01*
X62115019Y-94008399D01*
X62109076Y-94015128D01*
X62109075Y-94015129D01*
X62073973Y-94054875D01*
X62029596Y-94105122D01*
X61974754Y-94221932D01*
X61968707Y-94260768D01*
X61956282Y-94340567D01*
X61956282Y-94340571D01*
X61954901Y-94349440D01*
X61956065Y-94358342D01*
X61956065Y-94358345D01*
X61970468Y-94468489D01*
X61970469Y-94468493D01*
X61971633Y-94477394D01*
X61975250Y-94485614D01*
X62007539Y-94558996D01*
X62023605Y-94595510D01*
X62029382Y-94602383D01*
X62029383Y-94602384D01*
X62097842Y-94683826D01*
X62106639Y-94694291D01*
X62214060Y-94765796D01*
X62296791Y-94791643D01*
X62313906Y-94796990D01*
X62337233Y-94804278D01*
X62346203Y-94804442D01*
X62346207Y-94804443D01*
X62404942Y-94805519D01*
X62466255Y-94806643D01*
X62565916Y-94779472D01*
X62582092Y-94775062D01*
X62582093Y-94775062D01*
X62590755Y-94772700D01*
X62598405Y-94768003D01*
X62598407Y-94768002D01*
X62693072Y-94709878D01*
X62693075Y-94709875D01*
X62700724Y-94705179D01*
X62707112Y-94698122D01*
X62781300Y-94616161D01*
X62781303Y-94616157D01*
X62787322Y-94609507D01*
X62843588Y-94493375D01*
X62850551Y-94451990D01*
X62864190Y-94370917D01*
X62864997Y-94366120D01*
X62865133Y-94355000D01*
X62864510Y-94350649D01*
X62880018Y-94281497D01*
X62901121Y-94253495D01*
X63582211Y-93572405D01*
X63644523Y-93538379D01*
X63671306Y-93535500D01*
X63925688Y-93535500D01*
X63993809Y-93555502D01*
X64040302Y-93609158D01*
X64050406Y-93679432D01*
X64020912Y-93744012D01*
X64014783Y-93750595D01*
X60634125Y-97131253D01*
X60615033Y-97146923D01*
X60602345Y-97155401D01*
X60541454Y-97246530D01*
X60525469Y-97326892D01*
X60520072Y-97354025D01*
X60522493Y-97366196D01*
X60523048Y-97368986D01*
X60525469Y-97393568D01*
X60525469Y-98284977D01*
X60523048Y-98309559D01*
X60520072Y-98324520D01*
X60525469Y-98351652D01*
X60525469Y-98351653D01*
X60541454Y-98432015D01*
X60602345Y-98523144D01*
X60612661Y-98530037D01*
X60612662Y-98530038D01*
X60615033Y-98531622D01*
X60634125Y-98547292D01*
X61914044Y-99827211D01*
X61948070Y-99889523D01*
X61950949Y-99916306D01*
X61950949Y-99997799D01*
X61930947Y-100065920D01*
X61877291Y-100112413D01*
X61807017Y-100122517D01*
X61742437Y-100093023D01*
X61725122Y-100074679D01*
X61718638Y-100066259D01*
X61575306Y-99908740D01*
X61567773Y-99901715D01*
X61400639Y-99769722D01*
X61392052Y-99764017D01*
X61205617Y-99661099D01*
X61196205Y-99656869D01*
X60995459Y-99585780D01*
X60985488Y-99583146D01*
X60914337Y-99570472D01*
X60901040Y-99571932D01*
X60896500Y-99586489D01*
X60896500Y-101029500D01*
X60876498Y-101097621D01*
X60822842Y-101144114D01*
X60770500Y-101155500D01*
X59325725Y-101155500D01*
X59312194Y-101159473D01*
X59310757Y-101169466D01*
X59341065Y-101303946D01*
X59344145Y-101313775D01*
X59424270Y-101511103D01*
X59428913Y-101520294D01*
X59540194Y-101701888D01*
X59546277Y-101710199D01*
X59685713Y-101871167D01*
X59693080Y-101878383D01*
X59856934Y-102014416D01*
X59865381Y-102020331D01*
X60049256Y-102127779D01*
X60058542Y-102132229D01*
X60228922Y-102197290D01*
X60285425Y-102240277D01*
X60309718Y-102306988D01*
X60294088Y-102376243D01*
X60243497Y-102426054D01*
X60183973Y-102441000D01*
X59777680Y-102441000D01*
X59733778Y-102449733D01*
X59723460Y-102456627D01*
X59723458Y-102456628D01*
X59694315Y-102476101D01*
X59683996Y-102482996D01*
X59677101Y-102493315D01*
X59657628Y-102522458D01*
X59657627Y-102522460D01*
X59650733Y-102532778D01*
X59642000Y-102576680D01*
X59642000Y-104306320D01*
X59650733Y-104350222D01*
X59657627Y-104360540D01*
X59657628Y-104360542D01*
X59657689Y-104360633D01*
X59683996Y-104400004D01*
X59694315Y-104406899D01*
X59723458Y-104426372D01*
X59723460Y-104426373D01*
X59733778Y-104433267D01*
X59777680Y-104442000D01*
X61507320Y-104442000D01*
X61551222Y-104433267D01*
X61561540Y-104426373D01*
X61561542Y-104426372D01*
X61590685Y-104406899D01*
X61601004Y-104400004D01*
X61627311Y-104360633D01*
X61627372Y-104360542D01*
X61627373Y-104360540D01*
X61634267Y-104350222D01*
X61643000Y-104306320D01*
X61643000Y-102576680D01*
X61634267Y-102532778D01*
X61627373Y-102522460D01*
X61627372Y-102522458D01*
X61607899Y-102493315D01*
X61601004Y-102482996D01*
X61590685Y-102476101D01*
X61561542Y-102456628D01*
X61561540Y-102456627D01*
X61551222Y-102449733D01*
X61507320Y-102441000D01*
X61095556Y-102441000D01*
X61027435Y-102420998D01*
X60980942Y-102367342D01*
X60970838Y-102297068D01*
X61000332Y-102232488D01*
X61059349Y-102194314D01*
X61134752Y-102171692D01*
X61144342Y-102167933D01*
X61335595Y-102074239D01*
X61344445Y-102068964D01*
X61517828Y-101945292D01*
X61525700Y-101938639D01*
X61676552Y-101788312D01*
X61683230Y-101780465D01*
X61722627Y-101725638D01*
X61778621Y-101681990D01*
X61849325Y-101675544D01*
X61912289Y-101708347D01*
X61947523Y-101769984D01*
X61950949Y-101799164D01*
X61950949Y-103035906D01*
X61948528Y-103060488D01*
X61945552Y-103075449D01*
X61950949Y-103102581D01*
X61950949Y-103102582D01*
X61966934Y-103182944D01*
X61973831Y-103193265D01*
X61973832Y-103193268D01*
X61973985Y-103193496D01*
X62007249Y-103243278D01*
X62010506Y-103248153D01*
X62027825Y-103274073D01*
X62038141Y-103280966D01*
X62038142Y-103280967D01*
X62040513Y-103282551D01*
X62059605Y-103298221D01*
X63794757Y-105033373D01*
X63828783Y-105095685D01*
X63823644Y-105166697D01*
X63779522Y-105284391D01*
X63775895Y-105299649D01*
X63770369Y-105350514D01*
X63770000Y-105357328D01*
X63770000Y-105383885D01*
X63774475Y-105399124D01*
X63775865Y-105400329D01*
X63783548Y-105402000D01*
X67267884Y-105402000D01*
X67283123Y-105397525D01*
X67284328Y-105396135D01*
X67285999Y-105388452D01*
X67285999Y-105357331D01*
X67285629Y-105350510D01*
X67280105Y-105299648D01*
X67276479Y-105284396D01*
X67231324Y-105163946D01*
X67222786Y-105148351D01*
X67146285Y-105046276D01*
X67133724Y-105033715D01*
X67031649Y-104957214D01*
X67016055Y-104948676D01*
X67010273Y-104946509D01*
X66953508Y-104903869D01*
X66928806Y-104837308D01*
X66928500Y-104828526D01*
X66928500Y-104687180D01*
X66919767Y-104643278D01*
X66912873Y-104632960D01*
X66912872Y-104632958D01*
X66888846Y-104597001D01*
X66867631Y-104529248D01*
X66888846Y-104456999D01*
X66912872Y-104421042D01*
X66912873Y-104421040D01*
X66919767Y-104410722D01*
X66928500Y-104366820D01*
X66928500Y-103987180D01*
X66919767Y-103943278D01*
X66912873Y-103932960D01*
X66912872Y-103932958D01*
X66888846Y-103897001D01*
X66867631Y-103829248D01*
X66888846Y-103756999D01*
X66912872Y-103721042D01*
X66912873Y-103721040D01*
X66919767Y-103710722D01*
X66928500Y-103666820D01*
X66928500Y-103525474D01*
X66948502Y-103457353D01*
X67002158Y-103410860D01*
X67010274Y-103407491D01*
X67016215Y-103405264D01*
X67087022Y-103400083D01*
X67149390Y-103434005D01*
X67183517Y-103496262D01*
X67185377Y-103506909D01*
X67188644Y-103531894D01*
X67192261Y-103540114D01*
X67215840Y-103593702D01*
X67226511Y-103644448D01*
X67226511Y-103952433D01*
X67229575Y-103961864D01*
X67229576Y-103961868D01*
X67233308Y-103973353D01*
X67237924Y-103992578D01*
X67241365Y-104014304D01*
X67245866Y-104023137D01*
X67245867Y-104023141D01*
X67251352Y-104033906D01*
X67258916Y-104052166D01*
X67265715Y-104073090D01*
X67278650Y-104090893D01*
X67288976Y-104107745D01*
X67298961Y-104127342D01*
X67321524Y-104149905D01*
X67321527Y-104149909D01*
X69089961Y-105918342D01*
X69179669Y-106008050D01*
X69188503Y-106012551D01*
X69188504Y-106012552D01*
X69199270Y-106018038D01*
X69216127Y-106028368D01*
X69217133Y-106029099D01*
X69233921Y-106041296D01*
X69254843Y-106048094D01*
X69273104Y-106055658D01*
X69283872Y-106061145D01*
X69283876Y-106061146D01*
X69292707Y-106065646D01*
X69302496Y-106067197D01*
X69302504Y-106067199D01*
X69314438Y-106069089D01*
X69333658Y-106073703D01*
X69345144Y-106077435D01*
X69345151Y-106077436D01*
X69354578Y-106080499D01*
X69386488Y-106080499D01*
X69386492Y-106080500D01*
X70896917Y-106080500D01*
X70965038Y-106100502D01*
X70986012Y-106117405D01*
X71012012Y-106143405D01*
X71046038Y-106205717D01*
X71040973Y-106276532D01*
X71012012Y-106321595D01*
X67506012Y-109827595D01*
X67443700Y-109861621D01*
X67416917Y-109864500D01*
X66361567Y-109864500D01*
X66352136Y-109867564D01*
X66352132Y-109867565D01*
X66340647Y-109871297D01*
X66321422Y-109875913D01*
X66309488Y-109877803D01*
X66309487Y-109877803D01*
X66299696Y-109879354D01*
X66290863Y-109883855D01*
X66290859Y-109883856D01*
X66280092Y-109889342D01*
X66261832Y-109896906D01*
X66240911Y-109903704D01*
X66232888Y-109909533D01*
X66223113Y-109916635D01*
X66206258Y-109926963D01*
X66195499Y-109932445D01*
X66195497Y-109932446D01*
X66186658Y-109936950D01*
X66179642Y-109943966D01*
X66171625Y-109949791D01*
X66169704Y-109947147D01*
X66131655Y-109969538D01*
X66114155Y-109974539D01*
X66005019Y-110043399D01*
X65999076Y-110050128D01*
X65999075Y-110050129D01*
X65968642Y-110084588D01*
X65919596Y-110140122D01*
X65915782Y-110148245D01*
X65915781Y-110148247D01*
X65909989Y-110160584D01*
X65864754Y-110256932D01*
X65857191Y-110305508D01*
X65846282Y-110375567D01*
X65846282Y-110375571D01*
X65844901Y-110384440D01*
X65846065Y-110393342D01*
X65846065Y-110393345D01*
X65860468Y-110503489D01*
X65860469Y-110503493D01*
X65861633Y-110512394D01*
X65870719Y-110533043D01*
X65895126Y-110588512D01*
X65913605Y-110630510D01*
X65996639Y-110729291D01*
X66004116Y-110734268D01*
X66104060Y-110800796D01*
X66103111Y-110802221D01*
X66148143Y-110842579D01*
X66167002Y-110911025D01*
X66145864Y-110978801D01*
X66130115Y-110998012D01*
X65847447Y-111280680D01*
X65785135Y-111314706D01*
X65778062Y-111316034D01*
X65760185Y-111318865D01*
X65751350Y-111323367D01*
X65751349Y-111323367D01*
X65740586Y-111328851D01*
X65722325Y-111336415D01*
X65701400Y-111343214D01*
X65683602Y-111356145D01*
X65666746Y-111366474D01*
X65655982Y-111371959D01*
X65655981Y-111371960D01*
X65647147Y-111376461D01*
X65624584Y-111399024D01*
X65624580Y-111399027D01*
X65529889Y-111493718D01*
X65475419Y-111525772D01*
X65457922Y-111530772D01*
X65387512Y-111575197D01*
X65369398Y-111586627D01*
X65348786Y-111599632D01*
X65342843Y-111606361D01*
X65342842Y-111606362D01*
X65326789Y-111624539D01*
X65263363Y-111696355D01*
X65259549Y-111704478D01*
X65259548Y-111704480D01*
X65250555Y-111723635D01*
X65203498Y-111776797D01*
X65135170Y-111796079D01*
X65067264Y-111775359D01*
X65021340Y-111721216D01*
X65010500Y-111670086D01*
X65010500Y-110160584D01*
X65023108Y-110105645D01*
X65027822Y-110095916D01*
X65043588Y-110063375D01*
X65045817Y-110050129D01*
X65064190Y-109940917D01*
X65064997Y-109936120D01*
X65065133Y-109925000D01*
X65051385Y-109829000D01*
X65048112Y-109806145D01*
X65048111Y-109806142D01*
X65046839Y-109797259D01*
X65041377Y-109785246D01*
X64997145Y-109687962D01*
X64997143Y-109687959D01*
X64993428Y-109679788D01*
X64925345Y-109600773D01*
X64915051Y-109588826D01*
X64915049Y-109588824D01*
X64909193Y-109582028D01*
X64800906Y-109511841D01*
X64792311Y-109509271D01*
X64792310Y-109509270D01*
X64685874Y-109477438D01*
X64685872Y-109477438D01*
X64677273Y-109474866D01*
X64668298Y-109474811D01*
X64668297Y-109474811D01*
X64613641Y-109474477D01*
X64548231Y-109474078D01*
X64536475Y-109477438D01*
X64432786Y-109507072D01*
X64432784Y-109507073D01*
X64424155Y-109509539D01*
X64416565Y-109514328D01*
X64336837Y-109564633D01*
X64315019Y-109578399D01*
X64309076Y-109585128D01*
X64309075Y-109585129D01*
X64257534Y-109643488D01*
X64229596Y-109675122D01*
X64225782Y-109683245D01*
X64225781Y-109683247D01*
X64209189Y-109718587D01*
X64174754Y-109791932D01*
X64173374Y-109800798D01*
X64156282Y-109910567D01*
X64156282Y-109910571D01*
X64154901Y-109919440D01*
X64156065Y-109928342D01*
X64156065Y-109928345D01*
X64170468Y-110038489D01*
X64170469Y-110038493D01*
X64171633Y-110047394D01*
X64197264Y-110105645D01*
X64198829Y-110109202D01*
X64209500Y-110159948D01*
X64209500Y-111549203D01*
X64189498Y-111617324D01*
X64135842Y-111663817D01*
X64065568Y-111673921D01*
X64000988Y-111644427D01*
X63994405Y-111638298D01*
X62637405Y-110281298D01*
X62603379Y-110218986D01*
X62600500Y-110192203D01*
X62600500Y-108715554D01*
X62620502Y-108647433D01*
X62633085Y-108630999D01*
X62696299Y-108561161D01*
X62702322Y-108554507D01*
X62758588Y-108438375D01*
X62762694Y-108413972D01*
X62779190Y-108315917D01*
X62779997Y-108311120D01*
X62780133Y-108300000D01*
X62772748Y-108248433D01*
X62763112Y-108181145D01*
X62763111Y-108181142D01*
X62761839Y-108172259D01*
X62755724Y-108158809D01*
X62712145Y-108062962D01*
X62712143Y-108062959D01*
X62708428Y-108054788D01*
X62624193Y-107957028D01*
X62515906Y-107886841D01*
X62507311Y-107884271D01*
X62507310Y-107884270D01*
X62400874Y-107852438D01*
X62400872Y-107852438D01*
X62392273Y-107849866D01*
X62383298Y-107849811D01*
X62383297Y-107849811D01*
X62328641Y-107849477D01*
X62263231Y-107849078D01*
X62251475Y-107852438D01*
X62147786Y-107882072D01*
X62147784Y-107882073D01*
X62139155Y-107884539D01*
X62030019Y-107953399D01*
X62024076Y-107960128D01*
X62024075Y-107960129D01*
X61983946Y-108005567D01*
X61944596Y-108050122D01*
X61940782Y-108058245D01*
X61940781Y-108058247D01*
X61931851Y-108077267D01*
X61889754Y-108166932D01*
X61888374Y-108175798D01*
X61871282Y-108285567D01*
X61871282Y-108285571D01*
X61869901Y-108294440D01*
X61871065Y-108303342D01*
X61871065Y-108303345D01*
X61885468Y-108413489D01*
X61885469Y-108413493D01*
X61886633Y-108422394D01*
X61906084Y-108466601D01*
X61928410Y-108517339D01*
X61938605Y-108540510D01*
X61944382Y-108547383D01*
X61944383Y-108547384D01*
X62019951Y-108637283D01*
X62048472Y-108702298D01*
X62049500Y-108718358D01*
X62049500Y-110318966D01*
X62047079Y-110343548D01*
X62044103Y-110358509D01*
X62049500Y-110385641D01*
X62049500Y-110385642D01*
X62065485Y-110466004D01*
X62090887Y-110504020D01*
X62110807Y-110533832D01*
X62126376Y-110557133D01*
X62136692Y-110564026D01*
X62136693Y-110564027D01*
X62139064Y-110565611D01*
X62158156Y-110581281D01*
X65032483Y-113455608D01*
X65048148Y-113474693D01*
X65051176Y-113479224D01*
X65072396Y-113546976D01*
X65053618Y-113615444D01*
X65026477Y-113646529D01*
X64956671Y-113703970D01*
X64952637Y-113709227D01*
X64951290Y-113711301D01*
X64951288Y-113711304D01*
X64937722Y-113732194D01*
X64908357Y-113760974D01*
X64909474Y-113762306D01*
X64902595Y-113768078D01*
X64894973Y-113772813D01*
X64888988Y-113779495D01*
X64888987Y-113779496D01*
X64875562Y-113794485D01*
X64824416Y-113851589D01*
X64821767Y-113855667D01*
X64821767Y-113855668D01*
X64481864Y-114379072D01*
X64458453Y-114415121D01*
X64456571Y-114419185D01*
X64419031Y-114500242D01*
X64419030Y-114500246D01*
X64415259Y-114508388D01*
X64413925Y-114517262D01*
X64413924Y-114517265D01*
X64413723Y-114518605D01*
X64411909Y-114523983D01*
X64411345Y-114525863D01*
X64411281Y-114525844D01*
X64399615Y-114560432D01*
X64398297Y-114562837D01*
X64395737Y-114566779D01*
X64353835Y-114658938D01*
X64350394Y-114685613D01*
X64348831Y-114697733D01*
X64320279Y-114762735D01*
X64261116Y-114801982D01*
X64190127Y-114803013D01*
X64136852Y-114772744D01*
X64135441Y-114771396D01*
X63883799Y-114531120D01*
X63571342Y-114232774D01*
X63567226Y-114228658D01*
X63001383Y-113636050D01*
X62997462Y-113631748D01*
X62459603Y-113013653D01*
X62455885Y-113009175D01*
X62270827Y-112775542D01*
X61947135Y-112366887D01*
X61943656Y-112362280D01*
X61465108Y-111697175D01*
X61461818Y-111692373D01*
X61370743Y-111552601D01*
X61014488Y-111005861D01*
X61011448Y-111000952D01*
X60772941Y-110595095D01*
X60596307Y-110294524D01*
X60593475Y-110289439D01*
X60296097Y-109725271D01*
X60211420Y-109564628D01*
X60208828Y-109559423D01*
X60193063Y-109525839D01*
X59860640Y-108817706D01*
X59858290Y-108812384D01*
X59840790Y-108770134D01*
X59794275Y-108657837D01*
X59544735Y-108055395D01*
X59542633Y-108049968D01*
X59287550Y-107343497D01*
X59264376Y-107279316D01*
X59262528Y-107273803D01*
X59020157Y-106491112D01*
X59018564Y-106485513D01*
X58839662Y-105796669D01*
X63770001Y-105796669D01*
X63770371Y-105803490D01*
X63775895Y-105854352D01*
X63779521Y-105869604D01*
X63824676Y-105990054D01*
X63833214Y-106005649D01*
X63909715Y-106107724D01*
X63922276Y-106120285D01*
X64024351Y-106196786D01*
X64039946Y-106205324D01*
X64160394Y-106250478D01*
X64175649Y-106254105D01*
X64226514Y-106259631D01*
X64233328Y-106260000D01*
X65334885Y-106260000D01*
X65350124Y-106255525D01*
X65351329Y-106254135D01*
X65353000Y-106246452D01*
X65353000Y-106241884D01*
X65703000Y-106241884D01*
X65707475Y-106257123D01*
X65708865Y-106258328D01*
X65716548Y-106259999D01*
X66822669Y-106259999D01*
X66829490Y-106259629D01*
X66880352Y-106254105D01*
X66895604Y-106250479D01*
X67016054Y-106205324D01*
X67031649Y-106196786D01*
X67133724Y-106120285D01*
X67146285Y-106107724D01*
X67222786Y-106005649D01*
X67231324Y-105990054D01*
X67276478Y-105869606D01*
X67280105Y-105854351D01*
X67285631Y-105803486D01*
X67286000Y-105796672D01*
X67286000Y-105770115D01*
X67281525Y-105754876D01*
X67280135Y-105753671D01*
X67272452Y-105752000D01*
X65721115Y-105752000D01*
X65705876Y-105756475D01*
X65704671Y-105757865D01*
X65703000Y-105765548D01*
X65703000Y-106241884D01*
X65353000Y-106241884D01*
X65353000Y-105770115D01*
X65348525Y-105754876D01*
X65347135Y-105753671D01*
X65339452Y-105752000D01*
X63788116Y-105752000D01*
X63772877Y-105756475D01*
X63771672Y-105757865D01*
X63770001Y-105765548D01*
X63770001Y-105796669D01*
X58839662Y-105796669D01*
X58812602Y-105692476D01*
X58811269Y-105686810D01*
X58642147Y-104885083D01*
X58641078Y-104879362D01*
X58509169Y-104070722D01*
X58508364Y-104064957D01*
X58432321Y-103409500D01*
X58413936Y-103251031D01*
X58413400Y-103245247D01*
X58356662Y-102427829D01*
X58356395Y-102422028D01*
X58338244Y-101636419D01*
X58339346Y-101625603D01*
X58339366Y-101614187D01*
X58342546Y-101600358D01*
X58339414Y-101586517D01*
X58339432Y-101576158D01*
X58338231Y-101564152D01*
X58338934Y-101533715D01*
X58356396Y-100777958D01*
X58356663Y-100772157D01*
X58365627Y-100643025D01*
X58366137Y-100635683D01*
X59306889Y-100635683D01*
X59308412Y-100644107D01*
X59320792Y-100647500D01*
X60370385Y-100647500D01*
X60385624Y-100643025D01*
X60386829Y-100641635D01*
X60388500Y-100633952D01*
X60388500Y-99584602D01*
X60384582Y-99571258D01*
X60370306Y-99569271D01*
X60331824Y-99575160D01*
X60321788Y-99577551D01*
X60119368Y-99643712D01*
X60109859Y-99647709D01*
X59920963Y-99746042D01*
X59912238Y-99751536D01*
X59741933Y-99879405D01*
X59734226Y-99886248D01*
X59587090Y-100040217D01*
X59580604Y-100048227D01*
X59460598Y-100224149D01*
X59455500Y-100233123D01*
X59365838Y-100426283D01*
X59362275Y-100435970D01*
X59306889Y-100635683D01*
X58366137Y-100635683D01*
X58413401Y-99954740D01*
X58413937Y-99948957D01*
X58420833Y-99889523D01*
X58494446Y-99255007D01*
X58508364Y-99135043D01*
X58509169Y-99129278D01*
X58641078Y-98320638D01*
X58642147Y-98314917D01*
X58811269Y-97513190D01*
X58812602Y-97507524D01*
X59018564Y-96714487D01*
X59020157Y-96708888D01*
X59237832Y-96005947D01*
X59262529Y-95926195D01*
X59264378Y-95920678D01*
X59269241Y-95907211D01*
X59315347Y-95779516D01*
X59542633Y-95150032D01*
X59544735Y-95144605D01*
X59844655Y-94420535D01*
X59858292Y-94387612D01*
X59860641Y-94382291D01*
X59868393Y-94365778D01*
X60208830Y-93640572D01*
X60211423Y-93635367D01*
X60593475Y-92910561D01*
X60596307Y-92905476D01*
X60780703Y-92591697D01*
X61011448Y-92199048D01*
X61014488Y-92194139D01*
X61461818Y-91507627D01*
X61465108Y-91502825D01*
X61537074Y-91402804D01*
X61943656Y-90837720D01*
X61947135Y-90833113D01*
X62321714Y-90360214D01*
X62455885Y-90190825D01*
X62459603Y-90186347D01*
X62997462Y-89568252D01*
X63001383Y-89563950D01*
X63567226Y-88971342D01*
X63571342Y-88967226D01*
X64135441Y-88428604D01*
X64198523Y-88396028D01*
X64269203Y-88402727D01*
X64325040Y-88446575D01*
X64343902Y-88486169D01*
X64375792Y-88601554D01*
X64378955Y-88607379D01*
X64380300Y-88609450D01*
X64393869Y-88630345D01*
X64408219Y-88668880D01*
X64409889Y-88668401D01*
X64412363Y-88677028D01*
X64413589Y-88685922D01*
X64417261Y-88694112D01*
X64417262Y-88694115D01*
X64447879Y-88762399D01*
X64456856Y-88782420D01*
X64459507Y-88786502D01*
X64459508Y-88786504D01*
X64584183Y-88978486D01*
X64822819Y-89345952D01*
X64825767Y-89349326D01*
X64825769Y-89349328D01*
X64828133Y-89352033D01*
X64890454Y-89423347D01*
X64898022Y-89428178D01*
X64898026Y-89428181D01*
X64899160Y-89428905D01*
X64903312Y-89432728D01*
X64904827Y-89434031D01*
X64904783Y-89434082D01*
X64931632Y-89458803D01*
X64933290Y-89460982D01*
X64935855Y-89464931D01*
X65003002Y-89540694D01*
X65044617Y-89566046D01*
X65110648Y-89606273D01*
X65110650Y-89606274D01*
X65118692Y-89611173D01*
X65127818Y-89613491D01*
X65127821Y-89613492D01*
X65240862Y-89642201D01*
X65240865Y-89642201D01*
X65249991Y-89644519D01*
X65259396Y-89644051D01*
X65259399Y-89644051D01*
X65331727Y-89640450D01*
X65385291Y-89637783D01*
X65512628Y-89591562D01*
X65573189Y-89545843D01*
X65613232Y-89515614D01*
X65613234Y-89515612D01*
X65620746Y-89509941D01*
X65657696Y-89458803D01*
X65694568Y-89407773D01*
X65694570Y-89407770D01*
X65700084Y-89400138D01*
X65743628Y-89271860D01*
X65746856Y-89159820D01*
X65747258Y-89145859D01*
X65747258Y-89145858D01*
X65747529Y-89136449D01*
X65711441Y-89005878D01*
X65708279Y-89000053D01*
X65693365Y-88977087D01*
X65679015Y-88938552D01*
X65677345Y-88939031D01*
X65674871Y-88930404D01*
X65673645Y-88921510D01*
X65669973Y-88913320D01*
X65669972Y-88913317D01*
X65632370Y-88829455D01*
X65630378Y-88825012D01*
X65606757Y-88788638D01*
X65266858Y-88265242D01*
X65264415Y-88261480D01*
X65196780Y-88184085D01*
X65189212Y-88179254D01*
X65189208Y-88179251D01*
X65188074Y-88178527D01*
X65183922Y-88174704D01*
X65182407Y-88173401D01*
X65182451Y-88173350D01*
X65155602Y-88148629D01*
X65153944Y-88146450D01*
X65151379Y-88142501D01*
X65084232Y-88066738D01*
X65010375Y-88021744D01*
X64976586Y-88001159D01*
X64976584Y-88001158D01*
X64968542Y-87996259D01*
X64946700Y-87990712D01*
X64885600Y-87954559D01*
X64853744Y-87891110D01*
X64861248Y-87820512D01*
X64899481Y-87769820D01*
X65142501Y-87577326D01*
X65433113Y-87347135D01*
X65437720Y-87343656D01*
X66085902Y-86877284D01*
X66102825Y-86865108D01*
X66107627Y-86861818D01*
X66234610Y-86779076D01*
X66794139Y-86414488D01*
X66799048Y-86411448D01*
X67219017Y-86164648D01*
X67505476Y-85996307D01*
X67510561Y-85993475D01*
X68179018Y-85641125D01*
X68235372Y-85611420D01*
X68240578Y-85608828D01*
X68422479Y-85523438D01*
X68492643Y-85512597D01*
X68557529Y-85541411D01*
X68596538Y-85600731D01*
X68601969Y-85641122D01*
X68600151Y-85704216D01*
X68602659Y-85713289D01*
X68602659Y-85713292D01*
X68619519Y-85774295D01*
X68636238Y-85834787D01*
X68639401Y-85840612D01*
X68640746Y-85842683D01*
X68654315Y-85863578D01*
X68668665Y-85902113D01*
X68670335Y-85901634D01*
X68672809Y-85910261D01*
X68674035Y-85919155D01*
X68677707Y-85927345D01*
X68677708Y-85927348D01*
X68707358Y-85993475D01*
X68717302Y-86015653D01*
X68719953Y-86019735D01*
X68719954Y-86019737D01*
X68844629Y-86211719D01*
X69083265Y-86579185D01*
X69150900Y-86656580D01*
X69158468Y-86661411D01*
X69158472Y-86661414D01*
X69159606Y-86662138D01*
X69163758Y-86665961D01*
X69165273Y-86667264D01*
X69165229Y-86667315D01*
X69192078Y-86692036D01*
X69193736Y-86694215D01*
X69196301Y-86698164D01*
X69263448Y-86773927D01*
X69321601Y-86809354D01*
X69371094Y-86839506D01*
X69371096Y-86839507D01*
X69379138Y-86844406D01*
X69388264Y-86846724D01*
X69388267Y-86846725D01*
X69501308Y-86875434D01*
X69501311Y-86875434D01*
X69510437Y-86877752D01*
X69519842Y-86877284D01*
X69519845Y-86877284D01*
X69592173Y-86873683D01*
X69645737Y-86871016D01*
X69773074Y-86824795D01*
X69833635Y-86779076D01*
X69873678Y-86748847D01*
X69873680Y-86748845D01*
X69881192Y-86743174D01*
X69918142Y-86692036D01*
X69955014Y-86641006D01*
X69955016Y-86641003D01*
X69960530Y-86633371D01*
X70004074Y-86505093D01*
X70007975Y-86369682D01*
X69971887Y-86239111D01*
X69968725Y-86233286D01*
X69953811Y-86210320D01*
X69939461Y-86171785D01*
X69937791Y-86172264D01*
X69935317Y-86163637D01*
X69934091Y-86154743D01*
X69930419Y-86146553D01*
X69930418Y-86146550D01*
X69892816Y-86062688D01*
X69890824Y-86058245D01*
X69867203Y-86021871D01*
X69527304Y-85498475D01*
X69524861Y-85494713D01*
X69457226Y-85417318D01*
X69449658Y-85412487D01*
X69449654Y-85412484D01*
X69448520Y-85411760D01*
X69444368Y-85407937D01*
X69442853Y-85406634D01*
X69442897Y-85406583D01*
X69416048Y-85381862D01*
X69414390Y-85379683D01*
X69411825Y-85375734D01*
X69344678Y-85299971D01*
X69345722Y-85299046D01*
X69311774Y-85248208D01*
X69310526Y-85177222D01*
X69347854Y-85116831D01*
X69383806Y-85094183D01*
X69574575Y-85015163D01*
X69744605Y-84944735D01*
X69750032Y-84942633D01*
X70520678Y-84664378D01*
X70526197Y-84662528D01*
X71308888Y-84420157D01*
X71314487Y-84418564D01*
X72107524Y-84212602D01*
X72113190Y-84211269D01*
X72914917Y-84042147D01*
X72920638Y-84041078D01*
X73729278Y-83909169D01*
X73735043Y-83908364D01*
X74224300Y-83851602D01*
X74548969Y-83813936D01*
X74554740Y-83813401D01*
X75372171Y-83756662D01*
X75377958Y-83756396D01*
X76163581Y-83738244D01*
X76174397Y-83739346D01*
X76185813Y-83739366D01*
X76199642Y-83742546D01*
X76213483Y-83739414D01*
X76223842Y-83739432D01*
X76235846Y-83738231D01*
X77022042Y-83756396D01*
G37*
G04 #@! TD.AperFunction*
G04 #@! TA.AperFunction,Conductor*
G36*
X75043821Y-99572502D02*
G01*
X75064795Y-99589405D01*
X81447724Y-105972334D01*
X81463391Y-105991423D01*
X81471871Y-106004113D01*
X81482184Y-106011004D01*
X81494872Y-106019482D01*
X81494873Y-106019483D01*
X81509262Y-106029097D01*
X81509264Y-106029099D01*
X81552680Y-106058109D01*
X81552683Y-106058110D01*
X81563000Y-106065004D01*
X81625495Y-106077435D01*
X81643362Y-106080989D01*
X81658323Y-106083965D01*
X81658324Y-106083965D01*
X81670495Y-106086386D01*
X81682666Y-106083965D01*
X81682668Y-106083965D01*
X81685458Y-106083410D01*
X81710038Y-106080989D01*
X83526539Y-106080989D01*
X83594660Y-106100991D01*
X83641153Y-106154647D01*
X83651257Y-106224921D01*
X83647780Y-106240486D01*
X83644754Y-106246932D01*
X83642719Y-106260000D01*
X83626282Y-106365567D01*
X83626282Y-106365571D01*
X83624901Y-106374440D01*
X83626065Y-106383342D01*
X83626065Y-106383345D01*
X83640468Y-106493489D01*
X83640469Y-106493493D01*
X83641633Y-106502394D01*
X83645250Y-106510614D01*
X83669046Y-106564694D01*
X83693605Y-106620510D01*
X83699382Y-106627383D01*
X83699383Y-106627384D01*
X83746163Y-106683035D01*
X83776639Y-106719291D01*
X83884060Y-106790796D01*
X84007233Y-106829278D01*
X84016203Y-106829442D01*
X84016207Y-106829443D01*
X84074942Y-106830519D01*
X84136255Y-106831643D01*
X84214983Y-106810179D01*
X84252092Y-106800062D01*
X84252093Y-106800062D01*
X84260755Y-106797700D01*
X84268405Y-106793003D01*
X84268407Y-106793002D01*
X84363072Y-106734878D01*
X84363075Y-106734875D01*
X84370724Y-106730179D01*
X84380580Y-106719291D01*
X84400806Y-106696945D01*
X84461349Y-106659863D01*
X84494221Y-106655500D01*
X85143682Y-106655500D01*
X85211803Y-106675502D01*
X85232777Y-106692405D01*
X85930657Y-107390285D01*
X85964683Y-107452597D01*
X85959618Y-107523412D01*
X85917071Y-107580248D01*
X85876186Y-107600529D01*
X85862155Y-107604539D01*
X85854565Y-107609328D01*
X85780137Y-107656289D01*
X85753019Y-107673399D01*
X85747076Y-107680128D01*
X85747075Y-107680129D01*
X85705869Y-107726786D01*
X85667596Y-107770122D01*
X85663782Y-107778245D01*
X85663781Y-107778247D01*
X85654302Y-107798437D01*
X85612754Y-107886932D01*
X85603626Y-107945558D01*
X85594282Y-108005567D01*
X85594282Y-108005571D01*
X85592901Y-108014440D01*
X85594065Y-108023344D01*
X85593956Y-108032316D01*
X85590470Y-108032273D01*
X85582078Y-108085843D01*
X85557228Y-108121156D01*
X83886289Y-109792095D01*
X83823977Y-109826121D01*
X83797194Y-109829000D01*
X76195008Y-109829000D01*
X76126887Y-109808998D01*
X76099554Y-109785246D01*
X76084978Y-109768329D01*
X76084974Y-109768326D01*
X76079117Y-109761528D01*
X75970830Y-109691341D01*
X75928021Y-109678538D01*
X75904820Y-109671599D01*
X75845287Y-109632916D01*
X75816118Y-109568188D01*
X75826574Y-109497966D01*
X75851829Y-109461787D01*
X76806237Y-108507379D01*
X76868549Y-108473353D01*
X76897639Y-108470495D01*
X76960255Y-108471643D01*
X77052661Y-108446450D01*
X77076092Y-108440062D01*
X77076093Y-108440062D01*
X77084755Y-108437700D01*
X77092405Y-108433003D01*
X77092407Y-108433002D01*
X77187072Y-108374878D01*
X77187075Y-108374875D01*
X77194724Y-108370179D01*
X77200750Y-108363522D01*
X77275300Y-108281161D01*
X77275303Y-108281157D01*
X77281322Y-108274507D01*
X77337588Y-108158375D01*
X77358997Y-108031120D01*
X77359133Y-108020000D01*
X77340839Y-107892259D01*
X77331506Y-107871732D01*
X77291145Y-107782962D01*
X77291143Y-107782959D01*
X77287428Y-107774788D01*
X77246067Y-107726786D01*
X77209051Y-107683826D01*
X77209049Y-107683824D01*
X77203193Y-107677028D01*
X77094906Y-107606841D01*
X77086311Y-107604271D01*
X77086310Y-107604270D01*
X76979874Y-107572438D01*
X76979872Y-107572438D01*
X76971273Y-107569866D01*
X76962298Y-107569811D01*
X76962297Y-107569811D01*
X76907641Y-107569477D01*
X76842231Y-107569078D01*
X76830475Y-107572438D01*
X76726786Y-107602072D01*
X76726784Y-107602073D01*
X76718155Y-107604539D01*
X76710565Y-107609328D01*
X76636137Y-107656289D01*
X76609019Y-107673399D01*
X76603076Y-107680128D01*
X76603075Y-107680129D01*
X76561869Y-107726786D01*
X76523596Y-107770122D01*
X76519782Y-107778245D01*
X76519781Y-107778247D01*
X76510302Y-107798437D01*
X76468754Y-107886932D01*
X76459626Y-107945558D01*
X76450282Y-108005567D01*
X76450282Y-108005571D01*
X76448901Y-108014440D01*
X76450065Y-108023344D01*
X76449956Y-108032316D01*
X76446470Y-108032273D01*
X76438078Y-108085843D01*
X76413228Y-108121156D01*
X75038569Y-109495815D01*
X75019477Y-109511485D01*
X75006789Y-109519963D01*
X74945898Y-109611092D01*
X74929913Y-109691454D01*
X74924516Y-109718587D01*
X74926937Y-109730758D01*
X74927492Y-109733548D01*
X74929913Y-109758130D01*
X74929913Y-110302928D01*
X74927492Y-110327510D01*
X74924516Y-110342471D01*
X74929913Y-110369603D01*
X74929913Y-110369604D01*
X74945898Y-110449966D01*
X74963400Y-110476159D01*
X74968499Y-110483790D01*
X74988561Y-110513814D01*
X74989551Y-110515296D01*
X75006789Y-110541095D01*
X75017105Y-110547988D01*
X75017106Y-110547989D01*
X75019477Y-110549573D01*
X75038569Y-110565243D01*
X77311117Y-112837791D01*
X77345143Y-112900103D01*
X77348022Y-112926886D01*
X77348022Y-113242876D01*
X77328020Y-113310997D01*
X77274364Y-113357490D01*
X77204090Y-113367594D01*
X77185922Y-113363594D01*
X77116284Y-113342767D01*
X77107309Y-113342712D01*
X77107308Y-113342712D01*
X77052652Y-113342378D01*
X76987242Y-113341979D01*
X76932970Y-113357490D01*
X76871797Y-113374973D01*
X76871795Y-113374974D01*
X76863166Y-113377440D01*
X76855576Y-113382229D01*
X76766567Y-113438390D01*
X76754030Y-113446300D01*
X76717742Y-113487388D01*
X76706772Y-113499809D01*
X76646686Y-113537627D01*
X76612331Y-113542401D01*
X76453456Y-113542401D01*
X76385335Y-113522399D01*
X76342142Y-113472467D01*
X76341980Y-113472571D01*
X76341266Y-113471455D01*
X76338756Y-113468553D01*
X76337147Y-113465013D01*
X76337143Y-113465007D01*
X76333428Y-113456836D01*
X76249193Y-113359076D01*
X76243181Y-113355179D01*
X76205486Y-113296092D01*
X76200500Y-113260998D01*
X76200500Y-112272790D01*
X76202921Y-112248209D01*
X76202987Y-112247877D01*
X76202987Y-112247876D01*
X76205408Y-112235705D01*
X76185966Y-112137965D01*
X76144578Y-112076022D01*
X76144577Y-112076021D01*
X76130601Y-112055104D01*
X76120286Y-112048212D01*
X76120284Y-112048210D01*
X76119998Y-112048019D01*
X76100905Y-112032349D01*
X72848152Y-108779596D01*
X72832482Y-108760503D01*
X72832289Y-108760214D01*
X72832287Y-108760212D01*
X72825395Y-108749897D01*
X72753720Y-108702006D01*
X72742535Y-108694532D01*
X72644794Y-108675090D01*
X72632623Y-108677511D01*
X72632622Y-108677511D01*
X72632290Y-108677577D01*
X72607709Y-108679998D01*
X70576626Y-108679998D01*
X70508505Y-108659996D01*
X70481173Y-108636246D01*
X70445051Y-108594324D01*
X70445049Y-108594322D01*
X70439193Y-108587526D01*
X70330906Y-108517339D01*
X70322311Y-108514769D01*
X70322310Y-108514768D01*
X70239265Y-108489932D01*
X70179732Y-108451250D01*
X70150562Y-108386522D01*
X70161018Y-108316300D01*
X70186273Y-108280120D01*
X71468988Y-106997405D01*
X71531300Y-106963379D01*
X71558083Y-106960500D01*
X71630457Y-106960500D01*
X71655039Y-106962921D01*
X71670000Y-106965897D01*
X71697132Y-106960500D01*
X71697133Y-106960500D01*
X71777495Y-106944515D01*
X71787813Y-106937621D01*
X71787817Y-106937619D01*
X71797187Y-106931358D01*
X71869495Y-106910145D01*
X71942278Y-106911479D01*
X71942282Y-106911479D01*
X71951255Y-106911643D01*
X72013505Y-106894672D01*
X72067092Y-106880062D01*
X72067093Y-106880062D01*
X72075755Y-106877700D01*
X72083405Y-106873003D01*
X72083407Y-106873002D01*
X72178072Y-106814878D01*
X72178075Y-106814875D01*
X72185724Y-106810179D01*
X72191750Y-106803522D01*
X72266300Y-106721161D01*
X72266303Y-106721157D01*
X72272322Y-106714507D01*
X72328588Y-106598375D01*
X72330229Y-106588624D01*
X72349190Y-106475917D01*
X72349997Y-106471120D01*
X72350133Y-106460000D01*
X72336223Y-106362868D01*
X72333112Y-106341145D01*
X72333111Y-106341142D01*
X72331839Y-106332259D01*
X72328125Y-106324090D01*
X72282145Y-106222962D01*
X72282143Y-106222959D01*
X72278428Y-106214788D01*
X72252625Y-106184842D01*
X72200051Y-106123826D01*
X72200049Y-106123824D01*
X72194193Y-106117028D01*
X72085906Y-106046841D01*
X72062647Y-106039885D01*
X72009656Y-106008263D01*
X71979995Y-105978602D01*
X71967154Y-105963568D01*
X71960052Y-105953793D01*
X71954226Y-105945774D01*
X71936431Y-105932845D01*
X71921398Y-105920005D01*
X71375909Y-105374516D01*
X71375905Y-105374513D01*
X71353342Y-105351950D01*
X71333746Y-105341965D01*
X71316893Y-105331639D01*
X71299090Y-105318704D01*
X71278166Y-105311905D01*
X71259906Y-105304341D01*
X71249141Y-105298856D01*
X71249137Y-105298855D01*
X71240304Y-105294354D01*
X71230513Y-105292803D01*
X71230512Y-105292803D01*
X71218578Y-105290913D01*
X71199353Y-105286297D01*
X71187868Y-105282565D01*
X71187864Y-105282564D01*
X71178433Y-105279500D01*
X69636093Y-105279500D01*
X69567972Y-105259498D01*
X69546998Y-105242595D01*
X68942939Y-104638536D01*
X68908913Y-104576224D01*
X68913978Y-104505409D01*
X68956525Y-104448573D01*
X68966106Y-104442066D01*
X68966214Y-104442000D01*
X68980808Y-104433039D01*
X69047534Y-104392070D01*
X69047537Y-104392067D01*
X69055186Y-104387371D01*
X69061212Y-104380714D01*
X69135762Y-104298353D01*
X69135765Y-104298349D01*
X69141784Y-104291699D01*
X69198050Y-104175567D01*
X69202368Y-104149905D01*
X69218652Y-104053109D01*
X69219459Y-104048312D01*
X69219595Y-104037192D01*
X69208808Y-103961868D01*
X69202574Y-103918337D01*
X69202573Y-103918334D01*
X69201301Y-103909451D01*
X69195533Y-103896765D01*
X69184234Y-103844614D01*
X69184234Y-101731850D01*
X69196842Y-101676911D01*
X69197504Y-101675544D01*
X69217322Y-101634641D01*
X69223271Y-101599284D01*
X69237924Y-101512183D01*
X69238731Y-101507386D01*
X69238867Y-101496266D01*
X69220573Y-101368525D01*
X69214458Y-101355075D01*
X69170879Y-101259228D01*
X69170877Y-101259225D01*
X69167162Y-101251054D01*
X69089349Y-101160747D01*
X69060036Y-101096085D01*
X69070335Y-101025839D01*
X69116977Y-100972313D01*
X69184803Y-100952500D01*
X73458694Y-100952500D01*
X73526815Y-100972502D01*
X73547789Y-100989405D01*
X80477337Y-107918953D01*
X80511363Y-107981265D01*
X80514006Y-108007343D01*
X80512901Y-108014440D01*
X80514065Y-108023342D01*
X80514065Y-108023344D01*
X80528468Y-108133489D01*
X80528469Y-108133493D01*
X80529633Y-108142394D01*
X80581605Y-108260510D01*
X80587382Y-108267383D01*
X80587383Y-108267384D01*
X80621082Y-108307474D01*
X80664639Y-108359291D01*
X80672116Y-108364268D01*
X80746786Y-108413972D01*
X80772060Y-108430796D01*
X80895233Y-108469278D01*
X80904203Y-108469442D01*
X80904207Y-108469443D01*
X80961626Y-108470495D01*
X81024255Y-108471643D01*
X81116661Y-108446450D01*
X81140092Y-108440062D01*
X81140093Y-108440062D01*
X81148755Y-108437700D01*
X81156405Y-108433003D01*
X81156407Y-108433002D01*
X81251072Y-108374878D01*
X81251075Y-108374875D01*
X81258724Y-108370179D01*
X81264750Y-108363522D01*
X81339300Y-108281161D01*
X81339303Y-108281157D01*
X81345322Y-108274507D01*
X81349234Y-108266434D01*
X81349236Y-108266430D01*
X81361864Y-108240365D01*
X81409566Y-108187782D01*
X81478124Y-108169336D01*
X81545772Y-108190883D01*
X81590584Y-108244554D01*
X81597605Y-108260510D01*
X81603382Y-108267383D01*
X81603383Y-108267384D01*
X81637082Y-108307474D01*
X81680639Y-108359291D01*
X81688116Y-108364268D01*
X81762786Y-108413972D01*
X81788060Y-108430796D01*
X81911233Y-108469278D01*
X81920203Y-108469442D01*
X81920207Y-108469443D01*
X81977626Y-108470495D01*
X82040255Y-108471643D01*
X82132661Y-108446450D01*
X82156092Y-108440062D01*
X82156093Y-108440062D01*
X82164755Y-108437700D01*
X82172405Y-108433003D01*
X82172407Y-108433002D01*
X82267072Y-108374878D01*
X82267075Y-108374875D01*
X82274724Y-108370179D01*
X82280750Y-108363522D01*
X82355300Y-108281161D01*
X82355303Y-108281157D01*
X82361322Y-108274507D01*
X82417588Y-108158375D01*
X82438997Y-108031120D01*
X82439133Y-108020000D01*
X82420839Y-107892259D01*
X82411506Y-107871732D01*
X82371145Y-107782962D01*
X82371143Y-107782959D01*
X82367428Y-107774788D01*
X82326067Y-107726786D01*
X82289051Y-107683826D01*
X82289049Y-107683824D01*
X82283193Y-107677028D01*
X82174906Y-107606841D01*
X82166311Y-107604271D01*
X82166310Y-107604270D01*
X82059874Y-107572438D01*
X82059872Y-107572438D01*
X82051273Y-107569866D01*
X82042298Y-107569811D01*
X82042297Y-107569811D01*
X81999453Y-107569550D01*
X81974436Y-107569397D01*
X81906439Y-107548979D01*
X81886110Y-107532494D01*
X74163772Y-99810156D01*
X74148102Y-99791064D01*
X74146515Y-99788689D01*
X74139624Y-99778376D01*
X74129311Y-99771485D01*
X74125421Y-99767595D01*
X74091395Y-99705283D01*
X74096460Y-99634468D01*
X74139007Y-99577632D01*
X74205527Y-99552821D01*
X74214516Y-99552500D01*
X74975700Y-99552500D01*
X75043821Y-99572502D01*
G37*
G04 #@! TD.AperFunction*
G04 #@! TA.AperFunction,Conductor*
G36*
X68451620Y-100972502D02*
G01*
X68498113Y-101026158D01*
X68508217Y-101096432D01*
X68477940Y-101161908D01*
X68413541Y-101234826D01*
X68403330Y-101246388D01*
X68399516Y-101254511D01*
X68399515Y-101254513D01*
X68376307Y-101303946D01*
X68348488Y-101363198D01*
X68347108Y-101372064D01*
X68330016Y-101481833D01*
X68330016Y-101481837D01*
X68328635Y-101490706D01*
X68329799Y-101499608D01*
X68329799Y-101499611D01*
X68344202Y-101609755D01*
X68344203Y-101609759D01*
X68345367Y-101618660D01*
X68353223Y-101636515D01*
X68372563Y-101680468D01*
X68383234Y-101731214D01*
X68383234Y-103760962D01*
X68371289Y-103814510D01*
X68366919Y-103823818D01*
X68319863Y-103876980D01*
X68251536Y-103896263D01*
X68183630Y-103875544D01*
X68163771Y-103859367D01*
X68064415Y-103760011D01*
X68030390Y-103697699D01*
X68027511Y-103670916D01*
X68027511Y-103645084D01*
X68040119Y-103590145D01*
X68060599Y-103547875D01*
X68082008Y-103420620D01*
X68082144Y-103409500D01*
X68063850Y-103281759D01*
X68055664Y-103263754D01*
X68014156Y-103172462D01*
X68014154Y-103172459D01*
X68010439Y-103164288D01*
X67957269Y-103102581D01*
X67932062Y-103073326D01*
X67932060Y-103073324D01*
X67926204Y-103066528D01*
X67817917Y-102996341D01*
X67809322Y-102993771D01*
X67809321Y-102993770D01*
X67702885Y-102961938D01*
X67702883Y-102961938D01*
X67694284Y-102959366D01*
X67685309Y-102959311D01*
X67685308Y-102959311D01*
X67630652Y-102958977D01*
X67565242Y-102958578D01*
X67441166Y-102994039D01*
X67437639Y-102996264D01*
X67369684Y-103005496D01*
X67306072Y-102976146D01*
X67280135Y-102953671D01*
X67272452Y-102952000D01*
X65479000Y-102952000D01*
X65410879Y-102931998D01*
X65364386Y-102878342D01*
X65353000Y-102826000D01*
X65353000Y-102583885D01*
X65703000Y-102583885D01*
X65707475Y-102599124D01*
X65708865Y-102600329D01*
X65716548Y-102602000D01*
X67267884Y-102602000D01*
X67283123Y-102597525D01*
X67284328Y-102596135D01*
X67285999Y-102588452D01*
X67285999Y-102557331D01*
X67285629Y-102550510D01*
X67280105Y-102499648D01*
X67276478Y-102484393D01*
X67271544Y-102471231D01*
X67266360Y-102400424D01*
X67271544Y-102382769D01*
X67276477Y-102369610D01*
X67280105Y-102354351D01*
X67285631Y-102303486D01*
X67286000Y-102296672D01*
X67286000Y-102270115D01*
X67281525Y-102254876D01*
X67280135Y-102253671D01*
X67272452Y-102252000D01*
X65721115Y-102252000D01*
X65705876Y-102256475D01*
X65704671Y-102257865D01*
X65703000Y-102265548D01*
X65703000Y-102583885D01*
X65353000Y-102583885D01*
X65353000Y-102028000D01*
X65373002Y-101959879D01*
X65426658Y-101913386D01*
X65479000Y-101902000D01*
X67267884Y-101902000D01*
X67283123Y-101897525D01*
X67284328Y-101896135D01*
X67285999Y-101888452D01*
X67285999Y-101857331D01*
X67285629Y-101850510D01*
X67280105Y-101799648D01*
X67276479Y-101784396D01*
X67231324Y-101663946D01*
X67222786Y-101648351D01*
X67146285Y-101546276D01*
X67133724Y-101533715D01*
X67031649Y-101457214D01*
X67016055Y-101448676D01*
X67010273Y-101446509D01*
X66953508Y-101403869D01*
X66928806Y-101337308D01*
X66928500Y-101328526D01*
X66928500Y-101187180D01*
X66922989Y-101159473D01*
X66922189Y-101155451D01*
X66922188Y-101155448D01*
X66919767Y-101143278D01*
X66912871Y-101132958D01*
X66910287Y-101126719D01*
X66902698Y-101056129D01*
X66934477Y-100992642D01*
X66995535Y-100956414D01*
X67026696Y-100952500D01*
X68383499Y-100952500D01*
X68451620Y-100972502D01*
G37*
G04 #@! TD.AperFunction*
G04 #@! TA.AperFunction,Conductor*
G36*
X76231304Y-94740991D02*
G01*
X76252278Y-94757894D01*
X76413337Y-94918953D01*
X76447363Y-94981265D01*
X76450006Y-95007343D01*
X76448901Y-95014440D01*
X76450065Y-95023342D01*
X76450065Y-95023344D01*
X76464468Y-95133489D01*
X76464469Y-95133493D01*
X76465633Y-95142394D01*
X76517605Y-95260510D01*
X76523382Y-95267383D01*
X76523383Y-95267384D01*
X76536478Y-95282962D01*
X76600639Y-95359291D01*
X76608116Y-95364268D01*
X76695294Y-95422298D01*
X76708060Y-95430796D01*
X76765838Y-95448847D01*
X76810409Y-95462772D01*
X76831233Y-95469278D01*
X76840203Y-95469442D01*
X76840207Y-95469443D01*
X76897626Y-95470495D01*
X76960255Y-95471643D01*
X77043869Y-95448847D01*
X77114852Y-95450227D01*
X77173821Y-95489764D01*
X77202053Y-95554905D01*
X77203011Y-95570410D01*
X77203011Y-96167683D01*
X77183009Y-96235804D01*
X77166106Y-96256778D01*
X75907783Y-97515101D01*
X75845471Y-97549127D01*
X75817922Y-97552004D01*
X75748231Y-97551578D01*
X75692874Y-97567399D01*
X75632786Y-97584572D01*
X75632784Y-97584573D01*
X75624155Y-97587039D01*
X75616565Y-97591828D01*
X75576038Y-97617399D01*
X75515019Y-97655899D01*
X75509076Y-97662628D01*
X75509075Y-97662629D01*
X75464248Y-97713386D01*
X75429596Y-97752622D01*
X75425782Y-97760745D01*
X75425781Y-97760747D01*
X75412457Y-97789127D01*
X75365401Y-97842289D01*
X75297073Y-97861571D01*
X75229167Y-97840851D01*
X75209307Y-97824673D01*
X75181790Y-97797156D01*
X75166120Y-97778064D01*
X75164533Y-97775689D01*
X75157642Y-97765376D01*
X75134641Y-97750007D01*
X75134640Y-97750006D01*
X75128486Y-97745894D01*
X75097538Y-97725215D01*
X75097537Y-97725215D01*
X75093095Y-97722247D01*
X75076829Y-97711378D01*
X75066513Y-97704485D01*
X75054344Y-97702064D01*
X75054343Y-97702064D01*
X74986151Y-97688500D01*
X74971190Y-97685524D01*
X74971189Y-97685524D01*
X74959018Y-97683103D01*
X74946847Y-97685524D01*
X74944057Y-97686079D01*
X74919475Y-97688500D01*
X74915084Y-97688500D01*
X74846963Y-97668498D01*
X74819630Y-97644746D01*
X74805054Y-97627829D01*
X74805050Y-97627826D01*
X74799193Y-97621028D01*
X74690906Y-97550841D01*
X74682311Y-97548271D01*
X74682310Y-97548270D01*
X74575874Y-97516438D01*
X74575872Y-97516438D01*
X74567273Y-97513866D01*
X74558298Y-97513811D01*
X74558297Y-97513811D01*
X74503641Y-97513477D01*
X74438231Y-97513078D01*
X74426475Y-97516438D01*
X74322786Y-97546072D01*
X74322784Y-97546073D01*
X74314155Y-97548539D01*
X74306565Y-97553328D01*
X74233153Y-97599648D01*
X74205019Y-97617399D01*
X74199076Y-97624128D01*
X74199075Y-97624129D01*
X74180867Y-97644746D01*
X74119596Y-97714122D01*
X74115782Y-97722245D01*
X74115781Y-97722247D01*
X74102748Y-97750007D01*
X74064754Y-97830932D01*
X74063374Y-97839798D01*
X74046282Y-97949567D01*
X74046282Y-97949571D01*
X74044901Y-97958440D01*
X74046065Y-97967342D01*
X74046065Y-97967345D01*
X74060468Y-98077489D01*
X74060469Y-98077493D01*
X74061633Y-98086394D01*
X74078512Y-98124755D01*
X74087640Y-98195161D01*
X74057253Y-98259326D01*
X73997000Y-98296877D01*
X73963183Y-98301500D01*
X67404549Y-98301500D01*
X67336428Y-98281498D01*
X67289935Y-98227842D01*
X67279286Y-98161892D01*
X67285631Y-98103486D01*
X67286000Y-98096672D01*
X67286000Y-98070115D01*
X67281525Y-98054876D01*
X67280135Y-98053671D01*
X67272452Y-98052000D01*
X65479000Y-98052000D01*
X65410879Y-98031998D01*
X65364386Y-97978342D01*
X65353000Y-97926000D01*
X65353000Y-97828000D01*
X65373002Y-97759879D01*
X65426658Y-97713386D01*
X65479000Y-97702000D01*
X67267884Y-97702000D01*
X67283123Y-97697525D01*
X67284328Y-97696135D01*
X67285999Y-97688452D01*
X67285999Y-97657331D01*
X67285629Y-97650510D01*
X67280105Y-97599648D01*
X67276479Y-97584396D01*
X67231324Y-97463946D01*
X67222789Y-97448356D01*
X67203897Y-97423149D01*
X67179050Y-97356642D01*
X67194103Y-97287260D01*
X67234725Y-97242817D01*
X67244955Y-97235982D01*
X67244957Y-97235980D01*
X67271111Y-97218505D01*
X67273678Y-97222346D01*
X67273679Y-97222345D01*
X67271112Y-97218504D01*
X67283800Y-97210026D01*
X67294113Y-97203135D01*
X67302593Y-97190445D01*
X67318260Y-97171356D01*
X68011722Y-96477894D01*
X68074034Y-96443868D01*
X68100817Y-96440989D01*
X74467779Y-96440989D01*
X74492357Y-96443410D01*
X74530000Y-96450897D01*
X74555038Y-96445917D01*
X74603599Y-96436258D01*
X74637495Y-96429516D01*
X74728625Y-96368625D01*
X74737107Y-96355931D01*
X74752772Y-96336844D01*
X75480333Y-95609283D01*
X75499425Y-95593613D01*
X75501796Y-95592029D01*
X75501797Y-95592028D01*
X75512113Y-95585135D01*
X75573004Y-95494006D01*
X75588989Y-95413644D01*
X75588989Y-95413643D01*
X75594386Y-95386511D01*
X75591410Y-95371548D01*
X75588989Y-95346968D01*
X75588989Y-94948335D01*
X75608991Y-94880214D01*
X75625894Y-94859240D01*
X75727240Y-94757894D01*
X75789552Y-94723868D01*
X75816335Y-94720989D01*
X76163183Y-94720989D01*
X76231304Y-94740991D01*
G37*
G04 #@! TD.AperFunction*
M02*
