G04 #@! TF.GenerationSoftware,KiCad,Pcbnew,(6.0.0-0)*
G04 #@! TF.CreationDate,2022-02-07T14:16:52+10:00*
G04 #@! TF.ProjectId,osw-light,6f73772d-6c69-4676-9874-2e6b69636164,3.3*
G04 #@! TF.SameCoordinates,Original*
G04 #@! TF.FileFunction,Copper,L1,Top*
G04 #@! TF.FilePolarity,Positive*
%FSLAX46Y46*%
G04 Gerber Fmt 4.6, Leading zero omitted, Abs format (unit mm)*
G04 Created by KiCad (PCBNEW (6.0.0-0)) date 2022-02-07 14:16:52*
%MOMM*%
%LPD*%
G01*
G04 APERTURE LIST*
G04 Aperture macros list*
%AMRoundRect*
0 Rectangle with rounded corners*
0 $1 Rounding radius*
0 $2 $3 $4 $5 $6 $7 $8 $9 X,Y pos of 4 corners*
0 Add a 4 corners polygon primitive as box body*
4,1,4,$2,$3,$4,$5,$6,$7,$8,$9,$2,$3,0*
0 Add four circle primitives for the rounded corners*
1,1,$1+$1,$2,$3*
1,1,$1+$1,$4,$5*
1,1,$1+$1,$6,$7*
1,1,$1+$1,$8,$9*
0 Add four rect primitives between the rounded corners*
20,1,$1+$1,$2,$3,$4,$5,0*
20,1,$1+$1,$4,$5,$6,$7,0*
20,1,$1+$1,$6,$7,$8,$9,0*
20,1,$1+$1,$8,$9,$2,$3,0*%
%AMHorizOval*
0 Thick line with rounded ends*
0 $1 width*
0 $2 $3 position (X,Y) of the first rounded end (center of the circle)*
0 $4 $5 position (X,Y) of the second rounded end (center of the circle)*
0 Add line between two ends*
20,1,$1,$2,$3,$4,$5,0*
0 Add two circle primitives to create the rounded ends*
1,1,$1,$2,$3*
1,1,$1,$4,$5*%
%AMRotRect*
0 Rectangle, with rotation*
0 The origin of the aperture is its center*
0 $1 length*
0 $2 width*
0 $3 Rotation angle, in degrees counterclockwise*
0 Add horizontal line*
21,1,$1,$2,0,0,$3*%
%AMOutline5P*
0 Free polygon, 5 corners , with rotation*
0 The origin of the aperture is its center*
0 number of corners: always 5*
0 $1 to $10 corner X, Y*
0 $11 Rotation angle, in degrees counterclockwise*
0 create outline with 5 corners*
4,1,5,$1,$2,$3,$4,$5,$6,$7,$8,$9,$10,$1,$2,$11*%
%AMOutline6P*
0 Free polygon, 6 corners , with rotation*
0 The origin of the aperture is its center*
0 number of corners: always 6*
0 $1 to $12 corner X, Y*
0 $13 Rotation angle, in degrees counterclockwise*
0 create outline with 6 corners*
4,1,6,$1,$2,$3,$4,$5,$6,$7,$8,$9,$10,$11,$12,$1,$2,$13*%
%AMOutline7P*
0 Free polygon, 7 corners , with rotation*
0 The origin of the aperture is its center*
0 number of corners: always 7*
0 $1 to $14 corner X, Y*
0 $15 Rotation angle, in degrees counterclockwise*
0 create outline with 7 corners*
4,1,7,$1,$2,$3,$4,$5,$6,$7,$8,$9,$10,$11,$12,$13,$14,$1,$2,$15*%
%AMOutline8P*
0 Free polygon, 8 corners , with rotation*
0 The origin of the aperture is its center*
0 number of corners: always 8*
0 $1 to $16 corner X, Y*
0 $17 Rotation angle, in degrees counterclockwise*
0 create outline with 8 corners*
4,1,8,$1,$2,$3,$4,$5,$6,$7,$8,$9,$10,$11,$12,$13,$14,$15,$16,$1,$2,$17*%
G04 Aperture macros list end*
G04 #@! TA.AperFunction,ComponentPad*
%ADD10HorizOval,0.600000X0.251623X-0.387466X-0.251623X0.387466X0*%
G04 #@! TD*
G04 #@! TA.AperFunction,SMDPad,CuDef*
%ADD11RotRect,1.524000X0.500000X303.000000*%
G04 #@! TD*
G04 #@! TA.AperFunction,ComponentPad*
%ADD12HorizOval,0.600000X-0.251623X-0.387466X0.251623X0.387466X0*%
G04 #@! TD*
G04 #@! TA.AperFunction,SMDPad,CuDef*
%ADD13RotRect,1.524000X0.500000X237.000000*%
G04 #@! TD*
G04 #@! TA.AperFunction,SMDPad,CuDef*
%ADD14RoundRect,0.200000X-0.339220X-0.023558X-0.082105X-0.329975X0.339220X0.023558X0.082105X0.329975X0*%
G04 #@! TD*
G04 #@! TA.AperFunction,SMDPad,CuDef*
%ADD15RoundRect,0.225000X0.250000X-0.225000X0.250000X0.225000X-0.250000X0.225000X-0.250000X-0.225000X0*%
G04 #@! TD*
G04 #@! TA.AperFunction,SMDPad,CuDef*
%ADD16RoundRect,0.200000X-0.200000X-0.275000X0.200000X-0.275000X0.200000X0.275000X-0.200000X0.275000X0*%
G04 #@! TD*
G04 #@! TA.AperFunction,SMDPad,CuDef*
%ADD17RoundRect,0.200000X-0.275000X0.200000X-0.275000X-0.200000X0.275000X-0.200000X0.275000X0.200000X0*%
G04 #@! TD*
G04 #@! TA.AperFunction,SMDPad,CuDef*
%ADD18RoundRect,0.200000X0.200000X0.275000X-0.200000X0.275000X-0.200000X-0.275000X0.200000X-0.275000X0*%
G04 #@! TD*
G04 #@! TA.AperFunction,SMDPad,CuDef*
%ADD19RoundRect,0.150000X-0.825000X-0.150000X0.825000X-0.150000X0.825000X0.150000X-0.825000X0.150000X0*%
G04 #@! TD*
G04 #@! TA.AperFunction,SMDPad,CuDef*
%ADD20RoundRect,0.225000X-0.329006X0.069856X-0.104006X-0.319856X0.329006X-0.069856X0.104006X0.319856X0*%
G04 #@! TD*
G04 #@! TA.AperFunction,SMDPad,CuDef*
%ADD21RoundRect,0.225000X-0.250000X0.225000X-0.250000X-0.225000X0.250000X-0.225000X0.250000X0.225000X0*%
G04 #@! TD*
G04 #@! TA.AperFunction,ComponentPad*
%ADD22HorizOval,0.600000X-0.251623X0.387466X0.251623X-0.387466X0*%
G04 #@! TD*
G04 #@! TA.AperFunction,SMDPad,CuDef*
%ADD23RotRect,1.524000X0.500000X123.000000*%
G04 #@! TD*
G04 #@! TA.AperFunction,SMDPad,CuDef*
%ADD24R,1.400000X0.300000*%
G04 #@! TD*
G04 #@! TA.AperFunction,SMDPad,CuDef*
%ADD25RoundRect,0.100000X0.637500X0.100000X-0.637500X0.100000X-0.637500X-0.100000X0.637500X-0.100000X0*%
G04 #@! TD*
G04 #@! TA.AperFunction,SMDPad,CuDef*
%ADD26RoundRect,0.225000X-0.225000X-0.250000X0.225000X-0.250000X0.225000X0.250000X-0.225000X0.250000X0*%
G04 #@! TD*
G04 #@! TA.AperFunction,SMDPad,CuDef*
%ADD27RoundRect,0.200000X-0.082105X0.329975X-0.339220X0.023558X0.082105X-0.329975X0.339220X-0.023558X0*%
G04 #@! TD*
G04 #@! TA.AperFunction,SMDPad,CuDef*
%ADD28RoundRect,0.250000X0.325000X0.650000X-0.325000X0.650000X-0.325000X-0.650000X0.325000X-0.650000X0*%
G04 #@! TD*
G04 #@! TA.AperFunction,SMDPad,CuDef*
%ADD29RoundRect,0.225000X0.225000X0.250000X-0.225000X0.250000X-0.225000X-0.250000X0.225000X-0.250000X0*%
G04 #@! TD*
G04 #@! TA.AperFunction,SMDPad,CuDef*
%ADD30RoundRect,0.150000X0.150000X-0.512500X0.150000X0.512500X-0.150000X0.512500X-0.150000X-0.512500X0*%
G04 #@! TD*
G04 #@! TA.AperFunction,SMDPad,CuDef*
%ADD31R,0.600000X1.524000*%
G04 #@! TD*
G04 #@! TA.AperFunction,SMDPad,CuDef*
%ADD32R,1.524000X0.600000*%
G04 #@! TD*
G04 #@! TA.AperFunction,SMDPad,CuDef*
%ADD33R,5.000000X5.000000*%
G04 #@! TD*
G04 #@! TA.AperFunction,SMDPad,CuDef*
%ADD34RoundRect,0.200000X0.275000X-0.200000X0.275000X0.200000X-0.275000X0.200000X-0.275000X-0.200000X0*%
G04 #@! TD*
G04 #@! TA.AperFunction,SMDPad,CuDef*
%ADD35RoundRect,0.150000X0.587500X0.150000X-0.587500X0.150000X-0.587500X-0.150000X0.587500X-0.150000X0*%
G04 #@! TD*
G04 #@! TA.AperFunction,SMDPad,CuDef*
%ADD36RoundRect,0.200000X-0.338157X0.035705X-0.138157X-0.310705X0.338157X-0.035705X0.138157X0.310705X0*%
G04 #@! TD*
G04 #@! TA.AperFunction,ComponentPad*
%ADD37HorizOval,0.600000X0.251623X0.387466X-0.251623X-0.387466X0*%
G04 #@! TD*
G04 #@! TA.AperFunction,SMDPad,CuDef*
%ADD38RotRect,1.524000X0.500000X57.000000*%
G04 #@! TD*
G04 #@! TA.AperFunction,SMDPad,CuDef*
%ADD39R,1.060000X0.650000*%
G04 #@! TD*
G04 #@! TA.AperFunction,SMDPad,CuDef*
%ADD40RoundRect,0.243750X0.456250X-0.243750X0.456250X0.243750X-0.456250X0.243750X-0.456250X-0.243750X0*%
G04 #@! TD*
G04 #@! TA.AperFunction,SMDPad,CuDef*
%ADD41RoundRect,0.200000X-0.053033X0.335876X-0.335876X0.053033X0.053033X-0.335876X0.335876X-0.053033X0*%
G04 #@! TD*
G04 #@! TA.AperFunction,SMDPad,CuDef*
%ADD42RoundRect,0.200000X0.310705X0.138157X-0.035705X0.338157X-0.310705X-0.138157X0.035705X-0.338157X0*%
G04 #@! TD*
G04 #@! TA.AperFunction,SMDPad,CuDef*
%ADD43Outline5P,-0.750000X1.500000X0.750000X1.500000X0.750000X-1.500000X-0.150000X-1.500000X-0.750000X-0.900000X270.000000*%
G04 #@! TD*
G04 #@! TA.AperFunction,SMDPad,CuDef*
%ADD44R,3.000000X1.500000*%
G04 #@! TD*
G04 #@! TA.AperFunction,SMDPad,CuDef*
%ADD45R,0.600000X1.450000*%
G04 #@! TD*
G04 #@! TA.AperFunction,SMDPad,CuDef*
%ADD46R,0.300000X1.450000*%
G04 #@! TD*
G04 #@! TA.AperFunction,ComponentPad*
%ADD47O,1.000000X2.100000*%
G04 #@! TD*
G04 #@! TA.AperFunction,ComponentPad*
%ADD48O,1.000000X1.600000*%
G04 #@! TD*
G04 #@! TA.AperFunction,SMDPad,CuDef*
%ADD49RoundRect,0.200000X-0.065042X-0.333758X0.297482X-0.164711X0.065042X0.333758X-0.297482X0.164711X0*%
G04 #@! TD*
G04 #@! TA.AperFunction,SMDPad,CuDef*
%ADD50R,0.375000X0.350000*%
G04 #@! TD*
G04 #@! TA.AperFunction,SMDPad,CuDef*
%ADD51R,0.350000X0.375000*%
G04 #@! TD*
G04 #@! TA.AperFunction,ViaPad*
%ADD52C,0.600000*%
G04 #@! TD*
G04 #@! TA.AperFunction,Conductor*
%ADD53C,0.200000*%
G04 #@! TD*
G04 #@! TA.AperFunction,Conductor*
%ADD54C,0.500000*%
G04 #@! TD*
G04 #@! TA.AperFunction,Conductor*
%ADD55C,0.400000*%
G04 #@! TD*
G04 APERTURE END LIST*
D10*
X80127311Y-124795804D03*
X75866865Y-127562571D03*
D11*
X78574010Y-123992138D03*
X75764463Y-125816679D03*
D12*
X62074991Y-127562571D03*
X57814545Y-124795804D03*
D13*
X62177393Y-125816679D03*
X59367846Y-123992138D03*
D14*
X55469700Y-122628013D03*
X56530300Y-123891987D03*
D15*
X56580000Y-112135000D03*
X56580000Y-110585000D03*
D16*
X64605000Y-120840000D03*
X66255000Y-120840000D03*
D17*
X73880000Y-96035000D03*
X73880000Y-97685000D03*
D18*
X81225000Y-103290000D03*
X79575000Y-103290000D03*
X81225000Y-101350000D03*
X79575000Y-101350000D03*
D19*
X66625000Y-95485000D03*
X66625000Y-96755000D03*
X66625000Y-98025000D03*
X66625000Y-99295000D03*
X71575000Y-99295000D03*
X71575000Y-98025000D03*
X71575000Y-96755000D03*
X71575000Y-95485000D03*
D20*
X83152500Y-102668830D03*
X83927500Y-104011170D03*
D15*
X64880000Y-118875000D03*
X64880000Y-117325000D03*
D21*
X64470000Y-95465000D03*
X64470000Y-97015000D03*
D16*
X54765000Y-108460000D03*
X56415000Y-108460000D03*
D22*
X62074991Y-96436469D03*
X57814545Y-99203236D03*
D23*
X59367846Y-100006902D03*
X62177393Y-98182361D03*
D24*
X57660000Y-118220000D03*
X57660000Y-118720000D03*
X57660000Y-119220000D03*
X57660000Y-119720000D03*
X57660000Y-120220000D03*
X62060000Y-120220000D03*
X62060000Y-119720000D03*
X62060000Y-119220000D03*
X62060000Y-118720000D03*
X62060000Y-118220000D03*
D25*
X61522500Y-106615000D03*
X61522500Y-105965000D03*
X61522500Y-105315000D03*
X61522500Y-104665000D03*
X55797500Y-104665000D03*
X55797500Y-105315000D03*
X55797500Y-105965000D03*
X55797500Y-106615000D03*
D26*
X57700000Y-102010000D03*
X59250000Y-102010000D03*
D17*
X62290000Y-111925000D03*
X62290000Y-110275000D03*
D27*
X82630300Y-122178013D03*
X81569700Y-123441987D03*
D28*
X65915000Y-102340000D03*
X62965000Y-102340000D03*
D29*
X65075000Y-104590000D03*
X63525000Y-104590000D03*
D26*
X71865000Y-103180000D03*
X73415000Y-103180000D03*
X71345000Y-101330000D03*
X72895000Y-101330000D03*
D30*
X67740000Y-103477500D03*
X68690000Y-103477500D03*
X69640000Y-103477500D03*
X69640000Y-101202500D03*
X67740000Y-101202500D03*
D31*
X82282928Y-105499520D03*
X81266928Y-105499520D03*
X80250928Y-105499520D03*
X79234928Y-105499520D03*
X78218928Y-105499520D03*
X77202928Y-105499520D03*
X76186928Y-105499520D03*
X75170928Y-105499520D03*
X74170928Y-105499520D03*
X73138928Y-105499520D03*
X72122928Y-105499520D03*
X71106928Y-105499520D03*
X70090928Y-105499520D03*
X69074928Y-105499520D03*
X68058928Y-105499520D03*
D32*
X66670928Y-108443520D03*
X66670928Y-109459520D03*
X66670928Y-110475520D03*
X66670928Y-111491520D03*
X66670928Y-112507520D03*
X66670928Y-113523520D03*
X66670928Y-114539520D03*
X66670928Y-115555520D03*
D31*
X68058928Y-118499520D03*
X69074928Y-118499520D03*
X70090928Y-118499520D03*
X71106928Y-118499520D03*
X72122928Y-118499520D03*
X73138928Y-118499520D03*
X74154928Y-118499520D03*
X75170928Y-118499520D03*
X76186928Y-118499520D03*
X77202928Y-118499520D03*
X78218928Y-118499520D03*
X79234928Y-118499520D03*
X80250928Y-118499520D03*
X81266928Y-118499520D03*
X82282928Y-118499520D03*
D33*
X73170928Y-111999520D03*
D17*
X64170000Y-98645000D03*
X64170000Y-100295000D03*
X55420000Y-116695000D03*
X55420000Y-118345000D03*
D34*
X63960000Y-115655000D03*
X63960000Y-114005000D03*
D17*
X61910000Y-114465000D03*
X61910000Y-116115000D03*
D29*
X55785000Y-114360000D03*
X54235000Y-114360000D03*
D35*
X59627500Y-116230000D03*
X59627500Y-114330000D03*
X57752500Y-115280000D03*
D16*
X62385000Y-108420000D03*
X64035000Y-108420000D03*
X63465000Y-106140000D03*
X65115000Y-106140000D03*
D15*
X53770000Y-106345000D03*
X53770000Y-104795000D03*
D36*
X53708428Y-119805049D03*
X54533428Y-121233991D03*
D37*
X80127311Y-99203236D03*
X75866865Y-96436469D03*
D38*
X75764463Y-98182361D03*
X78574010Y-100006902D03*
D26*
X58725000Y-112450000D03*
X60275000Y-112450000D03*
D39*
X58360000Y-108630000D03*
X58360000Y-109580000D03*
X58360000Y-110530000D03*
X60560000Y-110530000D03*
X60560000Y-108630000D03*
D40*
X64200000Y-110212500D03*
X64200000Y-112087500D03*
D41*
X56796726Y-100123274D03*
X55630000Y-101290000D03*
D17*
X53050000Y-116205000D03*
X53050000Y-117855000D03*
D42*
X62524471Y-123242500D03*
X61095529Y-122417500D03*
D43*
X53930000Y-110370000D03*
D44*
X53930000Y-112370000D03*
D45*
X65720928Y-123394520D03*
X66520928Y-123394520D03*
D46*
X67720928Y-123394520D03*
X68720928Y-123394520D03*
X69220928Y-123394520D03*
X70220928Y-123394520D03*
D45*
X71420928Y-123394520D03*
X72220928Y-123394520D03*
X72220928Y-123394520D03*
X71420928Y-123394520D03*
D46*
X70720928Y-123394520D03*
X69720928Y-123394520D03*
X68220928Y-123394520D03*
X67220928Y-123394520D03*
D45*
X66520928Y-123394520D03*
X65720928Y-123394520D03*
D47*
X64650928Y-124309520D03*
D48*
X73290928Y-128489520D03*
D47*
X73290928Y-124309520D03*
D48*
X64650928Y-128489520D03*
D49*
X75332296Y-123388660D03*
X76827704Y-122691340D03*
D29*
X74685000Y-100270000D03*
X76235000Y-100270000D03*
D50*
X75397500Y-101860000D03*
X75397500Y-102360000D03*
X75397500Y-102860000D03*
X75397500Y-103360000D03*
D51*
X75910000Y-103372500D03*
X76410000Y-103372500D03*
D50*
X76922500Y-103360000D03*
X76922500Y-102860000D03*
X76922500Y-102360000D03*
X76922500Y-101860000D03*
D51*
X76410000Y-101847500D03*
X75910000Y-101847500D03*
D52*
X81569700Y-123441987D03*
X80250928Y-105499520D03*
X74929204Y-102859999D03*
X77014502Y-103689011D03*
X64231488Y-118900095D03*
X62177393Y-98182361D03*
X82630300Y-122178013D03*
X81266928Y-105499520D03*
X55420000Y-116695000D03*
X55785000Y-114360000D03*
X62965000Y-102340000D03*
X74494732Y-100079731D03*
X71575000Y-99295000D03*
X58298928Y-112838928D03*
X57348917Y-108348806D03*
X63525000Y-104590000D03*
X61095529Y-122417500D03*
X77310000Y-102590000D03*
X58265000Y-117325000D03*
X54235000Y-114360000D03*
X68690000Y-103477500D03*
X75142956Y-101515845D03*
X76827704Y-122691340D03*
X54520000Y-121240000D03*
X57679905Y-104186332D03*
X55760000Y-107420000D03*
X67679991Y-122220018D03*
X62420000Y-113110000D03*
X53770000Y-106345000D03*
X53930000Y-112370000D03*
X58898916Y-115276181D03*
X67107232Y-107467232D03*
X59505094Y-100144150D03*
X66670928Y-108427020D03*
X75764463Y-98182361D03*
X80250928Y-118499520D03*
X79575000Y-101350000D03*
X75893659Y-101184391D03*
X77202928Y-118499520D03*
X79575000Y-103290000D03*
X75953581Y-102464501D03*
X61522500Y-106664500D03*
X56249917Y-108490000D03*
X74170500Y-109050018D03*
X77202928Y-105499520D03*
X75860500Y-104011451D03*
X53708428Y-119805049D03*
X73138928Y-106049020D03*
X66625000Y-98025000D03*
X75170928Y-105499520D03*
X64816056Y-107216056D03*
X73138928Y-118499520D03*
X74170928Y-105499520D03*
X74154928Y-118499520D03*
X69804886Y-124756922D03*
X68720928Y-124401568D03*
X57660000Y-118120498D03*
X58642048Y-118720000D03*
X67903608Y-124913951D03*
X58298928Y-114530500D03*
X62385000Y-108420000D03*
X60560000Y-108427020D03*
D53*
X77310000Y-121800000D02*
X78951987Y-123441987D01*
X76070000Y-122299410D02*
X76569410Y-121800000D01*
X76140000Y-125441142D02*
X76140000Y-123503775D01*
X76140000Y-123503775D02*
X76070000Y-123433775D01*
X76569410Y-121800000D02*
X77310000Y-121800000D01*
X78951987Y-123441987D02*
X81569700Y-123441987D01*
X76070000Y-123433775D02*
X76070000Y-122299410D01*
X75764463Y-125816679D02*
X76140000Y-125441142D01*
D54*
X68485000Y-96755000D02*
X69755000Y-98025000D01*
X68200362Y-101202500D02*
X69262382Y-100140480D01*
D53*
X76922500Y-101860000D02*
X76922500Y-100957500D01*
X74881072Y-102860000D02*
X73836552Y-103904520D01*
D54*
X71345000Y-102660000D02*
X71865000Y-103180000D01*
X54545480Y-117569520D02*
X54545480Y-119485480D01*
D53*
X76922500Y-100957500D02*
X76235000Y-100270000D01*
D54*
X70155480Y-100140480D02*
X71345000Y-101330000D01*
X81225000Y-101350000D02*
X80350480Y-100475480D01*
X65760000Y-96755000D02*
X66625000Y-96755000D01*
D53*
X77859511Y-102362384D02*
X77859511Y-102840489D01*
D54*
X55785000Y-116330000D02*
X55420000Y-116695000D01*
X55580000Y-122517713D02*
X55469700Y-122628013D01*
X76498098Y-100006902D02*
X76235000Y-100270000D01*
X64470000Y-95465000D02*
X65760000Y-96755000D01*
X67740000Y-101202500D02*
X68200362Y-101202500D01*
D53*
X72589520Y-103904520D02*
X71865000Y-103180000D01*
D54*
X79042588Y-100475480D02*
X78574010Y-100006902D01*
X81225000Y-103290000D02*
X82531330Y-103290000D01*
D53*
X76922500Y-101860000D02*
X77357127Y-101860000D01*
X77340000Y-103360000D02*
X76922500Y-103360000D01*
D54*
X55580000Y-120520000D02*
X55580000Y-122517713D01*
X69262382Y-100140480D02*
X70155480Y-100140480D01*
D55*
X64880000Y-118875000D02*
X64065000Y-118875000D01*
D54*
X54545480Y-119485480D02*
X55580000Y-120520000D01*
X62177393Y-98302393D02*
X64170000Y-100295000D01*
X71345000Y-101330000D02*
X71345000Y-102660000D01*
D55*
X61010978Y-118220000D02*
X61010489Y-118220489D01*
X63410000Y-118220000D02*
X62060000Y-118220000D01*
D54*
X66822500Y-100285000D02*
X67740000Y-101202500D01*
D53*
X77014502Y-103452002D02*
X76922500Y-103360000D01*
X77014502Y-103689011D02*
X77014502Y-103452002D01*
D55*
X61010978Y-119720000D02*
X62060000Y-119720000D01*
D54*
X62177393Y-98182361D02*
X62459754Y-97900000D01*
X64170000Y-100295000D02*
X66812500Y-100295000D01*
X66625000Y-96755000D02*
X68485000Y-96755000D01*
D55*
X62060000Y-118220000D02*
X61010978Y-118220000D01*
D54*
X81225000Y-103290000D02*
X81225000Y-105457592D01*
X63595480Y-96814520D02*
X63595480Y-96339520D01*
X82531330Y-103290000D02*
X83152500Y-102668830D01*
D55*
X61010489Y-118220489D02*
X61010489Y-119719511D01*
D54*
X78574010Y-100006902D02*
X76498098Y-100006902D01*
D53*
X73836552Y-103904520D02*
X72589520Y-103904520D01*
D54*
X62177393Y-98182361D02*
X62177393Y-98302393D01*
D55*
X64065000Y-118875000D02*
X63410000Y-118220000D01*
D54*
X62459754Y-97900000D02*
X62510000Y-97900000D01*
D53*
X77357127Y-101860000D02*
X77859511Y-102362384D01*
D54*
X55420000Y-116695000D02*
X54545480Y-117569520D01*
X66812500Y-100295000D02*
X66822500Y-100285000D01*
X81225000Y-105457592D02*
X81266928Y-105499520D01*
X62510000Y-97900000D02*
X63595480Y-96814520D01*
X69755000Y-98025000D02*
X71575000Y-98025000D01*
X55785000Y-114360000D02*
X55785000Y-116330000D01*
D53*
X75397500Y-102860000D02*
X74881072Y-102860000D01*
D54*
X81225000Y-101350000D02*
X81225000Y-103290000D01*
X63595480Y-96339520D02*
X64470000Y-95465000D01*
D53*
X77859511Y-102840489D02*
X77340000Y-103360000D01*
D54*
X80350480Y-100475480D02*
X79042588Y-100475480D01*
D55*
X61010489Y-119719511D02*
X61010978Y-119720000D01*
D53*
X75397500Y-102860000D02*
X74929204Y-102859999D01*
D54*
X62177393Y-98182361D02*
X62277361Y-98182361D01*
D53*
X56610875Y-123811412D02*
X56530300Y-123891987D01*
X61888629Y-122822271D02*
X61888629Y-121258629D01*
X59367846Y-123992138D02*
X60718762Y-123992138D01*
X60718762Y-123992138D02*
X61888629Y-122822271D01*
X59367846Y-123992138D02*
X59187120Y-123811412D01*
X64090480Y-117770480D02*
X64490000Y-118170000D01*
X60560969Y-119930969D02*
X60560969Y-118034292D01*
X59187120Y-123811412D02*
X56610875Y-123811412D01*
X68678969Y-119511031D02*
X69074928Y-119115072D01*
X60824781Y-117770480D02*
X64090480Y-117770480D01*
X69074928Y-119115072D02*
X69074928Y-118499520D01*
X60560969Y-118034292D02*
X60824781Y-117770480D01*
X67509417Y-119511031D02*
X68678969Y-119511031D01*
X66168386Y-118170000D02*
X67509417Y-119511031D01*
X64490000Y-118170000D02*
X66168386Y-118170000D01*
X61888629Y-121258629D02*
X60560969Y-119930969D01*
X82282928Y-117812928D02*
X82000000Y-117530000D01*
X76922500Y-102592500D02*
X77307500Y-102592500D01*
X56580000Y-110585000D02*
X56365000Y-110370000D01*
X70318572Y-99295000D02*
X71575000Y-99295000D01*
X57660000Y-119220000D02*
X56760000Y-119220000D01*
X53930000Y-110370000D02*
X53930000Y-108332921D01*
X59139511Y-109955489D02*
X59139511Y-112035489D01*
X73880000Y-99465000D02*
X74685000Y-100270000D01*
X57345000Y-117325000D02*
X58265000Y-117325000D01*
X75599967Y-121450481D02*
X79876990Y-121450480D01*
X64421197Y-115005480D02*
X64880000Y-115464283D01*
X64035000Y-108420000D02*
X64035000Y-107220000D01*
X71575000Y-100010000D02*
X71575000Y-99295000D01*
X61910000Y-114465000D02*
X62450480Y-115005480D01*
X55634520Y-101285480D02*
X55630000Y-101290000D01*
X57660000Y-119220000D02*
X57760489Y-119320489D01*
X68690000Y-103477500D02*
X68690000Y-104406448D01*
X76922500Y-102592500D02*
X76922500Y-102360000D01*
X56760000Y-119220000D02*
X56710489Y-119170489D01*
X54526009Y-121233991D02*
X54520000Y-121240000D01*
X57580489Y-109530489D02*
X57580489Y-108580378D01*
X59250000Y-102010000D02*
X58525480Y-101285480D01*
X68690000Y-104406448D02*
X68058928Y-105037520D01*
X62965000Y-102340000D02*
X59580000Y-102340000D01*
X64650928Y-128489520D02*
X64650928Y-128290214D01*
X61095529Y-121806507D02*
X61095529Y-122417500D01*
X64880000Y-115464283D02*
X64880000Y-117325000D01*
X56365000Y-110370000D02*
X53930000Y-110370000D01*
X82000000Y-105782448D02*
X82282928Y-105499520D01*
X74685000Y-101147500D02*
X75397500Y-101860000D01*
X58725000Y-112450000D02*
X58687856Y-112450000D01*
X56710489Y-117959511D02*
X57345000Y-117325000D01*
X73415000Y-103180000D02*
X73415000Y-101850000D01*
X57630000Y-109580000D02*
X57580489Y-109530489D01*
X63150480Y-104215480D02*
X63525000Y-104590000D01*
X65565928Y-123394520D02*
X64650928Y-124309520D01*
X64035000Y-107220000D02*
X65115000Y-106140000D01*
X55797500Y-104665000D02*
X55797500Y-101457500D01*
X52695961Y-107098882D02*
X52695960Y-105778673D01*
X82282928Y-119044542D02*
X82282928Y-118499520D01*
X76827704Y-122691340D02*
X77501340Y-122691340D01*
X54533428Y-121233991D02*
X54526009Y-121233991D01*
X58687856Y-112450000D02*
X58298928Y-112838928D01*
X74685000Y-101147500D02*
X74685000Y-100270000D01*
X57760489Y-119320489D02*
X58609511Y-119320489D01*
X65720928Y-123394520D02*
X65565928Y-123394520D01*
X61910000Y-114465000D02*
X59762500Y-114465000D01*
X65115000Y-106140000D02*
X65075000Y-106140000D01*
X59139511Y-112035489D02*
X58725000Y-112450000D01*
X61522500Y-105315000D02*
X60940705Y-105315000D01*
X72375928Y-123394520D02*
X73290928Y-124309520D01*
X73290928Y-124309520D02*
X73290928Y-123759520D01*
X59580000Y-102340000D02*
X59250000Y-102010000D01*
X73415000Y-101850000D02*
X72895000Y-101330000D01*
X53770000Y-104795000D02*
X55667500Y-104795000D01*
X58265000Y-117325000D02*
X64880000Y-117325000D01*
X57585000Y-109580000D02*
X56580000Y-110585000D01*
X72895000Y-101330000D02*
X71575000Y-100010000D01*
X53679633Y-104795000D02*
X53770000Y-104795000D01*
X56710489Y-119170489D02*
X56710489Y-117959511D01*
X68058928Y-105037520D02*
X68058928Y-105499520D01*
X60940705Y-105315000D02*
X60535480Y-104909775D01*
X60535480Y-104334520D02*
X60654520Y-104215480D01*
X65755480Y-105499520D02*
X68058928Y-105499520D01*
X57585000Y-109580000D02*
X58764022Y-109580000D01*
X78574010Y-123764010D02*
X78574010Y-123992138D01*
X83771278Y-104011170D02*
X82282928Y-105499520D01*
X58764022Y-109580000D02*
X59139511Y-109955489D01*
X82000000Y-117530000D02*
X82000000Y-105782448D01*
X55797500Y-101457500D02*
X55630000Y-101290000D01*
X83927500Y-104011170D02*
X83771278Y-104011170D01*
X77307500Y-102592500D02*
X77310000Y-102590000D01*
X59762500Y-114465000D02*
X59627500Y-114330000D01*
X55667500Y-104795000D02*
X55797500Y-104665000D01*
X58525480Y-101285480D02*
X55634520Y-101285480D01*
X64759520Y-97304520D02*
X68328092Y-97304520D01*
X60535480Y-104909775D02*
X60535480Y-104334520D01*
X72220928Y-123394520D02*
X72375928Y-123394520D01*
X82282928Y-118499520D02*
X82282928Y-117812928D01*
X65075000Y-106140000D02*
X63525000Y-104590000D01*
X73290928Y-123759520D02*
X75599967Y-121450481D01*
X62450480Y-115005480D02*
X64421197Y-115005480D01*
X65115000Y-106140000D02*
X65755480Y-105499520D01*
X52695960Y-105778673D02*
X53679633Y-104795000D01*
X64650928Y-128290214D02*
X62177393Y-125816679D01*
X76922500Y-102860000D02*
X76922500Y-102592500D01*
X64470000Y-97015000D02*
X64759520Y-97304520D01*
X53930000Y-108332921D02*
X52695961Y-107098882D01*
X58609511Y-119320489D02*
X61095529Y-121806507D01*
X68328092Y-97304520D02*
X70318572Y-99295000D01*
X75142956Y-101515845D02*
X75142956Y-101605456D01*
X77501340Y-122691340D02*
X78574010Y-123764010D01*
X73880000Y-97685000D02*
X73880000Y-99465000D01*
X60654520Y-104215480D02*
X63150480Y-104215480D01*
X57580489Y-108580378D02*
X57348917Y-108348806D01*
X79876990Y-121450480D02*
X82282928Y-119044542D01*
D54*
X56591427Y-105315000D02*
X57700000Y-104206427D01*
X66520928Y-123394520D02*
X66520928Y-122420498D01*
X61765000Y-112455000D02*
X62420000Y-113110000D01*
X71420928Y-122420498D02*
X71420928Y-123394520D01*
X60560000Y-112165000D02*
X60275000Y-112450000D01*
X61489511Y-107905489D02*
X61004022Y-107420000D01*
X71270439Y-122270009D02*
X71420928Y-122420498D01*
X61004022Y-107420000D02*
X55760000Y-107420000D01*
X61765000Y-112450000D02*
X61765000Y-112455000D01*
X60560000Y-110530000D02*
X60560000Y-112165000D01*
X60275000Y-112450000D02*
X61765000Y-112450000D01*
X66671417Y-122270009D02*
X71270439Y-122270009D01*
X55797500Y-105315000D02*
X56591427Y-105315000D01*
X66520928Y-122420498D02*
X66671417Y-122270009D01*
X61955000Y-111925000D02*
X60560000Y-110530000D01*
X57700000Y-104206427D02*
X57700000Y-102010000D01*
X61765000Y-112450000D02*
X62290000Y-111925000D01*
X60560000Y-110530000D02*
X61489511Y-109600489D01*
X61489511Y-109600489D02*
X61489511Y-107905489D01*
X62290000Y-111925000D02*
X61955000Y-111925000D01*
X60728573Y-105965000D02*
X61522500Y-105965000D01*
X56345000Y-112370000D02*
X56580000Y-112135000D01*
X56580000Y-112135000D02*
X56755000Y-112135000D01*
X56755000Y-112135000D02*
X58360000Y-110530000D01*
X53930000Y-112370000D02*
X53050000Y-113250000D01*
X53930000Y-112370000D02*
X56345000Y-112370000D01*
X54040000Y-106615000D02*
X55797500Y-106615000D01*
X60078573Y-106615000D02*
X60728573Y-105965000D01*
X53050000Y-113250000D02*
X53050000Y-116205000D01*
X55797500Y-106615000D02*
X60078573Y-106615000D01*
X53770000Y-106345000D02*
X54040000Y-106615000D01*
D53*
X64137500Y-110275000D02*
X64200000Y-110212500D01*
X62290000Y-110275000D02*
X64137500Y-110275000D01*
X58895097Y-115280000D02*
X58898916Y-115276181D01*
X57752500Y-115280000D02*
X58895097Y-115280000D01*
X77310000Y-120840000D02*
X79234928Y-118915072D01*
X66255000Y-120840000D02*
X77310000Y-120840000D01*
X79234928Y-118915072D02*
X79234928Y-118499520D01*
X67117232Y-107467232D02*
X67107232Y-107467232D01*
X67117232Y-107467232D02*
X67682439Y-108032439D01*
X67132928Y-110475520D02*
X67682439Y-109926009D01*
X57500000Y-100360000D02*
X58310000Y-100360000D01*
X67682439Y-109926009D02*
X67682439Y-108032439D01*
X58310000Y-100360000D02*
X58663098Y-100006902D01*
X57263274Y-100123274D02*
X57500000Y-100360000D01*
X56796726Y-100123274D02*
X57263274Y-100123274D01*
X66670928Y-110475520D02*
X67132928Y-110475520D01*
X58663098Y-100006902D02*
X59367846Y-100006902D01*
X73880000Y-96079987D02*
X75764463Y-97964450D01*
X75764463Y-97964450D02*
X75764463Y-98182361D01*
X65868803Y-120115480D02*
X65605480Y-120378803D01*
X63955480Y-120215480D02*
X62960000Y-119220000D01*
X78218928Y-118961520D02*
X77064968Y-120115480D01*
X63955480Y-121301197D02*
X63955480Y-120215480D01*
X77064968Y-120115480D02*
X65868803Y-120115480D01*
X62960000Y-119220000D02*
X62060000Y-119220000D01*
X65605480Y-120378803D02*
X65605480Y-120950237D01*
X64218803Y-121564520D02*
X63955480Y-121301197D01*
X64991197Y-121564520D02*
X64218803Y-121564520D01*
X78218928Y-119044542D02*
X78218928Y-118499520D01*
X65605480Y-120950237D02*
X64991197Y-121564520D01*
X71575000Y-95485000D02*
X72219283Y-95485000D01*
X75910000Y-101091072D02*
X75535480Y-100716552D01*
X74341197Y-97035480D02*
X74604520Y-97298803D01*
X72219283Y-95485000D02*
X73769763Y-97035480D01*
X74604520Y-97298803D02*
X74604520Y-99043448D01*
X75910000Y-101847500D02*
X75910000Y-101091072D01*
X74604520Y-99043448D02*
X75535480Y-99974408D01*
X73769763Y-97035480D02*
X74341197Y-97035480D01*
X75535480Y-100716552D02*
X75535480Y-99974408D01*
X71845000Y-96755000D02*
X73155480Y-98065480D01*
X71575000Y-96755000D02*
X71845000Y-96755000D01*
X73155480Y-100305480D02*
X75210000Y-102360000D01*
X75210000Y-102360000D02*
X75397500Y-102360000D01*
X73155480Y-98065480D02*
X73155480Y-100305480D01*
X75849080Y-102360000D02*
X75953581Y-102464501D01*
X75397500Y-102360000D02*
X75849080Y-102360000D01*
X65659417Y-113670000D02*
X65324417Y-114005000D01*
X65880480Y-109459520D02*
X65659417Y-109680583D01*
X65324417Y-114005000D02*
X63960000Y-114005000D01*
X66670928Y-109459520D02*
X65880480Y-109459520D01*
X65659417Y-109680583D02*
X65659417Y-113670000D01*
X56415000Y-108460000D02*
X56279917Y-108460000D01*
X65149520Y-109659519D02*
X64634521Y-109144520D01*
X63235480Y-114391197D02*
X63235480Y-113618803D01*
X64849897Y-112860000D02*
X65149520Y-112560377D01*
X56279917Y-108460000D02*
X56249917Y-108490000D01*
X63994283Y-112860000D02*
X64849897Y-112860000D01*
X63235480Y-113618803D02*
X63994283Y-112860000D01*
X61725000Y-106615000D02*
X61522500Y-106615000D01*
X63040000Y-108755480D02*
X63040000Y-107930000D01*
X64634521Y-109144520D02*
X63429040Y-109144520D01*
X65307928Y-114654520D02*
X63498803Y-114654520D01*
X63429040Y-109144520D02*
X63040000Y-108755480D01*
X63498803Y-114654520D02*
X63235480Y-114391197D01*
X66670928Y-115555520D02*
X66208928Y-115555520D01*
X66208928Y-115555520D02*
X65307928Y-114654520D01*
X65149520Y-112560377D02*
X65149520Y-109659519D01*
X63040000Y-107930000D02*
X61725000Y-106615000D01*
X81266928Y-114596498D02*
X75720448Y-109050018D01*
X75720448Y-109050018D02*
X74170500Y-109050018D01*
X81266928Y-118499520D02*
X81266928Y-114596498D01*
X75910000Y-103961951D02*
X75860500Y-104011451D01*
X75910000Y-103372500D02*
X75910000Y-103961951D01*
X76410000Y-105276448D02*
X76186928Y-105499520D01*
X76410000Y-103372500D02*
X76410000Y-105276448D01*
X62060000Y-118720000D02*
X63274282Y-118720000D01*
X64605000Y-120050718D02*
X64605000Y-120840000D01*
X63274282Y-118720000D02*
X64605000Y-120050718D01*
X53050000Y-119146621D02*
X53708428Y-119805049D01*
X53050000Y-117855000D02*
X53050000Y-119146621D01*
X64790000Y-98025000D02*
X64170000Y-98645000D01*
X66625000Y-98025000D02*
X64790000Y-98025000D01*
X68245480Y-106864520D02*
X69074928Y-106035072D01*
X65167592Y-106864520D02*
X68245480Y-106864520D01*
X69074928Y-106035072D02*
X69074928Y-105499520D01*
X64816056Y-107216056D02*
X65167592Y-106864520D01*
D54*
X69640000Y-102987862D02*
X69640000Y-103477500D01*
X67740000Y-102987862D02*
X68312382Y-102415480D01*
D53*
X53045480Y-105923448D02*
X53323448Y-105645480D01*
X53323448Y-105645480D02*
X54735480Y-105645480D01*
X55055000Y-105965000D02*
X55797500Y-105965000D01*
D54*
X66602500Y-102340000D02*
X67740000Y-103477500D01*
D53*
X54765000Y-108460000D02*
X54551375Y-108460000D01*
X53045480Y-106954105D02*
X53045480Y-105923448D01*
D54*
X59140000Y-103715480D02*
X56890480Y-105965000D01*
D53*
X54551375Y-108460000D02*
X53045480Y-106954105D01*
D54*
X64200480Y-103715480D02*
X59140000Y-103715480D01*
X65915000Y-102340000D02*
X66602500Y-102340000D01*
X56890480Y-105965000D02*
X55797500Y-105965000D01*
X65075000Y-104590000D02*
X64200480Y-103715480D01*
X69067618Y-102415480D02*
X69640000Y-102987862D01*
X68312382Y-102415480D02*
X69067618Y-102415480D01*
D53*
X54735480Y-105645480D02*
X55055000Y-105965000D01*
D54*
X65915000Y-102340000D02*
X65915000Y-103750000D01*
X67740000Y-103477500D02*
X67740000Y-102987862D01*
X65915000Y-103750000D02*
X65075000Y-104590000D01*
D53*
X69720928Y-123394520D02*
X69720928Y-124672964D01*
X68720928Y-123394520D02*
X68720928Y-124401568D01*
X69720928Y-124672964D02*
X69804886Y-124756922D01*
X68171417Y-124629184D02*
X68522233Y-124980000D01*
X67969657Y-124980000D02*
X67903608Y-124913951D01*
X69270439Y-123444031D02*
X69220928Y-123394520D01*
X68522233Y-124980000D02*
X67969657Y-124980000D01*
X58642048Y-118720000D02*
X57660000Y-118720000D01*
X68919623Y-124980000D02*
X69270439Y-124629184D01*
X69270439Y-124629184D02*
X69270439Y-123444031D01*
X68522233Y-124980000D02*
X68919623Y-124980000D01*
X68171417Y-123444031D02*
X68171417Y-124629184D01*
X68220928Y-123394520D02*
X68171417Y-123444031D01*
X71733348Y-125680000D02*
X73530429Y-125680000D01*
X75332296Y-123878133D02*
X75332296Y-123388660D01*
X70720928Y-124667580D02*
X71733348Y-125680000D01*
X70720928Y-123394520D02*
X70720928Y-124667580D01*
X73530429Y-125680000D02*
X75332296Y-123878133D01*
X64330000Y-125610000D02*
X62524471Y-123804471D01*
X67720928Y-124319520D02*
X66430448Y-125610000D01*
X62524471Y-123804471D02*
X62524471Y-123242500D01*
X67720928Y-123394520D02*
X67720928Y-124319520D01*
X66430448Y-125610000D02*
X64330000Y-125610000D01*
X56284520Y-115415480D02*
X57169500Y-114530500D01*
X57169500Y-114530500D02*
X58298928Y-114530500D01*
X56284520Y-117480480D02*
X56284520Y-115415480D01*
X55420000Y-118345000D02*
X56284520Y-117480480D01*
X63465000Y-106025705D02*
X62104295Y-104665000D01*
X62104295Y-104665000D02*
X61522500Y-104665000D01*
X63465000Y-106140000D02*
X63465000Y-106025705D01*
X64200000Y-112110000D02*
X64200000Y-112087500D01*
X59090000Y-108630000D02*
X59575480Y-109115480D01*
X59575480Y-109115480D02*
X59575480Y-112896552D01*
X60338439Y-113659511D02*
X62650489Y-113659511D01*
X58360000Y-108630000D02*
X59090000Y-108630000D01*
X59575480Y-112896552D02*
X60338439Y-113659511D01*
X62650489Y-113659511D02*
X64200000Y-112110000D01*
X59627500Y-116230000D02*
X61795000Y-116230000D01*
X63500000Y-116115000D02*
X63960000Y-115655000D01*
X61910000Y-116115000D02*
X63500000Y-116115000D01*
X61795000Y-116230000D02*
X61910000Y-116115000D01*
M02*
