G04 #@! TF.GenerationSoftware,KiCad,Pcbnew,(6.0.0-0)*
G04 #@! TF.CreationDate,2022-01-16T16:26:29+10:00*
G04 #@! TF.ProjectId,osw-light,6f73772d-6c69-4676-9874-2e6b69636164,3.3*
G04 #@! TF.SameCoordinates,Original*
G04 #@! TF.FileFunction,Copper,L4,Bot*
G04 #@! TF.FilePolarity,Positive*
%FSLAX46Y46*%
G04 Gerber Fmt 4.6, Leading zero omitted, Abs format (unit mm)*
G04 Created by KiCad (PCBNEW (6.0.0-0)) date 2022-01-16 16:26:29*
%MOMM*%
%LPD*%
G01*
G04 APERTURE LIST*
G04 Aperture macros list*
%AMHorizOval*
0 Thick line with rounded ends*
0 $1 width*
0 $2 $3 position (X,Y) of the first rounded end (center of the circle)*
0 $4 $5 position (X,Y) of the second rounded end (center of the circle)*
0 Add line between two ends*
20,1,$1,$2,$3,$4,$5,0*
0 Add two circle primitives to create the rounded ends*
1,1,$1,$2,$3*
1,1,$1,$4,$5*%
G04 Aperture macros list end*
G04 #@! TA.AperFunction,ComponentPad*
%ADD10O,1.050000X2.100000*%
G04 #@! TD*
G04 #@! TA.AperFunction,ComponentPad*
%ADD11O,1.000000X2.000000*%
G04 #@! TD*
G04 #@! TA.AperFunction,ComponentPad*
%ADD12HorizOval,0.600000X0.251623X-0.387466X-0.251623X0.387466X0*%
G04 #@! TD*
G04 #@! TA.AperFunction,ComponentPad*
%ADD13HorizOval,0.600000X-0.251623X-0.387466X0.251623X0.387466X0*%
G04 #@! TD*
G04 #@! TA.AperFunction,ComponentPad*
%ADD14HorizOval,0.600000X-0.251623X0.387466X0.251623X-0.387466X0*%
G04 #@! TD*
G04 #@! TA.AperFunction,ComponentPad*
%ADD15HorizOval,0.600000X0.251623X0.387466X-0.251623X-0.387466X0*%
G04 #@! TD*
G04 #@! TA.AperFunction,ComponentPad*
%ADD16R,1.700000X1.700000*%
G04 #@! TD*
G04 #@! TA.AperFunction,ComponentPad*
%ADD17O,1.700000X1.700000*%
G04 #@! TD*
G04 #@! TA.AperFunction,SMDPad,CuDef*
%ADD18R,2.500000X0.350000*%
G04 #@! TD*
G04 #@! TA.AperFunction,ViaPad*
%ADD19C,0.600000*%
G04 #@! TD*
G04 #@! TA.AperFunction,Conductor*
%ADD20C,0.250000*%
G04 #@! TD*
G04 #@! TA.AperFunction,Conductor*
%ADD21C,0.500000*%
G04 #@! TD*
G04 #@! TA.AperFunction,Conductor*
%ADD22C,0.200000*%
G04 #@! TD*
G04 APERTURE END LIST*
D10*
X80520000Y-113420000D03*
D11*
X80520000Y-117600000D03*
D10*
X71880000Y-113420000D03*
D11*
X71880000Y-117600000D03*
D12*
X87356383Y-114396284D03*
X83095937Y-117163051D03*
D13*
X69304063Y-117163051D03*
X65043617Y-114396284D03*
D14*
X65043617Y-88803716D03*
X69304063Y-86036949D03*
D15*
X83095937Y-86036949D03*
X87356383Y-88803716D03*
D16*
X60642500Y-103441500D03*
D17*
X60642500Y-100901500D03*
D18*
X65528000Y-97877000D03*
X65528000Y-98577000D03*
X65528000Y-99277000D03*
X65528000Y-99977000D03*
X65528000Y-100677000D03*
X65528000Y-101377000D03*
X65528000Y-105577000D03*
X65528000Y-104877000D03*
X65528000Y-104177000D03*
X65528000Y-103477000D03*
X65528000Y-102777000D03*
X65528000Y-102077000D03*
D19*
X68365000Y-112040000D03*
X84217149Y-92542852D03*
X65528000Y-102077000D03*
X68312035Y-115136535D03*
X75506600Y-114562024D03*
X74725765Y-113851549D03*
X73282144Y-110839256D03*
X88684600Y-110083600D03*
X82993535Y-115417159D03*
X88080000Y-95020000D03*
X79975000Y-90500000D03*
X75225000Y-90500000D03*
X87870612Y-90499446D03*
X90334600Y-110083600D03*
X89096000Y-95020000D03*
X64765000Y-111980000D03*
X71564500Y-90042500D03*
X81417455Y-92782545D03*
X76904000Y-108020000D03*
X83841480Y-90734590D03*
X65575000Y-106510000D03*
X72600000Y-93870989D03*
X70355000Y-106460000D03*
X88251900Y-93218000D03*
X68200000Y-96740000D03*
X71564500Y-85331000D03*
X82330753Y-92846395D03*
X66715000Y-112040000D03*
X75888000Y-95020000D03*
X89851900Y-91643200D03*
X70045000Y-89480000D03*
X71935000Y-96740000D03*
X73000000Y-112845000D03*
X67250000Y-108190000D03*
X65515000Y-111005000D03*
X78425000Y-90500000D03*
X66300000Y-110390000D03*
X67627011Y-103409500D03*
X71895000Y-106460000D03*
X64610000Y-109925000D03*
X69635000Y-113670000D03*
X66088500Y-93916500D03*
X75810000Y-98002500D03*
X66596918Y-89607382D03*
X74500000Y-97964000D03*
X82993535Y-87782841D03*
X86048000Y-108020000D03*
X75779924Y-110104500D03*
X86740500Y-91630500D03*
X84241000Y-91589267D03*
X88080000Y-108020000D03*
X85090500Y-93218000D03*
X85060000Y-105360000D03*
X82496260Y-91634429D03*
X72760000Y-97560000D03*
X62410000Y-94355000D03*
X89096000Y-108020000D03*
X81010402Y-91563026D03*
X85032000Y-95020000D03*
X63355000Y-96430000D03*
X80968000Y-95020000D03*
X62325000Y-108300000D03*
X76904000Y-95020000D03*
X80968000Y-108020000D03*
X82000000Y-95020000D03*
X81984000Y-108020000D03*
X68764462Y-104037192D03*
X68783734Y-101496266D03*
X65005000Y-96430000D03*
X61775000Y-97800000D03*
X77049011Y-113792901D03*
X70140000Y-108930498D03*
X75950000Y-113702048D03*
X71122048Y-109529999D03*
D20*
X68965960Y-111439040D02*
X68365000Y-112040000D01*
D21*
X84146467Y-92542852D02*
X84217149Y-92542852D01*
X83195771Y-91592156D02*
X84146467Y-92542852D01*
D20*
X83841480Y-90734590D02*
X83841480Y-90698520D01*
X83841480Y-90698520D02*
X84650000Y-89890000D01*
X83841480Y-90734590D02*
X86657072Y-90734590D01*
X86657072Y-90734590D02*
X88251900Y-92329418D01*
X88251900Y-92329418D02*
X88251900Y-93218000D01*
D21*
X64610000Y-111145741D02*
X64065489Y-111690252D01*
X66960000Y-113054989D02*
X67044042Y-113139031D01*
X64065489Y-111690252D02*
X64065489Y-112269748D01*
X64065489Y-112269748D02*
X64850730Y-113054989D01*
X64610000Y-109925000D02*
X64610000Y-111145741D01*
X67044042Y-113139031D02*
X69104031Y-113139031D01*
X64850730Y-113054989D02*
X66960000Y-113054989D01*
X69104031Y-113139031D02*
X69635000Y-113670000D01*
D20*
X71215000Y-106685000D02*
X71670000Y-106685000D01*
X71670000Y-106685000D02*
X71895000Y-106460000D01*
D21*
X71667500Y-106232500D02*
X71215000Y-106685000D01*
X71215000Y-106685000D02*
X67635000Y-110265000D01*
X71667500Y-106232500D02*
X71895000Y-106460000D01*
X67635000Y-110265000D02*
X66425000Y-110265000D01*
X66425000Y-110265000D02*
X66300000Y-110390000D01*
X71115000Y-105680000D02*
X71667500Y-106232500D01*
X69418011Y-105680000D02*
X67627011Y-103889000D01*
X67627011Y-103889000D02*
X67627011Y-103409500D01*
X69418011Y-105680000D02*
X71115000Y-105680000D01*
D20*
X73000000Y-112845000D02*
X72250480Y-112095480D01*
X68602971Y-112614511D02*
X67289511Y-112614511D01*
X72250480Y-112095480D02*
X69122002Y-112095480D01*
X69122002Y-112095480D02*
X68602971Y-112614511D01*
X67289511Y-112614511D02*
X66715000Y-112040000D01*
X72406522Y-111439040D02*
X68965960Y-111439040D01*
X74725765Y-113851549D02*
X74725765Y-113758283D01*
X74725765Y-113758283D02*
X72406522Y-111439040D01*
X76904000Y-108020000D02*
X75205413Y-109718587D01*
X77623522Y-112760580D02*
X77623522Y-114030872D01*
X75205413Y-109718587D02*
X75205413Y-110342471D01*
X77623522Y-114030872D02*
X76517859Y-115136535D01*
X75205413Y-110342471D02*
X77623522Y-112760580D01*
X76517859Y-115136535D02*
X68312035Y-115136535D01*
D22*
X71122048Y-109529999D02*
X72749999Y-109529999D01*
X75275276Y-112055276D02*
X75275276Y-114330700D01*
X75275276Y-114330700D02*
X75506600Y-114562024D01*
X72749999Y-109529999D02*
X75275276Y-112055276D01*
D20*
X89210000Y-107310000D02*
X89000000Y-107310000D01*
X83351041Y-115417159D02*
X88684600Y-110083600D01*
X89720000Y-107820000D02*
X89210000Y-107310000D01*
X89720000Y-109048200D02*
X89720000Y-107820000D01*
X88684600Y-110083600D02*
X89720000Y-109048200D01*
X89000000Y-107310000D02*
X88080000Y-106390000D01*
X82993535Y-115417159D02*
X83351041Y-115417159D01*
X88080000Y-106390000D02*
X88080000Y-95020000D01*
D21*
X72889256Y-110839256D02*
X72813992Y-110914520D01*
X83195771Y-91344681D02*
X83195771Y-91592156D01*
D20*
X90334600Y-107844600D02*
X89096000Y-106606000D01*
D21*
X89096000Y-95020000D02*
X89096000Y-91724834D01*
D20*
X79975000Y-91340090D02*
X81417455Y-92782545D01*
X79975000Y-90500000D02*
X79975000Y-91340090D01*
D21*
X89096000Y-91724834D02*
X87870612Y-90499446D01*
X66780000Y-110914520D02*
X65990009Y-111704511D01*
X79975000Y-90500000D02*
X82351090Y-90500000D01*
X71564500Y-90042500D02*
X72022000Y-90500000D01*
X72813992Y-110914520D02*
X66780000Y-110914520D01*
X73282144Y-110839256D02*
X72889256Y-110839256D01*
X82351090Y-90500000D02*
X83195771Y-91344681D01*
X65040489Y-111704511D02*
X64765000Y-111980000D01*
X89096000Y-106606000D02*
X89096000Y-95020000D01*
X65990009Y-111704511D02*
X65040489Y-111704511D01*
D20*
X90334600Y-110083600D02*
X90334600Y-107844600D01*
D21*
X72022000Y-90500000D02*
X75225000Y-90500000D01*
D20*
X65725489Y-109714511D02*
X65725489Y-110794511D01*
X70305000Y-106510000D02*
X70355000Y-106460000D01*
X65725489Y-109714511D02*
X67250000Y-108190000D01*
X67063000Y-97877000D02*
X68200000Y-96740000D01*
X65528000Y-102777000D02*
X66029500Y-102777000D01*
X67250000Y-108190000D02*
X67250000Y-108185000D01*
X67052511Y-103027489D02*
X67052511Y-105387489D01*
X70045000Y-89480000D02*
X70045000Y-91315989D01*
X65575000Y-106510000D02*
X70305000Y-106510000D01*
X88098700Y-89890000D02*
X89851900Y-91643200D01*
X81820092Y-93357056D02*
X81179484Y-93357056D01*
X84614511Y-89925489D02*
X84650000Y-89890000D01*
X66029500Y-102777000D02*
X66087500Y-102835000D01*
X65528000Y-105577000D02*
X65528000Y-106463000D01*
X73655000Y-95020000D02*
X71935000Y-96740000D01*
X65725489Y-110794511D02*
X65515000Y-111005000D01*
X80842944Y-92917944D02*
X78425000Y-90500000D01*
X68200000Y-96740000D02*
X71935000Y-96740000D01*
X82330753Y-92846395D02*
X81820092Y-93357056D01*
X84650000Y-89890000D02*
X88098700Y-89890000D01*
X67052511Y-105387489D02*
X66863000Y-105577000D01*
X75888000Y-95020000D02*
X73655000Y-95020000D01*
X70045000Y-89480000D02*
X70045000Y-86850500D01*
X81179484Y-93357056D02*
X80842944Y-93020516D01*
X66087500Y-102835000D02*
X66860022Y-102835000D01*
X65528000Y-102077000D02*
X65528000Y-102777000D01*
X67250000Y-108185000D02*
X65575000Y-106510000D01*
X66860022Y-102835000D02*
X67052511Y-103027489D01*
X65528000Y-97877000D02*
X67063000Y-97877000D01*
X66863000Y-105577000D02*
X65528000Y-105577000D01*
X78425000Y-90500000D02*
X78999511Y-89925489D01*
X78999511Y-89925489D02*
X84614511Y-89925489D01*
X70045000Y-91315989D02*
X72600000Y-93870989D01*
X80842944Y-93020516D02*
X80842944Y-92917944D01*
X70045000Y-86850500D02*
X71564500Y-85331000D01*
X65528000Y-106463000D02*
X65575000Y-106510000D01*
X64028000Y-104877000D02*
X62226449Y-103075449D01*
X65528000Y-104877000D02*
X64028000Y-104877000D01*
X60800969Y-97354025D02*
X64238494Y-93916500D01*
X62226449Y-103075449D02*
X62226449Y-99750000D01*
X64238494Y-93916500D02*
X66088500Y-93916500D01*
X60800969Y-98324520D02*
X60800969Y-97354025D01*
X62226449Y-99750000D02*
X60800969Y-98324520D01*
X74772482Y-97964000D02*
X74500000Y-97964000D01*
X77900000Y-90770000D02*
X77900000Y-94836482D01*
X77850489Y-90262029D02*
X77850489Y-90720489D01*
X82993535Y-87782841D02*
X80329677Y-87782841D01*
X77900000Y-94836482D02*
X74772482Y-97964000D01*
X80329677Y-87782841D02*
X77850489Y-90262029D01*
X77850489Y-90720489D02*
X77900000Y-90770000D01*
X83963500Y-110104500D02*
X86048000Y-108020000D01*
X75779924Y-110104500D02*
X83963500Y-110104500D01*
X86740500Y-91630500D02*
X84282233Y-91630500D01*
X86740500Y-91630500D02*
X86740500Y-106680500D01*
X86740500Y-106680500D02*
X88080000Y-108020000D01*
X84282233Y-91630500D02*
X84241000Y-91589267D01*
X82496260Y-91634429D02*
X84079831Y-93218000D01*
X85650000Y-95240000D02*
X85650000Y-93777500D01*
X85650000Y-93777500D02*
X85090500Y-93218000D01*
X84079831Y-93218000D02*
X85090500Y-93218000D01*
X85060000Y-105360000D02*
X85060000Y-95830000D01*
X85060000Y-95830000D02*
X85650000Y-95240000D01*
X88521489Y-108594511D02*
X87434993Y-108594511D01*
X78117482Y-99277000D02*
X65528000Y-99277000D01*
X87434993Y-108594511D02*
X78117482Y-99277000D01*
X89096000Y-108020000D02*
X88521489Y-108594511D01*
X82518412Y-92221587D02*
X82270936Y-92221587D01*
X82270936Y-92221587D02*
X81612375Y-91563026D01*
X85032000Y-94735175D02*
X82518412Y-92221587D01*
X85032000Y-95020000D02*
X85032000Y-94735175D01*
X81612375Y-91563026D02*
X81010402Y-91563026D01*
X61200489Y-98154520D02*
X61200489Y-97519511D01*
X62625970Y-102774970D02*
X62625969Y-99580000D01*
X62290000Y-96430000D02*
X63355000Y-96430000D01*
X65528000Y-104177000D02*
X64028000Y-104177000D01*
X64028000Y-104177000D02*
X62625970Y-102774970D01*
X61200489Y-97519511D02*
X62290000Y-96430000D01*
X62625969Y-99580000D02*
X61200489Y-98154520D01*
X64565489Y-97004511D02*
X64003489Y-97566511D01*
X67095489Y-97004511D02*
X64565489Y-97004511D01*
X76904000Y-95020000D02*
X76329489Y-94445489D01*
X64028000Y-101377000D02*
X65528000Y-101377000D01*
X76329489Y-94445489D02*
X69654511Y-94445489D01*
X64003489Y-101352489D02*
X64028000Y-101377000D01*
X69654511Y-94445489D02*
X67095489Y-97004511D01*
X64003489Y-97566511D02*
X64003489Y-101352489D01*
X73625000Y-100677000D02*
X80968000Y-108020000D01*
X65528000Y-100677000D02*
X73625000Y-100677000D01*
X78443000Y-98577000D02*
X82000000Y-95020000D01*
X65528000Y-98577000D02*
X78443000Y-98577000D01*
X73941000Y-99977000D02*
X81984000Y-108020000D01*
X65528000Y-99977000D02*
X73941000Y-99977000D01*
D21*
X68783734Y-104017920D02*
X68764462Y-104037192D01*
X68783734Y-101496266D02*
X68783734Y-104017920D01*
X64344259Y-96430000D02*
X62974259Y-97800000D01*
X61775000Y-97800000D02*
X61775000Y-97987247D01*
X62974259Y-97800000D02*
X61775000Y-97800000D01*
X63478969Y-99691216D02*
X63478969Y-102878969D01*
X65005000Y-96430000D02*
X64344259Y-96430000D01*
X61775000Y-97987247D02*
X63478969Y-99691216D01*
X64077000Y-103477000D02*
X65528000Y-103477000D01*
X63478969Y-102878969D02*
X64077000Y-103477000D01*
D22*
X77049011Y-113792901D02*
X76040853Y-113792901D01*
X75950000Y-113702048D02*
X75950000Y-112235705D01*
X75950000Y-112235705D02*
X72644794Y-108930498D01*
X76040853Y-113792901D02*
X75950000Y-113702048D01*
X72644794Y-108930498D02*
X70140000Y-108930498D01*
M02*
