G04 #@! TF.GenerationSoftware,KiCad,Pcbnew,(6.0.0-0)*
G04 #@! TF.CreationDate,2022-02-02T12:25:20+10:00*
G04 #@! TF.ProjectId,osw-light,6f73772d-6c69-4676-9874-2e6b69636164,3.3*
G04 #@! TF.SameCoordinates,Original*
G04 #@! TF.FileFunction,Legend,Top*
G04 #@! TF.FilePolarity,Positive*
%FSLAX46Y46*%
G04 Gerber Fmt 4.6, Leading zero omitted, Abs format (unit mm)*
G04 Created by KiCad (PCBNEW (6.0.0-0)) date 2022-02-02 12:25:20*
%MOMM*%
%LPD*%
G01*
G04 APERTURE LIST*
G04 Aperture macros list*
%AMRoundRect*
0 Rectangle with rounded corners*
0 $1 Rounding radius*
0 $2 $3 $4 $5 $6 $7 $8 $9 X,Y pos of 4 corners*
0 Add a 4 corners polygon primitive as box body*
4,1,4,$2,$3,$4,$5,$6,$7,$8,$9,$2,$3,0*
0 Add four circle primitives for the rounded corners*
1,1,$1+$1,$2,$3*
1,1,$1+$1,$4,$5*
1,1,$1+$1,$6,$7*
1,1,$1+$1,$8,$9*
0 Add four rect primitives between the rounded corners*
20,1,$1+$1,$2,$3,$4,$5,0*
20,1,$1+$1,$4,$5,$6,$7,0*
20,1,$1+$1,$6,$7,$8,$9,0*
20,1,$1+$1,$8,$9,$2,$3,0*%
%AMHorizOval*
0 Thick line with rounded ends*
0 $1 width*
0 $2 $3 position (X,Y) of the first rounded end (center of the circle)*
0 $4 $5 position (X,Y) of the second rounded end (center of the circle)*
0 Add line between two ends*
20,1,$1,$2,$3,$4,$5,0*
0 Add two circle primitives to create the rounded ends*
1,1,$1,$2,$3*
1,1,$1,$4,$5*%
G04 Aperture macros list end*
%ADD10C,0.160000*%
%ADD11C,0.200000*%
%ADD12C,0.140000*%
%ADD13C,0.100000*%
%ADD14C,0.150000*%
%ADD15C,0.120000*%
%ADD16HorizOval,0.702000X0.251623X-0.387466X-0.251623X0.387466X0*%
%ADD17RoundRect,0.051000X-0.624683X0.502907X0.205347X-0.775227X0.624683X-0.502907X-0.205347X0.775227X0*%
%ADD18HorizOval,0.702000X-0.251623X-0.387466X0.251623X0.387466X0*%
%ADD19RoundRect,0.051000X0.205347X0.775227X-0.624683X-0.502907X-0.205347X-0.775227X0.624683X0.502907X0*%
%ADD20RoundRect,0.251000X-0.335876X-0.053033X-0.053033X-0.335876X0.335876X0.053033X0.053033X0.335876X0*%
%ADD21RoundRect,0.276000X-0.225000X-0.250000X0.225000X-0.250000X0.225000X0.250000X-0.225000X0.250000X0*%
%ADD22RoundRect,0.251000X-0.200000X-0.275000X0.200000X-0.275000X0.200000X0.275000X-0.200000X0.275000X0*%
%ADD23RoundRect,0.251000X0.200000X0.275000X-0.200000X0.275000X-0.200000X-0.275000X0.200000X-0.275000X0*%
%ADD24RoundRect,0.201000X-0.825000X-0.150000X0.825000X-0.150000X0.825000X0.150000X-0.825000X0.150000X0*%
%ADD25RoundRect,0.276000X0.225000X0.250000X-0.225000X0.250000X-0.225000X-0.250000X0.225000X-0.250000X0*%
%ADD26RoundRect,0.276000X0.250000X-0.225000X0.250000X0.225000X-0.250000X0.225000X-0.250000X-0.225000X0*%
%ADD27HorizOval,0.702000X-0.251623X0.387466X0.251623X-0.387466X0*%
%ADD28RoundRect,0.051000X0.624683X-0.502907X-0.205347X0.775227X-0.624683X0.502907X0.205347X-0.775227X0*%
%ADD29RoundRect,0.051000X-0.700000X-0.150000X0.700000X-0.150000X0.700000X0.150000X-0.700000X0.150000X0*%
%ADD30RoundRect,0.151000X0.637500X0.100000X-0.637500X0.100000X-0.637500X-0.100000X0.637500X-0.100000X0*%
%ADD31RoundRect,0.051000X-0.175000X0.187500X-0.175000X-0.187500X0.175000X-0.187500X0.175000X0.187500X0*%
%ADD32RoundRect,0.051000X-0.187500X-0.175000X0.187500X-0.175000X0.187500X0.175000X-0.187500X0.175000X0*%
%ADD33RoundRect,0.251000X-0.275000X0.200000X-0.275000X-0.200000X0.275000X-0.200000X0.275000X0.200000X0*%
%ADD34RoundRect,0.301000X-0.325000X-0.650000X0.325000X-0.650000X0.325000X0.650000X-0.325000X0.650000X0*%
%ADD35RoundRect,0.201000X0.150000X-0.512500X0.150000X0.512500X-0.150000X0.512500X-0.150000X-0.512500X0*%
%ADD36RoundRect,0.051000X-0.300000X0.762000X-0.300000X-0.762000X0.300000X-0.762000X0.300000X0.762000X0*%
%ADD37RoundRect,0.051000X-0.762000X-0.300000X0.762000X-0.300000X0.762000X0.300000X-0.762000X0.300000X0*%
%ADD38RoundRect,0.051000X-2.500000X2.500000X-2.500000X-2.500000X2.500000X-2.500000X2.500000X2.500000X0*%
%ADD39RoundRect,0.201000X-0.587500X-0.150000X0.587500X-0.150000X0.587500X0.150000X-0.587500X0.150000X0*%
%ADD40RoundRect,0.251000X-0.338157X0.035705X-0.138157X-0.310705X0.338157X-0.035705X0.138157X0.310705X0*%
%ADD41HorizOval,0.702000X0.251623X0.387466X-0.251623X-0.387466X0*%
%ADD42RoundRect,0.051000X-0.205347X-0.775227X0.624683X0.502907X0.205347X0.775227X-0.624683X-0.502907X0*%
%ADD43RoundRect,0.051000X-0.325000X0.530000X-0.325000X-0.530000X0.325000X-0.530000X0.325000X0.530000X0*%
%ADD44RoundRect,0.294750X0.456250X-0.243750X0.456250X0.243750X-0.456250X0.243750X-0.456250X-0.243750X0*%
%ADD45RoundRect,0.051000X0.425000X0.425000X-0.425000X0.425000X-0.425000X-0.425000X0.425000X-0.425000X0*%
%ADD46O,0.952000X0.952000*%
%ADD47RoundRect,0.051000X-0.425000X-0.425000X0.425000X-0.425000X0.425000X0.425000X-0.425000X0.425000X0*%
%ADD48RoundRect,0.051000X0.425000X-0.425000X0.425000X0.425000X-0.425000X0.425000X-0.425000X-0.425000X0*%
%ADD49C,0.752000*%
%ADD50RoundRect,0.051000X-0.300000X-0.725000X0.300000X-0.725000X0.300000X0.725000X-0.300000X0.725000X0*%
%ADD51RoundRect,0.051000X-0.150000X-0.725000X0.150000X-0.725000X0.150000X0.725000X-0.150000X0.725000X0*%
%ADD52O,1.102000X1.702000*%
%ADD53O,1.102000X2.202000*%
%ADD54RoundRect,0.251000X-0.035705X-0.338157X0.310705X-0.138157X0.035705X0.338157X-0.310705X0.138157X0*%
G04 APERTURE END LIST*
D10*
X53081404Y-111089520D02*
X53005213Y-111051424D01*
X52890928Y-111051424D01*
X52776642Y-111089520D01*
X52700451Y-111165710D01*
X52662356Y-111241900D01*
X52624261Y-111394281D01*
X52624261Y-111508567D01*
X52662356Y-111660948D01*
X52700451Y-111737139D01*
X52776642Y-111813329D01*
X52890928Y-111851424D01*
X52967118Y-111851424D01*
X53081404Y-111813329D01*
X53119499Y-111775234D01*
X53119499Y-111508567D01*
X52967118Y-111508567D01*
X53462356Y-111851424D02*
X53462356Y-111051424D01*
X53919499Y-111851424D01*
X53919499Y-111051424D01*
X54300451Y-111851424D02*
X54300451Y-111051424D01*
X54490928Y-111051424D01*
X54605213Y-111089520D01*
X54681404Y-111165710D01*
X54719499Y-111241900D01*
X54757594Y-111394281D01*
X54757594Y-111508567D01*
X54719499Y-111660948D01*
X54681404Y-111737139D01*
X54605213Y-111813329D01*
X54490928Y-111851424D01*
X54300451Y-111851424D01*
D11*
X74960451Y-128141900D02*
X74627118Y-127665710D01*
X74389023Y-128141900D02*
X74389023Y-127141900D01*
X74769975Y-127141900D01*
X74865213Y-127189520D01*
X74912832Y-127237139D01*
X74960451Y-127332377D01*
X74960451Y-127475234D01*
X74912832Y-127570472D01*
X74865213Y-127618091D01*
X74769975Y-127665710D01*
X74389023Y-127665710D01*
X63986142Y-128199900D02*
X63414713Y-128199900D01*
X63700428Y-128199900D02*
X63700428Y-127199900D01*
X63605189Y-127342758D01*
X63509951Y-127437996D01*
X63414713Y-127485615D01*
X74701761Y-97307139D02*
X74082713Y-97307139D01*
X74416047Y-96926186D01*
X74273189Y-96926186D01*
X74177951Y-96878567D01*
X74130332Y-96830948D01*
X74082713Y-96735710D01*
X74082713Y-96497615D01*
X74130332Y-96402377D01*
X74177951Y-96354758D01*
X74273189Y-96307139D01*
X74558904Y-96307139D01*
X74654142Y-96354758D01*
X74701761Y-96402377D01*
X56937642Y-100450400D02*
X56890023Y-100498020D01*
X56794785Y-100545639D01*
X56556689Y-100545639D01*
X56461451Y-100498020D01*
X56413832Y-100450400D01*
X56366213Y-100355162D01*
X56366213Y-100259924D01*
X56413832Y-100117067D01*
X56985261Y-99545639D01*
X56366213Y-99545639D01*
D12*
X54462356Y-114762377D02*
X55062356Y-114562377D01*
X54462356Y-114362377D01*
X54462356Y-113762377D02*
X54462356Y-113390948D01*
X54690928Y-113590948D01*
X54690928Y-113505234D01*
X54719499Y-113448091D01*
X54748070Y-113419520D01*
X54805213Y-113390948D01*
X54948070Y-113390948D01*
X55005213Y-113419520D01*
X55033785Y-113448091D01*
X55062356Y-113505234D01*
X55062356Y-113676662D01*
X55033785Y-113733805D01*
X55005213Y-113762377D01*
X55005213Y-113133805D02*
X55033785Y-113105234D01*
X55062356Y-113133805D01*
X55033785Y-113162377D01*
X55005213Y-113133805D01*
X55062356Y-113133805D01*
X54462356Y-112905234D02*
X54462356Y-112533805D01*
X54690928Y-112733805D01*
X54690928Y-112648091D01*
X54719499Y-112590948D01*
X54748070Y-112562377D01*
X54805213Y-112533805D01*
X54948070Y-112533805D01*
X55005213Y-112562377D01*
X55033785Y-112590948D01*
X55062356Y-112648091D01*
X55062356Y-112819520D01*
X55033785Y-112876662D01*
X55005213Y-112905234D01*
X52595213Y-115080948D02*
X52795213Y-115680948D01*
X52995213Y-115080948D01*
X53395213Y-115366662D02*
X53480928Y-115395234D01*
X53509499Y-115423805D01*
X53538070Y-115480948D01*
X53538070Y-115566662D01*
X53509499Y-115623805D01*
X53480928Y-115652377D01*
X53423785Y-115680948D01*
X53195213Y-115680948D01*
X53195213Y-115080948D01*
X53395213Y-115080948D01*
X53452356Y-115109520D01*
X53480928Y-115138091D01*
X53509499Y-115195234D01*
X53509499Y-115252377D01*
X53480928Y-115309520D01*
X53452356Y-115338091D01*
X53395213Y-115366662D01*
X53195213Y-115366662D01*
X53766642Y-115509520D02*
X54052356Y-115509520D01*
X53709499Y-115680948D02*
X53909499Y-115080948D01*
X54109499Y-115680948D01*
X54223785Y-115080948D02*
X54566642Y-115080948D01*
X54395213Y-115680948D02*
X54395213Y-115080948D01*
D13*
X77181816Y-124785778D02*
X77240114Y-124770631D01*
X77319988Y-124718760D01*
X77341563Y-124682038D01*
X77347164Y-124655689D01*
X77342390Y-124613365D01*
X77321642Y-124581416D01*
X77284919Y-124559841D01*
X77258570Y-124554240D01*
X77216247Y-124559014D01*
X77141974Y-124584535D01*
X77099651Y-124589309D01*
X77073302Y-124583708D01*
X77036579Y-124562133D01*
X77015831Y-124530184D01*
X77011057Y-124487860D01*
X77016658Y-124461511D01*
X77038233Y-124424789D01*
X77118107Y-124372918D01*
X77176405Y-124357771D01*
X77277854Y-124269177D02*
X77575583Y-124552775D01*
X77483870Y-124271659D01*
X77703380Y-124469783D01*
X77565398Y-124082444D01*
X77909586Y-124017907D02*
X78054823Y-124241553D01*
X77746720Y-123941980D02*
X77822458Y-124233471D01*
X78030128Y-124098608D01*
X61986398Y-125244208D02*
X61948848Y-125197111D01*
X61868975Y-125145241D01*
X61826651Y-125140467D01*
X61800303Y-125146068D01*
X61763580Y-125167643D01*
X61742832Y-125199592D01*
X61738058Y-125241916D01*
X61743659Y-125268265D01*
X61765234Y-125304987D01*
X61818759Y-125362458D01*
X61840334Y-125399181D01*
X61845935Y-125425530D01*
X61841161Y-125467853D01*
X61820413Y-125499803D01*
X61783690Y-125521378D01*
X61757341Y-125526979D01*
X61715018Y-125522205D01*
X61635144Y-125470335D01*
X61597595Y-125423238D01*
X61475398Y-125366594D02*
X61613380Y-124979255D01*
X61393870Y-125177379D01*
X61485583Y-124896263D01*
X61187854Y-125179861D01*
X60900309Y-124993127D02*
X61060056Y-125096868D01*
X61179772Y-124947495D01*
X61153423Y-124953096D01*
X61111099Y-124948322D01*
X61031226Y-124896452D01*
X61009651Y-124859729D01*
X61004050Y-124833380D01*
X61008824Y-124791057D01*
X61060694Y-124711184D01*
X61097417Y-124689608D01*
X61123766Y-124684008D01*
X61166089Y-124688781D01*
X61245962Y-124740652D01*
X61267538Y-124777374D01*
X61273138Y-124803723D01*
X57629794Y-122548504D02*
X57579286Y-122834714D01*
X57831824Y-122750535D02*
X57478271Y-123104088D01*
X57343584Y-122969401D01*
X57326748Y-122918894D01*
X57326748Y-122885222D01*
X57343584Y-122834714D01*
X57394092Y-122784207D01*
X57444599Y-122767371D01*
X57478271Y-122767371D01*
X57528779Y-122784207D01*
X57663466Y-122918894D01*
X57461435Y-122380145D02*
X57394092Y-122312802D01*
X57343584Y-122295966D01*
X57309912Y-122295966D01*
X57225733Y-122312802D01*
X57141553Y-122363310D01*
X57006866Y-122497997D01*
X56990031Y-122548504D01*
X56990031Y-122582176D01*
X57006866Y-122632684D01*
X57074210Y-122700027D01*
X57124718Y-122716863D01*
X57158389Y-122716863D01*
X57208897Y-122700027D01*
X57293076Y-122615848D01*
X57309912Y-122565340D01*
X57309912Y-122531668D01*
X57293076Y-122481161D01*
X57225733Y-122413817D01*
X57175225Y-122396981D01*
X57141553Y-122396981D01*
X57091046Y-122413817D01*
X60247594Y-117858091D02*
X60223785Y-117881900D01*
X60152356Y-117905710D01*
X60104737Y-117905710D01*
X60033308Y-117881900D01*
X59985689Y-117834281D01*
X59961880Y-117786662D01*
X59938070Y-117691424D01*
X59938070Y-117619996D01*
X59961880Y-117524758D01*
X59985689Y-117477139D01*
X60033308Y-117429520D01*
X60104737Y-117405710D01*
X60152356Y-117405710D01*
X60223785Y-117429520D01*
X60247594Y-117453329D01*
X60438070Y-117453329D02*
X60461880Y-117429520D01*
X60509499Y-117405710D01*
X60628547Y-117405710D01*
X60676166Y-117429520D01*
X60699975Y-117453329D01*
X60723785Y-117500948D01*
X60723785Y-117548567D01*
X60699975Y-117619996D01*
X60414261Y-117905710D01*
X60723785Y-117905710D01*
X77056394Y-120295010D02*
X76889728Y-120056915D01*
X76770680Y-120295010D02*
X76770680Y-119795010D01*
X76961156Y-119795010D01*
X77008775Y-119818820D01*
X77032585Y-119842629D01*
X77056394Y-119890248D01*
X77056394Y-119961677D01*
X77032585Y-120009296D01*
X77008775Y-120033105D01*
X76961156Y-120056915D01*
X76770680Y-120056915D01*
X77484966Y-119961677D02*
X77484966Y-120295010D01*
X77365918Y-119771200D02*
X77246870Y-120128343D01*
X77556394Y-120128343D01*
X81793999Y-101164010D02*
X81627332Y-100925915D01*
X81508285Y-101164010D02*
X81508285Y-100664010D01*
X81698761Y-100664010D01*
X81746380Y-100687820D01*
X81770189Y-100711629D01*
X81793999Y-100759248D01*
X81793999Y-100830677D01*
X81770189Y-100878296D01*
X81746380Y-100902105D01*
X81698761Y-100925915D01*
X81508285Y-100925915D01*
X82270189Y-101164010D02*
X81984475Y-101164010D01*
X82127332Y-101164010D02*
X82127332Y-100664010D01*
X82079713Y-100735439D01*
X82032094Y-100783058D01*
X81984475Y-100806867D01*
X82746380Y-101164010D02*
X82460666Y-101164010D01*
X82603523Y-101164010D02*
X82603523Y-100664010D01*
X82555904Y-100735439D01*
X82508285Y-100783058D01*
X82460666Y-100806867D01*
X76577594Y-104115710D02*
X76410928Y-103877615D01*
X76291880Y-104115710D02*
X76291880Y-103615710D01*
X76482356Y-103615710D01*
X76529975Y-103639520D01*
X76553785Y-103663329D01*
X76577594Y-103710948D01*
X76577594Y-103782377D01*
X76553785Y-103829996D01*
X76529975Y-103853805D01*
X76482356Y-103877615D01*
X76291880Y-103877615D01*
X77006166Y-103615710D02*
X76910928Y-103615710D01*
X76863308Y-103639520D01*
X76839499Y-103663329D01*
X76791880Y-103734758D01*
X76768070Y-103829996D01*
X76768070Y-104020472D01*
X76791880Y-104068091D01*
X76815689Y-104091900D01*
X76863308Y-104115710D01*
X76958547Y-104115710D01*
X77006166Y-104091900D01*
X77029975Y-104068091D01*
X77053785Y-104020472D01*
X77053785Y-103901424D01*
X77029975Y-103853805D01*
X77006166Y-103829996D01*
X76958547Y-103806186D01*
X76863308Y-103806186D01*
X76815689Y-103829996D01*
X76791880Y-103853805D01*
X76768070Y-103901424D01*
X79647134Y-101158930D02*
X79480468Y-100920835D01*
X79361420Y-101158930D02*
X79361420Y-100658930D01*
X79551896Y-100658930D01*
X79599515Y-100682740D01*
X79623325Y-100706549D01*
X79647134Y-100754168D01*
X79647134Y-100825597D01*
X79623325Y-100873216D01*
X79599515Y-100897025D01*
X79551896Y-100920835D01*
X79361420Y-100920835D01*
X79813801Y-100658930D02*
X80147134Y-100658930D01*
X79932848Y-101158930D01*
X68518855Y-96765110D02*
X68518855Y-97169872D01*
X68542665Y-97217491D01*
X68566474Y-97241300D01*
X68614093Y-97265110D01*
X68709331Y-97265110D01*
X68756950Y-97241300D01*
X68780760Y-97217491D01*
X68804569Y-97169872D01*
X68804569Y-96765110D01*
X69304569Y-97265110D02*
X69018855Y-97265110D01*
X69161712Y-97265110D02*
X69161712Y-96765110D01*
X69114093Y-96836539D01*
X69066474Y-96884158D01*
X69018855Y-96907967D01*
X80887594Y-104618091D02*
X80863785Y-104641900D01*
X80792356Y-104665710D01*
X80744737Y-104665710D01*
X80673308Y-104641900D01*
X80625689Y-104594281D01*
X80601880Y-104546662D01*
X80578070Y-104451424D01*
X80578070Y-104379996D01*
X80601880Y-104284758D01*
X80625689Y-104237139D01*
X80673308Y-104189520D01*
X80744737Y-104165710D01*
X80792356Y-104165710D01*
X80863785Y-104189520D01*
X80887594Y-104213329D01*
X81173308Y-104379996D02*
X81125689Y-104356186D01*
X81101880Y-104332377D01*
X81078070Y-104284758D01*
X81078070Y-104260948D01*
X81101880Y-104213329D01*
X81125689Y-104189520D01*
X81173308Y-104165710D01*
X81268547Y-104165710D01*
X81316166Y-104189520D01*
X81339975Y-104213329D01*
X81363785Y-104260948D01*
X81363785Y-104284758D01*
X81339975Y-104332377D01*
X81316166Y-104356186D01*
X81268547Y-104379996D01*
X81173308Y-104379996D01*
X81125689Y-104403805D01*
X81101880Y-104427615D01*
X81078070Y-104475234D01*
X81078070Y-104570472D01*
X81101880Y-104618091D01*
X81125689Y-104641900D01*
X81173308Y-104665710D01*
X81268547Y-104665710D01*
X81316166Y-104641900D01*
X81339975Y-104618091D01*
X81363785Y-104570472D01*
X81363785Y-104475234D01*
X81339975Y-104427615D01*
X81316166Y-104403805D01*
X81268547Y-104379996D01*
X81003394Y-122507291D02*
X80979585Y-122531100D01*
X80908156Y-122554910D01*
X80860537Y-122554910D01*
X80789108Y-122531100D01*
X80741489Y-122483481D01*
X80717680Y-122435862D01*
X80693870Y-122340624D01*
X80693870Y-122269196D01*
X80717680Y-122173958D01*
X80741489Y-122126339D01*
X80789108Y-122078720D01*
X80860537Y-122054910D01*
X80908156Y-122054910D01*
X80979585Y-122078720D01*
X81003394Y-122102529D01*
X81241489Y-122554910D02*
X81336728Y-122554910D01*
X81384347Y-122531100D01*
X81408156Y-122507291D01*
X81455775Y-122435862D01*
X81479585Y-122340624D01*
X81479585Y-122150148D01*
X81455775Y-122102529D01*
X81431966Y-122078720D01*
X81384347Y-122054910D01*
X81289108Y-122054910D01*
X81241489Y-122078720D01*
X81217680Y-122102529D01*
X81193870Y-122150148D01*
X81193870Y-122269196D01*
X81217680Y-122316815D01*
X81241489Y-122340624D01*
X81289108Y-122364434D01*
X81384347Y-122364434D01*
X81431966Y-122340624D01*
X81455775Y-122316815D01*
X81479585Y-122269196D01*
X63399499Y-97130948D02*
X63423308Y-97154758D01*
X63447118Y-97226186D01*
X63447118Y-97273805D01*
X63423308Y-97345234D01*
X63375689Y-97392853D01*
X63328070Y-97416662D01*
X63232832Y-97440472D01*
X63161404Y-97440472D01*
X63066166Y-97416662D01*
X63018547Y-97392853D01*
X62970928Y-97345234D01*
X62947118Y-97273805D01*
X62947118Y-97226186D01*
X62970928Y-97154758D01*
X62994737Y-97130948D01*
X63447118Y-96654758D02*
X63447118Y-96940472D01*
X63447118Y-96797615D02*
X62947118Y-96797615D01*
X63018547Y-96845234D01*
X63066166Y-96892853D01*
X63089975Y-96940472D01*
X63447118Y-96178567D02*
X63447118Y-96464281D01*
X63447118Y-96321424D02*
X62947118Y-96321424D01*
X63018547Y-96369043D01*
X63066166Y-96416662D01*
X63089975Y-96464281D01*
X73259499Y-99968091D02*
X73235689Y-99991900D01*
X73164261Y-100015710D01*
X73116642Y-100015710D01*
X73045213Y-99991900D01*
X72997594Y-99944281D01*
X72973785Y-99896662D01*
X72949975Y-99801424D01*
X72949975Y-99729996D01*
X72973785Y-99634758D01*
X72997594Y-99587139D01*
X73045213Y-99539520D01*
X73116642Y-99515710D01*
X73164261Y-99515710D01*
X73235689Y-99539520D01*
X73259499Y-99563329D01*
X73735689Y-100015710D02*
X73449975Y-100015710D01*
X73592832Y-100015710D02*
X73592832Y-99515710D01*
X73545213Y-99587139D01*
X73497594Y-99634758D01*
X73449975Y-99658567D01*
X73902356Y-99515710D02*
X74211880Y-99515710D01*
X74045213Y-99706186D01*
X74116642Y-99706186D01*
X74164261Y-99729996D01*
X74188070Y-99753805D01*
X74211880Y-99801424D01*
X74211880Y-99920472D01*
X74188070Y-99968091D01*
X74164261Y-99991900D01*
X74116642Y-100015710D01*
X73973785Y-100015710D01*
X73926166Y-99991900D01*
X73902356Y-99968091D01*
X62904999Y-112376310D02*
X62738332Y-112138215D01*
X62619285Y-112376310D02*
X62619285Y-111876310D01*
X62809761Y-111876310D01*
X62857380Y-111900120D01*
X62881189Y-111923929D01*
X62904999Y-111971548D01*
X62904999Y-112042977D01*
X62881189Y-112090596D01*
X62857380Y-112114405D01*
X62809761Y-112138215D01*
X62619285Y-112138215D01*
X63381189Y-112376310D02*
X63095475Y-112376310D01*
X63238332Y-112376310D02*
X63238332Y-111876310D01*
X63190713Y-111947739D01*
X63143094Y-111995358D01*
X63095475Y-112019167D01*
X63619285Y-112376310D02*
X63714523Y-112376310D01*
X63762142Y-112352500D01*
X63785951Y-112328691D01*
X63833570Y-112257262D01*
X63857380Y-112162024D01*
X63857380Y-111971548D01*
X63833570Y-111923929D01*
X63809761Y-111900120D01*
X63762142Y-111876310D01*
X63666904Y-111876310D01*
X63619285Y-111900120D01*
X63595475Y-111923929D01*
X63571666Y-111971548D01*
X63571666Y-112090596D01*
X63595475Y-112138215D01*
X63619285Y-112162024D01*
X63666904Y-112185834D01*
X63762142Y-112185834D01*
X63809761Y-112162024D01*
X63833570Y-112138215D01*
X63857380Y-112090596D01*
X61081816Y-99305778D02*
X61140114Y-99290631D01*
X61219988Y-99238760D01*
X61241563Y-99202038D01*
X61247164Y-99175689D01*
X61242390Y-99133365D01*
X61221642Y-99101416D01*
X61184919Y-99079841D01*
X61158570Y-99074240D01*
X61116247Y-99079014D01*
X61041974Y-99104535D01*
X60999651Y-99109309D01*
X60973302Y-99103708D01*
X60936579Y-99082133D01*
X60915831Y-99050184D01*
X60911057Y-99007860D01*
X60916658Y-98981511D01*
X60938233Y-98944789D01*
X61018107Y-98892918D01*
X61076405Y-98877771D01*
X61177854Y-98789177D02*
X61475583Y-99072775D01*
X61383870Y-98791659D01*
X61603380Y-98989783D01*
X61465398Y-98602444D01*
X61986772Y-98740805D02*
X61795076Y-98865294D01*
X61890924Y-98803049D02*
X61673069Y-98467581D01*
X61672241Y-98536253D01*
X61661040Y-98588951D01*
X61639465Y-98625674D01*
X65369975Y-121045710D02*
X65369975Y-121450472D01*
X65393785Y-121498091D01*
X65417594Y-121521900D01*
X65465213Y-121545710D01*
X65560451Y-121545710D01*
X65608070Y-121521900D01*
X65631880Y-121498091D01*
X65655689Y-121450472D01*
X65655689Y-121045710D01*
X66108070Y-121045710D02*
X66012832Y-121045710D01*
X65965213Y-121069520D01*
X65941404Y-121093329D01*
X65893785Y-121164758D01*
X65869975Y-121259996D01*
X65869975Y-121450472D01*
X65893785Y-121498091D01*
X65917594Y-121521900D01*
X65965213Y-121545710D01*
X66060451Y-121545710D01*
X66108070Y-121521900D01*
X66131880Y-121498091D01*
X66155689Y-121450472D01*
X66155689Y-121331424D01*
X66131880Y-121283805D01*
X66108070Y-121259996D01*
X66060451Y-121236186D01*
X65965213Y-121236186D01*
X65917594Y-121259996D01*
X65893785Y-121283805D01*
X65869975Y-121331424D01*
X58370715Y-112147550D02*
X58370715Y-112552312D01*
X58394525Y-112599931D01*
X58418334Y-112623740D01*
X58465953Y-112647550D01*
X58561191Y-112647550D01*
X58608810Y-112623740D01*
X58632620Y-112599931D01*
X58656429Y-112552312D01*
X58656429Y-112147550D01*
X58918334Y-112647550D02*
X59013572Y-112647550D01*
X59061191Y-112623740D01*
X59085001Y-112599931D01*
X59132620Y-112528502D01*
X59156429Y-112433264D01*
X59156429Y-112242788D01*
X59132620Y-112195169D01*
X59108810Y-112171360D01*
X59061191Y-112147550D01*
X58965953Y-112147550D01*
X58918334Y-112171360D01*
X58894525Y-112195169D01*
X58870715Y-112242788D01*
X58870715Y-112361836D01*
X58894525Y-112409455D01*
X58918334Y-112433264D01*
X58965953Y-112457074D01*
X59061191Y-112457074D01*
X59108810Y-112433264D01*
X59132620Y-112409455D01*
X59156429Y-112361836D01*
X74699975Y-100385710D02*
X74699975Y-100790472D01*
X74723785Y-100838091D01*
X74747594Y-100861900D01*
X74795213Y-100885710D01*
X74890451Y-100885710D01*
X74938070Y-100861900D01*
X74961880Y-100838091D01*
X74985689Y-100790472D01*
X74985689Y-100385710D01*
X75199975Y-100433329D02*
X75223785Y-100409520D01*
X75271404Y-100385710D01*
X75390451Y-100385710D01*
X75438070Y-100409520D01*
X75461880Y-100433329D01*
X75485689Y-100480948D01*
X75485689Y-100528567D01*
X75461880Y-100599996D01*
X75176166Y-100885710D01*
X75485689Y-100885710D01*
X66838894Y-116994591D02*
X66815085Y-117018400D01*
X66743656Y-117042210D01*
X66696037Y-117042210D01*
X66624608Y-117018400D01*
X66576989Y-116970781D01*
X66553180Y-116923162D01*
X66529370Y-116827924D01*
X66529370Y-116756496D01*
X66553180Y-116661258D01*
X66576989Y-116613639D01*
X66624608Y-116566020D01*
X66696037Y-116542210D01*
X66743656Y-116542210D01*
X66815085Y-116566020D01*
X66838894Y-116589829D01*
X67005561Y-116542210D02*
X67315085Y-116542210D01*
X67148418Y-116732686D01*
X67219847Y-116732686D01*
X67267466Y-116756496D01*
X67291275Y-116780305D01*
X67315085Y-116827924D01*
X67315085Y-116946972D01*
X67291275Y-116994591D01*
X67267466Y-117018400D01*
X67219847Y-117042210D01*
X67076989Y-117042210D01*
X67029370Y-117018400D01*
X67005561Y-116994591D01*
X54737118Y-118830948D02*
X54499023Y-118997615D01*
X54737118Y-119116662D02*
X54237118Y-119116662D01*
X54237118Y-118926186D01*
X54260928Y-118878567D01*
X54284737Y-118854758D01*
X54332356Y-118830948D01*
X54403785Y-118830948D01*
X54451404Y-118854758D01*
X54475213Y-118878567D01*
X54499023Y-118926186D01*
X54499023Y-119116662D01*
X54737118Y-118354758D02*
X54737118Y-118640472D01*
X54737118Y-118497615D02*
X54237118Y-118497615D01*
X54308547Y-118545234D01*
X54356166Y-118592853D01*
X54379975Y-118640472D01*
X54237118Y-118188091D02*
X54237118Y-117878567D01*
X54427594Y-118045234D01*
X54427594Y-117973805D01*
X54451404Y-117926186D01*
X54475213Y-117902377D01*
X54522832Y-117878567D01*
X54641880Y-117878567D01*
X54689499Y-117902377D01*
X54713308Y-117926186D01*
X54737118Y-117973805D01*
X54737118Y-118116662D01*
X54713308Y-118164281D01*
X54689499Y-118188091D01*
X84191094Y-120341010D02*
X84024428Y-120102915D01*
X83905380Y-120341010D02*
X83905380Y-119841010D01*
X84095856Y-119841010D01*
X84143475Y-119864820D01*
X84167285Y-119888629D01*
X84191094Y-119936248D01*
X84191094Y-120007677D01*
X84167285Y-120055296D01*
X84143475Y-120079105D01*
X84095856Y-120102915D01*
X83905380Y-120102915D01*
X84476808Y-120055296D02*
X84429189Y-120031486D01*
X84405380Y-120007677D01*
X84381570Y-119960058D01*
X84381570Y-119936248D01*
X84405380Y-119888629D01*
X84429189Y-119864820D01*
X84476808Y-119841010D01*
X84572047Y-119841010D01*
X84619666Y-119864820D01*
X84643475Y-119888629D01*
X84667285Y-119936248D01*
X84667285Y-119960058D01*
X84643475Y-120007677D01*
X84619666Y-120031486D01*
X84572047Y-120055296D01*
X84476808Y-120055296D01*
X84429189Y-120079105D01*
X84405380Y-120102915D01*
X84381570Y-120150534D01*
X84381570Y-120245772D01*
X84405380Y-120293391D01*
X84429189Y-120317200D01*
X84476808Y-120341010D01*
X84572047Y-120341010D01*
X84619666Y-120317200D01*
X84643475Y-120293391D01*
X84667285Y-120245772D01*
X84667285Y-120150534D01*
X84643475Y-120102915D01*
X84619666Y-120079105D01*
X84572047Y-120055296D01*
X63025194Y-109383491D02*
X63001385Y-109407300D01*
X62929956Y-109431110D01*
X62882337Y-109431110D01*
X62810908Y-109407300D01*
X62763289Y-109359681D01*
X62739480Y-109312062D01*
X62715670Y-109216824D01*
X62715670Y-109145396D01*
X62739480Y-109050158D01*
X62763289Y-109002539D01*
X62810908Y-108954920D01*
X62882337Y-108931110D01*
X62929956Y-108931110D01*
X63001385Y-108954920D01*
X63025194Y-108978729D01*
X63477575Y-108931110D02*
X63239480Y-108931110D01*
X63215670Y-109169205D01*
X63239480Y-109145396D01*
X63287099Y-109121586D01*
X63406147Y-109121586D01*
X63453766Y-109145396D01*
X63477575Y-109169205D01*
X63501385Y-109216824D01*
X63501385Y-109335872D01*
X63477575Y-109383491D01*
X63453766Y-109407300D01*
X63406147Y-109431110D01*
X63287099Y-109431110D01*
X63239480Y-109407300D01*
X63215670Y-109383491D01*
X63949499Y-106208091D02*
X63925689Y-106231900D01*
X63854261Y-106255710D01*
X63806642Y-106255710D01*
X63735213Y-106231900D01*
X63687594Y-106184281D01*
X63663785Y-106136662D01*
X63639975Y-106041424D01*
X63639975Y-105969996D01*
X63663785Y-105874758D01*
X63687594Y-105827139D01*
X63735213Y-105779520D01*
X63806642Y-105755710D01*
X63854261Y-105755710D01*
X63925689Y-105779520D01*
X63949499Y-105803329D01*
X64425689Y-106255710D02*
X64139975Y-106255710D01*
X64282832Y-106255710D02*
X64282832Y-105755710D01*
X64235213Y-105827139D01*
X64187594Y-105874758D01*
X64139975Y-105898567D01*
X64854261Y-105922377D02*
X64854261Y-106255710D01*
X64735213Y-105731900D02*
X64616166Y-106089043D01*
X64925689Y-106089043D01*
X71009499Y-102540948D02*
X71033308Y-102564758D01*
X71057118Y-102636186D01*
X71057118Y-102683805D01*
X71033308Y-102755234D01*
X70985689Y-102802853D01*
X70938070Y-102826662D01*
X70842832Y-102850472D01*
X70771404Y-102850472D01*
X70676166Y-102826662D01*
X70628547Y-102802853D01*
X70580928Y-102755234D01*
X70557118Y-102683805D01*
X70557118Y-102636186D01*
X70580928Y-102564758D01*
X70604737Y-102540948D01*
X71057118Y-102064758D02*
X71057118Y-102350472D01*
X71057118Y-102207615D02*
X70557118Y-102207615D01*
X70628547Y-102255234D01*
X70676166Y-102302853D01*
X70699975Y-102350472D01*
X70557118Y-101636186D02*
X70557118Y-101731424D01*
X70580928Y-101779043D01*
X70604737Y-101802853D01*
X70676166Y-101850472D01*
X70771404Y-101874281D01*
X70961880Y-101874281D01*
X71009499Y-101850472D01*
X71033308Y-101826662D01*
X71057118Y-101779043D01*
X71057118Y-101683805D01*
X71033308Y-101636186D01*
X71009499Y-101612377D01*
X70961880Y-101588567D01*
X70842832Y-101588567D01*
X70795213Y-101612377D01*
X70771404Y-101636186D01*
X70747594Y-101683805D01*
X70747594Y-101779043D01*
X70771404Y-101826662D01*
X70795213Y-101850472D01*
X70842832Y-101874281D01*
X67209499Y-100910948D02*
X67233308Y-100934758D01*
X67257118Y-101006186D01*
X67257118Y-101053805D01*
X67233308Y-101125234D01*
X67185689Y-101172853D01*
X67138070Y-101196662D01*
X67042832Y-101220472D01*
X66971404Y-101220472D01*
X66876166Y-101196662D01*
X66828547Y-101172853D01*
X66780928Y-101125234D01*
X66757118Y-101053805D01*
X66757118Y-101006186D01*
X66780928Y-100934758D01*
X66804737Y-100910948D01*
X67257118Y-100434758D02*
X67257118Y-100720472D01*
X67257118Y-100577615D02*
X66757118Y-100577615D01*
X66828547Y-100625234D01*
X66876166Y-100672853D01*
X66899975Y-100720472D01*
X66971404Y-100149043D02*
X66947594Y-100196662D01*
X66923785Y-100220472D01*
X66876166Y-100244281D01*
X66852356Y-100244281D01*
X66804737Y-100220472D01*
X66780928Y-100196662D01*
X66757118Y-100149043D01*
X66757118Y-100053805D01*
X66780928Y-100006186D01*
X66804737Y-99982377D01*
X66852356Y-99958567D01*
X66876166Y-99958567D01*
X66923785Y-99982377D01*
X66947594Y-100006186D01*
X66971404Y-100053805D01*
X66971404Y-100149043D01*
X66995213Y-100196662D01*
X67019023Y-100220472D01*
X67066642Y-100244281D01*
X67161880Y-100244281D01*
X67209499Y-100220472D01*
X67233308Y-100196662D01*
X67257118Y-100149043D01*
X67257118Y-100053805D01*
X67233308Y-100006186D01*
X67209499Y-99982377D01*
X67161880Y-99958567D01*
X67066642Y-99958567D01*
X67019023Y-99982377D01*
X66995213Y-100006186D01*
X66971404Y-100053805D01*
X65191880Y-100725710D02*
X65191880Y-101130472D01*
X65215689Y-101178091D01*
X65239499Y-101201900D01*
X65287118Y-101225710D01*
X65382356Y-101225710D01*
X65429975Y-101201900D01*
X65453785Y-101178091D01*
X65477594Y-101130472D01*
X65477594Y-100725710D01*
X65977594Y-101225710D02*
X65691880Y-101225710D01*
X65834737Y-101225710D02*
X65834737Y-100725710D01*
X65787118Y-100797139D01*
X65739499Y-100844758D01*
X65691880Y-100868567D01*
X66287118Y-100725710D02*
X66334737Y-100725710D01*
X66382356Y-100749520D01*
X66406166Y-100773329D01*
X66429975Y-100820948D01*
X66453785Y-100916186D01*
X66453785Y-101035234D01*
X66429975Y-101130472D01*
X66406166Y-101178091D01*
X66382356Y-101201900D01*
X66334737Y-101225710D01*
X66287118Y-101225710D01*
X66239499Y-101201900D01*
X66215689Y-101178091D01*
X66191880Y-101130472D01*
X66168070Y-101035234D01*
X66168070Y-100916186D01*
X66191880Y-100820948D01*
X66215689Y-100773329D01*
X66239499Y-100749520D01*
X66287118Y-100725710D01*
X76259975Y-111775710D02*
X76259975Y-112180472D01*
X76283785Y-112228091D01*
X76307594Y-112251900D01*
X76355213Y-112275710D01*
X76450451Y-112275710D01*
X76498070Y-112251900D01*
X76521880Y-112228091D01*
X76545689Y-112180472D01*
X76545689Y-111775710D01*
X76736166Y-111775710D02*
X77069499Y-111775710D01*
X76855213Y-112275710D01*
X62569499Y-95855710D02*
X62402832Y-95617615D01*
X62283785Y-95855710D02*
X62283785Y-95355710D01*
X62474261Y-95355710D01*
X62521880Y-95379520D01*
X62545689Y-95403329D01*
X62569499Y-95450948D01*
X62569499Y-95522377D01*
X62545689Y-95569996D01*
X62521880Y-95593805D01*
X62474261Y-95617615D01*
X62283785Y-95617615D01*
X63045689Y-95855710D02*
X62759975Y-95855710D01*
X62902832Y-95855710D02*
X62902832Y-95355710D01*
X62855213Y-95427139D01*
X62807594Y-95474758D01*
X62759975Y-95498567D01*
X63331404Y-95569996D02*
X63283785Y-95546186D01*
X63259975Y-95522377D01*
X63236166Y-95474758D01*
X63236166Y-95450948D01*
X63259975Y-95403329D01*
X63283785Y-95379520D01*
X63331404Y-95355710D01*
X63426642Y-95355710D01*
X63474261Y-95379520D01*
X63498070Y-95403329D01*
X63521880Y-95450948D01*
X63521880Y-95474758D01*
X63498070Y-95522377D01*
X63474261Y-95546186D01*
X63426642Y-95569996D01*
X63331404Y-95569996D01*
X63283785Y-95593805D01*
X63259975Y-95617615D01*
X63236166Y-95665234D01*
X63236166Y-95760472D01*
X63259975Y-95808091D01*
X63283785Y-95831900D01*
X63331404Y-95855710D01*
X63426642Y-95855710D01*
X63474261Y-95831900D01*
X63498070Y-95808091D01*
X63521880Y-95760472D01*
X63521880Y-95665234D01*
X63498070Y-95617615D01*
X63474261Y-95593805D01*
X63426642Y-95569996D01*
X56867594Y-108005710D02*
X56700928Y-107767615D01*
X56581880Y-108005710D02*
X56581880Y-107505710D01*
X56772356Y-107505710D01*
X56819975Y-107529520D01*
X56843785Y-107553329D01*
X56867594Y-107600948D01*
X56867594Y-107672377D01*
X56843785Y-107719996D01*
X56819975Y-107743805D01*
X56772356Y-107767615D01*
X56581880Y-107767615D01*
X57343785Y-108005710D02*
X57058070Y-108005710D01*
X57200928Y-108005710D02*
X57200928Y-107505710D01*
X57153308Y-107577139D01*
X57105689Y-107624758D01*
X57058070Y-107648567D01*
X54267118Y-104500948D02*
X54029023Y-104667615D01*
X54267118Y-104786662D02*
X53767118Y-104786662D01*
X53767118Y-104596186D01*
X53790928Y-104548567D01*
X53814737Y-104524758D01*
X53862356Y-104500948D01*
X53933785Y-104500948D01*
X53981404Y-104524758D01*
X54005213Y-104548567D01*
X54029023Y-104596186D01*
X54029023Y-104786662D01*
X53814737Y-104310472D02*
X53790928Y-104286662D01*
X53767118Y-104239043D01*
X53767118Y-104119996D01*
X53790928Y-104072377D01*
X53814737Y-104048567D01*
X53862356Y-104024758D01*
X53909975Y-104024758D01*
X53981404Y-104048567D01*
X54267118Y-104334281D01*
X54267118Y-104024758D01*
X54267118Y-103548567D02*
X54267118Y-103834281D01*
X54267118Y-103691424D02*
X53767118Y-103691424D01*
X53838547Y-103739043D01*
X53886166Y-103786662D01*
X53909975Y-103834281D01*
X52533499Y-107505210D02*
X52366832Y-107267115D01*
X52247785Y-107505210D02*
X52247785Y-107005210D01*
X52438261Y-107005210D01*
X52485880Y-107029020D01*
X52509689Y-107052829D01*
X52533499Y-107100448D01*
X52533499Y-107171877D01*
X52509689Y-107219496D01*
X52485880Y-107243305D01*
X52438261Y-107267115D01*
X52247785Y-107267115D01*
X52723975Y-107052829D02*
X52747785Y-107029020D01*
X52795404Y-107005210D01*
X52914451Y-107005210D01*
X52962070Y-107029020D01*
X52985880Y-107052829D01*
X53009689Y-107100448D01*
X53009689Y-107148067D01*
X52985880Y-107219496D01*
X52700166Y-107505210D01*
X53009689Y-107505210D01*
X53200166Y-107052829D02*
X53223975Y-107029020D01*
X53271594Y-107005210D01*
X53390642Y-107005210D01*
X53438261Y-107029020D01*
X53462070Y-107052829D01*
X53485880Y-107100448D01*
X53485880Y-107148067D01*
X53462070Y-107219496D01*
X53176356Y-107505210D01*
X53485880Y-107505210D01*
X55803699Y-108444748D02*
X55827508Y-108468558D01*
X55851318Y-108539986D01*
X55851318Y-108587605D01*
X55827508Y-108659034D01*
X55779889Y-108706653D01*
X55732270Y-108730462D01*
X55637032Y-108754272D01*
X55565604Y-108754272D01*
X55470366Y-108730462D01*
X55422747Y-108706653D01*
X55375128Y-108659034D01*
X55351318Y-108587605D01*
X55351318Y-108539986D01*
X55375128Y-108468558D01*
X55398937Y-108444748D01*
X55398937Y-108254272D02*
X55375128Y-108230462D01*
X55351318Y-108182843D01*
X55351318Y-108063796D01*
X55375128Y-108016177D01*
X55398937Y-107992367D01*
X55446556Y-107968558D01*
X55494175Y-107968558D01*
X55565604Y-107992367D01*
X55851318Y-108278081D01*
X55851318Y-107968558D01*
X55398937Y-107778081D02*
X55375128Y-107754272D01*
X55351318Y-107706653D01*
X55351318Y-107587605D01*
X55375128Y-107539986D01*
X55398937Y-107516177D01*
X55446556Y-107492367D01*
X55494175Y-107492367D01*
X55565604Y-107516177D01*
X55851318Y-107801891D01*
X55851318Y-107492367D01*
X59173308Y-103653329D02*
X59125689Y-103629520D01*
X59078070Y-103581900D01*
X59006642Y-103510472D01*
X58959023Y-103486662D01*
X58911404Y-103486662D01*
X58935213Y-103605710D02*
X58887594Y-103581900D01*
X58839975Y-103534281D01*
X58816166Y-103439043D01*
X58816166Y-103272377D01*
X58839975Y-103177139D01*
X58887594Y-103129520D01*
X58935213Y-103105710D01*
X59030451Y-103105710D01*
X59078070Y-103129520D01*
X59125689Y-103177139D01*
X59149499Y-103272377D01*
X59149499Y-103439043D01*
X59125689Y-103534281D01*
X59078070Y-103581900D01*
X59030451Y-103605710D01*
X58935213Y-103605710D01*
X59625689Y-103605710D02*
X59339975Y-103605710D01*
X59482832Y-103605710D02*
X59482832Y-103105710D01*
X59435213Y-103177139D01*
X59387594Y-103224758D01*
X59339975Y-103248567D01*
X56529499Y-117685710D02*
X56362832Y-117447615D01*
X56243785Y-117685710D02*
X56243785Y-117185710D01*
X56434261Y-117185710D01*
X56481880Y-117209520D01*
X56505689Y-117233329D01*
X56529499Y-117280948D01*
X56529499Y-117352377D01*
X56505689Y-117399996D01*
X56481880Y-117423805D01*
X56434261Y-117447615D01*
X56243785Y-117447615D01*
X57005689Y-117685710D02*
X56719975Y-117685710D01*
X56862832Y-117685710D02*
X56862832Y-117185710D01*
X56815213Y-117257139D01*
X56767594Y-117304758D01*
X56719975Y-117328567D01*
X57458070Y-117185710D02*
X57219975Y-117185710D01*
X57196166Y-117423805D01*
X57219975Y-117399996D01*
X57267594Y-117376186D01*
X57386642Y-117376186D01*
X57434261Y-117399996D01*
X57458070Y-117423805D01*
X57481880Y-117471424D01*
X57481880Y-117590472D01*
X57458070Y-117638091D01*
X57434261Y-117661900D01*
X57386642Y-117685710D01*
X57267594Y-117685710D01*
X57219975Y-117661900D01*
X57196166Y-117638091D01*
X57727118Y-111550948D02*
X57489023Y-111717615D01*
X57727118Y-111836662D02*
X57227118Y-111836662D01*
X57227118Y-111646186D01*
X57250928Y-111598567D01*
X57274737Y-111574758D01*
X57322356Y-111550948D01*
X57393785Y-111550948D01*
X57441404Y-111574758D01*
X57465213Y-111598567D01*
X57489023Y-111646186D01*
X57489023Y-111836662D01*
X57727118Y-111074758D02*
X57727118Y-111360472D01*
X57727118Y-111217615D02*
X57227118Y-111217615D01*
X57298547Y-111265234D01*
X57346166Y-111312853D01*
X57369975Y-111360472D01*
X57393785Y-110646186D02*
X57727118Y-110646186D01*
X57203308Y-110765234D02*
X57560451Y-110884281D01*
X57560451Y-110574758D01*
X55609499Y-111352853D02*
X55633308Y-111376662D01*
X55657118Y-111448091D01*
X55657118Y-111495710D01*
X55633308Y-111567139D01*
X55585689Y-111614758D01*
X55538070Y-111638567D01*
X55442832Y-111662377D01*
X55371404Y-111662377D01*
X55276166Y-111638567D01*
X55228547Y-111614758D01*
X55180928Y-111567139D01*
X55157118Y-111495710D01*
X55157118Y-111448091D01*
X55180928Y-111376662D01*
X55204737Y-111352853D01*
X55323785Y-110924281D02*
X55657118Y-110924281D01*
X55133308Y-111043329D02*
X55490451Y-111162377D01*
X55490451Y-110852853D01*
X55187528Y-120014790D02*
X55064665Y-120278175D01*
X55330386Y-120262225D02*
X54897373Y-120512225D01*
X54802135Y-120347268D01*
X54798945Y-120294124D01*
X54807660Y-120261600D01*
X54836994Y-120217171D01*
X54898853Y-120181456D01*
X54951997Y-120178266D01*
X54984522Y-120186981D01*
X55028951Y-120216316D01*
X55124189Y-120381273D01*
X54949433Y-119602397D02*
X55092290Y-119849832D01*
X55020862Y-119726114D02*
X54587849Y-119976114D01*
X54673518Y-119981639D01*
X54738566Y-119999069D01*
X54782996Y-120028404D01*
X54433087Y-119708059D02*
X54266421Y-119419384D01*
X54806576Y-119354961D01*
X77577360Y-99423973D02*
X77539810Y-99376876D01*
X77459937Y-99325006D01*
X77417613Y-99320232D01*
X77391265Y-99325833D01*
X77354542Y-99347408D01*
X77333794Y-99379357D01*
X77329020Y-99421681D01*
X77334621Y-99448030D01*
X77356196Y-99484752D01*
X77409721Y-99542223D01*
X77431296Y-99578946D01*
X77436897Y-99605295D01*
X77432123Y-99647618D01*
X77411375Y-99679568D01*
X77374652Y-99701143D01*
X77348303Y-99706744D01*
X77305980Y-99701970D01*
X77226106Y-99650100D01*
X77188557Y-99603003D01*
X77066360Y-99546359D02*
X77204342Y-99159020D01*
X76984832Y-99357144D01*
X77076545Y-99076028D01*
X76778816Y-99359626D01*
X76687741Y-99255058D02*
X76661392Y-99260658D01*
X76619069Y-99255885D01*
X76539195Y-99204014D01*
X76517620Y-99167292D01*
X76512019Y-99140943D01*
X76516793Y-99098619D01*
X76537541Y-99066670D01*
X76584638Y-99029120D01*
X76900823Y-98961913D01*
X76693152Y-98827050D01*
X62249499Y-107490948D02*
X62273308Y-107514758D01*
X62297118Y-107586186D01*
X62297118Y-107633805D01*
X62273308Y-107705234D01*
X62225689Y-107752853D01*
X62178070Y-107776662D01*
X62082832Y-107800472D01*
X62011404Y-107800472D01*
X61916166Y-107776662D01*
X61868547Y-107752853D01*
X61820928Y-107705234D01*
X61797118Y-107633805D01*
X61797118Y-107586186D01*
X61820928Y-107514758D01*
X61844737Y-107490948D01*
X62297118Y-107014758D02*
X62297118Y-107300472D01*
X62297118Y-107157615D02*
X61797118Y-107157615D01*
X61868547Y-107205234D01*
X61916166Y-107252853D01*
X61939975Y-107300472D01*
X61797118Y-106562377D02*
X61797118Y-106800472D01*
X62035213Y-106824281D01*
X62011404Y-106800472D01*
X61987594Y-106752853D01*
X61987594Y-106633805D01*
X62011404Y-106586186D01*
X62035213Y-106562377D01*
X62082832Y-106538567D01*
X62201880Y-106538567D01*
X62249499Y-106562377D01*
X62273308Y-106586186D01*
X62297118Y-106633805D01*
X62297118Y-106752853D01*
X62273308Y-106800472D01*
X62249499Y-106824281D01*
X59469499Y-102008091D02*
X59445689Y-102031900D01*
X59374261Y-102055710D01*
X59326642Y-102055710D01*
X59255213Y-102031900D01*
X59207594Y-101984281D01*
X59183785Y-101936662D01*
X59159975Y-101841424D01*
X59159975Y-101769996D01*
X59183785Y-101674758D01*
X59207594Y-101627139D01*
X59255213Y-101579520D01*
X59326642Y-101555710D01*
X59374261Y-101555710D01*
X59445689Y-101579520D01*
X59469499Y-101603329D01*
X59945689Y-102055710D02*
X59659975Y-102055710D01*
X59802832Y-102055710D02*
X59802832Y-101555710D01*
X59755213Y-101627139D01*
X59707594Y-101674758D01*
X59659975Y-101698567D01*
X60112356Y-101555710D02*
X60445689Y-101555710D01*
X60231404Y-102055710D01*
X57925694Y-109373491D02*
X57901885Y-109397300D01*
X57830456Y-109421110D01*
X57782837Y-109421110D01*
X57711408Y-109397300D01*
X57663789Y-109349681D01*
X57639980Y-109302062D01*
X57616170Y-109206824D01*
X57616170Y-109135396D01*
X57639980Y-109040158D01*
X57663789Y-108992539D01*
X57711408Y-108944920D01*
X57782837Y-108921110D01*
X57830456Y-108921110D01*
X57901885Y-108944920D01*
X57925694Y-108968729D01*
X58354266Y-108921110D02*
X58259028Y-108921110D01*
X58211408Y-108944920D01*
X58187599Y-108968729D01*
X58139980Y-109040158D01*
X58116170Y-109135396D01*
X58116170Y-109325872D01*
X58139980Y-109373491D01*
X58163789Y-109397300D01*
X58211408Y-109421110D01*
X58306647Y-109421110D01*
X58354266Y-109397300D01*
X58378075Y-109373491D01*
X58401885Y-109325872D01*
X58401885Y-109206824D01*
X58378075Y-109159205D01*
X58354266Y-109135396D01*
X58306647Y-109111586D01*
X58211408Y-109111586D01*
X58163789Y-109135396D01*
X58139980Y-109159205D01*
X58116170Y-109206824D01*
X60569499Y-100420948D02*
X60593308Y-100444758D01*
X60617118Y-100516186D01*
X60617118Y-100563805D01*
X60593308Y-100635234D01*
X60545689Y-100682853D01*
X60498070Y-100706662D01*
X60402832Y-100730472D01*
X60331404Y-100730472D01*
X60236166Y-100706662D01*
X60188547Y-100682853D01*
X60140928Y-100635234D01*
X60117118Y-100563805D01*
X60117118Y-100516186D01*
X60140928Y-100444758D01*
X60164737Y-100420948D01*
X60617118Y-99944758D02*
X60617118Y-100230472D01*
X60617118Y-100087615D02*
X60117118Y-100087615D01*
X60188547Y-100135234D01*
X60236166Y-100182853D01*
X60259975Y-100230472D01*
X60617118Y-99706662D02*
X60617118Y-99611424D01*
X60593308Y-99563805D01*
X60569499Y-99539996D01*
X60498070Y-99492377D01*
X60402832Y-99468567D01*
X60212356Y-99468567D01*
X60164737Y-99492377D01*
X60140928Y-99516186D01*
X60117118Y-99563805D01*
X60117118Y-99659043D01*
X60140928Y-99706662D01*
X60164737Y-99730472D01*
X60212356Y-99754281D01*
X60331404Y-99754281D01*
X60379023Y-99730472D01*
X60402832Y-99706662D01*
X60426642Y-99659043D01*
X60426642Y-99563805D01*
X60402832Y-99516186D01*
X60379023Y-99492377D01*
X60331404Y-99468567D01*
X58991880Y-102385710D02*
X58991880Y-102790472D01*
X59015689Y-102838091D01*
X59039499Y-102861900D01*
X59087118Y-102885710D01*
X59182356Y-102885710D01*
X59229975Y-102861900D01*
X59253785Y-102838091D01*
X59277594Y-102790472D01*
X59277594Y-102385710D01*
X59777594Y-102885710D02*
X59491880Y-102885710D01*
X59634737Y-102885710D02*
X59634737Y-102385710D01*
X59587118Y-102457139D01*
X59539499Y-102504758D01*
X59491880Y-102528567D01*
X59944261Y-102385710D02*
X60253785Y-102385710D01*
X60087118Y-102576186D01*
X60158547Y-102576186D01*
X60206166Y-102599996D01*
X60229975Y-102623805D01*
X60253785Y-102671424D01*
X60253785Y-102790472D01*
X60229975Y-102838091D01*
X60206166Y-102861900D01*
X60158547Y-102885710D01*
X60015689Y-102885710D01*
X59968070Y-102861900D01*
X59944261Y-102838091D01*
X61109499Y-123822853D02*
X61133308Y-123846662D01*
X61157118Y-123918091D01*
X61157118Y-123965710D01*
X61133308Y-124037139D01*
X61085689Y-124084758D01*
X61038070Y-124108567D01*
X60942832Y-124132377D01*
X60871404Y-124132377D01*
X60776166Y-124108567D01*
X60728547Y-124084758D01*
X60680928Y-124037139D01*
X60657118Y-123965710D01*
X60657118Y-123918091D01*
X60680928Y-123846662D01*
X60704737Y-123822853D01*
X61157118Y-123346662D02*
X61157118Y-123632377D01*
X61157118Y-123489520D02*
X60657118Y-123489520D01*
X60728547Y-123537139D01*
X60776166Y-123584758D01*
X60799975Y-123632377D01*
X56231880Y-121505710D02*
X56231880Y-121910472D01*
X56255689Y-121958091D01*
X56279499Y-121981900D01*
X56327118Y-122005710D01*
X56422356Y-122005710D01*
X56469975Y-121981900D01*
X56493785Y-121958091D01*
X56517594Y-121910472D01*
X56517594Y-121505710D01*
X57017594Y-122005710D02*
X56731880Y-122005710D01*
X56874737Y-122005710D02*
X56874737Y-121505710D01*
X56827118Y-121577139D01*
X56779499Y-121624758D01*
X56731880Y-121648567D01*
X57493785Y-122005710D02*
X57208070Y-122005710D01*
X57350928Y-122005710D02*
X57350928Y-121505710D01*
X57303308Y-121577139D01*
X57255689Y-121624758D01*
X57208070Y-121648567D01*
X55571880Y-113795710D02*
X55571880Y-113295710D01*
X55690928Y-113295710D01*
X55762356Y-113319520D01*
X55809975Y-113367139D01*
X55833785Y-113414758D01*
X55857594Y-113509996D01*
X55857594Y-113581424D01*
X55833785Y-113676662D01*
X55809975Y-113724281D01*
X55762356Y-113771900D01*
X55690928Y-113795710D01*
X55571880Y-113795710D01*
X56333785Y-113795710D02*
X56048070Y-113795710D01*
X56190928Y-113795710D02*
X56190928Y-113295710D01*
X56143308Y-113367139D01*
X56095689Y-113414758D01*
X56048070Y-113438567D01*
X57663999Y-100986210D02*
X57497332Y-100748115D01*
X57378285Y-100986210D02*
X57378285Y-100486210D01*
X57568761Y-100486210D01*
X57616380Y-100510020D01*
X57640189Y-100533829D01*
X57663999Y-100581448D01*
X57663999Y-100652877D01*
X57640189Y-100700496D01*
X57616380Y-100724305D01*
X57568761Y-100748115D01*
X57378285Y-100748115D01*
X58140189Y-100986210D02*
X57854475Y-100986210D01*
X57997332Y-100986210D02*
X57997332Y-100486210D01*
X57949713Y-100557639D01*
X57902094Y-100605258D01*
X57854475Y-100629067D01*
X58449713Y-100486210D02*
X58497332Y-100486210D01*
X58544951Y-100510020D01*
X58568761Y-100533829D01*
X58592570Y-100581448D01*
X58616380Y-100676686D01*
X58616380Y-100795734D01*
X58592570Y-100890972D01*
X58568761Y-100938591D01*
X58544951Y-100962400D01*
X58497332Y-100986210D01*
X58449713Y-100986210D01*
X58402094Y-100962400D01*
X58378285Y-100938591D01*
X58354475Y-100890972D01*
X58330666Y-100795734D01*
X58330666Y-100676686D01*
X58354475Y-100581448D01*
X58378285Y-100533829D01*
X58402094Y-100510020D01*
X58449713Y-100486210D01*
X54367118Y-117320948D02*
X54129023Y-117487615D01*
X54367118Y-117606662D02*
X53867118Y-117606662D01*
X53867118Y-117416186D01*
X53890928Y-117368567D01*
X53914737Y-117344758D01*
X53962356Y-117320948D01*
X54033785Y-117320948D01*
X54081404Y-117344758D01*
X54105213Y-117368567D01*
X54129023Y-117416186D01*
X54129023Y-117606662D01*
X54367118Y-116844758D02*
X54367118Y-117130472D01*
X54367118Y-116987615D02*
X53867118Y-116987615D01*
X53938547Y-117035234D01*
X53986166Y-117082853D01*
X54009975Y-117130472D01*
X53867118Y-116416186D02*
X53867118Y-116511424D01*
X53890928Y-116559043D01*
X53914737Y-116582853D01*
X53986166Y-116630472D01*
X54081404Y-116654281D01*
X54271880Y-116654281D01*
X54319499Y-116630472D01*
X54343308Y-116606662D01*
X54367118Y-116559043D01*
X54367118Y-116463805D01*
X54343308Y-116416186D01*
X54319499Y-116392377D01*
X54271880Y-116368567D01*
X54152832Y-116368567D01*
X54105213Y-116392377D01*
X54081404Y-116416186D01*
X54057594Y-116463805D01*
X54057594Y-116559043D01*
X54081404Y-116606662D01*
X54105213Y-116630472D01*
X54152832Y-116654281D01*
X60547594Y-121525710D02*
X60380928Y-121287615D01*
X60261880Y-121525710D02*
X60261880Y-121025710D01*
X60452356Y-121025710D01*
X60499975Y-121049520D01*
X60523785Y-121073329D01*
X60547594Y-121120948D01*
X60547594Y-121192377D01*
X60523785Y-121239996D01*
X60499975Y-121263805D01*
X60452356Y-121287615D01*
X60261880Y-121287615D01*
X60714261Y-121025710D02*
X61023785Y-121025710D01*
X60857118Y-121216186D01*
X60928547Y-121216186D01*
X60976166Y-121239996D01*
X60999975Y-121263805D01*
X61023785Y-121311424D01*
X61023785Y-121430472D01*
X60999975Y-121478091D01*
X60976166Y-121501900D01*
X60928547Y-121525710D01*
X60785689Y-121525710D01*
X60738070Y-121501900D01*
X60714261Y-121478091D01*
D14*
X68637594Y-121246900D02*
X68637594Y-121961186D01*
X68589975Y-122104043D01*
X68494737Y-122199281D01*
X68351880Y-122246900D01*
X68256642Y-122246900D01*
X69066166Y-121342139D02*
X69113785Y-121294520D01*
X69209023Y-121246900D01*
X69447118Y-121246900D01*
X69542356Y-121294520D01*
X69589975Y-121342139D01*
X69637594Y-121437377D01*
X69637594Y-121532615D01*
X69589975Y-121675472D01*
X69018547Y-122246900D01*
X69637594Y-122246900D01*
D13*
X75631854Y-122877073D02*
X75368469Y-122754210D01*
X75384418Y-123019930D02*
X75134418Y-122586917D01*
X75299375Y-122491679D01*
X75352519Y-122488489D01*
X75385044Y-122497204D01*
X75429473Y-122526539D01*
X75465187Y-122588398D01*
X75468377Y-122641542D01*
X75459662Y-122674066D01*
X75430328Y-122718495D01*
X75265371Y-122813733D01*
X75570621Y-122390061D02*
X75579336Y-122357537D01*
X75608670Y-122313108D01*
X75711768Y-122253584D01*
X75764912Y-122250394D01*
X75797437Y-122259109D01*
X75841866Y-122288444D01*
X75865676Y-122329683D01*
X75880770Y-122403447D01*
X75776192Y-122793740D01*
X76044247Y-122638978D01*
D14*
X77566896Y-127352830D02*
X77757520Y-127646364D01*
X75186066Y-126514233D02*
X75409368Y-126858088D01*
X78440108Y-124401033D02*
X76192470Y-125860666D01*
X78405567Y-126808191D02*
X80326123Y-125560967D01*
X78405567Y-126808191D02*
X76485011Y-128055414D01*
X79446512Y-123747466D02*
X79002017Y-124036125D01*
X75186066Y-126514233D02*
X75630561Y-126225574D01*
X79446512Y-123747466D02*
X79669814Y-124091321D01*
X79244238Y-126263552D02*
X79434861Y-126557086D01*
X59536289Y-126808191D02*
X57615733Y-125560967D01*
X62755790Y-126514233D02*
X62532488Y-126858088D01*
X60374960Y-127352830D02*
X60184336Y-127646364D01*
X58495344Y-123747466D02*
X58272042Y-124091321D01*
X62755790Y-126514233D02*
X62311295Y-126225574D01*
X61749386Y-125860666D02*
X59501748Y-124401033D01*
X58495344Y-123747466D02*
X58939839Y-124036125D01*
X59536289Y-126808191D02*
X61456845Y-128055414D01*
X58697618Y-126263552D02*
X58506995Y-126557086D01*
D15*
X55753698Y-123401217D02*
X56089231Y-123736750D01*
X56492625Y-122662290D02*
X56828158Y-122997823D01*
X61760348Y-117409520D02*
X62041508Y-117409520D01*
X61760348Y-116389520D02*
X62041508Y-116389520D01*
X78883670Y-121112020D02*
X79358186Y-121112020D01*
X78883670Y-120067020D02*
X79358186Y-120067020D01*
X81560570Y-101520220D02*
X82035086Y-101520220D01*
X81560570Y-102565220D02*
X82035086Y-102565220D01*
X78923686Y-104140020D02*
X78449170Y-104140020D01*
X78923686Y-103095020D02*
X78449170Y-103095020D01*
X78449170Y-102552520D02*
X78923686Y-102552520D01*
X78449170Y-101507520D02*
X78923686Y-101507520D01*
X68907428Y-99624320D02*
X70857428Y-99624320D01*
X68907428Y-99624320D02*
X66957428Y-99624320D01*
X68907428Y-94504320D02*
X65457428Y-94504320D01*
X68907428Y-94504320D02*
X70857428Y-94504320D01*
X81938408Y-104127520D02*
X81657248Y-104127520D01*
X81938408Y-103107520D02*
X81657248Y-103107520D01*
X78939548Y-122889520D02*
X79220708Y-122889520D01*
X78939548Y-121869520D02*
X79220708Y-121869520D01*
X64845428Y-96646100D02*
X64845428Y-96364940D01*
X63825428Y-96646100D02*
X63825428Y-96364940D01*
X72111508Y-101409520D02*
X71830348Y-101409520D01*
X72111508Y-100389520D02*
X71830348Y-100389520D01*
X62163670Y-111682020D02*
X62638186Y-111682020D01*
X62163670Y-110637020D02*
X62638186Y-110637020D01*
D14*
X58697618Y-97735488D02*
X58506995Y-97441954D01*
X58495344Y-100251574D02*
X58272042Y-99907719D01*
X59536289Y-97190849D02*
X57615733Y-98438073D01*
X62755790Y-97484807D02*
X62311295Y-97773466D01*
X58495344Y-100251574D02*
X58939839Y-99962915D01*
X62755790Y-97484807D02*
X62532488Y-97140952D01*
X59536289Y-97190849D02*
X61456845Y-95943626D01*
X59501748Y-99598007D02*
X61749386Y-98138374D01*
X60374960Y-96646210D02*
X60184336Y-96352676D01*
X64945928Y-117904520D02*
X64945928Y-118204520D01*
X61595928Y-118129520D02*
X60370928Y-118129520D01*
X64945928Y-121254520D02*
X64945928Y-120954520D01*
X61595928Y-121254520D02*
X61595928Y-120954520D01*
X61595928Y-121254520D02*
X64945928Y-121254520D01*
X61595928Y-117904520D02*
X61595928Y-118129520D01*
X61595928Y-117904520D02*
X64945928Y-117904520D01*
D15*
X61720928Y-115819520D02*
X65320928Y-115819520D01*
X61720928Y-112599520D02*
X63920928Y-112599520D01*
X61720928Y-115819520D02*
X59520928Y-115819520D01*
X61720928Y-112599520D02*
X59520928Y-112599520D01*
X74040928Y-101129520D02*
X74540928Y-101129520D01*
X75740928Y-103329520D02*
X75740928Y-103329520D01*
X76240928Y-101129520D02*
X76240928Y-101129520D01*
X74040928Y-102829520D02*
X74040928Y-102829520D01*
X76240928Y-101629520D02*
X76240928Y-101129520D01*
X74040928Y-103329520D02*
X74040928Y-102829520D01*
X74540928Y-103329520D02*
X74040928Y-103329520D01*
X74540928Y-101129520D02*
X74540928Y-101129520D01*
X74040928Y-101629520D02*
X74040928Y-101129520D01*
X76240928Y-102829520D02*
X76240928Y-103329520D01*
X76240928Y-103329520D02*
X75740928Y-103329520D01*
X64800348Y-117389520D02*
X65081508Y-117389520D01*
X64800348Y-116369520D02*
X65081508Y-116369520D01*
X55048428Y-118382262D02*
X55048428Y-118856778D01*
X56093428Y-118382262D02*
X56093428Y-118856778D01*
X82517786Y-121005620D02*
X82043270Y-121005620D01*
X82517786Y-119960620D02*
X82043270Y-119960620D01*
X62419676Y-108269520D02*
X63842180Y-108269520D01*
X62419676Y-110089520D02*
X63842180Y-110089520D01*
X63790348Y-106629520D02*
X64071508Y-106629520D01*
X63790348Y-107649520D02*
X64071508Y-107649520D01*
X68750348Y-102689520D02*
X69031508Y-102689520D01*
X68750348Y-101669520D02*
X69031508Y-101669520D01*
X68760348Y-100099520D02*
X69041508Y-100099520D01*
X68760348Y-101119520D02*
X69041508Y-101119520D01*
X66930928Y-103399520D02*
X66930928Y-104199520D01*
X63810928Y-103399520D02*
X63810928Y-105199520D01*
X63810928Y-103399520D02*
X63810928Y-102599520D01*
X66930928Y-103399520D02*
X66930928Y-102599520D01*
D14*
X67370928Y-118499520D02*
X66670928Y-118499520D01*
X83763928Y-117329520D02*
X83763928Y-115805520D01*
X85070928Y-113061520D02*
X85070928Y-106330520D01*
X81266928Y-106729520D02*
X81266928Y-117269520D01*
X67370928Y-105499520D02*
X66670928Y-105499520D01*
X83870928Y-113061520D02*
X85070928Y-113061520D01*
X85570928Y-105499520D02*
X84870928Y-105499520D01*
X66670928Y-106199520D02*
X66670928Y-105499520D01*
X68122428Y-106729520D02*
X81266928Y-106729520D01*
X85570928Y-105499520D02*
X85570928Y-106199520D01*
X83870928Y-106330520D02*
X83870928Y-113061520D01*
X68122428Y-117269520D02*
X68122428Y-106729520D01*
X66670928Y-117799520D02*
X66670928Y-118499520D01*
X81266928Y-117269520D02*
X68122428Y-117269520D01*
X85070928Y-106330520D02*
X83870928Y-106330520D01*
X83763928Y-115805520D02*
X85287928Y-115805520D01*
X85570928Y-118499520D02*
X84870928Y-118499520D01*
X85287928Y-117329520D02*
X83763928Y-117329520D01*
X85287928Y-115805520D02*
X85287928Y-117329520D01*
X85570928Y-118499520D02*
X85570928Y-117799520D01*
X85160928Y-116567520D02*
G75*
G03*
X85160928Y-116567520I-635000J0D01*
G01*
D15*
X63812928Y-99379762D02*
X63812928Y-99854278D01*
X64857928Y-99379762D02*
X64857928Y-99854278D01*
X57188186Y-106307020D02*
X56713670Y-106307020D01*
X57188186Y-107352020D02*
X56713670Y-107352020D01*
X54658428Y-103692262D02*
X54658428Y-104166778D01*
X55703428Y-103692262D02*
X55703428Y-104166778D01*
X54108186Y-105677020D02*
X53633670Y-105677020D01*
X54108186Y-106722020D02*
X53633670Y-106722020D01*
X53911508Y-108709520D02*
X53630348Y-108709520D01*
X53911508Y-107689520D02*
X53630348Y-107689520D01*
X57921928Y-105876020D02*
X57271928Y-105876020D01*
X57921928Y-102756020D02*
X58571928Y-102756020D01*
X57921928Y-102756020D02*
X56246928Y-102756020D01*
X57921928Y-105876020D02*
X58571928Y-105876020D01*
X59068186Y-117412020D02*
X58593670Y-117412020D01*
X59068186Y-116367020D02*
X58593670Y-116367020D01*
X59538186Y-110757020D02*
X59063670Y-110757020D01*
X59538186Y-111802020D02*
X59063670Y-111802020D01*
X56880928Y-112140100D02*
X56880928Y-111858940D01*
X55860928Y-112140100D02*
X55860928Y-111858940D01*
X54454797Y-120052799D02*
X54692055Y-120463741D01*
X53549801Y-120575299D02*
X53787059Y-120986241D01*
D14*
X79446512Y-100251574D02*
X79669814Y-99907719D01*
X76192470Y-98138374D02*
X78440108Y-99598007D01*
X79446512Y-100251574D02*
X79002017Y-99962915D01*
X78405567Y-97190849D02*
X80326123Y-98438073D01*
X78405567Y-97190849D02*
X76485011Y-95943626D01*
X75186066Y-97484807D02*
X75409368Y-97140952D01*
X77566896Y-96646210D02*
X77757520Y-96352676D01*
X75186066Y-97484807D02*
X75630561Y-97773466D01*
X79244238Y-97735488D02*
X79434861Y-97441954D01*
D15*
X60055348Y-106629520D02*
X60336508Y-106629520D01*
X60055348Y-107649520D02*
X60336508Y-107649520D01*
X61850348Y-101959520D02*
X62131508Y-101959520D01*
X61850348Y-100939520D02*
X62131508Y-100939520D01*
X57259676Y-108259520D02*
X58682180Y-108259520D01*
X57259676Y-110079520D02*
X58682180Y-110079520D01*
X61900348Y-99369520D02*
X62181508Y-99369520D01*
X61900348Y-100389520D02*
X62181508Y-100389520D01*
X63270928Y-104249520D02*
X63270928Y-103449520D01*
X63270928Y-104249520D02*
X63270928Y-105049520D01*
X60150928Y-104249520D02*
X60150928Y-103449520D01*
X60150928Y-104249520D02*
X60150928Y-106049520D01*
X62480928Y-123360100D02*
X62480928Y-123078940D01*
X61460928Y-123360100D02*
X61460928Y-123078940D01*
X56590928Y-118689520D02*
X56590928Y-120489520D01*
X59810928Y-120489520D02*
X59810928Y-118039520D01*
X55330928Y-117034520D02*
X57250928Y-117034520D01*
X55330928Y-114349520D02*
X55330928Y-117034520D01*
X57250928Y-117034520D02*
X57250928Y-114349520D01*
X56825686Y-102171520D02*
X56351170Y-102171520D01*
X56825686Y-101126520D02*
X56351170Y-101126520D01*
X54105928Y-113132020D02*
X54019204Y-113132020D01*
X54105928Y-112257020D02*
X53805421Y-112257020D01*
X54105928Y-113132020D02*
X54105928Y-112257020D01*
X52802652Y-113132020D02*
X52715928Y-113132020D01*
X52715928Y-113132020D02*
X52715928Y-112257020D01*
X53016435Y-112257020D02*
X52715928Y-112257020D01*
X54105928Y-113817020D02*
X54105928Y-114502020D01*
X53633428Y-117032262D02*
X53633428Y-117506778D01*
X52588428Y-117032262D02*
X52588428Y-117506778D01*
X59698186Y-121857020D02*
X59223670Y-121857020D01*
X59698186Y-122902020D02*
X59223670Y-122902020D01*
X83315928Y-103732020D02*
X83315928Y-103047020D01*
X84705928Y-104417020D02*
X84705928Y-105292020D01*
X84619204Y-104417020D02*
X84705928Y-104417020D01*
X83315928Y-104417020D02*
X83402652Y-104417020D01*
X83315928Y-104417020D02*
X83315928Y-105292020D01*
X84405421Y-105292020D02*
X84705928Y-105292020D01*
X83315928Y-105292020D02*
X83616435Y-105292020D01*
X72680928Y-104394520D02*
X72680928Y-104094013D01*
X69805928Y-104394520D02*
X72680928Y-104394520D01*
X69805928Y-104394520D02*
X69805928Y-104307796D01*
X68435928Y-104394520D02*
X68435928Y-103699520D01*
X69805928Y-103004520D02*
X72680928Y-103004520D01*
X72680928Y-103305027D02*
X72680928Y-103004520D01*
X69805928Y-103091244D02*
X69805928Y-103004520D01*
X69120928Y-104394520D02*
X68435928Y-104394520D01*
X64270928Y-125539520D02*
X64270928Y-127539520D01*
X73670928Y-129439520D02*
X73670928Y-131339520D01*
X64270928Y-131339520D02*
X73670928Y-131339520D01*
X64270928Y-129439520D02*
X64270928Y-131339520D01*
X73670928Y-125539520D02*
X73670928Y-127539520D01*
X75579207Y-123290651D02*
X75990149Y-123053393D01*
X76101707Y-124195647D02*
X76512649Y-123958389D01*
X69805928Y-119701244D02*
X69805928Y-119614520D01*
X69805928Y-121004520D02*
X69805928Y-120917796D01*
X69805928Y-119614520D02*
X72680928Y-119614520D01*
X69120928Y-121004520D02*
X68435928Y-121004520D01*
X72680928Y-119915027D02*
X72680928Y-119614520D01*
X68435928Y-121004520D02*
X68435928Y-120309520D01*
X72680928Y-121004520D02*
X72680928Y-120704013D01*
X69805928Y-121004520D02*
X72680928Y-121004520D01*
%LPC*%
D16*
X80127311Y-124795804D03*
X75866865Y-127562571D03*
D17*
X78574010Y-123992138D03*
X75764463Y-125816679D03*
D18*
X57814545Y-124795804D03*
X62074991Y-127562571D03*
D19*
X62177393Y-125816679D03*
X59367846Y-123992138D03*
D20*
X55707565Y-122616157D03*
X56874291Y-123782883D03*
D21*
X61125928Y-116899520D03*
X62675928Y-116899520D03*
D22*
X78295928Y-120589520D03*
X79945928Y-120589520D03*
X80972828Y-102042720D03*
X82622828Y-102042720D03*
D23*
X79511428Y-103617520D03*
X77861428Y-103617520D03*
D22*
X77861428Y-102030020D03*
X79511428Y-102030020D03*
D24*
X66432428Y-95159320D03*
X66432428Y-96429320D03*
X66432428Y-97699320D03*
X66432428Y-98969320D03*
X71382428Y-98969320D03*
X71382428Y-97699320D03*
X71382428Y-96429320D03*
X71382428Y-95159320D03*
D25*
X82572828Y-103617520D03*
X81022828Y-103617520D03*
D21*
X78305128Y-122379520D03*
X79855128Y-122379520D03*
D26*
X64335428Y-97280520D03*
X64335428Y-95730520D03*
D25*
X72745928Y-100899520D03*
X71195928Y-100899520D03*
D22*
X61575928Y-111159520D03*
X63225928Y-111159520D03*
D27*
X57814545Y-99203236D03*
X62074991Y-96436469D03*
D28*
X59367846Y-100006902D03*
X62177393Y-98182361D03*
D29*
X61070928Y-118579520D03*
X61070928Y-119079520D03*
X61070928Y-119579520D03*
X61070928Y-120079520D03*
X61070928Y-120579520D03*
X65470928Y-120579520D03*
X65470928Y-120079520D03*
X65470928Y-119579520D03*
X65470928Y-119079520D03*
X65470928Y-118579520D03*
D30*
X64583428Y-115184520D03*
X64583428Y-114534520D03*
X64583428Y-113884520D03*
X64583428Y-113234520D03*
X58858428Y-113234520D03*
X58858428Y-113884520D03*
X58858428Y-114534520D03*
X58858428Y-115184520D03*
D31*
X75890928Y-101467020D03*
X75390928Y-101467020D03*
X74890928Y-101467020D03*
X74390928Y-101467020D03*
D32*
X74378428Y-101979520D03*
X74378428Y-102479520D03*
D31*
X74390928Y-102992020D03*
X74890928Y-102992020D03*
X75390928Y-102992020D03*
X75890928Y-102992020D03*
D32*
X75903428Y-102479520D03*
X75903428Y-101979520D03*
D21*
X64165928Y-116879520D03*
X65715928Y-116879520D03*
D33*
X55570928Y-117794520D03*
X55570928Y-119444520D03*
D23*
X83105528Y-120483120D03*
X81455528Y-120483120D03*
D34*
X61655928Y-109179520D03*
X64605928Y-109179520D03*
D21*
X63155928Y-107139520D03*
X64705928Y-107139520D03*
X68115928Y-102179520D03*
X69665928Y-102179520D03*
X68125928Y-100609520D03*
X69675928Y-100609520D03*
D35*
X64420928Y-104537020D03*
X65370928Y-104537020D03*
X66320928Y-104537020D03*
X66320928Y-102262020D03*
X64420928Y-102262020D03*
D36*
X82282928Y-105499520D03*
X81266928Y-105499520D03*
X80250928Y-105499520D03*
X79234928Y-105499520D03*
X78218928Y-105499520D03*
X77202928Y-105499520D03*
X76186928Y-105499520D03*
X75170928Y-105499520D03*
X74170928Y-105499520D03*
X73138928Y-105499520D03*
X72122928Y-105499520D03*
X71106928Y-105499520D03*
X70090928Y-105499520D03*
X69074928Y-105499520D03*
X68058928Y-105499520D03*
D37*
X66670928Y-108443520D03*
X66670928Y-109459520D03*
X66670928Y-110475520D03*
X66670928Y-111491520D03*
X66670928Y-112507520D03*
X66670928Y-113523520D03*
X66670928Y-114539520D03*
X66670928Y-115555520D03*
D36*
X68058928Y-118499520D03*
X69074928Y-118499520D03*
X70090928Y-118499520D03*
X71106928Y-118499520D03*
X72122928Y-118499520D03*
X73138928Y-118499520D03*
X74154928Y-118499520D03*
X75170928Y-118499520D03*
X76186928Y-118499520D03*
X77202928Y-118499520D03*
X78218928Y-118499520D03*
X79234928Y-118499520D03*
X80250928Y-118499520D03*
X81266928Y-118499520D03*
X82282928Y-118499520D03*
D38*
X73170928Y-111999520D03*
D33*
X64335428Y-98792020D03*
X64335428Y-100442020D03*
D23*
X57775928Y-106829520D03*
X56125928Y-106829520D03*
D33*
X55180928Y-103104520D03*
X55180928Y-104754520D03*
D23*
X54695928Y-106199520D03*
X53045928Y-106199520D03*
D25*
X54545928Y-108199520D03*
X52995928Y-108199520D03*
D39*
X56984428Y-103366020D03*
X56984428Y-105266020D03*
X58859428Y-104316020D03*
D23*
X59655928Y-116889520D03*
X58005928Y-116889520D03*
X60125928Y-111279520D03*
X58475928Y-111279520D03*
D26*
X56370928Y-112774520D03*
X56370928Y-111224520D03*
D40*
X53708428Y-119805049D03*
X54533428Y-121233991D03*
D41*
X80127311Y-99203236D03*
X75866865Y-96436469D03*
D42*
X75764463Y-98182361D03*
X78574010Y-100006902D03*
D21*
X59420928Y-107139520D03*
X60970928Y-107139520D03*
X61215928Y-101449520D03*
X62765928Y-101449520D03*
D34*
X56495928Y-109169520D03*
X59445928Y-109169520D03*
D21*
X61265928Y-99879520D03*
X62815928Y-99879520D03*
D35*
X60760928Y-105387020D03*
X61710928Y-105387020D03*
X62660928Y-105387020D03*
X62660928Y-103112020D03*
X60760928Y-103112020D03*
D26*
X61970928Y-123994520D03*
X61970928Y-122444520D03*
D43*
X59150928Y-118489520D03*
X58200928Y-118489520D03*
X57250928Y-118489520D03*
X57250928Y-120689520D03*
X59150928Y-120689520D03*
D44*
X56290928Y-116287020D03*
X56290928Y-114412020D03*
D23*
X57413428Y-101649020D03*
X55763428Y-101649020D03*
D45*
X53410928Y-113817020D03*
D46*
X53410928Y-112817020D03*
D33*
X53110928Y-116444520D03*
X53110928Y-118094520D03*
D23*
X60285928Y-122379520D03*
X58635928Y-122379520D03*
D47*
X84010928Y-103732020D03*
D46*
X84010928Y-104732020D03*
D48*
X69120928Y-103699520D03*
D46*
X70120928Y-103699520D03*
X71120928Y-103699520D03*
X72120928Y-103699520D03*
D49*
X66080928Y-124839520D03*
X71860928Y-124839520D03*
D50*
X65720928Y-123394520D03*
X66520928Y-123394520D03*
D51*
X67720928Y-123394520D03*
X68720928Y-123394520D03*
X69220928Y-123394520D03*
X70220928Y-123394520D03*
D50*
X71420928Y-123394520D03*
X72220928Y-123394520D03*
X72220928Y-123394520D03*
X71420928Y-123394520D03*
D51*
X70720928Y-123394520D03*
X69720928Y-123394520D03*
X68220928Y-123394520D03*
X67220928Y-123394520D03*
D50*
X66520928Y-123394520D03*
X65720928Y-123394520D03*
D52*
X73290928Y-128489520D03*
D53*
X73290928Y-124309520D03*
X64650928Y-124309520D03*
D52*
X64650928Y-128489520D03*
D54*
X75331457Y-124037020D03*
X76760399Y-123212020D03*
D48*
X69120928Y-120309520D03*
D46*
X70120928Y-120309520D03*
X71120928Y-120309520D03*
X72120928Y-120309520D03*
M02*
