G04 #@! TF.GenerationSoftware,KiCad,Pcbnew,(6.0.0-0)*
G04 #@! TF.CreationDate,2022-02-02T23:41:51+10:00*
G04 #@! TF.ProjectId,osw-light,6f73772d-6c69-4676-9874-2e6b69636164,3.3*
G04 #@! TF.SameCoordinates,Original*
G04 #@! TF.FileFunction,Copper,L2,Bot*
G04 #@! TF.FilePolarity,Positive*
%FSLAX46Y46*%
G04 Gerber Fmt 4.6, Leading zero omitted, Abs format (unit mm)*
G04 Created by KiCad (PCBNEW (6.0.0-0)) date 2022-02-02 23:41:51*
%MOMM*%
%LPD*%
G01*
G04 APERTURE LIST*
G04 Aperture macros list*
%AMHorizOval*
0 Thick line with rounded ends*
0 $1 width*
0 $2 $3 position (X,Y) of the first rounded end (center of the circle)*
0 $4 $5 position (X,Y) of the second rounded end (center of the circle)*
0 Add line between two ends*
20,1,$1,$2,$3,$4,$5,0*
0 Add two circle primitives to create the rounded ends*
1,1,$1,$2,$3*
1,1,$1,$4,$5*%
G04 Aperture macros list end*
G04 #@! TA.AperFunction,ComponentPad*
%ADD10HorizOval,0.600000X0.251623X-0.387466X-0.251623X0.387466X0*%
G04 #@! TD*
G04 #@! TA.AperFunction,ComponentPad*
%ADD11HorizOval,0.600000X-0.251623X-0.387466X0.251623X0.387466X0*%
G04 #@! TD*
G04 #@! TA.AperFunction,ComponentPad*
%ADD12HorizOval,0.600000X-0.251623X0.387466X0.251623X-0.387466X0*%
G04 #@! TD*
G04 #@! TA.AperFunction,ComponentPad*
%ADD13HorizOval,0.600000X0.251623X0.387466X-0.251623X-0.387466X0*%
G04 #@! TD*
G04 #@! TA.AperFunction,ComponentPad*
%ADD14R,0.850000X0.850000*%
G04 #@! TD*
G04 #@! TA.AperFunction,ComponentPad*
%ADD15O,0.850000X0.850000*%
G04 #@! TD*
G04 #@! TA.AperFunction,ComponentPad*
%ADD16O,1.000000X1.600000*%
G04 #@! TD*
G04 #@! TA.AperFunction,ComponentPad*
%ADD17O,1.000000X2.100000*%
G04 #@! TD*
G04 #@! TA.AperFunction,SMDPad,CuDef*
%ADD18R,2.500000X0.350000*%
G04 #@! TD*
G04 #@! TA.AperFunction,ViaPad*
%ADD19C,0.600000*%
G04 #@! TD*
G04 #@! TA.AperFunction,ViaPad*
%ADD20C,0.685800*%
G04 #@! TD*
G04 #@! TA.AperFunction,Conductor*
%ADD21C,0.250000*%
G04 #@! TD*
G04 #@! TA.AperFunction,Conductor*
%ADD22C,0.400000*%
G04 #@! TD*
G04 #@! TA.AperFunction,Conductor*
%ADD23C,0.500000*%
G04 #@! TD*
G04 #@! TA.AperFunction,Conductor*
%ADD24C,0.200000*%
G04 #@! TD*
G04 APERTURE END LIST*
D10*
X75866865Y-127562571D03*
X80127311Y-124795804D03*
D11*
X62074991Y-127562571D03*
X57814545Y-124795804D03*
D12*
X57814545Y-99203236D03*
X62074991Y-96436469D03*
D13*
X75866865Y-96436469D03*
X80127311Y-99203236D03*
D14*
X53410928Y-113817020D03*
D15*
X53410928Y-112817020D03*
D14*
X84010928Y-103732020D03*
D15*
X84010928Y-104732020D03*
D14*
X69120928Y-103699520D03*
D15*
X70120928Y-103699520D03*
X71120928Y-103699520D03*
X72120928Y-103699520D03*
D16*
X64650928Y-128489520D03*
D17*
X64650928Y-124309520D03*
X73290928Y-124309520D03*
D16*
X73290928Y-128489520D03*
D14*
X69120928Y-120309520D03*
D15*
X70120928Y-120309520D03*
X71120928Y-120309520D03*
X72120928Y-120309520D03*
D18*
X58298928Y-115976520D03*
X58298928Y-115276520D03*
X58298928Y-114576520D03*
X58298928Y-113876520D03*
X58298928Y-113176520D03*
X58298928Y-112476520D03*
X58298928Y-111776520D03*
X58298928Y-111076520D03*
X58298928Y-110376520D03*
X58298928Y-109676520D03*
X58298928Y-108976520D03*
X58298928Y-108276520D03*
D19*
X80252928Y-106259520D03*
X81455528Y-120483120D03*
X75764463Y-125816679D03*
X72745928Y-100899520D03*
X76988077Y-102942372D03*
X55707565Y-122616157D03*
X81266928Y-106259520D03*
X83105528Y-120483120D03*
X63092346Y-120042346D03*
X74188383Y-103182065D03*
X69074928Y-118499520D03*
X59367846Y-123992138D03*
X58298928Y-115976520D03*
X81022828Y-103617520D03*
X76612408Y-101139520D03*
X65354081Y-104270520D03*
X60970928Y-107139520D03*
X64335428Y-95730520D03*
X75101681Y-103245915D03*
X62675928Y-116899520D03*
X58200928Y-118489520D03*
X62815928Y-99879520D03*
X64705928Y-107139520D03*
X58298928Y-112476520D03*
X55763428Y-101649020D03*
X71195928Y-100899520D03*
X61970928Y-123994520D03*
X57250928Y-120689520D03*
X60397939Y-113809020D03*
X64165928Y-116879520D03*
X61970928Y-122444520D03*
X58859428Y-104316020D03*
X66670928Y-110475520D03*
X59960928Y-102223520D03*
X75764463Y-98713175D03*
X66670928Y-108443520D03*
X79511428Y-102030020D03*
X80250928Y-118499520D03*
X77011928Y-101988787D03*
D20*
X71382428Y-96429320D03*
D19*
X77861428Y-103617520D03*
X75267188Y-102033949D03*
X79701428Y-115459520D03*
X65480928Y-107899520D03*
X55180928Y-104754520D03*
X79740377Y-119665043D03*
X73781330Y-101962546D03*
X77202928Y-106259520D03*
X56125928Y-106829520D03*
X66790153Y-119030020D03*
X78295928Y-120589520D03*
X73140928Y-106259520D03*
X55333175Y-120770193D03*
X64260928Y-106048540D03*
X73138928Y-118499520D03*
X74170928Y-106249520D03*
X74154928Y-118499520D03*
X61535390Y-114436712D03*
X61554662Y-111895786D03*
X57775928Y-106829520D03*
X54545928Y-108199520D03*
X68720928Y-124401568D03*
X61070928Y-118480018D03*
X69819939Y-124492421D03*
X68080928Y-124951079D03*
X62052976Y-119079520D03*
D21*
X76121969Y-125816679D02*
X81455528Y-120483120D01*
X80625448Y-108115085D02*
X80252928Y-107742566D01*
X80625448Y-118061558D02*
X80625448Y-108115085D01*
X81455528Y-120483120D02*
X81369720Y-120397312D01*
X80252928Y-107742566D02*
X80252928Y-106259520D01*
X75764463Y-125816679D02*
X76121969Y-125816679D01*
X81455528Y-120483120D02*
X81455528Y-118891638D01*
X81455528Y-118891638D02*
X80625448Y-118061558D01*
D22*
X55707565Y-121314335D02*
X55707565Y-122616157D01*
D23*
X75966699Y-101744201D02*
X75966699Y-101991676D01*
D22*
X56981891Y-120040009D02*
X55707565Y-121314335D01*
D23*
X81266928Y-117039520D02*
X81266928Y-106259520D01*
D21*
X72745928Y-101739610D02*
X74188383Y-103182065D01*
D23*
X76917395Y-102942372D02*
X76988077Y-102942372D01*
D21*
X72745928Y-100899520D02*
X72745928Y-101739610D01*
D23*
X75966699Y-101991676D02*
X76917395Y-102942372D01*
X72745928Y-100899520D02*
X75122018Y-100899520D01*
D22*
X56981891Y-120040009D02*
X63090009Y-120040009D01*
D23*
X83105528Y-120483120D02*
X83105528Y-118878120D01*
X83105528Y-118878120D02*
X81266928Y-117039520D01*
X75122018Y-100899520D02*
X75966699Y-101744201D01*
D22*
X63090009Y-120040009D02*
X63092346Y-120042346D01*
D24*
X61400228Y-126024520D02*
X59367846Y-123992138D01*
X70369450Y-124720037D02*
X69064967Y-126024520D01*
X70369450Y-124261346D02*
X70369450Y-124720037D01*
X68994928Y-118419520D02*
X66623526Y-118419520D01*
X69074928Y-118499520D02*
X68994928Y-118419520D01*
X69064967Y-126024520D02*
X61400228Y-126024520D01*
X66240642Y-118802404D02*
X66240642Y-120132538D01*
X66240642Y-120132538D02*
X70369450Y-124261346D01*
X66623526Y-118419520D02*
X66240642Y-118802404D01*
D21*
X76612408Y-101139520D02*
X79422590Y-101139520D01*
X81022828Y-102728938D02*
X81022828Y-103617520D01*
X59833928Y-108276520D02*
X60970928Y-107139520D01*
X71195928Y-100899520D02*
X71933446Y-100899520D01*
X79422590Y-101139520D02*
X79428000Y-101134110D01*
X58298928Y-113176520D02*
X58800428Y-113176520D01*
X59633928Y-115976520D02*
X58298928Y-115976520D01*
X62285928Y-124309520D02*
X61970928Y-123994520D01*
X59823439Y-113427009D02*
X59823439Y-115787009D01*
X71933446Y-100899520D02*
X72507957Y-100325009D01*
X75289291Y-100325009D02*
X75567365Y-100603083D01*
X64650928Y-124309520D02*
X62285928Y-124309520D01*
X74591020Y-103756576D02*
X73950412Y-103756576D01*
X59823439Y-115787009D02*
X59633928Y-115976520D01*
X58800428Y-113176520D02*
X58858428Y-113234520D01*
X62815928Y-101732367D02*
X65354081Y-104270520D01*
X61046428Y-101649020D02*
X55763428Y-101649020D01*
X73613872Y-103317464D02*
X71195928Y-100899520D01*
X75667365Y-100703083D02*
X75339282Y-100375000D01*
X60970928Y-107139520D02*
X64705928Y-107139520D01*
D24*
X58298928Y-115976520D02*
X58298928Y-118391520D01*
D21*
X75101681Y-103245915D02*
X74591020Y-103756576D01*
X60935950Y-116899520D02*
X62675928Y-116899520D01*
X72507957Y-100325009D02*
X75289291Y-100325009D01*
X62815928Y-99879520D02*
X62815928Y-97250020D01*
X59823439Y-115787009D02*
X60935950Y-116899520D01*
X73950412Y-103756576D02*
X73613872Y-103420036D01*
D24*
X58298928Y-118391520D02*
X58200928Y-118489520D01*
D21*
X62815928Y-99879520D02*
X61046428Y-101649020D01*
X76606998Y-101134110D02*
X76612408Y-101139520D01*
X58858428Y-113234520D02*
X59630950Y-113234520D01*
X79428000Y-101134110D02*
X81022828Y-102728938D01*
X76098392Y-101134110D02*
X75667365Y-100703083D01*
X58298928Y-112476520D02*
X58298928Y-113176520D01*
X73290928Y-128489520D02*
X73290928Y-124309520D01*
X76098392Y-101134110D02*
X76606998Y-101134110D01*
X64650928Y-128489520D02*
X73290928Y-128489520D01*
X59630950Y-113234520D02*
X59823439Y-113427009D01*
X58298928Y-108276520D02*
X59833928Y-108276520D01*
X73613872Y-103420036D02*
X73613872Y-103317464D01*
X62815928Y-99879520D02*
X62815928Y-101732367D01*
X62815928Y-97250020D02*
X64335428Y-95730520D01*
D23*
X63486417Y-116200009D02*
X64165928Y-116879520D01*
X60215928Y-120689520D02*
X57250928Y-120689520D01*
X60397939Y-113809020D02*
X60397939Y-114288520D01*
X60397939Y-114288520D02*
X62309428Y-116200009D01*
X62309428Y-116200009D02*
X63486417Y-116200009D01*
X61970928Y-122444520D02*
X60215928Y-120689520D01*
D21*
X56798928Y-115276520D02*
X54997377Y-113474969D01*
X58298928Y-115276520D02*
X56798928Y-115276520D01*
X53571897Y-107753545D02*
X57009422Y-104316020D01*
X54997377Y-113474969D02*
X54997377Y-110149520D01*
X57009422Y-104316020D02*
X58859428Y-104316020D01*
X53571897Y-108724040D02*
X53571897Y-107753545D01*
X54997377Y-110149520D02*
X53571897Y-108724040D01*
X62582428Y-104845020D02*
X59960928Y-102223520D01*
X65748910Y-104845020D02*
X66585439Y-105681549D01*
X66096417Y-108205549D02*
X66096417Y-109901009D01*
X64205964Y-104845020D02*
X65748910Y-104845020D01*
X66096417Y-109901009D02*
X66670928Y-110475520D01*
X64205964Y-104845020D02*
X62582428Y-104845020D01*
X66585439Y-107716527D02*
X66096417Y-108205549D01*
X66585439Y-105681549D02*
X66585439Y-107716527D01*
X75233649Y-98182361D02*
X75764463Y-98713175D01*
X66984959Y-108129489D02*
X66670928Y-108443520D01*
X73100605Y-98182361D02*
X66984959Y-104298007D01*
X73100605Y-98182361D02*
X75233649Y-98182361D01*
X66984959Y-104298007D02*
X66984959Y-108129489D01*
D24*
X79511428Y-104810020D02*
X79511428Y-107530717D01*
D21*
X79511428Y-102030020D02*
X77053161Y-102030020D01*
D24*
X80250928Y-108270217D02*
X80250928Y-118499520D01*
X79511428Y-104810020D02*
X79589428Y-104732020D01*
D21*
X77053161Y-102030020D02*
X77011928Y-101988787D01*
D24*
X79511428Y-104810020D02*
X79511428Y-102030020D01*
X79511428Y-107530717D02*
X80250928Y-108270217D01*
X79589428Y-104732020D02*
X84010928Y-104732020D01*
D21*
X72560958Y-97607850D02*
X77079258Y-97607850D01*
X77760791Y-103516883D02*
X77861428Y-103617520D01*
X71382428Y-96429320D02*
X72560958Y-97607850D01*
X76750122Y-103516883D02*
X77760791Y-103516883D01*
X77861428Y-106410369D02*
X77861428Y-103617520D01*
X79701428Y-115459520D02*
X79701428Y-108250369D01*
X83203428Y-103732020D02*
X84010928Y-103732020D01*
X79701428Y-108250369D02*
X77861428Y-106410369D01*
X75267188Y-102033949D02*
X76750122Y-103516883D01*
X77079258Y-97607850D02*
X83203428Y-103732020D01*
X64304390Y-105279520D02*
X60710928Y-105279520D01*
X65480928Y-106456058D02*
X64304390Y-105279520D01*
X56275928Y-103659520D02*
X55180928Y-104754520D01*
X59090928Y-103659520D02*
X56275928Y-103659520D01*
X60710928Y-105279520D02*
X59090928Y-103659520D01*
X65480928Y-107899520D02*
X65480928Y-106456058D01*
D24*
X62036518Y-109676520D02*
X69810000Y-117450000D01*
X77525334Y-117450000D02*
X79740377Y-119665043D01*
X69810000Y-117450000D02*
X77525334Y-117450000D01*
X58298928Y-109676520D02*
X62036518Y-109676520D01*
D21*
X77202928Y-104534695D02*
X77202928Y-106259520D01*
X75289340Y-102621107D02*
X77202928Y-104534695D01*
X73781330Y-101962546D02*
X74383303Y-101962546D01*
X75041864Y-102621107D02*
X75289340Y-102621107D01*
X74383303Y-101962546D02*
X75041864Y-102621107D01*
X53971417Y-108554040D02*
X53971417Y-107919031D01*
X55396898Y-113174490D02*
X55396897Y-109979520D01*
X55060928Y-106829520D02*
X56125928Y-106829520D01*
X58298928Y-114576520D02*
X56798928Y-114576520D01*
X56798928Y-114576520D02*
X55396898Y-113174490D01*
X53971417Y-107919031D02*
X55060928Y-106829520D01*
X55396897Y-109979520D02*
X53971417Y-108554040D01*
D24*
X66790153Y-119715859D02*
X66790153Y-119030020D01*
X77517771Y-122170480D02*
X69244774Y-122170480D01*
X78295928Y-121392323D02*
X77517771Y-122170480D01*
X69244774Y-122170480D02*
X66790153Y-119715859D01*
X78295928Y-120589520D02*
X78295928Y-121392323D01*
X60384515Y-125785933D02*
X60972620Y-126374039D01*
X73063782Y-122520000D02*
X77662547Y-122520000D01*
X79151917Y-112830509D02*
X79120928Y-112799520D01*
X60466660Y-125868079D02*
X58405508Y-123806927D01*
X69209743Y-126374039D02*
X73063782Y-122520000D01*
X60972620Y-126374039D02*
X69209743Y-126374039D01*
X77662547Y-122520000D02*
X80320928Y-119861619D01*
X76898055Y-108199520D02*
X74398544Y-105700009D01*
X79151917Y-118177636D02*
X79151917Y-112830509D01*
X55258045Y-120845323D02*
X55333175Y-120770193D01*
X79120928Y-112799520D02*
X79120928Y-108199520D01*
X79120928Y-108199520D02*
X76898055Y-108199520D01*
X80320928Y-119861619D02*
X80320928Y-119346647D01*
X55258045Y-121999520D02*
X55258045Y-120845323D01*
X74398544Y-105700009D02*
X73700439Y-105700009D01*
X80320928Y-119346647D02*
X79151917Y-118177636D01*
X55158054Y-122099511D02*
X55258045Y-121999520D01*
X73700439Y-105700009D02*
X73140928Y-106259520D01*
X56121208Y-123806927D02*
X55158054Y-122843773D01*
X58405508Y-123806927D02*
X56121208Y-123806927D01*
X55158054Y-122843773D02*
X55158054Y-122099511D01*
X64009948Y-106299520D02*
X64260928Y-106048540D01*
X60950928Y-106299520D02*
X64009948Y-106299520D01*
X56799417Y-107852009D02*
X59398439Y-107852009D01*
X59398439Y-107852009D02*
X60950928Y-106299520D01*
X56848928Y-111776520D02*
X56799417Y-111727009D01*
X58298928Y-111776520D02*
X56848928Y-111776520D01*
X56799417Y-111727009D02*
X56799417Y-107852009D01*
X62447928Y-111076520D02*
X58298928Y-111076520D01*
X69870928Y-118499520D02*
X62447928Y-111076520D01*
X73138928Y-118499520D02*
X69870928Y-118499520D01*
X66294365Y-110876083D02*
X66443312Y-111025031D01*
X69395417Y-111025031D02*
X66443313Y-111025031D01*
X64394801Y-108976520D02*
X66294365Y-110876083D01*
X66443313Y-111025031D02*
X66294365Y-110876083D01*
X74170928Y-106249520D02*
X69395417Y-111025031D01*
X58298928Y-108976520D02*
X64394801Y-108976520D01*
X73454928Y-117799520D02*
X74154928Y-118499520D01*
X58298928Y-110376520D02*
X62242223Y-110376520D01*
X62242223Y-110376520D02*
X69665224Y-117799520D01*
X69665224Y-117799520D02*
X73454928Y-117799520D01*
D23*
X61554662Y-114417440D02*
X61535390Y-114436712D01*
X61554662Y-111895786D02*
X61554662Y-114417440D01*
X57115187Y-106829520D02*
X55745187Y-108199520D01*
X54545928Y-108199520D02*
X54545928Y-108386767D01*
X55745187Y-108199520D02*
X54545928Y-108199520D01*
X56249897Y-110090736D02*
X56249897Y-113278489D01*
X57775928Y-106829520D02*
X57115187Y-106829520D01*
X54545928Y-108386767D02*
X56249897Y-110090736D01*
X56847928Y-113876520D02*
X58298928Y-113876520D01*
X56249897Y-113278489D02*
X56847928Y-113876520D01*
D24*
X69819939Y-124492421D02*
X68811781Y-124492421D01*
X66559707Y-121397496D02*
X66559707Y-121397497D01*
X65927181Y-121181494D02*
X65927182Y-121181494D01*
X63381593Y-119060170D02*
X63381594Y-119060171D01*
X64230122Y-119908699D02*
X64230123Y-119908700D01*
X65711178Y-120548968D02*
X65502916Y-120757229D01*
X64509095Y-118781198D02*
X64509096Y-118781199D01*
X66775710Y-122030023D02*
X66775711Y-122030023D01*
X64230124Y-119484436D02*
X64509096Y-119205463D01*
X66559707Y-121397497D02*
X66351445Y-121605758D01*
X68811781Y-124492421D02*
X68720928Y-124401568D01*
X64933360Y-119629728D02*
X64654387Y-119908700D01*
X64230123Y-119484436D02*
X64230124Y-119484436D01*
X65711178Y-120548967D02*
X65711178Y-120548968D01*
X68720928Y-124399505D02*
X66775711Y-122454288D01*
X66775711Y-122030023D02*
X66983972Y-121821761D01*
X65927181Y-121605758D02*
X65927182Y-121605759D01*
X63381594Y-119060171D02*
X62801441Y-118480018D01*
X62801441Y-118480018D02*
X61070928Y-118480018D01*
X65078652Y-120757229D02*
X65078653Y-120757230D01*
X64933360Y-119629727D02*
X64933360Y-119629728D01*
X65078653Y-120332965D02*
X65357625Y-120053992D01*
X65927182Y-121181494D02*
X66135443Y-120973232D01*
X64230123Y-119908700D02*
X64230124Y-119908701D01*
X64084831Y-118781198D02*
X64084831Y-118781199D01*
X65357624Y-119629727D02*
X65357625Y-119629728D01*
X65078652Y-120332965D02*
X65078653Y-120332965D01*
X68720928Y-124401568D02*
X68720928Y-124399505D01*
X64084831Y-118781199D02*
X63805858Y-119060171D01*
X65927182Y-121181495D02*
G75*
G03*
X65927183Y-121605758I212131J-212131D01*
G01*
X65711179Y-120548968D02*
G75*
G02*
X66135442Y-120548969I212131J-212131D01*
G01*
X64084832Y-118781199D02*
G75*
G02*
X64509095Y-118781200I212131J-212131D01*
G01*
X66135442Y-120548969D02*
G75*
G02*
X66135442Y-120973231I-212131J-212131D01*
G01*
X63381594Y-119060169D02*
G75*
G03*
X63805857Y-119060170I212132J212130D01*
G01*
X65078653Y-120757228D02*
G75*
G03*
X65502915Y-120757228I212131J212131D01*
G01*
X64509094Y-118781199D02*
G75*
G02*
X64509095Y-119205462I-212130J-212132D01*
G01*
X65078653Y-120332966D02*
G75*
G03*
X65078654Y-120757229I212131J-212131D01*
G01*
X65927182Y-121605757D02*
G75*
G03*
X66351444Y-121605757I212131J212131D01*
G01*
X66775711Y-122030024D02*
G75*
G03*
X66775712Y-122454287I212131J-212131D01*
G01*
X64230123Y-119908698D02*
G75*
G03*
X64654386Y-119908699I212132J212130D01*
G01*
X64933361Y-119629728D02*
G75*
G02*
X65357624Y-119629729I212131J-212131D01*
G01*
X66559708Y-121397497D02*
G75*
G02*
X66983971Y-121397498I212131J-212131D01*
G01*
X65357623Y-119629728D02*
G75*
G02*
X65357624Y-120053991I-212130J-212132D01*
G01*
X66983971Y-121397498D02*
G75*
G02*
X66983971Y-121821760I-212131J-212131D01*
G01*
X64230124Y-119484437D02*
G75*
G03*
X64230125Y-119908700I212131J-212131D01*
G01*
X68080928Y-124253801D02*
X62906647Y-119079520D01*
X62906647Y-119079520D02*
X62052976Y-119079520D01*
X68080928Y-124951079D02*
X68080928Y-124253801D01*
G04 #@! TA.AperFunction,Conductor*
G36*
X81109460Y-117448899D02*
G01*
X81116043Y-117455028D01*
X82668123Y-119007108D01*
X82702149Y-119069420D01*
X82705028Y-119096203D01*
X82705028Y-120247939D01*
X82693083Y-120301487D01*
X82684364Y-120320059D01*
X82670282Y-120350052D01*
X82668902Y-120358918D01*
X82668901Y-120358921D01*
X82651810Y-120468687D01*
X82651810Y-120468691D01*
X82650429Y-120477560D01*
X82651593Y-120486462D01*
X82651593Y-120486465D01*
X82665996Y-120596609D01*
X82665997Y-120596613D01*
X82667161Y-120605514D01*
X82670778Y-120613734D01*
X82710060Y-120703009D01*
X82719133Y-120723630D01*
X82724910Y-120730503D01*
X82724911Y-120730504D01*
X82793343Y-120811914D01*
X82802167Y-120822411D01*
X82809644Y-120827388D01*
X82902065Y-120888908D01*
X82909588Y-120893916D01*
X82990434Y-120919174D01*
X83021280Y-120928811D01*
X83032761Y-120932398D01*
X83041731Y-120932562D01*
X83041735Y-120932563D01*
X83099154Y-120933615D01*
X83161783Y-120934763D01*
X83266282Y-120906273D01*
X83277620Y-120903182D01*
X83277621Y-120903182D01*
X83286283Y-120900820D01*
X83293933Y-120896123D01*
X83293935Y-120896122D01*
X83388600Y-120837998D01*
X83388603Y-120837995D01*
X83396252Y-120833299D01*
X83402278Y-120826642D01*
X83476828Y-120744281D01*
X83476831Y-120744277D01*
X83482850Y-120737627D01*
X83539116Y-120621495D01*
X83541672Y-120606306D01*
X83559718Y-120499037D01*
X83560525Y-120494240D01*
X83560661Y-120483120D01*
X83547223Y-120389286D01*
X83543640Y-120364265D01*
X83543639Y-120364262D01*
X83542367Y-120355379D01*
X83538653Y-120347210D01*
X83538652Y-120347207D01*
X83517328Y-120300308D01*
X83506028Y-120248156D01*
X83506028Y-118814687D01*
X83502964Y-118805256D01*
X83502963Y-118805252D01*
X83499231Y-118793767D01*
X83494615Y-118774542D01*
X83492725Y-118762608D01*
X83492725Y-118762607D01*
X83491174Y-118752816D01*
X83486673Y-118743983D01*
X83486672Y-118743979D01*
X83481187Y-118733214D01*
X83473621Y-118714950D01*
X83466824Y-118694030D01*
X83453889Y-118676227D01*
X83443563Y-118659375D01*
X83438082Y-118648618D01*
X83433578Y-118639778D01*
X83411015Y-118617215D01*
X83411012Y-118617211D01*
X82504743Y-117710942D01*
X82470717Y-117648630D01*
X82475782Y-117577815D01*
X82518329Y-117520979D01*
X82584849Y-117496168D01*
X82593165Y-117495849D01*
X85832801Y-117478639D01*
X85901027Y-117498279D01*
X85947804Y-117551687D01*
X85958281Y-117621906D01*
X85953712Y-117642292D01*
X85921876Y-117743952D01*
X85919981Y-117749539D01*
X85634426Y-118531056D01*
X85632273Y-118536549D01*
X85310420Y-119303913D01*
X85308011Y-119309298D01*
X84950613Y-120060711D01*
X84947955Y-120065978D01*
X84555763Y-120799865D01*
X84552861Y-120805001D01*
X84126769Y-121519689D01*
X84123633Y-121524681D01*
X84094192Y-121569185D01*
X83664524Y-122218688D01*
X83661154Y-122223531D01*
X83171151Y-122893801D01*
X83170092Y-122895249D01*
X83166505Y-122899923D01*
X83031278Y-123067800D01*
X82644516Y-123547946D01*
X82640709Y-123552452D01*
X82088969Y-124175322D01*
X82084955Y-124179645D01*
X81994843Y-124272253D01*
X81518735Y-124761546D01*
X81504673Y-124775997D01*
X81500463Y-124780126D01*
X81423952Y-124851723D01*
X81041501Y-125209610D01*
X80978095Y-125241550D01*
X80907486Y-125234140D01*
X80852092Y-125189732D01*
X80831047Y-125134645D01*
X80831223Y-125128537D01*
X80795135Y-124997966D01*
X80791973Y-124992141D01*
X80777059Y-124969175D01*
X80762709Y-124930640D01*
X80761039Y-124931119D01*
X80758565Y-124922492D01*
X80757339Y-124913598D01*
X80753667Y-124905408D01*
X80753666Y-124905405D01*
X80716064Y-124821543D01*
X80714072Y-124817100D01*
X80710997Y-124812364D01*
X80387595Y-124314371D01*
X80348109Y-124253568D01*
X80280474Y-124176173D01*
X80272906Y-124171342D01*
X80272902Y-124171339D01*
X80271768Y-124170615D01*
X80267616Y-124166792D01*
X80266101Y-124165489D01*
X80266145Y-124165438D01*
X80239296Y-124140717D01*
X80237638Y-124138538D01*
X80235073Y-124134589D01*
X80167926Y-124058826D01*
X80093738Y-124013630D01*
X80060280Y-123993247D01*
X80060278Y-123993246D01*
X80052236Y-123988347D01*
X80043110Y-123986029D01*
X80043107Y-123986028D01*
X79930066Y-123957319D01*
X79930063Y-123957319D01*
X79920937Y-123955001D01*
X79911532Y-123955469D01*
X79911529Y-123955469D01*
X79839201Y-123959070D01*
X79785637Y-123961737D01*
X79658300Y-124007958D01*
X79550182Y-124089579D01*
X79544663Y-124097217D01*
X79544662Y-124097218D01*
X79502705Y-124155286D01*
X79470843Y-124199382D01*
X79453941Y-124249175D01*
X79437222Y-124298431D01*
X79427300Y-124327660D01*
X79425707Y-124382968D01*
X79424209Y-124434970D01*
X79423399Y-124463071D01*
X79425907Y-124472144D01*
X79425907Y-124472147D01*
X79457571Y-124586714D01*
X79459486Y-124593642D01*
X79462649Y-124599467D01*
X79463994Y-124601538D01*
X79477563Y-124622433D01*
X79491913Y-124660968D01*
X79493583Y-124660489D01*
X79496057Y-124669116D01*
X79497283Y-124678010D01*
X79500955Y-124686200D01*
X79500956Y-124686203D01*
X79504839Y-124694863D01*
X79540550Y-124774508D01*
X79543201Y-124778590D01*
X79543202Y-124778592D01*
X79667877Y-124970574D01*
X79906513Y-125338040D01*
X79909461Y-125341414D01*
X79909463Y-125341416D01*
X79920559Y-125354113D01*
X79974148Y-125415435D01*
X79981716Y-125420266D01*
X79981720Y-125420269D01*
X79982854Y-125420993D01*
X79987006Y-125424816D01*
X79988521Y-125426119D01*
X79988477Y-125426170D01*
X80015326Y-125450891D01*
X80016984Y-125453070D01*
X80019549Y-125457019D01*
X80086696Y-125532782D01*
X80131494Y-125560073D01*
X80194342Y-125598361D01*
X80194344Y-125598362D01*
X80202386Y-125603261D01*
X80211514Y-125605579D01*
X80211516Y-125605580D01*
X80267877Y-125619894D01*
X80328978Y-125656049D01*
X80360832Y-125719498D01*
X80353327Y-125790097D01*
X80318552Y-125837947D01*
X80254979Y-125892084D01*
X80250404Y-125895799D01*
X80162398Y-125963901D01*
X79592322Y-126405044D01*
X79587574Y-126408544D01*
X78906375Y-126886429D01*
X78901488Y-126889689D01*
X78198684Y-127335154D01*
X78193629Y-127338195D01*
X77470713Y-127750292D01*
X77465520Y-127753092D01*
X76750876Y-128117258D01*
X76681100Y-128130366D01*
X76615314Y-128103668D01*
X76574406Y-128045642D01*
X76567721Y-128001368D01*
X76570777Y-127895304D01*
X76534689Y-127764733D01*
X76531527Y-127758908D01*
X76516613Y-127735942D01*
X76502263Y-127697407D01*
X76500593Y-127697886D01*
X76498119Y-127689259D01*
X76496893Y-127680365D01*
X76493221Y-127672175D01*
X76493220Y-127672172D01*
X76455618Y-127588310D01*
X76453626Y-127583867D01*
X76430005Y-127547493D01*
X76129988Y-127085509D01*
X76087663Y-127020335D01*
X76020028Y-126942940D01*
X76012460Y-126938109D01*
X76012456Y-126938106D01*
X76011322Y-126937382D01*
X76007170Y-126933559D01*
X76005655Y-126932256D01*
X76005699Y-126932205D01*
X75978850Y-126907484D01*
X75977192Y-126905305D01*
X75974627Y-126901356D01*
X75907480Y-126825593D01*
X75833292Y-126780397D01*
X75799834Y-126760014D01*
X75799832Y-126760013D01*
X75791790Y-126755114D01*
X75782664Y-126752796D01*
X75782661Y-126752795D01*
X75669620Y-126724086D01*
X75669617Y-126724086D01*
X75660491Y-126721768D01*
X75651086Y-126722236D01*
X75651083Y-126722236D01*
X75578755Y-126725837D01*
X75525191Y-126728504D01*
X75397854Y-126774725D01*
X75289736Y-126856346D01*
X75284217Y-126863984D01*
X75284216Y-126863985D01*
X75255008Y-126904408D01*
X75210397Y-126966149D01*
X75166854Y-127094427D01*
X75162953Y-127229838D01*
X75165461Y-127238911D01*
X75165461Y-127238914D01*
X75195300Y-127346876D01*
X75199040Y-127360409D01*
X75202203Y-127366234D01*
X75203548Y-127368305D01*
X75217117Y-127389200D01*
X75231467Y-127427735D01*
X75233137Y-127427256D01*
X75235611Y-127435883D01*
X75236837Y-127444777D01*
X75240509Y-127452967D01*
X75240510Y-127452970D01*
X75252893Y-127480587D01*
X75280104Y-127541275D01*
X75282755Y-127545357D01*
X75282756Y-127545359D01*
X75445770Y-127796378D01*
X75646067Y-128104807D01*
X75649015Y-128108181D01*
X75649017Y-128108183D01*
X75656948Y-128117258D01*
X75713702Y-128182202D01*
X75721270Y-128187033D01*
X75721274Y-128187036D01*
X75722408Y-128187760D01*
X75726560Y-128191583D01*
X75728075Y-128192886D01*
X75728031Y-128192937D01*
X75754880Y-128217658D01*
X75756538Y-128219837D01*
X75759103Y-128223786D01*
X75826250Y-128299549D01*
X75839013Y-128307325D01*
X75886782Y-128359845D01*
X75898573Y-128429856D01*
X75870641Y-128495127D01*
X75819919Y-128532051D01*
X75636471Y-128604819D01*
X75272020Y-128749385D01*
X75181677Y-128785221D01*
X75176146Y-128787266D01*
X74459001Y-129033551D01*
X74388078Y-129036760D01*
X74326679Y-129001114D01*
X74294297Y-128937932D01*
X74292862Y-128900338D01*
X74298535Y-128849759D01*
X74298928Y-128842735D01*
X74298928Y-128761635D01*
X74294453Y-128746396D01*
X74293063Y-128745191D01*
X74285380Y-128743520D01*
X72301043Y-128743520D01*
X72285804Y-128747995D01*
X72284599Y-128749385D01*
X72282928Y-128757068D01*
X72282928Y-128836177D01*
X72283229Y-128842325D01*
X72296740Y-128980123D01*
X72299123Y-128992158D01*
X72352695Y-129169596D01*
X72357369Y-129180936D01*
X72444388Y-129344597D01*
X72451176Y-129354813D01*
X72456201Y-129360975D01*
X72483753Y-129426408D01*
X72471556Y-129496349D01*
X72423483Y-129548593D01*
X72382395Y-129564333D01*
X72127009Y-129613537D01*
X71947449Y-129648131D01*
X71941632Y-129649111D01*
X71118099Y-129768110D01*
X71112242Y-129768817D01*
X70284011Y-129849141D01*
X70278127Y-129849572D01*
X69447085Y-129891038D01*
X69441193Y-129891194D01*
X68967123Y-129892630D01*
X68609105Y-129893715D01*
X68603207Y-129893595D01*
X67771910Y-129857165D01*
X67766024Y-129856769D01*
X67278195Y-129812441D01*
X66937342Y-129781468D01*
X66931497Y-129780799D01*
X66107220Y-129666787D01*
X66101419Y-129665846D01*
X65806518Y-129610881D01*
X65561114Y-129565141D01*
X65497812Y-129532996D01*
X65461937Y-129471729D01*
X65464881Y-129400794D01*
X65480234Y-129370093D01*
X65489634Y-129356364D01*
X65578930Y-129193935D01*
X65583762Y-129182662D01*
X65639808Y-129005982D01*
X65642358Y-128993988D01*
X65658535Y-128849759D01*
X65658928Y-128842735D01*
X65658928Y-128761635D01*
X65654453Y-128746396D01*
X65653063Y-128745191D01*
X65645380Y-128743520D01*
X63661043Y-128743520D01*
X63645804Y-128747995D01*
X63644599Y-128749385D01*
X63642928Y-128757068D01*
X63642928Y-128836177D01*
X63643229Y-128842326D01*
X63648898Y-128900149D01*
X63635638Y-128969896D01*
X63586775Y-129021403D01*
X63517823Y-129038316D01*
X63483297Y-129031858D01*
X62867569Y-128824565D01*
X62862023Y-128822553D01*
X62119107Y-128533060D01*
X62062897Y-128489689D01*
X62039058Y-128422815D01*
X62055159Y-128353668D01*
X62084795Y-128318363D01*
X62156388Y-128259452D01*
X62161937Y-128254886D01*
X62165971Y-128249628D01*
X62180886Y-128226661D01*
X62190330Y-128217405D01*
X63642928Y-128217405D01*
X63647403Y-128232644D01*
X63648793Y-128233849D01*
X63656476Y-128235520D01*
X64378813Y-128235520D01*
X64394052Y-128231045D01*
X64395257Y-128229655D01*
X64396928Y-128221972D01*
X64396928Y-128217405D01*
X64904928Y-128217405D01*
X64909403Y-128232644D01*
X64910793Y-128233849D01*
X64918476Y-128235520D01*
X65640813Y-128235520D01*
X65656052Y-128231045D01*
X65657257Y-128229655D01*
X65658928Y-128221972D01*
X65658928Y-128217405D01*
X72282928Y-128217405D01*
X72287403Y-128232644D01*
X72288793Y-128233849D01*
X72296476Y-128235520D01*
X73018813Y-128235520D01*
X73034052Y-128231045D01*
X73035257Y-128229655D01*
X73036928Y-128221972D01*
X73036928Y-128217405D01*
X73544928Y-128217405D01*
X73549403Y-128232644D01*
X73550793Y-128233849D01*
X73558476Y-128235520D01*
X74280813Y-128235520D01*
X74296052Y-128231045D01*
X74297257Y-128229655D01*
X74298928Y-128221972D01*
X74298928Y-128142863D01*
X74298627Y-128136715D01*
X74285116Y-127998917D01*
X74282733Y-127986882D01*
X74229161Y-127809444D01*
X74224487Y-127798104D01*
X74137468Y-127634443D01*
X74130679Y-127624226D01*
X74013531Y-127480587D01*
X74004887Y-127471883D01*
X73862072Y-127353736D01*
X73851901Y-127346876D01*
X73688852Y-127258716D01*
X73677547Y-127253964D01*
X73562236Y-127218270D01*
X73548133Y-127218064D01*
X73544928Y-127224819D01*
X73544928Y-128217405D01*
X73036928Y-128217405D01*
X73036928Y-127231596D01*
X73032955Y-127218065D01*
X73025160Y-127216945D01*
X72917407Y-127248658D01*
X72906039Y-127253251D01*
X72741774Y-127339127D01*
X72731513Y-127345841D01*
X72587056Y-127461987D01*
X72578296Y-127470566D01*
X72459150Y-127612559D01*
X72452220Y-127622679D01*
X72362926Y-127785105D01*
X72358094Y-127796378D01*
X72302048Y-127973058D01*
X72299498Y-127985052D01*
X72283321Y-128129281D01*
X72282928Y-128136305D01*
X72282928Y-128217405D01*
X65658928Y-128217405D01*
X65658928Y-128142863D01*
X65658627Y-128136715D01*
X65645116Y-127998917D01*
X65642733Y-127986882D01*
X65589161Y-127809444D01*
X65584487Y-127798104D01*
X65497468Y-127634443D01*
X65490679Y-127624226D01*
X65373531Y-127480587D01*
X65364887Y-127471883D01*
X65222072Y-127353736D01*
X65211901Y-127346876D01*
X65048852Y-127258716D01*
X65037547Y-127253964D01*
X64922236Y-127218270D01*
X64908133Y-127218064D01*
X64904928Y-127224819D01*
X64904928Y-128217405D01*
X64396928Y-128217405D01*
X64396928Y-127231596D01*
X64392955Y-127218065D01*
X64385160Y-127216945D01*
X64277407Y-127248658D01*
X64266039Y-127253251D01*
X64101774Y-127339127D01*
X64091513Y-127345841D01*
X63947056Y-127461987D01*
X63938296Y-127470566D01*
X63819150Y-127612559D01*
X63812220Y-127622679D01*
X63722926Y-127785105D01*
X63718094Y-127796378D01*
X63662048Y-127973058D01*
X63659498Y-127985052D01*
X63643321Y-128129281D01*
X63642928Y-128136305D01*
X63642928Y-128217405D01*
X62190330Y-128217405D01*
X62210251Y-128197881D01*
X62209134Y-128196549D01*
X62216013Y-128190777D01*
X62223635Y-128186042D01*
X62230044Y-128178887D01*
X62290948Y-128110888D01*
X62290949Y-128110887D01*
X62294192Y-128107266D01*
X62482918Y-127816654D01*
X62657714Y-127547493D01*
X62657715Y-127547492D01*
X62660155Y-127543734D01*
X62698014Y-127461987D01*
X62699577Y-127458613D01*
X62699578Y-127458609D01*
X62703349Y-127450467D01*
X62704885Y-127440250D01*
X62706699Y-127434872D01*
X62707263Y-127432992D01*
X62707327Y-127433011D01*
X62718993Y-127398423D01*
X62720311Y-127396018D01*
X62722871Y-127392076D01*
X62764773Y-127299917D01*
X62775331Y-127218064D01*
X62780899Y-127174902D01*
X62780899Y-127174899D01*
X62782103Y-127165564D01*
X62759162Y-127032053D01*
X62751986Y-127017876D01*
X62702232Y-126919595D01*
X62697977Y-126911190D01*
X62627409Y-126837986D01*
X62594531Y-126775062D01*
X62600893Y-126704351D01*
X62644474Y-126648304D01*
X62718122Y-126624539D01*
X69172658Y-126624539D01*
X69197239Y-126626960D01*
X69197571Y-126627026D01*
X69197572Y-126627026D01*
X69209743Y-126629447D01*
X69221914Y-126627026D01*
X69295313Y-126612426D01*
X69307484Y-126610005D01*
X69337279Y-126590096D01*
X69390344Y-126554640D01*
X69397236Y-126544325D01*
X69397238Y-126544323D01*
X69397431Y-126544034D01*
X69413101Y-126524941D01*
X71069716Y-124868326D01*
X71132028Y-124834300D01*
X71202843Y-124839365D01*
X71259679Y-124881912D01*
X71283733Y-124940974D01*
X71290499Y-124992366D01*
X71349495Y-125134796D01*
X71443345Y-125257103D01*
X71565652Y-125350953D01*
X71708082Y-125409949D01*
X71822555Y-125425020D01*
X71899301Y-125425020D01*
X72013774Y-125409949D01*
X72156204Y-125350953D01*
X72173033Y-125338040D01*
X72196445Y-125320075D01*
X72218767Y-125302947D01*
X72284986Y-125277346D01*
X72354535Y-125291610D01*
X72406722Y-125343757D01*
X72444385Y-125414593D01*
X72451177Y-125424814D01*
X72568325Y-125568453D01*
X72576969Y-125577157D01*
X72719784Y-125695304D01*
X72729955Y-125702164D01*
X72893004Y-125790324D01*
X72904309Y-125795076D01*
X73019620Y-125830770D01*
X73033723Y-125830976D01*
X73036928Y-125824221D01*
X73036928Y-125817444D01*
X73544928Y-125817444D01*
X73548901Y-125830975D01*
X73556696Y-125832095D01*
X73664449Y-125800382D01*
X73675817Y-125795789D01*
X73840082Y-125709913D01*
X73850343Y-125703199D01*
X73994801Y-125587052D01*
X74003560Y-125578474D01*
X74122706Y-125436481D01*
X74129636Y-125426361D01*
X74218930Y-125263935D01*
X74223762Y-125252662D01*
X74279808Y-125075982D01*
X74282358Y-125063988D01*
X74298535Y-124919759D01*
X74298928Y-124912735D01*
X74298928Y-124581635D01*
X74294453Y-124566396D01*
X74293063Y-124565191D01*
X74285380Y-124563520D01*
X73563043Y-124563520D01*
X73547804Y-124567995D01*
X73546599Y-124569385D01*
X73544928Y-124577068D01*
X73544928Y-125817444D01*
X73036928Y-125817444D01*
X73036928Y-124181520D01*
X73056930Y-124113399D01*
X73110586Y-124066906D01*
X73162928Y-124055520D01*
X74280813Y-124055520D01*
X74296052Y-124051045D01*
X74297257Y-124049655D01*
X74298928Y-124041972D01*
X74298928Y-123712863D01*
X74298627Y-123706715D01*
X74285116Y-123568917D01*
X74282733Y-123556882D01*
X74229161Y-123379444D01*
X74224487Y-123368104D01*
X74137468Y-123204443D01*
X74130679Y-123194226D01*
X74013531Y-123050587D01*
X74004887Y-123041883D01*
X73946504Y-122993585D01*
X73906766Y-122934751D01*
X73905143Y-122863773D01*
X73942152Y-122803186D01*
X74006042Y-122772225D01*
X74026819Y-122770500D01*
X77625462Y-122770500D01*
X77650043Y-122772921D01*
X77650375Y-122772987D01*
X77650376Y-122772987D01*
X77662547Y-122775408D01*
X77674718Y-122772987D01*
X77748117Y-122758387D01*
X77760288Y-122755966D01*
X77790083Y-122736057D01*
X77843148Y-122700601D01*
X77850040Y-122690286D01*
X77850042Y-122690284D01*
X77850235Y-122689995D01*
X77865905Y-122670902D01*
X80471830Y-120064977D01*
X80490923Y-120049307D01*
X80491212Y-120049114D01*
X80491214Y-120049112D01*
X80501529Y-120042220D01*
X80528891Y-120001269D01*
X80550000Y-119969677D01*
X80550000Y-119969676D01*
X80556894Y-119959359D01*
X80571428Y-119886293D01*
X80571428Y-119886292D01*
X80576336Y-119861619D01*
X80573849Y-119849116D01*
X80571428Y-119824534D01*
X80571428Y-119383732D01*
X80573849Y-119359151D01*
X80573915Y-119358819D01*
X80573915Y-119358818D01*
X80576336Y-119346647D01*
X80564684Y-119288067D01*
X80559315Y-119261077D01*
X80556894Y-119248906D01*
X80527865Y-119205462D01*
X80525494Y-119201914D01*
X80508425Y-119176366D01*
X80508423Y-119176364D01*
X80501529Y-119166046D01*
X80491211Y-119159152D01*
X80491209Y-119159150D01*
X80490923Y-119158959D01*
X80471830Y-119143289D01*
X80429405Y-119100864D01*
X80395379Y-119038552D01*
X80400444Y-118967737D01*
X80442991Y-118910901D01*
X80452572Y-118904394D01*
X80534000Y-118854398D01*
X80534003Y-118854395D01*
X80541652Y-118849699D01*
X80550894Y-118839489D01*
X80622228Y-118760681D01*
X80622231Y-118760677D01*
X80628250Y-118754027D01*
X80648945Y-118711313D01*
X80696649Y-118658731D01*
X80765207Y-118640286D01*
X80832855Y-118661834D01*
X80851432Y-118677158D01*
X81143123Y-118968849D01*
X81177149Y-119031161D01*
X81180028Y-119057944D01*
X81180028Y-120066787D01*
X81160026Y-120134908D01*
X81148471Y-120150193D01*
X81075124Y-120233242D01*
X81071310Y-120241365D01*
X81071309Y-120241367D01*
X81065685Y-120253346D01*
X81020282Y-120350052D01*
X81014173Y-120389286D01*
X81001810Y-120468687D01*
X81001810Y-120468691D01*
X81000429Y-120477560D01*
X81001593Y-120486464D01*
X81001484Y-120495436D01*
X80997998Y-120495393D01*
X80989606Y-120548963D01*
X80964756Y-120584276D01*
X76142820Y-125406212D01*
X76080508Y-125440238D01*
X76009693Y-125435173D01*
X75985195Y-125422851D01*
X75962900Y-125408401D01*
X75962899Y-125408400D01*
X75955369Y-125403520D01*
X75946774Y-125400950D01*
X75946773Y-125400949D01*
X75840337Y-125369117D01*
X75840335Y-125369117D01*
X75831736Y-125366545D01*
X75822761Y-125366490D01*
X75822760Y-125366490D01*
X75768104Y-125366156D01*
X75702694Y-125365757D01*
X75690938Y-125369117D01*
X75587249Y-125398751D01*
X75587247Y-125398752D01*
X75578618Y-125401218D01*
X75571028Y-125406007D01*
X75485623Y-125459894D01*
X75469482Y-125470078D01*
X75463539Y-125476807D01*
X75463538Y-125476808D01*
X75449516Y-125492685D01*
X75384059Y-125566801D01*
X75380245Y-125574924D01*
X75380244Y-125574926D01*
X75366941Y-125603261D01*
X75329217Y-125683611D01*
X75320886Y-125737115D01*
X75310745Y-125802246D01*
X75310745Y-125802250D01*
X75309364Y-125811119D01*
X75310528Y-125820021D01*
X75310528Y-125820024D01*
X75324931Y-125930168D01*
X75324932Y-125930172D01*
X75326096Y-125939073D01*
X75336234Y-125962113D01*
X75373370Y-126046511D01*
X75378068Y-126057189D01*
X75383845Y-126064062D01*
X75383846Y-126064063D01*
X75455322Y-126149094D01*
X75461102Y-126155970D01*
X75568523Y-126227475D01*
X75691696Y-126265957D01*
X75700666Y-126266121D01*
X75700670Y-126266122D01*
X75759405Y-126267198D01*
X75820718Y-126268322D01*
X75882968Y-126251350D01*
X75936555Y-126236741D01*
X75936556Y-126236741D01*
X75945218Y-126234379D01*
X75952868Y-126229682D01*
X75952870Y-126229681D01*
X76047535Y-126171557D01*
X76047538Y-126171554D01*
X76055187Y-126166858D01*
X76089042Y-126129456D01*
X76149583Y-126092376D01*
X76157870Y-126090435D01*
X76180032Y-126086027D01*
X76217294Y-126078615D01*
X76217295Y-126078615D01*
X76229464Y-126076194D01*
X76273887Y-126046511D01*
X76273887Y-126046512D01*
X76273890Y-126046509D01*
X76297591Y-126030673D01*
X76300158Y-126034514D01*
X76300159Y-126034513D01*
X76297592Y-126030672D01*
X76310280Y-126022194D01*
X76320593Y-126015303D01*
X76329071Y-126002615D01*
X76344741Y-125983523D01*
X81357765Y-120970499D01*
X81420077Y-120936473D01*
X81449167Y-120933615D01*
X81511783Y-120934763D01*
X81616282Y-120906273D01*
X81627620Y-120903182D01*
X81627621Y-120903182D01*
X81636283Y-120900820D01*
X81643933Y-120896123D01*
X81643935Y-120896122D01*
X81738600Y-120837998D01*
X81738603Y-120837995D01*
X81746252Y-120833299D01*
X81752278Y-120826642D01*
X81826828Y-120744281D01*
X81826831Y-120744277D01*
X81832850Y-120737627D01*
X81889116Y-120621495D01*
X81891672Y-120606306D01*
X81909718Y-120499037D01*
X81910525Y-120494240D01*
X81910661Y-120483120D01*
X81897223Y-120389286D01*
X81893640Y-120364265D01*
X81893639Y-120364262D01*
X81892367Y-120355379D01*
X81888653Y-120347210D01*
X81842673Y-120246082D01*
X81842671Y-120246079D01*
X81838956Y-120237908D01*
X81788067Y-120178848D01*
X81761574Y-120148101D01*
X81732261Y-120083439D01*
X81731028Y-120065854D01*
X81731028Y-118931175D01*
X81733449Y-118906595D01*
X81734003Y-118903810D01*
X81736424Y-118891638D01*
X81731028Y-118864509D01*
X81731028Y-118864505D01*
X81715043Y-118784143D01*
X81708675Y-118774612D01*
X81669522Y-118716016D01*
X81669521Y-118716015D01*
X81654152Y-118693014D01*
X81641464Y-118684536D01*
X81622372Y-118668866D01*
X80937853Y-117984347D01*
X80903827Y-117922035D01*
X80900948Y-117895252D01*
X80900948Y-117544123D01*
X80920950Y-117476002D01*
X80974606Y-117429509D01*
X81044880Y-117419405D01*
X81109460Y-117448899D01*
G37*
G04 #@! TD.AperFunction*
G04 #@! TA.AperFunction,Conductor*
G36*
X63674272Y-120204659D02*
G01*
X63692850Y-120219983D01*
X67793523Y-124320656D01*
X67827549Y-124382968D01*
X67830428Y-124409751D01*
X67830428Y-124510073D01*
X67810426Y-124578194D01*
X67789289Y-124602370D01*
X67785947Y-124604478D01*
X67700524Y-124701201D01*
X67696710Y-124709324D01*
X67696709Y-124709326D01*
X67676793Y-124751747D01*
X67645682Y-124818011D01*
X67640106Y-124853825D01*
X67627210Y-124936646D01*
X67627210Y-124936650D01*
X67625829Y-124945519D01*
X67626993Y-124954421D01*
X67626993Y-124954424D01*
X67641396Y-125064568D01*
X67641397Y-125064572D01*
X67642561Y-125073473D01*
X67694533Y-125191589D01*
X67700310Y-125198462D01*
X67700311Y-125198463D01*
X67744097Y-125250553D01*
X67777567Y-125290370D01*
X67785044Y-125295347D01*
X67861027Y-125345925D01*
X67884988Y-125361875D01*
X68008161Y-125400357D01*
X68017131Y-125400521D01*
X68017135Y-125400522D01*
X68075870Y-125401598D01*
X68137183Y-125402722D01*
X68199433Y-125385750D01*
X68253020Y-125371141D01*
X68253021Y-125371141D01*
X68261683Y-125368779D01*
X68269333Y-125364082D01*
X68269335Y-125364081D01*
X68364000Y-125305957D01*
X68364003Y-125305954D01*
X68371652Y-125301258D01*
X68377678Y-125294601D01*
X68452228Y-125212240D01*
X68452231Y-125212236D01*
X68458250Y-125205586D01*
X68514516Y-125089454D01*
X68516005Y-125080605D01*
X68535118Y-124966998D01*
X68535118Y-124966993D01*
X68535925Y-124962199D01*
X68536608Y-124962314D01*
X68561233Y-124899774D01*
X68618830Y-124858264D01*
X68663025Y-124851118D01*
X68777183Y-124853211D01*
X68846547Y-124834300D01*
X68893020Y-124821630D01*
X68893021Y-124821630D01*
X68901683Y-124819268D01*
X68909333Y-124814571D01*
X68909335Y-124814570D01*
X68995693Y-124761546D01*
X69061621Y-124742921D01*
X69383253Y-124742921D01*
X69451374Y-124762923D01*
X69479704Y-124787846D01*
X69510800Y-124824839D01*
X69510802Y-124824841D01*
X69516578Y-124831712D01*
X69620849Y-124901120D01*
X69666470Y-124955515D01*
X69675442Y-125025943D01*
X69640125Y-125095101D01*
X68998112Y-125737115D01*
X68935799Y-125771140D01*
X68909016Y-125774020D01*
X65469686Y-125774020D01*
X65401565Y-125754018D01*
X65355072Y-125700362D01*
X65344968Y-125630088D01*
X65373164Y-125567029D01*
X65482706Y-125436481D01*
X65489633Y-125426364D01*
X65535921Y-125342168D01*
X65586267Y-125292110D01*
X65655684Y-125277217D01*
X65723039Y-125302908D01*
X65768824Y-125338040D01*
X65785652Y-125350953D01*
X65928082Y-125409949D01*
X66042555Y-125425020D01*
X66119301Y-125425020D01*
X66233774Y-125409949D01*
X66376204Y-125350953D01*
X66498511Y-125257103D01*
X66592361Y-125134796D01*
X66651357Y-124992366D01*
X66671480Y-124839520D01*
X66651357Y-124686674D01*
X66592361Y-124544244D01*
X66498511Y-124421937D01*
X66376204Y-124328087D01*
X66233774Y-124269091D01*
X66119301Y-124254020D01*
X66042555Y-124254020D01*
X65928082Y-124269091D01*
X65920449Y-124272253D01*
X65920448Y-124272253D01*
X65833145Y-124308414D01*
X65762555Y-124316003D01*
X65699069Y-124284223D01*
X65662842Y-124223165D01*
X65658928Y-124192005D01*
X65658928Y-123712863D01*
X65658627Y-123706715D01*
X65645116Y-123568917D01*
X65642733Y-123556882D01*
X65589161Y-123379444D01*
X65584487Y-123368104D01*
X65497468Y-123204443D01*
X65490679Y-123194226D01*
X65373531Y-123050587D01*
X65364887Y-123041883D01*
X65222072Y-122923736D01*
X65211901Y-122916876D01*
X65048852Y-122828716D01*
X65037547Y-122823964D01*
X64922236Y-122788270D01*
X64908133Y-122788064D01*
X64904928Y-122794819D01*
X64904928Y-124437520D01*
X64884926Y-124505641D01*
X64831270Y-124552134D01*
X64778928Y-124563520D01*
X63661043Y-124563520D01*
X63645804Y-124567995D01*
X63644599Y-124569385D01*
X63642928Y-124577068D01*
X63642928Y-124906177D01*
X63643229Y-124912325D01*
X63656740Y-125050123D01*
X63659123Y-125062158D01*
X63712695Y-125239596D01*
X63717369Y-125250936D01*
X63804388Y-125414597D01*
X63811177Y-125424814D01*
X63928269Y-125568384D01*
X63955823Y-125633816D01*
X63943628Y-125703757D01*
X63895555Y-125756002D01*
X63830626Y-125774020D01*
X61556178Y-125774020D01*
X61488057Y-125754018D01*
X61467083Y-125737115D01*
X59855874Y-124125906D01*
X59821848Y-124063594D01*
X59821226Y-124037405D01*
X63642928Y-124037405D01*
X63647403Y-124052644D01*
X63648793Y-124053849D01*
X63656476Y-124055520D01*
X64378813Y-124055520D01*
X64394052Y-124051045D01*
X64395257Y-124049655D01*
X64396928Y-124041972D01*
X64396928Y-122801596D01*
X64392955Y-122788065D01*
X64385160Y-122786945D01*
X64277407Y-122818658D01*
X64266039Y-122823251D01*
X64101774Y-122909127D01*
X64091513Y-122915841D01*
X63947055Y-123031988D01*
X63938296Y-123040566D01*
X63819150Y-123182559D01*
X63812220Y-123192679D01*
X63722926Y-123355105D01*
X63718094Y-123366378D01*
X63662048Y-123543058D01*
X63659498Y-123555052D01*
X63643321Y-123699281D01*
X63642928Y-123706305D01*
X63642928Y-124037405D01*
X59821226Y-124037405D01*
X59820715Y-124015906D01*
X59822036Y-124008052D01*
X59822843Y-124003258D01*
X59822979Y-123992138D01*
X59804685Y-123864397D01*
X59751274Y-123746926D01*
X59710221Y-123699281D01*
X59672897Y-123655964D01*
X59672895Y-123655962D01*
X59667039Y-123649166D01*
X59558752Y-123578979D01*
X59550157Y-123576409D01*
X59550156Y-123576408D01*
X59443720Y-123544576D01*
X59443718Y-123544576D01*
X59435119Y-123542004D01*
X59426144Y-123541949D01*
X59426143Y-123541949D01*
X59371487Y-123541615D01*
X59306077Y-123541216D01*
X59261326Y-123554006D01*
X59190632Y-123574210D01*
X59190630Y-123574211D01*
X59182001Y-123576677D01*
X59174411Y-123581466D01*
X59114236Y-123619434D01*
X59072865Y-123645537D01*
X58987442Y-123742260D01*
X58970303Y-123778765D01*
X58923248Y-123831927D01*
X58854920Y-123851210D01*
X58787014Y-123830491D01*
X58767153Y-123814312D01*
X58608866Y-123656025D01*
X58593196Y-123636932D01*
X58593003Y-123636643D01*
X58593001Y-123636641D01*
X58586109Y-123626326D01*
X58533044Y-123590870D01*
X58518971Y-123581466D01*
X58513568Y-123577856D01*
X58513567Y-123577856D01*
X58503249Y-123570961D01*
X58405508Y-123551519D01*
X58393337Y-123553940D01*
X58393336Y-123553940D01*
X58393004Y-123554006D01*
X58368423Y-123556427D01*
X56277158Y-123556427D01*
X56209037Y-123536425D01*
X56188063Y-123519522D01*
X55886042Y-123217501D01*
X55852016Y-123155189D01*
X55857081Y-123084374D01*
X55899628Y-123027538D01*
X55909209Y-123021031D01*
X55990637Y-122971035D01*
X55990640Y-122971032D01*
X55998289Y-122966336D01*
X56004315Y-122959679D01*
X56078865Y-122877318D01*
X56078868Y-122877314D01*
X56084887Y-122870664D01*
X56141153Y-122754532D01*
X56146520Y-122722634D01*
X56161755Y-122632074D01*
X56162562Y-122627277D01*
X56162698Y-122616157D01*
X56148042Y-122513816D01*
X56145677Y-122497302D01*
X56145676Y-122497299D01*
X56144404Y-122488416D01*
X56122256Y-122439704D01*
X56094710Y-122379119D01*
X56094708Y-122379116D01*
X56090993Y-122370945D01*
X56085132Y-122364143D01*
X56080297Y-122356583D01*
X56082667Y-122355067D01*
X56059299Y-122303526D01*
X56058065Y-122285934D01*
X56058065Y-121511707D01*
X56078067Y-121443586D01*
X56094970Y-121422612D01*
X56649656Y-120867926D01*
X56711968Y-120833900D01*
X56782783Y-120838965D01*
X56839619Y-120881512D01*
X56854079Y-120906273D01*
X56857441Y-120913913D01*
X56864533Y-120930030D01*
X56870310Y-120936903D01*
X56870311Y-120936904D01*
X56938124Y-121017577D01*
X56947567Y-121028811D01*
X57054988Y-121100316D01*
X57178161Y-121138798D01*
X57187131Y-121138962D01*
X57187135Y-121138963D01*
X57245870Y-121140039D01*
X57307183Y-121141163D01*
X57421406Y-121110022D01*
X57423020Y-121109582D01*
X57423021Y-121109582D01*
X57431683Y-121107220D01*
X57439335Y-121102522D01*
X57444277Y-121100383D01*
X57494318Y-121090020D01*
X59997845Y-121090020D01*
X60065966Y-121110022D01*
X60086940Y-121126925D01*
X61520271Y-122560256D01*
X61546505Y-122598605D01*
X61580916Y-122676810D01*
X61584533Y-122685030D01*
X61590310Y-122691903D01*
X61590311Y-122691904D01*
X61661787Y-122776935D01*
X61667567Y-122783811D01*
X61774988Y-122855316D01*
X61898161Y-122893798D01*
X61907131Y-122893962D01*
X61907135Y-122893963D01*
X61965870Y-122895039D01*
X62027183Y-122896163D01*
X62120711Y-122870664D01*
X62143020Y-122864582D01*
X62143021Y-122864582D01*
X62151683Y-122862220D01*
X62159333Y-122857523D01*
X62159335Y-122857522D01*
X62254000Y-122799398D01*
X62254003Y-122799395D01*
X62261652Y-122794699D01*
X62268671Y-122786945D01*
X62342228Y-122705681D01*
X62342231Y-122705677D01*
X62348250Y-122699027D01*
X62404516Y-122582895D01*
X62406895Y-122568758D01*
X62425118Y-122460437D01*
X62425925Y-122455640D01*
X62426061Y-122444520D01*
X62415524Y-122370945D01*
X62409040Y-122325665D01*
X62409039Y-122325662D01*
X62407767Y-122316779D01*
X62388174Y-122273686D01*
X62358073Y-122207482D01*
X62358071Y-122207479D01*
X62354356Y-122199308D01*
X62300320Y-122136596D01*
X62275979Y-122108346D01*
X62275977Y-122108344D01*
X62270121Y-122101548D01*
X62161834Y-122031361D01*
X62138575Y-122024405D01*
X62085584Y-121992783D01*
X60698405Y-120605604D01*
X60664379Y-120543292D01*
X60669444Y-120472477D01*
X60711991Y-120415641D01*
X60778511Y-120390830D01*
X60787500Y-120390509D01*
X62764211Y-120390509D01*
X62834029Y-120411621D01*
X62844816Y-120418801D01*
X62896406Y-120453142D01*
X62904979Y-120455820D01*
X62904978Y-120455820D01*
X62992206Y-120483072D01*
X63019579Y-120491624D01*
X63028549Y-120491788D01*
X63028553Y-120491789D01*
X63087288Y-120492865D01*
X63148601Y-120493989D01*
X63227505Y-120472477D01*
X63264438Y-120462408D01*
X63264439Y-120462408D01*
X63273101Y-120460046D01*
X63280751Y-120455349D01*
X63280753Y-120455348D01*
X63375418Y-120397224D01*
X63375421Y-120397221D01*
X63383070Y-120392525D01*
X63408650Y-120364265D01*
X63463646Y-120303507D01*
X63463649Y-120303503D01*
X63469668Y-120296853D01*
X63490363Y-120254139D01*
X63538066Y-120201556D01*
X63606624Y-120183111D01*
X63674272Y-120204659D01*
G37*
G04 #@! TD.AperFunction*
G04 #@! TA.AperFunction,Conductor*
G36*
X68998901Y-94106524D02*
G01*
X69409995Y-94107053D01*
X69415874Y-94107199D01*
X69688230Y-94120312D01*
X70246996Y-94147216D01*
X70252880Y-94147637D01*
X70770643Y-94196939D01*
X71081260Y-94226516D01*
X71087093Y-94227210D01*
X71910854Y-94344776D01*
X71916650Y-94345742D01*
X72686464Y-94492664D01*
X72733992Y-94501735D01*
X72739760Y-94502976D01*
X73548940Y-94697065D01*
X73554600Y-94698563D01*
X74353788Y-94930309D01*
X74359390Y-94932076D01*
X75044138Y-95165901D01*
X75146874Y-95200983D01*
X75152410Y-95203020D01*
X75821948Y-95467254D01*
X75877970Y-95510867D01*
X75901520Y-95577844D01*
X75885121Y-95646920D01*
X75855755Y-95681752D01*
X75779919Y-95744155D01*
X75775885Y-95749412D01*
X75774538Y-95751486D01*
X75774536Y-95751489D01*
X75760970Y-95772379D01*
X75731605Y-95801159D01*
X75732722Y-95802491D01*
X75725843Y-95808263D01*
X75718221Y-95812998D01*
X75712236Y-95819680D01*
X75712235Y-95819681D01*
X75655816Y-95882672D01*
X75647664Y-95891774D01*
X75645015Y-95895852D01*
X75645015Y-95895853D01*
X75287550Y-96446300D01*
X75281701Y-96455306D01*
X75278505Y-96462208D01*
X75242279Y-96540427D01*
X75242278Y-96540431D01*
X75238507Y-96548573D01*
X75237173Y-96557447D01*
X75237172Y-96557450D01*
X75236971Y-96558790D01*
X75235157Y-96564168D01*
X75234593Y-96566048D01*
X75234529Y-96566029D01*
X75222863Y-96600617D01*
X75221545Y-96603022D01*
X75218985Y-96606964D01*
X75177083Y-96699123D01*
X75175879Y-96708460D01*
X75163311Y-96805894D01*
X75159753Y-96833476D01*
X75182694Y-96966987D01*
X75186948Y-96975391D01*
X75186949Y-96975393D01*
X75238380Y-97076987D01*
X75243879Y-97087850D01*
X75256754Y-97101206D01*
X75273814Y-97118903D01*
X75306691Y-97181828D01*
X75300329Y-97252539D01*
X75256747Y-97308585D01*
X75183100Y-97332350D01*
X72727264Y-97332350D01*
X72659143Y-97312348D01*
X72638169Y-97295445D01*
X71912788Y-96570064D01*
X71878762Y-96507752D01*
X71877630Y-96460062D01*
X71879946Y-96446300D01*
X71879947Y-96446291D01*
X71880753Y-96441499D01*
X71880902Y-96429320D01*
X71866230Y-96326868D01*
X71862139Y-96298301D01*
X71862138Y-96298298D01*
X71860866Y-96289415D01*
X71848901Y-96263098D01*
X71806085Y-96168931D01*
X71802369Y-96160757D01*
X71710112Y-96053688D01*
X71591514Y-95976817D01*
X71520631Y-95955618D01*
X71464708Y-95938893D01*
X71464706Y-95938893D01*
X71456107Y-95936321D01*
X71447132Y-95936266D01*
X71447131Y-95936266D01*
X71386417Y-95935895D01*
X71314777Y-95935458D01*
X71178886Y-95974296D01*
X71059357Y-96049713D01*
X70965800Y-96155646D01*
X70961986Y-96163769D01*
X70961985Y-96163771D01*
X70940545Y-96209438D01*
X70905735Y-96283580D01*
X70904355Y-96292444D01*
X70904354Y-96292447D01*
X70899385Y-96324365D01*
X70883991Y-96423230D01*
X70885155Y-96432132D01*
X70885155Y-96432135D01*
X70900382Y-96548573D01*
X70902317Y-96563370D01*
X70959238Y-96692733D01*
X71050179Y-96800920D01*
X71057650Y-96805893D01*
X71057651Y-96805894D01*
X71160356Y-96874261D01*
X71160359Y-96874262D01*
X71167829Y-96879235D01*
X71176393Y-96881911D01*
X71176396Y-96881912D01*
X71218932Y-96895201D01*
X71302731Y-96921382D01*
X71437441Y-96923851D01*
X71505184Y-96945098D01*
X71524227Y-96960735D01*
X72338187Y-97774695D01*
X72353854Y-97793784D01*
X72362334Y-97806474D01*
X72372647Y-97813365D01*
X72385335Y-97821843D01*
X72383746Y-97824220D01*
X72383748Y-97824221D01*
X72385336Y-97821844D01*
X72411490Y-97839319D01*
X72411492Y-97839322D01*
X72411493Y-97839321D01*
X72453463Y-97867365D01*
X72465632Y-97869786D01*
X72465633Y-97869786D01*
X72533825Y-97883350D01*
X72548786Y-97886326D01*
X72548787Y-97886326D01*
X72560958Y-97888747D01*
X72575919Y-97885771D01*
X72600501Y-97883350D01*
X72705810Y-97883350D01*
X72773931Y-97903352D01*
X72820424Y-97957008D01*
X72830528Y-98027282D01*
X72801034Y-98091862D01*
X72794905Y-98098445D01*
X66818115Y-104075235D01*
X66799023Y-104090905D01*
X66786335Y-104099383D01*
X66725444Y-104190512D01*
X66715038Y-104242827D01*
X66704062Y-104298007D01*
X66706483Y-104310178D01*
X66707038Y-104312968D01*
X66709459Y-104337550D01*
X66709459Y-105111763D01*
X66689457Y-105179884D01*
X66635801Y-105226377D01*
X66565527Y-105236481D01*
X66500947Y-105206987D01*
X66494364Y-105200858D01*
X65971682Y-104678176D01*
X65956012Y-104659084D01*
X65954425Y-104656709D01*
X65947534Y-104646396D01*
X65924533Y-104631027D01*
X65926122Y-104628650D01*
X65926120Y-104628649D01*
X65924532Y-104631026D01*
X65898378Y-104613551D01*
X65898376Y-104613548D01*
X65898375Y-104613549D01*
X65866721Y-104592398D01*
X65856405Y-104585505D01*
X65844236Y-104583084D01*
X65844235Y-104583084D01*
X65776043Y-104569520D01*
X65761082Y-104566544D01*
X65761081Y-104566544D01*
X65748910Y-104564123D01*
X65736739Y-104566544D01*
X65733949Y-104567099D01*
X65709367Y-104569520D01*
X62748734Y-104569520D01*
X62680613Y-104549518D01*
X62659639Y-104532615D01*
X60452778Y-102325754D01*
X60418752Y-102263442D01*
X60416958Y-102234653D01*
X60415925Y-102234640D01*
X60416002Y-102228379D01*
X60416002Y-102228373D01*
X60416061Y-102223520D01*
X60397767Y-102095779D01*
X60372924Y-102041140D01*
X60348073Y-101986482D01*
X60348071Y-101986479D01*
X60344356Y-101978308D01*
X60283732Y-101907950D01*
X60265979Y-101887346D01*
X60265977Y-101887344D01*
X60260121Y-101880548D01*
X60151834Y-101810361D01*
X60143239Y-101807791D01*
X60143238Y-101807790D01*
X60036802Y-101775958D01*
X60036800Y-101775958D01*
X60028201Y-101773386D01*
X60019226Y-101773331D01*
X60019225Y-101773331D01*
X59964569Y-101772997D01*
X59899159Y-101772598D01*
X59859016Y-101784071D01*
X59783714Y-101805592D01*
X59783712Y-101805593D01*
X59775083Y-101808059D01*
X59767493Y-101812848D01*
X59687933Y-101863047D01*
X59665947Y-101876919D01*
X59580524Y-101973642D01*
X59576710Y-101981765D01*
X59576709Y-101981767D01*
X59565656Y-102005309D01*
X59525682Y-102090452D01*
X59524302Y-102099318D01*
X59507210Y-102209087D01*
X59507210Y-102209091D01*
X59505829Y-102217960D01*
X59506993Y-102226862D01*
X59506993Y-102226865D01*
X59521396Y-102337009D01*
X59521397Y-102337013D01*
X59522561Y-102345914D01*
X59547668Y-102402975D01*
X59563440Y-102438818D01*
X59574533Y-102464030D01*
X59580310Y-102470903D01*
X59580311Y-102470904D01*
X59580584Y-102471229D01*
X59657567Y-102562811D01*
X59764988Y-102634316D01*
X59888161Y-102672798D01*
X59897131Y-102672962D01*
X59897135Y-102672963D01*
X59972229Y-102674339D01*
X60039972Y-102695586D01*
X60059015Y-102711223D01*
X62136717Y-104788925D01*
X62170743Y-104851237D01*
X62165678Y-104922052D01*
X62123131Y-104978888D01*
X62056611Y-105003699D01*
X62047622Y-105004020D01*
X60877234Y-105004020D01*
X60809113Y-104984018D01*
X60788139Y-104967115D01*
X59313700Y-103492676D01*
X59298030Y-103473584D01*
X59296443Y-103471209D01*
X59289552Y-103460896D01*
X59266551Y-103445527D01*
X59268140Y-103443150D01*
X59268138Y-103443149D01*
X59266550Y-103445526D01*
X59240396Y-103428051D01*
X59240394Y-103428048D01*
X59240393Y-103428049D01*
X59208739Y-103406898D01*
X59198423Y-103400005D01*
X59186254Y-103397584D01*
X59186253Y-103397584D01*
X59118061Y-103384020D01*
X59103100Y-103381044D01*
X59103099Y-103381044D01*
X59090928Y-103378623D01*
X59078757Y-103381044D01*
X59075967Y-103381599D01*
X59051385Y-103384020D01*
X56315471Y-103384020D01*
X56290889Y-103381599D01*
X56288099Y-103381044D01*
X56275928Y-103378623D01*
X56263757Y-103381044D01*
X56248796Y-103384020D01*
X56248795Y-103384020D01*
X56168433Y-103400005D01*
X56126463Y-103428049D01*
X56126463Y-103428048D01*
X56126460Y-103428051D01*
X56106055Y-103441685D01*
X56100306Y-103445526D01*
X56097739Y-103441685D01*
X56097738Y-103441686D01*
X56100305Y-103445527D01*
X56077304Y-103460896D01*
X56070413Y-103471209D01*
X56068826Y-103473584D01*
X56053156Y-103492676D01*
X55278711Y-104267121D01*
X55216399Y-104301147D01*
X55188850Y-104304024D01*
X55119159Y-104303598D01*
X55086374Y-104312968D01*
X55003714Y-104336592D01*
X55003712Y-104336593D01*
X54995083Y-104339059D01*
X54885947Y-104407919D01*
X54880004Y-104414648D01*
X54880003Y-104414649D01*
X54838610Y-104461518D01*
X54800524Y-104504642D01*
X54745682Y-104621452D01*
X54739635Y-104660288D01*
X54727210Y-104740087D01*
X54727210Y-104740091D01*
X54725829Y-104748960D01*
X54726993Y-104757862D01*
X54726993Y-104757865D01*
X54741396Y-104868009D01*
X54741397Y-104868013D01*
X54742561Y-104876914D01*
X54794533Y-104995030D01*
X54800310Y-105001903D01*
X54800311Y-105001904D01*
X54871787Y-105086935D01*
X54877567Y-105093811D01*
X54984988Y-105165316D01*
X55073866Y-105193084D01*
X55098751Y-105200858D01*
X55108161Y-105203798D01*
X55117131Y-105203962D01*
X55117135Y-105203963D01*
X55175870Y-105205039D01*
X55237183Y-105206163D01*
X55333572Y-105179884D01*
X55353020Y-105174582D01*
X55353021Y-105174582D01*
X55361683Y-105172220D01*
X55369333Y-105167523D01*
X55369335Y-105167522D01*
X55464000Y-105109398D01*
X55464003Y-105109395D01*
X55471652Y-105104699D01*
X55477678Y-105098042D01*
X55552228Y-105015681D01*
X55552231Y-105015677D01*
X55558250Y-105009027D01*
X55614516Y-104892895D01*
X55617684Y-104874068D01*
X55635118Y-104770437D01*
X55635925Y-104765640D01*
X55636061Y-104754520D01*
X55635438Y-104750169D01*
X55650946Y-104681017D01*
X55672049Y-104653015D01*
X56353139Y-103971925D01*
X56415451Y-103937899D01*
X56442234Y-103935020D01*
X56696616Y-103935020D01*
X56764737Y-103955022D01*
X56811230Y-104008678D01*
X56821334Y-104078952D01*
X56791840Y-104143532D01*
X56785711Y-104150115D01*
X53405053Y-107530773D01*
X53385961Y-107546443D01*
X53373273Y-107554921D01*
X53312382Y-107646050D01*
X53296397Y-107726412D01*
X53291000Y-107753545D01*
X53293421Y-107765716D01*
X53293976Y-107768506D01*
X53296397Y-107793088D01*
X53296397Y-108684497D01*
X53293976Y-108709079D01*
X53291000Y-108724040D01*
X53296397Y-108751172D01*
X53296397Y-108751173D01*
X53312382Y-108831535D01*
X53373273Y-108922664D01*
X53383589Y-108929557D01*
X53383590Y-108929558D01*
X53385961Y-108931142D01*
X53405053Y-108946812D01*
X54684972Y-110226731D01*
X54718998Y-110289043D01*
X54721877Y-110315826D01*
X54721877Y-113435426D01*
X54719456Y-113460008D01*
X54716480Y-113474969D01*
X54721877Y-113502101D01*
X54721877Y-113502102D01*
X54737862Y-113582464D01*
X54744759Y-113592785D01*
X54744760Y-113592788D01*
X54744913Y-113593016D01*
X54776919Y-113640916D01*
X54798753Y-113673593D01*
X54809069Y-113680486D01*
X54809070Y-113680487D01*
X54811441Y-113682071D01*
X54830533Y-113697741D01*
X56565685Y-115432893D01*
X56599711Y-115495205D01*
X56594572Y-115566217D01*
X56550450Y-115683911D01*
X56546823Y-115699169D01*
X56541297Y-115750034D01*
X56540928Y-115756848D01*
X56540928Y-115783405D01*
X56545403Y-115798644D01*
X56546793Y-115799849D01*
X56554476Y-115801520D01*
X60038812Y-115801520D01*
X60054051Y-115797045D01*
X60055256Y-115795655D01*
X60056927Y-115787972D01*
X60056927Y-115756851D01*
X60056557Y-115750030D01*
X60051033Y-115699168D01*
X60047407Y-115683916D01*
X60002252Y-115563466D01*
X59993714Y-115547871D01*
X59917213Y-115445796D01*
X59904652Y-115433235D01*
X59802577Y-115356734D01*
X59786983Y-115348196D01*
X59781201Y-115346029D01*
X59724436Y-115303389D01*
X59699734Y-115236828D01*
X59699428Y-115228046D01*
X59699428Y-115086700D01*
X59690695Y-115042798D01*
X59683801Y-115032480D01*
X59683800Y-115032478D01*
X59659774Y-114996521D01*
X59638559Y-114928768D01*
X59659774Y-114856519D01*
X59683800Y-114820562D01*
X59683801Y-114820560D01*
X59690695Y-114810242D01*
X59699428Y-114766340D01*
X59699428Y-114386700D01*
X59690695Y-114342798D01*
X59683801Y-114332480D01*
X59683800Y-114332478D01*
X59659774Y-114296521D01*
X59638559Y-114228768D01*
X59659774Y-114156519D01*
X59683800Y-114120562D01*
X59683801Y-114120560D01*
X59690695Y-114110242D01*
X59699428Y-114066340D01*
X59699428Y-113924994D01*
X59719430Y-113856873D01*
X59773086Y-113810380D01*
X59781202Y-113807011D01*
X59787143Y-113804784D01*
X59857950Y-113799603D01*
X59920318Y-113833525D01*
X59954445Y-113895782D01*
X59956305Y-113906429D01*
X59959572Y-113931414D01*
X59963189Y-113939634D01*
X59986768Y-113993222D01*
X59997439Y-114043968D01*
X59997439Y-114351953D01*
X60000503Y-114361384D01*
X60000504Y-114361388D01*
X60004236Y-114372873D01*
X60008852Y-114392098D01*
X60012293Y-114413824D01*
X60016794Y-114422657D01*
X60016795Y-114422661D01*
X60022280Y-114433426D01*
X60029844Y-114451686D01*
X60036643Y-114472610D01*
X60049578Y-114490413D01*
X60059904Y-114507265D01*
X60069889Y-114526862D01*
X60092452Y-114549425D01*
X60092455Y-114549429D01*
X62048519Y-116505493D01*
X62048523Y-116505496D01*
X62071086Y-116528059D01*
X62079925Y-116532563D01*
X62079927Y-116532564D01*
X62090686Y-116538046D01*
X62107542Y-116548374D01*
X62125339Y-116561305D01*
X62146260Y-116568103D01*
X62164520Y-116575667D01*
X62175287Y-116581153D01*
X62175291Y-116581154D01*
X62184124Y-116585655D01*
X62193915Y-116587206D01*
X62193916Y-116587206D01*
X62205850Y-116589096D01*
X62225075Y-116593712D01*
X62236560Y-116597444D01*
X62236564Y-116597445D01*
X62245995Y-116600509D01*
X63268334Y-116600509D01*
X63336455Y-116620511D01*
X63357429Y-116637414D01*
X63715271Y-116995256D01*
X63741505Y-117033605D01*
X63779533Y-117120030D01*
X63785310Y-117126903D01*
X63785311Y-117126904D01*
X63815995Y-117163407D01*
X63862567Y-117218811D01*
X63870044Y-117223788D01*
X63951279Y-117277862D01*
X63969988Y-117290316D01*
X64093161Y-117328798D01*
X64102131Y-117328962D01*
X64102135Y-117328963D01*
X64160870Y-117330039D01*
X64222183Y-117331163D01*
X64334913Y-117300429D01*
X64338020Y-117299582D01*
X64338021Y-117299582D01*
X64346683Y-117297220D01*
X64354333Y-117292523D01*
X64354335Y-117292522D01*
X64449000Y-117234398D01*
X64449003Y-117234395D01*
X64456652Y-117229699D01*
X64464592Y-117220927D01*
X64537228Y-117140681D01*
X64537231Y-117140677D01*
X64543250Y-117134027D01*
X64599516Y-117017895D01*
X64620925Y-116890640D01*
X64621061Y-116879520D01*
X64602767Y-116751779D01*
X64599053Y-116743610D01*
X64553073Y-116642482D01*
X64553071Y-116642479D01*
X64549356Y-116634308D01*
X64516612Y-116596306D01*
X64470979Y-116543346D01*
X64470977Y-116543344D01*
X64465121Y-116536548D01*
X64356834Y-116466361D01*
X64333575Y-116459405D01*
X64280584Y-116427783D01*
X63747326Y-115894525D01*
X63747322Y-115894522D01*
X63724759Y-115871959D01*
X63705163Y-115861974D01*
X63688310Y-115851648D01*
X63670507Y-115838713D01*
X63649583Y-115831914D01*
X63631323Y-115824350D01*
X63620558Y-115818865D01*
X63620554Y-115818864D01*
X63611721Y-115814363D01*
X63601930Y-115812812D01*
X63601929Y-115812812D01*
X63589995Y-115810922D01*
X63570770Y-115806306D01*
X63559285Y-115802574D01*
X63559281Y-115802573D01*
X63549850Y-115799509D01*
X62527511Y-115799509D01*
X62459390Y-115779507D01*
X62438416Y-115762604D01*
X61713868Y-115038056D01*
X61679842Y-114975744D01*
X61684907Y-114904929D01*
X61727454Y-114848093D01*
X61737034Y-114841586D01*
X61826114Y-114786891D01*
X61832140Y-114780234D01*
X61906690Y-114697873D01*
X61906693Y-114697869D01*
X61912712Y-114691219D01*
X61968978Y-114575087D01*
X61973296Y-114549425D01*
X61989580Y-114452629D01*
X61990387Y-114447832D01*
X61990523Y-114436712D01*
X61979167Y-114357419D01*
X61973502Y-114317857D01*
X61973501Y-114317854D01*
X61972229Y-114308971D01*
X61966461Y-114296285D01*
X61955162Y-114244134D01*
X61955162Y-112131370D01*
X61967770Y-112076431D01*
X61988250Y-112034161D01*
X61993681Y-112001883D01*
X62008852Y-111911703D01*
X62009659Y-111906906D01*
X62009795Y-111895786D01*
X61991501Y-111768045D01*
X61985386Y-111754595D01*
X61941807Y-111658748D01*
X61941805Y-111658745D01*
X61938090Y-111650574D01*
X61853855Y-111552814D01*
X61846356Y-111547953D01*
X61808181Y-111488114D01*
X61808418Y-111417118D01*
X61847001Y-111357520D01*
X61911680Y-111328243D01*
X61929195Y-111327020D01*
X62291978Y-111327020D01*
X62360099Y-111347022D01*
X62381073Y-111363925D01*
X68907636Y-117890488D01*
X68941662Y-117952800D01*
X68936597Y-118023615D01*
X68894050Y-118080451D01*
X68885778Y-118086144D01*
X68812839Y-118132166D01*
X68785236Y-118149582D01*
X68718000Y-118169020D01*
X66660616Y-118169020D01*
X66636033Y-118166599D01*
X66623526Y-118164111D01*
X66525786Y-118183554D01*
X66442925Y-118238919D01*
X66436033Y-118249234D01*
X66436031Y-118249236D01*
X66435842Y-118249519D01*
X66420173Y-118268612D01*
X66089738Y-118599048D01*
X66070644Y-118614718D01*
X66070358Y-118614909D01*
X66070356Y-118614911D01*
X66060041Y-118621803D01*
X66053149Y-118632118D01*
X66053147Y-118632120D01*
X66031808Y-118664057D01*
X66031807Y-118664059D01*
X66004676Y-118704663D01*
X65985234Y-118802404D01*
X65987655Y-118814575D01*
X65987655Y-118814576D01*
X65987721Y-118814908D01*
X65990142Y-118839489D01*
X65990142Y-120084600D01*
X65970140Y-120152721D01*
X65916484Y-120199214D01*
X65875210Y-120208192D01*
X65875392Y-120209808D01*
X65868362Y-120210600D01*
X65861285Y-120210600D01*
X65854387Y-120212174D01*
X65854382Y-120212175D01*
X65799137Y-120224784D01*
X65728274Y-120220441D01*
X65671007Y-120178476D01*
X65645520Y-120112212D01*
X65657579Y-120047273D01*
X65665317Y-120031205D01*
X65668388Y-120024828D01*
X65695992Y-119903885D01*
X65695992Y-119779832D01*
X65679911Y-119709379D01*
X65669961Y-119665784D01*
X65669960Y-119665780D01*
X65668387Y-119658890D01*
X65645854Y-119612099D01*
X65617630Y-119553493D01*
X65614562Y-119547122D01*
X65610155Y-119541595D01*
X65610150Y-119541588D01*
X65550897Y-119467288D01*
X65548059Y-119463405D01*
X65547346Y-119462776D01*
X65546073Y-119460871D01*
X65538227Y-119449128D01*
X65538225Y-119449127D01*
X65538224Y-119449125D01*
X65524578Y-119440007D01*
X65523949Y-119439294D01*
X65520061Y-119436453D01*
X65503244Y-119423042D01*
X65440230Y-119372790D01*
X65351418Y-119330020D01*
X65334833Y-119322033D01*
X65334832Y-119322033D01*
X65328462Y-119318965D01*
X65321572Y-119317392D01*
X65321568Y-119317391D01*
X65257891Y-119302857D01*
X65207520Y-119291360D01*
X65083467Y-119291360D01*
X65076567Y-119292935D01*
X65076566Y-119292935D01*
X64973166Y-119316535D01*
X64902302Y-119312192D01*
X64845036Y-119270227D01*
X64819548Y-119203964D01*
X64822288Y-119165657D01*
X64845888Y-119062257D01*
X64845888Y-119062256D01*
X64847463Y-119055356D01*
X64847463Y-118931303D01*
X64830711Y-118857909D01*
X64821432Y-118817255D01*
X64821431Y-118817251D01*
X64819858Y-118810361D01*
X64766033Y-118698593D01*
X64702364Y-118618755D01*
X64699530Y-118614875D01*
X64698815Y-118614244D01*
X64689698Y-118600599D01*
X64689696Y-118600598D01*
X64689695Y-118600596D01*
X64676052Y-118591480D01*
X64675423Y-118590767D01*
X64671532Y-118587924D01*
X64671523Y-118587917D01*
X64591701Y-118524261D01*
X64479933Y-118470436D01*
X64473043Y-118468863D01*
X64473039Y-118468862D01*
X64409362Y-118454328D01*
X64358991Y-118442831D01*
X64234938Y-118442831D01*
X64113995Y-118470435D01*
X64002227Y-118524260D01*
X63930069Y-118581804D01*
X63922404Y-118587917D01*
X63914710Y-118593540D01*
X63914546Y-118593704D01*
X63904230Y-118600597D01*
X63897336Y-118610915D01*
X63897144Y-118611202D01*
X63881474Y-118630295D01*
X63682821Y-118828948D01*
X63620509Y-118862974D01*
X63549694Y-118857909D01*
X63504631Y-118828948D01*
X63004799Y-118329116D01*
X62989129Y-118310023D01*
X62988936Y-118309734D01*
X62988934Y-118309732D01*
X62982042Y-118299417D01*
X62923322Y-118260182D01*
X62899182Y-118244052D01*
X62801441Y-118224610D01*
X62789270Y-118227031D01*
X62789269Y-118227031D01*
X62788937Y-118227097D01*
X62764356Y-118229518D01*
X61507554Y-118229518D01*
X61439433Y-118209516D01*
X61412101Y-118185766D01*
X61375979Y-118143844D01*
X61375977Y-118143842D01*
X61370121Y-118137046D01*
X61261834Y-118066859D01*
X61253239Y-118064289D01*
X61253238Y-118064288D01*
X61146802Y-118032456D01*
X61146800Y-118032456D01*
X61138201Y-118029884D01*
X61129226Y-118029829D01*
X61129225Y-118029829D01*
X61074569Y-118029495D01*
X61009159Y-118029096D01*
X60997403Y-118032456D01*
X60893714Y-118062090D01*
X60893712Y-118062091D01*
X60885083Y-118064557D01*
X60775947Y-118133417D01*
X60770004Y-118140146D01*
X60770003Y-118140147D01*
X60731667Y-118183554D01*
X60690524Y-118230140D01*
X60686710Y-118238263D01*
X60686709Y-118238265D01*
X60664560Y-118285441D01*
X60635682Y-118346950D01*
X60630433Y-118380665D01*
X60617210Y-118465585D01*
X60617210Y-118465589D01*
X60615829Y-118474458D01*
X60616993Y-118483360D01*
X60616993Y-118483363D01*
X60631396Y-118593507D01*
X60631397Y-118593511D01*
X60632561Y-118602412D01*
X60644830Y-118630295D01*
X60677023Y-118703459D01*
X60684533Y-118720528D01*
X60690310Y-118727401D01*
X60690311Y-118727402D01*
X60749532Y-118797854D01*
X60767567Y-118819309D01*
X60874988Y-118890814D01*
X60959508Y-118917220D01*
X60982503Y-118924404D01*
X60998161Y-118929296D01*
X61007131Y-118929460D01*
X61007135Y-118929461D01*
X61065870Y-118930537D01*
X61127183Y-118931661D01*
X61219123Y-118906595D01*
X61243020Y-118900080D01*
X61243021Y-118900080D01*
X61251683Y-118897718D01*
X61259333Y-118893021D01*
X61259335Y-118893020D01*
X61354000Y-118834896D01*
X61354003Y-118834893D01*
X61361652Y-118830197D01*
X61371508Y-118819309D01*
X61414363Y-118771963D01*
X61474906Y-118734881D01*
X61507778Y-118730518D01*
X61520758Y-118730518D01*
X61588879Y-118750520D01*
X61635372Y-118804176D01*
X61645476Y-118874450D01*
X61634814Y-118910065D01*
X61627329Y-118926008D01*
X61624903Y-118931175D01*
X61617730Y-118946452D01*
X61614243Y-118968849D01*
X61599258Y-119065087D01*
X61599258Y-119065091D01*
X61597877Y-119073960D01*
X61599041Y-119082862D01*
X61599041Y-119082865D01*
X61613444Y-119193009D01*
X61613445Y-119193013D01*
X61614609Y-119201914D01*
X61666581Y-119320030D01*
X61672358Y-119326903D01*
X61672359Y-119326904D01*
X61715471Y-119378192D01*
X61749615Y-119418811D01*
X61809423Y-119458622D01*
X61855045Y-119513018D01*
X61864017Y-119583446D01*
X61833488Y-119647544D01*
X61773152Y-119684961D01*
X61739604Y-119689509D01*
X57032715Y-119689509D01*
X57013616Y-119687476D01*
X57008808Y-119687249D01*
X56998630Y-119685058D01*
X56968400Y-119688636D01*
X56963145Y-119688946D01*
X56963156Y-119689081D01*
X56957978Y-119689509D01*
X56952776Y-119689509D01*
X56935406Y-119692400D01*
X56929536Y-119693236D01*
X56882752Y-119698773D01*
X56875132Y-119702432D01*
X56866788Y-119703821D01*
X56857623Y-119708766D01*
X56857621Y-119708767D01*
X56825332Y-119726190D01*
X56820053Y-119728881D01*
X56777565Y-119749283D01*
X56773617Y-119752601D01*
X56771678Y-119754540D01*
X56770087Y-119755999D01*
X56769597Y-119756263D01*
X56769578Y-119756243D01*
X56769489Y-119756322D01*
X56764097Y-119759231D01*
X56757027Y-119766879D01*
X56757026Y-119766880D01*
X56730436Y-119795645D01*
X56727007Y-119799211D01*
X55934119Y-120592099D01*
X55871807Y-120626125D01*
X55800992Y-120621060D01*
X55744156Y-120578513D01*
X55730324Y-120555157D01*
X55720320Y-120533157D01*
X55716603Y-120524981D01*
X55688003Y-120491789D01*
X55638226Y-120434019D01*
X55638224Y-120434017D01*
X55632368Y-120427221D01*
X55524081Y-120357034D01*
X55515486Y-120354464D01*
X55515485Y-120354463D01*
X55409049Y-120322631D01*
X55409047Y-120322631D01*
X55400448Y-120320059D01*
X55391473Y-120320004D01*
X55391472Y-120320004D01*
X55336816Y-120319670D01*
X55271406Y-120319271D01*
X55223670Y-120332914D01*
X55155961Y-120352265D01*
X55155959Y-120352266D01*
X55147330Y-120354732D01*
X55139740Y-120359521D01*
X55050796Y-120415641D01*
X55038194Y-120423592D01*
X55032251Y-120430321D01*
X55032250Y-120430322D01*
X54982666Y-120486465D01*
X54952771Y-120520315D01*
X54948957Y-120528438D01*
X54948956Y-120528440D01*
X54927056Y-120575087D01*
X54897929Y-120637125D01*
X54896549Y-120645991D01*
X54879457Y-120755760D01*
X54879457Y-120755764D01*
X54878076Y-120764633D01*
X54879240Y-120773535D01*
X54879240Y-120773538D01*
X54893643Y-120883682D01*
X54893644Y-120883686D01*
X54894808Y-120892587D01*
X54918839Y-120947202D01*
X54942464Y-121000893D01*
X54946780Y-121010703D01*
X54952557Y-121017576D01*
X54952558Y-121017577D01*
X54977996Y-121047839D01*
X55006517Y-121112854D01*
X55007545Y-121128914D01*
X55007545Y-121840051D01*
X54987543Y-121908172D01*
X54980565Y-121916831D01*
X54977453Y-121918910D01*
X54970561Y-121929225D01*
X54941997Y-121971975D01*
X54941996Y-121971976D01*
X54928983Y-121991451D01*
X54922088Y-122001770D01*
X54902646Y-122099511D01*
X54905067Y-122111682D01*
X54905067Y-122111683D01*
X54905133Y-122112015D01*
X54907554Y-122136596D01*
X54907554Y-122693038D01*
X54887552Y-122761159D01*
X54833896Y-122807652D01*
X54763622Y-122817756D01*
X54699042Y-122788262D01*
X54680289Y-122768014D01*
X54673162Y-122758387D01*
X54386301Y-122370945D01*
X54342920Y-122312353D01*
X54339522Y-122307531D01*
X53876234Y-121616347D01*
X53873065Y-121611371D01*
X53856553Y-121584052D01*
X53587426Y-121138801D01*
X53442639Y-120899260D01*
X53439706Y-120894141D01*
X53205270Y-120461779D01*
X53043077Y-120162650D01*
X53040392Y-120157411D01*
X53038127Y-120152721D01*
X52678433Y-119408147D01*
X52675994Y-119402781D01*
X52667307Y-119382415D01*
X52572237Y-119159546D01*
X52372653Y-118691663D01*
X52362549Y-118642335D01*
X52360415Y-116196189D01*
X56540929Y-116196189D01*
X56541299Y-116203010D01*
X56546823Y-116253872D01*
X56550449Y-116269124D01*
X56595604Y-116389574D01*
X56604142Y-116405169D01*
X56680643Y-116507244D01*
X56693204Y-116519805D01*
X56795279Y-116596306D01*
X56810874Y-116604844D01*
X56931322Y-116649998D01*
X56946577Y-116653625D01*
X56997442Y-116659151D01*
X57004256Y-116659520D01*
X58105813Y-116659520D01*
X58121052Y-116655045D01*
X58122257Y-116653655D01*
X58123928Y-116645972D01*
X58123928Y-116641404D01*
X58473928Y-116641404D01*
X58478403Y-116656643D01*
X58479793Y-116657848D01*
X58487476Y-116659519D01*
X59593597Y-116659519D01*
X59600418Y-116659149D01*
X59651280Y-116653625D01*
X59666532Y-116649999D01*
X59786982Y-116604844D01*
X59802577Y-116596306D01*
X59904652Y-116519805D01*
X59917213Y-116507244D01*
X59993714Y-116405169D01*
X60002252Y-116389574D01*
X60047406Y-116269126D01*
X60051033Y-116253871D01*
X60056559Y-116203006D01*
X60056928Y-116196192D01*
X60056928Y-116169635D01*
X60052453Y-116154396D01*
X60051063Y-116153191D01*
X60043380Y-116151520D01*
X58492043Y-116151520D01*
X58476804Y-116155995D01*
X58475599Y-116157385D01*
X58473928Y-116165068D01*
X58473928Y-116641404D01*
X58123928Y-116641404D01*
X58123928Y-116169635D01*
X58119453Y-116154396D01*
X58118063Y-116153191D01*
X58110380Y-116151520D01*
X56559044Y-116151520D01*
X56543805Y-116155995D01*
X56542600Y-116157385D01*
X56540929Y-116165068D01*
X56540929Y-116196189D01*
X52360415Y-116196189D01*
X52360097Y-115831916D01*
X52357914Y-113329495D01*
X52377857Y-113261358D01*
X52431472Y-113214818D01*
X52501737Y-113204653D01*
X52566343Y-113234090D01*
X52593033Y-113266385D01*
X52648658Y-113362729D01*
X52656374Y-113373348D01*
X52778771Y-113509285D01*
X52793439Y-113522492D01*
X52791428Y-113524725D01*
X52826819Y-113570572D01*
X52835428Y-113616346D01*
X52835428Y-114256840D01*
X52844161Y-114300742D01*
X52851055Y-114311060D01*
X52851056Y-114311062D01*
X52865366Y-114332478D01*
X52877424Y-114350524D01*
X52887743Y-114357419D01*
X52916886Y-114376892D01*
X52916888Y-114376893D01*
X52927206Y-114383787D01*
X52971108Y-114392520D01*
X53850748Y-114392520D01*
X53894650Y-114383787D01*
X53904968Y-114376893D01*
X53904970Y-114376892D01*
X53934113Y-114357419D01*
X53944432Y-114350524D01*
X53956490Y-114332478D01*
X53970800Y-114311062D01*
X53970801Y-114311060D01*
X53977695Y-114300742D01*
X53986428Y-114256840D01*
X53986428Y-113616346D01*
X54006430Y-113548225D01*
X54029554Y-113523755D01*
X54028417Y-113522492D01*
X54043085Y-113509285D01*
X54165482Y-113373348D01*
X54173198Y-113362729D01*
X54264661Y-113204311D01*
X54270001Y-113192316D01*
X54303813Y-113088252D01*
X54304216Y-113074152D01*
X54297845Y-113071020D01*
X53282928Y-113071020D01*
X53214807Y-113051018D01*
X53168314Y-112997362D01*
X53156928Y-112945020D01*
X53156928Y-112544905D01*
X53664928Y-112544905D01*
X53669403Y-112560144D01*
X53670793Y-112561349D01*
X53678476Y-112563020D01*
X54291297Y-112563020D01*
X54304828Y-112559047D01*
X54305838Y-112552020D01*
X54270001Y-112441724D01*
X54264661Y-112429729D01*
X54173198Y-112271311D01*
X54165482Y-112260692D01*
X54043085Y-112124755D01*
X54033322Y-112115964D01*
X53885340Y-112008449D01*
X53873968Y-112001883D01*
X53706860Y-111927482D01*
X53694372Y-111923425D01*
X53682648Y-111920932D01*
X53668587Y-111922005D01*
X53664928Y-111931961D01*
X53664928Y-112544905D01*
X53156928Y-112544905D01*
X53156928Y-111935281D01*
X53152955Y-111921750D01*
X53142460Y-111920241D01*
X53127484Y-111923425D01*
X53114996Y-111927482D01*
X52947889Y-112001883D01*
X52936517Y-112008449D01*
X52788534Y-112115964D01*
X52778771Y-112124755D01*
X52656374Y-112260692D01*
X52648656Y-112271315D01*
X52592141Y-112369200D01*
X52540758Y-112418194D01*
X52471044Y-112431629D01*
X52405134Y-112405242D01*
X52363952Y-112347410D01*
X52357022Y-112306310D01*
X52355546Y-110613895D01*
X52350985Y-105385685D01*
X52361003Y-105336343D01*
X52593387Y-104788925D01*
X52663109Y-104624685D01*
X52665541Y-104619310D01*
X53026178Y-103869447D01*
X53028858Y-103864192D01*
X53300413Y-103361280D01*
X53424222Y-103131991D01*
X53427138Y-103126880D01*
X53442130Y-103101980D01*
X53856322Y-102414019D01*
X53859482Y-102409038D01*
X54321567Y-101717042D01*
X54324957Y-101712214D01*
X54818924Y-101042607D01*
X54822537Y-101037942D01*
X55347309Y-100392189D01*
X55351135Y-100387700D01*
X55905557Y-99767218D01*
X55909590Y-99762912D01*
X56444107Y-99218314D01*
X56492441Y-99169068D01*
X56496670Y-99164956D01*
X56617926Y-99052466D01*
X56900865Y-98789980D01*
X56964407Y-98758315D01*
X57034984Y-98766030D01*
X57090185Y-98810677D01*
X57110792Y-98864969D01*
X57110633Y-98870503D01*
X57113141Y-98879577D01*
X57113141Y-98879578D01*
X57135523Y-98960559D01*
X57146720Y-99001074D01*
X57149883Y-99006899D01*
X57151228Y-99008970D01*
X57164797Y-99029865D01*
X57179147Y-99068400D01*
X57180817Y-99067921D01*
X57183291Y-99076548D01*
X57184517Y-99085442D01*
X57188189Y-99093632D01*
X57188190Y-99093635D01*
X57204888Y-99130875D01*
X57227784Y-99181940D01*
X57230435Y-99186022D01*
X57230436Y-99186024D01*
X57357324Y-99381414D01*
X57593747Y-99745472D01*
X57661382Y-99822867D01*
X57668950Y-99827698D01*
X57668954Y-99827701D01*
X57670088Y-99828425D01*
X57674240Y-99832248D01*
X57675755Y-99833551D01*
X57675711Y-99833602D01*
X57702560Y-99858323D01*
X57704218Y-99860502D01*
X57706783Y-99864451D01*
X57773930Y-99940214D01*
X57832083Y-99975641D01*
X57881576Y-100005793D01*
X57881578Y-100005794D01*
X57889620Y-100010693D01*
X57898746Y-100013011D01*
X57898749Y-100013012D01*
X58011790Y-100041721D01*
X58011793Y-100041721D01*
X58020919Y-100044039D01*
X58030324Y-100043571D01*
X58030327Y-100043571D01*
X58102655Y-100039970D01*
X58156219Y-100037303D01*
X58283556Y-99991082D01*
X58322187Y-99961918D01*
X58384160Y-99915134D01*
X58384162Y-99915132D01*
X58391674Y-99909461D01*
X58428624Y-99858323D01*
X58465496Y-99807293D01*
X58465498Y-99807290D01*
X58471012Y-99799658D01*
X58514556Y-99671380D01*
X58518457Y-99535969D01*
X58482369Y-99405398D01*
X58479207Y-99399573D01*
X58464293Y-99376607D01*
X58449943Y-99338072D01*
X58448273Y-99338551D01*
X58445799Y-99329924D01*
X58444573Y-99321030D01*
X58440901Y-99312840D01*
X58440900Y-99312837D01*
X58403298Y-99228975D01*
X58401306Y-99224532D01*
X58383466Y-99197060D01*
X58037786Y-98664762D01*
X58035343Y-98661000D01*
X57967708Y-98583605D01*
X57960140Y-98578774D01*
X57960136Y-98578771D01*
X57959002Y-98578047D01*
X57954850Y-98574224D01*
X57953335Y-98572921D01*
X57953379Y-98572870D01*
X57926530Y-98548149D01*
X57924872Y-98545970D01*
X57922307Y-98542021D01*
X57855160Y-98466258D01*
X57771661Y-98415390D01*
X57747514Y-98400679D01*
X57747512Y-98400678D01*
X57739470Y-98395779D01*
X57730342Y-98393461D01*
X57730340Y-98393460D01*
X57701845Y-98386223D01*
X57675492Y-98379531D01*
X57614392Y-98343377D01*
X57582537Y-98279928D01*
X57590042Y-98209329D01*
X57625231Y-98161127D01*
X57746943Y-98058383D01*
X57751540Y-98054683D01*
X57814054Y-98006738D01*
X58116605Y-97774695D01*
X58411797Y-97548296D01*
X58416560Y-97544817D01*
X59099807Y-97069881D01*
X59104729Y-97066628D01*
X59809445Y-96624203D01*
X59814513Y-96621184D01*
X59912246Y-96566029D01*
X60539192Y-96212215D01*
X60544396Y-96209438D01*
X60961053Y-95999379D01*
X61191415Y-95883241D01*
X61261247Y-95870435D01*
X61326917Y-95897416D01*
X61367575Y-95955618D01*
X61374085Y-95999379D01*
X61372325Y-96060488D01*
X61371079Y-96103736D01*
X61373587Y-96112809D01*
X61373587Y-96112812D01*
X61405251Y-96227379D01*
X61407166Y-96234307D01*
X61410329Y-96240132D01*
X61411674Y-96242203D01*
X61425243Y-96263098D01*
X61439593Y-96301633D01*
X61441263Y-96301154D01*
X61443737Y-96309781D01*
X61444963Y-96318675D01*
X61448635Y-96326865D01*
X61448636Y-96326868D01*
X61479253Y-96395152D01*
X61488230Y-96415173D01*
X61490881Y-96419255D01*
X61490882Y-96419257D01*
X61639308Y-96647812D01*
X61854193Y-96978705D01*
X61921828Y-97056100D01*
X61929396Y-97060931D01*
X61929400Y-97060934D01*
X61930534Y-97061658D01*
X61934686Y-97065481D01*
X61936201Y-97066784D01*
X61936157Y-97066835D01*
X61963006Y-97091556D01*
X61964664Y-97093735D01*
X61967229Y-97097684D01*
X62034376Y-97173447D01*
X62058951Y-97188418D01*
X62142022Y-97239026D01*
X62142024Y-97239027D01*
X62150066Y-97243926D01*
X62159192Y-97246244D01*
X62159195Y-97246245D01*
X62272236Y-97274954D01*
X62272239Y-97274954D01*
X62281365Y-97277272D01*
X62290770Y-97276804D01*
X62290773Y-97276804D01*
X62363101Y-97273203D01*
X62416665Y-97270536D01*
X62544002Y-97224315D01*
X62582633Y-97195151D01*
X62644606Y-97148367D01*
X62644608Y-97148365D01*
X62652120Y-97142694D01*
X62689070Y-97091556D01*
X62725942Y-97040526D01*
X62725944Y-97040523D01*
X62731458Y-97032891D01*
X62775002Y-96904613D01*
X62778903Y-96769202D01*
X62742815Y-96638631D01*
X62739653Y-96632806D01*
X62724739Y-96609840D01*
X62710389Y-96571305D01*
X62708719Y-96571784D01*
X62706245Y-96563157D01*
X62705019Y-96554263D01*
X62701347Y-96546073D01*
X62701346Y-96546070D01*
X62663744Y-96462208D01*
X62661752Y-96457765D01*
X62638131Y-96421391D01*
X62298232Y-95897995D01*
X62295789Y-95894233D01*
X62228154Y-95816838D01*
X62220586Y-95812007D01*
X62220582Y-95812004D01*
X62219448Y-95811280D01*
X62215296Y-95807457D01*
X62213781Y-95806154D01*
X62213825Y-95806103D01*
X62186976Y-95781382D01*
X62185318Y-95779203D01*
X62182753Y-95775254D01*
X62115606Y-95699491D01*
X62107558Y-95694588D01*
X62101413Y-95690844D01*
X62053644Y-95638321D01*
X62041855Y-95568310D01*
X62069787Y-95503039D01*
X62121014Y-95465918D01*
X62792217Y-95203020D01*
X62832686Y-95187169D01*
X62838211Y-95185153D01*
X63626350Y-94918284D01*
X63631978Y-94916524D01*
X64431750Y-94686836D01*
X64437457Y-94685341D01*
X65247098Y-94493343D01*
X65252868Y-94492117D01*
X65380733Y-94468054D01*
X66070617Y-94338224D01*
X66076408Y-94337274D01*
X66862032Y-94227212D01*
X66900456Y-94221829D01*
X66906316Y-94221147D01*
X67139448Y-94199553D01*
X67734895Y-94144398D01*
X67740755Y-94143994D01*
X68233557Y-94121536D01*
X68571979Y-94106114D01*
X68577877Y-94105983D01*
X68998901Y-94106524D01*
G37*
G04 #@! TD.AperFunction*
G04 #@! TA.AperFunction,Conductor*
G36*
X77437505Y-117720502D02*
G01*
X77458479Y-117737405D01*
X79252864Y-119531791D01*
X79286890Y-119594103D01*
X79288269Y-119640268D01*
X79286725Y-119650190D01*
X79285278Y-119659483D01*
X79286442Y-119668385D01*
X79286442Y-119668388D01*
X79300845Y-119778532D01*
X79300846Y-119778536D01*
X79302010Y-119787437D01*
X79316482Y-119820327D01*
X79348918Y-119894043D01*
X79353982Y-119905553D01*
X79359759Y-119912426D01*
X79359760Y-119912427D01*
X79407884Y-119969677D01*
X79437016Y-120004334D01*
X79541287Y-120073742D01*
X79586909Y-120128139D01*
X79595881Y-120198566D01*
X79560563Y-120267724D01*
X78909113Y-120919174D01*
X78846801Y-120953200D01*
X78775986Y-120948135D01*
X78719150Y-120905588D01*
X78694339Y-120839068D01*
X78706626Y-120775141D01*
X78725602Y-120735974D01*
X78725603Y-120735972D01*
X78729516Y-120727895D01*
X78731617Y-120715410D01*
X78750118Y-120605437D01*
X78750925Y-120600640D01*
X78751061Y-120589520D01*
X78737041Y-120491624D01*
X78734040Y-120470665D01*
X78734039Y-120470662D01*
X78732767Y-120461779D01*
X78728840Y-120453142D01*
X78683073Y-120352482D01*
X78683071Y-120352479D01*
X78679356Y-120344308D01*
X78620030Y-120275456D01*
X78600979Y-120253346D01*
X78600977Y-120253344D01*
X78595121Y-120246548D01*
X78486834Y-120176361D01*
X78478239Y-120173791D01*
X78478238Y-120173790D01*
X78371802Y-120141958D01*
X78371800Y-120141958D01*
X78363201Y-120139386D01*
X78354226Y-120139331D01*
X78354225Y-120139331D01*
X78299569Y-120138997D01*
X78234159Y-120138598D01*
X78172121Y-120156329D01*
X78118714Y-120171592D01*
X78118712Y-120171593D01*
X78110083Y-120174059D01*
X78102493Y-120178848D01*
X78036373Y-120220567D01*
X78000947Y-120242919D01*
X77995004Y-120249648D01*
X77995003Y-120249649D01*
X77932868Y-120320004D01*
X77915524Y-120339642D01*
X77911710Y-120347765D01*
X77911709Y-120347767D01*
X77902038Y-120368366D01*
X77860682Y-120456452D01*
X77854619Y-120495393D01*
X77842210Y-120575087D01*
X77842210Y-120575091D01*
X77840829Y-120583960D01*
X77841993Y-120592862D01*
X77841993Y-120592865D01*
X77856396Y-120703009D01*
X77856397Y-120703013D01*
X77857561Y-120711914D01*
X77861178Y-120720134D01*
X77901696Y-120812218D01*
X77909533Y-120830030D01*
X77915310Y-120836903D01*
X77915311Y-120836904D01*
X77986789Y-120921938D01*
X77986792Y-120921940D01*
X77992567Y-120928811D01*
X78000042Y-120933786D01*
X78003410Y-120936798D01*
X78040861Y-120997114D01*
X78045428Y-121030729D01*
X78045428Y-121236373D01*
X78025426Y-121304494D01*
X78008523Y-121325468D01*
X77450916Y-121883075D01*
X77388604Y-121917101D01*
X77361821Y-121919980D01*
X69400724Y-121919980D01*
X69332603Y-121899978D01*
X69311629Y-121883075D01*
X68855338Y-121426784D01*
X68821312Y-121364472D01*
X68826377Y-121293657D01*
X68849208Y-121255178D01*
X68865256Y-121236657D01*
X68866928Y-121228972D01*
X68866928Y-121224404D01*
X69374928Y-121224404D01*
X69379403Y-121239643D01*
X69380793Y-121240848D01*
X69388476Y-121242519D01*
X69590597Y-121242519D01*
X69597418Y-121242149D01*
X69648280Y-121236625D01*
X69663532Y-121232999D01*
X69783982Y-121187844D01*
X69799577Y-121179306D01*
X69901652Y-121102805D01*
X69914213Y-121090244D01*
X69990714Y-120988169D01*
X69999253Y-120972572D01*
X69999964Y-120970676D01*
X70001171Y-120969070D01*
X70003562Y-120964702D01*
X70004193Y-120965047D01*
X70042606Y-120913913D01*
X70109168Y-120889214D01*
X70113830Y-120889051D01*
X70120928Y-120889986D01*
X70129116Y-120888908D01*
X70262976Y-120871285D01*
X70271164Y-120870207D01*
X70411161Y-120812218D01*
X70531379Y-120719971D01*
X70533664Y-120716993D01*
X70594145Y-120683967D01*
X70664960Y-120689032D01*
X70707924Y-120716644D01*
X70710477Y-120719971D01*
X70830695Y-120812218D01*
X70970692Y-120870207D01*
X71120928Y-120889986D01*
X71129116Y-120888908D01*
X71262976Y-120871285D01*
X71271164Y-120870207D01*
X71411161Y-120812218D01*
X71531379Y-120719971D01*
X71533664Y-120716993D01*
X71594145Y-120683967D01*
X71664960Y-120689032D01*
X71707924Y-120716644D01*
X71710477Y-120719971D01*
X71830695Y-120812218D01*
X71970692Y-120870207D01*
X72120928Y-120889986D01*
X72129116Y-120888908D01*
X72262976Y-120871285D01*
X72271164Y-120870207D01*
X72411161Y-120812218D01*
X72531379Y-120719971D01*
X72623626Y-120599753D01*
X72681615Y-120459756D01*
X72701394Y-120309520D01*
X72681615Y-120159284D01*
X72623626Y-120019287D01*
X72531379Y-119899069D01*
X72411161Y-119806822D01*
X72288090Y-119755844D01*
X72278793Y-119751993D01*
X72271164Y-119748833D01*
X72120928Y-119729054D01*
X71970692Y-119748833D01*
X71963063Y-119751993D01*
X71953766Y-119755844D01*
X71830695Y-119806822D01*
X71710477Y-119899069D01*
X71708192Y-119902047D01*
X71647711Y-119935073D01*
X71576896Y-119930008D01*
X71533932Y-119902396D01*
X71531379Y-119899069D01*
X71411161Y-119806822D01*
X71288090Y-119755844D01*
X71278793Y-119751993D01*
X71271164Y-119748833D01*
X71120928Y-119729054D01*
X70970692Y-119748833D01*
X70963063Y-119751993D01*
X70953766Y-119755844D01*
X70830695Y-119806822D01*
X70710477Y-119899069D01*
X70708192Y-119902047D01*
X70647711Y-119935073D01*
X70576896Y-119930008D01*
X70533932Y-119902396D01*
X70531379Y-119899069D01*
X70411161Y-119806822D01*
X70288090Y-119755844D01*
X70278793Y-119751993D01*
X70271164Y-119748833D01*
X70120928Y-119729054D01*
X70116334Y-119729659D01*
X70049824Y-119710130D01*
X70003331Y-119656474D01*
X69999964Y-119648364D01*
X69999253Y-119646468D01*
X69990714Y-119630871D01*
X69914213Y-119528796D01*
X69901652Y-119516235D01*
X69799577Y-119439734D01*
X69783982Y-119431196D01*
X69663534Y-119386042D01*
X69648279Y-119382415D01*
X69597414Y-119376889D01*
X69590600Y-119376520D01*
X69393043Y-119376520D01*
X69377804Y-119380995D01*
X69376599Y-119382385D01*
X69374928Y-119390068D01*
X69374928Y-121224404D01*
X68866928Y-121224404D01*
X68866928Y-120581635D01*
X68862453Y-120566396D01*
X68861063Y-120565191D01*
X68853380Y-120563520D01*
X68206044Y-120563520D01*
X68190804Y-120567995D01*
X68189247Y-120569792D01*
X68129520Y-120608175D01*
X68058524Y-120608175D01*
X68004928Y-120576374D01*
X67465959Y-120037405D01*
X68187928Y-120037405D01*
X68192403Y-120052644D01*
X68193793Y-120053849D01*
X68201476Y-120055520D01*
X68848813Y-120055520D01*
X68864052Y-120051045D01*
X68865257Y-120049655D01*
X68866928Y-120041972D01*
X68866928Y-119394636D01*
X68862453Y-119379397D01*
X68861063Y-119378192D01*
X68853380Y-119376521D01*
X68651259Y-119376521D01*
X68644438Y-119376891D01*
X68593576Y-119382415D01*
X68578324Y-119386041D01*
X68457874Y-119431196D01*
X68442279Y-119439734D01*
X68340204Y-119516235D01*
X68327643Y-119528796D01*
X68251142Y-119630871D01*
X68242604Y-119646466D01*
X68197450Y-119766914D01*
X68193823Y-119782169D01*
X68188297Y-119833034D01*
X68187928Y-119839848D01*
X68187928Y-120037405D01*
X67465959Y-120037405D01*
X67077558Y-119649004D01*
X67043532Y-119586692D01*
X67040653Y-119559909D01*
X67040653Y-119471096D01*
X67060655Y-119402975D01*
X67080742Y-119380282D01*
X67080877Y-119380199D01*
X67117198Y-119340072D01*
X67161453Y-119291181D01*
X67161456Y-119291177D01*
X67167475Y-119284527D01*
X67223741Y-119168395D01*
X67225297Y-119159150D01*
X67244343Y-119045937D01*
X67245150Y-119041140D01*
X67245286Y-119030020D01*
X67233678Y-118948963D01*
X67228265Y-118911165D01*
X67228264Y-118911162D01*
X67226992Y-118902279D01*
X67223279Y-118894113D01*
X67223278Y-118894109D01*
X67202391Y-118848171D01*
X67192405Y-118777880D01*
X67222006Y-118713348D01*
X67281796Y-118675065D01*
X67317092Y-118670020D01*
X68576468Y-118670020D01*
X68644589Y-118690022D01*
X68683439Y-118729437D01*
X68684916Y-118731810D01*
X68688533Y-118740030D01*
X68694310Y-118746903D01*
X68694311Y-118746904D01*
X68761704Y-118827078D01*
X68771567Y-118838811D01*
X68787924Y-118849699D01*
X68863611Y-118900080D01*
X68878988Y-118910316D01*
X69002161Y-118948798D01*
X69011131Y-118948962D01*
X69011135Y-118948963D01*
X69069870Y-118950039D01*
X69131183Y-118951163D01*
X69211389Y-118929296D01*
X69247020Y-118919582D01*
X69247021Y-118919582D01*
X69255683Y-118917220D01*
X69263333Y-118912523D01*
X69263335Y-118912522D01*
X69358000Y-118854398D01*
X69358003Y-118854395D01*
X69365652Y-118849699D01*
X69374894Y-118839489D01*
X69446228Y-118760681D01*
X69446231Y-118760677D01*
X69452250Y-118754027D01*
X69456162Y-118745954D01*
X69456164Y-118745950D01*
X69477956Y-118700971D01*
X69525658Y-118648388D01*
X69594217Y-118629942D01*
X69661864Y-118651490D01*
X69680443Y-118666814D01*
X69683435Y-118669806D01*
X69690327Y-118680121D01*
X69700642Y-118687013D01*
X69743392Y-118715577D01*
X69743393Y-118715578D01*
X69756569Y-118724382D01*
X69773187Y-118735486D01*
X69870928Y-118754928D01*
X69883099Y-118752507D01*
X69883100Y-118752507D01*
X69883432Y-118752441D01*
X69908013Y-118750020D01*
X72702242Y-118750020D01*
X72770363Y-118770022D01*
X72798693Y-118794945D01*
X72829789Y-118831938D01*
X72829791Y-118831940D01*
X72835567Y-118838811D01*
X72843038Y-118843784D01*
X72843039Y-118843785D01*
X72930914Y-118902279D01*
X72942988Y-118910316D01*
X73066161Y-118948798D01*
X73075131Y-118948962D01*
X73075135Y-118948963D01*
X73133870Y-118950039D01*
X73195183Y-118951163D01*
X73275389Y-118929296D01*
X73311020Y-118919582D01*
X73311021Y-118919582D01*
X73319683Y-118917220D01*
X73327333Y-118912523D01*
X73327335Y-118912522D01*
X73422000Y-118854398D01*
X73422003Y-118854395D01*
X73429652Y-118849699D01*
X73438894Y-118839489D01*
X73510228Y-118760681D01*
X73510231Y-118760677D01*
X73516250Y-118754027D01*
X73520162Y-118745954D01*
X73520164Y-118745950D01*
X73532792Y-118719885D01*
X73580494Y-118667302D01*
X73649052Y-118648856D01*
X73716700Y-118670403D01*
X73761512Y-118724074D01*
X73764916Y-118731810D01*
X73768533Y-118740030D01*
X73774310Y-118746903D01*
X73774311Y-118746904D01*
X73841704Y-118827078D01*
X73851567Y-118838811D01*
X73867924Y-118849699D01*
X73943611Y-118900080D01*
X73958988Y-118910316D01*
X74082161Y-118948798D01*
X74091131Y-118948962D01*
X74091135Y-118948963D01*
X74149870Y-118950039D01*
X74211183Y-118951163D01*
X74291389Y-118929296D01*
X74327020Y-118919582D01*
X74327021Y-118919582D01*
X74335683Y-118917220D01*
X74343333Y-118912523D01*
X74343335Y-118912522D01*
X74438000Y-118854398D01*
X74438003Y-118854395D01*
X74445652Y-118849699D01*
X74454894Y-118839489D01*
X74526228Y-118760681D01*
X74526231Y-118760677D01*
X74532250Y-118754027D01*
X74588516Y-118637895D01*
X74591224Y-118621803D01*
X74609118Y-118515437D01*
X74609925Y-118510640D01*
X74610061Y-118499520D01*
X74602168Y-118444406D01*
X74593040Y-118380665D01*
X74593039Y-118380662D01*
X74591767Y-118371779D01*
X74576351Y-118337873D01*
X74542073Y-118262482D01*
X74542071Y-118262479D01*
X74538356Y-118254308D01*
X74475305Y-118181133D01*
X74459979Y-118163346D01*
X74459977Y-118163344D01*
X74454121Y-118156548D01*
X74345834Y-118086361D01*
X74337239Y-118083791D01*
X74337238Y-118083790D01*
X74230802Y-118051958D01*
X74230800Y-118051958D01*
X74222201Y-118049386D01*
X74213226Y-118049331D01*
X74213225Y-118049331D01*
X74182098Y-118049141D01*
X74109790Y-118048700D01*
X74041794Y-118028282D01*
X74021465Y-118011797D01*
X73925263Y-117915595D01*
X73891237Y-117853283D01*
X73896302Y-117782468D01*
X73938849Y-117725632D01*
X74005369Y-117700821D01*
X74014358Y-117700500D01*
X77369384Y-117700500D01*
X77437505Y-117720502D01*
G37*
G04 #@! TD.AperFunction*
G04 #@! TA.AperFunction,Conductor*
G36*
X61248350Y-111347022D02*
G01*
X61294843Y-111400678D01*
X61304947Y-111470952D01*
X61275453Y-111535532D01*
X61265179Y-111545716D01*
X61259681Y-111549185D01*
X61174258Y-111645908D01*
X61170444Y-111654031D01*
X61170443Y-111654033D01*
X61144456Y-111709384D01*
X61119416Y-111762718D01*
X61118036Y-111771584D01*
X61100944Y-111881353D01*
X61100944Y-111881357D01*
X61099563Y-111890226D01*
X61100727Y-111899128D01*
X61100727Y-111899131D01*
X61115130Y-112009275D01*
X61115131Y-112009279D01*
X61116295Y-112018180D01*
X61119912Y-112026400D01*
X61143491Y-112079988D01*
X61154162Y-112130734D01*
X61154162Y-114160482D01*
X61142217Y-114214030D01*
X61137847Y-114223338D01*
X61090791Y-114276500D01*
X61022464Y-114295783D01*
X60954558Y-114275064D01*
X60934697Y-114258885D01*
X60835344Y-114159532D01*
X60801318Y-114097220D01*
X60798439Y-114070437D01*
X60798439Y-114044604D01*
X60811047Y-113989665D01*
X60831527Y-113947395D01*
X60852936Y-113820140D01*
X60853072Y-113809020D01*
X60834778Y-113681279D01*
X60805255Y-113616346D01*
X60785084Y-113571982D01*
X60785082Y-113571979D01*
X60781367Y-113563808D01*
X60728197Y-113502101D01*
X60702990Y-113472846D01*
X60702988Y-113472844D01*
X60697132Y-113466048D01*
X60588845Y-113395861D01*
X60580250Y-113393291D01*
X60580249Y-113393290D01*
X60473813Y-113361458D01*
X60473811Y-113361458D01*
X60465212Y-113358886D01*
X60456237Y-113358831D01*
X60456236Y-113358831D01*
X60401580Y-113358497D01*
X60336170Y-113358098D01*
X60212094Y-113393559D01*
X60208567Y-113395784D01*
X60140612Y-113405016D01*
X60077000Y-113375666D01*
X60051063Y-113353191D01*
X60043380Y-113351520D01*
X58249928Y-113351520D01*
X58181807Y-113331518D01*
X58135314Y-113277862D01*
X58123928Y-113225520D01*
X58123928Y-112983405D01*
X58473928Y-112983405D01*
X58478403Y-112998644D01*
X58479793Y-112999849D01*
X58487476Y-113001520D01*
X60038812Y-113001520D01*
X60054051Y-112997045D01*
X60055256Y-112995655D01*
X60056927Y-112987972D01*
X60056927Y-112956851D01*
X60056557Y-112950030D01*
X60051033Y-112899168D01*
X60047406Y-112883913D01*
X60042472Y-112870751D01*
X60037288Y-112799944D01*
X60042472Y-112782289D01*
X60047405Y-112769130D01*
X60051033Y-112753871D01*
X60056559Y-112703006D01*
X60056928Y-112696192D01*
X60056928Y-112669635D01*
X60052453Y-112654396D01*
X60051063Y-112653191D01*
X60043380Y-112651520D01*
X58492043Y-112651520D01*
X58476804Y-112655995D01*
X58475599Y-112657385D01*
X58473928Y-112665068D01*
X58473928Y-112983405D01*
X58123928Y-112983405D01*
X58123928Y-112427520D01*
X58143930Y-112359399D01*
X58197586Y-112312906D01*
X58249928Y-112301520D01*
X60038812Y-112301520D01*
X60054051Y-112297045D01*
X60055256Y-112295655D01*
X60056927Y-112287972D01*
X60056927Y-112256851D01*
X60056557Y-112250030D01*
X60051033Y-112199168D01*
X60047407Y-112183916D01*
X60002252Y-112063466D01*
X59993714Y-112047871D01*
X59917213Y-111945796D01*
X59904652Y-111933235D01*
X59802577Y-111856734D01*
X59786983Y-111848196D01*
X59781201Y-111846029D01*
X59724436Y-111803389D01*
X59699734Y-111736828D01*
X59699428Y-111728046D01*
X59699428Y-111586700D01*
X59690695Y-111542798D01*
X59677478Y-111523018D01*
X59656266Y-111455266D01*
X59675050Y-111386800D01*
X59727869Y-111339358D01*
X59782246Y-111327020D01*
X61180229Y-111327020D01*
X61248350Y-111347022D01*
G37*
G04 #@! TD.AperFunction*
G04 #@! TA.AperFunction,Conductor*
G36*
X76981073Y-97903352D02*
G01*
X77002047Y-97920255D01*
X82980656Y-103898864D01*
X82996326Y-103917956D01*
X83004804Y-103930644D01*
X83027805Y-103946013D01*
X83027806Y-103946014D01*
X83095933Y-103991535D01*
X83203428Y-104012917D01*
X83218389Y-104009941D01*
X83242971Y-104007520D01*
X83309428Y-104007520D01*
X83377549Y-104027522D01*
X83424042Y-104081178D01*
X83435428Y-104133520D01*
X83435428Y-104171840D01*
X83444161Y-104215742D01*
X83451055Y-104226060D01*
X83451056Y-104226062D01*
X83462258Y-104242827D01*
X83477424Y-104265524D01*
X83483459Y-104269556D01*
X83515775Y-104328737D01*
X83510710Y-104399552D01*
X83468163Y-104456388D01*
X83401643Y-104481199D01*
X83392654Y-104481520D01*
X79887928Y-104481520D01*
X79819807Y-104461518D01*
X79773314Y-104407862D01*
X79761928Y-104355520D01*
X79761928Y-102471096D01*
X79781930Y-102402975D01*
X79802017Y-102380282D01*
X79802152Y-102380199D01*
X79858976Y-102317421D01*
X79882728Y-102291181D01*
X79882731Y-102291177D01*
X79888750Y-102284527D01*
X79945016Y-102168395D01*
X79959496Y-102082329D01*
X79965618Y-102045937D01*
X79966425Y-102041140D01*
X79966561Y-102030020D01*
X79958181Y-101971505D01*
X79949540Y-101911165D01*
X79949539Y-101911162D01*
X79948267Y-101902279D01*
X79944057Y-101893020D01*
X79898573Y-101792982D01*
X79898571Y-101792979D01*
X79894856Y-101784808D01*
X79842255Y-101723761D01*
X79816479Y-101693846D01*
X79816477Y-101693844D01*
X79810621Y-101687048D01*
X79702334Y-101616861D01*
X79693739Y-101614291D01*
X79693738Y-101614290D01*
X79587302Y-101582458D01*
X79587300Y-101582458D01*
X79578701Y-101579886D01*
X79569726Y-101579831D01*
X79569725Y-101579831D01*
X79515069Y-101579497D01*
X79449659Y-101579098D01*
X79409901Y-101590461D01*
X79334214Y-101612092D01*
X79334212Y-101612093D01*
X79325583Y-101614559D01*
X79296563Y-101632869D01*
X79249762Y-101662399D01*
X79216447Y-101683419D01*
X79191270Y-101711927D01*
X79131184Y-101749746D01*
X79096828Y-101754520D01*
X77462541Y-101754520D01*
X77394420Y-101734518D01*
X77367088Y-101710768D01*
X77316979Y-101652613D01*
X77316977Y-101652611D01*
X77311121Y-101645815D01*
X77202834Y-101575628D01*
X77194239Y-101573058D01*
X77194238Y-101573057D01*
X77087802Y-101541225D01*
X77087800Y-101541225D01*
X77079201Y-101538653D01*
X77070226Y-101538598D01*
X77070225Y-101538598D01*
X77015569Y-101538264D01*
X76950159Y-101537865D01*
X76900401Y-101552086D01*
X76834714Y-101570859D01*
X76834712Y-101570860D01*
X76826083Y-101573326D01*
X76813025Y-101581565D01*
X76757085Y-101616861D01*
X76716947Y-101642186D01*
X76711004Y-101648915D01*
X76711003Y-101648916D01*
X76654692Y-101712676D01*
X76631524Y-101738909D01*
X76627709Y-101747034D01*
X76627708Y-101747036D01*
X76607254Y-101790602D01*
X76560198Y-101843765D01*
X76491870Y-101863047D01*
X76423964Y-101842328D01*
X76378040Y-101788185D01*
X76367199Y-101737054D01*
X76367199Y-101712682D01*
X76367198Y-101712676D01*
X76367198Y-101680768D01*
X76364135Y-101671341D01*
X76364134Y-101671334D01*
X76360402Y-101659848D01*
X76355788Y-101640628D01*
X76353898Y-101628694D01*
X76353896Y-101628686D01*
X76352345Y-101618897D01*
X76347845Y-101610066D01*
X76347844Y-101610062D01*
X76342357Y-101599294D01*
X76334793Y-101581033D01*
X76327995Y-101560111D01*
X76317102Y-101545119D01*
X76315067Y-101542317D01*
X76304737Y-101525460D01*
X76299251Y-101514694D01*
X76299250Y-101514693D01*
X76294749Y-101505859D01*
X76205041Y-101416151D01*
X75382927Y-100594036D01*
X75382923Y-100594033D01*
X75360360Y-100571470D01*
X75340764Y-100561485D01*
X75323911Y-100551159D01*
X75306108Y-100538224D01*
X75285184Y-100531425D01*
X75266924Y-100523861D01*
X75256159Y-100518376D01*
X75256155Y-100518375D01*
X75247322Y-100513874D01*
X75237531Y-100512323D01*
X75237530Y-100512323D01*
X75225596Y-100510433D01*
X75206371Y-100505817D01*
X75194886Y-100502085D01*
X75194882Y-100502084D01*
X75185451Y-100499020D01*
X72988900Y-100499020D01*
X72939663Y-100488195D01*
X72936834Y-100486361D01*
X72920888Y-100481592D01*
X72821802Y-100451958D01*
X72821800Y-100451958D01*
X72813201Y-100449386D01*
X72804226Y-100449331D01*
X72804225Y-100449331D01*
X72749569Y-100448997D01*
X72684159Y-100448598D01*
X72672403Y-100451958D01*
X72568714Y-100481592D01*
X72568712Y-100481593D01*
X72560083Y-100484059D01*
X72552493Y-100488848D01*
X72479092Y-100535161D01*
X72450947Y-100552919D01*
X72445004Y-100559648D01*
X72445003Y-100559649D01*
X72377279Y-100636332D01*
X72365524Y-100649642D01*
X72310682Y-100766452D01*
X72309302Y-100775318D01*
X72292210Y-100885087D01*
X72292210Y-100885091D01*
X72290829Y-100893960D01*
X72291993Y-100902862D01*
X72291993Y-100902865D01*
X72306396Y-101013009D01*
X72306397Y-101013013D01*
X72307561Y-101021914D01*
X72359533Y-101140030D01*
X72365310Y-101146903D01*
X72365311Y-101146904D01*
X72440879Y-101236803D01*
X72469400Y-101301818D01*
X72470428Y-101317878D01*
X72470428Y-101700067D01*
X72468007Y-101724649D01*
X72465031Y-101739610D01*
X72470428Y-101766742D01*
X72470428Y-101766743D01*
X72486413Y-101847105D01*
X72493307Y-101857423D01*
X72493308Y-101857425D01*
X72506334Y-101876919D01*
X72506341Y-101876930D01*
X72527067Y-101907948D01*
X72527069Y-101907950D01*
X72547304Y-101938234D01*
X72557620Y-101945127D01*
X72557621Y-101945128D01*
X72559992Y-101946712D01*
X72579084Y-101962382D01*
X73697720Y-103081018D01*
X73731746Y-103143330D01*
X73734389Y-103169408D01*
X73733284Y-103176505D01*
X73734448Y-103185407D01*
X73734448Y-103185409D01*
X73748851Y-103295554D01*
X73748852Y-103295558D01*
X73750016Y-103304459D01*
X73753633Y-103312679D01*
X73788262Y-103391379D01*
X73801988Y-103422575D01*
X73807765Y-103429448D01*
X73807766Y-103429449D01*
X73830522Y-103456520D01*
X73885022Y-103521356D01*
X73992443Y-103592861D01*
X74115616Y-103631343D01*
X74124586Y-103631507D01*
X74124590Y-103631508D01*
X74183325Y-103632584D01*
X74244638Y-103633708D01*
X74321679Y-103612704D01*
X74360475Y-103602127D01*
X74360476Y-103602127D01*
X74369138Y-103599765D01*
X74376788Y-103595068D01*
X74376790Y-103595067D01*
X74471455Y-103536943D01*
X74471458Y-103536940D01*
X74479107Y-103532244D01*
X74485133Y-103525587D01*
X74559683Y-103443226D01*
X74559686Y-103443222D01*
X74565705Y-103436572D01*
X74621971Y-103320440D01*
X74628095Y-103284043D01*
X74642573Y-103197982D01*
X74643380Y-103193185D01*
X74643516Y-103182065D01*
X74635294Y-103124655D01*
X74626495Y-103063210D01*
X74626494Y-103063207D01*
X74625222Y-103054324D01*
X74621508Y-103046155D01*
X74575528Y-102945027D01*
X74575526Y-102945024D01*
X74571811Y-102936853D01*
X74523360Y-102880622D01*
X74493434Y-102845891D01*
X74493432Y-102845889D01*
X74487576Y-102839093D01*
X74379289Y-102768906D01*
X74370694Y-102766336D01*
X74370693Y-102766335D01*
X74264257Y-102734503D01*
X74264255Y-102734503D01*
X74255656Y-102731931D01*
X74246681Y-102731876D01*
X74246680Y-102731876D01*
X74203836Y-102731615D01*
X74178819Y-102731462D01*
X74110822Y-102711044D01*
X74090493Y-102694559D01*
X73959818Y-102563884D01*
X73925792Y-102501572D01*
X73930857Y-102430757D01*
X73973404Y-102373921D01*
X73982984Y-102367414D01*
X73991085Y-102362440D01*
X74072054Y-102312725D01*
X74102136Y-102279491D01*
X74162679Y-102242409D01*
X74195551Y-102238046D01*
X74216997Y-102238046D01*
X74285118Y-102258048D01*
X74306092Y-102274951D01*
X74819093Y-102787952D01*
X74834760Y-102807041D01*
X74843240Y-102819731D01*
X74853553Y-102826622D01*
X74866241Y-102835100D01*
X74865384Y-102836383D01*
X74865390Y-102836387D01*
X74866247Y-102835104D01*
X74872217Y-102839093D01*
X74934369Y-102880622D01*
X75014731Y-102896607D01*
X75029692Y-102899583D01*
X75029693Y-102899583D01*
X75041864Y-102902004D01*
X75056825Y-102899028D01*
X75081407Y-102896607D01*
X75123034Y-102896607D01*
X75191155Y-102916609D01*
X75212129Y-102933512D01*
X76890523Y-104611906D01*
X76924549Y-104674218D01*
X76927428Y-104701001D01*
X76927428Y-105843187D01*
X76907426Y-105911308D01*
X76895871Y-105926593D01*
X76822524Y-106009642D01*
X76818710Y-106017765D01*
X76818709Y-106017767D01*
X76806872Y-106042980D01*
X76767682Y-106126452D01*
X76760702Y-106171283D01*
X76749210Y-106245087D01*
X76749210Y-106245091D01*
X76747829Y-106253960D01*
X76748993Y-106262862D01*
X76748993Y-106262865D01*
X76763396Y-106373009D01*
X76763397Y-106373013D01*
X76764561Y-106381914D01*
X76768178Y-106390134D01*
X76808454Y-106481668D01*
X76816533Y-106500030D01*
X76822310Y-106506903D01*
X76822311Y-106506904D01*
X76875495Y-106570174D01*
X76899567Y-106598811D01*
X77006988Y-106670316D01*
X77095866Y-106698084D01*
X77109161Y-106702237D01*
X77130161Y-106708798D01*
X77139131Y-106708962D01*
X77139135Y-106708963D01*
X77197870Y-106710039D01*
X77259183Y-106711163D01*
X77323966Y-106693501D01*
X77375020Y-106679582D01*
X77375021Y-106679582D01*
X77383683Y-106677220D01*
X77391333Y-106672523D01*
X77391335Y-106672522D01*
X77480994Y-106617471D01*
X77493652Y-106609699D01*
X77499310Y-106603448D01*
X77564246Y-106575432D01*
X77634291Y-106587016D01*
X77660604Y-106605700D01*
X77662804Y-106608993D01*
X77673117Y-106615884D01*
X77675492Y-106617471D01*
X77694584Y-106633141D01*
X78795368Y-107733925D01*
X78829394Y-107796237D01*
X78824329Y-107867052D01*
X78781782Y-107923888D01*
X78715262Y-107948699D01*
X78706273Y-107949020D01*
X77054005Y-107949020D01*
X76985884Y-107929018D01*
X76964910Y-107912115D01*
X74601902Y-105549107D01*
X74586232Y-105530014D01*
X74586039Y-105529725D01*
X74586037Y-105529723D01*
X74579145Y-105519408D01*
X74517388Y-105478144D01*
X74496285Y-105464043D01*
X74398544Y-105444601D01*
X74386373Y-105447022D01*
X74386372Y-105447022D01*
X74386040Y-105447088D01*
X74361459Y-105449509D01*
X73737524Y-105449509D01*
X73712943Y-105447088D01*
X73712611Y-105447022D01*
X73712610Y-105447022D01*
X73700439Y-105444601D01*
X73602698Y-105464043D01*
X73581595Y-105478144D01*
X73519838Y-105519408D01*
X73512946Y-105529723D01*
X73512944Y-105529725D01*
X73512751Y-105530014D01*
X73497081Y-105549107D01*
X73273853Y-105772335D01*
X73211541Y-105806361D01*
X73183989Y-105809238D01*
X73142409Y-105808984D01*
X73079159Y-105808598D01*
X73067403Y-105811958D01*
X72963714Y-105841592D01*
X72963712Y-105841593D01*
X72955083Y-105844059D01*
X72947493Y-105848848D01*
X72864535Y-105901191D01*
X72845947Y-105912919D01*
X72840004Y-105919648D01*
X72840003Y-105919649D01*
X72772279Y-105996332D01*
X72760524Y-106009642D01*
X72756710Y-106017765D01*
X72756709Y-106017767D01*
X72744872Y-106042980D01*
X72705682Y-106126452D01*
X72698702Y-106171283D01*
X72687210Y-106245087D01*
X72687210Y-106245091D01*
X72685829Y-106253960D01*
X72686993Y-106262862D01*
X72686993Y-106262865D01*
X72701396Y-106373009D01*
X72701397Y-106373013D01*
X72702561Y-106381914D01*
X72706178Y-106390134D01*
X72746454Y-106481668D01*
X72754533Y-106500030D01*
X72760310Y-106506903D01*
X72760311Y-106506904D01*
X72813495Y-106570174D01*
X72837567Y-106598811D01*
X72944988Y-106670316D01*
X73068161Y-106708798D01*
X73075754Y-106708937D01*
X73139173Y-106739272D01*
X73176490Y-106799671D01*
X73175228Y-106870656D01*
X73144077Y-106922111D01*
X69328562Y-110737626D01*
X69266250Y-110771652D01*
X69239467Y-110774531D01*
X67224388Y-110774531D01*
X67156267Y-110754529D01*
X67109774Y-110700873D01*
X67099670Y-110630599D01*
X67102600Y-110617850D01*
X67104516Y-110613895D01*
X67125925Y-110486640D01*
X67126061Y-110475520D01*
X67107767Y-110347779D01*
X67093239Y-110315826D01*
X67058073Y-110238482D01*
X67058071Y-110238479D01*
X67054356Y-110230308D01*
X66970121Y-110132548D01*
X66861834Y-110062361D01*
X66853239Y-110059791D01*
X66853238Y-110059790D01*
X66746802Y-110027958D01*
X66746800Y-110027958D01*
X66738201Y-110025386D01*
X66729226Y-110025331D01*
X66729225Y-110025331D01*
X66686381Y-110025070D01*
X66661364Y-110024917D01*
X66593367Y-110004499D01*
X66573038Y-109988014D01*
X66408822Y-109823798D01*
X66374796Y-109761486D01*
X66371917Y-109734703D01*
X66371917Y-108993485D01*
X66391919Y-108925364D01*
X66445575Y-108878871D01*
X66515849Y-108868767D01*
X66535483Y-108873216D01*
X66598161Y-108892798D01*
X66607131Y-108892962D01*
X66607135Y-108892963D01*
X66665870Y-108894039D01*
X66727183Y-108895163D01*
X66789433Y-108878192D01*
X66843020Y-108863582D01*
X66843021Y-108863582D01*
X66851683Y-108861220D01*
X66859333Y-108856523D01*
X66859335Y-108856522D01*
X66954000Y-108798398D01*
X66954003Y-108798395D01*
X66961652Y-108793699D01*
X66968886Y-108785707D01*
X67042228Y-108704681D01*
X67042231Y-108704677D01*
X67048250Y-108698027D01*
X67104516Y-108581895D01*
X67108063Y-108560816D01*
X67125118Y-108459437D01*
X67125925Y-108454640D01*
X67126061Y-108443520D01*
X67125805Y-108441735D01*
X67141157Y-108373276D01*
X67166476Y-108345768D01*
X67164491Y-108343783D01*
X67173270Y-108335004D01*
X67183583Y-108328113D01*
X67192764Y-108314374D01*
X67203253Y-108298676D01*
X67235977Y-108249700D01*
X67235978Y-108249699D01*
X67237579Y-108247303D01*
X67244474Y-108236984D01*
X67260459Y-108156622D01*
X67260459Y-108156621D01*
X67262392Y-108146904D01*
X67263435Y-108141661D01*
X67263435Y-108141660D01*
X67265856Y-108129489D01*
X67262880Y-108114528D01*
X67260459Y-108089946D01*
X67260459Y-104464313D01*
X67280461Y-104396192D01*
X67297364Y-104375218D01*
X67503393Y-104169189D01*
X68187929Y-104169189D01*
X68188299Y-104176010D01*
X68193823Y-104226872D01*
X68197449Y-104242124D01*
X68242604Y-104362574D01*
X68251142Y-104378169D01*
X68327643Y-104480244D01*
X68340204Y-104492805D01*
X68442279Y-104569306D01*
X68457874Y-104577844D01*
X68578322Y-104622998D01*
X68593577Y-104626625D01*
X68644442Y-104632151D01*
X68651256Y-104632520D01*
X68848813Y-104632520D01*
X68864052Y-104628045D01*
X68865257Y-104626655D01*
X68866928Y-104618972D01*
X68866928Y-104614404D01*
X69374928Y-104614404D01*
X69379403Y-104629643D01*
X69380793Y-104630848D01*
X69388476Y-104632519D01*
X69590597Y-104632519D01*
X69597418Y-104632149D01*
X69648280Y-104626625D01*
X69663532Y-104622999D01*
X69783982Y-104577844D01*
X69799577Y-104569306D01*
X69901652Y-104492805D01*
X69914213Y-104480244D01*
X69990714Y-104378169D01*
X69999253Y-104362572D01*
X69999964Y-104360676D01*
X70001171Y-104359070D01*
X70003562Y-104354702D01*
X70004193Y-104355047D01*
X70042606Y-104303913D01*
X70109168Y-104279214D01*
X70113830Y-104279051D01*
X70120928Y-104279986D01*
X70129116Y-104278908D01*
X70262976Y-104261285D01*
X70271164Y-104260207D01*
X70411161Y-104202218D01*
X70531379Y-104109971D01*
X70533664Y-104106993D01*
X70594145Y-104073967D01*
X70664960Y-104079032D01*
X70707924Y-104106644D01*
X70710477Y-104109971D01*
X70830695Y-104202218D01*
X70970692Y-104260207D01*
X70978880Y-104261285D01*
X71011200Y-104265540D01*
X71120928Y-104279986D01*
X71129116Y-104278908D01*
X71262976Y-104261285D01*
X71271164Y-104260207D01*
X71411161Y-104202218D01*
X71531379Y-104109971D01*
X71533664Y-104106993D01*
X71594145Y-104073967D01*
X71664960Y-104079032D01*
X71707924Y-104106644D01*
X71710477Y-104109971D01*
X71830695Y-104202218D01*
X71970692Y-104260207D01*
X71978880Y-104261285D01*
X72011200Y-104265540D01*
X72120928Y-104279986D01*
X72129116Y-104278908D01*
X72262976Y-104261285D01*
X72271164Y-104260207D01*
X72411161Y-104202218D01*
X72531379Y-104109971D01*
X72623626Y-103989753D01*
X72681615Y-103849756D01*
X72701394Y-103699520D01*
X72681615Y-103549284D01*
X72623626Y-103409287D01*
X72531379Y-103289069D01*
X72411161Y-103196822D01*
X72271164Y-103138833D01*
X72120928Y-103119054D01*
X71970692Y-103138833D01*
X71830695Y-103196822D01*
X71710477Y-103289069D01*
X71708192Y-103292047D01*
X71647711Y-103325073D01*
X71576896Y-103320008D01*
X71533932Y-103292396D01*
X71531379Y-103289069D01*
X71411161Y-103196822D01*
X71271164Y-103138833D01*
X71120928Y-103119054D01*
X70970692Y-103138833D01*
X70830695Y-103196822D01*
X70710477Y-103289069D01*
X70708192Y-103292047D01*
X70647711Y-103325073D01*
X70576896Y-103320008D01*
X70533932Y-103292396D01*
X70531379Y-103289069D01*
X70411161Y-103196822D01*
X70271164Y-103138833D01*
X70120928Y-103119054D01*
X70116334Y-103119659D01*
X70049824Y-103100130D01*
X70003331Y-103046474D01*
X69999964Y-103038364D01*
X69999253Y-103036468D01*
X69990714Y-103020871D01*
X69914213Y-102918796D01*
X69901652Y-102906235D01*
X69799577Y-102829734D01*
X69783982Y-102821196D01*
X69663534Y-102776042D01*
X69648279Y-102772415D01*
X69597414Y-102766889D01*
X69590600Y-102766520D01*
X69393043Y-102766520D01*
X69377804Y-102770995D01*
X69376599Y-102772385D01*
X69374928Y-102780068D01*
X69374928Y-104614404D01*
X68866928Y-104614404D01*
X68866928Y-103971635D01*
X68862453Y-103956396D01*
X68861063Y-103955191D01*
X68853380Y-103953520D01*
X68206044Y-103953520D01*
X68190805Y-103957995D01*
X68189600Y-103959385D01*
X68187929Y-103967068D01*
X68187929Y-104169189D01*
X67503393Y-104169189D01*
X68190157Y-103482425D01*
X68252469Y-103448399D01*
X68279252Y-103445520D01*
X68848813Y-103445520D01*
X68864052Y-103441045D01*
X68865257Y-103439655D01*
X68866928Y-103431972D01*
X68866928Y-102857844D01*
X68886930Y-102789723D01*
X68903833Y-102768749D01*
X73177816Y-98494766D01*
X73240128Y-98460740D01*
X73266911Y-98457861D01*
X75067343Y-98457861D01*
X75135464Y-98477863D01*
X75156438Y-98494766D01*
X75273800Y-98612128D01*
X75307826Y-98674440D01*
X75310469Y-98700518D01*
X75309364Y-98707615D01*
X75310528Y-98716517D01*
X75310528Y-98716519D01*
X75324931Y-98826664D01*
X75324932Y-98826668D01*
X75326096Y-98835569D01*
X75341467Y-98870503D01*
X75372303Y-98940582D01*
X75378068Y-98953685D01*
X75383845Y-98960558D01*
X75383846Y-98960559D01*
X75455322Y-99045590D01*
X75461102Y-99052466D01*
X75568523Y-99123971D01*
X75691696Y-99162453D01*
X75700666Y-99162617D01*
X75700670Y-99162618D01*
X75759405Y-99163694D01*
X75820718Y-99164818D01*
X75882968Y-99147847D01*
X75936555Y-99133237D01*
X75936556Y-99133237D01*
X75945218Y-99130875D01*
X75952868Y-99126178D01*
X75952870Y-99126177D01*
X76047535Y-99068053D01*
X76047538Y-99068050D01*
X76055187Y-99063354D01*
X76061213Y-99056697D01*
X76135763Y-98974336D01*
X76135766Y-98974332D01*
X76141785Y-98967682D01*
X76198051Y-98851550D01*
X76204928Y-98810677D01*
X76218653Y-98729092D01*
X76219460Y-98724295D01*
X76219596Y-98713175D01*
X76201302Y-98585434D01*
X76195613Y-98572921D01*
X76151608Y-98476137D01*
X76151606Y-98476134D01*
X76147891Y-98467963D01*
X76107653Y-98421264D01*
X76069514Y-98377001D01*
X76069512Y-98376999D01*
X76063656Y-98370203D01*
X75955369Y-98300016D01*
X75946774Y-98297446D01*
X75946773Y-98297445D01*
X75840337Y-98265613D01*
X75840335Y-98265613D01*
X75831736Y-98263041D01*
X75822761Y-98262986D01*
X75822760Y-98262986D01*
X75779916Y-98262725D01*
X75754899Y-98262572D01*
X75686902Y-98242154D01*
X75666573Y-98225669D01*
X75539349Y-98098445D01*
X75505323Y-98036133D01*
X75510388Y-97965318D01*
X75552935Y-97908482D01*
X75619455Y-97883671D01*
X75628444Y-97883350D01*
X76912952Y-97883350D01*
X76981073Y-97903352D01*
G37*
G04 #@! TD.AperFunction*
G04 #@! TA.AperFunction,Conductor*
G36*
X64842855Y-106210854D02*
G01*
X64861432Y-106226178D01*
X65168523Y-106533269D01*
X65202549Y-106595581D01*
X65205428Y-106622364D01*
X65205428Y-107483187D01*
X65185426Y-107551308D01*
X65173871Y-107566593D01*
X65100524Y-107649642D01*
X65096710Y-107657765D01*
X65096709Y-107657767D01*
X65093784Y-107663997D01*
X65045682Y-107766452D01*
X65036554Y-107825078D01*
X65027210Y-107885087D01*
X65027210Y-107885091D01*
X65025829Y-107893960D01*
X65026993Y-107902862D01*
X65026993Y-107902865D01*
X65041396Y-108013009D01*
X65041397Y-108013013D01*
X65042561Y-108021914D01*
X65046178Y-108030134D01*
X65084540Y-108117318D01*
X65094533Y-108140030D01*
X65100310Y-108146903D01*
X65100311Y-108146904D01*
X65125843Y-108177278D01*
X65177567Y-108238811D01*
X65284988Y-108310316D01*
X65341953Y-108328113D01*
X65398463Y-108345768D01*
X65408161Y-108348798D01*
X65417131Y-108348962D01*
X65417135Y-108348963D01*
X65475870Y-108350039D01*
X65537183Y-108351163D01*
X65661683Y-108317220D01*
X65662696Y-108320937D01*
X65715124Y-108314374D01*
X65779155Y-108345042D01*
X65816442Y-108405459D01*
X65820917Y-108438743D01*
X65820917Y-109744186D01*
X65800915Y-109812307D01*
X65747259Y-109858800D01*
X65676985Y-109868904D01*
X65612405Y-109839410D01*
X65605822Y-109833281D01*
X64598159Y-108825618D01*
X64582489Y-108806525D01*
X64582296Y-108806236D01*
X64582294Y-108806234D01*
X64575402Y-108795919D01*
X64492541Y-108740554D01*
X64419475Y-108726020D01*
X64394801Y-108721112D01*
X64382630Y-108723533D01*
X64382629Y-108723533D01*
X64382297Y-108723599D01*
X64357716Y-108726020D01*
X60169574Y-108726020D01*
X60101453Y-108706018D01*
X60054960Y-108652362D01*
X60044856Y-108582088D01*
X60046991Y-108570875D01*
X60051033Y-108553874D01*
X60056559Y-108503006D01*
X60056928Y-108496192D01*
X60056928Y-108469635D01*
X60052453Y-108454396D01*
X60051063Y-108453191D01*
X60043380Y-108451520D01*
X57175917Y-108451520D01*
X57107796Y-108431518D01*
X57061303Y-108377862D01*
X57049917Y-108325520D01*
X57049917Y-108228509D01*
X57069919Y-108160388D01*
X57123575Y-108113895D01*
X57175917Y-108102509D01*
X59361354Y-108102509D01*
X59385935Y-108104930D01*
X59386267Y-108104996D01*
X59386268Y-108104996D01*
X59398439Y-108107417D01*
X59410610Y-108104996D01*
X59410611Y-108104996D01*
X59415915Y-108103941D01*
X59440496Y-108101520D01*
X60038812Y-108101520D01*
X60054051Y-108097045D01*
X60055256Y-108095655D01*
X60056927Y-108087972D01*
X60056927Y-108056851D01*
X60056557Y-108050030D01*
X60051033Y-107999168D01*
X60047407Y-107983916D01*
X60002252Y-107863466D01*
X59993714Y-107847871D01*
X59957751Y-107799886D01*
X59932903Y-107733379D01*
X59947956Y-107663997D01*
X59969482Y-107635226D01*
X61017783Y-106586925D01*
X61080095Y-106552899D01*
X61106878Y-106550020D01*
X63972863Y-106550020D01*
X63997444Y-106552441D01*
X63997776Y-106552507D01*
X63997777Y-106552507D01*
X64009948Y-106554928D01*
X64022119Y-106552507D01*
X64095518Y-106537907D01*
X64107689Y-106535486D01*
X64118006Y-106528592D01*
X64118009Y-106528591D01*
X64131875Y-106519326D01*
X64204186Y-106498112D01*
X64242146Y-106498808D01*
X64317183Y-106500183D01*
X64413026Y-106474053D01*
X64433020Y-106468602D01*
X64433021Y-106468602D01*
X64441683Y-106466240D01*
X64449333Y-106461543D01*
X64449335Y-106461542D01*
X64544000Y-106403418D01*
X64544003Y-106403415D01*
X64551652Y-106398719D01*
X64560408Y-106389046D01*
X64632228Y-106309701D01*
X64632231Y-106309697D01*
X64638250Y-106303047D01*
X64658945Y-106260333D01*
X64706649Y-106207751D01*
X64775207Y-106189306D01*
X64842855Y-106210854D01*
G37*
G04 #@! TD.AperFunction*
M02*
