M48
; DRILL file {KiCad (6.0.0-0)} date 2022 January 30, Sunday 19:11:17
; FORMAT={-:-/ absolute / inch / decimal}
; #@! TF.CreationDate,2022-01-30T19:11:17+10:00
; #@! TF.GenerationSoftware,Kicad,Pcbnew,(6.0.0-0)
; #@! TF.FileFunction,Plated,1,2,PTH
FMAT,2
INCH
; #@! TA.AperFunction,Plated,PTH,ViaDrill
T1C0.0118
; #@! TA.AperFunction,Plated,PTH,ViaDrill
T2C0.0130
; #@! TA.AperFunction,Plated,PTH,ComponentDrill
T3C0.0157
; #@! TA.AperFunction,Plated,PTH,ComponentDrill
T4C0.0197
; #@! TA.AperFunction,Plated,PTH,ComponentDrill
T5C0.0236
%
G90
G05
T1
X2.4321Y-3.8504
X2.4571Y-3.7148
X2.4631Y-4.3453
X2.4778Y-4.418
X2.48Y-3.5925
X2.4943Y-3.7965
X2.5386Y-4.3421
X2.5593Y-3.7965
X2.576Y-4.2555
X2.5798Y-4.0188
X2.5798Y-4.1566
X2.6019Y-3.6975
X2.6219Y-4.4722
X2.6453Y-3.6151
X2.6625Y-4.0712
X2.685Y-3.8087
X2.689Y-4.2551
X2.7073Y-4.096
X2.708Y-3.9959
X2.7244Y-4.4112
X2.7244Y-4.4722
X2.7276Y-4.2787
X2.7522Y-4.1929
X2.7577Y-3.5228
X2.8108Y-4.1921
X2.8146Y-3.7657
X2.8175Y-3.3595
X2.8209Y-4.3181
X2.8321Y-3.8087
X2.8576Y-3.6957
X2.8626Y-3.8386
X2.9094Y-3.86
X2.9094Y-3.94
X2.9141Y-4.2768
X2.965Y-4.5099
X2.9902Y-4.4883
X3.0041Y-4.2559
X3.0334Y-4.4918
X3.0876Y-3.563
X3.1486Y-3.563
X3.1641Y-3.7441
X3.1641Y-4.2559
X3.1894Y-3.6048
X3.2041Y-4.2559
X3.2047Y-3.7441
X3.2054Y-3.6529
X3.2414Y-3.6554
X3.2479Y-3.6077
X3.2675Y-3.456
X3.2675Y-4.544
X3.3008Y-3.5724
X3.3156Y-3.6434
X3.3166Y-3.6059
X3.3241Y-3.7441
X3.35Y-3.67
X3.3671Y-4.3382
X3.415Y-3.6075
X3.4225Y-4.2008
X3.424Y-4.3018
X3.4441Y-3.7441
X3.4441Y-4.2559
X3.4745Y-3.67
X3.4841Y-3.7441
X3.4915Y-4.334
X3.5565Y-4.334
T2
X3.0949Y-3.387
T4
X2.3874Y-4.0322
X2.3874Y-4.0716
X3.0059Y-3.6732
X3.0059Y-4.3272
X3.0453Y-3.6732
X3.0453Y-4.3272
X3.0846Y-3.6732
X3.0846Y-4.3272
X3.124Y-3.6732
X3.124Y-4.3272
X3.5921Y-3.6745
X3.5921Y-3.7139
T3
G00X2.5672Y-3.5061
M15
G01X2.5543Y-3.4863
M16
G05
G00X2.5672Y-4.4939
M15
G01X2.5543Y-4.5137
M16
G05
G00X2.7349Y-3.3972
M15
G01X2.7221Y-3.3774
M16
G05
G00X2.7349Y-4.6028
M15
G01X2.7221Y-4.6226
M16
G05
G00X3.2651Y-3.3972
M15
G01X3.2779Y-3.3774
M16
G05
G00X3.2651Y-4.6028
M15
G01X3.2779Y-4.6226
M16
G05
G00X3.4328Y-3.5061
M15
G01X3.4457Y-3.4863
M16
G05
G00X3.4328Y-4.4939
M15
G01X3.4457Y-4.5137
M16
G05
T5
G00X2.8299Y-4.463
M15
G01X2.8299Y-4.5063
M16
G05
G00X2.8299Y-4.6374
M15
G01X2.8299Y-4.661
M16
G05
G00X3.1701Y-4.463
M15
G01X3.1701Y-4.5063
M16
G05
G00X3.1701Y-4.6374
M15
G01X3.1701Y-4.661
M16
G05
T0
M30
