G04 #@! TF.GenerationSoftware,KiCad,Pcbnew,(6.0.0-0)*
G04 #@! TF.CreationDate,2022-01-16T16:26:29+10:00*
G04 #@! TF.ProjectId,osw-light,6f73772d-6c69-4676-9874-2e6b69636164,3.3*
G04 #@! TF.SameCoordinates,Original*
G04 #@! TF.FileFunction,Copper,L1,Top*
G04 #@! TF.FilePolarity,Positive*
%FSLAX46Y46*%
G04 Gerber Fmt 4.6, Leading zero omitted, Abs format (unit mm)*
G04 Created by KiCad (PCBNEW (6.0.0-0)) date 2022-01-16 16:26:29*
%MOMM*%
%LPD*%
G01*
G04 APERTURE LIST*
G04 Aperture macros list*
%AMRoundRect*
0 Rectangle with rounded corners*
0 $1 Rounding radius*
0 $2 $3 $4 $5 $6 $7 $8 $9 X,Y pos of 4 corners*
0 Add a 4 corners polygon primitive as box body*
4,1,4,$2,$3,$4,$5,$6,$7,$8,$9,$2,$3,0*
0 Add four circle primitives for the rounded corners*
1,1,$1+$1,$2,$3*
1,1,$1+$1,$4,$5*
1,1,$1+$1,$6,$7*
1,1,$1+$1,$8,$9*
0 Add four rect primitives between the rounded corners*
20,1,$1+$1,$2,$3,$4,$5,0*
20,1,$1+$1,$4,$5,$6,$7,0*
20,1,$1+$1,$6,$7,$8,$9,0*
20,1,$1+$1,$8,$9,$2,$3,0*%
%AMHorizOval*
0 Thick line with rounded ends*
0 $1 width*
0 $2 $3 position (X,Y) of the first rounded end (center of the circle)*
0 $4 $5 position (X,Y) of the second rounded end (center of the circle)*
0 Add line between two ends*
20,1,$1,$2,$3,$4,$5,0*
0 Add two circle primitives to create the rounded ends*
1,1,$1,$2,$3*
1,1,$1,$4,$5*%
%AMRotRect*
0 Rectangle, with rotation*
0 The origin of the aperture is its center*
0 $1 length*
0 $2 width*
0 $3 Rotation angle, in degrees counterclockwise*
0 Add horizontal line*
21,1,$1,$2,0,0,$3*%
G04 Aperture macros list end*
G04 #@! TA.AperFunction,SMDPad,CuDef*
%ADD10R,0.600000X1.150000*%
G04 #@! TD*
G04 #@! TA.AperFunction,SMDPad,CuDef*
%ADD11R,0.300000X1.150000*%
G04 #@! TD*
G04 #@! TA.AperFunction,ComponentPad*
%ADD12O,1.050000X2.100000*%
G04 #@! TD*
G04 #@! TA.AperFunction,ComponentPad*
%ADD13O,1.000000X2.000000*%
G04 #@! TD*
G04 #@! TA.AperFunction,ComponentPad*
%ADD14HorizOval,0.600000X0.251623X-0.387466X-0.251623X0.387466X0*%
G04 #@! TD*
G04 #@! TA.AperFunction,SMDPad,CuDef*
%ADD15RotRect,1.524000X0.500000X303.000000*%
G04 #@! TD*
G04 #@! TA.AperFunction,ComponentPad*
%ADD16HorizOval,0.600000X-0.251623X-0.387466X0.251623X0.387466X0*%
G04 #@! TD*
G04 #@! TA.AperFunction,SMDPad,CuDef*
%ADD17RotRect,1.524000X0.500000X237.000000*%
G04 #@! TD*
G04 #@! TA.AperFunction,SMDPad,CuDef*
%ADD18RoundRect,0.200000X0.200000X0.275000X-0.200000X0.275000X-0.200000X-0.275000X0.200000X-0.275000X0*%
G04 #@! TD*
G04 #@! TA.AperFunction,SMDPad,CuDef*
%ADD19RoundRect,0.225000X-0.225000X-0.250000X0.225000X-0.250000X0.225000X0.250000X-0.225000X0.250000X0*%
G04 #@! TD*
G04 #@! TA.AperFunction,SMDPad,CuDef*
%ADD20RoundRect,0.200000X-0.200000X-0.275000X0.200000X-0.275000X0.200000X0.275000X-0.200000X0.275000X0*%
G04 #@! TD*
G04 #@! TA.AperFunction,SMDPad,CuDef*
%ADD21RoundRect,0.150000X-0.825000X-0.150000X0.825000X-0.150000X0.825000X0.150000X-0.825000X0.150000X0*%
G04 #@! TD*
G04 #@! TA.AperFunction,SMDPad,CuDef*
%ADD22RoundRect,0.225000X0.225000X0.250000X-0.225000X0.250000X-0.225000X-0.250000X0.225000X-0.250000X0*%
G04 #@! TD*
G04 #@! TA.AperFunction,SMDPad,CuDef*
%ADD23RoundRect,0.225000X0.250000X-0.225000X0.250000X0.225000X-0.250000X0.225000X-0.250000X-0.225000X0*%
G04 #@! TD*
G04 #@! TA.AperFunction,ComponentPad*
%ADD24HorizOval,0.600000X-0.251623X0.387466X0.251623X-0.387466X0*%
G04 #@! TD*
G04 #@! TA.AperFunction,SMDPad,CuDef*
%ADD25RotRect,1.524000X0.500000X123.000000*%
G04 #@! TD*
G04 #@! TA.AperFunction,SMDPad,CuDef*
%ADD26R,1.400000X0.300000*%
G04 #@! TD*
G04 #@! TA.AperFunction,SMDPad,CuDef*
%ADD27RoundRect,0.100000X0.637500X0.100000X-0.637500X0.100000X-0.637500X-0.100000X0.637500X-0.100000X0*%
G04 #@! TD*
G04 #@! TA.AperFunction,SMDPad,CuDef*
%ADD28R,0.350000X0.375000*%
G04 #@! TD*
G04 #@! TA.AperFunction,SMDPad,CuDef*
%ADD29R,0.375000X0.350000*%
G04 #@! TD*
G04 #@! TA.AperFunction,SMDPad,CuDef*
%ADD30RoundRect,0.200000X-0.275000X0.200000X-0.275000X-0.200000X0.275000X-0.200000X0.275000X0.200000X0*%
G04 #@! TD*
G04 #@! TA.AperFunction,SMDPad,CuDef*
%ADD31RoundRect,0.250000X-0.325000X-0.650000X0.325000X-0.650000X0.325000X0.650000X-0.325000X0.650000X0*%
G04 #@! TD*
G04 #@! TA.AperFunction,SMDPad,CuDef*
%ADD32RoundRect,0.150000X0.150000X-0.512500X0.150000X0.512500X-0.150000X0.512500X-0.150000X-0.512500X0*%
G04 #@! TD*
G04 #@! TA.AperFunction,SMDPad,CuDef*
%ADD33R,0.600000X1.524000*%
G04 #@! TD*
G04 #@! TA.AperFunction,SMDPad,CuDef*
%ADD34R,1.524000X0.600000*%
G04 #@! TD*
G04 #@! TA.AperFunction,SMDPad,CuDef*
%ADD35R,5.000000X5.000000*%
G04 #@! TD*
G04 #@! TA.AperFunction,SMDPad,CuDef*
%ADD36RoundRect,0.150000X-0.587500X-0.150000X0.587500X-0.150000X0.587500X0.150000X-0.587500X0.150000X0*%
G04 #@! TD*
G04 #@! TA.AperFunction,ComponentPad*
%ADD37HorizOval,0.600000X0.251623X0.387466X-0.251623X-0.387466X0*%
G04 #@! TD*
G04 #@! TA.AperFunction,SMDPad,CuDef*
%ADD38RotRect,1.524000X0.500000X57.000000*%
G04 #@! TD*
G04 #@! TA.AperFunction,SMDPad,CuDef*
%ADD39R,0.650000X1.060000*%
G04 #@! TD*
G04 #@! TA.AperFunction,SMDPad,CuDef*
%ADD40RoundRect,0.243750X0.456250X-0.243750X0.456250X0.243750X-0.456250X0.243750X-0.456250X-0.243750X0*%
G04 #@! TD*
G04 #@! TA.AperFunction,ComponentPad*
%ADD41R,1.700000X1.700000*%
G04 #@! TD*
G04 #@! TA.AperFunction,ComponentPad*
%ADD42O,1.700000X1.700000*%
G04 #@! TD*
G04 #@! TA.AperFunction,SMDPad,CuDef*
%ADD43RoundRect,0.200000X0.275000X-0.200000X0.275000X0.200000X-0.275000X0.200000X-0.275000X-0.200000X0*%
G04 #@! TD*
G04 #@! TA.AperFunction,ViaPad*
%ADD44C,0.600000*%
G04 #@! TD*
G04 #@! TA.AperFunction,Conductor*
%ADD45C,0.500000*%
G04 #@! TD*
G04 #@! TA.AperFunction,Conductor*
%ADD46C,0.250000*%
G04 #@! TD*
G04 #@! TA.AperFunction,Conductor*
%ADD47C,0.400000*%
G04 #@! TD*
G04 #@! TA.AperFunction,Conductor*
%ADD48C,0.200000*%
G04 #@! TD*
G04 APERTURE END LIST*
D10*
X79400000Y-112845000D03*
X73000000Y-112845000D03*
X78600000Y-112845000D03*
X73800000Y-112845000D03*
D11*
X74950000Y-112845000D03*
X75950000Y-112845000D03*
X76450000Y-112845000D03*
X77450000Y-112845000D03*
X77950000Y-112845000D03*
X76950000Y-112845000D03*
X75450000Y-112845000D03*
X74450000Y-112845000D03*
D12*
X80520000Y-113420000D03*
D13*
X80520000Y-117600000D03*
D12*
X71880000Y-113420000D03*
D13*
X71880000Y-117600000D03*
D14*
X87356383Y-114396284D03*
X83095937Y-117163051D03*
D15*
X85803082Y-113592618D03*
X82993535Y-115417159D03*
D16*
X69304063Y-117163051D03*
X65043617Y-114396284D03*
D17*
X69406465Y-115417159D03*
X66596918Y-113592618D03*
D18*
X64765000Y-111980000D03*
X63115000Y-111980000D03*
D19*
X68805000Y-106460000D03*
X70355000Y-106460000D03*
D20*
X85484200Y-110109000D03*
X87134200Y-110109000D03*
X88201900Y-91643200D03*
X89851900Y-91643200D03*
D18*
X86740500Y-93218000D03*
X85090500Y-93218000D03*
D20*
X85090500Y-91630500D03*
X86740500Y-91630500D03*
D21*
X73661500Y-84759800D03*
X73661500Y-86029800D03*
X73661500Y-87299800D03*
X73661500Y-88569800D03*
X78611500Y-88569800D03*
X78611500Y-87299800D03*
X78611500Y-86029800D03*
X78611500Y-84759800D03*
D22*
X89801900Y-93218000D03*
X88251900Y-93218000D03*
D19*
X85534200Y-111980000D03*
X87084200Y-111980000D03*
D23*
X71564500Y-86881000D03*
X71564500Y-85331000D03*
D22*
X79975000Y-90500000D03*
X78425000Y-90500000D03*
D20*
X68805000Y-100760000D03*
X70455000Y-100760000D03*
D24*
X65043617Y-88803716D03*
X69304063Y-86036949D03*
D25*
X66596918Y-89607382D03*
X69406465Y-87782841D03*
D26*
X70140000Y-109030000D03*
X70140000Y-109530000D03*
X70140000Y-110030000D03*
X70140000Y-110530000D03*
X70140000Y-111030000D03*
X74540000Y-111030000D03*
X74540000Y-110530000D03*
X74540000Y-110030000D03*
X74540000Y-109530000D03*
X74540000Y-109030000D03*
D27*
X71812500Y-104785000D03*
X71812500Y-104135000D03*
X71812500Y-103485000D03*
X71812500Y-102835000D03*
X66087500Y-102835000D03*
X66087500Y-103485000D03*
X66087500Y-104135000D03*
X66087500Y-104785000D03*
D28*
X83120000Y-91067500D03*
X82620000Y-91067500D03*
X82120000Y-91067500D03*
X81620000Y-91067500D03*
D29*
X81607500Y-91580000D03*
X81607500Y-92080000D03*
D28*
X81620000Y-92592500D03*
X82120000Y-92592500D03*
X82620000Y-92592500D03*
X83120000Y-92592500D03*
D29*
X83132500Y-92080000D03*
X83132500Y-91580000D03*
D19*
X71895000Y-106460000D03*
X73445000Y-106460000D03*
D30*
X64610000Y-108275000D03*
X64610000Y-109925000D03*
D18*
X90334600Y-110083600D03*
X88684600Y-110083600D03*
D31*
X68885000Y-98780000D03*
X71835000Y-98780000D03*
D19*
X70385000Y-96740000D03*
X71935000Y-96740000D03*
X75225000Y-92100000D03*
X76775000Y-92100000D03*
X75225000Y-90500000D03*
X76775000Y-90500000D03*
D32*
X71650000Y-94137500D03*
X72600000Y-94137500D03*
X73550000Y-94137500D03*
X73550000Y-91862500D03*
X71650000Y-91862500D03*
D33*
X90112000Y-95020000D03*
X89096000Y-95020000D03*
X88080000Y-95020000D03*
X87064000Y-95020000D03*
X86048000Y-95020000D03*
X85032000Y-95020000D03*
X84016000Y-95020000D03*
X83000000Y-95020000D03*
X82000000Y-95020000D03*
X80968000Y-95020000D03*
X79952000Y-95020000D03*
X78936000Y-95020000D03*
X77920000Y-95020000D03*
X76904000Y-95020000D03*
X75888000Y-95020000D03*
D34*
X74500000Y-97964000D03*
X74500000Y-98980000D03*
X74500000Y-99996000D03*
X74500000Y-101012000D03*
X74500000Y-102028000D03*
X74500000Y-103044000D03*
X74500000Y-104060000D03*
X74500000Y-105076000D03*
D33*
X75888000Y-108020000D03*
X76904000Y-108020000D03*
X77920000Y-108020000D03*
X78936000Y-108020000D03*
X79952000Y-108020000D03*
X80968000Y-108020000D03*
X81984000Y-108020000D03*
X83000000Y-108020000D03*
X84016000Y-108020000D03*
X85032000Y-108020000D03*
X86048000Y-108020000D03*
X87064000Y-108020000D03*
X88080000Y-108020000D03*
X89096000Y-108020000D03*
X90112000Y-108020000D03*
D35*
X81000000Y-101520000D03*
D30*
X71564500Y-88392500D03*
X71564500Y-90042500D03*
D18*
X65005000Y-96430000D03*
X63355000Y-96430000D03*
D30*
X62410000Y-92705000D03*
X62410000Y-94355000D03*
D18*
X61925000Y-95800000D03*
X60275000Y-95800000D03*
D22*
X61775000Y-97800000D03*
X60225000Y-97800000D03*
D36*
X64213500Y-92966500D03*
X64213500Y-94866500D03*
X66088500Y-93916500D03*
D18*
X67225000Y-106510000D03*
X65575000Y-106510000D03*
X67355000Y-100880000D03*
X65705000Y-100880000D03*
D23*
X63600000Y-102375000D03*
X63600000Y-100825000D03*
D18*
X63075000Y-109850000D03*
X61425000Y-109850000D03*
D37*
X83095937Y-86036949D03*
X87356383Y-88803716D03*
D38*
X82993535Y-87782841D03*
X85803082Y-89607382D03*
D19*
X66650000Y-96740000D03*
X68200000Y-96740000D03*
X68445000Y-91050000D03*
X69995000Y-91050000D03*
D31*
X63725000Y-98770000D03*
X66675000Y-98770000D03*
D19*
X68495000Y-89480000D03*
X70045000Y-89480000D03*
D32*
X67990000Y-94987500D03*
X68940000Y-94987500D03*
X69890000Y-94987500D03*
X69890000Y-92712500D03*
X67990000Y-92712500D03*
D19*
X68085000Y-113670000D03*
X69635000Y-113670000D03*
D39*
X68200000Y-108190000D03*
X67250000Y-108190000D03*
X66300000Y-108190000D03*
X66300000Y-110390000D03*
X68200000Y-110390000D03*
D40*
X63700000Y-105887500D03*
X63700000Y-104012500D03*
D18*
X64642500Y-91249500D03*
X62992500Y-91249500D03*
D41*
X60642500Y-103441500D03*
D42*
X60642500Y-100901500D03*
D20*
X60675000Y-108300000D03*
X62325000Y-108300000D03*
D18*
X68365000Y-112040000D03*
X66715000Y-112040000D03*
D43*
X82180000Y-113765000D03*
X82180000Y-112115000D03*
D44*
X68365000Y-112040000D03*
X84217149Y-92542852D03*
X65528000Y-102077000D03*
X68312035Y-115136535D03*
X75506600Y-114562024D03*
X74725765Y-113851549D03*
X73282144Y-110839256D03*
X88684600Y-110083600D03*
X82993535Y-115417159D03*
X88080000Y-95020000D03*
X79975000Y-90500000D03*
X75225000Y-90500000D03*
X87870612Y-90499446D03*
X90334600Y-110083600D03*
X89096000Y-95020000D03*
X64765000Y-111980000D03*
X71564500Y-90042500D03*
X81417455Y-92782545D03*
X76904000Y-108020000D03*
X83841480Y-90734590D03*
X65575000Y-106510000D03*
X72600000Y-93870989D03*
X70355000Y-106460000D03*
X88251900Y-93218000D03*
X68200000Y-96740000D03*
X71564500Y-85331000D03*
X82330753Y-92846395D03*
X66715000Y-112040000D03*
X75888000Y-95020000D03*
X89851900Y-91643200D03*
X70045000Y-89480000D03*
X71935000Y-96740000D03*
X73000000Y-112845000D03*
X67250000Y-108190000D03*
X65515000Y-111005000D03*
X78425000Y-90500000D03*
X66300000Y-110390000D03*
X67627011Y-103409500D03*
X71895000Y-106460000D03*
X64610000Y-109925000D03*
X69635000Y-113670000D03*
X66088500Y-93916500D03*
X75810000Y-98002500D03*
X66596918Y-89607382D03*
X74500000Y-97964000D03*
X82993535Y-87782841D03*
X86048000Y-108020000D03*
X75779924Y-110104500D03*
X86740500Y-91630500D03*
X84241000Y-91589267D03*
X88080000Y-108020000D03*
X85090500Y-93218000D03*
X85060000Y-105360000D03*
X82496260Y-91634429D03*
X72760000Y-97560000D03*
X62410000Y-94355000D03*
X89096000Y-108020000D03*
X81010402Y-91563026D03*
X85032000Y-95020000D03*
X63355000Y-96430000D03*
X80968000Y-95020000D03*
X62325000Y-108300000D03*
X76904000Y-95020000D03*
X80968000Y-108020000D03*
X82000000Y-95020000D03*
X81984000Y-108020000D03*
X68764462Y-104037192D03*
X68783734Y-101496266D03*
X65005000Y-96430000D03*
X61775000Y-97800000D03*
X77049011Y-113792901D03*
X70140000Y-108930498D03*
X75950000Y-113702048D03*
X71122048Y-109529999D03*
D45*
X84217149Y-92542852D02*
X84120001Y-92640000D01*
X84120001Y-92640000D02*
X83310000Y-92640000D01*
X84217149Y-92542852D02*
X84276674Y-92542852D01*
X84276674Y-92542852D02*
X85090500Y-91729026D01*
X85090500Y-91729026D02*
X85090500Y-91630500D01*
X85803082Y-89607382D02*
X86328309Y-90132609D01*
D46*
X66087500Y-102835000D02*
X66087500Y-102636500D01*
X66087500Y-102636500D02*
X65528000Y-102077000D01*
X70950349Y-103240000D02*
X69120000Y-103240000D01*
X66087500Y-102835000D02*
X68715000Y-102835000D01*
X68715000Y-102835000D02*
X69120000Y-103240000D01*
D45*
X66087500Y-103485000D02*
X67551511Y-103485000D01*
X67551511Y-103485000D02*
X67627011Y-103409500D01*
D46*
X65705000Y-102452500D02*
X66087500Y-102835000D01*
X66930000Y-113754500D02*
X68312035Y-115136535D01*
X66758800Y-113754500D02*
X66930000Y-113754500D01*
D45*
X64610000Y-109925000D02*
X65835000Y-109925000D01*
X65835000Y-109925000D02*
X66300000Y-110390000D01*
D47*
X78600000Y-112845000D02*
X78499511Y-112744511D01*
X78499511Y-112744511D02*
X78499511Y-111870489D01*
X78499511Y-111870489D02*
X73699511Y-111870489D01*
X73699511Y-111870489D02*
X73699022Y-111870000D01*
D46*
X84725232Y-112514768D02*
X85803082Y-113592618D01*
X82180000Y-112115000D02*
X84325464Y-112115000D01*
X84325464Y-112115000D02*
X84725232Y-112514768D01*
X80149520Y-112095480D02*
X82160480Y-112095480D01*
X82160480Y-112095480D02*
X82180000Y-112115000D01*
X77950000Y-112845000D02*
X77950000Y-113783415D01*
X77950000Y-113783415D02*
X78911105Y-114744520D01*
X78911105Y-114744520D02*
X81200480Y-114744520D01*
X81200480Y-114744520D02*
X82180000Y-113765000D01*
D48*
X75722384Y-114251559D02*
X75722384Y-114346240D01*
X75722384Y-114346240D02*
X75506600Y-114562024D01*
D46*
X74950000Y-113627314D02*
X74725765Y-113851549D01*
X74950000Y-112845000D02*
X74950000Y-113627314D01*
D47*
X73800000Y-112845000D02*
X73800000Y-111970978D01*
D45*
X71435000Y-111870000D02*
X69635000Y-113670000D01*
D47*
X73800000Y-111970978D02*
X73699022Y-111870000D01*
X73699022Y-111870000D02*
X71435000Y-111870000D01*
D45*
X76133683Y-110740000D02*
X76090000Y-110740000D01*
X71650000Y-90128000D02*
X71564500Y-90042500D01*
X86408720Y-111105480D02*
X89312720Y-111105480D01*
D46*
X69406465Y-87782841D02*
X69704556Y-87782841D01*
X81607500Y-92592500D02*
X81417455Y-92782545D01*
D45*
X79093638Y-87299800D02*
X80060000Y-88266162D01*
X71650000Y-91862500D02*
X71650000Y-90128000D01*
X76123683Y-110750000D02*
X76100000Y-110750000D01*
D46*
X89801900Y-93568100D02*
X89801900Y-93218000D01*
X89001420Y-91669871D02*
X89001420Y-91989752D01*
X89096000Y-95020000D02*
X89096000Y-94274000D01*
X81990000Y-90500000D02*
X79975000Y-90500000D01*
X89001420Y-91989752D02*
X88598452Y-92392720D01*
D45*
X76109800Y-86029800D02*
X77379800Y-87299800D01*
X76090000Y-110740000D02*
X76123683Y-110750000D01*
X85534200Y-111980000D02*
X86408720Y-111105480D01*
X85534200Y-111980000D02*
X83819680Y-110265480D01*
D46*
X82120000Y-91067500D02*
X82120000Y-90630000D01*
D45*
X73661500Y-86029800D02*
X76109800Y-86029800D01*
X71564500Y-90042500D02*
X71564500Y-89954500D01*
D47*
X71564500Y-89954500D02*
X71140000Y-89530000D01*
D45*
X71564500Y-86881000D02*
X71579000Y-86881000D01*
D46*
X81620000Y-92592500D02*
X81607500Y-92592500D01*
D45*
X86328309Y-90132609D02*
X87503775Y-90132609D01*
X72430200Y-86029800D02*
X73661500Y-86029800D01*
X77379800Y-87299800D02*
X78611500Y-87299800D01*
X89001420Y-91119871D02*
X89001420Y-91669871D01*
X73591400Y-110530000D02*
X73440489Y-110379089D01*
D46*
X82120000Y-90630000D02*
X81990000Y-90500000D01*
D45*
X88380995Y-90499446D02*
X89001420Y-91119871D01*
X71564500Y-86881000D02*
X70308306Y-86881000D01*
X83819680Y-110265480D02*
X76608203Y-110265480D01*
D46*
X75225000Y-92100000D02*
X75225000Y-90500000D01*
D47*
X71140000Y-89530000D02*
X71140000Y-89287507D01*
D45*
X87870612Y-90499446D02*
X88380995Y-90499446D01*
X86678000Y-93218000D02*
X85090500Y-91630500D01*
D47*
X74540000Y-110530000D02*
X73591400Y-110530000D01*
D46*
X75392942Y-110530000D02*
X75602942Y-110740000D01*
D45*
X89312720Y-111105480D02*
X90334600Y-110083600D01*
D46*
X78611500Y-87299800D02*
X78916861Y-87299800D01*
D45*
X73440489Y-110379089D02*
X73440489Y-108980489D01*
X80060000Y-90415000D02*
X79975000Y-90500000D01*
D46*
X75602942Y-110740000D02*
X76090000Y-110740000D01*
D45*
X87503775Y-90132609D02*
X87870612Y-90499446D01*
X71579000Y-86881000D02*
X72430200Y-86029800D01*
X80060000Y-88266162D02*
X80060000Y-90415000D01*
X77379800Y-87299800D02*
X79093638Y-87299800D01*
D46*
X89096000Y-94274000D02*
X89801900Y-93568100D01*
D47*
X71140000Y-89287507D02*
X69635334Y-87782841D01*
D45*
X76100000Y-110750000D02*
X76090000Y-110740000D01*
X73591400Y-110530000D02*
X73282144Y-110839256D01*
X70308306Y-86881000D02*
X69406465Y-87782841D01*
D46*
X74540000Y-110530000D02*
X75392942Y-110530000D01*
D45*
X76608203Y-110265480D02*
X76133683Y-110740000D01*
D47*
X69635334Y-87782841D02*
X69406465Y-87782841D01*
D46*
X88598452Y-92392720D02*
X85852720Y-92392720D01*
D45*
X73440489Y-108980489D02*
X74540000Y-108980489D01*
D46*
X86740500Y-93218000D02*
X86678000Y-93218000D01*
X65733820Y-112729520D02*
X66758800Y-113754500D01*
X63864520Y-112729520D02*
X65733820Y-112729520D01*
X63115000Y-111980000D02*
X63864520Y-112729520D01*
X65733820Y-112729520D02*
X66596918Y-113592618D01*
X71360019Y-110104510D02*
X70214510Y-110104510D01*
X71104520Y-107209520D02*
X72695480Y-107209520D01*
X64134980Y-92391980D02*
X64976841Y-92391980D01*
X70045000Y-89480000D02*
X70045000Y-91000000D01*
X65705000Y-99740000D02*
X66675000Y-98770000D01*
X75888000Y-92987000D02*
X75888000Y-95020000D01*
X71104520Y-107209520D02*
X71104520Y-108624520D01*
X66675000Y-98770000D02*
X66675000Y-98265000D01*
X71880000Y-109400000D02*
X71880000Y-109584529D01*
X78611500Y-88569800D02*
X78425000Y-88756300D01*
X88338178Y-93218000D02*
X88251900Y-93218000D01*
X60225000Y-97800000D02*
X60225000Y-97500000D01*
X64050480Y-95029520D02*
X62695480Y-95029520D01*
X90526420Y-92317720D02*
X89851900Y-91643200D01*
X70214510Y-110104510D02*
X70140000Y-110030000D01*
X70355000Y-106460000D02*
X71104520Y-107209520D01*
X82312500Y-92828142D02*
X82330753Y-92846395D01*
X68085000Y-113410000D02*
X66715000Y-112040000D01*
X66675000Y-98265000D02*
X68200000Y-96740000D01*
X64213500Y-94866500D02*
X64050480Y-95029520D01*
X62364520Y-110789520D02*
X65299520Y-110789520D01*
X80149520Y-112095480D02*
X79400000Y-112845000D01*
X65705000Y-100880000D02*
X65705000Y-102452500D01*
X83562500Y-91067500D02*
X83841480Y-90788520D01*
X87084200Y-111980000D02*
X89630000Y-111980000D01*
X68085000Y-113670000D02*
X68085000Y-114095694D01*
X90112000Y-95020000D02*
X90526420Y-94605580D01*
X89851900Y-91643200D02*
X89851900Y-91704278D01*
X71935000Y-96740000D02*
X71935000Y-98680000D01*
X91310000Y-110300000D02*
X91310000Y-109218000D01*
X63600000Y-100825000D02*
X63523500Y-100901500D01*
X62695480Y-95029520D02*
X61925000Y-95800000D01*
X89739081Y-95985917D02*
X89739081Y-107647081D01*
X71195349Y-103485000D02*
X70950349Y-103240000D01*
X68085000Y-114095694D02*
X69406465Y-115417159D01*
X76775000Y-90500000D02*
X76775000Y-92100000D01*
X82312500Y-92592500D02*
X82620000Y-92592500D01*
X65650000Y-100825000D02*
X65705000Y-100880000D01*
X83120000Y-91067500D02*
X83562500Y-91067500D01*
X82120000Y-92592500D02*
X82312500Y-92592500D01*
X71935000Y-96740000D02*
X72600000Y-96075000D01*
X68940000Y-96000000D02*
X68940000Y-94987500D01*
X82312500Y-92592500D02*
X82312500Y-92828142D01*
X91310000Y-109218000D02*
X90112000Y-108020000D01*
X70045000Y-91000000D02*
X69995000Y-91050000D01*
X61425000Y-109850000D02*
X62364520Y-110789520D01*
X64976841Y-92391980D02*
X65225520Y-92640659D01*
X66550000Y-112040000D02*
X66715000Y-112040000D01*
X90112000Y-95020000D02*
X90112000Y-95612998D01*
X60642500Y-98217500D02*
X60642500Y-100901500D01*
X89851900Y-91704278D02*
X88338178Y-93218000D01*
X65225520Y-93441619D02*
X64213500Y-94453639D01*
X85803082Y-113592618D02*
X85803082Y-113261118D01*
X68200000Y-96740000D02*
X68940000Y-96000000D01*
X72600000Y-96075000D02*
X72600000Y-94137500D01*
X78425000Y-88756300D02*
X78425000Y-90500000D01*
X62992500Y-91249500D02*
X64134980Y-92391980D01*
X85803082Y-113261118D02*
X87084200Y-111980000D01*
X78425000Y-90500000D02*
X76775000Y-90500000D01*
X89739081Y-107647081D02*
X90112000Y-108020000D01*
X71104520Y-108624520D02*
X71880000Y-109400000D01*
X68085000Y-113670000D02*
X68085000Y-113410000D01*
X72695480Y-107209520D02*
X73445000Y-106460000D01*
X83841480Y-90788520D02*
X83841480Y-90734590D01*
X64213500Y-94453639D02*
X64213500Y-94866500D01*
X65705000Y-100880000D02*
X65705000Y-99740000D01*
X90112000Y-95612998D02*
X89739081Y-95985917D01*
X71935000Y-98680000D02*
X71835000Y-98780000D01*
X90526420Y-94605580D02*
X90526420Y-92317720D01*
X63600000Y-100825000D02*
X65650000Y-100825000D01*
X60225000Y-97500000D02*
X61925000Y-95800000D01*
X89630000Y-111980000D02*
X91310000Y-110300000D01*
X71812500Y-103485000D02*
X71195349Y-103485000D01*
X65225520Y-92640659D02*
X65225520Y-93441619D01*
X65299520Y-110789520D02*
X65515000Y-111005000D01*
X63523500Y-100901500D02*
X60642500Y-100901500D01*
X71880000Y-109584529D02*
X71360019Y-110104510D01*
X76775000Y-92100000D02*
X75888000Y-92987000D01*
X65515000Y-111005000D02*
X66550000Y-112040000D01*
X60225000Y-97800000D02*
X60642500Y-98217500D01*
D45*
X64422701Y-103125480D02*
X64950000Y-103652779D01*
X60642500Y-103441500D02*
X62533500Y-103441500D01*
X64950000Y-104750000D02*
X64985000Y-104785000D01*
X66374520Y-108115480D02*
X66300000Y-108190000D01*
X64950000Y-103652779D02*
X64950000Y-104750000D01*
X65172849Y-104785000D02*
X66374520Y-105986671D01*
X66374520Y-105986671D02*
X66374520Y-108115480D01*
X62533500Y-103441500D02*
X63600000Y-102375000D01*
X62849520Y-103125480D02*
X64422701Y-103125480D01*
D46*
X65470349Y-104785000D02*
X66087500Y-104785000D01*
D45*
X60642500Y-103441500D02*
X60642500Y-108267500D01*
X70368573Y-104785000D02*
X70368573Y-104896427D01*
X60642500Y-108267500D02*
X60675000Y-108300000D01*
X71018573Y-104135000D02*
X71812500Y-104135000D01*
X64985000Y-104785000D02*
X66087500Y-104785000D01*
X70368573Y-104785000D02*
X71018573Y-104135000D01*
X64985000Y-104785000D02*
X65172849Y-104785000D01*
X70368573Y-104896427D02*
X68805000Y-106460000D01*
X64985000Y-104785000D02*
X70368573Y-104785000D01*
D46*
X71812500Y-104135000D02*
X71195349Y-104135000D01*
D45*
X62533500Y-103441500D02*
X62849520Y-103125480D01*
D46*
X63700000Y-104012500D02*
X62725480Y-104987020D01*
X62725480Y-104987020D02*
X62725480Y-106390480D01*
X62725480Y-106390480D02*
X64610000Y-108275000D01*
X68020000Y-108370000D02*
X68200000Y-108190000D01*
X63700000Y-105887500D02*
X65359520Y-107547020D01*
X65359520Y-108653542D02*
X65705978Y-109000000D01*
X67830000Y-109000000D02*
X68020000Y-108810000D01*
X68020000Y-108810000D02*
X68020000Y-108370000D01*
X65705978Y-109000000D02*
X67830000Y-109000000D01*
X68020000Y-108810000D02*
X68110000Y-108720000D01*
X65359520Y-107547020D02*
X65359520Y-108653542D01*
X87134200Y-108090200D02*
X87064000Y-108020000D01*
X87134200Y-110109000D02*
X87134200Y-108090200D01*
X74500000Y-99996000D02*
X74962000Y-99996000D01*
X74962000Y-99996000D02*
X75810000Y-99148000D01*
X66284618Y-89607382D02*
X66596918Y-89607382D01*
X64642500Y-91249500D02*
X66284618Y-89607382D01*
X75810000Y-99148000D02*
X75810000Y-98002500D01*
X87215829Y-90657129D02*
X85337009Y-90657129D01*
X85337009Y-90657129D02*
X82993535Y-88313655D01*
X82993535Y-88313655D02*
X82993535Y-87782841D01*
X88201900Y-91643200D02*
X87215829Y-90657129D01*
X75705424Y-110030000D02*
X75779924Y-110104500D01*
X74540000Y-110030000D02*
X75705424Y-110030000D01*
X83285184Y-89170310D02*
X84592437Y-90477563D01*
X84241000Y-91589267D02*
X83141767Y-91589267D01*
X82094332Y-87937271D02*
X82094332Y-89170310D01*
X78611500Y-84759800D02*
X78916861Y-84759800D01*
X82094332Y-89170310D02*
X83285184Y-89170310D01*
X84415980Y-90654020D02*
X84415980Y-91414287D01*
X78916861Y-84759800D02*
X82094332Y-87937271D01*
X84415980Y-91414287D02*
X84241000Y-91589267D01*
X84592437Y-90477563D02*
X84415980Y-90654020D01*
X83141767Y-91589267D02*
X83132500Y-91580000D01*
X82620000Y-90564994D02*
X81694813Y-89639807D01*
X82620000Y-91510689D02*
X82496260Y-91634429D01*
X85032000Y-108020000D02*
X85032000Y-105388000D01*
X85032000Y-105388000D02*
X85060000Y-105360000D01*
X82620000Y-91067500D02*
X82620000Y-90564994D01*
X81694813Y-88807752D02*
X78916861Y-86029800D01*
X82620000Y-91067500D02*
X82620000Y-91510689D01*
X78916861Y-86029800D02*
X78611500Y-86029800D01*
X81694813Y-89639807D02*
X81694813Y-88807752D01*
X74038000Y-98980000D02*
X72760000Y-97702000D01*
X74500000Y-98980000D02*
X74038000Y-98980000D01*
X72760000Y-97702000D02*
X72760000Y-97560000D01*
X72473000Y-104785000D02*
X73110000Y-104148000D01*
X71812500Y-104785000D02*
X72473000Y-104785000D01*
X70455000Y-100760000D02*
X71300000Y-100760000D01*
X73110000Y-104148000D02*
X74038000Y-105076000D01*
X73110000Y-102570000D02*
X73110000Y-104148000D01*
X71300000Y-100760000D02*
X73110000Y-102570000D01*
X74038000Y-105076000D02*
X74500000Y-105076000D01*
X81607500Y-91580000D02*
X81027376Y-91580000D01*
X81027376Y-91580000D02*
X81010402Y-91563026D01*
X83049094Y-93420906D02*
X81243334Y-93420906D01*
X81307518Y-92080000D02*
X81607500Y-92080000D01*
X84016000Y-94286000D02*
X83100000Y-93370000D01*
X81243334Y-93420906D02*
X80842944Y-93020516D01*
X83100000Y-93370000D02*
X83049094Y-93420906D01*
X84016000Y-95020000D02*
X84016000Y-94286000D01*
X80842944Y-92544574D02*
X81307518Y-92080000D01*
X80842944Y-93020516D02*
X80842944Y-92544574D01*
X85484200Y-110109000D02*
X84905200Y-109530000D01*
X84905200Y-109530000D02*
X74540000Y-109530000D01*
X69310000Y-102835000D02*
X67355000Y-100880000D01*
X71812500Y-102835000D02*
X69310000Y-102835000D01*
X68799511Y-109790489D02*
X68200000Y-110390000D01*
X68799511Y-107385489D02*
X68799511Y-109790489D01*
X68100489Y-107385489D02*
X68799511Y-107385489D01*
X67225000Y-106510000D02*
X68100489Y-107385489D01*
X62325000Y-109100000D02*
X62325000Y-108300000D01*
X63075000Y-109850000D02*
X62325000Y-109100000D01*
X73661500Y-87299800D02*
X73966861Y-87299800D01*
X72657200Y-87299800D02*
X73661500Y-87299800D01*
X83000000Y-95950000D02*
X83000000Y-95020000D01*
X82880000Y-96070000D02*
X83000000Y-95950000D01*
X75030000Y-89513573D02*
X74500480Y-90043093D01*
X75460000Y-96070000D02*
X82880000Y-96070000D01*
X74500480Y-90043093D02*
X74500480Y-95110480D01*
X71564500Y-88392500D02*
X72657200Y-87299800D01*
X75030000Y-88362939D02*
X75030000Y-89513573D01*
X73966861Y-87299800D02*
X75030000Y-88362939D01*
X74500480Y-95110480D02*
X75460000Y-96070000D01*
D45*
X73550000Y-93470000D02*
X73550000Y-94137500D01*
X67653750Y-94834112D02*
X68562382Y-93925480D01*
X63725000Y-98770000D02*
X64620000Y-98770000D01*
X69890000Y-94987500D02*
X69890000Y-96245000D01*
D46*
X68885000Y-100680000D02*
X68805000Y-100760000D01*
D45*
X71437980Y-93925480D02*
X71650000Y-94137500D01*
X70355480Y-93925480D02*
X71437980Y-93925480D01*
X73110000Y-93030000D02*
X73550000Y-93470000D01*
X69317618Y-93925480D02*
X70355480Y-93925480D01*
X68805000Y-98860000D02*
X68805000Y-100760000D01*
D46*
X68885000Y-98780000D02*
X68885000Y-100680000D01*
D45*
X64620000Y-98770000D02*
X66650000Y-96740000D01*
X70385000Y-96740000D02*
X70385000Y-97280000D01*
X70355480Y-93925480D02*
X71324520Y-93925480D01*
D46*
X71650000Y-94137500D02*
X71650000Y-93824639D01*
D45*
X71324520Y-93925480D02*
X72220000Y-93030000D01*
X69890000Y-94497862D02*
X69890000Y-94987500D01*
X69317618Y-93925480D02*
X69890000Y-94497862D01*
X68562382Y-93925480D02*
X69317618Y-93925480D01*
X66650000Y-96327500D02*
X67653750Y-95323750D01*
X68783734Y-98881266D02*
X68783734Y-101496266D01*
X69792500Y-97872500D02*
X68783734Y-98881266D01*
X69890000Y-96245000D02*
X70385000Y-96740000D01*
X67653750Y-95323750D02*
X67990000Y-94987500D01*
X67653750Y-95323750D02*
X67653750Y-94834112D01*
X69792500Y-97872500D02*
X68885000Y-98780000D01*
X68764462Y-104037192D02*
X68666654Y-104135000D01*
X70385000Y-97280000D02*
X69792500Y-97872500D01*
X66650000Y-96740000D02*
X66650000Y-96327500D01*
X69792500Y-97872500D02*
X68805000Y-98860000D01*
D46*
X67990000Y-94987500D02*
X67990000Y-95400000D01*
D45*
X72220000Y-93030000D02*
X73110000Y-93030000D01*
X68666654Y-104135000D02*
X66087500Y-104135000D01*
X68495000Y-89480000D02*
X68495000Y-91000000D01*
X68445000Y-92257500D02*
X67990000Y-92712500D01*
X67990000Y-92712500D02*
X67990000Y-93529638D01*
X68445000Y-91050000D02*
X68445000Y-92257500D01*
X67990000Y-93529638D02*
X65089638Y-96430000D01*
X65089638Y-96430000D02*
X65005000Y-96430000D01*
X68495000Y-91000000D02*
X68445000Y-91050000D01*
D46*
X60275000Y-94840000D02*
X60275000Y-95800000D01*
X62671500Y-92966500D02*
X62410000Y-92705000D01*
X64213500Y-92966500D02*
X62671500Y-92966500D01*
X62410000Y-92705000D02*
X60275000Y-94840000D01*
D48*
X75950000Y-112845000D02*
X75950000Y-113702048D01*
X76950000Y-113693890D02*
X77049011Y-113792901D01*
X76950000Y-112845000D02*
X76950000Y-113693890D01*
X75400489Y-112894511D02*
X75450000Y-112845000D01*
X75722384Y-114251559D02*
X75400489Y-113929664D01*
X75400489Y-113929664D02*
X75400489Y-112894511D01*
X76499511Y-113929664D02*
X76177616Y-114251559D01*
X76450000Y-112845000D02*
X76499511Y-112894511D01*
X76499511Y-112894511D02*
X76499511Y-113929664D01*
X76177616Y-114251559D02*
X75722384Y-114251559D01*
X71122048Y-109529999D02*
X70140000Y-109530000D01*
M02*
