M48
; DRILL file {KiCad (6.0.0-0)} date 2022 February 02, Wednesday 12:25:23
; FORMAT={-:-/ absolute / inch / decimal}
; #@! TF.CreationDate,2022-02-02T12:25:23+10:00
; #@! TF.GenerationSoftware,Kicad,Pcbnew,(6.0.0-0)
; #@! TF.FileFunction,Plated,1,2,PTH
FMAT,2
INCH
; #@! TA.AperFunction,Plated,PTH,ViaDrill
T1C0.0118
; #@! TA.AperFunction,Plated,PTH,ViaDrill
T2C0.0130
; #@! TA.AperFunction,Plated,PTH,ComponentDrill
T3C0.0157
; #@! TA.AperFunction,Plated,PTH,ComponentDrill
T4C0.0197
; #@! TA.AperFunction,Plated,PTH,ComponentDrill
T5C0.0236
%
G90
G05
T1
X2.1475Y-4.2598
X2.1725Y-4.1242
X2.1785Y-4.7547
X2.1932Y-4.8274
X2.1954Y-4.0019
X2.2097Y-4.2059
X2.254Y-4.7516
X2.2746Y-4.2059
X2.2914Y-4.6649
X2.2952Y-4.4282
X2.2952Y-4.566
X2.3173Y-4.1069
X2.3373Y-4.8816
X2.3607Y-4.0245
X2.3779Y-4.4807
X2.4004Y-4.2181
X2.4044Y-4.6646
X2.4227Y-4.5054
X2.4234Y-4.4053
X2.4398Y-4.8207
X2.4398Y-4.8817
X2.443Y-4.6882
X2.4676Y-4.6023
X2.4731Y-3.9323
X2.5262Y-4.6016
X2.53Y-4.1751
X2.5329Y-3.7689
X2.5363Y-4.7275
X2.5475Y-4.2181
X2.573Y-4.1051
X2.578Y-4.248
X2.6248Y-4.2694
X2.6248Y-4.3494
X2.6295Y-4.6862
X2.6804Y-4.9193
X2.7055Y-4.8977
X2.7195Y-4.6653
X2.7488Y-4.9013
X2.803Y-3.9724
X2.864Y-3.9724
X2.8795Y-4.6653
X2.8796Y-4.1834
X2.9048Y-4.0143
X2.9195Y-4.6653
X2.9201Y-4.1831
X2.9208Y-4.0623
X2.9568Y-4.0648
X2.9633Y-4.0171
X2.9829Y-3.8863
X2.9829Y-4.9534
X3.0162Y-3.9819
X3.031Y-4.0528
X3.032Y-4.0153
X3.0395Y-4.1834
X3.0654Y-4.0794
X3.0825Y-4.7476
X3.1304Y-4.0169
X3.1379Y-4.5457
X3.1394Y-4.7112
X3.1595Y-4.6653
X3.1596Y-4.1834
X3.1899Y-4.0794
X3.1995Y-4.1834
X3.2069Y-4.7434
X3.2719Y-4.7434
T2
X2.8103Y-3.7964
T4
X2.1028Y-4.4416
X2.1028Y-4.481
X2.7213Y-4.0827
X2.7213Y-4.7366
X2.7607Y-4.0827
X2.7607Y-4.7366
X2.8Y-4.0827
X2.8Y-4.7366
X2.8394Y-4.0827
X2.8394Y-4.7366
X3.3075Y-4.0839
X3.3075Y-4.1233
T3
G00X2.2826Y-3.9155
M15
G01X2.2697Y-3.8957
M16
G05
G00X2.2826Y-4.9033
M15
G01X2.2697Y-4.9231
M16
G05
G00X2.4503Y-3.8066
M15
G01X2.4375Y-3.7868
M16
G05
G00X2.4503Y-5.0122
M15
G01X2.4375Y-5.0321
M16
G05
G00X2.9805Y-3.8066
M15
G01X2.9933Y-3.7868
M16
G05
G00X2.9805Y-5.0122
M15
G01X2.9933Y-5.0321
M16
G05
G00X3.1482Y-3.9155
M15
G01X3.1611Y-3.8957
M16
G05
G00X3.1482Y-4.9033
M15
G01X3.1611Y-4.9231
M16
G05
T5
G00X2.5453Y-4.8724
M15
G01X2.5453Y-4.9157
M16
G05
G00X2.5453Y-5.0468
M15
G01X2.5453Y-5.0705
M16
G05
G00X2.8855Y-4.8724
M15
G01X2.8855Y-4.9157
M16
G05
G00X2.8855Y-5.0468
M15
G01X2.8855Y-5.0705
M16
G05
T0
M30
