G04 #@! TF.GenerationSoftware,KiCad,Pcbnew,(6.0.0-0)*
G04 #@! TF.CreationDate,2022-02-07T14:16:52+10:00*
G04 #@! TF.ProjectId,osw-light,6f73772d-6c69-4676-9874-2e6b69636164,3.3*
G04 #@! TF.SameCoordinates,Original*
G04 #@! TF.FileFunction,Copper,L2,Bot*
G04 #@! TF.FilePolarity,Positive*
%FSLAX46Y46*%
G04 Gerber Fmt 4.6, Leading zero omitted, Abs format (unit mm)*
G04 Created by KiCad (PCBNEW (6.0.0-0)) date 2022-02-07 14:16:52*
%MOMM*%
%LPD*%
G01*
G04 APERTURE LIST*
G04 Aperture macros list*
%AMHorizOval*
0 Thick line with rounded ends*
0 $1 width*
0 $2 $3 position (X,Y) of the first rounded end (center of the circle)*
0 $4 $5 position (X,Y) of the second rounded end (center of the circle)*
0 Add line between two ends*
20,1,$1,$2,$3,$4,$5,0*
0 Add two circle primitives to create the rounded ends*
1,1,$1,$2,$3*
1,1,$1,$4,$5*%
G04 Aperture macros list end*
G04 #@! TA.AperFunction,ComponentPad*
%ADD10HorizOval,0.600000X0.251623X-0.387466X-0.251623X0.387466X0*%
G04 #@! TD*
G04 #@! TA.AperFunction,ComponentPad*
%ADD11HorizOval,0.600000X-0.251623X-0.387466X0.251623X0.387466X0*%
G04 #@! TD*
G04 #@! TA.AperFunction,ComponentPad*
%ADD12HorizOval,0.600000X-0.251623X0.387466X0.251623X-0.387466X0*%
G04 #@! TD*
G04 #@! TA.AperFunction,ComponentPad*
%ADD13HorizOval,0.600000X0.251623X0.387466X-0.251623X-0.387466X0*%
G04 #@! TD*
G04 #@! TA.AperFunction,ComponentPad*
%ADD14O,1.000000X2.100000*%
G04 #@! TD*
G04 #@! TA.AperFunction,ComponentPad*
%ADD15O,1.000000X1.600000*%
G04 #@! TD*
G04 #@! TA.AperFunction,SMDPad,CuDef*
%ADD16R,2.500000X0.350000*%
G04 #@! TD*
G04 #@! TA.AperFunction,ViaPad*
%ADD17C,0.600000*%
G04 #@! TD*
G04 #@! TA.AperFunction,Conductor*
%ADD18C,0.200000*%
G04 #@! TD*
G04 #@! TA.AperFunction,Conductor*
%ADD19C,0.500000*%
G04 #@! TD*
G04 #@! TA.AperFunction,Conductor*
%ADD20C,0.400000*%
G04 #@! TD*
G04 APERTURE END LIST*
D10*
X80127311Y-124795804D03*
X75866865Y-127562571D03*
D11*
X62074991Y-127562571D03*
X57814545Y-124795804D03*
D12*
X62074991Y-96436469D03*
X57814545Y-99203236D03*
D13*
X80127311Y-99203236D03*
X75866865Y-96436469D03*
D14*
X64650928Y-124309520D03*
D15*
X73290928Y-128489520D03*
D14*
X73290928Y-124309520D03*
D15*
X64650928Y-128489520D03*
D16*
X58298928Y-115976520D03*
X58298928Y-115276520D03*
X58298928Y-114576520D03*
X58298928Y-113876520D03*
X58298928Y-113176520D03*
X58298928Y-112476520D03*
X58298928Y-111776520D03*
X58298928Y-111076520D03*
X58298928Y-110376520D03*
X58298928Y-109676520D03*
X58298928Y-108976520D03*
X58298928Y-108276520D03*
D17*
X81569700Y-123441987D03*
X80250928Y-105499520D03*
X74929204Y-102859999D03*
X77014502Y-103689011D03*
X64231488Y-118900095D03*
X62177393Y-98182361D03*
X82630300Y-122178013D03*
X81266928Y-105499520D03*
X55420000Y-116695000D03*
X55785000Y-114360000D03*
X62965000Y-102340000D03*
X74494732Y-100079731D03*
X71575000Y-99295000D03*
X58298928Y-112838928D03*
X57348917Y-108348806D03*
X63525000Y-104590000D03*
X61095529Y-122417500D03*
X77310000Y-102590000D03*
X58265000Y-117325000D03*
X54235000Y-114360000D03*
X68690000Y-103477500D03*
X75142956Y-101515845D03*
X76827704Y-122691340D03*
X54520000Y-121240000D03*
X57679905Y-104186332D03*
X55760000Y-107420000D03*
X67679991Y-122220018D03*
X62420000Y-113110000D03*
X53770000Y-106345000D03*
X53930000Y-112370000D03*
X58898916Y-115276181D03*
X67107232Y-107467232D03*
X59505094Y-100144150D03*
X66670928Y-108427020D03*
X75764463Y-98182361D03*
X80250928Y-118499520D03*
X79575000Y-101350000D03*
X75893659Y-101184391D03*
X77202928Y-118499520D03*
X79575000Y-103290000D03*
X75953581Y-102464501D03*
X61522500Y-106664500D03*
X56249917Y-108490000D03*
X74170500Y-109050018D03*
X77202928Y-105499520D03*
X75860500Y-104011451D03*
X53708428Y-119805049D03*
X73138928Y-106049020D03*
X66625000Y-98025000D03*
X75170928Y-105499520D03*
X64816056Y-107216056D03*
X73138928Y-118499520D03*
X74170928Y-105499520D03*
X74154928Y-118499520D03*
X69804886Y-124756922D03*
X68720928Y-124401568D03*
X57660000Y-118120498D03*
X58642048Y-118720000D03*
X67903608Y-124913951D03*
X58298928Y-114530500D03*
X62385000Y-108420000D03*
X60560000Y-108427020D03*
D18*
X80489801Y-105499520D02*
X81394720Y-106404439D01*
X81394720Y-106404439D02*
X81394720Y-123267007D01*
X80250928Y-105499520D02*
X80489801Y-105499520D01*
X81394720Y-123267007D02*
X81569700Y-123441987D01*
D19*
X60477639Y-98182361D02*
X62177393Y-98182361D01*
X53535489Y-114649748D02*
X53535489Y-113753770D01*
D20*
X64231488Y-118061488D02*
X64231488Y-118900095D01*
D18*
X74929204Y-102859999D02*
X75571952Y-102859999D01*
D20*
X60046520Y-113876520D02*
X64231488Y-118061488D01*
X58298928Y-113876520D02*
X56268480Y-113876520D01*
X56268480Y-113876520D02*
X55785000Y-114360000D01*
D19*
X81266928Y-105499520D02*
X81894240Y-106126832D01*
X81894240Y-106126832D02*
X81894240Y-121441953D01*
D20*
X58298928Y-113876520D02*
X60046520Y-113876520D01*
D19*
X55420000Y-116534259D02*
X53535489Y-114649748D01*
X81894240Y-121441953D02*
X82630300Y-122178013D01*
D18*
X76400964Y-103689011D02*
X77014502Y-103689011D01*
X75571952Y-102859999D02*
X76400964Y-103689011D01*
D19*
X54629511Y-112659748D02*
X54629511Y-104030489D01*
X55420000Y-116695000D02*
X55420000Y-116534259D01*
X54629511Y-104030489D02*
X60477639Y-98182361D01*
X53535489Y-113753770D02*
X54629511Y-112659748D01*
D18*
X58226642Y-108348806D02*
X58298928Y-108276520D01*
X64650928Y-128489520D02*
X73290928Y-128489520D01*
X54520000Y-121240000D02*
X55697500Y-122417500D01*
X55697500Y-122417500D02*
X61095529Y-122417500D01*
X58298928Y-113176520D02*
X56191353Y-113176520D01*
X73290928Y-124309520D02*
X75209524Y-124309520D01*
X75209524Y-124309520D02*
X76827704Y-122691340D01*
X56191353Y-113176520D02*
X55235489Y-114132384D01*
X58298928Y-112476520D02*
X58298928Y-112838928D01*
X57348917Y-108348806D02*
X58226642Y-108348806D01*
X56616520Y-115976520D02*
X58298928Y-115976520D01*
X77310000Y-102590000D02*
X76915509Y-102590000D01*
X55007873Y-114360000D02*
X55235489Y-114132384D01*
X62987549Y-124309520D02*
X64650928Y-124309520D01*
X72359731Y-100079731D02*
X74494732Y-100079731D01*
X75542101Y-101914990D02*
X75142956Y-101515845D01*
X71575000Y-99295000D02*
X71575000Y-100592500D01*
X61095529Y-122417500D02*
X62987549Y-124309520D01*
X54235000Y-114360000D02*
X55007873Y-114360000D01*
X76240499Y-101914990D02*
X75542101Y-101914990D01*
X63525000Y-102900000D02*
X62965000Y-102340000D01*
X71575000Y-100592500D02*
X68690000Y-103477500D01*
X76915509Y-102590000D02*
X76240499Y-101914990D01*
X58298928Y-112838928D02*
X58298928Y-113176520D01*
X63525000Y-104590000D02*
X63525000Y-102900000D01*
X73290928Y-124309520D02*
X73290928Y-128489520D01*
X55235489Y-114595489D02*
X56616520Y-115976520D01*
X55235489Y-114132384D02*
X55235489Y-114595489D01*
X71575000Y-99295000D02*
X72359731Y-100079731D01*
X64650928Y-124309520D02*
X64650928Y-128489520D01*
X58298928Y-117291072D02*
X58265000Y-117325000D01*
X58298928Y-115976520D02*
X58298928Y-117291072D01*
D19*
X67679991Y-118369991D02*
X67679991Y-122220018D01*
X55760000Y-107420000D02*
X55760000Y-106106237D01*
X62420000Y-113110000D02*
X67679991Y-118369991D01*
X55760000Y-106106237D02*
X57679905Y-104186332D01*
X53930000Y-106505000D02*
X53770000Y-106345000D01*
X53930000Y-112370000D02*
X53930000Y-106505000D01*
D18*
X67107232Y-105705105D02*
X67107232Y-107467232D01*
X61409029Y-100006902D02*
X67107232Y-105705105D01*
X59642342Y-100006902D02*
X59505094Y-100144150D01*
X61409029Y-100006902D02*
X59642342Y-100006902D01*
X75764463Y-98182361D02*
X75764463Y-99587112D01*
X66924555Y-108427020D02*
X66670928Y-108427020D01*
X75764463Y-99587112D02*
X66924555Y-108427020D01*
X79701417Y-104088583D02*
X79701417Y-105727136D01*
X79701417Y-105727136D02*
X80250928Y-106276647D01*
X76059268Y-101350000D02*
X75893659Y-101184391D01*
X79575000Y-101350000D02*
X80150000Y-101925000D01*
X80150000Y-101925000D02*
X80150000Y-103640000D01*
X80250928Y-106276647D02*
X80250928Y-118499520D01*
X79575000Y-101350000D02*
X76059268Y-101350000D01*
X80150000Y-103640000D02*
X79701417Y-104088583D01*
X75953581Y-102464501D02*
X76628591Y-103139511D01*
X77759511Y-105720064D02*
X77759511Y-103139511D01*
X77202928Y-118499520D02*
X77202928Y-106276647D01*
X76628591Y-103139511D02*
X79424511Y-103139511D01*
X77202928Y-106276647D02*
X77759511Y-105720064D01*
X79424511Y-103139511D02*
X79575000Y-103290000D01*
X56249917Y-108490000D02*
X56249917Y-107995787D01*
X57685223Y-106560481D02*
X61418481Y-106560481D01*
X56249917Y-107995787D02*
X57685223Y-106560481D01*
X61418481Y-106560481D02*
X61522500Y-106664500D01*
X73543998Y-109676520D02*
X58298928Y-109676520D01*
X74170500Y-109050018D02*
X73543998Y-109676520D01*
X75860500Y-104011451D02*
X77202928Y-105353879D01*
X77202928Y-105353879D02*
X77202928Y-105499520D01*
X62017579Y-119805049D02*
X67675992Y-125463462D01*
X69946538Y-125463462D02*
X74720000Y-120690000D01*
X74720000Y-120690000D02*
X74720000Y-107630092D01*
X53708428Y-119805049D02*
X62017579Y-119805049D01*
X67675992Y-125463462D02*
X69946538Y-125463462D01*
X74720000Y-107630092D02*
X73138928Y-106049020D01*
X74379693Y-101466179D02*
X74379693Y-104708285D01*
X76313974Y-97954745D02*
X75992079Y-97632850D01*
X76313974Y-99531897D02*
X76313974Y-97954745D01*
X67017150Y-97632850D02*
X66625000Y-98025000D01*
X74379693Y-104708285D02*
X75170928Y-105499520D01*
X75992079Y-97632850D02*
X67017150Y-97632850D01*
X74379693Y-101466179D02*
X76313974Y-99531897D01*
X64814011Y-107214011D02*
X64816056Y-107216056D01*
X56799417Y-107940583D02*
X56799417Y-111727009D01*
X56799417Y-107940583D02*
X57525989Y-107214011D01*
X56848928Y-111776520D02*
X58298928Y-111776520D01*
X57525989Y-107214011D02*
X64814011Y-107214011D01*
X56799417Y-111727009D02*
X56848928Y-111776520D01*
X65715928Y-111076520D02*
X73138928Y-118499520D01*
X58298928Y-111076520D02*
X65715928Y-111076520D01*
X68627936Y-107217935D02*
X70346351Y-105499520D01*
X58298928Y-108976520D02*
X66898555Y-108976520D01*
X66898555Y-108976520D02*
X68627936Y-107247139D01*
X68627936Y-107247139D02*
X68627936Y-107217935D01*
X70346351Y-105499520D02*
X74170928Y-105499520D01*
X66031928Y-110376520D02*
X74154928Y-118499520D01*
X58298928Y-110376520D02*
X66031928Y-110376520D01*
X68720928Y-124401568D02*
X62439858Y-118120498D01*
X69804886Y-124756922D02*
X69076282Y-124756922D01*
X69076282Y-124756922D02*
X68720928Y-124401568D01*
X62439858Y-118120498D02*
X57660000Y-118120498D01*
X61709657Y-118720000D02*
X58642048Y-118720000D01*
X67903608Y-124913951D02*
X61709657Y-118720000D01*
X60567020Y-108420000D02*
X60560000Y-108427020D01*
X62385000Y-108420000D02*
X60567020Y-108420000D01*
M02*
