G04 #@! TF.GenerationSoftware,KiCad,Pcbnew,(6.0.0-0)*
G04 #@! TF.CreationDate,2022-02-02T12:25:20+10:00*
G04 #@! TF.ProjectId,osw-light,6f73772d-6c69-4676-9874-2e6b69636164,3.3*
G04 #@! TF.SameCoordinates,Original*
G04 #@! TF.FileFunction,Legend,Bot*
G04 #@! TF.FilePolarity,Positive*
%FSLAX46Y46*%
G04 Gerber Fmt 4.6, Leading zero omitted, Abs format (unit mm)*
G04 Created by KiCad (PCBNEW (6.0.0-0)) date 2022-02-02 12:25:20*
%MOMM*%
%LPD*%
G01*
G04 APERTURE LIST*
G04 Aperture macros list*
%AMRoundRect*
0 Rectangle with rounded corners*
0 $1 Rounding radius*
0 $2 $3 $4 $5 $6 $7 $8 $9 X,Y pos of 4 corners*
0 Add a 4 corners polygon primitive as box body*
4,1,4,$2,$3,$4,$5,$6,$7,$8,$9,$2,$3,0*
0 Add four circle primitives for the rounded corners*
1,1,$1+$1,$2,$3*
1,1,$1+$1,$4,$5*
1,1,$1+$1,$6,$7*
1,1,$1+$1,$8,$9*
0 Add four rect primitives between the rounded corners*
20,1,$1+$1,$2,$3,$4,$5,0*
20,1,$1+$1,$4,$5,$6,$7,0*
20,1,$1+$1,$6,$7,$8,$9,0*
20,1,$1+$1,$8,$9,$2,$3,0*%
%AMHorizOval*
0 Thick line with rounded ends*
0 $1 width*
0 $2 $3 position (X,Y) of the first rounded end (center of the circle)*
0 $4 $5 position (X,Y) of the second rounded end (center of the circle)*
0 Add line between two ends*
20,1,$1,$2,$3,$4,$5,0*
0 Add two circle primitives to create the rounded ends*
1,1,$1,$2,$3*
1,1,$1,$4,$5*%
G04 Aperture macros list end*
%ADD10C,0.160000*%
%ADD11C,0.200000*%
%ADD12C,0.100000*%
%ADD13C,0.150000*%
%ADD14HorizOval,0.702000X0.251623X-0.387466X-0.251623X0.387466X0*%
%ADD15HorizOval,0.702000X-0.251623X-0.387466X0.251623X0.387466X0*%
%ADD16HorizOval,0.702000X-0.251623X0.387466X0.251623X-0.387466X0*%
%ADD17HorizOval,0.702000X0.251623X0.387466X-0.251623X-0.387466X0*%
%ADD18RoundRect,0.051000X0.425000X0.425000X-0.425000X0.425000X-0.425000X-0.425000X0.425000X-0.425000X0*%
%ADD19O,0.952000X0.952000*%
%ADD20RoundRect,0.051000X-0.425000X-0.425000X0.425000X-0.425000X0.425000X0.425000X-0.425000X0.425000X0*%
%ADD21RoundRect,0.051000X0.425000X-0.425000X0.425000X0.425000X-0.425000X0.425000X-0.425000X-0.425000X0*%
%ADD22C,0.752000*%
%ADD23O,1.102000X1.702000*%
%ADD24O,1.102000X2.202000*%
%ADD25RoundRect,0.051000X-1.250000X0.175000X-1.250000X-0.175000X1.250000X-0.175000X1.250000X0.175000X0*%
G04 APERTURE END LIST*
D10*
X72150952Y-94960571D02*
X72150952Y-95608190D01*
X72189047Y-95684380D01*
X72227142Y-95722476D01*
X72303333Y-95760571D01*
X72417619Y-95760571D01*
X72493809Y-95722476D01*
X72150952Y-95455809D02*
X72227142Y-95493904D01*
X72379523Y-95493904D01*
X72455714Y-95455809D01*
X72493809Y-95417714D01*
X72531904Y-95341523D01*
X72531904Y-95112952D01*
X72493809Y-95036761D01*
X72455714Y-94998666D01*
X72379523Y-94960571D01*
X72227142Y-94960571D01*
X72150952Y-94998666D01*
X71770000Y-95493904D02*
X71770000Y-94960571D01*
X71770000Y-94693904D02*
X71808095Y-94732000D01*
X71770000Y-94770095D01*
X71731904Y-94732000D01*
X71770000Y-94693904D01*
X71770000Y-94770095D01*
X71503333Y-94960571D02*
X71198571Y-94960571D01*
X71389047Y-94693904D02*
X71389047Y-95379619D01*
X71350952Y-95455809D01*
X71274761Y-95493904D01*
X71198571Y-95493904D01*
X70931904Y-95493904D02*
X70931904Y-94693904D01*
X70589047Y-95493904D02*
X70589047Y-95074857D01*
X70627142Y-94998666D01*
X70703333Y-94960571D01*
X70817619Y-94960571D01*
X70893809Y-94998666D01*
X70931904Y-95036761D01*
X69865238Y-94960571D02*
X69865238Y-95493904D01*
X70208095Y-94960571D02*
X70208095Y-95379619D01*
X70170000Y-95455809D01*
X70093809Y-95493904D01*
X69979523Y-95493904D01*
X69903333Y-95455809D01*
X69865238Y-95417714D01*
X69484285Y-95493904D02*
X69484285Y-94693904D01*
X69484285Y-94998666D02*
X69408095Y-94960571D01*
X69255714Y-94960571D01*
X69179523Y-94998666D01*
X69141428Y-95036761D01*
X69103333Y-95112952D01*
X69103333Y-95341523D01*
X69141428Y-95417714D01*
X69179523Y-95455809D01*
X69255714Y-95493904D01*
X69408095Y-95493904D01*
X69484285Y-95455809D01*
X68760476Y-95417714D02*
X68722380Y-95455809D01*
X68760476Y-95493904D01*
X68798571Y-95455809D01*
X68760476Y-95417714D01*
X68760476Y-95493904D01*
X68036666Y-95455809D02*
X68112857Y-95493904D01*
X68265238Y-95493904D01*
X68341428Y-95455809D01*
X68379523Y-95417714D01*
X68417619Y-95341523D01*
X68417619Y-95112952D01*
X68379523Y-95036761D01*
X68341428Y-94998666D01*
X68265238Y-94960571D01*
X68112857Y-94960571D01*
X68036666Y-94998666D01*
X67579523Y-95493904D02*
X67655714Y-95455809D01*
X67693809Y-95417714D01*
X67731904Y-95341523D01*
X67731904Y-95112952D01*
X67693809Y-95036761D01*
X67655714Y-94998666D01*
X67579523Y-94960571D01*
X67465238Y-94960571D01*
X67389047Y-94998666D01*
X67350952Y-95036761D01*
X67312857Y-95112952D01*
X67312857Y-95341523D01*
X67350952Y-95417714D01*
X67389047Y-95455809D01*
X67465238Y-95493904D01*
X67579523Y-95493904D01*
X66970000Y-95493904D02*
X66970000Y-94960571D01*
X66970000Y-95036761D02*
X66931904Y-94998666D01*
X66855714Y-94960571D01*
X66741428Y-94960571D01*
X66665238Y-94998666D01*
X66627142Y-95074857D01*
X66627142Y-95493904D01*
X66627142Y-95074857D02*
X66589047Y-94998666D01*
X66512857Y-94960571D01*
X66398571Y-94960571D01*
X66322380Y-94998666D01*
X66284285Y-95074857D01*
X66284285Y-95493904D01*
X65331904Y-94655809D02*
X66017619Y-95684380D01*
X70798571Y-96743809D02*
X70684285Y-96781904D01*
X70493809Y-96781904D01*
X70417619Y-96743809D01*
X70379523Y-96705714D01*
X70341428Y-96629523D01*
X70341428Y-96553333D01*
X70379523Y-96477142D01*
X70417619Y-96439047D01*
X70493809Y-96400952D01*
X70646190Y-96362857D01*
X70722380Y-96324761D01*
X70760476Y-96286666D01*
X70798571Y-96210476D01*
X70798571Y-96134285D01*
X70760476Y-96058095D01*
X70722380Y-96020000D01*
X70646190Y-95981904D01*
X70455714Y-95981904D01*
X70341428Y-96020000D01*
X69655714Y-96781904D02*
X69655714Y-96362857D01*
X69693809Y-96286666D01*
X69770000Y-96248571D01*
X69922380Y-96248571D01*
X69998571Y-96286666D01*
X69655714Y-96743809D02*
X69731904Y-96781904D01*
X69922380Y-96781904D01*
X69998571Y-96743809D01*
X70036666Y-96667619D01*
X70036666Y-96591428D01*
X69998571Y-96515238D01*
X69922380Y-96477142D01*
X69731904Y-96477142D01*
X69655714Y-96439047D01*
X69389047Y-96248571D02*
X69084285Y-96248571D01*
X69274761Y-95981904D02*
X69274761Y-96667619D01*
X69236666Y-96743809D01*
X69160476Y-96781904D01*
X69084285Y-96781904D01*
X68398571Y-96781904D02*
X68855714Y-96781904D01*
X68627142Y-96781904D02*
X68627142Y-95981904D01*
X68703333Y-96096190D01*
X68779523Y-96172380D01*
X68855714Y-96210476D01*
X67941428Y-96781904D02*
X68017619Y-96743809D01*
X68055714Y-96667619D01*
X68055714Y-95981904D01*
X67065238Y-95943809D02*
X67750952Y-96972380D01*
X75846190Y-98069904D02*
X75922380Y-98031809D01*
X75960476Y-97993714D01*
X75998571Y-97917523D01*
X75998571Y-97688952D01*
X75960476Y-97612761D01*
X75922380Y-97574666D01*
X75846190Y-97536571D01*
X75731904Y-97536571D01*
X75655714Y-97574666D01*
X75617619Y-97612761D01*
X75579523Y-97688952D01*
X75579523Y-97917523D01*
X75617619Y-97993714D01*
X75655714Y-98031809D01*
X75731904Y-98069904D01*
X75846190Y-98069904D01*
X75236666Y-97536571D02*
X75236666Y-98336571D01*
X75236666Y-97574666D02*
X75160476Y-97536571D01*
X75008095Y-97536571D01*
X74931904Y-97574666D01*
X74893809Y-97612761D01*
X74855714Y-97688952D01*
X74855714Y-97917523D01*
X74893809Y-97993714D01*
X74931904Y-98031809D01*
X75008095Y-98069904D01*
X75160476Y-98069904D01*
X75236666Y-98031809D01*
X74208095Y-98031809D02*
X74284285Y-98069904D01*
X74436666Y-98069904D01*
X74512857Y-98031809D01*
X74550952Y-97955619D01*
X74550952Y-97650857D01*
X74512857Y-97574666D01*
X74436666Y-97536571D01*
X74284285Y-97536571D01*
X74208095Y-97574666D01*
X74170000Y-97650857D01*
X74170000Y-97727047D01*
X74550952Y-97803238D01*
X73827142Y-97536571D02*
X73827142Y-98069904D01*
X73827142Y-97612761D02*
X73789047Y-97574666D01*
X73712857Y-97536571D01*
X73598571Y-97536571D01*
X73522380Y-97574666D01*
X73484285Y-97650857D01*
X73484285Y-98069904D01*
X73103333Y-97765142D02*
X72493809Y-97765142D01*
X72150952Y-98031809D02*
X72074761Y-98069904D01*
X71922380Y-98069904D01*
X71846190Y-98031809D01*
X71808095Y-97955619D01*
X71808095Y-97917523D01*
X71846190Y-97841333D01*
X71922380Y-97803238D01*
X72036666Y-97803238D01*
X72112857Y-97765142D01*
X72150952Y-97688952D01*
X72150952Y-97650857D01*
X72112857Y-97574666D01*
X72036666Y-97536571D01*
X71922380Y-97536571D01*
X71846190Y-97574666D01*
X71465238Y-98069904D02*
X71465238Y-97536571D01*
X71465238Y-97612761D02*
X71427142Y-97574666D01*
X71350952Y-97536571D01*
X71236666Y-97536571D01*
X71160476Y-97574666D01*
X71122380Y-97650857D01*
X71122380Y-98069904D01*
X71122380Y-97650857D02*
X71084285Y-97574666D01*
X71008095Y-97536571D01*
X70893809Y-97536571D01*
X70817619Y-97574666D01*
X70779523Y-97650857D01*
X70779523Y-98069904D01*
X70055714Y-98069904D02*
X70055714Y-97650857D01*
X70093809Y-97574666D01*
X70170000Y-97536571D01*
X70322380Y-97536571D01*
X70398571Y-97574666D01*
X70055714Y-98031809D02*
X70131904Y-98069904D01*
X70322380Y-98069904D01*
X70398571Y-98031809D01*
X70436666Y-97955619D01*
X70436666Y-97879428D01*
X70398571Y-97803238D01*
X70322380Y-97765142D01*
X70131904Y-97765142D01*
X70055714Y-97727047D01*
X69674761Y-98069904D02*
X69674761Y-97536571D01*
X69674761Y-97688952D02*
X69636666Y-97612761D01*
X69598571Y-97574666D01*
X69522380Y-97536571D01*
X69446190Y-97536571D01*
X69293809Y-97536571D02*
X68989047Y-97536571D01*
X69179523Y-97269904D02*
X69179523Y-97955619D01*
X69141428Y-98031809D01*
X69065238Y-98069904D01*
X68989047Y-98069904D01*
X68798571Y-97536571D02*
X68646190Y-98069904D01*
X68493809Y-97688952D01*
X68341428Y-98069904D01*
X68189047Y-97536571D01*
X67541428Y-98069904D02*
X67541428Y-97650857D01*
X67579523Y-97574666D01*
X67655714Y-97536571D01*
X67808095Y-97536571D01*
X67884285Y-97574666D01*
X67541428Y-98031809D02*
X67617619Y-98069904D01*
X67808095Y-98069904D01*
X67884285Y-98031809D01*
X67922380Y-97955619D01*
X67922380Y-97879428D01*
X67884285Y-97803238D01*
X67808095Y-97765142D01*
X67617619Y-97765142D01*
X67541428Y-97727047D01*
X67274761Y-97536571D02*
X66970000Y-97536571D01*
X67160476Y-97269904D02*
X67160476Y-97955619D01*
X67122380Y-98031809D01*
X67046190Y-98069904D01*
X66970000Y-98069904D01*
X66360476Y-98031809D02*
X66436666Y-98069904D01*
X66589047Y-98069904D01*
X66665238Y-98031809D01*
X66703333Y-97993714D01*
X66741428Y-97917523D01*
X66741428Y-97688952D01*
X66703333Y-97612761D01*
X66665238Y-97574666D01*
X66589047Y-97536571D01*
X66436666Y-97536571D01*
X66360476Y-97574666D01*
X66017619Y-98069904D02*
X66017619Y-97269904D01*
X65674761Y-98069904D02*
X65674761Y-97650857D01*
X65712857Y-97574666D01*
X65789047Y-97536571D01*
X65903333Y-97536571D01*
X65979523Y-97574666D01*
X66017619Y-97612761D01*
X65293809Y-97765142D02*
X64684285Y-97765142D01*
X64189047Y-98069904D02*
X64265238Y-98031809D01*
X64303333Y-97955619D01*
X64303333Y-97269904D01*
X63884285Y-98069904D02*
X63884285Y-97536571D01*
X63884285Y-97269904D02*
X63922380Y-97308000D01*
X63884285Y-97346095D01*
X63846190Y-97308000D01*
X63884285Y-97269904D01*
X63884285Y-97346095D01*
X63160476Y-97536571D02*
X63160476Y-98184190D01*
X63198571Y-98260380D01*
X63236666Y-98298476D01*
X63312857Y-98336571D01*
X63427142Y-98336571D01*
X63503333Y-98298476D01*
X63160476Y-98031809D02*
X63236666Y-98069904D01*
X63389047Y-98069904D01*
X63465238Y-98031809D01*
X63503333Y-97993714D01*
X63541428Y-97917523D01*
X63541428Y-97688952D01*
X63503333Y-97612761D01*
X63465238Y-97574666D01*
X63389047Y-97536571D01*
X63236666Y-97536571D01*
X63160476Y-97574666D01*
X62779523Y-98069904D02*
X62779523Y-97269904D01*
X62436666Y-98069904D02*
X62436666Y-97650857D01*
X62474761Y-97574666D01*
X62550952Y-97536571D01*
X62665238Y-97536571D01*
X62741428Y-97574666D01*
X62779523Y-97612761D01*
X62170000Y-97536571D02*
X61865238Y-97536571D01*
X62055714Y-97269904D02*
X62055714Y-97955619D01*
X62017619Y-98031809D01*
X61941428Y-98069904D01*
X61865238Y-98069904D01*
D11*
X78565739Y-97497794D02*
X78046562Y-97160636D01*
X78118637Y-97661676D01*
X77998827Y-97583871D01*
X77893019Y-97571937D01*
X77827147Y-97585938D01*
X77735340Y-97639877D01*
X77605664Y-97839560D01*
X77593730Y-97945369D01*
X77607732Y-98011241D01*
X77661670Y-98103048D01*
X77901290Y-98258659D01*
X78007099Y-98270593D01*
X78072970Y-98256591D01*
X77974723Y-126771497D02*
X77994928Y-126190584D01*
X78453964Y-126460275D02*
X77909325Y-125621604D01*
X77589831Y-125829086D01*
X77535893Y-125920893D01*
X77521891Y-125986764D01*
X77533825Y-126092573D01*
X77611631Y-126212383D01*
X77703438Y-126266321D01*
X77769310Y-126280323D01*
X77875118Y-126268389D01*
X78194612Y-126060908D01*
X59947163Y-97240510D02*
X59881291Y-97226508D01*
X59775483Y-97238442D01*
X59575799Y-97368118D01*
X59521861Y-97459925D01*
X59507860Y-97525797D01*
X59519793Y-97631605D01*
X59571664Y-97711479D01*
X59689406Y-97805354D01*
X60479869Y-97973372D01*
X59960692Y-98310529D01*
X59340923Y-126383807D02*
X59820163Y-126695029D01*
X59580543Y-126539418D02*
X60125182Y-125700748D01*
X60127250Y-125872428D01*
X60155253Y-126004172D01*
X60209191Y-126095979D01*
D12*
X51497118Y-112848567D02*
X51901880Y-112848567D01*
X51949499Y-112872377D01*
X51973308Y-112896186D01*
X51997118Y-112943805D01*
X51997118Y-113039043D01*
X51973308Y-113086662D01*
X51949499Y-113110472D01*
X51901880Y-113134281D01*
X51497118Y-113134281D01*
X51663785Y-113586662D02*
X51997118Y-113586662D01*
X51473308Y-113467615D02*
X51830451Y-113348567D01*
X51830451Y-113658091D01*
X56275118Y-108419377D02*
X56275118Y-108133662D01*
X56275118Y-108276520D02*
X55775118Y-108276520D01*
X55846547Y-108228900D01*
X55894166Y-108181281D01*
X55917975Y-108133662D01*
X56325118Y-115381281D02*
X56325118Y-115095567D01*
X56325118Y-115238424D02*
X55825118Y-115238424D01*
X55896547Y-115190805D01*
X55944166Y-115143186D01*
X55967975Y-115095567D01*
X55872737Y-115571758D02*
X55848928Y-115595567D01*
X55825118Y-115643186D01*
X55825118Y-115762234D01*
X55848928Y-115809853D01*
X55872737Y-115833662D01*
X55920356Y-115857472D01*
X55967975Y-115857472D01*
X56039404Y-115833662D01*
X56325118Y-115547948D01*
X56325118Y-115857472D01*
D13*
X59248928Y-106826520D02*
X59248928Y-107826520D01*
X55498928Y-118626520D02*
X52498928Y-118626520D01*
X59248928Y-116426520D02*
X59248928Y-117426520D01*
X58848928Y-106426520D02*
X52248928Y-106426520D01*
X52498928Y-118626520D02*
X52278928Y-118626520D01*
X56298928Y-117826520D02*
X58898928Y-117826520D01*
X56298928Y-117826520D02*
G75*
G03*
X55898928Y-118226520I-1J-399999D01*
G01*
X58848928Y-117826520D02*
G75*
G03*
X59248928Y-117426520I1J399999D01*
G01*
X59248928Y-106826520D02*
G75*
G03*
X58848928Y-106426520I-399999J1D01*
G01*
X55498928Y-118626520D02*
G75*
G03*
X55898928Y-118226520I1J399999D01*
G01*
X55498928Y-107426520D02*
G75*
G03*
X55498928Y-107426520I-500000J0D01*
G01*
X55498928Y-117426520D02*
G75*
G03*
X55498928Y-117426520I-500000J0D01*
G01*
%LPC*%
D14*
X80127311Y-124795804D03*
X75866865Y-127562571D03*
D15*
X57814545Y-124795804D03*
X62074991Y-127562571D03*
D16*
X57814545Y-99203236D03*
X62074991Y-96436469D03*
D17*
X80127311Y-99203236D03*
X75866865Y-96436469D03*
D18*
X53410928Y-113817020D03*
D19*
X53410928Y-112817020D03*
D20*
X84010928Y-103732020D03*
D19*
X84010928Y-104732020D03*
D21*
X69120928Y-103699520D03*
D19*
X70120928Y-103699520D03*
X71120928Y-103699520D03*
X72120928Y-103699520D03*
D22*
X66080928Y-124839520D03*
X71860928Y-124839520D03*
D23*
X73290928Y-128489520D03*
D24*
X73290928Y-124309520D03*
X64650928Y-124309520D03*
D23*
X64650928Y-128489520D03*
D21*
X69120928Y-120309520D03*
D19*
X70120928Y-120309520D03*
X71120928Y-120309520D03*
X72120928Y-120309520D03*
D25*
X58298928Y-115976520D03*
X58298928Y-115276520D03*
X58298928Y-114576520D03*
X58298928Y-113876520D03*
X58298928Y-113176520D03*
X58298928Y-112476520D03*
X58298928Y-111776520D03*
X58298928Y-111076520D03*
X58298928Y-110376520D03*
X58298928Y-109676520D03*
X58298928Y-108976520D03*
X58298928Y-108276520D03*
M02*
